%TF.GenerationSoftware,KiCad,Pcbnew,8.0.1*%
%TF.CreationDate,2024-05-08T12:06:43+02:00*%
%TF.ProjectId,SommerESP,536f6d6d-6572-4455-9350-2e6b69636164,rev?*%
%TF.SameCoordinates,Original*%
%TF.FileFunction,Legend,Top*%
%TF.FilePolarity,Positive*%
%FSLAX46Y46*%
G04 Gerber Fmt 4.6, Leading zero omitted, Abs format (unit mm)*
G04 Created by KiCad (PCBNEW 8.0.1) date 2024-05-08 12:06:43*
%MOMM*%
%LPD*%
G01*
G04 APERTURE LIST*
G04 Aperture macros list*
%AMRoundRect*
0 Rectangle with rounded corners*
0 $1 Rounding radius*
0 $2 $3 $4 $5 $6 $7 $8 $9 X,Y pos of 4 corners*
0 Add a 4 corners polygon primitive as box body*
4,1,4,$2,$3,$4,$5,$6,$7,$8,$9,$2,$3,0*
0 Add four circle primitives for the rounded corners*
1,1,$1+$1,$2,$3*
1,1,$1+$1,$4,$5*
1,1,$1+$1,$6,$7*
1,1,$1+$1,$8,$9*
0 Add four rect primitives between the rounded corners*
20,1,$1+$1,$2,$3,$4,$5,0*
20,1,$1+$1,$4,$5,$6,$7,0*
20,1,$1+$1,$6,$7,$8,$9,0*
20,1,$1+$1,$8,$9,$2,$3,0*%
G04 Aperture macros list end*
%ADD10C,0.150000*%
%ADD11C,0.120000*%
%ADD12RoundRect,0.237500X0.250000X0.237500X-0.250000X0.237500X-0.250000X-0.237500X0.250000X-0.237500X0*%
%ADD13RoundRect,0.237500X-0.237500X0.250000X-0.237500X-0.250000X0.237500X-0.250000X0.237500X0.250000X0*%
%ADD14RoundRect,0.250000X0.412500X0.650000X-0.412500X0.650000X-0.412500X-0.650000X0.412500X-0.650000X0*%
%ADD15R,1.500000X1.900000*%
%ADD16R,1.700000X1.700000*%
%ADD17O,1.700000X1.700000*%
%ADD18RoundRect,0.250000X-0.650000X1.000000X-0.650000X-1.000000X0.650000X-1.000000X0.650000X1.000000X0*%
%ADD19RoundRect,0.237500X0.237500X-0.250000X0.237500X0.250000X-0.237500X0.250000X-0.237500X-0.250000X0*%
%ADD20RoundRect,0.250000X0.650000X0.250000X-0.650000X0.250000X-0.650000X-0.250000X0.650000X-0.250000X0*%
%ADD21RoundRect,0.250000X-0.325000X-0.450000X0.325000X-0.450000X0.325000X0.450000X-0.325000X0.450000X0*%
%ADD22C,0.500000*%
%ADD23RoundRect,0.250000X-0.725000X0.600000X-0.725000X-0.600000X0.725000X-0.600000X0.725000X0.600000X0*%
%ADD24O,1.950000X1.700000*%
%ADD25R,1.500000X0.900000*%
%ADD26R,0.700000X0.700000*%
%ADD27RoundRect,0.235000X1.465000X-0.940000X1.465000X0.940000X-1.465000X0.940000X-1.465000X-0.940000X0*%
%ADD28R,4.600000X1.100000*%
%ADD29R,9.400000X10.800000*%
%ADD30R,1.400000X1.700000*%
%ADD31R,4.000000X1.800000*%
%ADD32RoundRect,0.250000X-0.475000X0.337500X-0.475000X-0.337500X0.475000X-0.337500X0.475000X0.337500X0*%
%ADD33R,1.600000X1.600000*%
%ADD34O,1.600000X1.600000*%
%ADD35RoundRect,0.700000X0.950000X-0.700000X0.950000X0.700000X-0.950000X0.700000X-0.950000X-0.700000X0*%
%ADD36RoundRect,0.237500X-0.250000X-0.237500X0.250000X-0.237500X0.250000X0.237500X-0.250000X0.237500X0*%
G04 APERTURE END LIST*
D10*
X93425000Y-61925000D02*
X93425000Y-62050000D01*
X90125000Y-61850000D02*
X93425000Y-61850000D01*
X105800000Y-82875000D02*
X100350000Y-82875000D01*
X93425000Y-62075000D02*
X90125000Y-62075000D01*
X105800000Y-83100000D02*
X100350000Y-83100000D01*
X102270112Y-64046009D02*
X102412969Y-64093628D01*
X102412969Y-64093628D02*
X102460588Y-64141247D01*
X102460588Y-64141247D02*
X102508207Y-64236485D01*
X102508207Y-64236485D02*
X102508207Y-64379342D01*
X102508207Y-64379342D02*
X102460588Y-64474580D01*
X102460588Y-64474580D02*
X102412969Y-64522200D01*
X102412969Y-64522200D02*
X102317731Y-64569819D01*
X102317731Y-64569819D02*
X101936779Y-64569819D01*
X101936779Y-64569819D02*
X101936779Y-63569819D01*
X101936779Y-63569819D02*
X102270112Y-63569819D01*
X102270112Y-63569819D02*
X102365350Y-63617438D01*
X102365350Y-63617438D02*
X102412969Y-63665057D01*
X102412969Y-63665057D02*
X102460588Y-63760295D01*
X102460588Y-63760295D02*
X102460588Y-63855533D01*
X102460588Y-63855533D02*
X102412969Y-63950771D01*
X102412969Y-63950771D02*
X102365350Y-63998390D01*
X102365350Y-63998390D02*
X102270112Y-64046009D01*
X102270112Y-64046009D02*
X101936779Y-64046009D01*
X103508207Y-64569819D02*
X103174874Y-64093628D01*
X102936779Y-64569819D02*
X102936779Y-63569819D01*
X102936779Y-63569819D02*
X103317731Y-63569819D01*
X103317731Y-63569819D02*
X103412969Y-63617438D01*
X103412969Y-63617438D02*
X103460588Y-63665057D01*
X103460588Y-63665057D02*
X103508207Y-63760295D01*
X103508207Y-63760295D02*
X103508207Y-63903152D01*
X103508207Y-63903152D02*
X103460588Y-63998390D01*
X103460588Y-63998390D02*
X103412969Y-64046009D01*
X103412969Y-64046009D02*
X103317731Y-64093628D01*
X103317731Y-64093628D02*
X102936779Y-64093628D01*
X103936779Y-64569819D02*
X103936779Y-63569819D01*
X104412969Y-64569819D02*
X104412969Y-63569819D01*
X104412969Y-63569819D02*
X104651064Y-63569819D01*
X104651064Y-63569819D02*
X104793921Y-63617438D01*
X104793921Y-63617438D02*
X104889159Y-63712676D01*
X104889159Y-63712676D02*
X104936778Y-63807914D01*
X104936778Y-63807914D02*
X104984397Y-63998390D01*
X104984397Y-63998390D02*
X104984397Y-64141247D01*
X104984397Y-64141247D02*
X104936778Y-64331723D01*
X104936778Y-64331723D02*
X104889159Y-64426961D01*
X104889159Y-64426961D02*
X104793921Y-64522200D01*
X104793921Y-64522200D02*
X104651064Y-64569819D01*
X104651064Y-64569819D02*
X104412969Y-64569819D01*
X105936778Y-63617438D02*
X105841540Y-63569819D01*
X105841540Y-63569819D02*
X105698683Y-63569819D01*
X105698683Y-63569819D02*
X105555826Y-63617438D01*
X105555826Y-63617438D02*
X105460588Y-63712676D01*
X105460588Y-63712676D02*
X105412969Y-63807914D01*
X105412969Y-63807914D02*
X105365350Y-63998390D01*
X105365350Y-63998390D02*
X105365350Y-64141247D01*
X105365350Y-64141247D02*
X105412969Y-64331723D01*
X105412969Y-64331723D02*
X105460588Y-64426961D01*
X105460588Y-64426961D02*
X105555826Y-64522200D01*
X105555826Y-64522200D02*
X105698683Y-64569819D01*
X105698683Y-64569819D02*
X105793921Y-64569819D01*
X105793921Y-64569819D02*
X105936778Y-64522200D01*
X105936778Y-64522200D02*
X105984397Y-64474580D01*
X105984397Y-64474580D02*
X105984397Y-64141247D01*
X105984397Y-64141247D02*
X105793921Y-64141247D01*
X106412969Y-64046009D02*
X106746302Y-64046009D01*
X106889159Y-64569819D02*
X106412969Y-64569819D01*
X106412969Y-64569819D02*
X106412969Y-63569819D01*
X106412969Y-63569819D02*
X106889159Y-63569819D01*
X118908207Y-67569819D02*
X118574874Y-67093628D01*
X118336779Y-67569819D02*
X118336779Y-66569819D01*
X118336779Y-66569819D02*
X118717731Y-66569819D01*
X118717731Y-66569819D02*
X118812969Y-66617438D01*
X118812969Y-66617438D02*
X118860588Y-66665057D01*
X118860588Y-66665057D02*
X118908207Y-66760295D01*
X118908207Y-66760295D02*
X118908207Y-66903152D01*
X118908207Y-66903152D02*
X118860588Y-66998390D01*
X118860588Y-66998390D02*
X118812969Y-67046009D01*
X118812969Y-67046009D02*
X118717731Y-67093628D01*
X118717731Y-67093628D02*
X118336779Y-67093628D01*
X119289160Y-67522200D02*
X119432017Y-67569819D01*
X119432017Y-67569819D02*
X119670112Y-67569819D01*
X119670112Y-67569819D02*
X119765350Y-67522200D01*
X119765350Y-67522200D02*
X119812969Y-67474580D01*
X119812969Y-67474580D02*
X119860588Y-67379342D01*
X119860588Y-67379342D02*
X119860588Y-67284104D01*
X119860588Y-67284104D02*
X119812969Y-67188866D01*
X119812969Y-67188866D02*
X119765350Y-67141247D01*
X119765350Y-67141247D02*
X119670112Y-67093628D01*
X119670112Y-67093628D02*
X119479636Y-67046009D01*
X119479636Y-67046009D02*
X119384398Y-66998390D01*
X119384398Y-66998390D02*
X119336779Y-66950771D01*
X119336779Y-66950771D02*
X119289160Y-66855533D01*
X119289160Y-66855533D02*
X119289160Y-66760295D01*
X119289160Y-66760295D02*
X119336779Y-66665057D01*
X119336779Y-66665057D02*
X119384398Y-66617438D01*
X119384398Y-66617438D02*
X119479636Y-66569819D01*
X119479636Y-66569819D02*
X119717731Y-66569819D01*
X119717731Y-66569819D02*
X119860588Y-66617438D01*
X120146303Y-66569819D02*
X120717731Y-66569819D01*
X120432017Y-67569819D02*
X120432017Y-66569819D01*
X121536779Y-53769819D02*
X121536779Y-52769819D01*
X122108207Y-53769819D02*
X121679636Y-53198390D01*
X122108207Y-52769819D02*
X121536779Y-53341247D01*
X122536779Y-53246009D02*
X122870112Y-53246009D01*
X123012969Y-53769819D02*
X122536779Y-53769819D01*
X122536779Y-53769819D02*
X122536779Y-52769819D01*
X122536779Y-52769819D02*
X123012969Y-52769819D01*
X123632017Y-53293628D02*
X123632017Y-53769819D01*
X123298684Y-52769819D02*
X123632017Y-53293628D01*
X123632017Y-53293628D02*
X123965350Y-52769819D01*
X124298684Y-53769819D02*
X124298684Y-52769819D01*
X124298684Y-52769819D02*
X124679636Y-52769819D01*
X124679636Y-52769819D02*
X124774874Y-52817438D01*
X124774874Y-52817438D02*
X124822493Y-52865057D01*
X124822493Y-52865057D02*
X124870112Y-52960295D01*
X124870112Y-52960295D02*
X124870112Y-53103152D01*
X124870112Y-53103152D02*
X124822493Y-53198390D01*
X124822493Y-53198390D02*
X124774874Y-53246009D01*
X124774874Y-53246009D02*
X124679636Y-53293628D01*
X124679636Y-53293628D02*
X124298684Y-53293628D01*
X125251065Y-53484104D02*
X125727255Y-53484104D01*
X125155827Y-53769819D02*
X125489160Y-52769819D01*
X125489160Y-52769819D02*
X125822493Y-53769819D01*
X126155827Y-53769819D02*
X126155827Y-52769819D01*
X126155827Y-52769819D02*
X126393922Y-52769819D01*
X126393922Y-52769819D02*
X126536779Y-52817438D01*
X126536779Y-52817438D02*
X126632017Y-52912676D01*
X126632017Y-52912676D02*
X126679636Y-53007914D01*
X126679636Y-53007914D02*
X126727255Y-53198390D01*
X126727255Y-53198390D02*
X126727255Y-53341247D01*
X126727255Y-53341247D02*
X126679636Y-53531723D01*
X126679636Y-53531723D02*
X126632017Y-53626961D01*
X126632017Y-53626961D02*
X126536779Y-53722200D01*
X126536779Y-53722200D02*
X126393922Y-53769819D01*
X126393922Y-53769819D02*
X126155827Y-53769819D01*
X96320112Y-94946009D02*
X96462969Y-94993628D01*
X96462969Y-94993628D02*
X96510588Y-95041247D01*
X96510588Y-95041247D02*
X96558207Y-95136485D01*
X96558207Y-95136485D02*
X96558207Y-95279342D01*
X96558207Y-95279342D02*
X96510588Y-95374580D01*
X96510588Y-95374580D02*
X96462969Y-95422200D01*
X96462969Y-95422200D02*
X96367731Y-95469819D01*
X96367731Y-95469819D02*
X95986779Y-95469819D01*
X95986779Y-95469819D02*
X95986779Y-94469819D01*
X95986779Y-94469819D02*
X96320112Y-94469819D01*
X96320112Y-94469819D02*
X96415350Y-94517438D01*
X96415350Y-94517438D02*
X96462969Y-94565057D01*
X96462969Y-94565057D02*
X96510588Y-94660295D01*
X96510588Y-94660295D02*
X96510588Y-94755533D01*
X96510588Y-94755533D02*
X96462969Y-94850771D01*
X96462969Y-94850771D02*
X96415350Y-94898390D01*
X96415350Y-94898390D02*
X96320112Y-94946009D01*
X96320112Y-94946009D02*
X95986779Y-94946009D01*
X97177255Y-94469819D02*
X97367731Y-94469819D01*
X97367731Y-94469819D02*
X97462969Y-94517438D01*
X97462969Y-94517438D02*
X97558207Y-94612676D01*
X97558207Y-94612676D02*
X97605826Y-94803152D01*
X97605826Y-94803152D02*
X97605826Y-95136485D01*
X97605826Y-95136485D02*
X97558207Y-95326961D01*
X97558207Y-95326961D02*
X97462969Y-95422200D01*
X97462969Y-95422200D02*
X97367731Y-95469819D01*
X97367731Y-95469819D02*
X97177255Y-95469819D01*
X97177255Y-95469819D02*
X97082017Y-95422200D01*
X97082017Y-95422200D02*
X96986779Y-95326961D01*
X96986779Y-95326961D02*
X96939160Y-95136485D01*
X96939160Y-95136485D02*
X96939160Y-94803152D01*
X96939160Y-94803152D02*
X96986779Y-94612676D01*
X96986779Y-94612676D02*
X97082017Y-94517438D01*
X97082017Y-94517438D02*
X97177255Y-94469819D01*
X97986779Y-95184104D02*
X98462969Y-95184104D01*
X97891541Y-95469819D02*
X98224874Y-94469819D01*
X98224874Y-94469819D02*
X98558207Y-95469819D01*
X99462969Y-95469819D02*
X99129636Y-94993628D01*
X98891541Y-95469819D02*
X98891541Y-94469819D01*
X98891541Y-94469819D02*
X99272493Y-94469819D01*
X99272493Y-94469819D02*
X99367731Y-94517438D01*
X99367731Y-94517438D02*
X99415350Y-94565057D01*
X99415350Y-94565057D02*
X99462969Y-94660295D01*
X99462969Y-94660295D02*
X99462969Y-94803152D01*
X99462969Y-94803152D02*
X99415350Y-94898390D01*
X99415350Y-94898390D02*
X99367731Y-94946009D01*
X99367731Y-94946009D02*
X99272493Y-94993628D01*
X99272493Y-94993628D02*
X98891541Y-94993628D01*
X99891541Y-95469819D02*
X99891541Y-94469819D01*
X99891541Y-94469819D02*
X100129636Y-94469819D01*
X100129636Y-94469819D02*
X100272493Y-94517438D01*
X100272493Y-94517438D02*
X100367731Y-94612676D01*
X100367731Y-94612676D02*
X100415350Y-94707914D01*
X100415350Y-94707914D02*
X100462969Y-94898390D01*
X100462969Y-94898390D02*
X100462969Y-95041247D01*
X100462969Y-95041247D02*
X100415350Y-95231723D01*
X100415350Y-95231723D02*
X100367731Y-95326961D01*
X100367731Y-95326961D02*
X100272493Y-95422200D01*
X100272493Y-95422200D02*
X100129636Y-95469819D01*
X100129636Y-95469819D02*
X99891541Y-95469819D01*
X112070112Y-67046009D02*
X112212969Y-67093628D01*
X112212969Y-67093628D02*
X112260588Y-67141247D01*
X112260588Y-67141247D02*
X112308207Y-67236485D01*
X112308207Y-67236485D02*
X112308207Y-67379342D01*
X112308207Y-67379342D02*
X112260588Y-67474580D01*
X112260588Y-67474580D02*
X112212969Y-67522200D01*
X112212969Y-67522200D02*
X112117731Y-67569819D01*
X112117731Y-67569819D02*
X111736779Y-67569819D01*
X111736779Y-67569819D02*
X111736779Y-66569819D01*
X111736779Y-66569819D02*
X112070112Y-66569819D01*
X112070112Y-66569819D02*
X112165350Y-66617438D01*
X112165350Y-66617438D02*
X112212969Y-66665057D01*
X112212969Y-66665057D02*
X112260588Y-66760295D01*
X112260588Y-66760295D02*
X112260588Y-66855533D01*
X112260588Y-66855533D02*
X112212969Y-66950771D01*
X112212969Y-66950771D02*
X112165350Y-66998390D01*
X112165350Y-66998390D02*
X112070112Y-67046009D01*
X112070112Y-67046009D02*
X111736779Y-67046009D01*
X112927255Y-66569819D02*
X113117731Y-66569819D01*
X113117731Y-66569819D02*
X113212969Y-66617438D01*
X113212969Y-66617438D02*
X113308207Y-66712676D01*
X113308207Y-66712676D02*
X113355826Y-66903152D01*
X113355826Y-66903152D02*
X113355826Y-67236485D01*
X113355826Y-67236485D02*
X113308207Y-67426961D01*
X113308207Y-67426961D02*
X113212969Y-67522200D01*
X113212969Y-67522200D02*
X113117731Y-67569819D01*
X113117731Y-67569819D02*
X112927255Y-67569819D01*
X112927255Y-67569819D02*
X112832017Y-67522200D01*
X112832017Y-67522200D02*
X112736779Y-67426961D01*
X112736779Y-67426961D02*
X112689160Y-67236485D01*
X112689160Y-67236485D02*
X112689160Y-66903152D01*
X112689160Y-66903152D02*
X112736779Y-66712676D01*
X112736779Y-66712676D02*
X112832017Y-66617438D01*
X112832017Y-66617438D02*
X112927255Y-66569819D01*
X113974874Y-66569819D02*
X114165350Y-66569819D01*
X114165350Y-66569819D02*
X114260588Y-66617438D01*
X114260588Y-66617438D02*
X114355826Y-66712676D01*
X114355826Y-66712676D02*
X114403445Y-66903152D01*
X114403445Y-66903152D02*
X114403445Y-67236485D01*
X114403445Y-67236485D02*
X114355826Y-67426961D01*
X114355826Y-67426961D02*
X114260588Y-67522200D01*
X114260588Y-67522200D02*
X114165350Y-67569819D01*
X114165350Y-67569819D02*
X113974874Y-67569819D01*
X113974874Y-67569819D02*
X113879636Y-67522200D01*
X113879636Y-67522200D02*
X113784398Y-67426961D01*
X113784398Y-67426961D02*
X113736779Y-67236485D01*
X113736779Y-67236485D02*
X113736779Y-66903152D01*
X113736779Y-66903152D02*
X113784398Y-66712676D01*
X113784398Y-66712676D02*
X113879636Y-66617438D01*
X113879636Y-66617438D02*
X113974874Y-66569819D01*
X114689160Y-66569819D02*
X115260588Y-66569819D01*
X114974874Y-67569819D02*
X114974874Y-66569819D01*
X128170112Y-53246009D02*
X128312969Y-53293628D01*
X128312969Y-53293628D02*
X128360588Y-53341247D01*
X128360588Y-53341247D02*
X128408207Y-53436485D01*
X128408207Y-53436485D02*
X128408207Y-53579342D01*
X128408207Y-53579342D02*
X128360588Y-53674580D01*
X128360588Y-53674580D02*
X128312969Y-53722200D01*
X128312969Y-53722200D02*
X128217731Y-53769819D01*
X128217731Y-53769819D02*
X127836779Y-53769819D01*
X127836779Y-53769819D02*
X127836779Y-52769819D01*
X127836779Y-52769819D02*
X128170112Y-52769819D01*
X128170112Y-52769819D02*
X128265350Y-52817438D01*
X128265350Y-52817438D02*
X128312969Y-52865057D01*
X128312969Y-52865057D02*
X128360588Y-52960295D01*
X128360588Y-52960295D02*
X128360588Y-53055533D01*
X128360588Y-53055533D02*
X128312969Y-53150771D01*
X128312969Y-53150771D02*
X128265350Y-53198390D01*
X128265350Y-53198390D02*
X128170112Y-53246009D01*
X128170112Y-53246009D02*
X127836779Y-53246009D01*
X129027255Y-52769819D02*
X129217731Y-52769819D01*
X129217731Y-52769819D02*
X129312969Y-52817438D01*
X129312969Y-52817438D02*
X129408207Y-52912676D01*
X129408207Y-52912676D02*
X129455826Y-53103152D01*
X129455826Y-53103152D02*
X129455826Y-53436485D01*
X129455826Y-53436485D02*
X129408207Y-53626961D01*
X129408207Y-53626961D02*
X129312969Y-53722200D01*
X129312969Y-53722200D02*
X129217731Y-53769819D01*
X129217731Y-53769819D02*
X129027255Y-53769819D01*
X129027255Y-53769819D02*
X128932017Y-53722200D01*
X128932017Y-53722200D02*
X128836779Y-53626961D01*
X128836779Y-53626961D02*
X128789160Y-53436485D01*
X128789160Y-53436485D02*
X128789160Y-53103152D01*
X128789160Y-53103152D02*
X128836779Y-52912676D01*
X128836779Y-52912676D02*
X128932017Y-52817438D01*
X128932017Y-52817438D02*
X129027255Y-52769819D01*
X129836779Y-53484104D02*
X130312969Y-53484104D01*
X129741541Y-53769819D02*
X130074874Y-52769819D01*
X130074874Y-52769819D02*
X130408207Y-53769819D01*
X131312969Y-53769819D02*
X130979636Y-53293628D01*
X130741541Y-53769819D02*
X130741541Y-52769819D01*
X130741541Y-52769819D02*
X131122493Y-52769819D01*
X131122493Y-52769819D02*
X131217731Y-52817438D01*
X131217731Y-52817438D02*
X131265350Y-52865057D01*
X131265350Y-52865057D02*
X131312969Y-52960295D01*
X131312969Y-52960295D02*
X131312969Y-53103152D01*
X131312969Y-53103152D02*
X131265350Y-53198390D01*
X131265350Y-53198390D02*
X131217731Y-53246009D01*
X131217731Y-53246009D02*
X131122493Y-53293628D01*
X131122493Y-53293628D02*
X130741541Y-53293628D01*
X131741541Y-53769819D02*
X131741541Y-52769819D01*
X131741541Y-52769819D02*
X131979636Y-52769819D01*
X131979636Y-52769819D02*
X132122493Y-52817438D01*
X132122493Y-52817438D02*
X132217731Y-52912676D01*
X132217731Y-52912676D02*
X132265350Y-53007914D01*
X132265350Y-53007914D02*
X132312969Y-53198390D01*
X132312969Y-53198390D02*
X132312969Y-53341247D01*
X132312969Y-53341247D02*
X132265350Y-53531723D01*
X132265350Y-53531723D02*
X132217731Y-53626961D01*
X132217731Y-53626961D02*
X132122493Y-53722200D01*
X132122493Y-53722200D02*
X131979636Y-53769819D01*
X131979636Y-53769819D02*
X131741541Y-53769819D01*
X128533333Y-79796033D02*
X128300000Y-79462700D01*
X128133333Y-79796033D02*
X128133333Y-79096033D01*
X128133333Y-79096033D02*
X128400000Y-79096033D01*
X128400000Y-79096033D02*
X128466667Y-79129366D01*
X128466667Y-79129366D02*
X128500000Y-79162700D01*
X128500000Y-79162700D02*
X128533333Y-79229366D01*
X128533333Y-79229366D02*
X128533333Y-79329366D01*
X128533333Y-79329366D02*
X128500000Y-79396033D01*
X128500000Y-79396033D02*
X128466667Y-79429366D01*
X128466667Y-79429366D02*
X128400000Y-79462700D01*
X128400000Y-79462700D02*
X128133333Y-79462700D01*
X128933333Y-79396033D02*
X128866667Y-79362700D01*
X128866667Y-79362700D02*
X128833333Y-79329366D01*
X128833333Y-79329366D02*
X128800000Y-79262700D01*
X128800000Y-79262700D02*
X128800000Y-79229366D01*
X128800000Y-79229366D02*
X128833333Y-79162700D01*
X128833333Y-79162700D02*
X128866667Y-79129366D01*
X128866667Y-79129366D02*
X128933333Y-79096033D01*
X128933333Y-79096033D02*
X129066667Y-79096033D01*
X129066667Y-79096033D02*
X129133333Y-79129366D01*
X129133333Y-79129366D02*
X129166667Y-79162700D01*
X129166667Y-79162700D02*
X129200000Y-79229366D01*
X129200000Y-79229366D02*
X129200000Y-79262700D01*
X129200000Y-79262700D02*
X129166667Y-79329366D01*
X129166667Y-79329366D02*
X129133333Y-79362700D01*
X129133333Y-79362700D02*
X129066667Y-79396033D01*
X129066667Y-79396033D02*
X128933333Y-79396033D01*
X128933333Y-79396033D02*
X128866667Y-79429366D01*
X128866667Y-79429366D02*
X128833333Y-79462700D01*
X128833333Y-79462700D02*
X128800000Y-79529366D01*
X128800000Y-79529366D02*
X128800000Y-79662700D01*
X128800000Y-79662700D02*
X128833333Y-79729366D01*
X128833333Y-79729366D02*
X128866667Y-79762700D01*
X128866667Y-79762700D02*
X128933333Y-79796033D01*
X128933333Y-79796033D02*
X129066667Y-79796033D01*
X129066667Y-79796033D02*
X129133333Y-79762700D01*
X129133333Y-79762700D02*
X129166667Y-79729366D01*
X129166667Y-79729366D02*
X129200000Y-79662700D01*
X129200000Y-79662700D02*
X129200000Y-79529366D01*
X129200000Y-79529366D02*
X129166667Y-79462700D01*
X129166667Y-79462700D02*
X129133333Y-79429366D01*
X129133333Y-79429366D02*
X129066667Y-79396033D01*
X124154819Y-60566666D02*
X123678628Y-60899999D01*
X124154819Y-61138094D02*
X123154819Y-61138094D01*
X123154819Y-61138094D02*
X123154819Y-60757142D01*
X123154819Y-60757142D02*
X123202438Y-60661904D01*
X123202438Y-60661904D02*
X123250057Y-60614285D01*
X123250057Y-60614285D02*
X123345295Y-60566666D01*
X123345295Y-60566666D02*
X123488152Y-60566666D01*
X123488152Y-60566666D02*
X123583390Y-60614285D01*
X123583390Y-60614285D02*
X123631009Y-60661904D01*
X123631009Y-60661904D02*
X123678628Y-60757142D01*
X123678628Y-60757142D02*
X123678628Y-61138094D01*
X123250057Y-60185713D02*
X123202438Y-60138094D01*
X123202438Y-60138094D02*
X123154819Y-60042856D01*
X123154819Y-60042856D02*
X123154819Y-59804761D01*
X123154819Y-59804761D02*
X123202438Y-59709523D01*
X123202438Y-59709523D02*
X123250057Y-59661904D01*
X123250057Y-59661904D02*
X123345295Y-59614285D01*
X123345295Y-59614285D02*
X123440533Y-59614285D01*
X123440533Y-59614285D02*
X123583390Y-59661904D01*
X123583390Y-59661904D02*
X124154819Y-60233332D01*
X124154819Y-60233332D02*
X124154819Y-59614285D01*
X128884819Y-64066666D02*
X128408628Y-64399999D01*
X128884819Y-64638094D02*
X127884819Y-64638094D01*
X127884819Y-64638094D02*
X127884819Y-64257142D01*
X127884819Y-64257142D02*
X127932438Y-64161904D01*
X127932438Y-64161904D02*
X127980057Y-64114285D01*
X127980057Y-64114285D02*
X128075295Y-64066666D01*
X128075295Y-64066666D02*
X128218152Y-64066666D01*
X128218152Y-64066666D02*
X128313390Y-64114285D01*
X128313390Y-64114285D02*
X128361009Y-64161904D01*
X128361009Y-64161904D02*
X128408628Y-64257142D01*
X128408628Y-64257142D02*
X128408628Y-64638094D01*
X127884819Y-63733332D02*
X127884819Y-63114285D01*
X127884819Y-63114285D02*
X128265771Y-63447618D01*
X128265771Y-63447618D02*
X128265771Y-63304761D01*
X128265771Y-63304761D02*
X128313390Y-63209523D01*
X128313390Y-63209523D02*
X128361009Y-63161904D01*
X128361009Y-63161904D02*
X128456247Y-63114285D01*
X128456247Y-63114285D02*
X128694342Y-63114285D01*
X128694342Y-63114285D02*
X128789580Y-63161904D01*
X128789580Y-63161904D02*
X128837200Y-63209523D01*
X128837200Y-63209523D02*
X128884819Y-63304761D01*
X128884819Y-63304761D02*
X128884819Y-63590475D01*
X128884819Y-63590475D02*
X128837200Y-63685713D01*
X128837200Y-63685713D02*
X128789580Y-63733332D01*
X98558333Y-67209580D02*
X98510714Y-67257200D01*
X98510714Y-67257200D02*
X98367857Y-67304819D01*
X98367857Y-67304819D02*
X98272619Y-67304819D01*
X98272619Y-67304819D02*
X98129762Y-67257200D01*
X98129762Y-67257200D02*
X98034524Y-67161961D01*
X98034524Y-67161961D02*
X97986905Y-67066723D01*
X97986905Y-67066723D02*
X97939286Y-66876247D01*
X97939286Y-66876247D02*
X97939286Y-66733390D01*
X97939286Y-66733390D02*
X97986905Y-66542914D01*
X97986905Y-66542914D02*
X98034524Y-66447676D01*
X98034524Y-66447676D02*
X98129762Y-66352438D01*
X98129762Y-66352438D02*
X98272619Y-66304819D01*
X98272619Y-66304819D02*
X98367857Y-66304819D01*
X98367857Y-66304819D02*
X98510714Y-66352438D01*
X98510714Y-66352438D02*
X98558333Y-66400057D01*
X98891667Y-66304819D02*
X99510714Y-66304819D01*
X99510714Y-66304819D02*
X99177381Y-66685771D01*
X99177381Y-66685771D02*
X99320238Y-66685771D01*
X99320238Y-66685771D02*
X99415476Y-66733390D01*
X99415476Y-66733390D02*
X99463095Y-66781009D01*
X99463095Y-66781009D02*
X99510714Y-66876247D01*
X99510714Y-66876247D02*
X99510714Y-67114342D01*
X99510714Y-67114342D02*
X99463095Y-67209580D01*
X99463095Y-67209580D02*
X99415476Y-67257200D01*
X99415476Y-67257200D02*
X99320238Y-67304819D01*
X99320238Y-67304819D02*
X99034524Y-67304819D01*
X99034524Y-67304819D02*
X98939286Y-67257200D01*
X98939286Y-67257200D02*
X98891667Y-67209580D01*
X138154819Y-65761904D02*
X138964342Y-65761904D01*
X138964342Y-65761904D02*
X139059580Y-65714285D01*
X139059580Y-65714285D02*
X139107200Y-65666666D01*
X139107200Y-65666666D02*
X139154819Y-65571428D01*
X139154819Y-65571428D02*
X139154819Y-65380952D01*
X139154819Y-65380952D02*
X139107200Y-65285714D01*
X139107200Y-65285714D02*
X139059580Y-65238095D01*
X139059580Y-65238095D02*
X138964342Y-65190476D01*
X138964342Y-65190476D02*
X138154819Y-65190476D01*
X138250057Y-64761904D02*
X138202438Y-64714285D01*
X138202438Y-64714285D02*
X138154819Y-64619047D01*
X138154819Y-64619047D02*
X138154819Y-64380952D01*
X138154819Y-64380952D02*
X138202438Y-64285714D01*
X138202438Y-64285714D02*
X138250057Y-64238095D01*
X138250057Y-64238095D02*
X138345295Y-64190476D01*
X138345295Y-64190476D02*
X138440533Y-64190476D01*
X138440533Y-64190476D02*
X138583390Y-64238095D01*
X138583390Y-64238095D02*
X139154819Y-64809523D01*
X139154819Y-64809523D02*
X139154819Y-64190476D01*
X128533333Y-77266033D02*
X128300000Y-76932700D01*
X128133333Y-77266033D02*
X128133333Y-76566033D01*
X128133333Y-76566033D02*
X128400000Y-76566033D01*
X128400000Y-76566033D02*
X128466667Y-76599366D01*
X128466667Y-76599366D02*
X128500000Y-76632700D01*
X128500000Y-76632700D02*
X128533333Y-76699366D01*
X128533333Y-76699366D02*
X128533333Y-76799366D01*
X128533333Y-76799366D02*
X128500000Y-76866033D01*
X128500000Y-76866033D02*
X128466667Y-76899366D01*
X128466667Y-76899366D02*
X128400000Y-76932700D01*
X128400000Y-76932700D02*
X128133333Y-76932700D01*
X128766667Y-76566033D02*
X129233333Y-76566033D01*
X129233333Y-76566033D02*
X128933333Y-77266033D01*
X122229819Y-68908333D02*
X122944104Y-68908333D01*
X122944104Y-68908333D02*
X123086961Y-68955952D01*
X123086961Y-68955952D02*
X123182200Y-69051190D01*
X123182200Y-69051190D02*
X123229819Y-69194047D01*
X123229819Y-69194047D02*
X123229819Y-69289285D01*
X123229819Y-67908333D02*
X123229819Y-68479761D01*
X123229819Y-68194047D02*
X122229819Y-68194047D01*
X122229819Y-68194047D02*
X122372676Y-68289285D01*
X122372676Y-68289285D02*
X122467914Y-68384523D01*
X122467914Y-68384523D02*
X122515533Y-68479761D01*
X94779819Y-63138094D02*
X93779819Y-63138094D01*
X93779819Y-63138094D02*
X93779819Y-62899999D01*
X93779819Y-62899999D02*
X93827438Y-62757142D01*
X93827438Y-62757142D02*
X93922676Y-62661904D01*
X93922676Y-62661904D02*
X94017914Y-62614285D01*
X94017914Y-62614285D02*
X94208390Y-62566666D01*
X94208390Y-62566666D02*
X94351247Y-62566666D01*
X94351247Y-62566666D02*
X94541723Y-62614285D01*
X94541723Y-62614285D02*
X94636961Y-62661904D01*
X94636961Y-62661904D02*
X94732200Y-62757142D01*
X94732200Y-62757142D02*
X94779819Y-62899999D01*
X94779819Y-62899999D02*
X94779819Y-63138094D01*
X93779819Y-61661904D02*
X93779819Y-62138094D01*
X93779819Y-62138094D02*
X94256009Y-62185713D01*
X94256009Y-62185713D02*
X94208390Y-62138094D01*
X94208390Y-62138094D02*
X94160771Y-62042856D01*
X94160771Y-62042856D02*
X94160771Y-61804761D01*
X94160771Y-61804761D02*
X94208390Y-61709523D01*
X94208390Y-61709523D02*
X94256009Y-61661904D01*
X94256009Y-61661904D02*
X94351247Y-61614285D01*
X94351247Y-61614285D02*
X94589342Y-61614285D01*
X94589342Y-61614285D02*
X94684580Y-61661904D01*
X94684580Y-61661904D02*
X94732200Y-61709523D01*
X94732200Y-61709523D02*
X94779819Y-61804761D01*
X94779819Y-61804761D02*
X94779819Y-62042856D01*
X94779819Y-62042856D02*
X94732200Y-62138094D01*
X94732200Y-62138094D02*
X94684580Y-62185713D01*
X129036033Y-74536666D02*
X128702700Y-74769999D01*
X129036033Y-74936666D02*
X128336033Y-74936666D01*
X128336033Y-74936666D02*
X128336033Y-74669999D01*
X128336033Y-74669999D02*
X128369366Y-74603333D01*
X128369366Y-74603333D02*
X128402700Y-74569999D01*
X128402700Y-74569999D02*
X128469366Y-74536666D01*
X128469366Y-74536666D02*
X128569366Y-74536666D01*
X128569366Y-74536666D02*
X128636033Y-74569999D01*
X128636033Y-74569999D02*
X128669366Y-74603333D01*
X128669366Y-74603333D02*
X128702700Y-74669999D01*
X128702700Y-74669999D02*
X128702700Y-74936666D01*
X128336033Y-73936666D02*
X128336033Y-74069999D01*
X128336033Y-74069999D02*
X128369366Y-74136666D01*
X128369366Y-74136666D02*
X128402700Y-74169999D01*
X128402700Y-74169999D02*
X128502700Y-74236666D01*
X128502700Y-74236666D02*
X128636033Y-74269999D01*
X128636033Y-74269999D02*
X128902700Y-74269999D01*
X128902700Y-74269999D02*
X128969366Y-74236666D01*
X128969366Y-74236666D02*
X129002700Y-74203333D01*
X129002700Y-74203333D02*
X129036033Y-74136666D01*
X129036033Y-74136666D02*
X129036033Y-74003333D01*
X129036033Y-74003333D02*
X129002700Y-73936666D01*
X129002700Y-73936666D02*
X128969366Y-73903333D01*
X128969366Y-73903333D02*
X128902700Y-73869999D01*
X128902700Y-73869999D02*
X128736033Y-73869999D01*
X128736033Y-73869999D02*
X128669366Y-73903333D01*
X128669366Y-73903333D02*
X128636033Y-73936666D01*
X128636033Y-73936666D02*
X128602700Y-74003333D01*
X128602700Y-74003333D02*
X128602700Y-74136666D01*
X128602700Y-74136666D02*
X128636033Y-74203333D01*
X128636033Y-74203333D02*
X128669366Y-74236666D01*
X128669366Y-74236666D02*
X128736033Y-74269999D01*
X133376033Y-74576666D02*
X133042700Y-74809999D01*
X133376033Y-74976666D02*
X132676033Y-74976666D01*
X132676033Y-74976666D02*
X132676033Y-74709999D01*
X132676033Y-74709999D02*
X132709366Y-74643333D01*
X132709366Y-74643333D02*
X132742700Y-74609999D01*
X132742700Y-74609999D02*
X132809366Y-74576666D01*
X132809366Y-74576666D02*
X132909366Y-74576666D01*
X132909366Y-74576666D02*
X132976033Y-74609999D01*
X132976033Y-74609999D02*
X133009366Y-74643333D01*
X133009366Y-74643333D02*
X133042700Y-74709999D01*
X133042700Y-74709999D02*
X133042700Y-74976666D01*
X132676033Y-73943333D02*
X132676033Y-74276666D01*
X132676033Y-74276666D02*
X133009366Y-74309999D01*
X133009366Y-74309999D02*
X132976033Y-74276666D01*
X132976033Y-74276666D02*
X132942700Y-74209999D01*
X132942700Y-74209999D02*
X132942700Y-74043333D01*
X132942700Y-74043333D02*
X132976033Y-73976666D01*
X132976033Y-73976666D02*
X133009366Y-73943333D01*
X133009366Y-73943333D02*
X133076033Y-73909999D01*
X133076033Y-73909999D02*
X133242700Y-73909999D01*
X133242700Y-73909999D02*
X133309366Y-73943333D01*
X133309366Y-73943333D02*
X133342700Y-73976666D01*
X133342700Y-73976666D02*
X133376033Y-74043333D01*
X133376033Y-74043333D02*
X133376033Y-74209999D01*
X133376033Y-74209999D02*
X133342700Y-74276666D01*
X133342700Y-74276666D02*
X133309366Y-74309999D01*
X135054819Y-60142857D02*
X134578628Y-60476190D01*
X135054819Y-60714285D02*
X134054819Y-60714285D01*
X134054819Y-60714285D02*
X134054819Y-60333333D01*
X134054819Y-60333333D02*
X134102438Y-60238095D01*
X134102438Y-60238095D02*
X134150057Y-60190476D01*
X134150057Y-60190476D02*
X134245295Y-60142857D01*
X134245295Y-60142857D02*
X134388152Y-60142857D01*
X134388152Y-60142857D02*
X134483390Y-60190476D01*
X134483390Y-60190476D02*
X134531009Y-60238095D01*
X134531009Y-60238095D02*
X134578628Y-60333333D01*
X134578628Y-60333333D02*
X134578628Y-60714285D01*
X135054819Y-59190476D02*
X135054819Y-59761904D01*
X135054819Y-59476190D02*
X134054819Y-59476190D01*
X134054819Y-59476190D02*
X134197676Y-59571428D01*
X134197676Y-59571428D02*
X134292914Y-59666666D01*
X134292914Y-59666666D02*
X134340533Y-59761904D01*
X134054819Y-58571428D02*
X134054819Y-58476190D01*
X134054819Y-58476190D02*
X134102438Y-58380952D01*
X134102438Y-58380952D02*
X134150057Y-58333333D01*
X134150057Y-58333333D02*
X134245295Y-58285714D01*
X134245295Y-58285714D02*
X134435771Y-58238095D01*
X134435771Y-58238095D02*
X134673866Y-58238095D01*
X134673866Y-58238095D02*
X134864342Y-58285714D01*
X134864342Y-58285714D02*
X134959580Y-58333333D01*
X134959580Y-58333333D02*
X135007200Y-58380952D01*
X135007200Y-58380952D02*
X135054819Y-58476190D01*
X135054819Y-58476190D02*
X135054819Y-58571428D01*
X135054819Y-58571428D02*
X135007200Y-58666666D01*
X135007200Y-58666666D02*
X134959580Y-58714285D01*
X134959580Y-58714285D02*
X134864342Y-58761904D01*
X134864342Y-58761904D02*
X134673866Y-58809523D01*
X134673866Y-58809523D02*
X134435771Y-58809523D01*
X134435771Y-58809523D02*
X134245295Y-58761904D01*
X134245295Y-58761904D02*
X134150057Y-58714285D01*
X134150057Y-58714285D02*
X134102438Y-58666666D01*
X134102438Y-58666666D02*
X134054819Y-58571428D01*
X117857200Y-63711904D02*
X117904819Y-63569047D01*
X117904819Y-63569047D02*
X117904819Y-63330952D01*
X117904819Y-63330952D02*
X117857200Y-63235714D01*
X117857200Y-63235714D02*
X117809580Y-63188095D01*
X117809580Y-63188095D02*
X117714342Y-63140476D01*
X117714342Y-63140476D02*
X117619104Y-63140476D01*
X117619104Y-63140476D02*
X117523866Y-63188095D01*
X117523866Y-63188095D02*
X117476247Y-63235714D01*
X117476247Y-63235714D02*
X117428628Y-63330952D01*
X117428628Y-63330952D02*
X117381009Y-63521428D01*
X117381009Y-63521428D02*
X117333390Y-63616666D01*
X117333390Y-63616666D02*
X117285771Y-63664285D01*
X117285771Y-63664285D02*
X117190533Y-63711904D01*
X117190533Y-63711904D02*
X117095295Y-63711904D01*
X117095295Y-63711904D02*
X117000057Y-63664285D01*
X117000057Y-63664285D02*
X116952438Y-63616666D01*
X116952438Y-63616666D02*
X116904819Y-63521428D01*
X116904819Y-63521428D02*
X116904819Y-63283333D01*
X116904819Y-63283333D02*
X116952438Y-63140476D01*
X117000057Y-62759523D02*
X116952438Y-62711904D01*
X116952438Y-62711904D02*
X116904819Y-62616666D01*
X116904819Y-62616666D02*
X116904819Y-62378571D01*
X116904819Y-62378571D02*
X116952438Y-62283333D01*
X116952438Y-62283333D02*
X117000057Y-62235714D01*
X117000057Y-62235714D02*
X117095295Y-62188095D01*
X117095295Y-62188095D02*
X117190533Y-62188095D01*
X117190533Y-62188095D02*
X117333390Y-62235714D01*
X117333390Y-62235714D02*
X117904819Y-62807142D01*
X117904819Y-62807142D02*
X117904819Y-62188095D01*
X138854819Y-57066666D02*
X138378628Y-57399999D01*
X138854819Y-57638094D02*
X137854819Y-57638094D01*
X137854819Y-57638094D02*
X137854819Y-57257142D01*
X137854819Y-57257142D02*
X137902438Y-57161904D01*
X137902438Y-57161904D02*
X137950057Y-57114285D01*
X137950057Y-57114285D02*
X138045295Y-57066666D01*
X138045295Y-57066666D02*
X138188152Y-57066666D01*
X138188152Y-57066666D02*
X138283390Y-57114285D01*
X138283390Y-57114285D02*
X138331009Y-57161904D01*
X138331009Y-57161904D02*
X138378628Y-57257142D01*
X138378628Y-57257142D02*
X138378628Y-57638094D01*
X138854819Y-56590475D02*
X138854819Y-56399999D01*
X138854819Y-56399999D02*
X138807200Y-56304761D01*
X138807200Y-56304761D02*
X138759580Y-56257142D01*
X138759580Y-56257142D02*
X138616723Y-56161904D01*
X138616723Y-56161904D02*
X138426247Y-56114285D01*
X138426247Y-56114285D02*
X138045295Y-56114285D01*
X138045295Y-56114285D02*
X137950057Y-56161904D01*
X137950057Y-56161904D02*
X137902438Y-56209523D01*
X137902438Y-56209523D02*
X137854819Y-56304761D01*
X137854819Y-56304761D02*
X137854819Y-56495237D01*
X137854819Y-56495237D02*
X137902438Y-56590475D01*
X137902438Y-56590475D02*
X137950057Y-56638094D01*
X137950057Y-56638094D02*
X138045295Y-56685713D01*
X138045295Y-56685713D02*
X138283390Y-56685713D01*
X138283390Y-56685713D02*
X138378628Y-56638094D01*
X138378628Y-56638094D02*
X138426247Y-56590475D01*
X138426247Y-56590475D02*
X138473866Y-56495237D01*
X138473866Y-56495237D02*
X138473866Y-56304761D01*
X138473866Y-56304761D02*
X138426247Y-56209523D01*
X138426247Y-56209523D02*
X138378628Y-56161904D01*
X138378628Y-56161904D02*
X138283390Y-56114285D01*
X122983333Y-82336033D02*
X122983333Y-81636033D01*
X122983333Y-81636033D02*
X123150000Y-81636033D01*
X123150000Y-81636033D02*
X123250000Y-81669366D01*
X123250000Y-81669366D02*
X123316667Y-81736033D01*
X123316667Y-81736033D02*
X123350000Y-81802700D01*
X123350000Y-81802700D02*
X123383333Y-81936033D01*
X123383333Y-81936033D02*
X123383333Y-82036033D01*
X123383333Y-82036033D02*
X123350000Y-82169366D01*
X123350000Y-82169366D02*
X123316667Y-82236033D01*
X123316667Y-82236033D02*
X123250000Y-82302700D01*
X123250000Y-82302700D02*
X123150000Y-82336033D01*
X123150000Y-82336033D02*
X122983333Y-82336033D01*
X123650000Y-81702700D02*
X123683333Y-81669366D01*
X123683333Y-81669366D02*
X123750000Y-81636033D01*
X123750000Y-81636033D02*
X123916667Y-81636033D01*
X123916667Y-81636033D02*
X123983333Y-81669366D01*
X123983333Y-81669366D02*
X124016667Y-81702700D01*
X124016667Y-81702700D02*
X124050000Y-81769366D01*
X124050000Y-81769366D02*
X124050000Y-81836033D01*
X124050000Y-81836033D02*
X124016667Y-81936033D01*
X124016667Y-81936033D02*
X123616667Y-82336033D01*
X123616667Y-82336033D02*
X124050000Y-82336033D01*
X111857200Y-63711904D02*
X111904819Y-63569047D01*
X111904819Y-63569047D02*
X111904819Y-63330952D01*
X111904819Y-63330952D02*
X111857200Y-63235714D01*
X111857200Y-63235714D02*
X111809580Y-63188095D01*
X111809580Y-63188095D02*
X111714342Y-63140476D01*
X111714342Y-63140476D02*
X111619104Y-63140476D01*
X111619104Y-63140476D02*
X111523866Y-63188095D01*
X111523866Y-63188095D02*
X111476247Y-63235714D01*
X111476247Y-63235714D02*
X111428628Y-63330952D01*
X111428628Y-63330952D02*
X111381009Y-63521428D01*
X111381009Y-63521428D02*
X111333390Y-63616666D01*
X111333390Y-63616666D02*
X111285771Y-63664285D01*
X111285771Y-63664285D02*
X111190533Y-63711904D01*
X111190533Y-63711904D02*
X111095295Y-63711904D01*
X111095295Y-63711904D02*
X111000057Y-63664285D01*
X111000057Y-63664285D02*
X110952438Y-63616666D01*
X110952438Y-63616666D02*
X110904819Y-63521428D01*
X110904819Y-63521428D02*
X110904819Y-63283333D01*
X110904819Y-63283333D02*
X110952438Y-63140476D01*
X111904819Y-62188095D02*
X111904819Y-62759523D01*
X111904819Y-62473809D02*
X110904819Y-62473809D01*
X110904819Y-62473809D02*
X111047676Y-62569047D01*
X111047676Y-62569047D02*
X111142914Y-62664285D01*
X111142914Y-62664285D02*
X111190533Y-62759523D01*
X90924819Y-93742857D02*
X90448628Y-94076190D01*
X90924819Y-94314285D02*
X89924819Y-94314285D01*
X89924819Y-94314285D02*
X89924819Y-93933333D01*
X89924819Y-93933333D02*
X89972438Y-93838095D01*
X89972438Y-93838095D02*
X90020057Y-93790476D01*
X90020057Y-93790476D02*
X90115295Y-93742857D01*
X90115295Y-93742857D02*
X90258152Y-93742857D01*
X90258152Y-93742857D02*
X90353390Y-93790476D01*
X90353390Y-93790476D02*
X90401009Y-93838095D01*
X90401009Y-93838095D02*
X90448628Y-93933333D01*
X90448628Y-93933333D02*
X90448628Y-94314285D01*
X90924819Y-92790476D02*
X90924819Y-93361904D01*
X90924819Y-93076190D02*
X89924819Y-93076190D01*
X89924819Y-93076190D02*
X90067676Y-93171428D01*
X90067676Y-93171428D02*
X90162914Y-93266666D01*
X90162914Y-93266666D02*
X90210533Y-93361904D01*
X90924819Y-91838095D02*
X90924819Y-92409523D01*
X90924819Y-92123809D02*
X89924819Y-92123809D01*
X89924819Y-92123809D02*
X90067676Y-92219047D01*
X90067676Y-92219047D02*
X90162914Y-92314285D01*
X90162914Y-92314285D02*
X90210533Y-92409523D01*
X132966033Y-77093333D02*
X133466033Y-77093333D01*
X133466033Y-77093333D02*
X133566033Y-77126666D01*
X133566033Y-77126666D02*
X133632700Y-77193333D01*
X133632700Y-77193333D02*
X133666033Y-77293333D01*
X133666033Y-77293333D02*
X133666033Y-77360000D01*
X133032700Y-76793333D02*
X132999366Y-76760000D01*
X132999366Y-76760000D02*
X132966033Y-76693333D01*
X132966033Y-76693333D02*
X132966033Y-76526667D01*
X132966033Y-76526667D02*
X132999366Y-76460000D01*
X132999366Y-76460000D02*
X133032700Y-76426667D01*
X133032700Y-76426667D02*
X133099366Y-76393333D01*
X133099366Y-76393333D02*
X133166033Y-76393333D01*
X133166033Y-76393333D02*
X133266033Y-76426667D01*
X133266033Y-76426667D02*
X133666033Y-76826667D01*
X133666033Y-76826667D02*
X133666033Y-76393333D01*
X128738095Y-105704819D02*
X128738095Y-106514342D01*
X128738095Y-106514342D02*
X128785714Y-106609580D01*
X128785714Y-106609580D02*
X128833333Y-106657200D01*
X128833333Y-106657200D02*
X128928571Y-106704819D01*
X128928571Y-106704819D02*
X129119047Y-106704819D01*
X129119047Y-106704819D02*
X129214285Y-106657200D01*
X129214285Y-106657200D02*
X129261904Y-106609580D01*
X129261904Y-106609580D02*
X129309523Y-106514342D01*
X129309523Y-106514342D02*
X129309523Y-105704819D01*
X130261904Y-105704819D02*
X129785714Y-105704819D01*
X129785714Y-105704819D02*
X129738095Y-106181009D01*
X129738095Y-106181009D02*
X129785714Y-106133390D01*
X129785714Y-106133390D02*
X129880952Y-106085771D01*
X129880952Y-106085771D02*
X130119047Y-106085771D01*
X130119047Y-106085771D02*
X130214285Y-106133390D01*
X130214285Y-106133390D02*
X130261904Y-106181009D01*
X130261904Y-106181009D02*
X130309523Y-106276247D01*
X130309523Y-106276247D02*
X130309523Y-106514342D01*
X130309523Y-106514342D02*
X130261904Y-106609580D01*
X130261904Y-106609580D02*
X130214285Y-106657200D01*
X130214285Y-106657200D02*
X130119047Y-106704819D01*
X130119047Y-106704819D02*
X129880952Y-106704819D01*
X129880952Y-106704819D02*
X129785714Y-106657200D01*
X129785714Y-106657200D02*
X129738095Y-106609580D01*
X124738094Y-102069104D02*
X125214284Y-102069104D01*
X124642856Y-102354819D02*
X124976189Y-101354819D01*
X124976189Y-101354819D02*
X125309522Y-102354819D01*
X125642856Y-101688152D02*
X125642856Y-102354819D01*
X125642856Y-101783390D02*
X125690475Y-101735771D01*
X125690475Y-101735771D02*
X125785713Y-101688152D01*
X125785713Y-101688152D02*
X125928570Y-101688152D01*
X125928570Y-101688152D02*
X126023808Y-101735771D01*
X126023808Y-101735771D02*
X126071427Y-101831009D01*
X126071427Y-101831009D02*
X126071427Y-102354819D01*
X126404761Y-101688152D02*
X126785713Y-101688152D01*
X126547618Y-101354819D02*
X126547618Y-102211961D01*
X126547618Y-102211961D02*
X126595237Y-102307200D01*
X126595237Y-102307200D02*
X126690475Y-102354819D01*
X126690475Y-102354819D02*
X126785713Y-102354819D01*
X127499999Y-102307200D02*
X127404761Y-102354819D01*
X127404761Y-102354819D02*
X127214285Y-102354819D01*
X127214285Y-102354819D02*
X127119047Y-102307200D01*
X127119047Y-102307200D02*
X127071428Y-102211961D01*
X127071428Y-102211961D02*
X127071428Y-101831009D01*
X127071428Y-101831009D02*
X127119047Y-101735771D01*
X127119047Y-101735771D02*
X127214285Y-101688152D01*
X127214285Y-101688152D02*
X127404761Y-101688152D01*
X127404761Y-101688152D02*
X127499999Y-101735771D01*
X127499999Y-101735771D02*
X127547618Y-101831009D01*
X127547618Y-101831009D02*
X127547618Y-101926247D01*
X127547618Y-101926247D02*
X127071428Y-102021485D01*
X127976190Y-101688152D02*
X127976190Y-102354819D01*
X127976190Y-101783390D02*
X128023809Y-101735771D01*
X128023809Y-101735771D02*
X128119047Y-101688152D01*
X128119047Y-101688152D02*
X128261904Y-101688152D01*
X128261904Y-101688152D02*
X128357142Y-101735771D01*
X128357142Y-101735771D02*
X128404761Y-101831009D01*
X128404761Y-101831009D02*
X128404761Y-102354819D01*
X128880952Y-101688152D02*
X128880952Y-102354819D01*
X128880952Y-101783390D02*
X128928571Y-101735771D01*
X128928571Y-101735771D02*
X129023809Y-101688152D01*
X129023809Y-101688152D02*
X129166666Y-101688152D01*
X129166666Y-101688152D02*
X129261904Y-101735771D01*
X129261904Y-101735771D02*
X129309523Y-101831009D01*
X129309523Y-101831009D02*
X129309523Y-102354819D01*
X130214285Y-102354819D02*
X130214285Y-101831009D01*
X130214285Y-101831009D02*
X130166666Y-101735771D01*
X130166666Y-101735771D02*
X130071428Y-101688152D01*
X130071428Y-101688152D02*
X129880952Y-101688152D01*
X129880952Y-101688152D02*
X129785714Y-101735771D01*
X130214285Y-102307200D02*
X130119047Y-102354819D01*
X130119047Y-102354819D02*
X129880952Y-102354819D01*
X129880952Y-102354819D02*
X129785714Y-102307200D01*
X129785714Y-102307200D02*
X129738095Y-102211961D01*
X129738095Y-102211961D02*
X129738095Y-102116723D01*
X129738095Y-102116723D02*
X129785714Y-102021485D01*
X129785714Y-102021485D02*
X129880952Y-101973866D01*
X129880952Y-101973866D02*
X130119047Y-101973866D01*
X130119047Y-101973866D02*
X130214285Y-101926247D01*
X131404762Y-102069104D02*
X131880952Y-102069104D01*
X131309524Y-102354819D02*
X131642857Y-101354819D01*
X131642857Y-101354819D02*
X131976190Y-102354819D01*
X132309524Y-102354819D02*
X132309524Y-101688152D01*
X132309524Y-101878628D02*
X132357143Y-101783390D01*
X132357143Y-101783390D02*
X132404762Y-101735771D01*
X132404762Y-101735771D02*
X132500000Y-101688152D01*
X132500000Y-101688152D02*
X132595238Y-101688152D01*
X133309524Y-102307200D02*
X133214286Y-102354819D01*
X133214286Y-102354819D02*
X133023810Y-102354819D01*
X133023810Y-102354819D02*
X132928572Y-102307200D01*
X132928572Y-102307200D02*
X132880953Y-102211961D01*
X132880953Y-102211961D02*
X132880953Y-101831009D01*
X132880953Y-101831009D02*
X132928572Y-101735771D01*
X132928572Y-101735771D02*
X133023810Y-101688152D01*
X133023810Y-101688152D02*
X133214286Y-101688152D01*
X133214286Y-101688152D02*
X133309524Y-101735771D01*
X133309524Y-101735771D02*
X133357143Y-101831009D01*
X133357143Y-101831009D02*
X133357143Y-101926247D01*
X133357143Y-101926247D02*
X132880953Y-102021485D01*
X134214286Y-102354819D02*
X134214286Y-101831009D01*
X134214286Y-101831009D02*
X134166667Y-101735771D01*
X134166667Y-101735771D02*
X134071429Y-101688152D01*
X134071429Y-101688152D02*
X133880953Y-101688152D01*
X133880953Y-101688152D02*
X133785715Y-101735771D01*
X134214286Y-102307200D02*
X134119048Y-102354819D01*
X134119048Y-102354819D02*
X133880953Y-102354819D01*
X133880953Y-102354819D02*
X133785715Y-102307200D01*
X133785715Y-102307200D02*
X133738096Y-102211961D01*
X133738096Y-102211961D02*
X133738096Y-102116723D01*
X133738096Y-102116723D02*
X133785715Y-102021485D01*
X133785715Y-102021485D02*
X133880953Y-101973866D01*
X133880953Y-101973866D02*
X134119048Y-101973866D01*
X134119048Y-101973866D02*
X134214286Y-101926247D01*
X97454819Y-60766666D02*
X97454819Y-61242856D01*
X97454819Y-61242856D02*
X96454819Y-61242856D01*
X97454819Y-59909523D02*
X97454819Y-60480951D01*
X97454819Y-60195237D02*
X96454819Y-60195237D01*
X96454819Y-60195237D02*
X96597676Y-60290475D01*
X96597676Y-60290475D02*
X96692914Y-60385713D01*
X96692914Y-60385713D02*
X96740533Y-60480951D01*
X124179819Y-64091666D02*
X123703628Y-64424999D01*
X124179819Y-64663094D02*
X123179819Y-64663094D01*
X123179819Y-64663094D02*
X123179819Y-64282142D01*
X123179819Y-64282142D02*
X123227438Y-64186904D01*
X123227438Y-64186904D02*
X123275057Y-64139285D01*
X123275057Y-64139285D02*
X123370295Y-64091666D01*
X123370295Y-64091666D02*
X123513152Y-64091666D01*
X123513152Y-64091666D02*
X123608390Y-64139285D01*
X123608390Y-64139285D02*
X123656009Y-64186904D01*
X123656009Y-64186904D02*
X123703628Y-64282142D01*
X123703628Y-64282142D02*
X123703628Y-64663094D01*
X123513152Y-63234523D02*
X124179819Y-63234523D01*
X123132200Y-63472618D02*
X123846485Y-63710713D01*
X123846485Y-63710713D02*
X123846485Y-63091666D01*
X97513095Y-79979819D02*
X97513095Y-80789342D01*
X97513095Y-80789342D02*
X97560714Y-80884580D01*
X97560714Y-80884580D02*
X97608333Y-80932200D01*
X97608333Y-80932200D02*
X97703571Y-80979819D01*
X97703571Y-80979819D02*
X97894047Y-80979819D01*
X97894047Y-80979819D02*
X97989285Y-80932200D01*
X97989285Y-80932200D02*
X98036904Y-80884580D01*
X98036904Y-80884580D02*
X98084523Y-80789342D01*
X98084523Y-80789342D02*
X98084523Y-79979819D01*
X98989285Y-80313152D02*
X98989285Y-80979819D01*
X98751190Y-79932200D02*
X98513095Y-80646485D01*
X98513095Y-80646485D02*
X99132142Y-80646485D01*
X128854819Y-60466666D02*
X128378628Y-60799999D01*
X128854819Y-61038094D02*
X127854819Y-61038094D01*
X127854819Y-61038094D02*
X127854819Y-60657142D01*
X127854819Y-60657142D02*
X127902438Y-60561904D01*
X127902438Y-60561904D02*
X127950057Y-60514285D01*
X127950057Y-60514285D02*
X128045295Y-60466666D01*
X128045295Y-60466666D02*
X128188152Y-60466666D01*
X128188152Y-60466666D02*
X128283390Y-60514285D01*
X128283390Y-60514285D02*
X128331009Y-60561904D01*
X128331009Y-60561904D02*
X128378628Y-60657142D01*
X128378628Y-60657142D02*
X128378628Y-61038094D01*
X128854819Y-59514285D02*
X128854819Y-60085713D01*
X128854819Y-59799999D02*
X127854819Y-59799999D01*
X127854819Y-59799999D02*
X127997676Y-59895237D01*
X127997676Y-59895237D02*
X128092914Y-59990475D01*
X128092914Y-59990475D02*
X128140533Y-60085713D01*
X90779761Y-82025057D02*
X90684523Y-81977438D01*
X90684523Y-81977438D02*
X90589285Y-81882200D01*
X90589285Y-81882200D02*
X90446428Y-81739342D01*
X90446428Y-81739342D02*
X90351190Y-81691723D01*
X90351190Y-81691723D02*
X90255952Y-81691723D01*
X90303571Y-81929819D02*
X90208333Y-81882200D01*
X90208333Y-81882200D02*
X90113095Y-81786961D01*
X90113095Y-81786961D02*
X90065476Y-81596485D01*
X90065476Y-81596485D02*
X90065476Y-81263152D01*
X90065476Y-81263152D02*
X90113095Y-81072676D01*
X90113095Y-81072676D02*
X90208333Y-80977438D01*
X90208333Y-80977438D02*
X90303571Y-80929819D01*
X90303571Y-80929819D02*
X90494047Y-80929819D01*
X90494047Y-80929819D02*
X90589285Y-80977438D01*
X90589285Y-80977438D02*
X90684523Y-81072676D01*
X90684523Y-81072676D02*
X90732142Y-81263152D01*
X90732142Y-81263152D02*
X90732142Y-81596485D01*
X90732142Y-81596485D02*
X90684523Y-81786961D01*
X90684523Y-81786961D02*
X90589285Y-81882200D01*
X90589285Y-81882200D02*
X90494047Y-81929819D01*
X90494047Y-81929819D02*
X90303571Y-81929819D01*
X91684523Y-81929819D02*
X91113095Y-81929819D01*
X91398809Y-81929819D02*
X91398809Y-80929819D01*
X91398809Y-80929819D02*
X91303571Y-81072676D01*
X91303571Y-81072676D02*
X91208333Y-81167914D01*
X91208333Y-81167914D02*
X91113095Y-81215533D01*
X118466666Y-52854819D02*
X118466666Y-53569104D01*
X118466666Y-53569104D02*
X118419047Y-53711961D01*
X118419047Y-53711961D02*
X118323809Y-53807200D01*
X118323809Y-53807200D02*
X118180952Y-53854819D01*
X118180952Y-53854819D02*
X118085714Y-53854819D01*
X119371428Y-53188152D02*
X119371428Y-53854819D01*
X119133333Y-52807200D02*
X118895238Y-53521485D01*
X118895238Y-53521485D02*
X119514285Y-53521485D01*
X129033333Y-58659580D02*
X128985714Y-58707200D01*
X128985714Y-58707200D02*
X128842857Y-58754819D01*
X128842857Y-58754819D02*
X128747619Y-58754819D01*
X128747619Y-58754819D02*
X128604762Y-58707200D01*
X128604762Y-58707200D02*
X128509524Y-58611961D01*
X128509524Y-58611961D02*
X128461905Y-58516723D01*
X128461905Y-58516723D02*
X128414286Y-58326247D01*
X128414286Y-58326247D02*
X128414286Y-58183390D01*
X128414286Y-58183390D02*
X128461905Y-57992914D01*
X128461905Y-57992914D02*
X128509524Y-57897676D01*
X128509524Y-57897676D02*
X128604762Y-57802438D01*
X128604762Y-57802438D02*
X128747619Y-57754819D01*
X128747619Y-57754819D02*
X128842857Y-57754819D01*
X128842857Y-57754819D02*
X128985714Y-57802438D01*
X128985714Y-57802438D02*
X129033333Y-57850057D01*
X129414286Y-57850057D02*
X129461905Y-57802438D01*
X129461905Y-57802438D02*
X129557143Y-57754819D01*
X129557143Y-57754819D02*
X129795238Y-57754819D01*
X129795238Y-57754819D02*
X129890476Y-57802438D01*
X129890476Y-57802438D02*
X129938095Y-57850057D01*
X129938095Y-57850057D02*
X129985714Y-57945295D01*
X129985714Y-57945295D02*
X129985714Y-58040533D01*
X129985714Y-58040533D02*
X129938095Y-58183390D01*
X129938095Y-58183390D02*
X129366667Y-58754819D01*
X129366667Y-58754819D02*
X129985714Y-58754819D01*
X98406905Y-90839819D02*
X98406905Y-89839819D01*
X98406905Y-89839819D02*
X98645000Y-89839819D01*
X98645000Y-89839819D02*
X98787857Y-89887438D01*
X98787857Y-89887438D02*
X98883095Y-89982676D01*
X98883095Y-89982676D02*
X98930714Y-90077914D01*
X98930714Y-90077914D02*
X98978333Y-90268390D01*
X98978333Y-90268390D02*
X98978333Y-90411247D01*
X98978333Y-90411247D02*
X98930714Y-90601723D01*
X98930714Y-90601723D02*
X98883095Y-90696961D01*
X98883095Y-90696961D02*
X98787857Y-90792200D01*
X98787857Y-90792200D02*
X98645000Y-90839819D01*
X98645000Y-90839819D02*
X98406905Y-90839819D01*
X99835476Y-90173152D02*
X99835476Y-90839819D01*
X99597381Y-89792200D02*
X99359286Y-90506485D01*
X99359286Y-90506485D02*
X99978333Y-90506485D01*
X136959580Y-56866666D02*
X137007200Y-56914285D01*
X137007200Y-56914285D02*
X137054819Y-57057142D01*
X137054819Y-57057142D02*
X137054819Y-57152380D01*
X137054819Y-57152380D02*
X137007200Y-57295237D01*
X137007200Y-57295237D02*
X136911961Y-57390475D01*
X136911961Y-57390475D02*
X136816723Y-57438094D01*
X136816723Y-57438094D02*
X136626247Y-57485713D01*
X136626247Y-57485713D02*
X136483390Y-57485713D01*
X136483390Y-57485713D02*
X136292914Y-57438094D01*
X136292914Y-57438094D02*
X136197676Y-57390475D01*
X136197676Y-57390475D02*
X136102438Y-57295237D01*
X136102438Y-57295237D02*
X136054819Y-57152380D01*
X136054819Y-57152380D02*
X136054819Y-57057142D01*
X136054819Y-57057142D02*
X136102438Y-56914285D01*
X136102438Y-56914285D02*
X136150057Y-56866666D01*
X137054819Y-55914285D02*
X137054819Y-56485713D01*
X137054819Y-56199999D02*
X136054819Y-56199999D01*
X136054819Y-56199999D02*
X136197676Y-56295237D01*
X136197676Y-56295237D02*
X136292914Y-56390475D01*
X136292914Y-56390475D02*
X136340533Y-56485713D01*
X100004819Y-85938094D02*
X99004819Y-85938094D01*
X99004819Y-85938094D02*
X99004819Y-85699999D01*
X99004819Y-85699999D02*
X99052438Y-85557142D01*
X99052438Y-85557142D02*
X99147676Y-85461904D01*
X99147676Y-85461904D02*
X99242914Y-85414285D01*
X99242914Y-85414285D02*
X99433390Y-85366666D01*
X99433390Y-85366666D02*
X99576247Y-85366666D01*
X99576247Y-85366666D02*
X99766723Y-85414285D01*
X99766723Y-85414285D02*
X99861961Y-85461904D01*
X99861961Y-85461904D02*
X99957200Y-85557142D01*
X99957200Y-85557142D02*
X100004819Y-85699999D01*
X100004819Y-85699999D02*
X100004819Y-85938094D01*
X99004819Y-85033332D02*
X99004819Y-84414285D01*
X99004819Y-84414285D02*
X99385771Y-84747618D01*
X99385771Y-84747618D02*
X99385771Y-84604761D01*
X99385771Y-84604761D02*
X99433390Y-84509523D01*
X99433390Y-84509523D02*
X99481009Y-84461904D01*
X99481009Y-84461904D02*
X99576247Y-84414285D01*
X99576247Y-84414285D02*
X99814342Y-84414285D01*
X99814342Y-84414285D02*
X99909580Y-84461904D01*
X99909580Y-84461904D02*
X99957200Y-84509523D01*
X99957200Y-84509523D02*
X100004819Y-84604761D01*
X100004819Y-84604761D02*
X100004819Y-84890475D01*
X100004819Y-84890475D02*
X99957200Y-84985713D01*
X99957200Y-84985713D02*
X99909580Y-85033332D01*
X131556033Y-79720000D02*
X131222700Y-79953333D01*
X131556033Y-80120000D02*
X130856033Y-80120000D01*
X130856033Y-80120000D02*
X130856033Y-79853333D01*
X130856033Y-79853333D02*
X130889366Y-79786667D01*
X130889366Y-79786667D02*
X130922700Y-79753333D01*
X130922700Y-79753333D02*
X130989366Y-79720000D01*
X130989366Y-79720000D02*
X131089366Y-79720000D01*
X131089366Y-79720000D02*
X131156033Y-79753333D01*
X131156033Y-79753333D02*
X131189366Y-79786667D01*
X131189366Y-79786667D02*
X131222700Y-79853333D01*
X131222700Y-79853333D02*
X131222700Y-80120000D01*
X131556033Y-79053333D02*
X131556033Y-79453333D01*
X131556033Y-79253333D02*
X130856033Y-79253333D01*
X130856033Y-79253333D02*
X130956033Y-79320000D01*
X130956033Y-79320000D02*
X131022700Y-79386667D01*
X131022700Y-79386667D02*
X131056033Y-79453333D01*
X130856033Y-78820000D02*
X130856033Y-78386666D01*
X130856033Y-78386666D02*
X131122700Y-78620000D01*
X131122700Y-78620000D02*
X131122700Y-78520000D01*
X131122700Y-78520000D02*
X131156033Y-78453333D01*
X131156033Y-78453333D02*
X131189366Y-78420000D01*
X131189366Y-78420000D02*
X131256033Y-78386666D01*
X131256033Y-78386666D02*
X131422700Y-78386666D01*
X131422700Y-78386666D02*
X131489366Y-78420000D01*
X131489366Y-78420000D02*
X131522700Y-78453333D01*
X131522700Y-78453333D02*
X131556033Y-78520000D01*
X131556033Y-78520000D02*
X131556033Y-78720000D01*
X131556033Y-78720000D02*
X131522700Y-78786666D01*
X131522700Y-78786666D02*
X131489366Y-78820000D01*
X124949999Y-82496033D02*
X124716666Y-82162700D01*
X124549999Y-82496033D02*
X124549999Y-81796033D01*
X124549999Y-81796033D02*
X124816666Y-81796033D01*
X124816666Y-81796033D02*
X124883333Y-81829366D01*
X124883333Y-81829366D02*
X124916666Y-81862700D01*
X124916666Y-81862700D02*
X124949999Y-81929366D01*
X124949999Y-81929366D02*
X124949999Y-82029366D01*
X124949999Y-82029366D02*
X124916666Y-82096033D01*
X124916666Y-82096033D02*
X124883333Y-82129366D01*
X124883333Y-82129366D02*
X124816666Y-82162700D01*
X124816666Y-82162700D02*
X124549999Y-82162700D01*
X125616666Y-82496033D02*
X125216666Y-82496033D01*
X125416666Y-82496033D02*
X125416666Y-81796033D01*
X125416666Y-81796033D02*
X125349999Y-81896033D01*
X125349999Y-81896033D02*
X125283333Y-81962700D01*
X125283333Y-81962700D02*
X125216666Y-81996033D01*
X125883333Y-81862700D02*
X125916666Y-81829366D01*
X125916666Y-81829366D02*
X125983333Y-81796033D01*
X125983333Y-81796033D02*
X126150000Y-81796033D01*
X126150000Y-81796033D02*
X126216666Y-81829366D01*
X126216666Y-81829366D02*
X126250000Y-81862700D01*
X126250000Y-81862700D02*
X126283333Y-81929366D01*
X126283333Y-81929366D02*
X126283333Y-81996033D01*
X126283333Y-81996033D02*
X126250000Y-82096033D01*
X126250000Y-82096033D02*
X125850000Y-82496033D01*
X125850000Y-82496033D02*
X126283333Y-82496033D01*
X130793333Y-81409366D02*
X130760000Y-81442700D01*
X130760000Y-81442700D02*
X130660000Y-81476033D01*
X130660000Y-81476033D02*
X130593333Y-81476033D01*
X130593333Y-81476033D02*
X130493333Y-81442700D01*
X130493333Y-81442700D02*
X130426667Y-81376033D01*
X130426667Y-81376033D02*
X130393333Y-81309366D01*
X130393333Y-81309366D02*
X130360000Y-81176033D01*
X130360000Y-81176033D02*
X130360000Y-81076033D01*
X130360000Y-81076033D02*
X130393333Y-80942700D01*
X130393333Y-80942700D02*
X130426667Y-80876033D01*
X130426667Y-80876033D02*
X130493333Y-80809366D01*
X130493333Y-80809366D02*
X130593333Y-80776033D01*
X130593333Y-80776033D02*
X130660000Y-80776033D01*
X130660000Y-80776033D02*
X130760000Y-80809366D01*
X130760000Y-80809366D02*
X130793333Y-80842700D01*
X131393333Y-81009366D02*
X131393333Y-81476033D01*
X131226667Y-80742700D02*
X131060000Y-81242700D01*
X131060000Y-81242700D02*
X131493333Y-81242700D01*
X132954819Y-65761904D02*
X133764342Y-65761904D01*
X133764342Y-65761904D02*
X133859580Y-65714285D01*
X133859580Y-65714285D02*
X133907200Y-65666666D01*
X133907200Y-65666666D02*
X133954819Y-65571428D01*
X133954819Y-65571428D02*
X133954819Y-65380952D01*
X133954819Y-65380952D02*
X133907200Y-65285714D01*
X133907200Y-65285714D02*
X133859580Y-65238095D01*
X133859580Y-65238095D02*
X133764342Y-65190476D01*
X133764342Y-65190476D02*
X132954819Y-65190476D01*
X132954819Y-64809523D02*
X132954819Y-64190476D01*
X132954819Y-64190476D02*
X133335771Y-64523809D01*
X133335771Y-64523809D02*
X133335771Y-64380952D01*
X133335771Y-64380952D02*
X133383390Y-64285714D01*
X133383390Y-64285714D02*
X133431009Y-64238095D01*
X133431009Y-64238095D02*
X133526247Y-64190476D01*
X133526247Y-64190476D02*
X133764342Y-64190476D01*
X133764342Y-64190476D02*
X133859580Y-64238095D01*
X133859580Y-64238095D02*
X133907200Y-64285714D01*
X133907200Y-64285714D02*
X133954819Y-64380952D01*
X133954819Y-64380952D02*
X133954819Y-64666666D01*
X133954819Y-64666666D02*
X133907200Y-64761904D01*
X133907200Y-64761904D02*
X133859580Y-64809523D01*
X122763333Y-76966033D02*
X122763333Y-76266033D01*
X122763333Y-76266033D02*
X122930000Y-76266033D01*
X122930000Y-76266033D02*
X123030000Y-76299366D01*
X123030000Y-76299366D02*
X123096667Y-76366033D01*
X123096667Y-76366033D02*
X123130000Y-76432700D01*
X123130000Y-76432700D02*
X123163333Y-76566033D01*
X123163333Y-76566033D02*
X123163333Y-76666033D01*
X123163333Y-76666033D02*
X123130000Y-76799366D01*
X123130000Y-76799366D02*
X123096667Y-76866033D01*
X123096667Y-76866033D02*
X123030000Y-76932700D01*
X123030000Y-76932700D02*
X122930000Y-76966033D01*
X122930000Y-76966033D02*
X122763333Y-76966033D01*
X123830000Y-76966033D02*
X123430000Y-76966033D01*
X123630000Y-76966033D02*
X123630000Y-76266033D01*
X123630000Y-76266033D02*
X123563333Y-76366033D01*
X123563333Y-76366033D02*
X123496667Y-76432700D01*
X123496667Y-76432700D02*
X123430000Y-76466033D01*
X96354819Y-61908333D02*
X97069104Y-61908333D01*
X97069104Y-61908333D02*
X97211961Y-61955952D01*
X97211961Y-61955952D02*
X97307200Y-62051190D01*
X97307200Y-62051190D02*
X97354819Y-62194047D01*
X97354819Y-62194047D02*
X97354819Y-62289285D01*
X96354819Y-60955952D02*
X96354819Y-61432142D01*
X96354819Y-61432142D02*
X96831009Y-61479761D01*
X96831009Y-61479761D02*
X96783390Y-61432142D01*
X96783390Y-61432142D02*
X96735771Y-61336904D01*
X96735771Y-61336904D02*
X96735771Y-61098809D01*
X96735771Y-61098809D02*
X96783390Y-61003571D01*
X96783390Y-61003571D02*
X96831009Y-60955952D01*
X96831009Y-60955952D02*
X96926247Y-60908333D01*
X96926247Y-60908333D02*
X97164342Y-60908333D01*
X97164342Y-60908333D02*
X97259580Y-60955952D01*
X97259580Y-60955952D02*
X97307200Y-61003571D01*
X97307200Y-61003571D02*
X97354819Y-61098809D01*
X97354819Y-61098809D02*
X97354819Y-61336904D01*
X97354819Y-61336904D02*
X97307200Y-61432142D01*
X97307200Y-61432142D02*
X97259580Y-61479761D01*
D11*
%TO.C,R8*%
X128847224Y-80067500D02*
X128337776Y-80067500D01*
X128847224Y-81112500D02*
X128337776Y-81112500D01*
%TO.C,R2*%
X124577500Y-60145276D02*
X124577500Y-60654724D01*
X125622500Y-60145276D02*
X125622500Y-60654724D01*
%TO.C,R3*%
X126477500Y-63645276D02*
X126477500Y-64154724D01*
X127522500Y-63645276D02*
X127522500Y-64154724D01*
%TO.C,C3*%
X99436252Y-64090000D02*
X98013748Y-64090000D01*
X99436252Y-65910000D02*
X98013748Y-65910000D01*
%TO.C,U2*%
X134400000Y-63950000D02*
X139400000Y-63950000D01*
X139400000Y-69950000D01*
X134400000Y-69950000D01*
X134400000Y-63950000D01*
X136000000Y-69050000D02*
G75*
G02*
X135000000Y-69050000I-500000J0D01*
G01*
X135000000Y-69050000D02*
G75*
G02*
X136000000Y-69050000I500000J0D01*
G01*
%TO.C,R7*%
X128837224Y-77547500D02*
X128327776Y-77547500D01*
X128837224Y-78592500D02*
X128327776Y-78592500D01*
%TO.C,J1*%
X119245000Y-80805000D02*
X119245000Y-68045000D01*
X121905000Y-68045000D02*
X119245000Y-68045000D01*
X121905000Y-80805000D02*
X119245000Y-80805000D01*
X121905000Y-80805000D02*
X121905000Y-68045000D01*
X121905000Y-82075000D02*
X121905000Y-83405000D01*
X121905000Y-83405000D02*
X120575000Y-83405000D01*
%TO.C,D5*%
X90125000Y-60790000D02*
X90125000Y-66300000D01*
X93425000Y-60790000D02*
X90125000Y-60790000D01*
X93425000Y-60790000D02*
X93425000Y-66300000D01*
%TO.C,R6*%
X129377500Y-74704724D02*
X129377500Y-74195276D01*
X130422500Y-74704724D02*
X130422500Y-74195276D01*
%TO.C,R5*%
X131327500Y-74679724D02*
X131327500Y-74170276D01*
X132372500Y-74679724D02*
X132372500Y-74170276D01*
%TO.C,R10*%
X132777500Y-59754724D02*
X132777500Y-59245276D01*
X133822500Y-59754724D02*
X133822500Y-59245276D01*
%TO.C,S2*%
X118250000Y-64850000D02*
X120750000Y-64850000D01*
X120750000Y-60750000D01*
X118250000Y-60750000D01*
X118250000Y-64850000D01*
%TO.C,R9*%
X137877500Y-59754724D02*
X137877500Y-59245276D01*
X138922500Y-59754724D02*
X138922500Y-59245276D01*
%TO.C,D2*%
X122780000Y-79630000D02*
X122780000Y-81550000D01*
X122780000Y-81550000D02*
X125640000Y-81550000D01*
X125640000Y-79630000D02*
X122780000Y-79630000D01*
%TO.C,S1*%
X112250000Y-64850000D02*
X114750000Y-64850000D01*
X114750000Y-60750000D01*
X112250000Y-60750000D01*
X112250000Y-64850000D01*
%TO.C,R11*%
X91377500Y-93354724D02*
X91377500Y-92845276D01*
X92422500Y-93354724D02*
X92422500Y-92845276D01*
%TO.C,J2*%
X133915000Y-73365000D02*
X133915000Y-83485000D01*
X133915000Y-83485000D02*
X139885000Y-83485000D01*
X134675000Y-74125000D02*
X134675000Y-78425000D01*
X134675000Y-82725000D02*
X134675000Y-78425000D01*
X137625000Y-73375000D02*
X137625000Y-74125000D01*
X137625000Y-74125000D02*
X134675000Y-74125000D01*
X137625000Y-82725000D02*
X134675000Y-82725000D01*
X137625000Y-83475000D02*
X137625000Y-82725000D01*
X139125000Y-73375000D02*
X139125000Y-75175000D01*
X139125000Y-75175000D02*
X139875000Y-75175000D01*
X139125000Y-76675000D02*
X139125000Y-80175000D01*
X139125000Y-80175000D02*
X139875000Y-80175000D01*
X139125000Y-81675000D02*
X139125000Y-83475000D01*
X139125000Y-83475000D02*
X139875000Y-83475000D01*
X139875000Y-73375000D02*
X139125000Y-73375000D01*
X139875000Y-75175000D02*
X139875000Y-73375000D01*
X139875000Y-76675000D02*
X139125000Y-76675000D01*
X139875000Y-80175000D02*
X139875000Y-76675000D01*
X139875000Y-81675000D02*
X139125000Y-81675000D01*
X139875000Y-83475000D02*
X139875000Y-81675000D01*
X139885000Y-73365000D02*
X133915000Y-73365000D01*
X139885000Y-83485000D02*
X139885000Y-73365000D01*
X140175000Y-73075000D02*
X138925000Y-73075000D01*
X140175000Y-74325000D02*
X140175000Y-73075000D01*
%TO.C,U5*%
X120500000Y-84500000D02*
X138500000Y-84500000D01*
X120500000Y-84750000D02*
X120500000Y-84500000D01*
X120500000Y-98500000D02*
X138450000Y-98500000D01*
X120500000Y-104500000D02*
X120500000Y-98000000D01*
X138500000Y-84500000D02*
X138500000Y-84750000D01*
X138500000Y-104500000D02*
X120500000Y-104500000D01*
X138500000Y-104500000D02*
X138500000Y-98000000D01*
%TO.C,L1*%
X90725000Y-52300000D02*
X90725000Y-59700000D01*
X90725000Y-52300000D02*
X92225000Y-52300000D01*
X90725000Y-59700000D02*
X92225000Y-59700000D01*
X97525000Y-52300000D02*
X96025000Y-52300000D01*
X97525000Y-59700000D02*
X96025000Y-59700000D01*
X97525000Y-59700000D02*
X97525000Y-52300000D01*
%TO.C,R4*%
X124577500Y-63645276D02*
X124577500Y-64154724D01*
X125622500Y-63645276D02*
X125622500Y-64154724D01*
%TO.C,U4*%
X99250000Y-69225000D02*
X100750000Y-69225000D01*
X99250000Y-79625000D02*
X100750000Y-79625000D01*
X100750000Y-69225000D02*
X100750000Y-70175000D01*
X100750000Y-70175000D02*
X101850000Y-70175000D01*
X100750000Y-78675000D02*
X105875000Y-78675000D01*
X100750000Y-79625000D02*
X100750000Y-78675000D01*
%TO.C,R1*%
X126477500Y-60145276D02*
X126477500Y-60654724D01*
X127522500Y-60145276D02*
X127522500Y-60654724D01*
%TO.C,Q1*%
X90850000Y-82200000D02*
X90850000Y-88500000D01*
X92350000Y-82200000D02*
X90850000Y-82200000D01*
X98150000Y-82200000D02*
X96650000Y-82200000D01*
X98150000Y-82200000D02*
X98150000Y-88500000D01*
%TO.C,J4*%
X118490000Y-57330000D02*
X118490000Y-56000000D01*
X119820000Y-57330000D02*
X118490000Y-57330000D01*
X121090000Y-54670000D02*
X126230000Y-54670000D01*
X121090000Y-57330000D02*
X121090000Y-54670000D01*
X121090000Y-57330000D02*
X126230000Y-57330000D01*
X126230000Y-57330000D02*
X126230000Y-54670000D01*
%TO.C,C2*%
X130265000Y-59201248D02*
X130265000Y-59723752D01*
X131735000Y-59201248D02*
X131735000Y-59723752D01*
%TO.C,D4*%
X96490000Y-92260000D02*
X97140000Y-92260000D01*
X97140000Y-91140000D02*
X97140000Y-93380000D01*
X97140000Y-93380000D02*
X101380000Y-93380000D01*
X100540000Y-93380000D02*
X100540000Y-91140000D01*
X100660000Y-93380000D02*
X100660000Y-91140000D01*
X100780000Y-93380000D02*
X100780000Y-91140000D01*
X101380000Y-91140000D02*
X97140000Y-91140000D01*
X101380000Y-93380000D02*
X101380000Y-91140000D01*
X102030000Y-92260000D02*
X101380000Y-92260000D01*
%TO.C,C1*%
X135365000Y-59238748D02*
X135365000Y-59761252D01*
X136835000Y-59238748D02*
X136835000Y-59761252D01*
%TO.C,D3*%
X100325000Y-81325000D02*
X101325000Y-81325000D01*
X100325000Y-88325000D02*
X100325000Y-81325000D01*
X101325000Y-88325000D02*
X100325000Y-88325000D01*
X104825000Y-81375000D02*
X105825000Y-81375000D01*
X105825000Y-81375000D02*
X105825000Y-88375000D01*
X105825000Y-88375000D02*
X104825000Y-88375000D01*
%TO.C,R13*%
X131897500Y-79504724D02*
X131897500Y-78995276D01*
X132942500Y-79504724D02*
X132942500Y-78995276D01*
%TO.C,R12*%
X124335276Y-82817500D02*
X124844724Y-82817500D01*
X124335276Y-83862500D02*
X124844724Y-83862500D01*
%TO.C,C4*%
X131511252Y-81800000D02*
X130088748Y-81800000D01*
X131511252Y-83620000D02*
X130088748Y-83620000D01*
%TO.C,U3*%
X129200000Y-63950000D02*
X134200000Y-63950000D01*
X134200000Y-69950000D01*
X129200000Y-69950000D01*
X129200000Y-63950000D01*
X130800000Y-69050000D02*
G75*
G02*
X129800000Y-69050000I-500000J0D01*
G01*
X129800000Y-69050000D02*
G75*
G02*
X130800000Y-69050000I500000J0D01*
G01*
%TO.C,D1*%
X122762500Y-77120000D02*
X122762500Y-79040000D01*
X122762500Y-79040000D02*
X125622500Y-79040000D01*
X125622500Y-77120000D02*
X122762500Y-77120000D01*
%TO.C,J5*%
X98140000Y-52340000D02*
X98140000Y-62460000D01*
X98140000Y-62460000D02*
X104110000Y-62460000D01*
X98900000Y-53100000D02*
X98900000Y-57400000D01*
X98900000Y-61700000D02*
X98900000Y-57400000D01*
X101850000Y-52350000D02*
X101850000Y-53100000D01*
X101850000Y-53100000D02*
X98900000Y-53100000D01*
X101850000Y-61700000D02*
X98900000Y-61700000D01*
X101850000Y-62450000D02*
X101850000Y-61700000D01*
X103350000Y-52350000D02*
X103350000Y-54150000D01*
X103350000Y-54150000D02*
X104100000Y-54150000D01*
X103350000Y-55650000D02*
X103350000Y-59150000D01*
X103350000Y-59150000D02*
X104100000Y-59150000D01*
X103350000Y-60650000D02*
X103350000Y-62450000D01*
X103350000Y-62450000D02*
X104100000Y-62450000D01*
X104100000Y-52350000D02*
X103350000Y-52350000D01*
X104100000Y-54150000D02*
X104100000Y-52350000D01*
X104100000Y-55650000D02*
X103350000Y-55650000D01*
X104100000Y-59150000D02*
X104100000Y-55650000D01*
X104100000Y-60650000D02*
X103350000Y-60650000D01*
X104100000Y-62450000D02*
X104100000Y-60650000D01*
X104110000Y-52340000D02*
X98140000Y-52340000D01*
X104110000Y-62460000D02*
X104110000Y-52340000D01*
X104400000Y-52050000D02*
X103150000Y-52050000D01*
X104400000Y-53300000D02*
X104400000Y-52050000D01*
%TD*%
%LPC*%
D12*
%TO.C,R8*%
X129505000Y-80590000D03*
X127680000Y-80590000D03*
%TD*%
D13*
%TO.C,R2*%
X125100000Y-59487500D03*
X125100000Y-61312500D03*
%TD*%
%TO.C,R3*%
X127000000Y-62987500D03*
X127000000Y-64812500D03*
%TD*%
D14*
%TO.C,C3*%
X100287500Y-65000000D03*
X97162500Y-65000000D03*
%TD*%
D15*
%TO.C,U2*%
X135630000Y-71200000D03*
X138170000Y-71200000D03*
X138170000Y-62700000D03*
X135630000Y-62700000D03*
%TD*%
D12*
%TO.C,R7*%
X129495000Y-78070000D03*
X127670000Y-78070000D03*
%TD*%
D16*
%TO.C,J1*%
X120575000Y-82075000D03*
D17*
X120575000Y-79535000D03*
X120575000Y-76995000D03*
X120575000Y-74455000D03*
X120575000Y-71915000D03*
X120575000Y-69375000D03*
%TD*%
D18*
%TO.C,D5*%
X91775000Y-62300000D03*
X91775000Y-66300000D03*
%TD*%
D19*
%TO.C,R6*%
X129900000Y-75362500D03*
X129900000Y-73537500D03*
%TD*%
%TO.C,R5*%
X131850000Y-75337500D03*
X131850000Y-73512500D03*
%TD*%
%TO.C,R10*%
X133300000Y-60412500D03*
X133300000Y-58587500D03*
%TD*%
D20*
%TO.C,S2*%
X119500000Y-61150000D03*
X119500000Y-64450000D03*
%TD*%
D19*
%TO.C,R9*%
X138400000Y-60412500D03*
X138400000Y-58587500D03*
%TD*%
D21*
%TO.C,D2*%
X123615000Y-80590000D03*
X125665000Y-80590000D03*
%TD*%
D20*
%TO.C,S1*%
X113500000Y-61150000D03*
X113500000Y-64450000D03*
%TD*%
D19*
%TO.C,R11*%
X91900000Y-94012500D03*
X91900000Y-92187500D03*
%TD*%
D22*
%TO.C,REF\u002A\u002A*%
X107350000Y-61500000D03*
X107350000Y-60950000D03*
X107350000Y-60400000D03*
X107350000Y-59850000D03*
X107350000Y-59300000D03*
X107350000Y-58750000D03*
X107350000Y-58200000D03*
X107350000Y-57650000D03*
X107350000Y-57100000D03*
%TD*%
%TO.C,REF\u002A\u002A*%
X109800000Y-61500000D03*
X109800000Y-60950000D03*
X109800000Y-60400000D03*
X109800000Y-59850000D03*
X109800000Y-59300000D03*
X109800000Y-58750000D03*
X109800000Y-58200000D03*
X109800000Y-57650000D03*
X109800000Y-57100000D03*
%TD*%
D23*
%TO.C,J2*%
X137425000Y-75925000D03*
D24*
X137425000Y-78425000D03*
X137425000Y-80925000D03*
%TD*%
D25*
%TO.C,U5*%
X138250000Y-97400000D03*
X138250000Y-95900000D03*
X138250000Y-94400000D03*
X138250000Y-92900000D03*
X138250000Y-91400000D03*
X138250000Y-89900000D03*
X138250000Y-88400000D03*
X138250000Y-86900000D03*
X138250000Y-85400000D03*
X120750000Y-85400000D03*
X120750000Y-86900000D03*
X120750000Y-88400000D03*
X120750000Y-89900000D03*
X120750000Y-91400000D03*
X120750000Y-92900000D03*
X120750000Y-94400000D03*
X120750000Y-95900000D03*
X120750000Y-97400000D03*
D26*
X129640000Y-92300000D03*
X129640000Y-91200000D03*
X129640000Y-90100000D03*
X128590000Y-92300000D03*
X128590000Y-91200000D03*
X128590000Y-90100000D03*
X127440000Y-92300000D03*
X127440000Y-91200000D03*
X127440000Y-90100000D03*
%TD*%
D27*
%TO.C,L1*%
X94125000Y-59025000D03*
X94125000Y-52975000D03*
%TD*%
D13*
%TO.C,R4*%
X125100000Y-62987500D03*
X125100000Y-64812500D03*
%TD*%
D22*
%TO.C,REF\u002A\u002A*%
X107400000Y-94950000D03*
X107400000Y-94400000D03*
X107400000Y-93850000D03*
X107400000Y-93300000D03*
X107400000Y-92750000D03*
X107400000Y-92200000D03*
X107400000Y-91650000D03*
X107400000Y-91100000D03*
X107400000Y-90550000D03*
%TD*%
D28*
%TO.C,U4*%
X103575000Y-77825000D03*
X103575000Y-76125000D03*
X103575000Y-74425000D03*
D29*
X94425000Y-74425000D03*
D28*
X103575000Y-72725000D03*
X103575000Y-71025000D03*
%TD*%
D13*
%TO.C,R1*%
X127000000Y-59487500D03*
X127000000Y-61312500D03*
%TD*%
D30*
%TO.C,Q1*%
X92000000Y-88600000D03*
X94500000Y-88600000D03*
X97000000Y-88600000D03*
D31*
X94500000Y-82200000D03*
%TD*%
D16*
%TO.C,J4*%
X119820000Y-56000000D03*
D17*
X122360000Y-56000000D03*
X124900000Y-56000000D03*
%TD*%
D32*
%TO.C,C2*%
X131000000Y-58425000D03*
X131000000Y-60500000D03*
%TD*%
D33*
%TO.C,D4*%
X103070000Y-92260000D03*
D34*
X95450000Y-92260000D03*
%TD*%
D32*
%TO.C,C1*%
X136100000Y-58462500D03*
X136100000Y-60537500D03*
%TD*%
D22*
%TO.C,REF\u002A\u002A*%
X118700000Y-94950000D03*
X118700000Y-94400000D03*
X118700000Y-93850000D03*
X118700000Y-93300000D03*
X118700000Y-92750000D03*
X118700000Y-92200000D03*
X118700000Y-91650000D03*
X118700000Y-91100000D03*
X118700000Y-90550000D03*
%TD*%
D35*
%TO.C,D3*%
X103075000Y-88325000D03*
X103125000Y-81325000D03*
%TD*%
D19*
%TO.C,R13*%
X132420000Y-80162500D03*
X132420000Y-78337500D03*
%TD*%
D36*
%TO.C,R12*%
X123677500Y-83340000D03*
X125502500Y-83340000D03*
%TD*%
D14*
%TO.C,C4*%
X132362500Y-82710000D03*
X129237500Y-82710000D03*
%TD*%
D15*
%TO.C,U3*%
X130430000Y-71200000D03*
X132970000Y-71200000D03*
X132970000Y-62700000D03*
X130430000Y-62700000D03*
%TD*%
D21*
%TO.C,D1*%
X123597500Y-78080000D03*
X125647500Y-78080000D03*
%TD*%
D23*
%TO.C,J5*%
X101650000Y-54900000D03*
D24*
X101650000Y-57400000D03*
X101650000Y-59900000D03*
%TD*%
D16*
%TO.C,J6*%
X102320000Y-97500000D03*
D17*
X99780000Y-97500000D03*
X97240000Y-97500000D03*
X94700000Y-97500000D03*
%TD*%
D16*
%TO.C,J3*%
X129320000Y-56000000D03*
D17*
X131860000Y-56000000D03*
X134400000Y-56000000D03*
%TD*%
%LPD*%
M02*
