%TF.GenerationSoftware,KiCad,Pcbnew,9.0.5*%
%TF.CreationDate,2025-10-30T17:33:36+01:00*%
%TF.ProjectId,SommerESP-ETHmodule,536f6d6d-6572-4455-9350-2d4554486d6f,rev?*%
%TF.SameCoordinates,Original*%
%TF.FileFunction,Copper,L2,Bot*%
%TF.FilePolarity,Positive*%
%FSLAX46Y46*%
G04 Gerber Fmt 4.6, Leading zero omitted, Abs format (unit mm)*
G04 Created by KiCad (PCBNEW 9.0.5) date 2025-10-30 17:33:36*
%MOMM*%
%LPD*%
G01*
G04 APERTURE LIST*
G04 Aperture macros list*
%AMFreePoly0*
4,1,23,0.500000,-0.750000,0.000000,-0.750000,0.000000,-0.745722,-0.065263,-0.745722,-0.191342,-0.711940,-0.304381,-0.646677,-0.396677,-0.554381,-0.461940,-0.441342,-0.495722,-0.315263,-0.495722,-0.250000,-0.500000,-0.250000,-0.500000,0.250000,-0.495722,0.250000,-0.495722,0.315263,-0.461940,0.441342,-0.396677,0.554381,-0.304381,0.646677,-0.191342,0.711940,-0.065263,0.745722,0.000000,0.745722,
0.000000,0.750000,0.500000,0.750000,0.500000,-0.750000,0.500000,-0.750000,$1*%
%AMFreePoly1*
4,1,23,0.000000,0.745722,0.065263,0.745722,0.191342,0.711940,0.304381,0.646677,0.396677,0.554381,0.461940,0.441342,0.495722,0.315263,0.495722,0.250000,0.500000,0.250000,0.500000,-0.250000,0.495722,-0.250000,0.495722,-0.315263,0.461940,-0.441342,0.396677,-0.554381,0.304381,-0.646677,0.191342,-0.711940,0.065263,-0.745722,0.000000,-0.745722,0.000000,-0.750000,-0.500000,-0.750000,
-0.500000,0.750000,0.000000,0.750000,0.000000,0.745722,0.000000,0.745722,$1*%
G04 Aperture macros list end*
%TA.AperFunction,ComponentPad*%
%ADD10R,1.700000X1.700000*%
%TD*%
%TA.AperFunction,ComponentPad*%
%ADD11C,1.700000*%
%TD*%
%TA.AperFunction,SMDPad,CuDef*%
%ADD12FreePoly0,0.000000*%
%TD*%
%TA.AperFunction,SMDPad,CuDef*%
%ADD13FreePoly1,0.000000*%
%TD*%
%TA.AperFunction,ViaPad*%
%ADD14C,0.600000*%
%TD*%
%TA.AperFunction,Conductor*%
%ADD15C,0.300000*%
%TD*%
%TA.AperFunction,Conductor*%
%ADD16C,0.750000*%
%TD*%
G04 APERTURE END LIST*
D10*
%TO.P,J1,1,Pin_1*%
%TO.N,/3.3V*%
X165000000Y-87920000D03*
D11*
%TO.P,J1,2,Pin_2*%
%TO.N,/CS-5*%
X165000000Y-90460000D03*
%TO.P,J1,3,Pin_3*%
%TO.N,/INT-RX*%
X165000000Y-93000000D03*
%TO.P,J1,4,Pin_4*%
%TO.N,/TX*%
X165000000Y-95540000D03*
%TO.P,J1,5,Pin_5*%
%TO.N,/SCK-18*%
X165000000Y-98080000D03*
%TO.P,J1,6,Pin_6*%
%TO.N,/MOSI-19*%
X165000000Y-100620000D03*
%TO.P,J1,7,Pin_7*%
%TO.N,/MISO-3*%
X165000000Y-103160000D03*
%TO.P,J1,8,Pin_8*%
%TO.N,/GND*%
X165000000Y-105700000D03*
%TD*%
D10*
%TO.P,J2,1,Pin_1*%
%TO.N,/GND*%
X152000000Y-81000000D03*
D11*
%TO.P,J2,2,Pin_2*%
%TO.N,/3.3V*%
X154540000Y-81000000D03*
%TO.P,J2,3,Pin_3*%
X157080000Y-81000000D03*
%TO.P,J2,4,Pin_4*%
%TO.N,unconnected-(J2-Pin_4-Pad4)*%
X159620000Y-81000000D03*
%TO.P,J2,5,Pin_5*%
%TO.N,/RST*%
X162160000Y-81000000D03*
%TO.P,J2,6,Pin_6*%
%TO.N,/MISO-3*%
X164700000Y-81000000D03*
%TD*%
D10*
%TO.P,J3,1,Pin_1*%
%TO.N,/GND*%
X152000000Y-61000000D03*
D11*
%TO.P,J3,2,Pin_2*%
X154540000Y-61000000D03*
%TO.P,J3,3,Pin_3*%
%TO.N,/MOSI-19*%
X157080000Y-61000000D03*
%TO.P,J3,4,Pin_4*%
%TO.N,/SCK-18*%
X159620000Y-61000000D03*
%TO.P,J3,5,Pin_5*%
%TO.N,/CS-5*%
X162160000Y-61000000D03*
%TO.P,J3,6,Pin_6*%
%TO.N,/INT-RX*%
X164700000Y-61000000D03*
%TD*%
D12*
%TO.P,JP1,1,A*%
%TO.N,/RST*%
X163350000Y-76800000D03*
D13*
%TO.P,JP1,2,B*%
%TO.N,/TX*%
X164650000Y-76800000D03*
%TD*%
D14*
%TO.N,/TX*%
X164800000Y-78500000D03*
%TD*%
D15*
%TO.N,/TX*%
X164700000Y-78400000D02*
X164700000Y-76900000D01*
X164800000Y-78500000D02*
X164700000Y-78400000D01*
%TO.N,/INT-RX*%
X166500000Y-91500000D02*
X164900000Y-93100000D01*
X166500000Y-62800000D02*
X166500000Y-91500000D01*
X164700000Y-61000000D02*
X166500000Y-62800000D01*
D16*
%TO.N,/GND*%
X162400000Y-84300000D02*
X158700000Y-84300000D01*
X163400000Y-85300000D02*
X162400000Y-84300000D01*
X165000000Y-105700000D02*
X163400000Y-104100000D01*
X152000000Y-81000000D02*
X151900000Y-81100000D01*
X157100000Y-82700000D02*
X153500000Y-82700000D01*
X152000000Y-61000000D02*
X154500000Y-61000000D01*
X153500000Y-82700000D02*
X151900000Y-81100000D01*
X158700000Y-84300000D02*
X157100000Y-82700000D01*
X152000000Y-61000000D02*
X152000000Y-81000000D01*
X163400000Y-104100000D02*
X163400000Y-85300000D01*
%TO.N,/3.3V*%
X165000000Y-87920000D02*
X165000000Y-85400000D01*
X162800000Y-83200000D02*
X159200000Y-83200000D01*
X154540000Y-81000000D02*
X157200000Y-81000000D01*
X165000000Y-85400000D02*
X162800000Y-83200000D01*
X159200000Y-83200000D02*
X157000000Y-81000000D01*
D15*
%TO.N,/RST*%
X162160000Y-77640000D02*
X162900000Y-76900000D01*
X162160000Y-81000000D02*
X162160000Y-77640000D01*
%TD*%
%TA.AperFunction,Conductor*%
%TO.N,/GND*%
G36*
X150756092Y-59620185D02*
G01*
X150801847Y-59672989D01*
X150811791Y-59742147D01*
X150788319Y-59798811D01*
X150706649Y-59907906D01*
X150706645Y-59907913D01*
X150656403Y-60042620D01*
X150656401Y-60042627D01*
X150650000Y-60102155D01*
X150650000Y-60750000D01*
X151566988Y-60750000D01*
X151534075Y-60807007D01*
X151500000Y-60934174D01*
X151500000Y-61065826D01*
X151534075Y-61192993D01*
X151566988Y-61250000D01*
X150650000Y-61250000D01*
X150650000Y-61897844D01*
X150656401Y-61957372D01*
X150656403Y-61957379D01*
X150706645Y-62092086D01*
X150706649Y-62092093D01*
X150792809Y-62207187D01*
X150792812Y-62207190D01*
X150907906Y-62293350D01*
X150907913Y-62293354D01*
X151042620Y-62343596D01*
X151042627Y-62343598D01*
X151102155Y-62349999D01*
X151102172Y-62350000D01*
X151750000Y-62350000D01*
X151750000Y-61433012D01*
X151807007Y-61465925D01*
X151934174Y-61500000D01*
X152065826Y-61500000D01*
X152192993Y-61465925D01*
X152250000Y-61433012D01*
X152250000Y-62350000D01*
X152897828Y-62350000D01*
X152897844Y-62349999D01*
X152957372Y-62343598D01*
X152957379Y-62343596D01*
X153092086Y-62293354D01*
X153092093Y-62293350D01*
X153207187Y-62207190D01*
X153207190Y-62207187D01*
X153293350Y-62092093D01*
X153293354Y-62092086D01*
X153315529Y-62032632D01*
X153354319Y-61859390D01*
X153354682Y-61858734D01*
X153354642Y-61857984D01*
X153387642Y-61798802D01*
X154057037Y-61129408D01*
X154074075Y-61192993D01*
X154139901Y-61307007D01*
X154232993Y-61400099D01*
X154347007Y-61465925D01*
X154410590Y-61482962D01*
X153778282Y-62115269D01*
X153778282Y-62115270D01*
X153832449Y-62154624D01*
X154021782Y-62251095D01*
X154223870Y-62316757D01*
X154433754Y-62350000D01*
X154646246Y-62350000D01*
X154856127Y-62316757D01*
X154856130Y-62316757D01*
X155058217Y-62251095D01*
X155247554Y-62154622D01*
X155301716Y-62115270D01*
X155301717Y-62115270D01*
X154669408Y-61482962D01*
X154732993Y-61465925D01*
X154847007Y-61400099D01*
X154940099Y-61307007D01*
X155005925Y-61192993D01*
X155022962Y-61129408D01*
X155655270Y-61761717D01*
X155655270Y-61761716D01*
X155694622Y-61707555D01*
X155699232Y-61698507D01*
X155747205Y-61647709D01*
X155815025Y-61630912D01*
X155881161Y-61653447D01*
X155920204Y-61698504D01*
X155924949Y-61707817D01*
X156049890Y-61879786D01*
X156200213Y-62030109D01*
X156372179Y-62155048D01*
X156372181Y-62155049D01*
X156372184Y-62155051D01*
X156561588Y-62251557D01*
X156763757Y-62317246D01*
X156973713Y-62350500D01*
X156973714Y-62350500D01*
X157186286Y-62350500D01*
X157186287Y-62350500D01*
X157396243Y-62317246D01*
X157598412Y-62251557D01*
X157787816Y-62155051D01*
X157874471Y-62092093D01*
X157959786Y-62030109D01*
X157959788Y-62030106D01*
X157959792Y-62030104D01*
X158110104Y-61879792D01*
X158110106Y-61879788D01*
X158110109Y-61879786D01*
X158235048Y-61707820D01*
X158235050Y-61707817D01*
X158235051Y-61707816D01*
X158239514Y-61699054D01*
X158287488Y-61648259D01*
X158355308Y-61631463D01*
X158421444Y-61653999D01*
X158460486Y-61699056D01*
X158464951Y-61707820D01*
X158589890Y-61879786D01*
X158740213Y-62030109D01*
X158912179Y-62155048D01*
X158912181Y-62155049D01*
X158912184Y-62155051D01*
X159101588Y-62251557D01*
X159303757Y-62317246D01*
X159513713Y-62350500D01*
X159513714Y-62350500D01*
X159726286Y-62350500D01*
X159726287Y-62350500D01*
X159936243Y-62317246D01*
X160138412Y-62251557D01*
X160327816Y-62155051D01*
X160414471Y-62092093D01*
X160499786Y-62030109D01*
X160499788Y-62030106D01*
X160499792Y-62030104D01*
X160650104Y-61879792D01*
X160650106Y-61879788D01*
X160650109Y-61879786D01*
X160775048Y-61707820D01*
X160775050Y-61707817D01*
X160775051Y-61707816D01*
X160779514Y-61699054D01*
X160827488Y-61648259D01*
X160895308Y-61631463D01*
X160961444Y-61653999D01*
X161000486Y-61699056D01*
X161004951Y-61707820D01*
X161129890Y-61879786D01*
X161280213Y-62030109D01*
X161452179Y-62155048D01*
X161452181Y-62155049D01*
X161452184Y-62155051D01*
X161641588Y-62251557D01*
X161843757Y-62317246D01*
X162053713Y-62350500D01*
X162053714Y-62350500D01*
X162266286Y-62350500D01*
X162266287Y-62350500D01*
X162476243Y-62317246D01*
X162678412Y-62251557D01*
X162867816Y-62155051D01*
X162954471Y-62092093D01*
X163039786Y-62030109D01*
X163039788Y-62030106D01*
X163039792Y-62030104D01*
X163190104Y-61879792D01*
X163190106Y-61879788D01*
X163190109Y-61879786D01*
X163315048Y-61707820D01*
X163315050Y-61707817D01*
X163315051Y-61707816D01*
X163319514Y-61699054D01*
X163367488Y-61648259D01*
X163435308Y-61631463D01*
X163501444Y-61653999D01*
X163540486Y-61699056D01*
X163544951Y-61707820D01*
X163669890Y-61879786D01*
X163820213Y-62030109D01*
X163992179Y-62155048D01*
X163992181Y-62155049D01*
X163992184Y-62155051D01*
X164181588Y-62251557D01*
X164383757Y-62317246D01*
X164593713Y-62350500D01*
X164593714Y-62350500D01*
X164806286Y-62350500D01*
X164806287Y-62350500D01*
X164916111Y-62333105D01*
X165021055Y-62316484D01*
X165021315Y-62318128D01*
X165083852Y-62321250D01*
X165130711Y-62350657D01*
X165813181Y-63033127D01*
X165846666Y-63094450D01*
X165849500Y-63120808D01*
X165849500Y-76199769D01*
X165829815Y-76266808D01*
X165777011Y-76312563D01*
X165707853Y-76322507D01*
X165644297Y-76293482D01*
X165606523Y-76234704D01*
X165605726Y-76231865D01*
X165604201Y-76226174D01*
X165604200Y-76226171D01*
X165553701Y-76104257D01*
X165553698Y-76104252D01*
X165553697Y-76104249D01*
X165553696Y-76104248D01*
X165487879Y-75990250D01*
X165487875Y-75990243D01*
X165407541Y-75885551D01*
X165314449Y-75792459D01*
X165314444Y-75792455D01*
X165209767Y-75712132D01*
X165209749Y-75712120D01*
X165095751Y-75646303D01*
X165095750Y-75646302D01*
X164973829Y-75595800D01*
X164881089Y-75570950D01*
X164846662Y-75561725D01*
X164846661Y-75561724D01*
X164846658Y-75561724D01*
X164715833Y-75544500D01*
X164715826Y-75544500D01*
X164150000Y-75544500D01*
X164149997Y-75544500D01*
X164078061Y-75549644D01*
X164078056Y-75549645D01*
X164040735Y-75560603D01*
X163988158Y-75564363D01*
X163850001Y-75544500D01*
X163850000Y-75544500D01*
X163284174Y-75544500D01*
X163284166Y-75544500D01*
X163153341Y-75561724D01*
X163026170Y-75595800D01*
X162904249Y-75646302D01*
X162904248Y-75646303D01*
X162790250Y-75712120D01*
X162790232Y-75712132D01*
X162685555Y-75792455D01*
X162685545Y-75792464D01*
X162592464Y-75885545D01*
X162592455Y-75885555D01*
X162512132Y-75990232D01*
X162512120Y-75990250D01*
X162446303Y-76104248D01*
X162446302Y-76104249D01*
X162395800Y-76226170D01*
X162361724Y-76353341D01*
X162344500Y-76484166D01*
X162344500Y-76484191D01*
X162344499Y-76484193D01*
X162344235Y-76488224D01*
X162343333Y-76488164D01*
X162324815Y-76551230D01*
X162308181Y-76571872D01*
X161654727Y-77225325D01*
X161654724Y-77225328D01*
X161595030Y-77314667D01*
X161595031Y-77314668D01*
X161583536Y-77331871D01*
X161583533Y-77331877D01*
X161534499Y-77450255D01*
X161534497Y-77450261D01*
X161509500Y-77575928D01*
X161509500Y-79740382D01*
X161489815Y-79807421D01*
X161455408Y-79841099D01*
X161456125Y-79842085D01*
X161280213Y-79969890D01*
X161129890Y-80120213D01*
X161004949Y-80292182D01*
X161000484Y-80300946D01*
X160952509Y-80351742D01*
X160884688Y-80368536D01*
X160818553Y-80345998D01*
X160779516Y-80300946D01*
X160775050Y-80292182D01*
X160650109Y-80120213D01*
X160499786Y-79969890D01*
X160327820Y-79844951D01*
X160138414Y-79748444D01*
X160138413Y-79748443D01*
X160138412Y-79748443D01*
X159936243Y-79682754D01*
X159936241Y-79682753D01*
X159936240Y-79682753D01*
X159774957Y-79657208D01*
X159726287Y-79649500D01*
X159513713Y-79649500D01*
X159465042Y-79657208D01*
X159303760Y-79682753D01*
X159101585Y-79748444D01*
X158912179Y-79844951D01*
X158740213Y-79969890D01*
X158589890Y-80120213D01*
X158464949Y-80292182D01*
X158460484Y-80300946D01*
X158412509Y-80351742D01*
X158344688Y-80368536D01*
X158278553Y-80345998D01*
X158239516Y-80300946D01*
X158235050Y-80292182D01*
X158110109Y-80120213D01*
X157959786Y-79969890D01*
X157787820Y-79844951D01*
X157598414Y-79748444D01*
X157598413Y-79748443D01*
X157598412Y-79748443D01*
X157396243Y-79682754D01*
X157396241Y-79682753D01*
X157396240Y-79682753D01*
X157234957Y-79657208D01*
X157186287Y-79649500D01*
X156973713Y-79649500D01*
X156925042Y-79657208D01*
X156763760Y-79682753D01*
X156561585Y-79748444D01*
X156372179Y-79844951D01*
X156200213Y-79969890D01*
X156200209Y-79969894D01*
X156081923Y-80088181D01*
X156020600Y-80121666D01*
X155994242Y-80124500D01*
X155625758Y-80124500D01*
X155558719Y-80104815D01*
X155538077Y-80088181D01*
X155419786Y-79969890D01*
X155247820Y-79844951D01*
X155058414Y-79748444D01*
X155058413Y-79748443D01*
X155058412Y-79748443D01*
X154856243Y-79682754D01*
X154856241Y-79682753D01*
X154856240Y-79682753D01*
X154694957Y-79657208D01*
X154646287Y-79649500D01*
X154433713Y-79649500D01*
X154385042Y-79657208D01*
X154223760Y-79682753D01*
X154021585Y-79748444D01*
X153832179Y-79844951D01*
X153660215Y-79969889D01*
X153546285Y-80083819D01*
X153484962Y-80117303D01*
X153415270Y-80112319D01*
X153359337Y-80070447D01*
X153342422Y-80039470D01*
X153293354Y-79907913D01*
X153293350Y-79907906D01*
X153207190Y-79792812D01*
X153207187Y-79792809D01*
X153092093Y-79706649D01*
X153092086Y-79706645D01*
X152957379Y-79656403D01*
X152957372Y-79656401D01*
X152897844Y-79650000D01*
X152250000Y-79650000D01*
X152250000Y-80566988D01*
X152192993Y-80534075D01*
X152065826Y-80500000D01*
X151934174Y-80500000D01*
X151807007Y-80534075D01*
X151750000Y-80566988D01*
X151750000Y-79650000D01*
X151102155Y-79650000D01*
X151042627Y-79656401D01*
X151042620Y-79656403D01*
X150907913Y-79706645D01*
X150907906Y-79706649D01*
X150792812Y-79792809D01*
X150792809Y-79792812D01*
X150706649Y-79907906D01*
X150706645Y-79907913D01*
X150656403Y-80042620D01*
X150656401Y-80042627D01*
X150650000Y-80102155D01*
X150650000Y-80750000D01*
X151566988Y-80750000D01*
X151534075Y-80807007D01*
X151500000Y-80934174D01*
X151500000Y-81065826D01*
X151534075Y-81192993D01*
X151566988Y-81250000D01*
X150650000Y-81250000D01*
X150650000Y-81897844D01*
X150656401Y-81957372D01*
X150656403Y-81957379D01*
X150706645Y-82092086D01*
X150706649Y-82092093D01*
X150792809Y-82207187D01*
X150792812Y-82207190D01*
X150907906Y-82293350D01*
X150907913Y-82293354D01*
X151042620Y-82343596D01*
X151042627Y-82343598D01*
X151102155Y-82349999D01*
X151102172Y-82350000D01*
X151750000Y-82350000D01*
X151750000Y-81433012D01*
X151807007Y-81465925D01*
X151934174Y-81500000D01*
X152065826Y-81500000D01*
X152192993Y-81465925D01*
X152250000Y-81433012D01*
X152250000Y-82350000D01*
X152897828Y-82350000D01*
X152897844Y-82349999D01*
X152957372Y-82343598D01*
X152957379Y-82343596D01*
X153092086Y-82293354D01*
X153092093Y-82293350D01*
X153207187Y-82207190D01*
X153207190Y-82207187D01*
X153293350Y-82092093D01*
X153293354Y-82092086D01*
X153342422Y-81960529D01*
X153384293Y-81904595D01*
X153449757Y-81880178D01*
X153518030Y-81895030D01*
X153546285Y-81916181D01*
X153660213Y-82030109D01*
X153832179Y-82155048D01*
X153832181Y-82155049D01*
X153832184Y-82155051D01*
X154021588Y-82251557D01*
X154223757Y-82317246D01*
X154433713Y-82350500D01*
X154433714Y-82350500D01*
X154646286Y-82350500D01*
X154646287Y-82350500D01*
X154856243Y-82317246D01*
X155058412Y-82251557D01*
X155247816Y-82155051D01*
X155334471Y-82092093D01*
X155419786Y-82030109D01*
X155419788Y-82030106D01*
X155419792Y-82030104D01*
X155538077Y-81911819D01*
X155599400Y-81878334D01*
X155625758Y-81875500D01*
X155994242Y-81875500D01*
X156061281Y-81895185D01*
X156081923Y-81911819D01*
X156200213Y-82030109D01*
X156372179Y-82155048D01*
X156372181Y-82155049D01*
X156372184Y-82155051D01*
X156561588Y-82251557D01*
X156763757Y-82317246D01*
X156973713Y-82350500D01*
X157060994Y-82350500D01*
X157128033Y-82370185D01*
X157148675Y-82386819D01*
X158641897Y-83880042D01*
X158641901Y-83880045D01*
X158785288Y-83975854D01*
X158785301Y-83975861D01*
X158944621Y-84041853D01*
X158944626Y-84041855D01*
X159113766Y-84075499D01*
X159113769Y-84075500D01*
X159113771Y-84075500D01*
X159286229Y-84075500D01*
X162385994Y-84075500D01*
X162453033Y-84095185D01*
X162473675Y-84111819D01*
X164088181Y-85726325D01*
X164121666Y-85787648D01*
X164124500Y-85814006D01*
X164124500Y-86459235D01*
X164104815Y-86526274D01*
X164052011Y-86572029D01*
X164043834Y-86575417D01*
X163907669Y-86626203D01*
X163907664Y-86626206D01*
X163792455Y-86712452D01*
X163792452Y-86712455D01*
X163706206Y-86827664D01*
X163706202Y-86827671D01*
X163655908Y-86962517D01*
X163649501Y-87022116D01*
X163649500Y-87022135D01*
X163649500Y-88817870D01*
X163649501Y-88817876D01*
X163655908Y-88877483D01*
X163706202Y-89012328D01*
X163706206Y-89012335D01*
X163792452Y-89127544D01*
X163792455Y-89127547D01*
X163907664Y-89213793D01*
X163907671Y-89213797D01*
X164039082Y-89262810D01*
X164095016Y-89304681D01*
X164119433Y-89370145D01*
X164104582Y-89438418D01*
X164083431Y-89466673D01*
X163969889Y-89580215D01*
X163844951Y-89752179D01*
X163748444Y-89941585D01*
X163682753Y-90143760D01*
X163649500Y-90353713D01*
X163649500Y-90566286D01*
X163682753Y-90776239D01*
X163748444Y-90978414D01*
X163844951Y-91167820D01*
X163969890Y-91339786D01*
X164120213Y-91490109D01*
X164292182Y-91615050D01*
X164300946Y-91619516D01*
X164351742Y-91667491D01*
X164368536Y-91735312D01*
X164345998Y-91801447D01*
X164300946Y-91840484D01*
X164292182Y-91844949D01*
X164120213Y-91969890D01*
X163969890Y-92120213D01*
X163844951Y-92292179D01*
X163748444Y-92481585D01*
X163682753Y-92683760D01*
X163649500Y-92893713D01*
X163649500Y-93106286D01*
X163682753Y-93316239D01*
X163748444Y-93518414D01*
X163844951Y-93707820D01*
X163969890Y-93879786D01*
X164120213Y-94030109D01*
X164292182Y-94155050D01*
X164300946Y-94159516D01*
X164351742Y-94207491D01*
X164368536Y-94275312D01*
X164345998Y-94341447D01*
X164300946Y-94380484D01*
X164292182Y-94384949D01*
X164120213Y-94509890D01*
X163969890Y-94660213D01*
X163844951Y-94832179D01*
X163748444Y-95021585D01*
X163682753Y-95223760D01*
X163649500Y-95433713D01*
X163649500Y-95646286D01*
X163682753Y-95856239D01*
X163748444Y-96058414D01*
X163844951Y-96247820D01*
X163969890Y-96419786D01*
X164120213Y-96570109D01*
X164292182Y-96695050D01*
X164300946Y-96699516D01*
X164351742Y-96747491D01*
X164368536Y-96815312D01*
X164345998Y-96881447D01*
X164300946Y-96920484D01*
X164292182Y-96924949D01*
X164120213Y-97049890D01*
X163969890Y-97200213D01*
X163844951Y-97372179D01*
X163748444Y-97561585D01*
X163682753Y-97763760D01*
X163649500Y-97973713D01*
X163649500Y-98186286D01*
X163682753Y-98396239D01*
X163748444Y-98598414D01*
X163844951Y-98787820D01*
X163969890Y-98959786D01*
X164120213Y-99110109D01*
X164292182Y-99235050D01*
X164300946Y-99239516D01*
X164351742Y-99287491D01*
X164368536Y-99355312D01*
X164345998Y-99421447D01*
X164300946Y-99460484D01*
X164292182Y-99464949D01*
X164120213Y-99589890D01*
X163969890Y-99740213D01*
X163844951Y-99912179D01*
X163748444Y-100101585D01*
X163682753Y-100303760D01*
X163649500Y-100513713D01*
X163649500Y-100726286D01*
X163682753Y-100936239D01*
X163748444Y-101138414D01*
X163844951Y-101327820D01*
X163969890Y-101499786D01*
X164120213Y-101650109D01*
X164292182Y-101775050D01*
X164300946Y-101779516D01*
X164351742Y-101827491D01*
X164368536Y-101895312D01*
X164345998Y-101961447D01*
X164300946Y-102000484D01*
X164292182Y-102004949D01*
X164120213Y-102129890D01*
X163969890Y-102280213D01*
X163844951Y-102452179D01*
X163748444Y-102641585D01*
X163682753Y-102843760D01*
X163649500Y-103053713D01*
X163649500Y-103266286D01*
X163682753Y-103476239D01*
X163748444Y-103678414D01*
X163844951Y-103867820D01*
X163969890Y-104039786D01*
X164120213Y-104190109D01*
X164292179Y-104315048D01*
X164292181Y-104315049D01*
X164292184Y-104315051D01*
X164301493Y-104319794D01*
X164352290Y-104367766D01*
X164369087Y-104435587D01*
X164346552Y-104501722D01*
X164301505Y-104540760D01*
X164292446Y-104545376D01*
X164292440Y-104545380D01*
X164238282Y-104584727D01*
X164238282Y-104584728D01*
X164870591Y-105217037D01*
X164807007Y-105234075D01*
X164692993Y-105299901D01*
X164599901Y-105392993D01*
X164534075Y-105507007D01*
X164517037Y-105570591D01*
X163884728Y-104938282D01*
X163884727Y-104938282D01*
X163845380Y-104992439D01*
X163748904Y-105181782D01*
X163683242Y-105383869D01*
X163683242Y-105383872D01*
X163650000Y-105593753D01*
X163650000Y-105806246D01*
X163683242Y-106016127D01*
X163683242Y-106016130D01*
X163748904Y-106218217D01*
X163845375Y-106407550D01*
X163884728Y-106461716D01*
X164517037Y-105829408D01*
X164534075Y-105892993D01*
X164599901Y-106007007D01*
X164692993Y-106100099D01*
X164807007Y-106165925D01*
X164870590Y-106182962D01*
X164238282Y-106815269D01*
X164238282Y-106815270D01*
X164292449Y-106854624D01*
X164481782Y-106951095D01*
X164683870Y-107016757D01*
X164893754Y-107050000D01*
X165106246Y-107050000D01*
X165316127Y-107016757D01*
X165316130Y-107016757D01*
X165518217Y-106951095D01*
X165707554Y-106854622D01*
X165761716Y-106815270D01*
X165761717Y-106815270D01*
X165129408Y-106182962D01*
X165192993Y-106165925D01*
X165307007Y-106100099D01*
X165400099Y-106007007D01*
X165465925Y-105892993D01*
X165482962Y-105829408D01*
X166115270Y-106461717D01*
X166115270Y-106461716D01*
X166154622Y-106407554D01*
X166251095Y-106218217D01*
X166316757Y-106016130D01*
X166316757Y-106016127D01*
X166350000Y-105806246D01*
X166350000Y-105593753D01*
X166316757Y-105383872D01*
X166316757Y-105383869D01*
X166251095Y-105181782D01*
X166154624Y-104992449D01*
X166115270Y-104938282D01*
X166115269Y-104938282D01*
X165482962Y-105570590D01*
X165465925Y-105507007D01*
X165400099Y-105392993D01*
X165307007Y-105299901D01*
X165192993Y-105234075D01*
X165129409Y-105217037D01*
X165761716Y-104584728D01*
X165707547Y-104545373D01*
X165707547Y-104545372D01*
X165698500Y-104540763D01*
X165647706Y-104492788D01*
X165630912Y-104424966D01*
X165653451Y-104358832D01*
X165698508Y-104319793D01*
X165707816Y-104315051D01*
X165787007Y-104257515D01*
X165879786Y-104190109D01*
X165879788Y-104190106D01*
X165879792Y-104190104D01*
X166030104Y-104039792D01*
X166030106Y-104039788D01*
X166030109Y-104039786D01*
X166155048Y-103867820D01*
X166155047Y-103867820D01*
X166155051Y-103867816D01*
X166251557Y-103678412D01*
X166317246Y-103476243D01*
X166350500Y-103266287D01*
X166350500Y-103053713D01*
X166317246Y-102843757D01*
X166251557Y-102641588D01*
X166155051Y-102452184D01*
X166155049Y-102452181D01*
X166155048Y-102452179D01*
X166030109Y-102280213D01*
X165879786Y-102129890D01*
X165707820Y-102004951D01*
X165707115Y-102004591D01*
X165699054Y-102000485D01*
X165648259Y-101952512D01*
X165631463Y-101884692D01*
X165653999Y-101818556D01*
X165699054Y-101779515D01*
X165707816Y-101775051D01*
X165729789Y-101759086D01*
X165879786Y-101650109D01*
X165879788Y-101650106D01*
X165879792Y-101650104D01*
X166030104Y-101499792D01*
X166030106Y-101499788D01*
X166030109Y-101499786D01*
X166155048Y-101327820D01*
X166155047Y-101327820D01*
X166155051Y-101327816D01*
X166251557Y-101138412D01*
X166317246Y-100936243D01*
X166350500Y-100726287D01*
X166350500Y-100513713D01*
X166317246Y-100303757D01*
X166251557Y-100101588D01*
X166155051Y-99912184D01*
X166155049Y-99912181D01*
X166155048Y-99912179D01*
X166030109Y-99740213D01*
X165879786Y-99589890D01*
X165707820Y-99464951D01*
X165707115Y-99464591D01*
X165699054Y-99460485D01*
X165648259Y-99412512D01*
X165631463Y-99344692D01*
X165653999Y-99278556D01*
X165699054Y-99239515D01*
X165707816Y-99235051D01*
X165729789Y-99219086D01*
X165879786Y-99110109D01*
X165879788Y-99110106D01*
X165879792Y-99110104D01*
X166030104Y-98959792D01*
X166030106Y-98959788D01*
X166030109Y-98959786D01*
X166155048Y-98787820D01*
X166155047Y-98787820D01*
X166155051Y-98787816D01*
X166251557Y-98598412D01*
X166317246Y-98396243D01*
X166350500Y-98186287D01*
X166350500Y-97973713D01*
X166317246Y-97763757D01*
X166251557Y-97561588D01*
X166155051Y-97372184D01*
X166155049Y-97372181D01*
X166155048Y-97372179D01*
X166030109Y-97200213D01*
X165879786Y-97049890D01*
X165707820Y-96924951D01*
X165707115Y-96924591D01*
X165699054Y-96920485D01*
X165648259Y-96872512D01*
X165631463Y-96804692D01*
X165653999Y-96738556D01*
X165699054Y-96699515D01*
X165707816Y-96695051D01*
X165729789Y-96679086D01*
X165879786Y-96570109D01*
X165879788Y-96570106D01*
X165879792Y-96570104D01*
X166030104Y-96419792D01*
X166030106Y-96419788D01*
X166030109Y-96419786D01*
X166155048Y-96247820D01*
X166155047Y-96247820D01*
X166155051Y-96247816D01*
X166251557Y-96058412D01*
X166317246Y-95856243D01*
X166350500Y-95646287D01*
X166350500Y-95433713D01*
X166317246Y-95223757D01*
X166251557Y-95021588D01*
X166155051Y-94832184D01*
X166155049Y-94832181D01*
X166155048Y-94832179D01*
X166030109Y-94660213D01*
X165879786Y-94509890D01*
X165707820Y-94384951D01*
X165707115Y-94384591D01*
X165699054Y-94380485D01*
X165648259Y-94332512D01*
X165631463Y-94264692D01*
X165653999Y-94198556D01*
X165699054Y-94159515D01*
X165707816Y-94155051D01*
X165729789Y-94139086D01*
X165879786Y-94030109D01*
X165879788Y-94030106D01*
X165879792Y-94030104D01*
X166030104Y-93879792D01*
X166030106Y-93879788D01*
X166030109Y-93879786D01*
X166155048Y-93707820D01*
X166155047Y-93707820D01*
X166155051Y-93707816D01*
X166251557Y-93518412D01*
X166317246Y-93316243D01*
X166350500Y-93106287D01*
X166350500Y-92893713D01*
X166316484Y-92678945D01*
X166318126Y-92678684D01*
X166321254Y-92616137D01*
X166350657Y-92569288D01*
X166508984Y-92410961D01*
X166587820Y-92332125D01*
X166649142Y-92298641D01*
X166718834Y-92303625D01*
X166774767Y-92345497D01*
X166799184Y-92410961D01*
X166799500Y-92419807D01*
X166799500Y-107575500D01*
X166779815Y-107642539D01*
X166727011Y-107688294D01*
X166675500Y-107699500D01*
X162024500Y-107699500D01*
X161957461Y-107679815D01*
X161911706Y-107627011D01*
X161900500Y-107575500D01*
X161900500Y-87527229D01*
X161904695Y-87488790D01*
X161900500Y-87461606D01*
X161900500Y-87434108D01*
X161892238Y-87403272D01*
X161892238Y-87403271D01*
X161890492Y-87396756D01*
X161884596Y-87358548D01*
X161873510Y-87333381D01*
X161866392Y-87306814D01*
X161850430Y-87279167D01*
X161850430Y-87279168D01*
X161847057Y-87273325D01*
X161831473Y-87237945D01*
X161814251Y-87216504D01*
X161800500Y-87192686D01*
X161777933Y-87170119D01*
X161768939Y-87160091D01*
X161748946Y-87135200D01*
X161734432Y-87124567D01*
X161734431Y-87124566D01*
X161726759Y-87118945D01*
X161707314Y-87099500D01*
X161673832Y-87080168D01*
X161668382Y-87076176D01*
X161668381Y-87076175D01*
X161642642Y-87057318D01*
X161642635Y-87057315D01*
X161625868Y-87050802D01*
X161608764Y-87042602D01*
X161593187Y-87033608D01*
X161593184Y-87033607D01*
X161562343Y-87025343D01*
X161549541Y-87021155D01*
X161398579Y-86962517D01*
X158216043Y-85726325D01*
X149879603Y-82488203D01*
X149824239Y-82445581D01*
X149800708Y-82379793D01*
X149800500Y-82372617D01*
X149800500Y-59724500D01*
X149820185Y-59657461D01*
X149872989Y-59611706D01*
X149924500Y-59600500D01*
X150689053Y-59600500D01*
X150756092Y-59620185D01*
G37*
%TD.AperFunction*%
%TA.AperFunction,Conductor*%
G36*
X153863586Y-59620185D02*
G01*
X153909341Y-59672989D01*
X153919285Y-59742147D01*
X153890260Y-59805703D01*
X153852843Y-59834984D01*
X153832443Y-59845378D01*
X153832440Y-59845380D01*
X153778282Y-59884727D01*
X153778282Y-59884728D01*
X154410591Y-60517037D01*
X154347007Y-60534075D01*
X154232993Y-60599901D01*
X154139901Y-60692993D01*
X154074075Y-60807007D01*
X154057037Y-60870591D01*
X153387642Y-60201196D01*
X153354157Y-60139873D01*
X153355077Y-60125166D01*
X153352501Y-60125444D01*
X153343596Y-60042619D01*
X153293354Y-59907913D01*
X153293350Y-59907906D01*
X153211681Y-59798811D01*
X153187263Y-59733347D01*
X153202114Y-59665074D01*
X153251519Y-59615668D01*
X153310947Y-59600500D01*
X153796547Y-59600500D01*
X153863586Y-59620185D01*
G37*
%TD.AperFunction*%
%TA.AperFunction,Conductor*%
G36*
X156402484Y-59620185D02*
G01*
X156448239Y-59672989D01*
X156458183Y-59742147D01*
X156429158Y-59805703D01*
X156391739Y-59834985D01*
X156372182Y-59844949D01*
X156200213Y-59969890D01*
X156049890Y-60120213D01*
X155924949Y-60292182D01*
X155920202Y-60301499D01*
X155872227Y-60352293D01*
X155804405Y-60369087D01*
X155738271Y-60346548D01*
X155699234Y-60301495D01*
X155694626Y-60292452D01*
X155655270Y-60238282D01*
X155655269Y-60238282D01*
X155022962Y-60870590D01*
X155005925Y-60807007D01*
X154940099Y-60692993D01*
X154847007Y-60599901D01*
X154732993Y-60534075D01*
X154669409Y-60517037D01*
X155301716Y-59884728D01*
X155247547Y-59845373D01*
X155247548Y-59845373D01*
X155227159Y-59834985D01*
X155176362Y-59787011D01*
X155159567Y-59719190D01*
X155182104Y-59653055D01*
X155236819Y-59609603D01*
X155283453Y-59600500D01*
X156335445Y-59600500D01*
X156402484Y-59620185D01*
G37*
%TD.AperFunction*%
%TD*%
M02*
