%TF.GenerationSoftware,KiCad,Pcbnew,9.0.5*%
%TF.CreationDate,2025-10-30T17:33:36+01:00*%
%TF.ProjectId,SommerESP-ETHmodule,536f6d6d-6572-4455-9350-2d4554486d6f,rev?*%
%TF.SameCoordinates,Original*%
%TF.FileFunction,Legend,Bot*%
%TF.FilePolarity,Positive*%
%FSLAX46Y46*%
G04 Gerber Fmt 4.6, Leading zero omitted, Abs format (unit mm)*
G04 Created by KiCad (PCBNEW 9.0.5) date 2025-10-30 17:33:36*
%MOMM*%
%LPD*%
G01*
G04 APERTURE LIST*
%ADD10C,0.150000*%
%ADD11C,0.100000*%
%ADD12C,0.120000*%
G04 APERTURE END LIST*
D10*
X163363220Y-63646009D02*
X163029887Y-63646009D01*
X162887030Y-64169819D02*
X163363220Y-64169819D01*
X163363220Y-64169819D02*
X163363220Y-63169819D01*
X163363220Y-63169819D02*
X162887030Y-63169819D01*
X162601315Y-63169819D02*
X162029887Y-63169819D01*
X162315601Y-64169819D02*
X162315601Y-63169819D01*
X161696553Y-64169819D02*
X161696553Y-63169819D01*
X161696553Y-63646009D02*
X161125125Y-63646009D01*
X161125125Y-64169819D02*
X161125125Y-63169819D01*
X160029886Y-63503152D02*
X159648934Y-63503152D01*
X159887029Y-63169819D02*
X159887029Y-64026961D01*
X159887029Y-64026961D02*
X159839410Y-64122200D01*
X159839410Y-64122200D02*
X159744172Y-64169819D01*
X159744172Y-64169819D02*
X159648934Y-64169819D01*
X159315600Y-64169819D02*
X159315600Y-63169819D01*
X158887029Y-64169819D02*
X158887029Y-63646009D01*
X158887029Y-63646009D02*
X158934648Y-63550771D01*
X158934648Y-63550771D02*
X159029886Y-63503152D01*
X159029886Y-63503152D02*
X159172743Y-63503152D01*
X159172743Y-63503152D02*
X159267981Y-63550771D01*
X159267981Y-63550771D02*
X159315600Y-63598390D01*
X158410838Y-64169819D02*
X158410838Y-63503152D01*
X158410838Y-63169819D02*
X158458457Y-63217438D01*
X158458457Y-63217438D02*
X158410838Y-63265057D01*
X158410838Y-63265057D02*
X158363219Y-63217438D01*
X158363219Y-63217438D02*
X158410838Y-63169819D01*
X158410838Y-63169819D02*
X158410838Y-63265057D01*
X157982267Y-64122200D02*
X157887029Y-64169819D01*
X157887029Y-64169819D02*
X157696553Y-64169819D01*
X157696553Y-64169819D02*
X157601315Y-64122200D01*
X157601315Y-64122200D02*
X157553696Y-64026961D01*
X157553696Y-64026961D02*
X157553696Y-63979342D01*
X157553696Y-63979342D02*
X157601315Y-63884104D01*
X157601315Y-63884104D02*
X157696553Y-63836485D01*
X157696553Y-63836485D02*
X157839410Y-63836485D01*
X157839410Y-63836485D02*
X157934648Y-63788866D01*
X157934648Y-63788866D02*
X157982267Y-63693628D01*
X157982267Y-63693628D02*
X157982267Y-63646009D01*
X157982267Y-63646009D02*
X157934648Y-63550771D01*
X157934648Y-63550771D02*
X157839410Y-63503152D01*
X157839410Y-63503152D02*
X157696553Y-63503152D01*
X157696553Y-63503152D02*
X157601315Y-63550771D01*
X156458457Y-63503152D02*
X156267981Y-64169819D01*
X156267981Y-64169819D02*
X156077505Y-63693628D01*
X156077505Y-63693628D02*
X155887029Y-64169819D01*
X155887029Y-64169819D02*
X155696553Y-63503152D01*
X154887029Y-64169819D02*
X154887029Y-63646009D01*
X154887029Y-63646009D02*
X154934648Y-63550771D01*
X154934648Y-63550771D02*
X155029886Y-63503152D01*
X155029886Y-63503152D02*
X155220362Y-63503152D01*
X155220362Y-63503152D02*
X155315600Y-63550771D01*
X154887029Y-64122200D02*
X154982267Y-64169819D01*
X154982267Y-64169819D02*
X155220362Y-64169819D01*
X155220362Y-64169819D02*
X155315600Y-64122200D01*
X155315600Y-64122200D02*
X155363219Y-64026961D01*
X155363219Y-64026961D02*
X155363219Y-63931723D01*
X155363219Y-63931723D02*
X155315600Y-63836485D01*
X155315600Y-63836485D02*
X155220362Y-63788866D01*
X155220362Y-63788866D02*
X154982267Y-63788866D01*
X154982267Y-63788866D02*
X154887029Y-63741247D01*
X154506076Y-63503152D02*
X154267981Y-64169819D01*
X154029886Y-63503152D02*
X154267981Y-64169819D01*
X154267981Y-64169819D02*
X154363219Y-64407914D01*
X154363219Y-64407914D02*
X154410838Y-64455533D01*
X154410838Y-64455533D02*
X154506076Y-64503152D01*
X152887028Y-63788866D02*
X152125124Y-63788866D01*
X151648933Y-63503152D02*
X150887029Y-63788866D01*
X150887029Y-63788866D02*
X151648933Y-64074580D01*
D11*
X160421428Y-76302699D02*
X160314285Y-76338413D01*
X160314285Y-76338413D02*
X160278571Y-76374127D01*
X160278571Y-76374127D02*
X160242857Y-76445556D01*
X160242857Y-76445556D02*
X160242857Y-76552699D01*
X160242857Y-76552699D02*
X160278571Y-76624127D01*
X160278571Y-76624127D02*
X160314285Y-76659842D01*
X160314285Y-76659842D02*
X160385714Y-76695556D01*
X160385714Y-76695556D02*
X160671428Y-76695556D01*
X160671428Y-76695556D02*
X160671428Y-75945556D01*
X160671428Y-75945556D02*
X160421428Y-75945556D01*
X160421428Y-75945556D02*
X160350000Y-75981270D01*
X160350000Y-75981270D02*
X160314285Y-76016984D01*
X160314285Y-76016984D02*
X160278571Y-76088413D01*
X160278571Y-76088413D02*
X160278571Y-76159842D01*
X160278571Y-76159842D02*
X160314285Y-76231270D01*
X160314285Y-76231270D02*
X160350000Y-76266984D01*
X160350000Y-76266984D02*
X160421428Y-76302699D01*
X160421428Y-76302699D02*
X160671428Y-76302699D01*
X159921428Y-76695556D02*
X159921428Y-76195556D01*
X159921428Y-76338413D02*
X159885714Y-76266984D01*
X159885714Y-76266984D02*
X159850000Y-76231270D01*
X159850000Y-76231270D02*
X159778571Y-76195556D01*
X159778571Y-76195556D02*
X159707142Y-76195556D01*
X159457142Y-76695556D02*
X159457142Y-76195556D01*
X159457142Y-75945556D02*
X159492856Y-75981270D01*
X159492856Y-75981270D02*
X159457142Y-76016984D01*
X159457142Y-76016984D02*
X159421428Y-75981270D01*
X159421428Y-75981270D02*
X159457142Y-75945556D01*
X159457142Y-75945556D02*
X159457142Y-76016984D01*
X158778571Y-76695556D02*
X158778571Y-75945556D01*
X158778571Y-76659842D02*
X158849999Y-76695556D01*
X158849999Y-76695556D02*
X158992856Y-76695556D01*
X158992856Y-76695556D02*
X159064285Y-76659842D01*
X159064285Y-76659842D02*
X159099999Y-76624127D01*
X159099999Y-76624127D02*
X159135713Y-76552699D01*
X159135713Y-76552699D02*
X159135713Y-76338413D01*
X159135713Y-76338413D02*
X159099999Y-76266984D01*
X159099999Y-76266984D02*
X159064285Y-76231270D01*
X159064285Y-76231270D02*
X158992856Y-76195556D01*
X158992856Y-76195556D02*
X158849999Y-76195556D01*
X158849999Y-76195556D02*
X158778571Y-76231270D01*
X158100000Y-76195556D02*
X158100000Y-76802699D01*
X158100000Y-76802699D02*
X158135714Y-76874127D01*
X158135714Y-76874127D02*
X158171428Y-76909842D01*
X158171428Y-76909842D02*
X158242857Y-76945556D01*
X158242857Y-76945556D02*
X158350000Y-76945556D01*
X158350000Y-76945556D02*
X158421428Y-76909842D01*
X158100000Y-76659842D02*
X158171428Y-76695556D01*
X158171428Y-76695556D02*
X158314285Y-76695556D01*
X158314285Y-76695556D02*
X158385714Y-76659842D01*
X158385714Y-76659842D02*
X158421428Y-76624127D01*
X158421428Y-76624127D02*
X158457142Y-76552699D01*
X158457142Y-76552699D02*
X158457142Y-76338413D01*
X158457142Y-76338413D02*
X158421428Y-76266984D01*
X158421428Y-76266984D02*
X158385714Y-76231270D01*
X158385714Y-76231270D02*
X158314285Y-76195556D01*
X158314285Y-76195556D02*
X158171428Y-76195556D01*
X158171428Y-76195556D02*
X158100000Y-76231270D01*
X157457143Y-76659842D02*
X157528571Y-76695556D01*
X157528571Y-76695556D02*
X157671429Y-76695556D01*
X157671429Y-76695556D02*
X157742857Y-76659842D01*
X157742857Y-76659842D02*
X157778571Y-76588413D01*
X157778571Y-76588413D02*
X157778571Y-76302699D01*
X157778571Y-76302699D02*
X157742857Y-76231270D01*
X157742857Y-76231270D02*
X157671429Y-76195556D01*
X157671429Y-76195556D02*
X157528571Y-76195556D01*
X157528571Y-76195556D02*
X157457143Y-76231270D01*
X157457143Y-76231270D02*
X157421429Y-76302699D01*
X157421429Y-76302699D02*
X157421429Y-76374127D01*
X157421429Y-76374127D02*
X157778571Y-76445556D01*
X156528571Y-76695556D02*
X156528571Y-76195556D01*
X156528571Y-75945556D02*
X156564285Y-75981270D01*
X156564285Y-75981270D02*
X156528571Y-76016984D01*
X156528571Y-76016984D02*
X156492857Y-75981270D01*
X156492857Y-75981270D02*
X156528571Y-75945556D01*
X156528571Y-75945556D02*
X156528571Y-76016984D01*
X156278571Y-76195556D02*
X155992857Y-76195556D01*
X156171428Y-76695556D02*
X156171428Y-76052699D01*
X156171428Y-76052699D02*
X156135714Y-75981270D01*
X156135714Y-75981270D02*
X156064285Y-75945556D01*
X156064285Y-75945556D02*
X155992857Y-75945556D01*
X161546428Y-77903014D02*
X161796428Y-77545871D01*
X161974999Y-77903014D02*
X161974999Y-77153014D01*
X161974999Y-77153014D02*
X161689285Y-77153014D01*
X161689285Y-77153014D02*
X161617856Y-77188728D01*
X161617856Y-77188728D02*
X161582142Y-77224442D01*
X161582142Y-77224442D02*
X161546428Y-77295871D01*
X161546428Y-77295871D02*
X161546428Y-77403014D01*
X161546428Y-77403014D02*
X161582142Y-77474442D01*
X161582142Y-77474442D02*
X161617856Y-77510157D01*
X161617856Y-77510157D02*
X161689285Y-77545871D01*
X161689285Y-77545871D02*
X161974999Y-77545871D01*
X161260713Y-77867300D02*
X161153571Y-77903014D01*
X161153571Y-77903014D02*
X160974999Y-77903014D01*
X160974999Y-77903014D02*
X160903571Y-77867300D01*
X160903571Y-77867300D02*
X160867856Y-77831585D01*
X160867856Y-77831585D02*
X160832142Y-77760157D01*
X160832142Y-77760157D02*
X160832142Y-77688728D01*
X160832142Y-77688728D02*
X160867856Y-77617300D01*
X160867856Y-77617300D02*
X160903571Y-77581585D01*
X160903571Y-77581585D02*
X160974999Y-77545871D01*
X160974999Y-77545871D02*
X161117856Y-77510157D01*
X161117856Y-77510157D02*
X161189285Y-77474442D01*
X161189285Y-77474442D02*
X161224999Y-77438728D01*
X161224999Y-77438728D02*
X161260713Y-77367300D01*
X161260713Y-77367300D02*
X161260713Y-77295871D01*
X161260713Y-77295871D02*
X161224999Y-77224442D01*
X161224999Y-77224442D02*
X161189285Y-77188728D01*
X161189285Y-77188728D02*
X161117856Y-77153014D01*
X161117856Y-77153014D02*
X160939285Y-77153014D01*
X160939285Y-77153014D02*
X160832142Y-77188728D01*
X160617856Y-77153014D02*
X160189285Y-77153014D01*
X160403570Y-77903014D02*
X160403570Y-77153014D01*
X159367855Y-77903014D02*
X159367855Y-77403014D01*
X159367855Y-77153014D02*
X159403569Y-77188728D01*
X159403569Y-77188728D02*
X159367855Y-77224442D01*
X159367855Y-77224442D02*
X159332141Y-77188728D01*
X159332141Y-77188728D02*
X159367855Y-77153014D01*
X159367855Y-77153014D02*
X159367855Y-77224442D01*
X159046426Y-77867300D02*
X158974998Y-77903014D01*
X158974998Y-77903014D02*
X158832141Y-77903014D01*
X158832141Y-77903014D02*
X158760712Y-77867300D01*
X158760712Y-77867300D02*
X158724998Y-77795871D01*
X158724998Y-77795871D02*
X158724998Y-77760157D01*
X158724998Y-77760157D02*
X158760712Y-77688728D01*
X158760712Y-77688728D02*
X158832141Y-77653014D01*
X158832141Y-77653014D02*
X158939284Y-77653014D01*
X158939284Y-77653014D02*
X159010712Y-77617300D01*
X159010712Y-77617300D02*
X159046426Y-77545871D01*
X159046426Y-77545871D02*
X159046426Y-77510157D01*
X159046426Y-77510157D02*
X159010712Y-77438728D01*
X159010712Y-77438728D02*
X158939284Y-77403014D01*
X158939284Y-77403014D02*
X158832141Y-77403014D01*
X158832141Y-77403014D02*
X158760712Y-77438728D01*
X157832140Y-77403014D02*
X157832140Y-77903014D01*
X157832140Y-77474442D02*
X157796426Y-77438728D01*
X157796426Y-77438728D02*
X157724997Y-77403014D01*
X157724997Y-77403014D02*
X157617854Y-77403014D01*
X157617854Y-77403014D02*
X157546426Y-77438728D01*
X157546426Y-77438728D02*
X157510712Y-77510157D01*
X157510712Y-77510157D02*
X157510712Y-77903014D01*
X156867855Y-77867300D02*
X156939283Y-77903014D01*
X156939283Y-77903014D02*
X157082141Y-77903014D01*
X157082141Y-77903014D02*
X157153569Y-77867300D01*
X157153569Y-77867300D02*
X157189283Y-77795871D01*
X157189283Y-77795871D02*
X157189283Y-77510157D01*
X157189283Y-77510157D02*
X157153569Y-77438728D01*
X157153569Y-77438728D02*
X157082141Y-77403014D01*
X157082141Y-77403014D02*
X156939283Y-77403014D01*
X156939283Y-77403014D02*
X156867855Y-77438728D01*
X156867855Y-77438728D02*
X156832141Y-77510157D01*
X156832141Y-77510157D02*
X156832141Y-77581585D01*
X156832141Y-77581585D02*
X157189283Y-77653014D01*
X156224998Y-77867300D02*
X156296426Y-77903014D01*
X156296426Y-77903014D02*
X156439284Y-77903014D01*
X156439284Y-77903014D02*
X156510712Y-77867300D01*
X156510712Y-77867300D02*
X156546426Y-77795871D01*
X156546426Y-77795871D02*
X156546426Y-77510157D01*
X156546426Y-77510157D02*
X156510712Y-77438728D01*
X156510712Y-77438728D02*
X156439284Y-77403014D01*
X156439284Y-77403014D02*
X156296426Y-77403014D01*
X156296426Y-77403014D02*
X156224998Y-77438728D01*
X156224998Y-77438728D02*
X156189284Y-77510157D01*
X156189284Y-77510157D02*
X156189284Y-77581585D01*
X156189284Y-77581585D02*
X156546426Y-77653014D01*
X155546427Y-77903014D02*
X155546427Y-77153014D01*
X155546427Y-77867300D02*
X155617855Y-77903014D01*
X155617855Y-77903014D02*
X155760712Y-77903014D01*
X155760712Y-77903014D02*
X155832141Y-77867300D01*
X155832141Y-77867300D02*
X155867855Y-77831585D01*
X155867855Y-77831585D02*
X155903569Y-77760157D01*
X155903569Y-77760157D02*
X155903569Y-77545871D01*
X155903569Y-77545871D02*
X155867855Y-77474442D01*
X155867855Y-77474442D02*
X155832141Y-77438728D01*
X155832141Y-77438728D02*
X155760712Y-77403014D01*
X155760712Y-77403014D02*
X155617855Y-77403014D01*
X155617855Y-77403014D02*
X155546427Y-77438728D01*
X154903570Y-77867300D02*
X154974998Y-77903014D01*
X154974998Y-77903014D02*
X155117856Y-77903014D01*
X155117856Y-77903014D02*
X155189284Y-77867300D01*
X155189284Y-77867300D02*
X155224998Y-77795871D01*
X155224998Y-77795871D02*
X155224998Y-77510157D01*
X155224998Y-77510157D02*
X155189284Y-77438728D01*
X155189284Y-77438728D02*
X155117856Y-77403014D01*
X155117856Y-77403014D02*
X154974998Y-77403014D01*
X154974998Y-77403014D02*
X154903570Y-77438728D01*
X154903570Y-77438728D02*
X154867856Y-77510157D01*
X154867856Y-77510157D02*
X154867856Y-77581585D01*
X154867856Y-77581585D02*
X155224998Y-77653014D01*
X154224999Y-77903014D02*
X154224999Y-77153014D01*
X154224999Y-77867300D02*
X154296427Y-77903014D01*
X154296427Y-77903014D02*
X154439284Y-77903014D01*
X154439284Y-77903014D02*
X154510713Y-77867300D01*
X154510713Y-77867300D02*
X154546427Y-77831585D01*
X154546427Y-77831585D02*
X154582141Y-77760157D01*
X154582141Y-77760157D02*
X154582141Y-77545871D01*
X154582141Y-77545871D02*
X154546427Y-77474442D01*
X154546427Y-77474442D02*
X154510713Y-77438728D01*
X154510713Y-77438728D02*
X154439284Y-77403014D01*
X154439284Y-77403014D02*
X154296427Y-77403014D01*
X154296427Y-77403014D02*
X154224999Y-77438728D01*
D10*
X165333333Y-84604819D02*
X165333333Y-85319104D01*
X165333333Y-85319104D02*
X165380952Y-85461961D01*
X165380952Y-85461961D02*
X165476190Y-85557200D01*
X165476190Y-85557200D02*
X165619047Y-85604819D01*
X165619047Y-85604819D02*
X165714285Y-85604819D01*
X164333333Y-85604819D02*
X164904761Y-85604819D01*
X164619047Y-85604819D02*
X164619047Y-84604819D01*
X164619047Y-84604819D02*
X164714285Y-84747676D01*
X164714285Y-84747676D02*
X164809523Y-84842914D01*
X164809523Y-84842914D02*
X164904761Y-84890533D01*
X148684819Y-80666666D02*
X149399104Y-80666666D01*
X149399104Y-80666666D02*
X149541961Y-80619047D01*
X149541961Y-80619047D02*
X149637200Y-80523809D01*
X149637200Y-80523809D02*
X149684819Y-80380952D01*
X149684819Y-80380952D02*
X149684819Y-80285714D01*
X148780057Y-81095238D02*
X148732438Y-81142857D01*
X148732438Y-81142857D02*
X148684819Y-81238095D01*
X148684819Y-81238095D02*
X148684819Y-81476190D01*
X148684819Y-81476190D02*
X148732438Y-81571428D01*
X148732438Y-81571428D02*
X148780057Y-81619047D01*
X148780057Y-81619047D02*
X148875295Y-81666666D01*
X148875295Y-81666666D02*
X148970533Y-81666666D01*
X148970533Y-81666666D02*
X149113390Y-81619047D01*
X149113390Y-81619047D02*
X149684819Y-81047619D01*
X149684819Y-81047619D02*
X149684819Y-81666666D01*
X148684819Y-60666666D02*
X149399104Y-60666666D01*
X149399104Y-60666666D02*
X149541961Y-60619047D01*
X149541961Y-60619047D02*
X149637200Y-60523809D01*
X149637200Y-60523809D02*
X149684819Y-60380952D01*
X149684819Y-60380952D02*
X149684819Y-60285714D01*
X148684819Y-61047619D02*
X148684819Y-61666666D01*
X148684819Y-61666666D02*
X149065771Y-61333333D01*
X149065771Y-61333333D02*
X149065771Y-61476190D01*
X149065771Y-61476190D02*
X149113390Y-61571428D01*
X149113390Y-61571428D02*
X149161009Y-61619047D01*
X149161009Y-61619047D02*
X149256247Y-61666666D01*
X149256247Y-61666666D02*
X149494342Y-61666666D01*
X149494342Y-61666666D02*
X149589580Y-61619047D01*
X149589580Y-61619047D02*
X149637200Y-61571428D01*
X149637200Y-61571428D02*
X149684819Y-61476190D01*
X149684819Y-61476190D02*
X149684819Y-61190476D01*
X149684819Y-61190476D02*
X149637200Y-61095238D01*
X149637200Y-61095238D02*
X149589580Y-61047619D01*
D12*
%TO.C,J1*%
X163670000Y-86590000D02*
X163670000Y-87920000D01*
X163670000Y-89190000D02*
X163670000Y-107030000D01*
X165000000Y-86590000D02*
X163670000Y-86590000D01*
X166330000Y-89190000D02*
X163670000Y-89190000D01*
X166330000Y-89190000D02*
X166330000Y-107030000D01*
X166330000Y-107030000D02*
X163670000Y-107030000D01*
%TO.C,J2*%
X150670000Y-81000000D02*
X150670000Y-82330000D01*
X150670000Y-82330000D02*
X152000000Y-82330000D01*
X153270000Y-79670000D02*
X153270000Y-82330000D01*
X153270000Y-79670000D02*
X166030000Y-79670000D01*
X153270000Y-82330000D02*
X166030000Y-82330000D01*
X166030000Y-79670000D02*
X166030000Y-82330000D01*
%TO.C,J3*%
X150670000Y-61000000D02*
X150670000Y-62330000D01*
X150670000Y-62330000D02*
X152000000Y-62330000D01*
X153270000Y-59670000D02*
X153270000Y-62330000D01*
X153270000Y-59670000D02*
X166030000Y-59670000D01*
X153270000Y-62330000D02*
X166030000Y-62330000D01*
X166030000Y-59670000D02*
X166030000Y-62330000D01*
%TO.C,JP1*%
X162600000Y-76500000D02*
X162600000Y-77100000D01*
X163300000Y-77800000D02*
X164700000Y-77800000D01*
X164700000Y-75800000D02*
X163300000Y-75800000D01*
X165400000Y-77100000D02*
X165400000Y-76500000D01*
X162600000Y-76500000D02*
G75*
G02*
X163300000Y-75800000I699999J1D01*
G01*
X163300000Y-77800000D02*
G75*
G02*
X162600000Y-77100000I-1J699999D01*
G01*
X164700000Y-75800000D02*
G75*
G02*
X165400000Y-76500000I0J-700000D01*
G01*
X165400000Y-77100000D02*
G75*
G02*
X164700000Y-77800000I-700000J0D01*
G01*
%TD*%
M02*
