M48
; DRILL file {KiCad 9.0.5} date 2025-10-30T17:33:32+0100
; FORMAT={-:-/ absolute / inch / decimal}
; #@! TF.CreationDate,2025-10-30T17:33:32+01:00
; #@! TF.GenerationSoftware,Kicad,Pcbnew,9.0.5
; #@! TF.FileFunction,Plated,1,2,PTH
FMAT,2
INCH
; #@! TA.AperFunction,Plated,PTH,ViaDrill
T1C0.0118
; #@! TA.AperFunction,Plated,PTH,ComponentDrill
T2C0.0394
%
G90
G05
T1
X6.4882Y-3.0906
T2
X5.9843Y-2.4016
X5.9843Y-3.189
X6.0843Y-2.4016
X6.0843Y-3.189
X6.1843Y-2.4016
X6.1843Y-3.189
X6.2843Y-2.4016
X6.2843Y-3.189
X6.3843Y-2.4016
X6.3843Y-3.189
X6.4843Y-2.4016
X6.4843Y-3.189
X6.4961Y-3.4614
X6.4961Y-3.5614
X6.4961Y-3.6614
X6.4961Y-3.7614
X6.4961Y-3.8614
X6.4961Y-3.9614
X6.4961Y-4.0614
X6.4961Y-4.1614
M30
