%TF.GenerationSoftware,KiCad,Pcbnew,9.0.3+dfsg-1*%
%TF.CreationDate,2025-10-23T15:20:38+02:00*%
%TF.ProjectId,SommerESP,536f6d6d-6572-4455-9350-2e6b69636164,3.0*%
%TF.SameCoordinates,Original*%
%TF.FileFunction,Paste,Top*%
%TF.FilePolarity,Positive*%
%FSLAX46Y46*%
G04 Gerber Fmt 4.6, Leading zero omitted, Abs format (unit mm)*
G04 Created by KiCad (PCBNEW 9.0.3+dfsg-1) date 2025-10-23 15:20:38*
%MOMM*%
%LPD*%
G01*
G04 APERTURE LIST*
G04 Aperture macros list*
%AMRoundRect*
0 Rectangle with rounded corners*
0 $1 Rounding radius*
0 $2 $3 $4 $5 $6 $7 $8 $9 X,Y pos of 4 corners*
0 Add a 4 corners polygon primitive as box body*
4,1,4,$2,$3,$4,$5,$6,$7,$8,$9,$2,$3,0*
0 Add four circle primitives for the rounded corners*
1,1,$1+$1,$2,$3*
1,1,$1+$1,$4,$5*
1,1,$1+$1,$6,$7*
1,1,$1+$1,$8,$9*
0 Add four rect primitives between the rounded corners*
20,1,$1+$1,$2,$3,$4,$5,0*
20,1,$1+$1,$4,$5,$6,$7,0*
20,1,$1+$1,$6,$7,$8,$9,0*
20,1,$1+$1,$8,$9,$2,$3,0*%
G04 Aperture macros list end*
%ADD10RoundRect,0.237500X0.250000X0.237500X-0.250000X0.237500X-0.250000X-0.237500X0.250000X-0.237500X0*%
%ADD11RoundRect,0.237500X0.237500X-0.250000X0.237500X0.250000X-0.237500X0.250000X-0.237500X-0.250000X0*%
%ADD12RoundRect,0.250000X-0.412500X-0.650000X0.412500X-0.650000X0.412500X0.650000X-0.412500X0.650000X0*%
%ADD13RoundRect,0.250000X-1.000000X-0.650000X1.000000X-0.650000X1.000000X0.650000X-1.000000X0.650000X0*%
%ADD14RoundRect,0.250000X-0.650000X-0.250000X0.650000X-0.250000X0.650000X0.250000X-0.650000X0.250000X0*%
%ADD15RoundRect,0.250000X0.325000X0.450000X-0.325000X0.450000X-0.325000X-0.450000X0.325000X-0.450000X0*%
%ADD16RoundRect,0.237500X-0.250000X-0.237500X0.250000X-0.237500X0.250000X0.237500X-0.250000X0.237500X0*%
%ADD17R,1.500000X0.900000*%
%ADD18R,0.700000X0.700000*%
%ADD19RoundRect,0.235000X1.465000X-0.940000X1.465000X0.940000X-1.465000X0.940000X-1.465000X-0.940000X0*%
%ADD20R,4.550000X5.250000*%
%ADD21R,4.600000X1.100000*%
%ADD22R,1.400000X1.700000*%
%ADD23R,4.000000X1.800000*%
%ADD24RoundRect,0.100000X0.225000X0.100000X-0.225000X0.100000X-0.225000X-0.100000X0.225000X-0.100000X0*%
%ADD25RoundRect,0.225000X0.225000X0.375000X-0.225000X0.375000X-0.225000X-0.375000X0.225000X-0.375000X0*%
%ADD26RoundRect,0.250000X-0.337500X-0.475000X0.337500X-0.475000X0.337500X0.475000X-0.337500X0.475000X0*%
%ADD27RoundRect,0.700000X-0.700000X-0.950000X0.700000X-0.950000X0.700000X0.950000X-0.700000X0.950000X0*%
%ADD28RoundRect,0.237500X-0.237500X0.250000X-0.237500X-0.250000X0.237500X-0.250000X0.237500X0.250000X0*%
G04 APERTURE END LIST*
D10*
%TO.C,R8*%
X40737500Y-28900000D03*
X38912500Y-28900000D03*
%TD*%
D11*
%TO.C,R2*%
X65850000Y-46300000D03*
X65850000Y-44475000D03*
%TD*%
%TO.C,R3*%
X63950000Y-42800000D03*
X63950000Y-40975000D03*
%TD*%
D12*
%TO.C,C3*%
X94300000Y-38700000D03*
X97425000Y-38700000D03*
%TD*%
D10*
%TO.C,R7*%
X79562500Y-35300000D03*
X77737500Y-35300000D03*
%TD*%
D13*
%TO.C,D5*%
X103475000Y-39725000D03*
X107475000Y-39725000D03*
%TD*%
D14*
%TO.C,S2*%
X69700000Y-45850000D03*
X69700000Y-42550000D03*
%TD*%
D15*
%TO.C,D2*%
X40775000Y-31275000D03*
X38725000Y-31275000D03*
%TD*%
D14*
%TO.C,S1*%
X60300000Y-45850000D03*
X60300000Y-42550000D03*
%TD*%
D16*
%TO.C,R11*%
X68875000Y-36825000D03*
X70700000Y-36825000D03*
%TD*%
D17*
%TO.C,U5*%
X56560000Y-46775000D03*
X56560000Y-45275000D03*
X56560000Y-43775000D03*
X56560000Y-42275000D03*
X56560000Y-40775000D03*
X56560000Y-39275000D03*
X56560000Y-37775000D03*
X56560000Y-36275000D03*
X56560000Y-34775000D03*
X39060000Y-34775000D03*
X39060000Y-36275000D03*
X39060000Y-37775000D03*
X39060000Y-39275000D03*
X39060000Y-40775000D03*
X39060000Y-42275000D03*
X39060000Y-43775000D03*
X39060000Y-45275000D03*
X39060000Y-46775000D03*
D18*
X47950000Y-41675000D03*
X47950000Y-40575000D03*
X47950000Y-39475000D03*
X46900000Y-41675000D03*
X46900000Y-40575000D03*
X46900000Y-39475000D03*
X45750000Y-41675000D03*
X45750000Y-40575000D03*
X45750000Y-39475000D03*
%TD*%
D19*
%TO.C,L1*%
X87900000Y-40425000D03*
X87900000Y-34375000D03*
%TD*%
D11*
%TO.C,R4*%
X65850000Y-42800000D03*
X65850000Y-40975000D03*
%TD*%
D20*
%TO.C,U4*%
X102175000Y-28575000D03*
X102175000Y-34125000D03*
X107025000Y-28575000D03*
X107025000Y-34125000D03*
D21*
X95450000Y-27950000D03*
X95450000Y-29650000D03*
X95450000Y-31350000D03*
X95450000Y-33050000D03*
X95450000Y-34750000D03*
%TD*%
D11*
%TO.C,R1*%
X63950000Y-46300000D03*
X63950000Y-44475000D03*
%TD*%
D22*
%TO.C,Q1*%
X69150000Y-32575000D03*
X71650000Y-32575000D03*
X74150000Y-32575000D03*
D23*
X71650000Y-26175000D03*
%TD*%
D24*
%TO.C,Q2*%
X60025000Y-30650000D03*
X60025000Y-30000000D03*
X60025000Y-29350000D03*
X58125000Y-29350000D03*
X58125000Y-30000000D03*
X58125000Y-30650000D03*
%TD*%
D25*
%TO.C,D4*%
X80300000Y-27150000D03*
X77000000Y-27150000D03*
%TD*%
D26*
%TO.C,C4*%
X68700000Y-40100000D03*
X70775000Y-40100000D03*
%TD*%
D27*
%TO.C,D3*%
X83250000Y-28750000D03*
X90250000Y-28800000D03*
%TD*%
D28*
%TO.C,R13*%
X60000000Y-37250000D03*
X60000000Y-39075000D03*
%TD*%
D10*
%TO.C,R12*%
X45512500Y-30800000D03*
X43687500Y-30800000D03*
%TD*%
D26*
%TO.C,C1*%
X43512500Y-26150000D03*
X45587500Y-26150000D03*
%TD*%
%TO.C,C2*%
X43537500Y-28650000D03*
X45612500Y-28650000D03*
%TD*%
D15*
%TO.C,D1*%
X79662500Y-33275000D03*
X77612500Y-33275000D03*
%TD*%
M02*
