  0
SECTION
  2
HEADER
  9
$ANGBASE
  50
0.0
  9
$ANGDIR
  70
1
  9
$MEASUREMENT
  70
0
  0
ENDSEC
  0
SECTION
  2
TABLES
  0
TABLE
  2
LTYPE
  70
4
  0
LTYPE
  5
40F
  2
CONTINUOUS
  70
0
  3
Solid line
  72
65
  73
0
  40
0.0
  0
LTYPE
  5
410
  2
DASHDOT
 70
0
  3
Dash Dot ____ _ ____ _
 72
65
 73
4
 40
2.0
 49
1.25
 49
-0.25
 49
0.25
 49
-0.25
  0
LTYPE
  5
411
  2
DASHED
 70
0
  3
Dashed __ __ __ __ __
 72
65
 73
2
 40
0.75
 49
0.5
 49
-0.25
  0
LTYPE
  5
43B
  2
DOTTED
 70
0
  3
Dotted .  .  .  .
 72
65
 73
2
 40
0.2
 49
0.0
 49
-0.2
  0
ENDTAB
  0
TABLE
  2
STYLE
  70
4
  0
STYLE
  2
KICAD
  70
0
  40
0
  41
1
  42
1
  50
0
  71
0
  3
isocp.shx
  0
STYLE
  2
KICADB
  70
0
  40
0
  41
1
  42
1
  50
0
  71
0
  3
isocp.shx
  0
STYLE
  2
KICADI
  70
0
  40
0
  41
1
  42
1
  50
15
  71
0
  3
isocp.shx
  0
STYLE
  2
KICADBI
  70
0
  40
0
  41
1
  42
1
  50
15
  71
0
  3
isocp.shx
  0
ENDTAB
  0
TABLE
  2
LAYER
  70
1
  0
LAYER
  2
BLACK
  70
0
  62
7
  6
CONTINUOUS
  0
ENDTAB
  0
ENDSEC
  0
SECTION
  2
ENTITIES
0
LINE
8
BLACK
6
CONTINUOUS
10
4.2204724409448815
20
-3.920275590551181
11
3.5118110236220472
21
-3.920275590551181
0
LINE
8
BLACK
6
CONTINUOUS
10
4.3267716535433074
20
-2.0078740157480315
11
5.5078740157480315
21
-2.0078740157480315
0
LINE
8
BLACK
6
CONTINUOUS
10
5.5078740157480315
20
-3.8789370078740157
11
4.6811023622047241
21
-3.8789370078740157
0
LINE
8
BLACK
6
CONTINUOUS
10
4.6811023622047241
20
-3.5511811023622046
11
4.6811023622047241
21
-2.6771653543307088
0
LINE
8
BLACK
6
CONTINUOUS
10
4.2204724409448815
20
-2.0078740157480315
11
4.2204724409448815
21
-2.2401574803149606
0
LINE
8
BLACK
6
CONTINUOUS
10
4.6811023622047241
20
-3.8789370078740157
11
4.6811023622047241
21
-3.7519685039370079
0
LINE
8
BLACK
6
CONTINUOUS
10
3.5118110236220472
20
-2.0078740157480315
11
4.2204724409448815
21
-2.0078740157480315
0
LINE
8
BLACK
6
CONTINUOUS
10
4.3267716535433074
20
-2.2401574803149606
11
4.3267716535433074
21
-2.0078740157480315
0
LINE
8
BLACK
6
CONTINUOUS
10
4.3267716535433074
20
-2.6771653543307088
11
4.3267716535433074
21
-2.4409448818897639
0
LINE
8
BLACK
6
CONTINUOUS
10
4.2204724409448815
20
-3.920275590551181
11
4.2204724409448815
21
-3.7519685039370079
0
LINE
8
BLACK
6
CONTINUOUS
10
4.2204724409448815
20
-2.2401574803149606
11
4.3267716535433074
21
-2.2401574803149606
0
LINE
8
BLACK
6
CONTINUOUS
10
5.5078740157480315
20
-2.0078740157480315
11
5.5078740157480315
21
-3.8789370078740157
0
LINE
8
BLACK
6
CONTINUOUS
10
4.2204724409448815
20
-3.7519685039370079
11
4.6811023622047241
21
-3.7519685039370079
0
LINE
8
BLACK
6
CONTINUOUS
10
4.2204724409448815
20
-2.4409448818897639
11
4.2204724409448815
21
-3.5511811023622046
0
LINE
8
BLACK
6
CONTINUOUS
10
3.5118110236220472
20
-3.920275590551181
11
3.5118110236220472
21
-2.0078740157480315
0
LINE
8
BLACK
6
CONTINUOUS
10
4.3267716535433074
20
-2.4409448818897639
11
4.2204724409448815
21
-2.4409448818897639
0
LINE
8
BLACK
6
CONTINUOUS
10
4.6811023622047241
20
-2.6771653543307088
11
4.3267716535433074
21
-2.6771653543307088
0
LINE
8
BLACK
6
CONTINUOUS
10
4.2204724409448815
20
-3.5511811023622046
11
4.6811023622047241
21
-3.5511811023622046
0
LINE
8
BLACK
6
CONTINUOUS
10
3.6181102362204722
20
-2.7677165354330708
11
3.6338582677165352
21
-2.7834645669291338
0
LINE
8
BLACK
6
CONTINUOUS
10
3.6338582677165352
20
-2.7677165354330708
11
3.6181102362204722
21
-2.7834645669291338
0
LINE
8
BLACK
6
CONTINUOUS
10
3.6181102362204722
20
-2.8543307086614171
11
3.6338582677165352
21
-2.8700787401574801
0
LINE
8
BLACK
6
CONTINUOUS
10
3.6338582677165352
20
-2.8543307086614171
11
3.6181102362204722
21
-2.8700787401574801
0
LINE
8
BLACK
6
CONTINUOUS
10
3.6181102362204722
20
-2.984251968503937
11
3.6338582677165352
21
-3.
0
LINE
8
BLACK
6
CONTINUOUS
10
3.6338582677165352
20
-2.984251968503937
11
3.6181102362204722
21
-3.
0
LINE
8
BLACK
6
CONTINUOUS
10
3.6181102362204722
20
-3.0669291338582676
11
3.6338582677165352
21
-3.0826771653543306
0
LINE
8
BLACK
6
CONTINUOUS
10
3.6338582677165352
20
-3.0669291338582676
11
3.6181102362204722
21
-3.0826771653543306
0
LINE
8
BLACK
6
CONTINUOUS
10
3.7125984251968505
20
-3.3582677165354329
11
3.7283464566929134
21
-3.3740157480314958
0
LINE
8
BLACK
6
CONTINUOUS
10
3.7283464566929134
20
-3.3582677165354329
11
3.7125984251968505
21
-3.3740157480314958
0
LINE
8
BLACK
6
CONTINUOUS
10
3.811023622047244
20
-3.3976377952755903
11
3.826771653543307
21
-3.4133858267716533
0
LINE
8
BLACK
6
CONTINUOUS
10
3.826771653543307
20
-3.3976377952755903
11
3.811023622047244
21
-3.4133858267716533
0
LINE
8
BLACK
6
CONTINUOUS
10
3.840551181102362
20
-2.4438976377952755
11
3.856299212598425
21
-2.4596456692913384
0
LINE
8
BLACK
6
CONTINUOUS
10
3.856299212598425
20
-2.4438976377952755
11
3.840551181102362
21
-2.4596456692913384
0
LINE
8
BLACK
6
CONTINUOUS
10
4.0708661417322833
20
-2.7283464566929134
11
4.0866141732283463
21
-2.7440944881889764
0
LINE
8
BLACK
6
CONTINUOUS
10
4.0866141732283463
20
-2.7283464566929134
11
4.0708661417322833
21
-2.7440944881889764
0
LINE
8
BLACK
6
CONTINUOUS
10
4.4596456692913389
20
-2.5748031496062991
11
4.4753937007874018
21
-2.590551181102362
0
LINE
8
BLACK
6
CONTINUOUS
10
4.4753937007874018
20
-2.5748031496062991
11
4.4596456692913389
21
-2.590551181102362
0
LINE
8
BLACK
6
CONTINUOUS
10
4.6968503937007871
20
-2.5738188976377954
11
4.71259842519685
21
-2.5895669291338583
0
LINE
8
BLACK
6
CONTINUOUS
10
4.71259842519685
20
-2.5738188976377954
11
4.6968503937007871
21
-2.5895669291338583
0
LINE
8
BLACK
6
CONTINUOUS
10
4.8110236220472435
20
-3.3381889763779529
11
4.8267716535433074
21
-3.3539370078740158
0
LINE
8
BLACK
6
CONTINUOUS
10
4.8267716535433074
20
-3.3381889763779529
11
4.8110236220472435
21
-3.3539370078740158
0
LINE
8
BLACK
6
CONTINUOUS
10
4.8454724409448815
20
-3.3799212598425195
11
4.8612204724409445
21
-3.3956692913385824
0
LINE
8
BLACK
6
CONTINUOUS
10
4.8612204724409445
20
-3.3799212598425195
11
4.8454724409448815
21
-3.3956692913385824
0
LINE
8
BLACK
6
CONTINUOUS
10
4.8622047244094491
20
-2.6338582677165352
11
4.877952755905512
21
-2.6496062992125982
0
LINE
8
BLACK
6
CONTINUOUS
10
4.877952755905512
20
-2.6338582677165352
11
4.8622047244094491
21
-2.6496062992125982
0
LINE
8
BLACK
6
CONTINUOUS
10
4.8769685039370074
20
-3.4419291338582676
11
4.8927165354330704
21
-3.4576771653543306
0
LINE
8
BLACK
6
CONTINUOUS
10
4.8927165354330704
20
-3.4419291338582676
11
4.8769685039370074
21
-3.4576771653543306
0
LINE
8
BLACK
6
CONTINUOUS
10
4.9519685039370076
20
-3.3842519685039369
11
4.9677165354330706
21
-3.3999999999999999
0
LINE
8
BLACK
6
CONTINUOUS
10
4.9677165354330706
20
-3.3842519685039369
11
4.9519685039370076
21
-3.3999999999999999
0
LINE
8
BLACK
6
CONTINUOUS
10
5.0541338582677167
20
-3.4350393700787403
11
5.0698818897637796
21
-3.4507874015748032
0
LINE
8
BLACK
6
CONTINUOUS
10
5.0698818897637796
20
-3.4350393700787403
11
5.0541338582677167
21
-3.4507874015748032
0
LINE
8
BLACK
6
CONTINUOUS
10
5.0551181102362204
20
-3.7125984251968505
11
5.0708661417322833
21
-3.7283464566929134
0
LINE
8
BLACK
6
CONTINUOUS
10
5.0708661417322833
20
-3.7125984251968505
11
5.0551181102362204
21
-3.7283464566929134
0
LINE
8
BLACK
6
CONTINUOUS
10
5.0826771653543306
20
-2.3307086614173227
11
5.0984251968503935
21
-2.3464566929133857
0
LINE
8
BLACK
6
CONTINUOUS
10
5.0984251968503935
20
-2.3307086614173227
11
5.0826771653543306
21
-2.3464566929133857
0
LINE
8
BLACK
6
CONTINUOUS
10
5.093484251968504
20
-3.4881889763779528
11
5.1092322834645669
21
-3.5039370078740157
0
LINE
8
BLACK
6
CONTINUOUS
10
5.1092322834645669
20
-3.4881889763779528
11
5.093484251968504
21
-3.5039370078740157
0
LINE
8
BLACK
6
CONTINUOUS
10
5.1259842519685037
20
-2.5354330708661417
11
5.1417322834645667
21
-2.5511811023622046
0
LINE
8
BLACK
6
CONTINUOUS
10
5.1417322834645667
20
-2.5354330708661417
11
5.1259842519685037
21
-2.5511811023622046
0
LINE
8
BLACK
6
CONTINUOUS
10
5.1427165354330704
20
-2.8523622047244093
11
5.1584645669291334
21
-2.8681102362204722
0
LINE
8
BLACK
6
CONTINUOUS
10
5.1584645669291334
20
-2.8523622047244093
11
5.1427165354330704
21
-2.8681102362204722
0
LINE
8
BLACK
6
CONTINUOUS
10
5.2192913385826767
20
-3.1893700787401573
11
5.2350393700787397
21
-3.2051181102362203
0
LINE
8
BLACK
6
CONTINUOUS
10
5.2350393700787397
20
-3.1893700787401573
11
5.2192913385826767
21
-3.2051181102362203
0
LINE
8
BLACK
6
CONTINUOUS
10
5.2352362204724407
20
-3.7755905511811023
11
5.2509842519685037
21
-3.7913385826771653
0
LINE
8
BLACK
6
CONTINUOUS
10
5.2509842519685037
20
-3.7755905511811023
11
5.2352362204724407
21
-3.7913385826771653
0
LINE
8
BLACK
6
CONTINUOUS
10
5.2622047244094485
20
-3.286791338582677
11
5.2779527559055115
21
-3.30253937007874
0
LINE
8
BLACK
6
CONTINUOUS
10
5.2779527559055115
20
-3.286791338582677
11
5.2622047244094485
21
-3.30253937007874
0
LINE
8
BLACK
6
CONTINUOUS
10
5.2622047244094485
20
-3.6488188976377951
11
5.2779527559055115
21
-3.6645669291338581
0
LINE
8
BLACK
6
CONTINUOUS
10
5.2779527559055115
20
-3.6488188976377951
11
5.2622047244094485
21
-3.6645669291338581
0
LINE
8
BLACK
6
CONTINUOUS
10
5.3011811023622046
20
-3.2100590551181103
11
5.3169291338582676
21
-3.2258070866141733
0
LINE
8
BLACK
6
CONTINUOUS
10
5.3169291338582676
20
-3.2100590551181103
11
5.3011811023622046
21
-3.2258070866141733
0
LINE
8
BLACK
6
CONTINUOUS
10
5.3316929133858268
20
-2.856299212598425
11
5.3474409448818898
21
-2.872047244094488
0
LINE
8
BLACK
6
CONTINUOUS
10
5.3474409448818898
20
-2.856299212598425
11
5.3316929133858268
21
-2.872047244094488
0
LINE
8
BLACK
6
CONTINUOUS
10
5.3602362204724407
20
-3.3690944881889764
11
5.3759842519685037
21
-3.3848425196850394
0
LINE
8
BLACK
6
CONTINUOUS
10
5.3759842519685037
20
-3.3690944881889764
11
5.3602362204724407
21
-3.3848425196850394
0
LINE
8
BLACK
6
CONTINUOUS
10
5.3732283464566928
20
-3.6492125984251969
11
5.3889763779527557
21
-3.6649606299212598
0
LINE
8
BLACK
6
CONTINUOUS
10
5.3889763779527557
20
-3.6492125984251969
11
5.3732283464566928
21
-3.6649606299212598
0
LINE
8
BLACK
6
CONTINUOUS
10
5.3736220472440941
20
-3.5870078740157481
11
5.3893700787401571
21
-3.602755905511811
0
LINE
8
BLACK
6
CONTINUOUS
10
5.3893700787401571
20
-3.5870078740157481
11
5.3736220472440941
21
-3.602755905511811
0
LINE
8
BLACK
6
CONTINUOUS
10
5.3748031496062989
20
-3.5259842519685041
11
5.3905511811023619
21
-3.541732283464567
0
LINE
8
BLACK
6
CONTINUOUS
10
5.3905511811023619
20
-3.5259842519685041
11
5.3748031496062989
21
-3.541732283464567
0
LINE
8
BLACK
6
CONTINUOUS
10
5.3769685039370074
20
-3.7755905511811023
11
5.3927165354330704
21
-3.7913385826771653
0
LINE
8
BLACK
6
CONTINUOUS
10
5.3927165354330704
20
-3.7755905511811023
11
5.3769685039370074
21
-3.7913385826771653
0
LINE
8
BLACK
6
CONTINUOUS
10
5.4340551181102361
20
-3.2992125984251968
11
5.4498031496062991
21
-3.3149606299212597
0
LINE
8
BLACK
6
CONTINUOUS
10
5.4498031496062991
20
-3.2992125984251968
11
5.4340551181102361
21
-3.3149606299212597
0
CIRCLE
8
BLACK
10
3.7578740157480315
20
-3.6322834645669291
40
0.015748031496063
0
CIRCLE
8
BLACK
10
4.0578740157480313
20
-3.6322834645669291
40
0.015748031496063
0
LINE
8
BLACK
6
CONTINUOUS
10
4.0019685039370074
20
-2.1427165354330708
11
4.0019685039370074
21
-2.1801181102362204
0
LINE
8
BLACK
6
CONTINUOUS
10
3.9832677165354329
20
-2.1614173228346458
11
4.0206692913385824
21
-2.1614173228346458
0
LINE
8
BLACK
6
CONTINUOUS
10
4.0019685039370074
20
-2.2411417322834644
11
4.0019685039370074
21
-2.2785433070866139
0
LINE
8
BLACK
6
CONTINUOUS
10
3.9832677165354329
20
-2.2598425196850394
11
4.0206692913385824
21
-2.2598425196850394
0
LINE
8
BLACK
6
CONTINUOUS
10
4.0019685039370074
20
-2.3395669291338583
11
4.0019685039370074
21
-2.3769685039370079
0
LINE
8
BLACK
6
CONTINUOUS
10
3.9832677165354329
20
-2.3582677165354329
11
4.0206692913385824
21
-2.3582677165354329
0
LINE
8
BLACK
6
CONTINUOUS
10
5.4104330708661417
20
-2.9704724409448819
11
5.4104330708661417
21
-3.0078740157480315
0
LINE
8
BLACK
6
CONTINUOUS
10
5.3917322834645667
20
-2.9891732283464565
11
5.4291338582677167
21
-2.9891732283464565
0
LINE
8
BLACK
6
CONTINUOUS
10
5.4104330708661417
20
-3.0688976377952755
11
5.4104330708661417
21
-3.106299212598425
0
LINE
8
BLACK
6
CONTINUOUS
10
5.3917322834645667
20
-3.0875984251968505
11
5.4291338582677167
21
-3.0875984251968505
0
LINE
8
BLACK
6
CONTINUOUS
10
5.4104330708661417
20
-3.1673228346456694
11
5.4104330708661417
21
-3.204724409448819
0
LINE
8
BLACK
6
CONTINUOUS
10
5.3917322834645667
20
-3.186023622047244
11
5.4291338582677167
21
-3.186023622047244
0
LINE
8
BLACK
6
CONTINUOUS
10
3.7422660236220473
20
-3.852502244094488
11
3.7422660236220473
21
-3.8246631102362203
0
LINE
8
BLACK
6
CONTINUOUS
10
3.7422660236220473
20
-3.8246631102362203
11
3.7144268897637795
21
-3.8246631102362203
0
LINE
8
BLACK
6
CONTINUOUS
10
3.7144268897637795
20
-3.8246631102362203
11
3.7144268897637795
21
-3.852502244094488
0
LINE
8
BLACK
6
CONTINUOUS
10
3.7144268897637795
20
-3.852502244094488
11
3.7422660236220473
21
-3.852502244094488
0
LINE
8
BLACK
6
CONTINUOUS
10
3.8422660236220469
20
-3.852502244094488
11
3.8422660236220469
21
-3.8246631102362203
0
LINE
8
BLACK
6
CONTINUOUS
10
3.8422660236220469
20
-3.8246631102362203
11
3.8144268897637796
21
-3.8246631102362203
0
LINE
8
BLACK
6
CONTINUOUS
10
3.8144268897637796
20
-3.8246631102362203
11
3.8144268897637796
21
-3.852502244094488
0
LINE
8
BLACK
6
CONTINUOUS
10
3.8144268897637796
20
-3.852502244094488
11
3.8422660236220469
21
-3.852502244094488
0
LINE
8
BLACK
6
CONTINUOUS
10
3.942266023622047
20
-3.852502244094488
11
3.942266023622047
21
-3.8246631102362203
0
LINE
8
BLACK
6
CONTINUOUS
10
3.942266023622047
20
-3.8246631102362203
11
3.9144268897637793
21
-3.8246631102362203
0
LINE
8
BLACK
6
CONTINUOUS
10
3.9144268897637793
20
-3.8246631102362203
11
3.9144268897637793
21
-3.852502244094488
0
LINE
8
BLACK
6
CONTINUOUS
10
3.9144268897637793
20
-3.852502244094488
11
3.942266023622047
21
-3.852502244094488
0
LINE
8
BLACK
6
CONTINUOUS
10
4.0422660236220471
20
-3.852502244094488
11
4.0422660236220471
21
-3.8246631102362203
0
LINE
8
BLACK
6
CONTINUOUS
10
4.0422660236220471
20
-3.8246631102362203
11
4.0144268897637794
21
-3.8246631102362203
0
LINE
8
BLACK
6
CONTINUOUS
10
4.0144268897637794
20
-3.8246631102362203
11
4.0144268897637794
21
-3.852502244094488
0
LINE
8
BLACK
6
CONTINUOUS
10
4.0144268897637794
20
-3.852502244094488
11
4.0422660236220471
21
-3.852502244094488
0
LINE
8
BLACK
6
CONTINUOUS
10
4.7312424015748027
20
-2.2186439763779529
11
4.7312424015748027
21
-2.1908048425196851
0
LINE
8
BLACK
6
CONTINUOUS
10
4.7312424015748027
20
-2.1908048425196851
11
4.7034032677165349
21
-2.1908048425196851
0
LINE
8
BLACK
6
CONTINUOUS
10
4.7034032677165349
20
-2.1908048425196851
11
4.7034032677165349
21
-2.2186439763779529
0
LINE
8
BLACK
6
CONTINUOUS
10
4.7034032677165349
20
-2.2186439763779529
11
4.7312424015748027
21
-2.2186439763779529
0
LINE
8
BLACK
6
CONTINUOUS
10
4.7609668110236223
20
-2.7452187795275589
11
4.7609668110236223
21
-2.7173796456692911
0
LINE
8
BLACK
6
CONTINUOUS
10
4.7609668110236223
20
-2.7173796456692911
11
4.7331276771653545
21
-2.7173796456692911
0
LINE
8
BLACK
6
CONTINUOUS
10
4.7331276771653545
20
-2.7173796456692911
11
4.7331276771653545
21
-2.7452187795275589
0
LINE
8
BLACK
6
CONTINUOUS
10
4.7331276771653545
20
-2.7452187795275589
11
4.7609668110236223
21
-2.7452187795275589
0
LINE
8
BLACK
6
CONTINUOUS
10
4.7609668110236223
20
-2.845218779527559
11
4.7609668110236223
21
-2.8173796456692912
0
LINE
8
BLACK
6
CONTINUOUS
10
4.7609668110236223
20
-2.8173796456692912
11
4.7331276771653545
21
-2.8173796456692912
0
LINE
8
BLACK
6
CONTINUOUS
10
4.7331276771653545
20
-2.8173796456692912
11
4.7331276771653545
21
-2.845218779527559
0
LINE
8
BLACK
6
CONTINUOUS
10
4.7331276771653545
20
-2.845218779527559
11
4.7609668110236223
21
-2.845218779527559
0
LINE
8
BLACK
6
CONTINUOUS
10
4.7609668110236223
20
-2.9452187795275591
11
4.7609668110236223
21
-2.9173796456692913
0
LINE
8
BLACK
6
CONTINUOUS
10
4.7609668110236223
20
-2.9173796456692913
11
4.7331276771653545
21
-2.9173796456692913
0
LINE
8
BLACK
6
CONTINUOUS
10
4.7331276771653545
20
-2.9173796456692913
11
4.7331276771653545
21
-2.9452187795275591
0
LINE
8
BLACK
6
CONTINUOUS
10
4.7331276771653545
20
-2.9452187795275591
11
4.7609668110236223
21
-2.9452187795275591
0
LINE
8
BLACK
6
CONTINUOUS
10
4.7609668110236223
20
-3.0452187795275591
11
4.7609668110236223
21
-3.0173796456692914
0
LINE
8
BLACK
6
CONTINUOUS
10
4.7609668110236223
20
-3.0173796456692914
11
4.7331276771653545
21
-3.0173796456692914
0
LINE
8
BLACK
6
CONTINUOUS
10
4.7331276771653545
20
-3.0173796456692914
11
4.7331276771653545
21
-3.0452187795275591
0
LINE
8
BLACK
6
CONTINUOUS
10
4.7331276771653545
20
-3.0452187795275591
11
4.7609668110236223
21
-3.0452187795275591
0
LINE
8
BLACK
6
CONTINUOUS
10
4.7609668110236223
20
-3.1452187795275588
11
4.7609668110236223
21
-3.1173796456692915
0
LINE
8
BLACK
6
CONTINUOUS
10
4.7609668110236223
20
-3.1173796456692915
11
4.7331276771653545
21
-3.1173796456692915
0
LINE
8
BLACK
6
CONTINUOUS
10
4.7331276771653545
20
-3.1173796456692915
11
4.7331276771653545
21
-3.1452187795275588
0
LINE
8
BLACK
6
CONTINUOUS
10
4.7331276771653545
20
-3.1452187795275588
11
4.7609668110236223
21
-3.1452187795275588
0
LINE
8
BLACK
6
CONTINUOUS
10
4.7609668110236223
20
-3.2452187795275589
11
4.7609668110236223
21
-3.2173796456692911
0
LINE
8
BLACK
6
CONTINUOUS
10
4.7609668110236223
20
-3.2173796456692911
11
4.7331276771653545
21
-3.2173796456692911
0
LINE
8
BLACK
6
CONTINUOUS
10
4.7331276771653545
20
-3.2173796456692911
11
4.7331276771653545
21
-3.2452187795275589
0
LINE
8
BLACK
6
CONTINUOUS
10
4.7331276771653545
20
-3.2452187795275589
11
4.7609668110236223
21
-3.2452187795275589
0
LINE
8
BLACK
6
CONTINUOUS
10
4.8312424015748032
20
-2.2186439763779529
11
4.8312424015748032
21
-2.1908048425196851
0
LINE
8
BLACK
6
CONTINUOUS
10
4.8312424015748032
20
-2.1908048425196851
11
4.8034032677165355
21
-2.1908048425196851
0
LINE
8
BLACK
6
CONTINUOUS
10
4.8034032677165355
20
-2.1908048425196851
11
4.8034032677165355
21
-2.2186439763779529
0
LINE
8
BLACK
6
CONTINUOUS
10
4.8034032677165355
20
-2.2186439763779529
11
4.8312424015748032
21
-2.2186439763779529
0
LINE
8
BLACK
6
CONTINUOUS
10
4.9312424015748029
20
-2.2186439763779529
11
4.9312424015748029
21
-2.1908048425196851
0
LINE
8
BLACK
6
CONTINUOUS
10
4.9312424015748029
20
-2.1908048425196851
11
4.9034032677165351
21
-2.1908048425196851
0
LINE
8
BLACK
6
CONTINUOUS
10
4.9034032677165351
20
-2.1908048425196851
11
4.9034032677165351
21
-2.2186439763779529
0
LINE
8
BLACK
6
CONTINUOUS
10
4.9034032677165351
20
-2.2186439763779529
11
4.9312424015748029
21
-2.2186439763779529
0
LINE
8
BLACK
6
CONTINUOUS
10
5.105258149606299
20
-2.2186439763779529
11
5.105258149606299
21
-2.1908048425196851
0
LINE
8
BLACK
6
CONTINUOUS
10
5.105258149606299
20
-2.1908048425196851
11
5.0774190157480312
21
-2.1908048425196851
0
LINE
8
BLACK
6
CONTINUOUS
10
5.0774190157480312
20
-2.1908048425196851
11
5.0774190157480312
21
-2.2186439763779529
0
LINE
8
BLACK
6
CONTINUOUS
10
5.0774190157480312
20
-2.2186439763779529
11
5.105258149606299
21
-2.2186439763779529
0
LINE
8
BLACK
6
CONTINUOUS
10
5.2052581496062995
20
-2.2186439763779529
11
5.2052581496062995
21
-2.1908048425196851
0
LINE
8
BLACK
6
CONTINUOUS
10
5.2052581496062995
20
-2.1908048425196851
11
5.1774190157480318
21
-2.1908048425196851
0
LINE
8
BLACK
6
CONTINUOUS
10
5.1774190157480318
20
-2.1908048425196851
11
5.1774190157480318
21
-2.2186439763779529
0
LINE
8
BLACK
6
CONTINUOUS
10
5.1774190157480318
20
-2.2186439763779529
11
5.2052581496062995
21
-2.2186439763779529
0
LINE
8
BLACK
6
CONTINUOUS
10
5.3052581496062992
20
-2.2186439763779529
11
5.3052581496062992
21
-2.1908048425196851
0
LINE
8
BLACK
6
CONTINUOUS
10
5.3052581496062992
20
-2.1908048425196851
11
5.2774190157480314
21
-2.1908048425196851
0
LINE
8
BLACK
6
CONTINUOUS
10
5.2774190157480314
20
-2.1908048425196851
11
5.2774190157480314
21
-2.2186439763779529
0
LINE
8
BLACK
6
CONTINUOUS
10
5.2774190157480314
20
-2.2186439763779529
11
5.3052581496062992
21
-2.2186439763779529
0
LINE
8
BLACK
6
CONTINUOUS
10
3.6125105511811024
20
-4.0448755118110231
11
3.6125105511811024
21
-3.9661353543307087
0
LINE
8
BLACK
6
CONTINUOUS
10
3.6125105511811024
20
-3.9661353543307087
11
3.631258188976378
21
-3.9661353543307087
0
LINE
8
BLACK
6
CONTINUOUS
10
3.631258188976378
20
-3.9661353543307087
11
3.6425068110236221
21
-3.9698848818897639
0
LINE
8
BLACK
6
CONTINUOUS
10
3.6425068110236221
20
-3.9698848818897639
11
3.6500058661417323
21
-3.9773839370078741
0
LINE
8
BLACK
6
CONTINUOUS
10
3.6500058661417323
20
-3.9773839370078741
11
3.6537553937007874
21
-3.9848829921259843
0
LINE
8
BLACK
6
CONTINUOUS
10
3.6537553937007874
20
-3.9848829921259843
11
3.6575049212598425
21
-3.9998811023622047
0
LINE
8
BLACK
6
CONTINUOUS
10
3.6575049212598425
20
-3.9998811023622047
11
3.6575049212598425
21
-4.0111297244094484
0
LINE
8
BLACK
6
CONTINUOUS
10
3.6575049212598425
20
-4.0111297244094484
11
3.6537553937007874
21
-4.0261278346456688
0
LINE
8
BLACK
6
CONTINUOUS
10
3.6537553937007874
20
-4.0261278346456688
11
3.6500058661417323
21
-4.033626889763779
0
LINE
8
BLACK
6
CONTINUOUS
10
3.6500058661417323
20
-4.033626889763779
11
3.6425068110236221
21
-4.041125984251968
0
LINE
8
BLACK
6
CONTINUOUS
10
3.6425068110236221
20
-4.041125984251968
11
3.631258188976378
21
-4.0448755118110231
0
LINE
8
BLACK
6
CONTINUOUS
10
3.631258188976378
20
-4.0448755118110231
11
3.6125105511811024
21
-4.0448755118110231
0
LINE
8
BLACK
6
CONTINUOUS
10
3.6912507086614172
20
-4.0448755118110231
11
3.6912507086614172
21
-3.9923820472440945
0
LINE
8
BLACK
6
CONTINUOUS
10
3.6912507086614172
20
-4.0073801968503933
11
3.6950002362204724
21
-3.9998811023622047
0
LINE
8
BLACK
6
CONTINUOUS
10
3.6950002362204724
20
-3.9998811023622047
11
3.6987497637795275
21
-3.9961315748031496
0
LINE
8
BLACK
6
CONTINUOUS
10
3.6987497637795275
20
-3.9961315748031496
11
3.7062488188976377
21
-3.9923820472440945
0
LINE
8
BLACK
6
CONTINUOUS
10
3.7062488188976377
20
-3.9923820472440945
11
3.7137479133858267
21
-3.9923820472440945
0
LINE
8
BLACK
6
CONTINUOUS
10
3.7399946062992124
20
-4.0448755118110231
11
3.7399946062992124
21
-3.9923820472440945
0
LINE
8
BLACK
6
CONTINUOUS
10
3.7399946062992124
20
-3.9661353543307087
11
3.7362450787401573
21
-3.9698848818897639
0
LINE
8
BLACK
6
CONTINUOUS
10
3.7362450787401573
20
-3.9698848818897639
11
3.7399946062992124
21
-3.973634409448819
0
LINE
8
BLACK
6
CONTINUOUS
10
3.7399946062992124
20
-3.973634409448819
11
3.7437441338582675
21
-3.9698848818897639
0
LINE
8
BLACK
6
CONTINUOUS
10
3.7437441338582675
20
-3.9698848818897639
11
3.7399946062992124
21
-3.9661353543307087
0
LINE
8
BLACK
6
CONTINUOUS
10
3.7399946062992124
20
-3.9661353543307087
11
3.7399946062992124
21
-3.973634409448819
0
LINE
8
BLACK
6
CONTINUOUS
10
3.7887385039370076
20
-4.0448755118110231
11
3.7812394488188974
21
-4.041125984251968
0
LINE
8
BLACK
6
CONTINUOUS
10
3.7812394488188974
20
-4.041125984251968
11
3.7774899212598423
21
-4.033626889763779
0
LINE
8
BLACK
6
CONTINUOUS
10
3.7774899212598423
20
-4.033626889763779
11
3.7774899212598423
21
-3.9661353543307087
0
LINE
8
BLACK
6
CONTINUOUS
10
3.829983346456693
20
-4.0448755118110231
11
3.8224842913385828
21
-4.041125984251968
0
LINE
8
BLACK
6
CONTINUOUS
10
3.8224842913385828
20
-4.041125984251968
11
3.8187347637795273
21
-4.033626889763779
0
LINE
8
BLACK
6
CONTINUOUS
10
3.8187347637795273
20
-4.033626889763779
11
3.8187347637795273
21
-3.9661353543307087
0
LINE
8
BLACK
6
CONTINUOUS
10
3.9199721259842519
20
-4.0448755118110231
11
3.9199721259842519
21
-3.9661353543307087
0
LINE
8
BLACK
6
CONTINUOUS
10
3.9199721259842519
20
-3.9661353543307087
11
3.9462188582677165
21
-4.0223783070866137
0
LINE
8
BLACK
6
CONTINUOUS
10
3.9462188582677165
20
-4.0223783070866137
11
3.9724655511811022
21
-3.9661353543307087
0
LINE
8
BLACK
6
CONTINUOUS
10
3.9724655511811022
20
-3.9661353543307087
11
3.9724655511811022
21
-4.0448755118110231
0
LINE
8
BLACK
6
CONTINUOUS
10
4.0437066535433068
20
-4.0448755118110231
11
4.0437066535433068
21
-4.0036306692913382
0
LINE
8
BLACK
6
CONTINUOUS
10
4.0437066535433068
20
-4.0036306692913382
11
4.0399571259842517
21
-3.9961315748031496
0
LINE
8
BLACK
6
CONTINUOUS
10
4.0399571259842517
20
-3.9961315748031496
11
4.0324580708661415
21
-3.9923820472440945
0
LINE
8
BLACK
6
CONTINUOUS
10
4.0324580708661415
20
-3.9923820472440945
11
4.0174599212598423
21
-3.9923820472440945
0
LINE
8
BLACK
6
CONTINUOUS
10
4.0174599212598423
20
-3.9923820472440945
11
4.0099608661417321
21
-3.9961315748031496
0
LINE
8
BLACK
6
CONTINUOUS
10
4.0437066535433068
20
-4.041125984251968
11
4.0362075984251966
21
-4.0448755118110231
0
LINE
8
BLACK
6
CONTINUOUS
10
4.0362075984251966
20
-4.0448755118110231
11
4.0174599212598423
21
-4.0448755118110231
0
LINE
8
BLACK
6
CONTINUOUS
10
4.0174599212598423
20
-4.0448755118110231
11
4.0099608661417321
21
-4.041125984251968
0
LINE
8
BLACK
6
CONTINUOUS
10
4.0099608661417321
20
-4.041125984251968
11
4.006211338582677
21
-4.033626889763779
0
LINE
8
BLACK
6
CONTINUOUS
10
4.006211338582677
20
-4.033626889763779
11
4.006211338582677
21
-4.0261278346456688
0
LINE
8
BLACK
6
CONTINUOUS
10
4.006211338582677
20
-4.0261278346456688
11
4.0099608661417321
21
-4.0186287795275586
0
LINE
8
BLACK
6
CONTINUOUS
10
4.0099608661417321
20
-4.0186287795275586
11
4.0174599212598423
21
-4.0148792519685035
0
LINE
8
BLACK
6
CONTINUOUS
10
4.0174599212598423
20
-4.0148792519685035
11
4.0362075984251966
21
-4.0148792519685035
0
LINE
8
BLACK
6
CONTINUOUS
10
4.0362075984251966
20
-4.0148792519685035
11
4.0437066535433068
21
-4.0111297244094484
0
LINE
8
BLACK
6
CONTINUOUS
10
4.0812019685039367
20
-3.9923820472440945
11
4.0812019685039367
21
-4.0711222047244098
0
LINE
8
BLACK
6
CONTINUOUS
10
4.0812019685039367
20
-3.9961315748031496
11
4.0887010236220469
21
-3.9923820472440945
0
LINE
8
BLACK
6
CONTINUOUS
10
4.0887010236220469
20
-3.9923820472440945
11
4.1036991732283461
21
-3.9923820472440945
0
LINE
8
BLACK
6
CONTINUOUS
10
4.1036991732283461
20
-3.9923820472440945
11
4.1111982283464563
21
-3.9961315748031496
0
LINE
8
BLACK
6
CONTINUOUS
10
4.1111982283464563
20
-3.9961315748031496
11
4.1149477559055114
21
-3.9998811023622047
0
LINE
8
BLACK
6
CONTINUOUS
10
4.1149477559055114
20
-3.9998811023622047
11
4.1186972834645665
21
-4.0073801968503933
0
LINE
8
BLACK
6
CONTINUOUS
10
4.1186972834645665
20
-4.0073801968503933
11
4.1186972834645665
21
-4.0298773622047239
0
LINE
8
BLACK
6
CONTINUOUS
10
4.1186972834645665
20
-4.0298773622047239
11
4.1149477559055114
21
-4.0373764173228341
0
LINE
8
BLACK
6
CONTINUOUS
10
4.1149477559055114
20
-4.0373764173228341
11
4.1111982283464563
21
-4.041125984251968
0
LINE
8
BLACK
6
CONTINUOUS
10
4.1111982283464563
20
-4.041125984251968
11
4.1036991732283461
21
-4.0448755118110231
0
LINE
8
BLACK
6
CONTINUOUS
10
4.1036991732283461
20
-4.0448755118110231
11
4.0887010236220469
21
-4.0448755118110231
0
LINE
8
BLACK
6
CONTINUOUS
10
4.0887010236220469
20
-4.0448755118110231
11
4.0812019685039367
21
-4.041125984251968
0
LINE
8
BLACK
6
CONTINUOUS
10
4.1524430708661413
20
-4.0373764173228341
11
4.1561925984251964
21
-4.041125984251968
0
LINE
8
BLACK
6
CONTINUOUS
10
4.1561925984251964
20
-4.041125984251968
11
4.1524430708661413
21
-4.0448755118110231
0
LINE
8
BLACK
6
CONTINUOUS
10
4.1524430708661413
20
-4.0448755118110231
11
4.1486935433070862
21
-4.041125984251968
0
LINE
8
BLACK
6
CONTINUOUS
10
4.1486935433070862
20
-4.041125984251968
11
4.1524430708661413
21
-4.0373764173228341
0
LINE
8
BLACK
6
CONTINUOUS
10
4.1524430708661413
20
-4.0373764173228341
11
4.1524430708661413
21
-4.0448755118110231
0
LINE
8
BLACK
6
CONTINUOUS
10
4.1524430708661413
20
-3.9961315748031496
11
4.1561925984251964
21
-3.9998811023622047
0
LINE
8
BLACK
6
CONTINUOUS
10
4.1561925984251964
20
-3.9998811023622047
11
4.1524430708661413
21
-4.0036306692913382
0
LINE
8
BLACK
6
CONTINUOUS
10
4.1524430708661413
20
-4.0036306692913382
11
4.1486935433070862
21
-3.9998811023622047
0
LINE
8
BLACK
6
CONTINUOUS
10
4.1486935433070862
20
-3.9998811023622047
11
4.1524430708661413
21
-3.9961315748031496
0
LINE
8
BLACK
6
CONTINUOUS
10
4.1524430708661413
20
-3.9961315748031496
11
4.1524430708661413
21
-4.0036306692913382
0
LINE
8
BLACK
6
CONTINUOUS
10
3.4940944881889764
20
-4.1663385826771648
11
3.5098425196850394
21
-4.1820866141732287
0
LINE
8
BLACK
6
CONTINUOUS
10
3.5098425196850394
20
-4.1663385826771648
11
3.4940944881889764
21
-4.1820866141732287
0
LINE
8
BLACK
6
CONTINUOUS
10
3.6275086614173229
20
-4.1314896850393703
11
3.6350077559055118
21
-4.1314896850393703
0
LINE
8
BLACK
6
CONTINUOUS
10
3.6350077559055118
20
-4.1314896850393703
11
3.6425068110236221
21
-4.1352392125984254
0
LINE
8
BLACK
6
CONTINUOUS
10
3.6425068110236221
20
-4.1352392125984254
11
3.6462563385826772
21
-4.1389887401574805
0
LINE
8
BLACK
6
CONTINUOUS
10
3.6462563385826772
20
-4.1389887401574805
11
3.6500058661417323
21
-4.1464877952755907
0
LINE
8
BLACK
6
CONTINUOUS
10
3.6500058661417323
20
-4.1464877952755907
11
3.6537553937007874
21
-4.1614859055118112
0
LINE
8
BLACK
6
CONTINUOUS
10
3.6537553937007874
20
-4.1614859055118112
11
3.6537553937007874
21
-4.1802335826771655
0
LINE
8
BLACK
6
CONTINUOUS
10
3.6537553937007874
20
-4.1802335826771655
11
3.6500058661417323
21
-4.1952316929133859
0
LINE
8
BLACK
6
CONTINUOUS
10
3.6500058661417323
20
-4.1952316929133859
11
3.6462563385826772
21
-4.2027307480314962
0
LINE
8
BLACK
6
CONTINUOUS
10
3.6462563385826772
20
-4.2027307480314962
11
3.6425068110236221
21
-4.20648031496063
0
LINE
8
BLACK
6
CONTINUOUS
10
3.6425068110236221
20
-4.20648031496063
11
3.6350077559055118
21
-4.2102298425196851
0
LINE
8
BLACK
6
CONTINUOUS
10
3.6350077559055118
20
-4.2102298425196851
11
3.6275086614173229
21
-4.2102298425196851
0
LINE
8
BLACK
6
CONTINUOUS
10
3.6275086614173229
20
-4.2102298425196851
11
3.6200096062992126
21
-4.20648031496063
0
LINE
8
BLACK
6
CONTINUOUS
10
3.6200096062992126
20
-4.20648031496063
11
3.6162600787401575
21
-4.2027307480314962
0
LINE
8
BLACK
6
CONTINUOUS
10
3.6162600787401575
20
-4.2027307480314962
11
3.6125105511811024
21
-4.1952316929133859
0
LINE
8
BLACK
6
CONTINUOUS
10
3.6125105511811024
20
-4.1952316929133859
11
3.6087610236220473
21
-4.1802335826771655
0
LINE
8
BLACK
6
CONTINUOUS
10
3.6087610236220473
20
-4.1802335826771655
11
3.6087610236220473
21
-4.1614859055118112
0
LINE
8
BLACK
6
CONTINUOUS
10
3.6087610236220473
20
-4.1614859055118112
11
3.6125105511811024
21
-4.1464877952755907
0
LINE
8
BLACK
6
CONTINUOUS
10
3.6125105511811024
20
-4.1464877952755907
11
3.6162600787401575
21
-4.1389887401574805
0
LINE
8
BLACK
6
CONTINUOUS
10
3.6162600787401575
20
-4.1389887401574805
11
3.6200096062992126
21
-4.1352392125984254
0
LINE
8
BLACK
6
CONTINUOUS
10
3.6200096062992126
20
-4.1352392125984254
11
3.6275086614173229
21
-4.1314896850393703
0
LINE
8
BLACK
6
CONTINUOUS
10
3.6875011811023621
20
-4.2027307480314962
11
3.6912507086614172
21
-4.20648031496063
0
LINE
8
BLACK
6
CONTINUOUS
10
3.6912507086614172
20
-4.20648031496063
11
3.6875011811023621
21
-4.2102298425196851
0
LINE
8
BLACK
6
CONTINUOUS
10
3.6875011811023621
20
-4.2102298425196851
11
3.683751653543307
21
-4.20648031496063
0
LINE
8
BLACK
6
CONTINUOUS
10
3.683751653543307
20
-4.20648031496063
11
3.6875011811023621
21
-4.2027307480314962
0
LINE
8
BLACK
6
CONTINUOUS
10
3.6875011811023621
20
-4.2027307480314962
11
3.6875011811023621
21
-4.2102298425196851
0
LINE
8
BLACK
6
CONTINUOUS
10
3.7587422834645667
20
-4.1577363779527561
11
3.7587422834645667
21
-4.2102298425196851
0
LINE
8
BLACK
6
CONTINUOUS
10
3.7399946062992124
20
-4.1277401574803152
11
3.7212469685039369
21
-4.1839831102362206
0
LINE
8
BLACK
6
CONTINUOUS
10
3.7212469685039369
20
-4.1839831102362206
11
3.7699908661417321
21
-4.1839831102362206
0
LINE
8
BLACK
6
CONTINUOUS
10
3.8149852362204721
20
-4.1314896850393703
11
3.8224843307086611
21
-4.1314896850393703
0
LINE
8
BLACK
6
CONTINUOUS
10
3.8224843307086611
20
-4.1314896850393703
11
3.8299833858267718
21
-4.1352392125984254
0
LINE
8
BLACK
6
CONTINUOUS
10
3.8299833858267718
20
-4.1352392125984254
11
3.8337329133858269
21
-4.1389887401574805
0
LINE
8
BLACK
6
CONTINUOUS
10
3.8337329133858269
20
-4.1389887401574805
11
3.837482440944882
21
-4.1464877952755907
0
LINE
8
BLACK
6
CONTINUOUS
10
3.837482440944882
20
-4.1464877952755907
11
3.8412319685039371
21
-4.1614859055118112
0
LINE
8
BLACK
6
CONTINUOUS
10
3.8412319685039371
20
-4.1614859055118112
11
3.8412319685039371
21
-4.1802335826771655
0
LINE
8
BLACK
6
CONTINUOUS
10
3.8412319685039371
20
-4.1802335826771655
11
3.837482440944882
21
-4.1952316929133859
0
LINE
8
BLACK
6
CONTINUOUS
10
3.837482440944882
20
-4.1952316929133859
11
3.8337329133858269
21
-4.2027307480314962
0
LINE
8
BLACK
6
CONTINUOUS
10
3.8337329133858269
20
-4.2027307480314962
11
3.8299833858267718
21
-4.20648031496063
0
LINE
8
BLACK
6
CONTINUOUS
10
3.8299833858267718
20
-4.20648031496063
11
3.8224843307086611
21
-4.2102298425196851
0
LINE
8
BLACK
6
CONTINUOUS
10
3.8224843307086611
20
-4.2102298425196851
11
3.8149852362204721
21
-4.2102298425196851
0
LINE
8
BLACK
6
CONTINUOUS
10
3.8149852362204721
20
-4.2102298425196851
11
3.8074861811023619
21
-4.20648031496063
0
LINE
8
BLACK
6
CONTINUOUS
10
3.8074861811023619
20
-4.20648031496063
11
3.8037366535433068
21
-4.2027307480314962
0
LINE
8
BLACK
6
CONTINUOUS
10
3.8037366535433068
20
-4.2027307480314962
11
3.7999871259842517
21
-4.1952316929133859
0
LINE
8
BLACK
6
CONTINUOUS
10
3.7999871259842517
20
-4.1952316929133859
11
3.7962375984251966
21
-4.1802335826771655
0
LINE
8
BLACK
6
CONTINUOUS
10
3.7962375984251966
20
-4.1802335826771655
11
3.7962375984251966
21
-4.1614859055118112
0
LINE
8
BLACK
6
CONTINUOUS
10
3.7962375984251966
20
-4.1614859055118112
11
3.7999871259842517
21
-4.1464877952755907
0
LINE
8
BLACK
6
CONTINUOUS
10
3.7999871259842517
20
-4.1464877952755907
11
3.8037366535433068
21
-4.1389887401574805
0
LINE
8
BLACK
6
CONTINUOUS
10
3.8037366535433068
20
-4.1389887401574805
11
3.8074861811023619
21
-4.1352392125984254
0
LINE
8
BLACK
6
CONTINUOUS
10
3.8074861811023619
20
-4.1352392125984254
11
3.8149852362204721
21
-4.1314896850393703
0
LINE
8
BLACK
6
CONTINUOUS
10
3.8899758661417323
20
-4.1314896850393703
11
3.8974749606299213
21
-4.1314896850393703
0
LINE
8
BLACK
6
CONTINUOUS
10
3.8974749606299213
20
-4.1314896850393703
11
3.9049740157480315
21
-4.1352392125984254
0
LINE
8
BLACK
6
CONTINUOUS
10
3.9049740157480315
20
-4.1352392125984254
11
3.9087235433070866
21
-4.1389887401574805
0
LINE
8
BLACK
6
CONTINUOUS
10
3.9087235433070866
20
-4.1389887401574805
11
3.9124730708661417
21
-4.1464877952755907
0
LINE
8
BLACK
6
CONTINUOUS
10
3.9124730708661417
20
-4.1464877952755907
11
3.9162225984251968
21
-4.1614859055118112
0
LINE
8
BLACK
6
CONTINUOUS
10
3.9162225984251968
20
-4.1614859055118112
11
3.9162225984251968
21
-4.1802335826771655
0
LINE
8
BLACK
6
CONTINUOUS
10
3.9162225984251968
20
-4.1802335826771655
11
3.9124730708661417
21
-4.1952316929133859
0
LINE
8
BLACK
6
CONTINUOUS
10
3.9124730708661417
20
-4.1952316929133859
11
3.9087235433070866
21
-4.2027307480314962
0
LINE
8
BLACK
6
CONTINUOUS
10
3.9087235433070866
20
-4.2027307480314962
11
3.9049740157480315
21
-4.20648031496063
0
LINE
8
BLACK
6
CONTINUOUS
10
3.9049740157480315
20
-4.20648031496063
11
3.8974749606299213
21
-4.2102298425196851
0
LINE
8
BLACK
6
CONTINUOUS
10
3.8974749606299213
20
-4.2102298425196851
11
3.8899758661417323
21
-4.2102298425196851
0
LINE
8
BLACK
6
CONTINUOUS
10
3.8899758661417323
20
-4.2102298425196851
11
3.8824768110236221
21
-4.20648031496063
0
LINE
8
BLACK
6
CONTINUOUS
10
3.8824768110236221
20
-4.20648031496063
11
3.878727283464567
21
-4.2027307480314962
0
LINE
8
BLACK
6
CONTINUOUS
10
3.878727283464567
20
-4.2027307480314962
11
3.8749777559055119
21
-4.1952316929133859
0
LINE
8
BLACK
6
CONTINUOUS
10
3.8749777559055119
20
-4.1952316929133859
11
3.8712282283464567
21
-4.1802335826771655
0
LINE
8
BLACK
6
CONTINUOUS
10
3.8712282283464567
20
-4.1802335826771655
11
3.8712282283464567
21
-4.1614859055118112
0
LINE
8
BLACK
6
CONTINUOUS
10
3.8712282283464567
20
-4.1614859055118112
11
3.8749777559055119
21
-4.1464877952755907
0
LINE
8
BLACK
6
CONTINUOUS
10
3.8749777559055119
20
-4.1464877952755907
11
3.878727283464567
21
-4.1389887401574805
0
LINE
8
BLACK
6
CONTINUOUS
10
3.878727283464567
20
-4.1389887401574805
11
3.8824768110236221
21
-4.1352392125984254
0
LINE
8
BLACK
6
CONTINUOUS
10
3.8824768110236221
20
-4.1352392125984254
11
3.8899758661417323
21
-4.1314896850393703
0
LINE
8
BLACK
6
CONTINUOUS
10
3.9499683858267716
20
-4.2102298425196851
11
3.9499683858267716
21
-4.1577363779527561
0
LINE
8
BLACK
6
CONTINUOUS
10
3.9499683858267716
20
-4.1652354330708663
11
3.9537179133858267
21
-4.1614859055118112
0
LINE
8
BLACK
6
CONTINUOUS
10
3.9537179133858267
20
-4.1614859055118112
11
3.9612169685039369
21
-4.1577363779527561
0
LINE
8
BLACK
6
CONTINUOUS
10
3.9612169685039369
20
-4.1577363779527561
11
3.972465590551181
21
-4.1577363779527561
0
LINE
8
BLACK
6
CONTINUOUS
10
3.972465590551181
20
-4.1577363779527561
11
3.9799646456692912
21
-4.1614859055118112
0
LINE
8
BLACK
6
CONTINUOUS
10
3.9799646456692912
20
-4.1614859055118112
11
3.9837141732283463
21
-4.1689850000000002
0
LINE
8
BLACK
6
CONTINUOUS
10
3.9837141732283463
20
-4.1689850000000002
11
3.9837141732283463
21
-4.2102298425196851
0
LINE
8
BLACK
6
CONTINUOUS
10
3.9837141732283463
20
-4.1689850000000002
11
3.9874637007874014
21
-4.1614859055118112
0
LINE
8
BLACK
6
CONTINUOUS
10
3.9874637007874014
20
-4.1614859055118112
11
3.9949627559055116
21
-4.1577363779527561
0
LINE
8
BLACK
6
CONTINUOUS
10
3.9949627559055116
20
-4.1577363779527561
11
4.006211338582677
21
-4.1577363779527561
0
LINE
8
BLACK
6
CONTINUOUS
10
4.006211338582677
20
-4.1577363779527561
11
4.0137104330708659
21
-4.1614859055118112
0
LINE
8
BLACK
6
CONTINUOUS
10
4.0137104330708659
20
-4.1614859055118112
11
4.0174599606299211
21
-4.1689850000000002
0
LINE
8
BLACK
6
CONTINUOUS
10
4.0174599606299211
20
-4.1689850000000002
11
4.0174599606299211
21
-4.2102298425196851
0
LINE
8
BLACK
6
CONTINUOUS
10
4.0549552755905509
20
-4.2102298425196851
11
4.0549552755905509
21
-4.1577363779527561
0
LINE
8
BLACK
6
CONTINUOUS
10
4.0549552755905509
20
-4.1652354330708663
11
4.058704803149606
21
-4.1614859055118112
0
LINE
8
BLACK
6
CONTINUOUS
10
4.058704803149606
20
-4.1614859055118112
11
4.0662038582677162
21
-4.1577363779527561
0
LINE
8
BLACK
6
CONTINUOUS
10
4.0662038582677162
20
-4.1577363779527561
11
4.0774524803149603
21
-4.1577363779527561
0
LINE
8
BLACK
6
CONTINUOUS
10
4.0774524803149603
20
-4.1577363779527561
11
4.0849515354330705
21
-4.1614859055118112
0
LINE
8
BLACK
6
CONTINUOUS
10
4.0849515354330705
20
-4.1614859055118112
11
4.0887010629921257
21
-4.1689850000000002
0
LINE
8
BLACK
6
CONTINUOUS
10
4.0887010629921257
20
-4.1689850000000002
11
4.0887010629921257
21
-4.2102298425196851
0
LINE
8
BLACK
6
CONTINUOUS
10
4.0887010629921257
20
-4.1689850000000002
11
4.0924505905511808
21
-4.1614859055118112
0
LINE
8
BLACK
6
CONTINUOUS
10
4.0924505905511808
20
-4.1614859055118112
11
4.099949645669291
21
-4.1577363779527561
0
LINE
8
BLACK
6
CONTINUOUS
10
4.099949645669291
20
-4.1577363779527561
11
4.1111982283464563
21
-4.1577363779527561
0
LINE
8
BLACK
6
CONTINUOUS
10
4.1111982283464563
20
-4.1577363779527561
11
4.1186973228346453
21
-4.1614859055118112
0
LINE
8
BLACK
6
CONTINUOUS
10
4.1186973228346453
20
-4.1614859055118112
11
4.1224468503937004
21
-4.1689850000000002
0
LINE
8
BLACK
6
CONTINUOUS
10
4.1224468503937004
20
-4.1689850000000002
11
4.1224468503937004
21
-4.2102298425196851
0
LINE
8
BLACK
6
CONTINUOUS
10
4.2761776377952758
20
-4.1277401574803152
11
4.2086861023622042
21
-4.2289774803149607
0
LINE
8
BLACK
6
CONTINUOUS
10
4.3774150000000001
20
-4.1314896850393703
11
4.384914094488189
21
-4.1314896850393703
0
LINE
8
BLACK
6
CONTINUOUS
10
4.384914094488189
20
-4.1314896850393703
11
4.3924131496062992
21
-4.1352392125984254
0
LINE
8
BLACK
6
CONTINUOUS
10
4.3924131496062992
20
-4.1352392125984254
11
4.3961626771653544
21
-4.1389887401574805
0
LINE
8
BLACK
6
CONTINUOUS
10
4.3961626771653544
20
-4.1389887401574805
11
4.3999122047244095
21
-4.1464877952755907
0
LINE
8
BLACK
6
CONTINUOUS
10
4.3999122047244095
20
-4.1464877952755907
11
4.4036617322834646
21
-4.1614859055118112
0
LINE
8
BLACK
6
CONTINUOUS
10
4.4036617322834646
20
-4.1614859055118112
11
4.4036617322834646
21
-4.1802335826771655
0
LINE
8
BLACK
6
CONTINUOUS
10
4.4036617322834646
20
-4.1802335826771655
11
4.3999122047244095
21
-4.1952316929133859
0
LINE
8
BLACK
6
CONTINUOUS
10
4.3999122047244095
20
-4.1952316929133859
11
4.3961626771653544
21
-4.2027307480314962
0
LINE
8
BLACK
6
CONTINUOUS
10
4.3961626771653544
20
-4.2027307480314962
11
4.3924131496062992
21
-4.20648031496063
0
LINE
8
BLACK
6
CONTINUOUS
10
4.3924131496062992
20
-4.20648031496063
11
4.384914094488189
21
-4.2102298425196851
0
LINE
8
BLACK
6
CONTINUOUS
10
4.384914094488189
20
-4.2102298425196851
11
4.3774150000000001
21
-4.2102298425196851
0
LINE
8
BLACK
6
CONTINUOUS
10
4.3774150000000001
20
-4.2102298425196851
11
4.3699159448818898
21
-4.20648031496063
0
LINE
8
BLACK
6
CONTINUOUS
10
4.3699159448818898
20
-4.20648031496063
11
4.3661664173228347
21
-4.2027307480314962
0
LINE
8
BLACK
6
CONTINUOUS
10
4.3661664173228347
20
-4.2027307480314962
11
4.3624168897637796
21
-4.1952316929133859
0
LINE
8
BLACK
6
CONTINUOUS
10
4.3624168897637796
20
-4.1952316929133859
11
4.3586673622047245
21
-4.1802335826771655
0
LINE
8
BLACK
6
CONTINUOUS
10
4.3586673622047245
20
-4.1802335826771655
11
4.3586673622047245
21
-4.1614859055118112
0
LINE
8
BLACK
6
CONTINUOUS
10
4.3586673622047245
20
-4.1614859055118112
11
4.3624168897637796
21
-4.1464877952755907
0
LINE
8
BLACK
6
CONTINUOUS
10
4.3624168897637796
20
-4.1464877952755907
11
4.3661664173228347
21
-4.1389887401574805
0
LINE
8
BLACK
6
CONTINUOUS
10
4.3661664173228347
20
-4.1389887401574805
11
4.3699159448818898
21
-4.1352392125984254
0
LINE
8
BLACK
6
CONTINUOUS
10
4.3699159448818898
20
-4.1352392125984254
11
4.3774150000000001
21
-4.1314896850393703
0
LINE
8
BLACK
6
CONTINUOUS
10
4.4374075196850393
20
-4.2027307480314962
11
4.4411570472440944
21
-4.20648031496063
0
LINE
8
BLACK
6
CONTINUOUS
10
4.4411570472440944
20
-4.20648031496063
11
4.4374075196850393
21
-4.2102298425196851
0
LINE
8
BLACK
6
CONTINUOUS
10
4.4374075196850393
20
-4.2102298425196851
11
4.4336579921259842
21
-4.20648031496063
0
LINE
8
BLACK
6
CONTINUOUS
10
4.4336579921259842
20
-4.20648031496063
11
4.4374075196850393
21
-4.2027307480314962
0
LINE
8
BLACK
6
CONTINUOUS
10
4.4374075196850393
20
-4.2027307480314962
11
4.4374075196850393
21
-4.2102298425196851
0
LINE
8
BLACK
6
CONTINUOUS
10
4.4899009448818896
20
-4.1314896850393703
11
4.4974000393700786
21
-4.1314896850393703
0
LINE
8
BLACK
6
CONTINUOUS
10
4.4974000393700786
20
-4.1314896850393703
11
4.5048990944881888
21
-4.1352392125984254
0
LINE
8
BLACK
6
CONTINUOUS
10
4.5048990944881888
20
-4.1352392125984254
11
4.5086486220472439
21
-4.1389887401574805
0
LINE
8
BLACK
6
CONTINUOUS
10
4.5086486220472439
20
-4.1389887401574805
11
4.512398149606299
21
-4.1464877952755907
0
LINE
8
BLACK
6
CONTINUOUS
10
4.512398149606299
20
-4.1464877952755907
11
4.5161476771653541
21
-4.1614859055118112
0
LINE
8
BLACK
6
CONTINUOUS
10
4.5161476771653541
20
-4.1614859055118112
11
4.5161476771653541
21
-4.1802335826771655
0
LINE
8
BLACK
6
CONTINUOUS
10
4.5161476771653541
20
-4.1802335826771655
11
4.512398149606299
21
-4.1952316929133859
0
LINE
8
BLACK
6
CONTINUOUS
10
4.512398149606299
20
-4.1952316929133859
11
4.5086486220472439
21
-4.2027307480314962
0
LINE
8
BLACK
6
CONTINUOUS
10
4.5086486220472439
20
-4.2027307480314962
11
4.5048990944881888
21
-4.20648031496063
0
LINE
8
BLACK
6
CONTINUOUS
10
4.5048990944881888
20
-4.20648031496063
11
4.4974000393700786
21
-4.2102298425196851
0
LINE
8
BLACK
6
CONTINUOUS
10
4.4974000393700786
20
-4.2102298425196851
11
4.4899009448818896
21
-4.2102298425196851
0
LINE
8
BLACK
6
CONTINUOUS
10
4.4899009448818896
20
-4.2102298425196851
11
4.4824018897637794
21
-4.20648031496063
0
LINE
8
BLACK
6
CONTINUOUS
10
4.4824018897637794
20
-4.20648031496063
11
4.4786523622047243
21
-4.2027307480314962
0
LINE
8
BLACK
6
CONTINUOUS
10
4.4786523622047243
20
-4.2027307480314962
11
4.4749028346456692
21
-4.1952316929133859
0
LINE
8
BLACK
6
CONTINUOUS
10
4.4749028346456692
20
-4.1952316929133859
11
4.4711533070866141
21
-4.1802335826771655
0
LINE
8
BLACK
6
CONTINUOUS
10
4.4711533070866141
20
-4.1802335826771655
11
4.4711533070866141
21
-4.1614859055118112
0
LINE
8
BLACK
6
CONTINUOUS
10
4.4711533070866141
20
-4.1614859055118112
11
4.4749028346456692
21
-4.1464877952755907
0
LINE
8
BLACK
6
CONTINUOUS
10
4.4749028346456692
20
-4.1464877952755907
11
4.4786523622047243
21
-4.1389887401574805
0
LINE
8
BLACK
6
CONTINUOUS
10
4.4786523622047243
20
-4.1389887401574805
11
4.4824018897637794
21
-4.1352392125984254
0
LINE
8
BLACK
6
CONTINUOUS
10
4.4824018897637794
20
-4.1352392125984254
11
4.4899009448818896
21
-4.1314896850393703
0
LINE
8
BLACK
6
CONTINUOUS
10
4.5911383070866139
20
-4.2102298425196851
11
4.5461439370078738
21
-4.2102298425196851
0
LINE
8
BLACK
6
CONTINUOUS
10
4.5686411023622044
20
-4.2102298425196851
11
4.5686411023622044
21
-4.1314896850393703
0
LINE
8
BLACK
6
CONTINUOUS
10
4.5686411023622044
20
-4.1314896850393703
11
4.5611420472440942
21
-4.1427382677165356
0
LINE
8
BLACK
6
CONTINUOUS
10
4.5611420472440942
20
-4.1427382677165356
11
4.553642992125984
21
-4.1502373228346459
0
LINE
8
BLACK
6
CONTINUOUS
10
4.553642992125984
20
-4.1502373228346459
11
4.5461439370078738
21
-4.153986850393701
0
LINE
8
BLACK
6
CONTINUOUS
10
4.6623794094488185
20
-4.1314896850393703
11
4.6248840944881886
21
-4.1314896850393703
0
LINE
8
BLACK
6
CONTINUOUS
10
4.6248840944881886
20
-4.1314896850393703
11
4.6211345669291335
21
-4.1689850000000002
0
LINE
8
BLACK
6
CONTINUOUS
10
4.6211345669291335
20
-4.1689850000000002
11
4.6248840944881886
21
-4.1652354330708663
0
LINE
8
BLACK
6
CONTINUOUS
10
4.6248840944881886
20
-4.1652354330708663
11
4.6323831496062988
21
-4.1614859055118112
0
LINE
8
BLACK
6
CONTINUOUS
10
4.6323831496062988
20
-4.1614859055118112
11
4.6511308267716531
21
-4.1614859055118112
0
LINE
8
BLACK
6
CONTINUOUS
10
4.6511308267716531
20
-4.1614859055118112
11
4.6586298818897633
21
-4.1652354330708663
0
LINE
8
BLACK
6
CONTINUOUS
10
4.6586298818897633
20
-4.1652354330708663
11
4.6623794094488185
21
-4.1689850000000002
0
LINE
8
BLACK
6
CONTINUOUS
10
4.6623794094488185
20
-4.1689850000000002
11
4.6661289370078736
21
-4.1764840551181104
0
LINE
8
BLACK
6
CONTINUOUS
10
4.6661289370078736
20
-4.1764840551181104
11
4.6661289370078736
21
-4.1952316929133859
0
LINE
8
BLACK
6
CONTINUOUS
10
4.6661289370078736
20
-4.1952316929133859
11
4.6623794094488185
21
-4.2027307480314962
0
LINE
8
BLACK
6
CONTINUOUS
10
4.6623794094488185
20
-4.2027307480314962
11
4.6586298818897633
21
-4.20648031496063
0
LINE
8
BLACK
6
CONTINUOUS
10
4.6586298818897633
20
-4.20648031496063
11
4.6511308267716531
21
-4.2102298425196851
0
LINE
8
BLACK
6
CONTINUOUS
10
4.6511308267716531
20
-4.2102298425196851
11
4.6323831496062988
21
-4.2102298425196851
0
LINE
8
BLACK
6
CONTINUOUS
10
4.6323831496062988
20
-4.2102298425196851
11
4.6248840944881886
21
-4.20648031496063
0
LINE
8
BLACK
6
CONTINUOUS
10
4.6248840944881886
20
-4.20648031496063
11
4.6211345669291335
21
-4.2027307480314962
0
LINE
8
BLACK
6
CONTINUOUS
10
4.6923756692913381
20
-4.1314896850393703
11
4.7448690944881893
21
-4.1314896850393703
0
LINE
8
BLACK
6
CONTINUOUS
10
4.7448690944881893
20
-4.1314896850393703
11
4.7111233070866136
21
-4.2102298425196851
0
LINE
8
BLACK
6
CONTINUOUS
10
4.7711158267716538
20
-4.1314896850393703
11
4.7711158267716538
21
-4.1464877952755907
0
LINE
8
BLACK
6
CONTINUOUS
10
4.8011120866141734
20
-4.1314896850393703
11
4.8011120866141734
21
-4.1464877952755907
0
LINE
8
BLACK
6
CONTINUOUS
10
4.9173475984251969
20
-4.240226062992126
11
4.913598031496063
21
-4.2364765354330709
0
LINE
8
BLACK
6
CONTINUOUS
10
4.913598031496063
20
-4.2364765354330709
11
4.9060989763779528
21
-4.2252279527559056
0
LINE
8
BLACK
6
CONTINUOUS
10
4.9060989763779528
20
-4.2252279527559056
11
4.9023494488188977
21
-4.2177288976377953
0
LINE
8
BLACK
6
CONTINUOUS
10
4.9023494488188977
20
-4.2177288976377953
11
4.8985999212598426
21
-4.20648031496063
0
LINE
8
BLACK
6
CONTINUOUS
10
4.8985999212598426
20
-4.20648031496063
11
4.8948503937007874
21
-4.1877326377952757
0
LINE
8
BLACK
6
CONTINUOUS
10
4.8948503937007874
20
-4.1877326377952757
11
4.8948503937007874
21
-4.1727345275590553
0
LINE
8
BLACK
6
CONTINUOUS
10
4.8948503937007874
20
-4.1727345275590553
11
4.8985999212598426
21
-4.153986850393701
0
LINE
8
BLACK
6
CONTINUOUS
10
4.8985999212598426
20
-4.153986850393701
11
4.9023494488188977
21
-4.1427382677165356
0
LINE
8
BLACK
6
CONTINUOUS
10
4.9023494488188977
20
-4.1427382677165356
11
4.9060989763779528
21
-4.1352392125984254
0
LINE
8
BLACK
6
CONTINUOUS
10
4.9060989763779528
20
-4.1352392125984254
11
4.913598031496063
21
-4.1239905905511813
0
LINE
8
BLACK
6
CONTINUOUS
10
4.913598031496063
20
-4.1239905905511813
11
4.9173475984251969
21
-4.1202410629921262
0
LINE
8
BLACK
6
CONTINUOUS
10
4.9398447637795275
20
-4.1314896850393703
11
4.9885886614173227
21
-4.1314896850393703
0
LINE
8
BLACK
6
CONTINUOUS
10
4.9885886614173227
20
-4.1314896850393703
11
4.9623419291338582
21
-4.1614859055118112
0
LINE
8
BLACK
6
CONTINUOUS
10
4.9623419291338582
20
-4.1614859055118112
11
4.9735905511811023
21
-4.1614859055118112
0
LINE
8
BLACK
6
CONTINUOUS
10
4.9735905511811023
20
-4.1614859055118112
11
4.9810896062992125
21
-4.1652354330708663
0
LINE
8
BLACK
6
CONTINUOUS
10
4.9810896062992125
20
-4.1652354330708663
11
4.9848391338582676
21
-4.1689850000000002
0
LINE
8
BLACK
6
CONTINUOUS
10
4.9848391338582676
20
-4.1689850000000002
11
4.9885886614173227
21
-4.1764840551181104
0
LINE
8
BLACK
6
CONTINUOUS
10
4.9885886614173227
20
-4.1764840551181104
11
4.9885886614173227
21
-4.1952316929133859
0
LINE
8
BLACK
6
CONTINUOUS
10
4.9885886614173227
20
-4.1952316929133859
11
4.9848391338582676
21
-4.2027307480314962
0
LINE
8
BLACK
6
CONTINUOUS
10
4.9848391338582676
20
-4.2027307480314962
11
4.9810896062992125
21
-4.20648031496063
0
LINE
8
BLACK
6
CONTINUOUS
10
4.9810896062992125
20
-4.20648031496063
11
4.9735905511811023
21
-4.2102298425196851
0
LINE
8
BLACK
6
CONTINUOUS
10
4.9735905511811023
20
-4.2102298425196851
11
4.9510933464566929
21
-4.2102298425196851
0
LINE
8
BLACK
6
CONTINUOUS
10
4.9510933464566929
20
-4.2102298425196851
11
4.9435942913385826
21
-4.20648031496063
0
LINE
8
BLACK
6
CONTINUOUS
10
4.9435942913385826
20
-4.20648031496063
11
4.9398447637795275
21
-4.2027307480314962
0
LINE
8
BLACK
6
CONTINUOUS
10
5.0148353937007872
20
-4.1314896850393703
11
5.0635792913385824
21
-4.1314896850393703
0
LINE
8
BLACK
6
CONTINUOUS
10
5.0635792913385824
20
-4.1314896850393703
11
5.0373325590551179
21
-4.1614859055118112
0
LINE
8
BLACK
6
CONTINUOUS
10
5.0373325590551179
20
-4.1614859055118112
11
5.048581181102362
21
-4.1614859055118112
0
LINE
8
BLACK
6
CONTINUOUS
10
5.048581181102362
20
-4.1614859055118112
11
5.0560802362204722
21
-4.1652354330708663
0
LINE
8
BLACK
6
CONTINUOUS
10
5.0560802362204722
20
-4.1652354330708663
11
5.0598297637795273
21
-4.1689850000000002
0
LINE
8
BLACK
6
CONTINUOUS
10
5.0598297637795273
20
-4.1689850000000002
11
5.0635792913385824
21
-4.1764840551181104
0
LINE
8
BLACK
6
CONTINUOUS
10
5.0635792913385824
20
-4.1764840551181104
11
5.0635792913385824
21
-4.1952316929133859
0
LINE
8
BLACK
6
CONTINUOUS
10
5.0635792913385824
20
-4.1952316929133859
11
5.0598297637795273
21
-4.2027307480314962
0
LINE
8
BLACK
6
CONTINUOUS
10
5.0598297637795273
20
-4.2027307480314962
11
5.0560802362204722
21
-4.20648031496063
0
LINE
8
BLACK
6
CONTINUOUS
10
5.0560802362204722
20
-4.20648031496063
11
5.048581181102362
21
-4.2102298425196851
0
LINE
8
BLACK
6
CONTINUOUS
10
5.048581181102362
20
-4.2102298425196851
11
5.0260839763779526
21
-4.2102298425196851
0
LINE
8
BLACK
6
CONTINUOUS
10
5.0260839763779526
20
-4.2102298425196851
11
5.0185849212598423
21
-4.20648031496063
0
LINE
8
BLACK
6
CONTINUOUS
10
5.0185849212598423
20
-4.20648031496063
11
5.0148353937007872
21
-4.2027307480314962
0
LINE
8
BLACK
6
CONTINUOUS
10
5.1573175984251964
20
-4.2102298425196851
11
5.1573175984251964
21
-4.1314896850393703
0
LINE
8
BLACK
6
CONTINUOUS
10
5.1910633858267712
20
-4.2102298425196851
11
5.1910633858267712
21
-4.1689850000000002
0
LINE
8
BLACK
6
CONTINUOUS
10
5.1910633858267712
20
-4.1689850000000002
11
5.1873138582677161
21
-4.1614859055118112
0
LINE
8
BLACK
6
CONTINUOUS
10
5.1873138582677161
20
-4.1614859055118112
11
5.1798148031496059
21
-4.1577363779527561
0
LINE
8
BLACK
6
CONTINUOUS
10
5.1798148031496059
20
-4.1577363779527561
11
5.1685661811023618
21
-4.1577363779527561
0
LINE
8
BLACK
6
CONTINUOUS
10
5.1685661811023618
20
-4.1577363779527561
11
5.1610671259842515
21
-4.1614859055118112
0
LINE
8
BLACK
6
CONTINUOUS
10
5.1610671259842515
20
-4.1614859055118112
11
5.1573175984251964
21
-4.1652354330708663
0
LINE
8
BLACK
6
CONTINUOUS
10
5.2398072834645664
20
-4.2102298425196851
11
5.2323082283464561
21
-4.20648031496063
0
LINE
8
BLACK
6
CONTINUOUS
10
5.2323082283464561
20
-4.20648031496063
11
5.228558700787401
21
-4.2027307480314962
0
LINE
8
BLACK
6
CONTINUOUS
10
5.228558700787401
20
-4.2027307480314962
11
5.2248091732283459
21
-4.1952316929133859
0
LINE
8
BLACK
6
CONTINUOUS
10
5.2248091732283459
20
-4.1952316929133859
11
5.2248091732283459
21
-4.1727345275590553
0
LINE
8
BLACK
6
CONTINUOUS
10
5.2248091732283459
20
-4.1727345275590553
11
5.228558700787401
21
-4.1652354330708663
0
LINE
8
BLACK
6
CONTINUOUS
10
5.228558700787401
20
-4.1652354330708663
11
5.2323082283464561
21
-4.1614859055118112
0
LINE
8
BLACK
6
CONTINUOUS
10
5.2323082283464561
20
-4.1614859055118112
11
5.2398072834645664
21
-4.1577363779527561
0
LINE
8
BLACK
6
CONTINUOUS
10
5.2398072834645664
20
-4.1577363779527561
11
5.2510559055118113
21
-4.1577363779527561
0
LINE
8
BLACK
6
CONTINUOUS
10
5.2510559055118113
20
-4.1577363779527561
11
5.2585549606299216
21
-4.1614859055118112
0
LINE
8
BLACK
6
CONTINUOUS
10
5.2585549606299216
20
-4.1614859055118112
11
5.2623044881889767
21
-4.1652354330708663
0
LINE
8
BLACK
6
CONTINUOUS
10
5.2623044881889767
20
-4.1652354330708663
11
5.2660540157480318
21
-4.1727345275590553
0
LINE
8
BLACK
6
CONTINUOUS
10
5.2660540157480318
20
-4.1727345275590553
11
5.2660540157480318
21
-4.1952316929133859
0
LINE
8
BLACK
6
CONTINUOUS
10
5.2660540157480318
20
-4.1952316929133859
11
5.2623044881889767
21
-4.2027307480314962
0
LINE
8
BLACK
6
CONTINUOUS
10
5.2623044881889767
20
-4.2027307480314962
11
5.2585549606299216
21
-4.20648031496063
0
LINE
8
BLACK
6
CONTINUOUS
10
5.2585549606299216
20
-4.20648031496063
11
5.2510559055118113
21
-4.2102298425196851
0
LINE
8
BLACK
6
CONTINUOUS
10
5.2510559055118113
20
-4.2102298425196851
11
5.2398072834645664
21
-4.2102298425196851
0
LINE
8
BLACK
6
CONTINUOUS
10
5.3110483858267719
20
-4.2102298425196851
11
5.3035493307086616
21
-4.20648031496063
0
LINE
8
BLACK
6
CONTINUOUS
10
5.3035493307086616
20
-4.20648031496063
11
5.2997998031496065
21
-4.198981220472441
0
LINE
8
BLACK
6
CONTINUOUS
10
5.2997998031496065
20
-4.198981220472441
11
5.2997998031496065
21
-4.1314896850393703
0
LINE
8
BLACK
6
CONTINUOUS
10
5.3710409055118111
20
-4.20648031496063
11
5.3635418503937009
21
-4.2102298425196851
0
LINE
8
BLACK
6
CONTINUOUS
10
5.3635418503937009
20
-4.2102298425196851
11
5.3485437007874017
21
-4.2102298425196851
0
LINE
8
BLACK
6
CONTINUOUS
10
5.3485437007874017
20
-4.2102298425196851
11
5.3410446456692915
21
-4.20648031496063
0
LINE
8
BLACK
6
CONTINUOUS
10
5.3410446456692915
20
-4.20648031496063
11
5.3372951181102364
21
-4.198981220472441
0
LINE
8
BLACK
6
CONTINUOUS
10
5.3372951181102364
20
-4.198981220472441
11
5.3372951181102364
21
-4.1689850000000002
0
LINE
8
BLACK
6
CONTINUOUS
10
5.3372951181102364
20
-4.1689850000000002
11
5.3410446456692915
21
-4.1614859055118112
0
LINE
8
BLACK
6
CONTINUOUS
10
5.3410446456692915
20
-4.1614859055118112
11
5.3485437007874017
21
-4.1577363779527561
0
LINE
8
BLACK
6
CONTINUOUS
10
5.3485437007874017
20
-4.1577363779527561
11
5.3635418503937009
21
-4.1577363779527561
0
LINE
8
BLACK
6
CONTINUOUS
10
5.3635418503937009
20
-4.1577363779527561
11
5.3710409055118111
21
-4.1614859055118112
0
LINE
8
BLACK
6
CONTINUOUS
10
5.3710409055118111
20
-4.1614859055118112
11
5.3747904330708662
21
-4.1689850000000002
0
LINE
8
BLACK
6
CONTINUOUS
10
5.3747904330708662
20
-4.1689850000000002
11
5.3747904330708662
21
-4.1764840551181104
0
LINE
8
BLACK
6
CONTINUOUS
10
5.3747904330708662
20
-4.1764840551181104
11
5.3372951181102364
21
-4.1839831102362206
0
LINE
8
BLACK
6
CONTINUOUS
10
5.4047866929133859
20
-4.20648031496063
11
5.4122857480314961
21
-4.2102298425196851
0
LINE
8
BLACK
6
CONTINUOUS
10
5.4122857480314961
20
-4.2102298425196851
11
5.4272838582677165
21
-4.2102298425196851
0
LINE
8
BLACK
6
CONTINUOUS
10
5.4272838582677165
20
-4.2102298425196851
11
5.4347829527559055
21
-4.20648031496063
0
LINE
8
BLACK
6
CONTINUOUS
10
5.4347829527559055
20
-4.20648031496063
11
5.4385324803149606
21
-4.198981220472441
0
LINE
8
BLACK
6
CONTINUOUS
10
5.4385324803149606
20
-4.198981220472441
11
5.4385324803149606
21
-4.1952316929133859
0
LINE
8
BLACK
6
CONTINUOUS
10
5.4385324803149606
20
-4.1952316929133859
11
5.4347829527559055
21
-4.1877326377952757
0
LINE
8
BLACK
6
CONTINUOUS
10
5.4347829527559055
20
-4.1877326377952757
11
5.4272838582677165
21
-4.1839831102362206
0
LINE
8
BLACK
6
CONTINUOUS
10
5.4272838582677165
20
-4.1839831102362206
11
5.4160352755905512
21
-4.1839831102362206
0
LINE
8
BLACK
6
CONTINUOUS
10
5.4160352755905512
20
-4.1839831102362206
11
5.408536220472441
21
-4.1802335826771655
0
LINE
8
BLACK
6
CONTINUOUS
10
5.408536220472441
20
-4.1802335826771655
11
5.4047866929133859
21
-4.1727345275590553
0
LINE
8
BLACK
6
CONTINUOUS
10
5.4047866929133859
20
-4.1727345275590553
11
5.4047866929133859
21
-4.1689850000000002
0
LINE
8
BLACK
6
CONTINUOUS
10
5.4047866929133859
20
-4.1689850000000002
11
5.408536220472441
21
-4.1614859055118112
0
LINE
8
BLACK
6
CONTINUOUS
10
5.408536220472441
20
-4.1614859055118112
11
5.4160352755905512
21
-4.1577363779527561
0
LINE
8
BLACK
6
CONTINUOUS
10
5.4160352755905512
20
-4.1577363779527561
11
5.4272838582677165
21
-4.1577363779527561
0
LINE
8
BLACK
6
CONTINUOUS
10
5.4272838582677165
20
-4.1577363779527561
11
5.4347829527559055
21
-4.1614859055118112
0
LINE
8
BLACK
6
CONTINUOUS
10
5.4647792125984251
20
-4.240226062992126
11
5.4685287401574803
21
-4.2364765354330709
0
LINE
8
BLACK
6
CONTINUOUS
10
5.4685287401574803
20
-4.2364765354330709
11
5.4760277952755905
21
-4.2252279527559056
0
LINE
8
BLACK
6
CONTINUOUS
10
5.4760277952755905
20
-4.2252279527559056
11
5.4797773228346456
21
-4.2177288976377953
0
LINE
8
BLACK
6
CONTINUOUS
10
5.4797773228346456
20
-4.2177288976377953
11
5.4835268503937007
21
-4.20648031496063
0
LINE
8
BLACK
6
CONTINUOUS
10
5.4835268503937007
20
-4.20648031496063
11
5.4872763779527558
21
-4.1877326377952757
0
LINE
8
BLACK
6
CONTINUOUS
10
5.4872763779527558
20
-4.1877326377952757
11
5.4872763779527558
21
-4.1727345275590553
0
LINE
8
BLACK
6
CONTINUOUS
10
5.4872763779527558
20
-4.1727345275590553
11
5.4835268503937007
21
-4.153986850393701
0
LINE
8
BLACK
6
CONTINUOUS
10
5.4835268503937007
20
-4.153986850393701
11
5.4797773228346456
21
-4.1427382677165356
0
LINE
8
BLACK
6
CONTINUOUS
10
5.4797773228346456
20
-4.1427382677165356
11
5.4760277952755905
21
-4.1352392125984254
0
LINE
8
BLACK
6
CONTINUOUS
10
5.4760277952755905
20
-4.1352392125984254
11
5.4685287401574803
21
-4.1239905905511813
0
LINE
8
BLACK
6
CONTINUOUS
10
5.4685287401574803
20
-4.1239905905511813
11
5.4647792125984251
21
-4.1202410629921262
0
CIRCLE
8
BLACK
10
3.4940944881889764
20
-4.2781496062992126
40
0.015748031496063
0
LINE
8
BLACK
6
CONTINUOUS
10
3.6275086614173229
20
-4.2354266929133857
11
3.6350077559055118
21
-4.2354266929133857
0
LINE
8
BLACK
6
CONTINUOUS
10
3.6350077559055118
20
-4.2354266929133857
11
3.6425068110236221
21
-4.2391762204724408
0
LINE
8
BLACK
6
CONTINUOUS
10
3.6425068110236221
20
-4.2391762204724408
11
3.6462563385826772
21
-4.2429257480314959
0
LINE
8
BLACK
6
CONTINUOUS
10
3.6462563385826772
20
-4.2429257480314959
11
3.6500058661417323
21
-4.2504248031496061
0
LINE
8
BLACK
6
CONTINUOUS
10
3.6500058661417323
20
-4.2504248031496061
11
3.6537553937007874
21
-4.2654229133858266
0
LINE
8
BLACK
6
CONTINUOUS
10
3.6537553937007874
20
-4.2654229133858266
11
3.6537553937007874
21
-4.2841705905511809
0
LINE
8
BLACK
6
CONTINUOUS
10
3.6537553937007874
20
-4.2841705905511809
11
3.6500058661417323
21
-4.2991687007874013
0
LINE
8
BLACK
6
CONTINUOUS
10
3.6500058661417323
20
-4.2991687007874013
11
3.6462563385826772
21
-4.3066677559055115
0
LINE
8
BLACK
6
CONTINUOUS
10
3.6462563385826772
20
-4.3066677559055115
11
3.6425068110236221
21
-4.3104173228346454
0
LINE
8
BLACK
6
CONTINUOUS
10
3.6425068110236221
20
-4.3104173228346454
11
3.6350077559055118
21
-4.3141668503937005
0
LINE
8
BLACK
6
CONTINUOUS
10
3.6350077559055118
20
-4.3141668503937005
11
3.6275086614173229
21
-4.3141668503937005
0
LINE
8
BLACK
6
CONTINUOUS
10
3.6275086614173229
20
-4.3141668503937005
11
3.6200096062992126
21
-4.3104173228346454
0
LINE
8
BLACK
6
CONTINUOUS
10
3.6200096062992126
20
-4.3104173228346454
11
3.6162600787401575
21
-4.3066677559055115
0
LINE
8
BLACK
6
CONTINUOUS
10
3.6162600787401575
20
-4.3066677559055115
11
3.6125105511811024
21
-4.2991687007874013
0
LINE
8
BLACK
6
CONTINUOUS
10
3.6125105511811024
20
-4.2991687007874013
11
3.6087610236220473
21
-4.2841705905511809
0
LINE
8
BLACK
6
CONTINUOUS
10
3.6087610236220473
20
-4.2841705905511809
11
3.6087610236220473
21
-4.2654229133858266
0
LINE
8
BLACK
6
CONTINUOUS
10
3.6087610236220473
20
-4.2654229133858266
11
3.6125105511811024
21
-4.2504248031496061
0
LINE
8
BLACK
6
CONTINUOUS
10
3.6125105511811024
20
-4.2504248031496061
11
3.6162600787401575
21
-4.2429257480314959
0
LINE
8
BLACK
6
CONTINUOUS
10
3.6162600787401575
20
-4.2429257480314959
11
3.6200096062992126
21
-4.2391762204724408
0
LINE
8
BLACK
6
CONTINUOUS
10
3.6200096062992126
20
-4.2391762204724408
11
3.6275086614173229
21
-4.2354266929133857
0
LINE
8
BLACK
6
CONTINUOUS
10
3.6875011811023621
20
-4.3066677559055115
11
3.6912507086614172
21
-4.3104173228346454
0
LINE
8
BLACK
6
CONTINUOUS
10
3.6912507086614172
20
-4.3104173228346454
11
3.6875011811023621
21
-4.3141668503937005
0
LINE
8
BLACK
6
CONTINUOUS
10
3.6875011811023621
20
-4.3141668503937005
11
3.683751653543307
21
-4.3104173228346454
0
LINE
8
BLACK
6
CONTINUOUS
10
3.683751653543307
20
-4.3104173228346454
11
3.6875011811023621
21
-4.3066677559055115
0
LINE
8
BLACK
6
CONTINUOUS
10
3.6875011811023621
20
-4.3066677559055115
11
3.6875011811023621
21
-4.3141668503937005
0
LINE
8
BLACK
6
CONTINUOUS
10
3.7362450787401573
20
-4.2691724409448817
11
3.7287460236220471
21
-4.2654229133858266
0
LINE
8
BLACK
6
CONTINUOUS
10
3.7287460236220471
20
-4.2654229133858266
11
3.724996496062992
21
-4.2616733858267715
0
LINE
8
BLACK
6
CONTINUOUS
10
3.724996496062992
20
-4.2616733858267715
11
3.7212469685039369
21
-4.2541743307086612
0
LINE
8
BLACK
6
CONTINUOUS
10
3.7212469685039369
20
-4.2541743307086612
11
3.7212469685039369
21
-4.2504248031496061
0
LINE
8
BLACK
6
CONTINUOUS
10
3.7212469685039369
20
-4.2504248031496061
11
3.724996496062992
21
-4.2429257480314959
0
LINE
8
BLACK
6
CONTINUOUS
10
3.724996496062992
20
-4.2429257480314959
11
3.7287460236220471
21
-4.2391762204724408
0
LINE
8
BLACK
6
CONTINUOUS
10
3.7287460236220471
20
-4.2391762204724408
11
3.7362450787401573
21
-4.2354266929133857
0
LINE
8
BLACK
6
CONTINUOUS
10
3.7362450787401573
20
-4.2354266929133857
11
3.7512432283464565
21
-4.2354266929133857
0
LINE
8
BLACK
6
CONTINUOUS
10
3.7512432283464565
20
-4.2354266929133857
11
3.7587422834645667
21
-4.2391762204724408
0
LINE
8
BLACK
6
CONTINUOUS
10
3.7587422834645667
20
-4.2391762204724408
11
3.7624918110236218
21
-4.2429257480314959
0
LINE
8
BLACK
6
CONTINUOUS
10
3.7624918110236218
20
-4.2429257480314959
11
3.766241338582677
21
-4.2504248031496061
0
LINE
8
BLACK
6
CONTINUOUS
10
3.766241338582677
20
-4.2504248031496061
11
3.766241338582677
21
-4.2541743307086612
0
LINE
8
BLACK
6
CONTINUOUS
10
3.766241338582677
20
-4.2541743307086612
11
3.7624918110236218
21
-4.2616733858267715
0
LINE
8
BLACK
6
CONTINUOUS
10
3.7624918110236218
20
-4.2616733858267715
11
3.7587422834645667
21
-4.2654229133858266
0
LINE
8
BLACK
6
CONTINUOUS
10
3.7587422834645667
20
-4.2654229133858266
11
3.7512432283464565
21
-4.2691724409448817
0
LINE
8
BLACK
6
CONTINUOUS
10
3.7512432283464565
20
-4.2691724409448817
11
3.7362450787401573
21
-4.2691724409448817
0
LINE
8
BLACK
6
CONTINUOUS
10
3.7362450787401573
20
-4.2691724409448817
11
3.7287460236220471
21
-4.2729220078740155
0
LINE
8
BLACK
6
CONTINUOUS
10
3.7287460236220471
20
-4.2729220078740155
11
3.724996496062992
21
-4.2766715354330707
0
LINE
8
BLACK
6
CONTINUOUS
10
3.724996496062992
20
-4.2766715354330707
11
3.7212469685039369
21
-4.2841705905511809
0
LINE
8
BLACK
6
CONTINUOUS
10
3.7212469685039369
20
-4.2841705905511809
11
3.7212469685039369
21
-4.2991687007874013
0
LINE
8
BLACK
6
CONTINUOUS
10
3.7212469685039369
20
-4.2991687007874013
11
3.724996496062992
21
-4.3066677559055115
0
LINE
8
BLACK
6
CONTINUOUS
10
3.724996496062992
20
-4.3066677559055115
11
3.7287460236220471
21
-4.3104173228346454
0
LINE
8
BLACK
6
CONTINUOUS
10
3.7287460236220471
20
-4.3104173228346454
11
3.7362450787401573
21
-4.3141668503937005
0
LINE
8
BLACK
6
CONTINUOUS
10
3.7362450787401573
20
-4.3141668503937005
11
3.7512432283464565
21
-4.3141668503937005
0
LINE
8
BLACK
6
CONTINUOUS
10
3.7512432283464565
20
-4.3141668503937005
11
3.7587422834645667
21
-4.3104173228346454
0
LINE
8
BLACK
6
CONTINUOUS
10
3.7587422834645667
20
-4.3104173228346454
11
3.7624918110236218
21
-4.3066677559055115
0
LINE
8
BLACK
6
CONTINUOUS
10
3.7624918110236218
20
-4.3066677559055115
11
3.766241338582677
21
-4.2991687007874013
0
LINE
8
BLACK
6
CONTINUOUS
10
3.766241338582677
20
-4.2991687007874013
11
3.766241338582677
21
-4.2841705905511809
0
LINE
8
BLACK
6
CONTINUOUS
10
3.766241338582677
20
-4.2841705905511809
11
3.7624918110236218
21
-4.2766715354330707
0
LINE
8
BLACK
6
CONTINUOUS
10
3.7624918110236218
20
-4.2766715354330707
11
3.7587422834645667
21
-4.2729220078740155
0
LINE
8
BLACK
6
CONTINUOUS
10
3.7587422834645667
20
-4.2729220078740155
11
3.7512432283464565
21
-4.2691724409448817
0
LINE
8
BLACK
6
CONTINUOUS
10
3.8149852362204721
20
-4.2354266929133857
11
3.8224843307086611
21
-4.2354266929133857
0
LINE
8
BLACK
6
CONTINUOUS
10
3.8224843307086611
20
-4.2354266929133857
11
3.8299833858267718
21
-4.2391762204724408
0
LINE
8
BLACK
6
CONTINUOUS
10
3.8299833858267718
20
-4.2391762204724408
11
3.8337329133858269
21
-4.2429257480314959
0
LINE
8
BLACK
6
CONTINUOUS
10
3.8337329133858269
20
-4.2429257480314959
11
3.837482440944882
21
-4.2504248031496061
0
LINE
8
BLACK
6
CONTINUOUS
10
3.837482440944882
20
-4.2504248031496061
11
3.8412319685039371
21
-4.2654229133858266
0
LINE
8
BLACK
6
CONTINUOUS
10
3.8412319685039371
20
-4.2654229133858266
11
3.8412319685039371
21
-4.2841705905511809
0
LINE
8
BLACK
6
CONTINUOUS
10
3.8412319685039371
20
-4.2841705905511809
11
3.837482440944882
21
-4.2991687007874013
0
LINE
8
BLACK
6
CONTINUOUS
10
3.837482440944882
20
-4.2991687007874013
11
3.8337329133858269
21
-4.3066677559055115
0
LINE
8
BLACK
6
CONTINUOUS
10
3.8337329133858269
20
-4.3066677559055115
11
3.8299833858267718
21
-4.3104173228346454
0
LINE
8
BLACK
6
CONTINUOUS
10
3.8299833858267718
20
-4.3104173228346454
11
3.8224843307086611
21
-4.3141668503937005
0
LINE
8
BLACK
6
CONTINUOUS
10
3.8224843307086611
20
-4.3141668503937005
11
3.8149852362204721
21
-4.3141668503937005
0
LINE
8
BLACK
6
CONTINUOUS
10
3.8149852362204721
20
-4.3141668503937005
11
3.8074861811023619
21
-4.3104173228346454
0
LINE
8
BLACK
6
CONTINUOUS
10
3.8074861811023619
20
-4.3104173228346454
11
3.8037366535433068
21
-4.3066677559055115
0
LINE
8
BLACK
6
CONTINUOUS
10
3.8037366535433068
20
-4.3066677559055115
11
3.7999871259842517
21
-4.2991687007874013
0
LINE
8
BLACK
6
CONTINUOUS
10
3.7999871259842517
20
-4.2991687007874013
11
3.7962375984251966
21
-4.2841705905511809
0
LINE
8
BLACK
6
CONTINUOUS
10
3.7962375984251966
20
-4.2841705905511809
11
3.7962375984251966
21
-4.2654229133858266
0
LINE
8
BLACK
6
CONTINUOUS
10
3.7962375984251966
20
-4.2654229133858266
11
3.7999871259842517
21
-4.2504248031496061
0
LINE
8
BLACK
6
CONTINUOUS
10
3.7999871259842517
20
-4.2504248031496061
11
3.8037366535433068
21
-4.2429257480314959
0
LINE
8
BLACK
6
CONTINUOUS
10
3.8037366535433068
20
-4.2429257480314959
11
3.8074861811023619
21
-4.2391762204724408
0
LINE
8
BLACK
6
CONTINUOUS
10
3.8074861811023619
20
-4.2391762204724408
11
3.8149852362204721
21
-4.2354266929133857
0
LINE
8
BLACK
6
CONTINUOUS
10
3.8899758661417323
20
-4.2354266929133857
11
3.8974749606299213
21
-4.2354266929133857
0
LINE
8
BLACK
6
CONTINUOUS
10
3.8974749606299213
20
-4.2354266929133857
11
3.9049740157480315
21
-4.2391762204724408
0
LINE
8
BLACK
6
CONTINUOUS
10
3.9049740157480315
20
-4.2391762204724408
11
3.9087235433070866
21
-4.2429257480314959
0
LINE
8
BLACK
6
CONTINUOUS
10
3.9087235433070866
20
-4.2429257480314959
11
3.9124730708661417
21
-4.2504248031496061
0
LINE
8
BLACK
6
CONTINUOUS
10
3.9124730708661417
20
-4.2504248031496061
11
3.9162225984251968
21
-4.2654229133858266
0
LINE
8
BLACK
6
CONTINUOUS
10
3.9162225984251968
20
-4.2654229133858266
11
3.9162225984251968
21
-4.2841705905511809
0
LINE
8
BLACK
6
CONTINUOUS
10
3.9162225984251968
20
-4.2841705905511809
11
3.9124730708661417
21
-4.2991687007874013
0
LINE
8
BLACK
6
CONTINUOUS
10
3.9124730708661417
20
-4.2991687007874013
11
3.9087235433070866
21
-4.3066677559055115
0
LINE
8
BLACK
6
CONTINUOUS
10
3.9087235433070866
20
-4.3066677559055115
11
3.9049740157480315
21
-4.3104173228346454
0
LINE
8
BLACK
6
CONTINUOUS
10
3.9049740157480315
20
-4.3104173228346454
11
3.8974749606299213
21
-4.3141668503937005
0
LINE
8
BLACK
6
CONTINUOUS
10
3.8974749606299213
20
-4.3141668503937005
11
3.8899758661417323
21
-4.3141668503937005
0
LINE
8
BLACK
6
CONTINUOUS
10
3.8899758661417323
20
-4.3141668503937005
11
3.8824768110236221
21
-4.3104173228346454
0
LINE
8
BLACK
6
CONTINUOUS
10
3.8824768110236221
20
-4.3104173228346454
11
3.878727283464567
21
-4.3066677559055115
0
LINE
8
BLACK
6
CONTINUOUS
10
3.878727283464567
20
-4.3066677559055115
11
3.8749777559055119
21
-4.2991687007874013
0
LINE
8
BLACK
6
CONTINUOUS
10
3.8749777559055119
20
-4.2991687007874013
11
3.8712282283464567
21
-4.2841705905511809
0
LINE
8
BLACK
6
CONTINUOUS
10
3.8712282283464567
20
-4.2841705905511809
11
3.8712282283464567
21
-4.2654229133858266
0
LINE
8
BLACK
6
CONTINUOUS
10
3.8712282283464567
20
-4.2654229133858266
11
3.8749777559055119
21
-4.2504248031496061
0
LINE
8
BLACK
6
CONTINUOUS
10
3.8749777559055119
20
-4.2504248031496061
11
3.878727283464567
21
-4.2429257480314959
0
LINE
8
BLACK
6
CONTINUOUS
10
3.878727283464567
20
-4.2429257480314959
11
3.8824768110236221
21
-4.2391762204724408
0
LINE
8
BLACK
6
CONTINUOUS
10
3.8824768110236221
20
-4.2391762204724408
11
3.8899758661417323
21
-4.2354266929133857
0
LINE
8
BLACK
6
CONTINUOUS
10
3.9499683858267716
20
-4.3141668503937005
11
3.9499683858267716
21
-4.2616733858267715
0
LINE
8
BLACK
6
CONTINUOUS
10
3.9499683858267716
20
-4.2691724409448817
11
3.9537179133858267
21
-4.2654229133858266
0
LINE
8
BLACK
6
CONTINUOUS
10
3.9537179133858267
20
-4.2654229133858266
11
3.9612169685039369
21
-4.2616733858267715
0
LINE
8
BLACK
6
CONTINUOUS
10
3.9612169685039369
20
-4.2616733858267715
11
3.972465590551181
21
-4.2616733858267715
0
LINE
8
BLACK
6
CONTINUOUS
10
3.972465590551181
20
-4.2616733858267715
11
3.9799646456692912
21
-4.2654229133858266
0
LINE
8
BLACK
6
CONTINUOUS
10
3.9799646456692912
20
-4.2654229133858266
11
3.9837141732283463
21
-4.2729220078740155
0
LINE
8
BLACK
6
CONTINUOUS
10
3.9837141732283463
20
-4.2729220078740155
11
3.9837141732283463
21
-4.3141668503937005
0
LINE
8
BLACK
6
CONTINUOUS
10
3.9837141732283463
20
-4.2729220078740155
11
3.9874637007874014
21
-4.2654229133858266
0
LINE
8
BLACK
6
CONTINUOUS
10
3.9874637007874014
20
-4.2654229133858266
11
3.9949627559055116
21
-4.2616733858267715
0
LINE
8
BLACK
6
CONTINUOUS
10
3.9949627559055116
20
-4.2616733858267715
11
4.006211338582677
21
-4.2616733858267715
0
LINE
8
BLACK
6
CONTINUOUS
10
4.006211338582677
20
-4.2616733858267715
11
4.0137104330708659
21
-4.2654229133858266
0
LINE
8
BLACK
6
CONTINUOUS
10
4.0137104330708659
20
-4.2654229133858266
11
4.0174599606299211
21
-4.2729220078740155
0
LINE
8
BLACK
6
CONTINUOUS
10
4.0174599606299211
20
-4.2729220078740155
11
4.0174599606299211
21
-4.3141668503937005
0
LINE
8
BLACK
6
CONTINUOUS
10
4.0549552755905509
20
-4.3141668503937005
11
4.0549552755905509
21
-4.2616733858267715
0
LINE
8
BLACK
6
CONTINUOUS
10
4.0549552755905509
20
-4.2691724409448817
11
4.058704803149606
21
-4.2654229133858266
0
LINE
8
BLACK
6
CONTINUOUS
10
4.058704803149606
20
-4.2654229133858266
11
4.0662038582677162
21
-4.2616733858267715
0
LINE
8
BLACK
6
CONTINUOUS
10
4.0662038582677162
20
-4.2616733858267715
11
4.0774524803149603
21
-4.2616733858267715
0
LINE
8
BLACK
6
CONTINUOUS
10
4.0774524803149603
20
-4.2616733858267715
11
4.0849515354330705
21
-4.2654229133858266
0
LINE
8
BLACK
6
CONTINUOUS
10
4.0849515354330705
20
-4.2654229133858266
11
4.0887010629921257
21
-4.2729220078740155
0
LINE
8
BLACK
6
CONTINUOUS
10
4.0887010629921257
20
-4.2729220078740155
11
4.0887010629921257
21
-4.3141668503937005
0
LINE
8
BLACK
6
CONTINUOUS
10
4.0887010629921257
20
-4.2729220078740155
11
4.0924505905511808
21
-4.2654229133858266
0
LINE
8
BLACK
6
CONTINUOUS
10
4.0924505905511808
20
-4.2654229133858266
11
4.099949645669291
21
-4.2616733858267715
0
LINE
8
BLACK
6
CONTINUOUS
10
4.099949645669291
20
-4.2616733858267715
11
4.1111982283464563
21
-4.2616733858267715
0
LINE
8
BLACK
6
CONTINUOUS
10
4.1111982283464563
20
-4.2616733858267715
11
4.1186973228346453
21
-4.2654229133858266
0
LINE
8
BLACK
6
CONTINUOUS
10
4.1186973228346453
20
-4.2654229133858266
11
4.1224468503937004
21
-4.2729220078740155
0
LINE
8
BLACK
6
CONTINUOUS
10
4.1224468503937004
20
-4.2729220078740155
11
4.1224468503937004
21
-4.3141668503937005
0
LINE
8
BLACK
6
CONTINUOUS
10
4.2761776377952758
20
-4.2316771653543306
11
4.2086861023622042
21
-4.3329144881889761
0
LINE
8
BLACK
6
CONTINUOUS
10
4.3774150000000001
20
-4.2354266929133857
11
4.384914094488189
21
-4.2354266929133857
0
LINE
8
BLACK
6
CONTINUOUS
10
4.384914094488189
20
-4.2354266929133857
11
4.3924131496062992
21
-4.2391762204724408
0
LINE
8
BLACK
6
CONTINUOUS
10
4.3924131496062992
20
-4.2391762204724408
11
4.3961626771653544
21
-4.2429257480314959
0
LINE
8
BLACK
6
CONTINUOUS
10
4.3961626771653544
20
-4.2429257480314959
11
4.3999122047244095
21
-4.2504248031496061
0
LINE
8
BLACK
6
CONTINUOUS
10
4.3999122047244095
20
-4.2504248031496061
11
4.4036617322834646
21
-4.2654229133858266
0
LINE
8
BLACK
6
CONTINUOUS
10
4.4036617322834646
20
-4.2654229133858266
11
4.4036617322834646
21
-4.2841705905511809
0
LINE
8
BLACK
6
CONTINUOUS
10
4.4036617322834646
20
-4.2841705905511809
11
4.3999122047244095
21
-4.2991687007874013
0
LINE
8
BLACK
6
CONTINUOUS
10
4.3999122047244095
20
-4.2991687007874013
11
4.3961626771653544
21
-4.3066677559055115
0
LINE
8
BLACK
6
CONTINUOUS
10
4.3961626771653544
20
-4.3066677559055115
11
4.3924131496062992
21
-4.3104173228346454
0
LINE
8
BLACK
6
CONTINUOUS
10
4.3924131496062992
20
-4.3104173228346454
11
4.384914094488189
21
-4.3141668503937005
0
LINE
8
BLACK
6
CONTINUOUS
10
4.384914094488189
20
-4.3141668503937005
11
4.3774150000000001
21
-4.3141668503937005
0
LINE
8
BLACK
6
CONTINUOUS
10
4.3774150000000001
20
-4.3141668503937005
11
4.3699159448818898
21
-4.3104173228346454
0
LINE
8
BLACK
6
CONTINUOUS
10
4.3699159448818898
20
-4.3104173228346454
11
4.3661664173228347
21
-4.3066677559055115
0
LINE
8
BLACK
6
CONTINUOUS
10
4.3661664173228347
20
-4.3066677559055115
11
4.3624168897637796
21
-4.2991687007874013
0
LINE
8
BLACK
6
CONTINUOUS
10
4.3624168897637796
20
-4.2991687007874013
11
4.3586673622047245
21
-4.2841705905511809
0
LINE
8
BLACK
6
CONTINUOUS
10
4.3586673622047245
20
-4.2841705905511809
11
4.3586673622047245
21
-4.2654229133858266
0
LINE
8
BLACK
6
CONTINUOUS
10
4.3586673622047245
20
-4.2654229133858266
11
4.3624168897637796
21
-4.2504248031496061
0
LINE
8
BLACK
6
CONTINUOUS
10
4.3624168897637796
20
-4.2504248031496061
11
4.3661664173228347
21
-4.2429257480314959
0
LINE
8
BLACK
6
CONTINUOUS
10
4.3661664173228347
20
-4.2429257480314959
11
4.3699159448818898
21
-4.2391762204724408
0
LINE
8
BLACK
6
CONTINUOUS
10
4.3699159448818898
20
-4.2391762204724408
11
4.3774150000000001
21
-4.2354266929133857
0
LINE
8
BLACK
6
CONTINUOUS
10
4.4374075196850393
20
-4.3066677559055115
11
4.4411570472440944
21
-4.3104173228346454
0
LINE
8
BLACK
6
CONTINUOUS
10
4.4411570472440944
20
-4.3104173228346454
11
4.4374075196850393
21
-4.3141668503937005
0
LINE
8
BLACK
6
CONTINUOUS
10
4.4374075196850393
20
-4.3141668503937005
11
4.4336579921259842
21
-4.3104173228346454
0
LINE
8
BLACK
6
CONTINUOUS
10
4.4336579921259842
20
-4.3104173228346454
11
4.4374075196850393
21
-4.3066677559055115
0
LINE
8
BLACK
6
CONTINUOUS
10
4.4374075196850393
20
-4.3066677559055115
11
4.4374075196850393
21
-4.3141668503937005
0
LINE
8
BLACK
6
CONTINUOUS
10
4.4899009448818896
20
-4.2354266929133857
11
4.4974000393700786
21
-4.2354266929133857
0
LINE
8
BLACK
6
CONTINUOUS
10
4.4974000393700786
20
-4.2354266929133857
11
4.5048990944881888
21
-4.2391762204724408
0
LINE
8
BLACK
6
CONTINUOUS
10
4.5048990944881888
20
-4.2391762204724408
11
4.5086486220472439
21
-4.2429257480314959
0
LINE
8
BLACK
6
CONTINUOUS
10
4.5086486220472439
20
-4.2429257480314959
11
4.512398149606299
21
-4.2504248031496061
0
LINE
8
BLACK
6
CONTINUOUS
10
4.512398149606299
20
-4.2504248031496061
11
4.5161476771653541
21
-4.2654229133858266
0
LINE
8
BLACK
6
CONTINUOUS
10
4.5161476771653541
20
-4.2654229133858266
11
4.5161476771653541
21
-4.2841705905511809
0
LINE
8
BLACK
6
CONTINUOUS
10
4.5161476771653541
20
-4.2841705905511809
11
4.512398149606299
21
-4.2991687007874013
0
LINE
8
BLACK
6
CONTINUOUS
10
4.512398149606299
20
-4.2991687007874013
11
4.5086486220472439
21
-4.3066677559055115
0
LINE
8
BLACK
6
CONTINUOUS
10
4.5086486220472439
20
-4.3066677559055115
11
4.5048990944881888
21
-4.3104173228346454
0
LINE
8
BLACK
6
CONTINUOUS
10
4.5048990944881888
20
-4.3104173228346454
11
4.4974000393700786
21
-4.3141668503937005
0
LINE
8
BLACK
6
CONTINUOUS
10
4.4974000393700786
20
-4.3141668503937005
11
4.4899009448818896
21
-4.3141668503937005
0
LINE
8
BLACK
6
CONTINUOUS
10
4.4899009448818896
20
-4.3141668503937005
11
4.4824018897637794
21
-4.3104173228346454
0
LINE
8
BLACK
6
CONTINUOUS
10
4.4824018897637794
20
-4.3104173228346454
11
4.4786523622047243
21
-4.3066677559055115
0
LINE
8
BLACK
6
CONTINUOUS
10
4.4786523622047243
20
-4.3066677559055115
11
4.4749028346456692
21
-4.2991687007874013
0
LINE
8
BLACK
6
CONTINUOUS
10
4.4749028346456692
20
-4.2991687007874013
11
4.4711533070866141
21
-4.2841705905511809
0
LINE
8
BLACK
6
CONTINUOUS
10
4.4711533070866141
20
-4.2841705905511809
11
4.4711533070866141
21
-4.2654229133858266
0
LINE
8
BLACK
6
CONTINUOUS
10
4.4711533070866141
20
-4.2654229133858266
11
4.4749028346456692
21
-4.2504248031496061
0
LINE
8
BLACK
6
CONTINUOUS
10
4.4749028346456692
20
-4.2504248031496061
11
4.4786523622047243
21
-4.2429257480314959
0
LINE
8
BLACK
6
CONTINUOUS
10
4.4786523622047243
20
-4.2429257480314959
11
4.4824018897637794
21
-4.2391762204724408
0
LINE
8
BLACK
6
CONTINUOUS
10
4.4824018897637794
20
-4.2391762204724408
11
4.4899009448818896
21
-4.2354266929133857
0
LINE
8
BLACK
6
CONTINUOUS
10
4.5423944094488187
20
-4.2354266929133857
11
4.5911383070866139
21
-4.2354266929133857
0
LINE
8
BLACK
6
CONTINUOUS
10
4.5911383070866139
20
-4.2354266929133857
11
4.5648915748031493
21
-4.2654229133858266
0
LINE
8
BLACK
6
CONTINUOUS
10
4.5648915748031493
20
-4.2654229133858266
11
4.5761401968503934
21
-4.2654229133858266
0
LINE
8
BLACK
6
CONTINUOUS
10
4.5761401968503934
20
-4.2654229133858266
11
4.5836392519685036
21
-4.2691724409448817
0
LINE
8
BLACK
6
CONTINUOUS
10
4.5836392519685036
20
-4.2691724409448817
11
4.5873887795275587
21
-4.2729220078740155
0
LINE
8
BLACK
6
CONTINUOUS
10
4.5873887795275587
20
-4.2729220078740155
11
4.5911383070866139
21
-4.2804210629921258
0
LINE
8
BLACK
6
CONTINUOUS
10
4.5911383070866139
20
-4.2804210629921258
11
4.5911383070866139
21
-4.2991687007874013
0
LINE
8
BLACK
6
CONTINUOUS
10
4.5911383070866139
20
-4.2991687007874013
11
4.5873887795275587
21
-4.3066677559055115
0
LINE
8
BLACK
6
CONTINUOUS
10
4.5873887795275587
20
-4.3066677559055115
11
4.5836392519685036
21
-4.3104173228346454
0
LINE
8
BLACK
6
CONTINUOUS
10
4.5836392519685036
20
-4.3104173228346454
11
4.5761401968503934
21
-4.3141668503937005
0
LINE
8
BLACK
6
CONTINUOUS
10
4.5761401968503934
20
-4.3141668503937005
11
4.553642992125984
21
-4.3141668503937005
0
LINE
8
BLACK
6
CONTINUOUS
10
4.553642992125984
20
-4.3141668503937005
11
4.5461439370078738
21
-4.3104173228346454
0
LINE
8
BLACK
6
CONTINUOUS
10
4.5461439370078738
20
-4.3104173228346454
11
4.5423944094488187
21
-4.3066677559055115
0
LINE
8
BLACK
6
CONTINUOUS
10
4.6661289370078736
20
-4.3141668503937005
11
4.6211345669291335
21
-4.3141668503937005
0
LINE
8
BLACK
6
CONTINUOUS
10
4.6436317322834642
20
-4.3141668503937005
11
4.6436317322834642
21
-4.2354266929133857
0
LINE
8
BLACK
6
CONTINUOUS
10
4.6436317322834642
20
-4.2354266929133857
11
4.6361326771653539
21
-4.246675275590551
0
LINE
8
BLACK
6
CONTINUOUS
10
4.6361326771653539
20
-4.246675275590551
11
4.6286336220472437
21
-4.2541743307086612
0
LINE
8
BLACK
6
CONTINUOUS
10
4.6286336220472437
20
-4.2541743307086612
11
4.6211345669291335
21
-4.2579238582677164
0
LINE
8
BLACK
6
CONTINUOUS
10
4.7373700393700791
20
-4.2354266929133857
11
4.6998747244094483
21
-4.2354266929133857
0
LINE
8
BLACK
6
CONTINUOUS
10
4.6998747244094483
20
-4.2354266929133857
11
4.6961251968503932
21
-4.2729220078740155
0
LINE
8
BLACK
6
CONTINUOUS
10
4.6961251968503932
20
-4.2729220078740155
11
4.6998747244094483
21
-4.2691724409448817
0
LINE
8
BLACK
6
CONTINUOUS
10
4.6998747244094483
20
-4.2691724409448817
11
4.7073737795275585
21
-4.2654229133858266
0
LINE
8
BLACK
6
CONTINUOUS
10
4.7073737795275585
20
-4.2654229133858266
11
4.7261214566929128
21
-4.2654229133858266
0
LINE
8
BLACK
6
CONTINUOUS
10
4.7261214566929128
20
-4.2654229133858266
11
4.7336205118110239
21
-4.2691724409448817
0
LINE
8
BLACK
6
CONTINUOUS
10
4.7336205118110239
20
-4.2691724409448817
11
4.7373700393700791
21
-4.2729220078740155
0
LINE
8
BLACK
6
CONTINUOUS
10
4.7373700393700791
20
-4.2729220078740155
11
4.7411195669291342
21
-4.2804210629921258
0
LINE
8
BLACK
6
CONTINUOUS
10
4.7411195669291342
20
-4.2804210629921258
11
4.7411195669291342
21
-4.2991687007874013
0
LINE
8
BLACK
6
CONTINUOUS
10
4.7411195669291342
20
-4.2991687007874013
11
4.7373700393700791
21
-4.3066677559055115
0
LINE
8
BLACK
6
CONTINUOUS
10
4.7373700393700791
20
-4.3066677559055115
11
4.7336205118110239
21
-4.3104173228346454
0
LINE
8
BLACK
6
CONTINUOUS
10
4.7336205118110239
20
-4.3104173228346454
11
4.7261214566929128
21
-4.3141668503937005
0
LINE
8
BLACK
6
CONTINUOUS
10
4.7261214566929128
20
-4.3141668503937005
11
4.7073737795275585
21
-4.3141668503937005
0
LINE
8
BLACK
6
CONTINUOUS
10
4.7073737795275585
20
-4.3141668503937005
11
4.6998747244094483
21
-4.3104173228346454
0
LINE
8
BLACK
6
CONTINUOUS
10
4.6998747244094483
20
-4.3104173228346454
11
4.6961251968503932
21
-4.3066677559055115
0
LINE
8
BLACK
6
CONTINUOUS
10
4.7711158267716538
20
-4.2354266929133857
11
4.7711158267716538
21
-4.2504248031496061
0
LINE
8
BLACK
6
CONTINUOUS
10
4.8011120866141734
20
-4.2354266929133857
11
4.8011120866141734
21
-4.2504248031496061
0
LINE
8
BLACK
6
CONTINUOUS
10
4.9173475984251969
20
-4.3441630708661414
11
4.913598031496063
21
-4.3404135433070863
0
LINE
8
BLACK
6
CONTINUOUS
10
4.913598031496063
20
-4.3404135433070863
11
4.9060989763779528
21
-4.329164960629921
0
LINE
8
BLACK
6
CONTINUOUS
10
4.9060989763779528
20
-4.329164960629921
11
4.9023494488188977
21
-4.3216659055118107
0
LINE
8
BLACK
6
CONTINUOUS
10
4.9023494488188977
20
-4.3216659055118107
11
4.8985999212598426
21
-4.3104173228346454
0
LINE
8
BLACK
6
CONTINUOUS
10
4.8985999212598426
20
-4.3104173228346454
11
4.8948503937007874
21
-4.2916696456692911
0
LINE
8
BLACK
6
CONTINUOUS
10
4.8948503937007874
20
-4.2916696456692911
11
4.8948503937007874
21
-4.2766715354330707
0
LINE
8
BLACK
6
CONTINUOUS
10
4.8948503937007874
20
-4.2766715354330707
11
4.8985999212598426
21
-4.2579238582677164
0
LINE
8
BLACK
6
CONTINUOUS
10
4.8985999212598426
20
-4.2579238582677164
11
4.9023494488188977
21
-4.246675275590551
0
LINE
8
BLACK
6
CONTINUOUS
10
4.9023494488188977
20
-4.246675275590551
11
4.9060989763779528
21
-4.2391762204724408
0
LINE
8
BLACK
6
CONTINUOUS
10
4.9060989763779528
20
-4.2391762204724408
11
4.913598031496063
21
-4.2279275984251967
0
LINE
8
BLACK
6
CONTINUOUS
10
4.913598031496063
20
-4.2279275984251967
11
4.9173475984251969
21
-4.2241780708661416
0
LINE
8
BLACK
6
CONTINUOUS
10
4.9435942913385826
20
-4.2429257480314959
11
4.9473438188976377
21
-4.2391762204724408
0
LINE
8
BLACK
6
CONTINUOUS
10
4.9473438188976377
20
-4.2391762204724408
11
4.954842874015748
21
-4.2354266929133857
0
LINE
8
BLACK
6
CONTINUOUS
10
4.954842874015748
20
-4.2354266929133857
11
4.9735905511811023
21
-4.2354266929133857
0
LINE
8
BLACK
6
CONTINUOUS
10
4.9735905511811023
20
-4.2354266929133857
11
4.9810896062992125
21
-4.2391762204724408
0
LINE
8
BLACK
6
CONTINUOUS
10
4.9810896062992125
20
-4.2391762204724408
11
4.9848391338582676
21
-4.2429257480314959
0
LINE
8
BLACK
6
CONTINUOUS
10
4.9848391338582676
20
-4.2429257480314959
11
4.9885886614173227
21
-4.2504248031496061
0
LINE
8
BLACK
6
CONTINUOUS
10
4.9885886614173227
20
-4.2504248031496061
11
4.9885886614173227
21
-4.2579238582677164
0
LINE
8
BLACK
6
CONTINUOUS
10
4.9885886614173227
20
-4.2579238582677164
11
4.9848391338582676
21
-4.2691724409448817
0
LINE
8
BLACK
6
CONTINUOUS
10
4.9848391338582676
20
-4.2691724409448817
11
4.9398447637795275
21
-4.3141668503937005
0
LINE
8
BLACK
6
CONTINUOUS
10
4.9398447637795275
20
-4.3141668503937005
11
4.9885886614173227
21
-4.3141668503937005
0
LINE
8
BLACK
6
CONTINUOUS
10
5.0823269685039367
20
-4.3141668503937005
11
5.0823269685039367
21
-4.2354266929133857
0
LINE
8
BLACK
6
CONTINUOUS
10
5.1160727559055115
20
-4.3141668503937005
11
5.1160727559055115
21
-4.2729220078740155
0
LINE
8
BLACK
6
CONTINUOUS
10
5.1160727559055115
20
-4.2729220078740155
11
5.1123232283464564
21
-4.2654229133858266
0
LINE
8
BLACK
6
CONTINUOUS
10
5.1123232283464564
20
-4.2654229133858266
11
5.1048241732283461
21
-4.2616733858267715
0
LINE
8
BLACK
6
CONTINUOUS
10
5.1048241732283461
20
-4.2616733858267715
11
5.0935755511811021
21
-4.2616733858267715
0
LINE
8
BLACK
6
CONTINUOUS
10
5.0935755511811021
20
-4.2616733858267715
11
5.0860764960629918
21
-4.2654229133858266
0
LINE
8
BLACK
6
CONTINUOUS
10
5.0860764960629918
20
-4.2654229133858266
11
5.0823269685039367
21
-4.2691724409448817
0
LINE
8
BLACK
6
CONTINUOUS
10
5.1648166535433067
20
-4.3141668503937005
11
5.1573175984251964
21
-4.3104173228346454
0
LINE
8
BLACK
6
CONTINUOUS
10
5.1573175984251964
20
-4.3104173228346454
11
5.1535680708661413
21
-4.3066677559055115
0
LINE
8
BLACK
6
CONTINUOUS
10
5.1535680708661413
20
-4.3066677559055115
11
5.1498185433070862
21
-4.2991687007874013
0
LINE
8
BLACK
6
CONTINUOUS
10
5.1498185433070862
20
-4.2991687007874013
11
5.1498185433070862
21
-4.2766715354330707
0
LINE
8
BLACK
6
CONTINUOUS
10
5.1498185433070862
20
-4.2766715354330707
11
5.1535680708661413
21
-4.2691724409448817
0
LINE
8
BLACK
6
CONTINUOUS
10
5.1535680708661413
20
-4.2691724409448817
11
5.1573175984251964
21
-4.2654229133858266
0
LINE
8
BLACK
6
CONTINUOUS
10
5.1573175984251964
20
-4.2654229133858266
11
5.1648166535433067
21
-4.2616733858267715
0
LINE
8
BLACK
6
CONTINUOUS
10
5.1648166535433067
20
-4.2616733858267715
11
5.1760652755905507
21
-4.2616733858267715
0
LINE
8
BLACK
6
CONTINUOUS
10
5.1760652755905507
20
-4.2616733858267715
11
5.183564330708661
21
-4.2654229133858266
0
LINE
8
BLACK
6
CONTINUOUS
10
5.183564330708661
20
-4.2654229133858266
11
5.1873138582677161
21
-4.2691724409448817
0
LINE
8
BLACK
6
CONTINUOUS
10
5.1873138582677161
20
-4.2691724409448817
11
5.1910633858267712
21
-4.2766715354330707
0
LINE
8
BLACK
6
CONTINUOUS
10
5.1910633858267712
20
-4.2766715354330707
11
5.1910633858267712
21
-4.2991687007874013
0
LINE
8
BLACK
6
CONTINUOUS
10
5.1910633858267712
20
-4.2991687007874013
11
5.1873138582677161
21
-4.3066677559055115
0
LINE
8
BLACK
6
CONTINUOUS
10
5.1873138582677161
20
-4.3066677559055115
11
5.183564330708661
21
-4.3104173228346454
0
LINE
8
BLACK
6
CONTINUOUS
10
5.183564330708661
20
-4.3104173228346454
11
5.1760652755905507
21
-4.3141668503937005
0
LINE
8
BLACK
6
CONTINUOUS
10
5.1760652755905507
20
-4.3141668503937005
11
5.1648166535433067
21
-4.3141668503937005
0
LINE
8
BLACK
6
CONTINUOUS
10
5.2360577559055113
20
-4.3141668503937005
11
5.228558700787401
21
-4.3104173228346454
0
LINE
8
BLACK
6
CONTINUOUS
10
5.228558700787401
20
-4.3104173228346454
11
5.2248091732283459
21
-4.3029182283464564
0
LINE
8
BLACK
6
CONTINUOUS
10
5.2248091732283459
20
-4.3029182283464564
11
5.2248091732283459
21
-4.2354266929133857
0
LINE
8
BLACK
6
CONTINUOUS
10
5.2960502755905514
20
-4.3104173228346454
11
5.2885512204724412
21
-4.3141668503937005
0
LINE
8
BLACK
6
CONTINUOUS
10
5.2885512204724412
20
-4.3141668503937005
11
5.273553070866142
21
-4.3141668503937005
0
LINE
8
BLACK
6
CONTINUOUS
10
5.273553070866142
20
-4.3141668503937005
11
5.2660540157480318
21
-4.3104173228346454
0
LINE
8
BLACK
6
CONTINUOUS
10
5.2660540157480318
20
-4.3104173228346454
11
5.2623044881889767
21
-4.3029182283464564
0
LINE
8
BLACK
6
CONTINUOUS
10
5.2623044881889767
20
-4.3029182283464564
11
5.2623044881889767
21
-4.2729220078740155
0
LINE
8
BLACK
6
CONTINUOUS
10
5.2623044881889767
20
-4.2729220078740155
11
5.2660540157480318
21
-4.2654229133858266
0
LINE
8
BLACK
6
CONTINUOUS
10
5.2660540157480318
20
-4.2654229133858266
11
5.273553070866142
21
-4.2616733858267715
0
LINE
8
BLACK
6
CONTINUOUS
10
5.273553070866142
20
-4.2616733858267715
11
5.2885512204724412
21
-4.2616733858267715
0
LINE
8
BLACK
6
CONTINUOUS
10
5.2885512204724412
20
-4.2616733858267715
11
5.2960502755905514
21
-4.2654229133858266
0
LINE
8
BLACK
6
CONTINUOUS
10
5.2960502755905514
20
-4.2654229133858266
11
5.2997998031496065
21
-4.2729220078740155
0
LINE
8
BLACK
6
CONTINUOUS
10
5.2997998031496065
20
-4.2729220078740155
11
5.2997998031496065
21
-4.2804210629921258
0
LINE
8
BLACK
6
CONTINUOUS
10
5.2997998031496065
20
-4.2804210629921258
11
5.2623044881889767
21
-4.287920118110236
0
LINE
8
BLACK
6
CONTINUOUS
10
5.3297960629921262
20
-4.3104173228346454
11
5.3372951181102364
21
-4.3141668503937005
0
LINE
8
BLACK
6
CONTINUOUS
10
5.3372951181102364
20
-4.3141668503937005
11
5.3522932283464568
21
-4.3141668503937005
0
LINE
8
BLACK
6
CONTINUOUS
10
5.3522932283464568
20
-4.3141668503937005
11
5.3597923228346458
21
-4.3104173228346454
0
LINE
8
BLACK
6
CONTINUOUS
10
5.3597923228346458
20
-4.3104173228346454
11
5.3635418503937009
21
-4.3029182283464564
0
LINE
8
BLACK
6
CONTINUOUS
10
5.3635418503937009
20
-4.3029182283464564
11
5.3635418503937009
21
-4.2991687007874013
0
LINE
8
BLACK
6
CONTINUOUS
10
5.3635418503937009
20
-4.2991687007874013
11
5.3597923228346458
21
-4.2916696456692911
0
LINE
8
BLACK
6
CONTINUOUS
10
5.3597923228346458
20
-4.2916696456692911
11
5.3522932283464568
21
-4.287920118110236
0
LINE
8
BLACK
6
CONTINUOUS
10
5.3522932283464568
20
-4.287920118110236
11
5.3410446456692915
21
-4.287920118110236
0
LINE
8
BLACK
6
CONTINUOUS
10
5.3410446456692915
20
-4.287920118110236
11
5.3335455905511813
21
-4.2841705905511809
0
LINE
8
BLACK
6
CONTINUOUS
10
5.3335455905511813
20
-4.2841705905511809
11
5.3297960629921262
21
-4.2766715354330707
0
LINE
8
BLACK
6
CONTINUOUS
10
5.3297960629921262
20
-4.2766715354330707
11
5.3297960629921262
21
-4.2729220078740155
0
LINE
8
BLACK
6
CONTINUOUS
10
5.3297960629921262
20
-4.2729220078740155
11
5.3335455905511813
21
-4.2654229133858266
0
LINE
8
BLACK
6
CONTINUOUS
10
5.3335455905511813
20
-4.2654229133858266
11
5.3410446456692915
21
-4.2616733858267715
0
LINE
8
BLACK
6
CONTINUOUS
10
5.3410446456692915
20
-4.2616733858267715
11
5.3522932283464568
21
-4.2616733858267715
0
LINE
8
BLACK
6
CONTINUOUS
10
5.3522932283464568
20
-4.2616733858267715
11
5.3597923228346458
21
-4.2654229133858266
0
LINE
8
BLACK
6
CONTINUOUS
10
5.3897885826771654
20
-4.3441630708661414
11
5.3935381102362205
21
-4.3404135433070863
0
LINE
8
BLACK
6
CONTINUOUS
10
5.3935381102362205
20
-4.3404135433070863
11
5.4010371653543308
21
-4.329164960629921
0
LINE
8
BLACK
6
CONTINUOUS
10
5.4010371653543308
20
-4.329164960629921
11
5.4047866929133859
21
-4.3216659055118107
0
LINE
8
BLACK
6
CONTINUOUS
10
5.4047866929133859
20
-4.3216659055118107
11
5.408536220472441
21
-4.3104173228346454
0
LINE
8
BLACK
6
CONTINUOUS
10
5.408536220472441
20
-4.3104173228346454
11
5.4122857480314961
21
-4.2916696456692911
0
LINE
8
BLACK
6
CONTINUOUS
10
5.4122857480314961
20
-4.2916696456692911
11
5.4122857480314961
21
-4.2766715354330707
0
LINE
8
BLACK
6
CONTINUOUS
10
5.4122857480314961
20
-4.2766715354330707
11
5.408536220472441
21
-4.2579238582677164
0
LINE
8
BLACK
6
CONTINUOUS
10
5.408536220472441
20
-4.2579238582677164
11
5.4047866929133859
21
-4.246675275590551
0
LINE
8
BLACK
6
CONTINUOUS
10
5.4047866929133859
20
-4.246675275590551
11
5.4010371653543308
21
-4.2391762204724408
0
LINE
8
BLACK
6
CONTINUOUS
10
5.4010371653543308
20
-4.2391762204724408
11
5.3935381102362205
21
-4.2279275984251967
0
LINE
8
BLACK
6
CONTINUOUS
10
5.3935381102362205
20
-4.2279275984251967
11
5.3897885826771654
21
-4.2241780708661416
0
LINE
8
BLACK
6
CONTINUOUS
10
3.4911417322834644
20
-4.3633858267716539
11
3.4911417322834644
21
-4.400787401574803
0
LINE
8
BLACK
6
CONTINUOUS
10
3.4724409448818898
20
-4.382086614173228
11
3.5098425196850394
21
-4.382086614173228
0
LINE
8
BLACK
6
CONTINUOUS
10
3.6275086614173229
20
-4.3393637007874011
11
3.6350077559055118
21
-4.3393637007874011
0
LINE
8
BLACK
6
CONTINUOUS
10
3.6350077559055118
20
-4.3393637007874011
11
3.6425068110236221
21
-4.3431132283464562
0
LINE
8
BLACK
6
CONTINUOUS
10
3.6425068110236221
20
-4.3431132283464562
11
3.6462563385826772
21
-4.3468627559055113
0
LINE
8
BLACK
6
CONTINUOUS
10
3.6462563385826772
20
-4.3468627559055113
11
3.6500058661417323
21
-4.3543618110236215
0
LINE
8
BLACK
6
CONTINUOUS
10
3.6500058661417323
20
-4.3543618110236215
11
3.6537553937007874
21
-4.3693599212598428
0
LINE
8
BLACK
6
CONTINUOUS
10
3.6537553937007874
20
-4.3693599212598428
11
3.6537553937007874
21
-4.3881075984251972
0
LINE
8
BLACK
6
CONTINUOUS
10
3.6537553937007874
20
-4.3881075984251972
11
3.6500058661417323
21
-4.4031057086614176
0
LINE
8
BLACK
6
CONTINUOUS
10
3.6500058661417323
20
-4.4031057086614176
11
3.6462563385826772
21
-4.4106047637795278
0
LINE
8
BLACK
6
CONTINUOUS
10
3.6462563385826772
20
-4.4106047637795278
11
3.6425068110236221
21
-4.4143543307086617
0
LINE
8
BLACK
6
CONTINUOUS
10
3.6425068110236221
20
-4.4143543307086617
11
3.6350077559055118
21
-4.4181038582677168
0
LINE
8
BLACK
6
CONTINUOUS
10
3.6350077559055118
20
-4.4181038582677168
11
3.6275086614173229
21
-4.4181038582677168
0
LINE
8
BLACK
6
CONTINUOUS
10
3.6275086614173229
20
-4.4181038582677168
11
3.6200096062992126
21
-4.4143543307086617
0
LINE
8
BLACK
6
CONTINUOUS
10
3.6200096062992126
20
-4.4143543307086617
11
3.6162600787401575
21
-4.4106047637795278
0
LINE
8
BLACK
6
CONTINUOUS
10
3.6162600787401575
20
-4.4106047637795278
11
3.6125105511811024
21
-4.4031057086614176
0
LINE
8
BLACK
6
CONTINUOUS
10
3.6125105511811024
20
-4.4031057086614176
11
3.6087610236220473
21
-4.3881075984251972
0
LINE
8
BLACK
6
CONTINUOUS
10
3.6087610236220473
20
-4.3881075984251972
11
3.6087610236220473
21
-4.3693599212598428
0
LINE
8
BLACK
6
CONTINUOUS
10
3.6087610236220473
20
-4.3693599212598428
11
3.6125105511811024
21
-4.3543618110236215
0
LINE
8
BLACK
6
CONTINUOUS
10
3.6125105511811024
20
-4.3543618110236215
11
3.6162600787401575
21
-4.3468627559055113
0
LINE
8
BLACK
6
CONTINUOUS
10
3.6162600787401575
20
-4.3468627559055113
11
3.6200096062992126
21
-4.3431132283464562
0
LINE
8
BLACK
6
CONTINUOUS
10
3.6200096062992126
20
-4.3431132283464562
11
3.6275086614173229
21
-4.3393637007874011
0
LINE
8
BLACK
6
CONTINUOUS
10
3.6875011811023621
20
-4.4106047637795278
11
3.6912507086614172
21
-4.4143543307086617
0
LINE
8
BLACK
6
CONTINUOUS
10
3.6912507086614172
20
-4.4143543307086617
11
3.6875011811023621
21
-4.4181038582677168
0
LINE
8
BLACK
6
CONTINUOUS
10
3.6875011811023621
20
-4.4181038582677168
11
3.683751653543307
21
-4.4143543307086617
0
LINE
8
BLACK
6
CONTINUOUS
10
3.683751653543307
20
-4.4143543307086617
11
3.6875011811023621
21
-4.4106047637795278
0
LINE
8
BLACK
6
CONTINUOUS
10
3.6875011811023621
20
-4.4106047637795278
11
3.6875011811023621
21
-4.4181038582677168
0
LINE
8
BLACK
6
CONTINUOUS
10
3.7287460236220471
20
-4.4181038582677168
11
3.7437441338582675
21
-4.4181038582677168
0
LINE
8
BLACK
6
CONTINUOUS
10
3.7437441338582675
20
-4.4181038582677168
11
3.7512432283464565
21
-4.4143543307086617
0
LINE
8
BLACK
6
CONTINUOUS
10
3.7512432283464565
20
-4.4143543307086617
11
3.7549927559055116
21
-4.4106047637795278
0
LINE
8
BLACK
6
CONTINUOUS
10
3.7549927559055116
20
-4.4106047637795278
11
3.7624918110236218
21
-4.3993561811023625
0
LINE
8
BLACK
6
CONTINUOUS
10
3.7624918110236218
20
-4.3993561811023625
11
3.766241338582677
21
-4.384358070866142
0
LINE
8
BLACK
6
CONTINUOUS
10
3.766241338582677
20
-4.384358070866142
11
3.766241338582677
21
-4.3543618110236215
0
LINE
8
BLACK
6
CONTINUOUS
10
3.766241338582677
20
-4.3543618110236215
11
3.7624918110236218
21
-4.3468627559055113
0
LINE
8
BLACK
6
CONTINUOUS
10
3.7624918110236218
20
-4.3468627559055113
11
3.7587422834645667
21
-4.3431132283464562
0
LINE
8
BLACK
6
CONTINUOUS
10
3.7587422834645667
20
-4.3431132283464562
11
3.7512432283464565
21
-4.3393637007874011
0
LINE
8
BLACK
6
CONTINUOUS
10
3.7512432283464565
20
-4.3393637007874011
11
3.7362450787401573
21
-4.3393637007874011
0
LINE
8
BLACK
6
CONTINUOUS
10
3.7362450787401573
20
-4.3393637007874011
11
3.7287460236220471
21
-4.3431132283464562
0
LINE
8
BLACK
6
CONTINUOUS
10
3.7287460236220471
20
-4.3431132283464562
11
3.724996496062992
21
-4.3468627559055113
0
LINE
8
BLACK
6
CONTINUOUS
10
3.724996496062992
20
-4.3468627559055113
11
3.7212469685039369
21
-4.3543618110236215
0
LINE
8
BLACK
6
CONTINUOUS
10
3.7212469685039369
20
-4.3543618110236215
11
3.7212469685039369
21
-4.373109448818898
0
LINE
8
BLACK
6
CONTINUOUS
10
3.7212469685039369
20
-4.373109448818898
11
3.724996496062992
21
-4.3806085433070869
0
LINE
8
BLACK
6
CONTINUOUS
10
3.724996496062992
20
-4.3806085433070869
11
3.7287460236220471
21
-4.384358070866142
0
LINE
8
BLACK
6
CONTINUOUS
10
3.7287460236220471
20
-4.384358070866142
11
3.7362450787401573
21
-4.3881075984251972
0
LINE
8
BLACK
6
CONTINUOUS
10
3.7362450787401573
20
-4.3881075984251972
11
3.7512432283464565
21
-4.3881075984251972
0
LINE
8
BLACK
6
CONTINUOUS
10
3.7512432283464565
20
-4.3881075984251972
11
3.7587422834645667
21
-4.384358070866142
0
LINE
8
BLACK
6
CONTINUOUS
10
3.7587422834645667
20
-4.384358070866142
11
3.7624918110236218
21
-4.3806085433070869
0
LINE
8
BLACK
6
CONTINUOUS
10
3.7624918110236218
20
-4.3806085433070869
11
3.766241338582677
21
-4.373109448818898
0
LINE
8
BLACK
6
CONTINUOUS
10
3.837482440944882
20
-4.3393637007874011
11
3.7999871259842517
21
-4.3393637007874011
0
LINE
8
BLACK
6
CONTINUOUS
10
3.7999871259842517
20
-4.3393637007874011
11
3.7962375984251966
21
-4.3768590157480318
0
LINE
8
BLACK
6
CONTINUOUS
10
3.7962375984251966
20
-4.3768590157480318
11
3.7999871259842517
21
-4.373109448818898
0
LINE
8
BLACK
6
CONTINUOUS
10
3.7999871259842517
20
-4.373109448818898
11
3.8074861811023619
21
-4.3693599212598428
0
LINE
8
BLACK
6
CONTINUOUS
10
3.8074861811023619
20
-4.3693599212598428
11
3.8262338582677167
21
-4.3693599212598428
0
LINE
8
BLACK
6
CONTINUOUS
10
3.8262338582677167
20
-4.3693599212598428
11
3.8337329133858269
21
-4.373109448818898
0
LINE
8
BLACK
6
CONTINUOUS
10
3.8337329133858269
20
-4.373109448818898
11
3.837482440944882
21
-4.3768590157480318
0
LINE
8
BLACK
6
CONTINUOUS
10
3.837482440944882
20
-4.3768590157480318
11
3.8412319685039371
21
-4.384358070866142
0
LINE
8
BLACK
6
CONTINUOUS
10
3.8412319685039371
20
-4.384358070866142
11
3.8412319685039371
21
-4.4031057086614176
0
LINE
8
BLACK
6
CONTINUOUS
10
3.8412319685039371
20
-4.4031057086614176
11
3.837482440944882
21
-4.4106047637795278
0
LINE
8
BLACK
6
CONTINUOUS
10
3.837482440944882
20
-4.4106047637795278
11
3.8337329133858269
21
-4.4143543307086617
0
LINE
8
BLACK
6
CONTINUOUS
10
3.8337329133858269
20
-4.4143543307086617
11
3.8262338582677167
21
-4.4181038582677168
0
LINE
8
BLACK
6
CONTINUOUS
10
3.8262338582677167
20
-4.4181038582677168
11
3.8074861811023619
21
-4.4181038582677168
0
LINE
8
BLACK
6
CONTINUOUS
10
3.8074861811023619
20
-4.4181038582677168
11
3.7999871259842517
21
-4.4143543307086617
0
LINE
8
BLACK
6
CONTINUOUS
10
3.7999871259842517
20
-4.4143543307086617
11
3.7962375984251966
21
-4.4106047637795278
0
LINE
8
BLACK
6
CONTINUOUS
10
3.8899758661417323
20
-4.3393637007874011
11
3.8974749606299213
21
-4.3393637007874011
0
LINE
8
BLACK
6
CONTINUOUS
10
3.8974749606299213
20
-4.3393637007874011
11
3.9049740157480315
21
-4.3431132283464562
0
LINE
8
BLACK
6
CONTINUOUS
10
3.9049740157480315
20
-4.3431132283464562
11
3.9087235433070866
21
-4.3468627559055113
0
LINE
8
BLACK
6
CONTINUOUS
10
3.9087235433070866
20
-4.3468627559055113
11
3.9124730708661417
21
-4.3543618110236215
0
LINE
8
BLACK
6
CONTINUOUS
10
3.9124730708661417
20
-4.3543618110236215
11
3.9162225984251968
21
-4.3693599212598428
0
LINE
8
BLACK
6
CONTINUOUS
10
3.9162225984251968
20
-4.3693599212598428
11
3.9162225984251968
21
-4.3881075984251972
0
LINE
8
BLACK
6
CONTINUOUS
10
3.9162225984251968
20
-4.3881075984251972
11
3.9124730708661417
21
-4.4031057086614176
0
LINE
8
BLACK
6
CONTINUOUS
10
3.9124730708661417
20
-4.4031057086614176
11
3.9087235433070866
21
-4.4106047637795278
0
LINE
8
BLACK
6
CONTINUOUS
10
3.9087235433070866
20
-4.4106047637795278
11
3.9049740157480315
21
-4.4143543307086617
0
LINE
8
BLACK
6
CONTINUOUS
10
3.9049740157480315
20
-4.4143543307086617
11
3.8974749606299213
21
-4.4181038582677168
0
LINE
8
BLACK
6
CONTINUOUS
10
3.8974749606299213
20
-4.4181038582677168
11
3.8899758661417323
21
-4.4181038582677168
0
LINE
8
BLACK
6
CONTINUOUS
10
3.8899758661417323
20
-4.4181038582677168
11
3.8824768110236221
21
-4.4143543307086617
0
LINE
8
BLACK
6
CONTINUOUS
10
3.8824768110236221
20
-4.4143543307086617
11
3.878727283464567
21
-4.4106047637795278
0
LINE
8
BLACK
6
CONTINUOUS
10
3.878727283464567
20
-4.4106047637795278
11
3.8749777559055119
21
-4.4031057086614176
0
LINE
8
BLACK
6
CONTINUOUS
10
3.8749777559055119
20
-4.4031057086614176
11
3.8712282283464567
21
-4.3881075984251972
0
LINE
8
BLACK
6
CONTINUOUS
10
3.8712282283464567
20
-4.3881075984251972
11
3.8712282283464567
21
-4.3693599212598428
0
LINE
8
BLACK
6
CONTINUOUS
10
3.8712282283464567
20
-4.3693599212598428
11
3.8749777559055119
21
-4.3543618110236215
0
LINE
8
BLACK
6
CONTINUOUS
10
3.8749777559055119
20
-4.3543618110236215
11
3.878727283464567
21
-4.3468627559055113
0
LINE
8
BLACK
6
CONTINUOUS
10
3.878727283464567
20
-4.3468627559055113
11
3.8824768110236221
21
-4.3431132283464562
0
LINE
8
BLACK
6
CONTINUOUS
10
3.8824768110236221
20
-4.3431132283464562
11
3.8899758661417323
21
-4.3393637007874011
0
LINE
8
BLACK
6
CONTINUOUS
10
3.9499683858267716
20
-4.4181038582677168
11
3.9499683858267716
21
-4.3656103937007877
0
LINE
8
BLACK
6
CONTINUOUS
10
3.9499683858267716
20
-4.373109448818898
11
3.9537179133858267
21
-4.3693599212598428
0
LINE
8
BLACK
6
CONTINUOUS
10
3.9537179133858267
20
-4.3693599212598428
11
3.9612169685039369
21
-4.3656103937007877
0
LINE
8
BLACK
6
CONTINUOUS
10
3.9612169685039369
20
-4.3656103937007877
11
3.972465590551181
21
-4.3656103937007877
0
LINE
8
BLACK
6
CONTINUOUS
10
3.972465590551181
20
-4.3656103937007877
11
3.9799646456692912
21
-4.3693599212598428
0
LINE
8
BLACK
6
CONTINUOUS
10
3.9799646456692912
20
-4.3693599212598428
11
3.9837141732283463
21
-4.3768590157480318
0
LINE
8
BLACK
6
CONTINUOUS
10
3.9837141732283463
20
-4.3768590157480318
11
3.9837141732283463
21
-4.4181038582677168
0
LINE
8
BLACK
6
CONTINUOUS
10
3.9837141732283463
20
-4.3768590157480318
11
3.9874637007874014
21
-4.3693599212598428
0
LINE
8
BLACK
6
CONTINUOUS
10
3.9874637007874014
20
-4.3693599212598428
11
3.9949627559055116
21
-4.3656103937007877
0
LINE
8
BLACK
6
CONTINUOUS
10
3.9949627559055116
20
-4.3656103937007877
11
4.006211338582677
21
-4.3656103937007877
0
LINE
8
BLACK
6
CONTINUOUS
10
4.006211338582677
20
-4.3656103937007877
11
4.0137104330708659
21
-4.3693599212598428
0
LINE
8
BLACK
6
CONTINUOUS
10
4.0137104330708659
20
-4.3693599212598428
11
4.0174599606299211
21
-4.3768590157480318
0
LINE
8
BLACK
6
CONTINUOUS
10
4.0174599606299211
20
-4.3768590157480318
11
4.0174599606299211
21
-4.4181038582677168
0
LINE
8
BLACK
6
CONTINUOUS
10
4.0549552755905509
20
-4.4181038582677168
11
4.0549552755905509
21
-4.3656103937007877
0
LINE
8
BLACK
6
CONTINUOUS
10
4.0549552755905509
20
-4.373109448818898
11
4.058704803149606
21
-4.3693599212598428
0
LINE
8
BLACK
6
CONTINUOUS
10
4.058704803149606
20
-4.3693599212598428
11
4.0662038582677162
21
-4.3656103937007877
0
LINE
8
BLACK
6
CONTINUOUS
10
4.0662038582677162
20
-4.3656103937007877
11
4.0774524803149603
21
-4.3656103937007877
0
LINE
8
BLACK
6
CONTINUOUS
10
4.0774524803149603
20
-4.3656103937007877
11
4.0849515354330705
21
-4.3693599212598428
0
LINE
8
BLACK
6
CONTINUOUS
10
4.0849515354330705
20
-4.3693599212598428
11
4.0887010629921257
21
-4.3768590157480318
0
LINE
8
BLACK
6
CONTINUOUS
10
4.0887010629921257
20
-4.3768590157480318
11
4.0887010629921257
21
-4.4181038582677168
0
LINE
8
BLACK
6
CONTINUOUS
10
4.0887010629921257
20
-4.3768590157480318
11
4.0924505905511808
21
-4.3693599212598428
0
LINE
8
BLACK
6
CONTINUOUS
10
4.0924505905511808
20
-4.3693599212598428
11
4.099949645669291
21
-4.3656103937007877
0
LINE
8
BLACK
6
CONTINUOUS
10
4.099949645669291
20
-4.3656103937007877
11
4.1111982283464563
21
-4.3656103937007877
0
LINE
8
BLACK
6
CONTINUOUS
10
4.1111982283464563
20
-4.3656103937007877
11
4.1186973228346453
21
-4.3693599212598428
0
LINE
8
BLACK
6
CONTINUOUS
10
4.1186973228346453
20
-4.3693599212598428
11
4.1224468503937004
21
-4.3768590157480318
0
LINE
8
BLACK
6
CONTINUOUS
10
4.1224468503937004
20
-4.3768590157480318
11
4.1224468503937004
21
-4.4181038582677168
0
LINE
8
BLACK
6
CONTINUOUS
10
4.2761776377952758
20
-4.335614173228346
11
4.2086861023622042
21
-4.4368514960629923
0
LINE
8
BLACK
6
CONTINUOUS
10
4.3774150000000001
20
-4.3393637007874011
11
4.384914094488189
21
-4.3393637007874011
0
LINE
8
BLACK
6
CONTINUOUS
10
4.384914094488189
20
-4.3393637007874011
11
4.3924131496062992
21
-4.3431132283464562
0
LINE
8
BLACK
6
CONTINUOUS
10
4.3924131496062992
20
-4.3431132283464562
11
4.3961626771653544
21
-4.3468627559055113
0
LINE
8
BLACK
6
CONTINUOUS
10
4.3961626771653544
20
-4.3468627559055113
11
4.3999122047244095
21
-4.3543618110236215
0
LINE
8
BLACK
6
CONTINUOUS
10
4.3999122047244095
20
-4.3543618110236215
11
4.4036617322834646
21
-4.3693599212598428
0
LINE
8
BLACK
6
CONTINUOUS
10
4.4036617322834646
20
-4.3693599212598428
11
4.4036617322834646
21
-4.3881075984251972
0
LINE
8
BLACK
6
CONTINUOUS
10
4.4036617322834646
20
-4.3881075984251972
11
4.3999122047244095
21
-4.4031057086614176
0
LINE
8
BLACK
6
CONTINUOUS
10
4.3999122047244095
20
-4.4031057086614176
11
4.3961626771653544
21
-4.4106047637795278
0
LINE
8
BLACK
6
CONTINUOUS
10
4.3961626771653544
20
-4.4106047637795278
11
4.3924131496062992
21
-4.4143543307086617
0
LINE
8
BLACK
6
CONTINUOUS
10
4.3924131496062992
20
-4.4143543307086617
11
4.384914094488189
21
-4.4181038582677168
0
LINE
8
BLACK
6
CONTINUOUS
10
4.384914094488189
20
-4.4181038582677168
11
4.3774150000000001
21
-4.4181038582677168
0
LINE
8
BLACK
6
CONTINUOUS
10
4.3774150000000001
20
-4.4181038582677168
11
4.3699159448818898
21
-4.4143543307086617
0
LINE
8
BLACK
6
CONTINUOUS
10
4.3699159448818898
20
-4.4143543307086617
11
4.3661664173228347
21
-4.4106047637795278
0
LINE
8
BLACK
6
CONTINUOUS
10
4.3661664173228347
20
-4.4106047637795278
11
4.3624168897637796
21
-4.4031057086614176
0
LINE
8
BLACK
6
CONTINUOUS
10
4.3624168897637796
20
-4.4031057086614176
11
4.3586673622047245
21
-4.3881075984251972
0
LINE
8
BLACK
6
CONTINUOUS
10
4.3586673622047245
20
-4.3881075984251972
11
4.3586673622047245
21
-4.3693599212598428
0
LINE
8
BLACK
6
CONTINUOUS
10
4.3586673622047245
20
-4.3693599212598428
11
4.3624168897637796
21
-4.3543618110236215
0
LINE
8
BLACK
6
CONTINUOUS
10
4.3624168897637796
20
-4.3543618110236215
11
4.3661664173228347
21
-4.3468627559055113
0
LINE
8
BLACK
6
CONTINUOUS
10
4.3661664173228347
20
-4.3468627559055113
11
4.3699159448818898
21
-4.3431132283464562
0
LINE
8
BLACK
6
CONTINUOUS
10
4.3699159448818898
20
-4.3431132283464562
11
4.3774150000000001
21
-4.3393637007874011
0
LINE
8
BLACK
6
CONTINUOUS
10
4.4374075196850393
20
-4.4106047637795278
11
4.4411570472440944
21
-4.4143543307086617
0
LINE
8
BLACK
6
CONTINUOUS
10
4.4411570472440944
20
-4.4143543307086617
11
4.4374075196850393
21
-4.4181038582677168
0
LINE
8
BLACK
6
CONTINUOUS
10
4.4374075196850393
20
-4.4181038582677168
11
4.4336579921259842
21
-4.4143543307086617
0
LINE
8
BLACK
6
CONTINUOUS
10
4.4336579921259842
20
-4.4143543307086617
11
4.4374075196850393
21
-4.4106047637795278
0
LINE
8
BLACK
6
CONTINUOUS
10
4.4374075196850393
20
-4.4106047637795278
11
4.4374075196850393
21
-4.4181038582677168
0
LINE
8
BLACK
6
CONTINUOUS
10
4.4899009448818896
20
-4.3393637007874011
11
4.4974000393700786
21
-4.3393637007874011
0
LINE
8
BLACK
6
CONTINUOUS
10
4.4974000393700786
20
-4.3393637007874011
11
4.5048990944881888
21
-4.3431132283464562
0
LINE
8
BLACK
6
CONTINUOUS
10
4.5048990944881888
20
-4.3431132283464562
11
4.5086486220472439
21
-4.3468627559055113
0
LINE
8
BLACK
6
CONTINUOUS
10
4.5086486220472439
20
-4.3468627559055113
11
4.512398149606299
21
-4.3543618110236215
0
LINE
8
BLACK
6
CONTINUOUS
10
4.512398149606299
20
-4.3543618110236215
11
4.5161476771653541
21
-4.3693599212598428
0
LINE
8
BLACK
6
CONTINUOUS
10
4.5161476771653541
20
-4.3693599212598428
11
4.5161476771653541
21
-4.3881075984251972
0
LINE
8
BLACK
6
CONTINUOUS
10
4.5161476771653541
20
-4.3881075984251972
11
4.512398149606299
21
-4.4031057086614176
0
LINE
8
BLACK
6
CONTINUOUS
10
4.512398149606299
20
-4.4031057086614176
11
4.5086486220472439
21
-4.4106047637795278
0
LINE
8
BLACK
6
CONTINUOUS
10
4.5086486220472439
20
-4.4106047637795278
11
4.5048990944881888
21
-4.4143543307086617
0
LINE
8
BLACK
6
CONTINUOUS
10
4.5048990944881888
20
-4.4143543307086617
11
4.4974000393700786
21
-4.4181038582677168
0
LINE
8
BLACK
6
CONTINUOUS
10
4.4974000393700786
20
-4.4181038582677168
11
4.4899009448818896
21
-4.4181038582677168
0
LINE
8
BLACK
6
CONTINUOUS
10
4.4899009448818896
20
-4.4181038582677168
11
4.4824018897637794
21
-4.4143543307086617
0
LINE
8
BLACK
6
CONTINUOUS
10
4.4824018897637794
20
-4.4143543307086617
11
4.4786523622047243
21
-4.4106047637795278
0
LINE
8
BLACK
6
CONTINUOUS
10
4.4786523622047243
20
-4.4106047637795278
11
4.4749028346456692
21
-4.4031057086614176
0
LINE
8
BLACK
6
CONTINUOUS
10
4.4749028346456692
20
-4.4031057086614176
11
4.4711533070866141
21
-4.3881075984251972
0
LINE
8
BLACK
6
CONTINUOUS
10
4.4711533070866141
20
-4.3881075984251972
11
4.4711533070866141
21
-4.3693599212598428
0
LINE
8
BLACK
6
CONTINUOUS
10
4.4711533070866141
20
-4.3693599212598428
11
4.4749028346456692
21
-4.3543618110236215
0
LINE
8
BLACK
6
CONTINUOUS
10
4.4749028346456692
20
-4.3543618110236215
11
4.4786523622047243
21
-4.3468627559055113
0
LINE
8
BLACK
6
CONTINUOUS
10
4.4786523622047243
20
-4.3468627559055113
11
4.4824018897637794
21
-4.3431132283464562
0
LINE
8
BLACK
6
CONTINUOUS
10
4.4824018897637794
20
-4.3431132283464562
11
4.4899009448818896
21
-4.3393637007874011
0
LINE
8
BLACK
6
CONTINUOUS
10
4.5423944094488187
20
-4.3393637007874011
11
4.5911383070866139
21
-4.3393637007874011
0
LINE
8
BLACK
6
CONTINUOUS
10
4.5911383070866139
20
-4.3393637007874011
11
4.5648915748031493
21
-4.3693599212598428
0
LINE
8
BLACK
6
CONTINUOUS
10
4.5648915748031493
20
-4.3693599212598428
11
4.5761401968503934
21
-4.3693599212598428
0
LINE
8
BLACK
6
CONTINUOUS
10
4.5761401968503934
20
-4.3693599212598428
11
4.5836392519685036
21
-4.373109448818898
0
LINE
8
BLACK
6
CONTINUOUS
10
4.5836392519685036
20
-4.373109448818898
11
4.5873887795275587
21
-4.3768590157480318
0
LINE
8
BLACK
6
CONTINUOUS
10
4.5873887795275587
20
-4.3768590157480318
11
4.5911383070866139
21
-4.384358070866142
0
LINE
8
BLACK
6
CONTINUOUS
10
4.5911383070866139
20
-4.384358070866142
11
4.5911383070866139
21
-4.4031057086614176
0
LINE
8
BLACK
6
CONTINUOUS
10
4.5911383070866139
20
-4.4031057086614176
11
4.5873887795275587
21
-4.4106047637795278
0
LINE
8
BLACK
6
CONTINUOUS
10
4.5873887795275587
20
-4.4106047637795278
11
4.5836392519685036
21
-4.4143543307086617
0
LINE
8
BLACK
6
CONTINUOUS
10
4.5836392519685036
20
-4.4143543307086617
11
4.5761401968503934
21
-4.4181038582677168
0
LINE
8
BLACK
6
CONTINUOUS
10
4.5761401968503934
20
-4.4181038582677168
11
4.553642992125984
21
-4.4181038582677168
0
LINE
8
BLACK
6
CONTINUOUS
10
4.553642992125984
20
-4.4181038582677168
11
4.5461439370078738
21
-4.4143543307086617
0
LINE
8
BLACK
6
CONTINUOUS
10
4.5461439370078738
20
-4.4143543307086617
11
4.5423944094488187
21
-4.4106047637795278
0
LINE
8
BLACK
6
CONTINUOUS
10
4.6173850393700784
20
-4.3393637007874011
11
4.6698784645669287
21
-4.3393637007874011
0
LINE
8
BLACK
6
CONTINUOUS
10
4.6698784645669287
20
-4.3393637007874011
11
4.6361326771653539
21
-4.4181038582677168
0
LINE
8
BLACK
6
CONTINUOUS
10
4.7336205118110239
20
-4.3656103937007877
11
4.7336205118110239
21
-4.4181038582677168
0
LINE
8
BLACK
6
CONTINUOUS
10
4.7148728346456688
20
-4.335614173228346
11
4.6961251968503932
21
-4.3918571259842523
0
LINE
8
BLACK
6
CONTINUOUS
10
4.6961251968503932
20
-4.3918571259842523
11
4.7448690944881893
21
-4.3918571259842523
0
LINE
8
BLACK
6
CONTINUOUS
10
4.7711158267716538
20
-4.3393637007874011
11
4.7711158267716538
21
-4.3543618110236215
0
LINE
8
BLACK
6
CONTINUOUS
10
4.8011120866141734
20
-4.3393637007874011
11
4.8011120866141734
21
-4.3543618110236215
0
LINE
8
BLACK
6
CONTINUOUS
10
4.9173475984251969
20
-4.4481000787401577
11
4.913598031496063
21
-4.4443505511811026
0
LINE
8
BLACK
6
CONTINUOUS
10
4.913598031496063
20
-4.4443505511811026
11
4.9060989763779528
21
-4.4331019685039372
0
LINE
8
BLACK
6
CONTINUOUS
10
4.9060989763779528
20
-4.4331019685039372
11
4.9023494488188977
21
-4.425602913385827
0
LINE
8
BLACK
6
CONTINUOUS
10
4.9023494488188977
20
-4.425602913385827
11
4.8985999212598426
21
-4.4143543307086617
0
LINE
8
BLACK
6
CONTINUOUS
10
4.8985999212598426
20
-4.4143543307086617
11
4.8948503937007874
21
-4.3956066535433074
0
LINE
8
BLACK
6
CONTINUOUS
10
4.8948503937007874
20
-4.3956066535433074
11
4.8948503937007874
21
-4.3806085433070869
0
LINE
8
BLACK
6
CONTINUOUS
10
4.8948503937007874
20
-4.3806085433070869
11
4.8985999212598426
21
-4.3618608661417317
0
LINE
8
BLACK
6
CONTINUOUS
10
4.8985999212598426
20
-4.3618608661417317
11
4.9023494488188977
21
-4.3506122834645664
0
LINE
8
BLACK
6
CONTINUOUS
10
4.9023494488188977
20
-4.3506122834645664
11
4.9060989763779528
21
-4.3431132283464562
0
LINE
8
BLACK
6
CONTINUOUS
10
4.9060989763779528
20
-4.3431132283464562
11
4.913598031496063
21
-4.3318646062992121
0
LINE
8
BLACK
6
CONTINUOUS
10
4.913598031496063
20
-4.3318646062992121
11
4.9173475984251969
21
-4.328115078740157
0
LINE
8
BLACK
6
CONTINUOUS
10
4.9810896062992125
20
-4.3393637007874011
11
4.9660914566929133
21
-4.3393637007874011
0
LINE
8
BLACK
6
CONTINUOUS
10
4.9660914566929133
20
-4.3393637007874011
11
4.9585924015748031
21
-4.3431132283464562
0
LINE
8
BLACK
6
CONTINUOUS
10
4.9585924015748031
20
-4.3431132283464562
11
4.954842874015748
21
-4.3468627559055113
0
LINE
8
BLACK
6
CONTINUOUS
10
4.954842874015748
20
-4.3468627559055113
11
4.9473438188976377
21
-4.3581113385826766
0
LINE
8
BLACK
6
CONTINUOUS
10
4.9473438188976377
20
-4.3581113385826766
11
4.9435942913385826
21
-4.373109448818898
0
LINE
8
BLACK
6
CONTINUOUS
10
4.9435942913385826
20
-4.373109448818898
11
4.9435942913385826
21
-4.4031057086614176
0
LINE
8
BLACK
6
CONTINUOUS
10
4.9435942913385826
20
-4.4031057086614176
11
4.9473438188976377
21
-4.4106047637795278
0
LINE
8
BLACK
6
CONTINUOUS
10
4.9473438188976377
20
-4.4106047637795278
11
4.9510933464566929
21
-4.4143543307086617
0
LINE
8
BLACK
6
CONTINUOUS
10
4.9510933464566929
20
-4.4143543307086617
11
4.9585924015748031
21
-4.4181038582677168
0
LINE
8
BLACK
6
CONTINUOUS
10
4.9585924015748031
20
-4.4181038582677168
11
4.9735905511811023
21
-4.4181038582677168
0
LINE
8
BLACK
6
CONTINUOUS
10
4.9735905511811023
20
-4.4181038582677168
11
4.9810896062992125
21
-4.4143543307086617
0
LINE
8
BLACK
6
CONTINUOUS
10
4.9810896062992125
20
-4.4143543307086617
11
4.9848391338582676
21
-4.4106047637795278
0
LINE
8
BLACK
6
CONTINUOUS
10
4.9848391338582676
20
-4.4106047637795278
11
4.9885886614173227
21
-4.4031057086614176
0
LINE
8
BLACK
6
CONTINUOUS
10
4.9885886614173227
20
-4.4031057086614176
11
4.9885886614173227
21
-4.384358070866142
0
LINE
8
BLACK
6
CONTINUOUS
10
4.9885886614173227
20
-4.384358070866142
11
4.9848391338582676
21
-4.3768590157480318
0
LINE
8
BLACK
6
CONTINUOUS
10
4.9848391338582676
20
-4.3768590157480318
11
4.9810896062992125
21
-4.373109448818898
0
LINE
8
BLACK
6
CONTINUOUS
10
4.9810896062992125
20
-4.373109448818898
11
4.9735905511811023
21
-4.3693599212598428
0
LINE
8
BLACK
6
CONTINUOUS
10
4.9735905511811023
20
-4.3693599212598428
11
4.9585924015748031
21
-4.3693599212598428
0
LINE
8
BLACK
6
CONTINUOUS
10
4.9585924015748031
20
-4.3693599212598428
11
4.9510933464566929
21
-4.373109448818898
0
LINE
8
BLACK
6
CONTINUOUS
10
4.9510933464566929
20
-4.373109448818898
11
4.9473438188976377
21
-4.3768590157480318
0
LINE
8
BLACK
6
CONTINUOUS
10
4.9473438188976377
20
-4.3768590157480318
11
4.9435942913385826
21
-4.384358070866142
0
LINE
8
BLACK
6
CONTINUOUS
10
5.0823269685039367
20
-4.4181038582677168
11
5.0823269685039367
21
-4.3393637007874011
0
LINE
8
BLACK
6
CONTINUOUS
10
5.1160727559055115
20
-4.4181038582677168
11
5.1160727559055115
21
-4.3768590157480318
0
LINE
8
BLACK
6
CONTINUOUS
10
5.1160727559055115
20
-4.3768590157480318
11
5.1123232283464564
21
-4.3693599212598428
0
LINE
8
BLACK
6
CONTINUOUS
10
5.1123232283464564
20
-4.3693599212598428
11
5.1048241732283461
21
-4.3656103937007877
0
LINE
8
BLACK
6
CONTINUOUS
10
5.1048241732283461
20
-4.3656103937007877
11
5.0935755511811021
21
-4.3656103937007877
0
LINE
8
BLACK
6
CONTINUOUS
10
5.0935755511811021
20
-4.3656103937007877
11
5.0860764960629918
21
-4.3693599212598428
0
LINE
8
BLACK
6
CONTINUOUS
10
5.0860764960629918
20
-4.3693599212598428
11
5.0823269685039367
21
-4.373109448818898
0
LINE
8
BLACK
6
CONTINUOUS
10
5.1648166535433067
20
-4.4181038582677168
11
5.1573175984251964
21
-4.4143543307086617
0
LINE
8
BLACK
6
CONTINUOUS
10
5.1573175984251964
20
-4.4143543307086617
11
5.1535680708661413
21
-4.4106047637795278
0
LINE
8
BLACK
6
CONTINUOUS
10
5.1535680708661413
20
-4.4106047637795278
11
5.1498185433070862
21
-4.4031057086614176
0
LINE
8
BLACK
6
CONTINUOUS
10
5.1498185433070862
20
-4.4031057086614176
11
5.1498185433070862
21
-4.3806085433070869
0
LINE
8
BLACK
6
CONTINUOUS
10
5.1498185433070862
20
-4.3806085433070869
11
5.1535680708661413
21
-4.373109448818898
0
LINE
8
BLACK
6
CONTINUOUS
10
5.1535680708661413
20
-4.373109448818898
11
5.1573175984251964
21
-4.3693599212598428
0
LINE
8
BLACK
6
CONTINUOUS
10
5.1573175984251964
20
-4.3693599212598428
11
5.1648166535433067
21
-4.3656103937007877
0
LINE
8
BLACK
6
CONTINUOUS
10
5.1648166535433067
20
-4.3656103937007877
11
5.1760652755905507
21
-4.3656103937007877
0
LINE
8
BLACK
6
CONTINUOUS
10
5.1760652755905507
20
-4.3656103937007877
11
5.183564330708661
21
-4.3693599212598428
0
LINE
8
BLACK
6
CONTINUOUS
10
5.183564330708661
20
-4.3693599212598428
11
5.1873138582677161
21
-4.373109448818898
0
LINE
8
BLACK
6
CONTINUOUS
10
5.1873138582677161
20
-4.373109448818898
11
5.1910633858267712
21
-4.3806085433070869
0
LINE
8
BLACK
6
CONTINUOUS
10
5.1910633858267712
20
-4.3806085433070869
11
5.1910633858267712
21
-4.4031057086614176
0
LINE
8
BLACK
6
CONTINUOUS
10
5.1910633858267712
20
-4.4031057086614176
11
5.1873138582677161
21
-4.4106047637795278
0
LINE
8
BLACK
6
CONTINUOUS
10
5.1873138582677161
20
-4.4106047637795278
11
5.183564330708661
21
-4.4143543307086617
0
LINE
8
BLACK
6
CONTINUOUS
10
5.183564330708661
20
-4.4143543307086617
11
5.1760652755905507
21
-4.4181038582677168
0
LINE
8
BLACK
6
CONTINUOUS
10
5.1760652755905507
20
-4.4181038582677168
11
5.1648166535433067
21
-4.4181038582677168
0
LINE
8
BLACK
6
CONTINUOUS
10
5.2360577559055113
20
-4.4181038582677168
11
5.228558700787401
21
-4.4143543307086617
0
LINE
8
BLACK
6
CONTINUOUS
10
5.228558700787401
20
-4.4143543307086617
11
5.2248091732283459
21
-4.4068552362204727
0
LINE
8
BLACK
6
CONTINUOUS
10
5.2248091732283459
20
-4.4068552362204727
11
5.2248091732283459
21
-4.3393637007874011
0
LINE
8
BLACK
6
CONTINUOUS
10
5.2960502755905514
20
-4.4143543307086617
11
5.2885512204724412
21
-4.4181038582677168
0
LINE
8
BLACK
6
CONTINUOUS
10
5.2885512204724412
20
-4.4181038582677168
11
5.273553070866142
21
-4.4181038582677168
0
LINE
8
BLACK
6
CONTINUOUS
10
5.273553070866142
20
-4.4181038582677168
11
5.2660540157480318
21
-4.4143543307086617
0
LINE
8
BLACK
6
CONTINUOUS
10
5.2660540157480318
20
-4.4143543307086617
11
5.2623044881889767
21
-4.4068552362204727
0
LINE
8
BLACK
6
CONTINUOUS
10
5.2623044881889767
20
-4.4068552362204727
11
5.2623044881889767
21
-4.3768590157480318
0
LINE
8
BLACK
6
CONTINUOUS
10
5.2623044881889767
20
-4.3768590157480318
11
5.2660540157480318
21
-4.3693599212598428
0
LINE
8
BLACK
6
CONTINUOUS
10
5.2660540157480318
20
-4.3693599212598428
11
5.273553070866142
21
-4.3656103937007877
0
LINE
8
BLACK
6
CONTINUOUS
10
5.273553070866142
20
-4.3656103937007877
11
5.2885512204724412
21
-4.3656103937007877
0
LINE
8
BLACK
6
CONTINUOUS
10
5.2885512204724412
20
-4.3656103937007877
11
5.2960502755905514
21
-4.3693599212598428
0
LINE
8
BLACK
6
CONTINUOUS
10
5.2960502755905514
20
-4.3693599212598428
11
5.2997998031496065
21
-4.3768590157480318
0
LINE
8
BLACK
6
CONTINUOUS
10
5.2997998031496065
20
-4.3768590157480318
11
5.2997998031496065
21
-4.384358070866142
0
LINE
8
BLACK
6
CONTINUOUS
10
5.2997998031496065
20
-4.384358070866142
11
5.2623044881889767
21
-4.3918571259842523
0
LINE
8
BLACK
6
CONTINUOUS
10
5.3297960629921262
20
-4.4143543307086617
11
5.3372951181102364
21
-4.4181038582677168
0
LINE
8
BLACK
6
CONTINUOUS
10
5.3372951181102364
20
-4.4181038582677168
11
5.3522932283464568
21
-4.4181038582677168
0
LINE
8
BLACK
6
CONTINUOUS
10
5.3522932283464568
20
-4.4181038582677168
11
5.3597923228346458
21
-4.4143543307086617
0
LINE
8
BLACK
6
CONTINUOUS
10
5.3597923228346458
20
-4.4143543307086617
11
5.3635418503937009
21
-4.4068552362204727
0
LINE
8
BLACK
6
CONTINUOUS
10
5.3635418503937009
20
-4.4068552362204727
11
5.3635418503937009
21
-4.4031057086614176
0
LINE
8
BLACK
6
CONTINUOUS
10
5.3635418503937009
20
-4.4031057086614176
11
5.3597923228346458
21
-4.3956066535433074
0
LINE
8
BLACK
6
CONTINUOUS
10
5.3597923228346458
20
-4.3956066535433074
11
5.3522932283464568
21
-4.3918571259842523
0
LINE
8
BLACK
6
CONTINUOUS
10
5.3522932283464568
20
-4.3918571259842523
11
5.3410446456692915
21
-4.3918571259842523
0
LINE
8
BLACK
6
CONTINUOUS
10
5.3410446456692915
20
-4.3918571259842523
11
5.3335455905511813
21
-4.3881075984251972
0
LINE
8
BLACK
6
CONTINUOUS
10
5.3335455905511813
20
-4.3881075984251972
11
5.3297960629921262
21
-4.3806085433070869
0
LINE
8
BLACK
6
CONTINUOUS
10
5.3297960629921262
20
-4.3806085433070869
11
5.3297960629921262
21
-4.3768590157480318
0
LINE
8
BLACK
6
CONTINUOUS
10
5.3297960629921262
20
-4.3768590157480318
11
5.3335455905511813
21
-4.3693599212598428
0
LINE
8
BLACK
6
CONTINUOUS
10
5.3335455905511813
20
-4.3693599212598428
11
5.3410446456692915
21
-4.3656103937007877
0
LINE
8
BLACK
6
CONTINUOUS
10
5.3410446456692915
20
-4.3656103937007877
11
5.3522932283464568
21
-4.3656103937007877
0
LINE
8
BLACK
6
CONTINUOUS
10
5.3522932283464568
20
-4.3656103937007877
11
5.3597923228346458
21
-4.3693599212598428
0
LINE
8
BLACK
6
CONTINUOUS
10
5.3897885826771654
20
-4.4481000787401577
11
5.3935381102362205
21
-4.4443505511811026
0
LINE
8
BLACK
6
CONTINUOUS
10
5.3935381102362205
20
-4.4443505511811026
11
5.4010371653543308
21
-4.4331019685039372
0
LINE
8
BLACK
6
CONTINUOUS
10
5.4010371653543308
20
-4.4331019685039372
11
5.4047866929133859
21
-4.425602913385827
0
LINE
8
BLACK
6
CONTINUOUS
10
5.4047866929133859
20
-4.425602913385827
11
5.408536220472441
21
-4.4143543307086617
0
LINE
8
BLACK
6
CONTINUOUS
10
5.408536220472441
20
-4.4143543307086617
11
5.4122857480314961
21
-4.3956066535433074
0
LINE
8
BLACK
6
CONTINUOUS
10
5.4122857480314961
20
-4.3956066535433074
11
5.4122857480314961
21
-4.3806085433070869
0
LINE
8
BLACK
6
CONTINUOUS
10
5.4122857480314961
20
-4.3806085433070869
11
5.408536220472441
21
-4.3618608661417317
0
LINE
8
BLACK
6
CONTINUOUS
10
5.408536220472441
20
-4.3618608661417317
11
5.4047866929133859
21
-4.3506122834645664
0
LINE
8
BLACK
6
CONTINUOUS
10
5.4047866929133859
20
-4.3506122834645664
11
5.4010371653543308
21
-4.3431132283464562
0
LINE
8
BLACK
6
CONTINUOUS
10
5.4010371653543308
20
-4.3431132283464562
11
5.3935381102362205
21
-4.3318646062992121
0
LINE
8
BLACK
6
CONTINUOUS
10
5.3935381102362205
20
-4.3318646062992121
11
5.3897885826771654
21
-4.328115078740157
0
LINE
8
BLACK
6
CONTINUOUS
10
3.5040770472440945
20
-4.4999431889763777
11
3.5040770472440945
21
-4.4721040551181099
0
LINE
8
BLACK
6
CONTINUOUS
10
3.5040770472440945
20
-4.4721040551181099
11
3.4762379133858268
21
-4.4721040551181099
0
LINE
8
BLACK
6
CONTINUOUS
10
3.4762379133858268
20
-4.4721040551181099
11
3.4762379133858268
21
-4.4999431889763777
0
LINE
8
BLACK
6
CONTINUOUS
10
3.4762379133858268
20
-4.4999431889763777
11
3.5040770472440945
21
-4.4999431889763777
0
LINE
8
BLACK
6
CONTINUOUS
10
3.6537553937007874
20
-4.5220408661417322
11
3.6087610236220473
21
-4.5220408661417322
0
LINE
8
BLACK
6
CONTINUOUS
10
3.631258188976378
20
-4.5220408661417322
11
3.631258188976378
21
-4.4433007086614174
0
LINE
8
BLACK
6
CONTINUOUS
10
3.631258188976378
20
-4.4433007086614174
11
3.6237591338582678
21
-4.4545492913385827
0
LINE
8
BLACK
6
CONTINUOUS
10
3.6237591338582678
20
-4.4545492913385827
11
3.6162600787401575
21
-4.4620483464566929
0
LINE
8
BLACK
6
CONTINUOUS
10
3.6162600787401575
20
-4.4620483464566929
11
3.6087610236220473
21
-4.465797874015748
0
LINE
8
BLACK
6
CONTINUOUS
10
3.6875011811023621
20
-4.5145417716535432
11
3.6912507086614172
21
-4.5182913385826771
0
LINE
8
BLACK
6
CONTINUOUS
10
3.6912507086614172
20
-4.5182913385826771
11
3.6875011811023621
21
-4.5220408661417322
0
LINE
8
BLACK
6
CONTINUOUS
10
3.6875011811023621
20
-4.5220408661417322
11
3.683751653543307
21
-4.5182913385826771
0
LINE
8
BLACK
6
CONTINUOUS
10
3.683751653543307
20
-4.5182913385826771
11
3.6875011811023621
21
-4.5145417716535432
0
LINE
8
BLACK
6
CONTINUOUS
10
3.6875011811023621
20
-4.5145417716535432
11
3.6875011811023621
21
-4.5220408661417322
0
LINE
8
BLACK
6
CONTINUOUS
10
3.7399946062992124
20
-4.4433007086614174
11
3.7474937007874014
21
-4.4433007086614174
0
LINE
8
BLACK
6
CONTINUOUS
10
3.7474937007874014
20
-4.4433007086614174
11
3.7549927559055116
21
-4.4470502362204725
0
LINE
8
BLACK
6
CONTINUOUS
10
3.7549927559055116
20
-4.4470502362204725
11
3.7587422834645667
21
-4.4507997637795276
0
LINE
8
BLACK
6
CONTINUOUS
10
3.7587422834645667
20
-4.4507997637795276
11
3.7624918110236218
21
-4.4582988188976378
0
LINE
8
BLACK
6
CONTINUOUS
10
3.7624918110236218
20
-4.4582988188976378
11
3.766241338582677
21
-4.4732969291338582
0
LINE
8
BLACK
6
CONTINUOUS
10
3.766241338582677
20
-4.4732969291338582
11
3.766241338582677
21
-4.4920446062992125
0
LINE
8
BLACK
6
CONTINUOUS
10
3.766241338582677
20
-4.4920446062992125
11
3.7624918110236218
21
-4.507042716535433
0
LINE
8
BLACK
6
CONTINUOUS
10
3.7624918110236218
20
-4.507042716535433
11
3.7587422834645667
21
-4.5145417716535432
0
LINE
8
BLACK
6
CONTINUOUS
10
3.7587422834645667
20
-4.5145417716535432
11
3.7549927559055116
21
-4.5182913385826771
0
LINE
8
BLACK
6
CONTINUOUS
10
3.7549927559055116
20
-4.5182913385826771
11
3.7474937007874014
21
-4.5220408661417322
0
LINE
8
BLACK
6
CONTINUOUS
10
3.7474937007874014
20
-4.5220408661417322
11
3.7399946062992124
21
-4.5220408661417322
0
LINE
8
BLACK
6
CONTINUOUS
10
3.7399946062992124
20
-4.5220408661417322
11
3.7324955511811022
21
-4.5182913385826771
0
LINE
8
BLACK
6
CONTINUOUS
10
3.7324955511811022
20
-4.5182913385826771
11
3.7287460236220471
21
-4.5145417716535432
0
LINE
8
BLACK
6
CONTINUOUS
10
3.7287460236220471
20
-4.5145417716535432
11
3.724996496062992
21
-4.507042716535433
0
LINE
8
BLACK
6
CONTINUOUS
10
3.724996496062992
20
-4.507042716535433
11
3.7212469685039369
21
-4.4920446062992125
0
LINE
8
BLACK
6
CONTINUOUS
10
3.7212469685039369
20
-4.4920446062992125
11
3.7212469685039369
21
-4.4732969291338582
0
LINE
8
BLACK
6
CONTINUOUS
10
3.7212469685039369
20
-4.4732969291338582
11
3.724996496062992
21
-4.4582988188976378
0
LINE
8
BLACK
6
CONTINUOUS
10
3.724996496062992
20
-4.4582988188976378
11
3.7287460236220471
21
-4.4507997637795276
0
LINE
8
BLACK
6
CONTINUOUS
10
3.7287460236220471
20
-4.4507997637795276
11
3.7324955511811022
21
-4.4470502362204725
0
LINE
8
BLACK
6
CONTINUOUS
10
3.7324955511811022
20
-4.4470502362204725
11
3.7399946062992124
21
-4.4433007086614174
0
LINE
8
BLACK
6
CONTINUOUS
10
3.8149852362204721
20
-4.4433007086614174
11
3.8224843307086611
21
-4.4433007086614174
0
LINE
8
BLACK
6
CONTINUOUS
10
3.8224843307086611
20
-4.4433007086614174
11
3.8299833858267718
21
-4.4470502362204725
0
LINE
8
BLACK
6
CONTINUOUS
10
3.8299833858267718
20
-4.4470502362204725
11
3.8337329133858269
21
-4.4507997637795276
0
LINE
8
BLACK
6
CONTINUOUS
10
3.8337329133858269
20
-4.4507997637795276
11
3.837482440944882
21
-4.4582988188976378
0
LINE
8
BLACK
6
CONTINUOUS
10
3.837482440944882
20
-4.4582988188976378
11
3.8412319685039371
21
-4.4732969291338582
0
LINE
8
BLACK
6
CONTINUOUS
10
3.8412319685039371
20
-4.4732969291338582
11
3.8412319685039371
21
-4.4920446062992125
0
LINE
8
BLACK
6
CONTINUOUS
10
3.8412319685039371
20
-4.4920446062992125
11
3.837482440944882
21
-4.507042716535433
0
LINE
8
BLACK
6
CONTINUOUS
10
3.837482440944882
20
-4.507042716535433
11
3.8337329133858269
21
-4.5145417716535432
0
LINE
8
BLACK
6
CONTINUOUS
10
3.8337329133858269
20
-4.5145417716535432
11
3.8299833858267718
21
-4.5182913385826771
0
LINE
8
BLACK
6
CONTINUOUS
10
3.8299833858267718
20
-4.5182913385826771
11
3.8224843307086611
21
-4.5220408661417322
0
LINE
8
BLACK
6
CONTINUOUS
10
3.8224843307086611
20
-4.5220408661417322
11
3.8149852362204721
21
-4.5220408661417322
0
LINE
8
BLACK
6
CONTINUOUS
10
3.8149852362204721
20
-4.5220408661417322
11
3.8074861811023619
21
-4.5182913385826771
0
LINE
8
BLACK
6
CONTINUOUS
10
3.8074861811023619
20
-4.5182913385826771
11
3.8037366535433068
21
-4.5145417716535432
0
LINE
8
BLACK
6
CONTINUOUS
10
3.8037366535433068
20
-4.5145417716535432
11
3.7999871259842517
21
-4.507042716535433
0
LINE
8
BLACK
6
CONTINUOUS
10
3.7999871259842517
20
-4.507042716535433
11
3.7962375984251966
21
-4.4920446062992125
0
LINE
8
BLACK
6
CONTINUOUS
10
3.7962375984251966
20
-4.4920446062992125
11
3.7962375984251966
21
-4.4732969291338582
0
LINE
8
BLACK
6
CONTINUOUS
10
3.7962375984251966
20
-4.4732969291338582
11
3.7999871259842517
21
-4.4582988188976378
0
LINE
8
BLACK
6
CONTINUOUS
10
3.7999871259842517
20
-4.4582988188976378
11
3.8037366535433068
21
-4.4507997637795276
0
LINE
8
BLACK
6
CONTINUOUS
10
3.8037366535433068
20
-4.4507997637795276
11
3.8074861811023619
21
-4.4470502362204725
0
LINE
8
BLACK
6
CONTINUOUS
10
3.8074861811023619
20
-4.4470502362204725
11
3.8149852362204721
21
-4.4433007086614174
0
LINE
8
BLACK
6
CONTINUOUS
10
3.8899758661417323
20
-4.4433007086614174
11
3.8974749606299213
21
-4.4433007086614174
0
LINE
8
BLACK
6
CONTINUOUS
10
3.8974749606299213
20
-4.4433007086614174
11
3.9049740157480315
21
-4.4470502362204725
0
LINE
8
BLACK
6
CONTINUOUS
10
3.9049740157480315
20
-4.4470502362204725
11
3.9087235433070866
21
-4.4507997637795276
0
LINE
8
BLACK
6
CONTINUOUS
10
3.9087235433070866
20
-4.4507997637795276
11
3.9124730708661417
21
-4.4582988188976378
0
LINE
8
BLACK
6
CONTINUOUS
10
3.9124730708661417
20
-4.4582988188976378
11
3.9162225984251968
21
-4.4732969291338582
0
LINE
8
BLACK
6
CONTINUOUS
10
3.9162225984251968
20
-4.4732969291338582
11
3.9162225984251968
21
-4.4920446062992125
0
LINE
8
BLACK
6
CONTINUOUS
10
3.9162225984251968
20
-4.4920446062992125
11
3.9124730708661417
21
-4.507042716535433
0
LINE
8
BLACK
6
CONTINUOUS
10
3.9124730708661417
20
-4.507042716535433
11
3.9087235433070866
21
-4.5145417716535432
0
LINE
8
BLACK
6
CONTINUOUS
10
3.9087235433070866
20
-4.5145417716535432
11
3.9049740157480315
21
-4.5182913385826771
0
LINE
8
BLACK
6
CONTINUOUS
10
3.9049740157480315
20
-4.5182913385826771
11
3.8974749606299213
21
-4.5220408661417322
0
LINE
8
BLACK
6
CONTINUOUS
10
3.8974749606299213
20
-4.5220408661417322
11
3.8899758661417323
21
-4.5220408661417322
0
LINE
8
BLACK
6
CONTINUOUS
10
3.8899758661417323
20
-4.5220408661417322
11
3.8824768110236221
21
-4.5182913385826771
0
LINE
8
BLACK
6
CONTINUOUS
10
3.8824768110236221
20
-4.5182913385826771
11
3.878727283464567
21
-4.5145417716535432
0
LINE
8
BLACK
6
CONTINUOUS
10
3.878727283464567
20
-4.5145417716535432
11
3.8749777559055119
21
-4.507042716535433
0
LINE
8
BLACK
6
CONTINUOUS
10
3.8749777559055119
20
-4.507042716535433
11
3.8712282283464567
21
-4.4920446062992125
0
LINE
8
BLACK
6
CONTINUOUS
10
3.8712282283464567
20
-4.4920446062992125
11
3.8712282283464567
21
-4.4732969291338582
0
LINE
8
BLACK
6
CONTINUOUS
10
3.8712282283464567
20
-4.4732969291338582
11
3.8749777559055119
21
-4.4582988188976378
0
LINE
8
BLACK
6
CONTINUOUS
10
3.8749777559055119
20
-4.4582988188976378
11
3.878727283464567
21
-4.4507997637795276
0
LINE
8
BLACK
6
CONTINUOUS
10
3.878727283464567
20
-4.4507997637795276
11
3.8824768110236221
21
-4.4470502362204725
0
LINE
8
BLACK
6
CONTINUOUS
10
3.8824768110236221
20
-4.4470502362204725
11
3.8899758661417323
21
-4.4433007086614174
0
LINE
8
BLACK
6
CONTINUOUS
10
3.9499683858267716
20
-4.5220408661417322
11
3.9499683858267716
21
-4.4695474015748031
0
LINE
8
BLACK
6
CONTINUOUS
10
3.9499683858267716
20
-4.4770464566929133
11
3.9537179133858267
21
-4.4732969291338582
0
LINE
8
BLACK
6
CONTINUOUS
10
3.9537179133858267
20
-4.4732969291338582
11
3.9612169685039369
21
-4.4695474015748031
0
LINE
8
BLACK
6
CONTINUOUS
10
3.9612169685039369
20
-4.4695474015748031
11
3.972465590551181
21
-4.4695474015748031
0
LINE
8
BLACK
6
CONTINUOUS
10
3.972465590551181
20
-4.4695474015748031
11
3.9799646456692912
21
-4.4732969291338582
0
LINE
8
BLACK
6
CONTINUOUS
10
3.9799646456692912
20
-4.4732969291338582
11
3.9837141732283463
21
-4.4807960236220472
0
LINE
8
BLACK
6
CONTINUOUS
10
3.9837141732283463
20
-4.4807960236220472
11
3.9837141732283463
21
-4.5220408661417322
0
LINE
8
BLACK
6
CONTINUOUS
10
3.9837141732283463
20
-4.4807960236220472
11
3.9874637007874014
21
-4.4732969291338582
0
LINE
8
BLACK
6
CONTINUOUS
10
3.9874637007874014
20
-4.4732969291338582
11
3.9949627559055116
21
-4.4695474015748031
0
LINE
8
BLACK
6
CONTINUOUS
10
3.9949627559055116
20
-4.4695474015748031
11
4.006211338582677
21
-4.4695474015748031
0
LINE
8
BLACK
6
CONTINUOUS
10
4.006211338582677
20
-4.4695474015748031
11
4.0137104330708659
21
-4.4732969291338582
0
LINE
8
BLACK
6
CONTINUOUS
10
4.0137104330708659
20
-4.4732969291338582
11
4.0174599606299211
21
-4.4807960236220472
0
LINE
8
BLACK
6
CONTINUOUS
10
4.0174599606299211
20
-4.4807960236220472
11
4.0174599606299211
21
-4.5220408661417322
0
LINE
8
BLACK
6
CONTINUOUS
10
4.0549552755905509
20
-4.5220408661417322
11
4.0549552755905509
21
-4.4695474015748031
0
LINE
8
BLACK
6
CONTINUOUS
10
4.0549552755905509
20
-4.4770464566929133
11
4.058704803149606
21
-4.4732969291338582
0
LINE
8
BLACK
6
CONTINUOUS
10
4.058704803149606
20
-4.4732969291338582
11
4.0662038582677162
21
-4.4695474015748031
0
LINE
8
BLACK
6
CONTINUOUS
10
4.0662038582677162
20
-4.4695474015748031
11
4.0774524803149603
21
-4.4695474015748031
0
LINE
8
BLACK
6
CONTINUOUS
10
4.0774524803149603
20
-4.4695474015748031
11
4.0849515354330705
21
-4.4732969291338582
0
LINE
8
BLACK
6
CONTINUOUS
10
4.0849515354330705
20
-4.4732969291338582
11
4.0887010629921257
21
-4.4807960236220472
0
LINE
8
BLACK
6
CONTINUOUS
10
4.0887010629921257
20
-4.4807960236220472
11
4.0887010629921257
21
-4.5220408661417322
0
LINE
8
BLACK
6
CONTINUOUS
10
4.0887010629921257
20
-4.4807960236220472
11
4.0924505905511808
21
-4.4732969291338582
0
LINE
8
BLACK
6
CONTINUOUS
10
4.0924505905511808
20
-4.4732969291338582
11
4.099949645669291
21
-4.4695474015748031
0
LINE
8
BLACK
6
CONTINUOUS
10
4.099949645669291
20
-4.4695474015748031
11
4.1111982283464563
21
-4.4695474015748031
0
LINE
8
BLACK
6
CONTINUOUS
10
4.1111982283464563
20
-4.4695474015748031
11
4.1186973228346453
21
-4.4732969291338582
0
LINE
8
BLACK
6
CONTINUOUS
10
4.1186973228346453
20
-4.4732969291338582
11
4.1224468503937004
21
-4.4807960236220472
0
LINE
8
BLACK
6
CONTINUOUS
10
4.1224468503937004
20
-4.4807960236220472
11
4.1224468503937004
21
-4.5220408661417322
0
LINE
8
BLACK
6
CONTINUOUS
10
4.2761776377952758
20
-4.4395511811023622
11
4.2086861023622042
21
-4.5407885039370077
0
LINE
8
BLACK
6
CONTINUOUS
10
4.3774150000000001
20
-4.4433007086614174
11
4.384914094488189
21
-4.4433007086614174
0
LINE
8
BLACK
6
CONTINUOUS
10
4.384914094488189
20
-4.4433007086614174
11
4.3924131496062992
21
-4.4470502362204725
0
LINE
8
BLACK
6
CONTINUOUS
10
4.3924131496062992
20
-4.4470502362204725
11
4.3961626771653544
21
-4.4507997637795276
0
LINE
8
BLACK
6
CONTINUOUS
10
4.3961626771653544
20
-4.4507997637795276
11
4.3999122047244095
21
-4.4582988188976378
0
LINE
8
BLACK
6
CONTINUOUS
10
4.3999122047244095
20
-4.4582988188976378
11
4.4036617322834646
21
-4.4732969291338582
0
LINE
8
BLACK
6
CONTINUOUS
10
4.4036617322834646
20
-4.4732969291338582
11
4.4036617322834646
21
-4.4920446062992125
0
LINE
8
BLACK
6
CONTINUOUS
10
4.4036617322834646
20
-4.4920446062992125
11
4.3999122047244095
21
-4.507042716535433
0
LINE
8
BLACK
6
CONTINUOUS
10
4.3999122047244095
20
-4.507042716535433
11
4.3961626771653544
21
-4.5145417716535432
0
LINE
8
BLACK
6
CONTINUOUS
10
4.3961626771653544
20
-4.5145417716535432
11
4.3924131496062992
21
-4.5182913385826771
0
LINE
8
BLACK
6
CONTINUOUS
10
4.3924131496062992
20
-4.5182913385826771
11
4.384914094488189
21
-4.5220408661417322
0
LINE
8
BLACK
6
CONTINUOUS
10
4.384914094488189
20
-4.5220408661417322
11
4.3774150000000001
21
-4.5220408661417322
0
LINE
8
BLACK
6
CONTINUOUS
10
4.3774150000000001
20
-4.5220408661417322
11
4.3699159448818898
21
-4.5182913385826771
0
LINE
8
BLACK
6
CONTINUOUS
10
4.3699159448818898
20
-4.5182913385826771
11
4.3661664173228347
21
-4.5145417716535432
0
LINE
8
BLACK
6
CONTINUOUS
10
4.3661664173228347
20
-4.5145417716535432
11
4.3624168897637796
21
-4.507042716535433
0
LINE
8
BLACK
6
CONTINUOUS
10
4.3624168897637796
20
-4.507042716535433
11
4.3586673622047245
21
-4.4920446062992125
0
LINE
8
BLACK
6
CONTINUOUS
10
4.3586673622047245
20
-4.4920446062992125
11
4.3586673622047245
21
-4.4732969291338582
0
LINE
8
BLACK
6
CONTINUOUS
10
4.3586673622047245
20
-4.4732969291338582
11
4.3624168897637796
21
-4.4582988188976378
0
LINE
8
BLACK
6
CONTINUOUS
10
4.3624168897637796
20
-4.4582988188976378
11
4.3661664173228347
21
-4.4507997637795276
0
LINE
8
BLACK
6
CONTINUOUS
10
4.3661664173228347
20
-4.4507997637795276
11
4.3699159448818898
21
-4.4470502362204725
0
LINE
8
BLACK
6
CONTINUOUS
10
4.3699159448818898
20
-4.4470502362204725
11
4.3774150000000001
21
-4.4433007086614174
0
LINE
8
BLACK
6
CONTINUOUS
10
4.4374075196850393
20
-4.5145417716535432
11
4.4411570472440944
21
-4.5182913385826771
0
LINE
8
BLACK
6
CONTINUOUS
10
4.4411570472440944
20
-4.5182913385826771
11
4.4374075196850393
21
-4.5220408661417322
0
LINE
8
BLACK
6
CONTINUOUS
10
4.4374075196850393
20
-4.5220408661417322
11
4.4336579921259842
21
-4.5182913385826771
0
LINE
8
BLACK
6
CONTINUOUS
10
4.4336579921259842
20
-4.5182913385826771
11
4.4374075196850393
21
-4.5145417716535432
0
LINE
8
BLACK
6
CONTINUOUS
10
4.4374075196850393
20
-4.5145417716535432
11
4.4374075196850393
21
-4.5220408661417322
0
LINE
8
BLACK
6
CONTINUOUS
10
4.4899009448818896
20
-4.4433007086614174
11
4.4974000393700786
21
-4.4433007086614174
0
LINE
8
BLACK
6
CONTINUOUS
10
4.4974000393700786
20
-4.4433007086614174
11
4.5048990944881888
21
-4.4470502362204725
0
LINE
8
BLACK
6
CONTINUOUS
10
4.5048990944881888
20
-4.4470502362204725
11
4.5086486220472439
21
-4.4507997637795276
0
LINE
8
BLACK
6
CONTINUOUS
10
4.5086486220472439
20
-4.4507997637795276
11
4.512398149606299
21
-4.4582988188976378
0
LINE
8
BLACK
6
CONTINUOUS
10
4.512398149606299
20
-4.4582988188976378
11
4.5161476771653541
21
-4.4732969291338582
0
LINE
8
BLACK
6
CONTINUOUS
10
4.5161476771653541
20
-4.4732969291338582
11
4.5161476771653541
21
-4.4920446062992125
0
LINE
8
BLACK
6
CONTINUOUS
10
4.5161476771653541
20
-4.4920446062992125
11
4.512398149606299
21
-4.507042716535433
0
LINE
8
BLACK
6
CONTINUOUS
10
4.512398149606299
20
-4.507042716535433
11
4.5086486220472439
21
-4.5145417716535432
0
LINE
8
BLACK
6
CONTINUOUS
10
4.5086486220472439
20
-4.5145417716535432
11
4.5048990944881888
21
-4.5182913385826771
0
LINE
8
BLACK
6
CONTINUOUS
10
4.5048990944881888
20
-4.5182913385826771
11
4.4974000393700786
21
-4.5220408661417322
0
LINE
8
BLACK
6
CONTINUOUS
10
4.4974000393700786
20
-4.5220408661417322
11
4.4899009448818896
21
-4.5220408661417322
0
LINE
8
BLACK
6
CONTINUOUS
10
4.4899009448818896
20
-4.5220408661417322
11
4.4824018897637794
21
-4.5182913385826771
0
LINE
8
BLACK
6
CONTINUOUS
10
4.4824018897637794
20
-4.5182913385826771
11
4.4786523622047243
21
-4.5145417716535432
0
LINE
8
BLACK
6
CONTINUOUS
10
4.4786523622047243
20
-4.5145417716535432
11
4.4749028346456692
21
-4.507042716535433
0
LINE
8
BLACK
6
CONTINUOUS
10
4.4749028346456692
20
-4.507042716535433
11
4.4711533070866141
21
-4.4920446062992125
0
LINE
8
BLACK
6
CONTINUOUS
10
4.4711533070866141
20
-4.4920446062992125
11
4.4711533070866141
21
-4.4732969291338582
0
LINE
8
BLACK
6
CONTINUOUS
10
4.4711533070866141
20
-4.4732969291338582
11
4.4749028346456692
21
-4.4582988188976378
0
LINE
8
BLACK
6
CONTINUOUS
10
4.4749028346456692
20
-4.4582988188976378
11
4.4786523622047243
21
-4.4507997637795276
0
LINE
8
BLACK
6
CONTINUOUS
10
4.4786523622047243
20
-4.4507997637795276
11
4.4824018897637794
21
-4.4470502362204725
0
LINE
8
BLACK
6
CONTINUOUS
10
4.4824018897637794
20
-4.4470502362204725
11
4.4899009448818896
21
-4.4433007086614174
0
LINE
8
BLACK
6
CONTINUOUS
10
4.5423944094488187
20
-4.4433007086614174
11
4.5911383070866139
21
-4.4433007086614174
0
LINE
8
BLACK
6
CONTINUOUS
10
4.5911383070866139
20
-4.4433007086614174
11
4.5648915748031493
21
-4.4732969291338582
0
LINE
8
BLACK
6
CONTINUOUS
10
4.5648915748031493
20
-4.4732969291338582
11
4.5761401968503934
21
-4.4732969291338582
0
LINE
8
BLACK
6
CONTINUOUS
10
4.5761401968503934
20
-4.4732969291338582
11
4.5836392519685036
21
-4.4770464566929133
0
LINE
8
BLACK
6
CONTINUOUS
10
4.5836392519685036
20
-4.4770464566929133
11
4.5873887795275587
21
-4.4807960236220472
0
LINE
8
BLACK
6
CONTINUOUS
10
4.5873887795275587
20
-4.4807960236220472
11
4.5911383070866139
21
-4.4882950787401574
0
LINE
8
BLACK
6
CONTINUOUS
10
4.5911383070866139
20
-4.4882950787401574
11
4.5911383070866139
21
-4.507042716535433
0
LINE
8
BLACK
6
CONTINUOUS
10
4.5911383070866139
20
-4.507042716535433
11
4.5873887795275587
21
-4.5145417716535432
0
LINE
8
BLACK
6
CONTINUOUS
10
4.5873887795275587
20
-4.5145417716535432
11
4.5836392519685036
21
-4.5182913385826771
0
LINE
8
BLACK
6
CONTINUOUS
10
4.5836392519685036
20
-4.5182913385826771
11
4.5761401968503934
21
-4.5220408661417322
0
LINE
8
BLACK
6
CONTINUOUS
10
4.5761401968503934
20
-4.5220408661417322
11
4.553642992125984
21
-4.5220408661417322
0
LINE
8
BLACK
6
CONTINUOUS
10
4.553642992125984
20
-4.5220408661417322
11
4.5461439370078738
21
-4.5182913385826771
0
LINE
8
BLACK
6
CONTINUOUS
10
4.5461439370078738
20
-4.5182913385826771
11
4.5423944094488187
21
-4.5145417716535432
0
LINE
8
BLACK
6
CONTINUOUS
10
4.6286336220472437
20
-4.5220408661417322
11
4.6436317322834642
21
-4.5220408661417322
0
LINE
8
BLACK
6
CONTINUOUS
10
4.6436317322834642
20
-4.5220408661417322
11
4.6511308267716531
21
-4.5182913385826771
0
LINE
8
BLACK
6
CONTINUOUS
10
4.6511308267716531
20
-4.5182913385826771
11
4.6548803543307082
21
-4.5145417716535432
0
LINE
8
BLACK
6
CONTINUOUS
10
4.6548803543307082
20
-4.5145417716535432
11
4.6623794094488185
21
-4.5032931889763779
0
LINE
8
BLACK
6
CONTINUOUS
10
4.6623794094488185
20
-4.5032931889763779
11
4.6661289370078736
21
-4.4882950787401574
0
LINE
8
BLACK
6
CONTINUOUS
10
4.6661289370078736
20
-4.4882950787401574
11
4.6661289370078736
21
-4.4582988188976378
0
LINE
8
BLACK
6
CONTINUOUS
10
4.6661289370078736
20
-4.4582988188976378
11
4.6623794094488185
21
-4.4507997637795276
0
LINE
8
BLACK
6
CONTINUOUS
10
4.6623794094488185
20
-4.4507997637795276
11
4.6586298818897633
21
-4.4470502362204725
0
LINE
8
BLACK
6
CONTINUOUS
10
4.6586298818897633
20
-4.4470502362204725
11
4.6511308267716531
21
-4.4433007086614174
0
LINE
8
BLACK
6
CONTINUOUS
10
4.6511308267716531
20
-4.4433007086614174
11
4.6361326771653539
21
-4.4433007086614174
0
LINE
8
BLACK
6
CONTINUOUS
10
4.6361326771653539
20
-4.4433007086614174
11
4.6286336220472437
21
-4.4470502362204725
0
LINE
8
BLACK
6
CONTINUOUS
10
4.6286336220472437
20
-4.4470502362204725
11
4.6248840944881886
21
-4.4507997637795276
0
LINE
8
BLACK
6
CONTINUOUS
10
4.6248840944881886
20
-4.4507997637795276
11
4.6211345669291335
21
-4.4582988188976378
0
LINE
8
BLACK
6
CONTINUOUS
10
4.6211345669291335
20
-4.4582988188976378
11
4.6211345669291335
21
-4.4770464566929133
0
LINE
8
BLACK
6
CONTINUOUS
10
4.6211345669291335
20
-4.4770464566929133
11
4.6248840944881886
21
-4.4845455511811023
0
LINE
8
BLACK
6
CONTINUOUS
10
4.6248840944881886
20
-4.4845455511811023
11
4.6286336220472437
21
-4.4882950787401574
0
LINE
8
BLACK
6
CONTINUOUS
10
4.6286336220472437
20
-4.4882950787401574
11
4.6361326771653539
21
-4.4920446062992125
0
LINE
8
BLACK
6
CONTINUOUS
10
4.6361326771653539
20
-4.4920446062992125
11
4.6511308267716531
21
-4.4920446062992125
0
LINE
8
BLACK
6
CONTINUOUS
10
4.6511308267716531
20
-4.4920446062992125
11
4.6586298818897633
21
-4.4882950787401574
0
LINE
8
BLACK
6
CONTINUOUS
10
4.6586298818897633
20
-4.4882950787401574
11
4.6623794094488185
21
-4.4845455511811023
0
LINE
8
BLACK
6
CONTINUOUS
10
4.6623794094488185
20
-4.4845455511811023
11
4.6661289370078736
21
-4.4770464566929133
0
LINE
8
BLACK
6
CONTINUOUS
10
4.7336205118110239
20
-4.4695474015748031
11
4.7336205118110239
21
-4.5220408661417322
0
LINE
8
BLACK
6
CONTINUOUS
10
4.7148728346456688
20
-4.4395511811023622
11
4.6961251968503932
21
-4.4957941338582676
0
LINE
8
BLACK
6
CONTINUOUS
10
4.6961251968503932
20
-4.4957941338582676
11
4.7448690944881893
21
-4.4957941338582676
0
LINE
8
BLACK
6
CONTINUOUS
10
4.7711158267716538
20
-4.4433007086614174
11
4.7711158267716538
21
-4.4582988188976378
0
LINE
8
BLACK
6
CONTINUOUS
10
4.8011120866141734
20
-4.4433007086614174
11
4.8011120866141734
21
-4.4582988188976378
0
LINE
8
BLACK
6
CONTINUOUS
10
4.9173475984251969
20
-4.5520370866141731
11
4.913598031496063
21
-4.5482875590551179
0
LINE
8
BLACK
6
CONTINUOUS
10
4.913598031496063
20
-4.5482875590551179
11
4.9060989763779528
21
-4.5370389763779526
0
LINE
8
BLACK
6
CONTINUOUS
10
4.9060989763779528
20
-4.5370389763779526
11
4.9023494488188977
21
-4.5295399212598424
0
LINE
8
BLACK
6
CONTINUOUS
10
4.9023494488188977
20
-4.5295399212598424
11
4.8985999212598426
21
-4.5182913385826771
0
LINE
8
BLACK
6
CONTINUOUS
10
4.8985999212598426
20
-4.5182913385826771
11
4.8948503937007874
21
-4.4995436614173228
0
LINE
8
BLACK
6
CONTINUOUS
10
4.8948503937007874
20
-4.4995436614173228
11
4.8948503937007874
21
-4.4845455511811023
0
LINE
8
BLACK
6
CONTINUOUS
10
4.8948503937007874
20
-4.4845455511811023
11
4.8985999212598426
21
-4.465797874015748
0
LINE
8
BLACK
6
CONTINUOUS
10
4.8985999212598426
20
-4.465797874015748
11
4.9023494488188977
21
-4.4545492913385827
0
LINE
8
BLACK
6
CONTINUOUS
10
4.9023494488188977
20
-4.4545492913385827
11
4.9060989763779528
21
-4.4470502362204725
0
LINE
8
BLACK
6
CONTINUOUS
10
4.9060989763779528
20
-4.4470502362204725
11
4.913598031496063
21
-4.4358016141732284
0
LINE
8
BLACK
6
CONTINUOUS
10
4.913598031496063
20
-4.4358016141732284
11
4.9173475984251969
21
-4.4320520866141733
0
LINE
8
BLACK
6
CONTINUOUS
10
4.9885886614173227
20
-4.5220408661417322
11
4.9435942913385826
21
-4.5220408661417322
0
LINE
8
BLACK
6
CONTINUOUS
10
4.9660914566929133
20
-4.5220408661417322
11
4.9660914566929133
21
-4.4433007086614174
0
LINE
8
BLACK
6
CONTINUOUS
10
4.9660914566929133
20
-4.4433007086614174
11
4.9585924015748031
21
-4.4545492913385827
0
LINE
8
BLACK
6
CONTINUOUS
10
4.9585924015748031
20
-4.4545492913385827
11
4.9510933464566929
21
-4.4620483464566929
0
LINE
8
BLACK
6
CONTINUOUS
10
4.9510933464566929
20
-4.4620483464566929
11
4.9435942913385826
21
-4.465797874015748
0
LINE
8
BLACK
6
CONTINUOUS
10
5.0560802362204722
20
-4.4433007086614174
11
5.041082086614173
21
-4.4433007086614174
0
LINE
8
BLACK
6
CONTINUOUS
10
5.041082086614173
20
-4.4433007086614174
11
5.0335830314960628
21
-4.4470502362204725
0
LINE
8
BLACK
6
CONTINUOUS
10
5.0335830314960628
20
-4.4470502362204725
11
5.0298335039370077
21
-4.4507997637795276
0
LINE
8
BLACK
6
CONTINUOUS
10
5.0298335039370077
20
-4.4507997637795276
11
5.0223344488188975
21
-4.4620483464566929
0
LINE
8
BLACK
6
CONTINUOUS
10
5.0223344488188975
20
-4.4620483464566929
11
5.0185849212598423
21
-4.4770464566929133
0
LINE
8
BLACK
6
CONTINUOUS
10
5.0185849212598423
20
-4.4770464566929133
11
5.0185849212598423
21
-4.507042716535433
0
LINE
8
BLACK
6
CONTINUOUS
10
5.0185849212598423
20
-4.507042716535433
11
5.0223344488188975
21
-4.5145417716535432
0
LINE
8
BLACK
6
CONTINUOUS
10
5.0223344488188975
20
-4.5145417716535432
11
5.0260839763779526
21
-4.5182913385826771
0
LINE
8
BLACK
6
CONTINUOUS
10
5.0260839763779526
20
-4.5182913385826771
11
5.0335830314960628
21
-4.5220408661417322
0
LINE
8
BLACK
6
CONTINUOUS
10
5.0335830314960628
20
-4.5220408661417322
11
5.048581181102362
21
-4.5220408661417322
0
LINE
8
BLACK
6
CONTINUOUS
10
5.048581181102362
20
-4.5220408661417322
11
5.0560802362204722
21
-4.5182913385826771
0
LINE
8
BLACK
6
CONTINUOUS
10
5.0560802362204722
20
-4.5182913385826771
11
5.0598297637795273
21
-4.5145417716535432
0
LINE
8
BLACK
6
CONTINUOUS
10
5.0598297637795273
20
-4.5145417716535432
11
5.0635792913385824
21
-4.507042716535433
0
LINE
8
BLACK
6
CONTINUOUS
10
5.0635792913385824
20
-4.507042716535433
11
5.0635792913385824
21
-4.4882950787401574
0
LINE
8
BLACK
6
CONTINUOUS
10
5.0635792913385824
20
-4.4882950787401574
11
5.0598297637795273
21
-4.4807960236220472
0
LINE
8
BLACK
6
CONTINUOUS
10
5.0598297637795273
20
-4.4807960236220472
11
5.0560802362204722
21
-4.4770464566929133
0
LINE
8
BLACK
6
CONTINUOUS
10
5.0560802362204722
20
-4.4770464566929133
11
5.048581181102362
21
-4.4732969291338582
0
LINE
8
BLACK
6
CONTINUOUS
10
5.048581181102362
20
-4.4732969291338582
11
5.0335830314960628
21
-4.4732969291338582
0
LINE
8
BLACK
6
CONTINUOUS
10
5.0335830314960628
20
-4.4732969291338582
11
5.0260839763779526
21
-4.4770464566929133
0
LINE
8
BLACK
6
CONTINUOUS
10
5.0260839763779526
20
-4.4770464566929133
11
5.0223344488188975
21
-4.4807960236220472
0
LINE
8
BLACK
6
CONTINUOUS
10
5.0223344488188975
20
-4.4807960236220472
11
5.0185849212598423
21
-4.4882950787401574
0
LINE
8
BLACK
6
CONTINUOUS
10
5.1573175984251964
20
-4.5220408661417322
11
5.1573175984251964
21
-4.4433007086614174
0
LINE
8
BLACK
6
CONTINUOUS
10
5.1910633858267712
20
-4.5220408661417322
11
5.1910633858267712
21
-4.4807960236220472
0
LINE
8
BLACK
6
CONTINUOUS
10
5.1910633858267712
20
-4.4807960236220472
11
5.1873138582677161
21
-4.4732969291338582
0
LINE
8
BLACK
6
CONTINUOUS
10
5.1873138582677161
20
-4.4732969291338582
11
5.1798148031496059
21
-4.4695474015748031
0
LINE
8
BLACK
6
CONTINUOUS
10
5.1798148031496059
20
-4.4695474015748031
11
5.1685661811023618
21
-4.4695474015748031
0
LINE
8
BLACK
6
CONTINUOUS
10
5.1685661811023618
20
-4.4695474015748031
11
5.1610671259842515
21
-4.4732969291338582
0
LINE
8
BLACK
6
CONTINUOUS
10
5.1610671259842515
20
-4.4732969291338582
11
5.1573175984251964
21
-4.4770464566929133
0
LINE
8
BLACK
6
CONTINUOUS
10
5.2398072834645664
20
-4.5220408661417322
11
5.2323082283464561
21
-4.5182913385826771
0
LINE
8
BLACK
6
CONTINUOUS
10
5.2323082283464561
20
-4.5182913385826771
11
5.228558700787401
21
-4.5145417716535432
0
LINE
8
BLACK
6
CONTINUOUS
10
5.228558700787401
20
-4.5145417716535432
11
5.2248091732283459
21
-4.507042716535433
0
LINE
8
BLACK
6
CONTINUOUS
10
5.2248091732283459
20
-4.507042716535433
11
5.2248091732283459
21
-4.4845455511811023
0
LINE
8
BLACK
6
CONTINUOUS
10
5.2248091732283459
20
-4.4845455511811023
11
5.228558700787401
21
-4.4770464566929133
0
LINE
8
BLACK
6
CONTINUOUS
10
5.228558700787401
20
-4.4770464566929133
11
5.2323082283464561
21
-4.4732969291338582
0
LINE
8
BLACK
6
CONTINUOUS
10
5.2323082283464561
20
-4.4732969291338582
11
5.2398072834645664
21
-4.4695474015748031
0
LINE
8
BLACK
6
CONTINUOUS
10
5.2398072834645664
20
-4.4695474015748031
11
5.2510559055118113
21
-4.4695474015748031
0
LINE
8
BLACK
6
CONTINUOUS
10
5.2510559055118113
20
-4.4695474015748031
11
5.2585549606299216
21
-4.4732969291338582
0
LINE
8
BLACK
6
CONTINUOUS
10
5.2585549606299216
20
-4.4732969291338582
11
5.2623044881889767
21
-4.4770464566929133
0
LINE
8
BLACK
6
CONTINUOUS
10
5.2623044881889767
20
-4.4770464566929133
11
5.2660540157480318
21
-4.4845455511811023
0
LINE
8
BLACK
6
CONTINUOUS
10
5.2660540157480318
20
-4.4845455511811023
11
5.2660540157480318
21
-4.507042716535433
0
LINE
8
BLACK
6
CONTINUOUS
10
5.2660540157480318
20
-4.507042716535433
11
5.2623044881889767
21
-4.5145417716535432
0
LINE
8
BLACK
6
CONTINUOUS
10
5.2623044881889767
20
-4.5145417716535432
11
5.2585549606299216
21
-4.5182913385826771
0
LINE
8
BLACK
6
CONTINUOUS
10
5.2585549606299216
20
-4.5182913385826771
11
5.2510559055118113
21
-4.5220408661417322
0
LINE
8
BLACK
6
CONTINUOUS
10
5.2510559055118113
20
-4.5220408661417322
11
5.2398072834645664
21
-4.5220408661417322
0
LINE
8
BLACK
6
CONTINUOUS
10
5.3110483858267719
20
-4.5220408661417322
11
5.3035493307086616
21
-4.5182913385826771
0
LINE
8
BLACK
6
CONTINUOUS
10
5.3035493307086616
20
-4.5182913385826771
11
5.2997998031496065
21
-4.5107922440944881
0
LINE
8
BLACK
6
CONTINUOUS
10
5.2997998031496065
20
-4.5107922440944881
11
5.2997998031496065
21
-4.4433007086614174
0
LINE
8
BLACK
6
CONTINUOUS
10
5.3710409055118111
20
-4.5182913385826771
11
5.3635418503937009
21
-4.5220408661417322
0
LINE
8
BLACK
6
CONTINUOUS
10
5.3635418503937009
20
-4.5220408661417322
11
5.3485437007874017
21
-4.5220408661417322
0
LINE
8
BLACK
6
CONTINUOUS
10
5.3485437007874017
20
-4.5220408661417322
11
5.3410446456692915
21
-4.5182913385826771
0
LINE
8
BLACK
6
CONTINUOUS
10
5.3410446456692915
20
-4.5182913385826771
11
5.3372951181102364
21
-4.5107922440944881
0
LINE
8
BLACK
6
CONTINUOUS
10
5.3372951181102364
20
-4.5107922440944881
11
5.3372951181102364
21
-4.4807960236220472
0
LINE
8
BLACK
6
CONTINUOUS
10
5.3372951181102364
20
-4.4807960236220472
11
5.3410446456692915
21
-4.4732969291338582
0
LINE
8
BLACK
6
CONTINUOUS
10
5.3410446456692915
20
-4.4732969291338582
11
5.3485437007874017
21
-4.4695474015748031
0
LINE
8
BLACK
6
CONTINUOUS
10
5.3485437007874017
20
-4.4695474015748031
11
5.3635418503937009
21
-4.4695474015748031
0
LINE
8
BLACK
6
CONTINUOUS
10
5.3635418503937009
20
-4.4695474015748031
11
5.3710409055118111
21
-4.4732969291338582
0
LINE
8
BLACK
6
CONTINUOUS
10
5.3710409055118111
20
-4.4732969291338582
11
5.3747904330708662
21
-4.4807960236220472
0
LINE
8
BLACK
6
CONTINUOUS
10
5.3747904330708662
20
-4.4807960236220472
11
5.3747904330708662
21
-4.4882950787401574
0
LINE
8
BLACK
6
CONTINUOUS
10
5.3747904330708662
20
-4.4882950787401574
11
5.3372951181102364
21
-4.4957941338582676
0
LINE
8
BLACK
6
CONTINUOUS
10
5.4047866929133859
20
-4.5182913385826771
11
5.4122857480314961
21
-4.5220408661417322
0
LINE
8
BLACK
6
CONTINUOUS
10
5.4122857480314961
20
-4.5220408661417322
11
5.4272838582677165
21
-4.5220408661417322
0
LINE
8
BLACK
6
CONTINUOUS
10
5.4272838582677165
20
-4.5220408661417322
11
5.4347829527559055
21
-4.5182913385826771
0
LINE
8
BLACK
6
CONTINUOUS
10
5.4347829527559055
20
-4.5182913385826771
11
5.4385324803149606
21
-4.5107922440944881
0
LINE
8
BLACK
6
CONTINUOUS
10
5.4385324803149606
20
-4.5107922440944881
11
5.4385324803149606
21
-4.507042716535433
0
LINE
8
BLACK
6
CONTINUOUS
10
5.4385324803149606
20
-4.507042716535433
11
5.4347829527559055
21
-4.4995436614173228
0
LINE
8
BLACK
6
CONTINUOUS
10
5.4347829527559055
20
-4.4995436614173228
11
5.4272838582677165
21
-4.4957941338582676
0
LINE
8
BLACK
6
CONTINUOUS
10
5.4272838582677165
20
-4.4957941338582676
11
5.4160352755905512
21
-4.4957941338582676
0
LINE
8
BLACK
6
CONTINUOUS
10
5.4160352755905512
20
-4.4957941338582676
11
5.408536220472441
21
-4.4920446062992125
0
LINE
8
BLACK
6
CONTINUOUS
10
5.408536220472441
20
-4.4920446062992125
11
5.4047866929133859
21
-4.4845455511811023
0
LINE
8
BLACK
6
CONTINUOUS
10
5.4047866929133859
20
-4.4845455511811023
11
5.4047866929133859
21
-4.4807960236220472
0
LINE
8
BLACK
6
CONTINUOUS
10
5.4047866929133859
20
-4.4807960236220472
11
5.408536220472441
21
-4.4732969291338582
0
LINE
8
BLACK
6
CONTINUOUS
10
5.408536220472441
20
-4.4732969291338582
11
5.4160352755905512
21
-4.4695474015748031
0
LINE
8
BLACK
6
CONTINUOUS
10
5.4160352755905512
20
-4.4695474015748031
11
5.4272838582677165
21
-4.4695474015748031
0
LINE
8
BLACK
6
CONTINUOUS
10
5.4272838582677165
20
-4.4695474015748031
11
5.4347829527559055
21
-4.4732969291338582
0
LINE
8
BLACK
6
CONTINUOUS
10
5.4647792125984251
20
-4.5520370866141731
11
5.4685287401574803
21
-4.5482875590551179
0
LINE
8
BLACK
6
CONTINUOUS
10
5.4685287401574803
20
-4.5482875590551179
11
5.4760277952755905
21
-4.5370389763779526
0
LINE
8
BLACK
6
CONTINUOUS
10
5.4760277952755905
20
-4.5370389763779526
11
5.4797773228346456
21
-4.5295399212598424
0
LINE
8
BLACK
6
CONTINUOUS
10
5.4797773228346456
20
-4.5295399212598424
11
5.4835268503937007
21
-4.5182913385826771
0
LINE
8
BLACK
6
CONTINUOUS
10
5.4835268503937007
20
-4.5182913385826771
11
5.4872763779527558
21
-4.4995436614173228
0
LINE
8
BLACK
6
CONTINUOUS
10
5.4872763779527558
20
-4.4995436614173228
11
5.4872763779527558
21
-4.4845455511811023
0
LINE
8
BLACK
6
CONTINUOUS
10
5.4872763779527558
20
-4.4845455511811023
11
5.4835268503937007
21
-4.465797874015748
0
LINE
8
BLACK
6
CONTINUOUS
10
5.4835268503937007
20
-4.465797874015748
11
5.4797773228346456
21
-4.4545492913385827
0
LINE
8
BLACK
6
CONTINUOUS
10
5.4797773228346456
20
-4.4545492913385827
11
5.4760277952755905
21
-4.4470502362204725
0
LINE
8
BLACK
6
CONTINUOUS
10
5.4760277952755905
20
-4.4470502362204725
11
5.4685287401574803
21
-4.4358016141732284
0
LINE
8
BLACK
6
CONTINUOUS
10
5.4685287401574803
20
-4.4358016141732284
11
5.4647792125984251
21
-4.4320520866141733
  0
ENDSEC
  0
EOF
