%TF.GenerationSoftware,KiCad,Pcbnew,9.0.3+dfsg-1*%
%TF.CreationDate,2025-10-23T15:20:38+02:00*%
%TF.ProjectId,SommerESP,536f6d6d-6572-4455-9350-2e6b69636164,3.0*%
%TF.SameCoordinates,Original*%
%TF.FileFunction,Copper,L2,Bot*%
%TF.FilePolarity,Positive*%
%FSLAX46Y46*%
G04 Gerber Fmt 4.6, Leading zero omitted, Abs format (unit mm)*
G04 Created by KiCad (PCBNEW 9.0.3+dfsg-1) date 2025-10-23 15:20:38*
%MOMM*%
%LPD*%
G01*
G04 APERTURE LIST*
%TA.AperFunction,ComponentPad*%
%ADD10R,1.700000X1.700000*%
%TD*%
%TA.AperFunction,ComponentPad*%
%ADD11C,1.700000*%
%TD*%
%TA.AperFunction,ComponentPad*%
%ADD12O,1.700000X1.700000*%
%TD*%
%TA.AperFunction,ViaPad*%
%ADD13C,0.400000*%
%TD*%
%TA.AperFunction,ViaPad*%
%ADD14C,0.800000*%
%TD*%
%TA.AperFunction,Conductor*%
%ADD15C,0.750000*%
%TD*%
%TA.AperFunction,Conductor*%
%ADD16C,0.400000*%
%TD*%
%TA.AperFunction,Conductor*%
%ADD17C,0.500000*%
%TD*%
G04 APERTURE END LIST*
D10*
%TO.P,J1,1,Pin_1*%
%TO.N,GND*%
X35625000Y-45075000D03*
D11*
%TO.P,J1,2,Pin_2*%
%TO.N,IO3*%
X35625000Y-42535000D03*
%TO.P,J1,3,Pin_3*%
%TO.N,IO19*%
X35625000Y-39995000D03*
%TO.P,J1,4,Pin_4*%
%TO.N,IO18*%
X35625000Y-37455000D03*
%TO.P,J1,5,Pin_5*%
%TO.N,TX*%
X35625000Y-34915000D03*
%TO.P,J1,6,Pin_6*%
%TO.N,RX*%
X35625000Y-32375000D03*
%TO.P,J1,7,Pin_7*%
%TO.N,IO5*%
X35625000Y-29835000D03*
%TO.P,J1,8,Pin_8*%
%TO.N,+3.3V*%
X35625000Y-27295000D03*
%TD*%
D10*
%TO.P,J4,1,Pin_1*%
%TO.N,Keypad1*%
X49120000Y-26050000D03*
D12*
%TO.P,J4,2,Pin_2*%
%TO.N,Keypad2*%
X51660000Y-26050000D03*
%TO.P,J4,3,Pin_3*%
%TO.N,Keypad3*%
X54200000Y-26050000D03*
%TD*%
D10*
%TO.P,J6,1,Pin_1*%
%TO.N,+24V*%
X63725000Y-36675000D03*
D12*
%TO.P,J6,2,Pin_2*%
%TO.N,unconnected-(J6-Pin_2-Pad2)*%
X63725000Y-34135000D03*
%TO.P,J6,3,Pin_3*%
%TO.N,SommerSIG*%
X63725000Y-31595000D03*
%TO.P,J6,4,Pin_4*%
%TO.N,GND*%
X63725000Y-29055000D03*
%TD*%
D10*
%TO.P,J3,1,Pin_1*%
%TO.N,Keypad1*%
X49120000Y-29475000D03*
D12*
%TO.P,J3,2,Pin_2*%
%TO.N,Keypad2*%
X51660000Y-29475000D03*
%TO.P,J3,3,Pin_3*%
%TO.N,Keypad3*%
X54200000Y-29475000D03*
%TD*%
D13*
%TO.N,Keypad3*%
X60975000Y-29350000D03*
D14*
%TO.N,+3.3V*%
X58200000Y-42275000D03*
X58075000Y-46775000D03*
X54925000Y-46775000D03*
X87575000Y-36350000D03*
%TO.N,GND*%
X54950000Y-34750000D03*
X45525000Y-38350000D03*
X92175000Y-34725000D03*
X67925000Y-42525000D03*
X62200000Y-42550000D03*
X74125000Y-34200000D03*
X48175000Y-38375000D03*
X92175000Y-31325000D03*
X82500000Y-33275000D03*
X103500000Y-32775000D03*
X105350000Y-32750000D03*
X103425000Y-30150000D03*
X105350000Y-30150000D03*
X46275000Y-27450000D03*
X46900000Y-38375000D03*
%TO.N,IO9*%
X55050000Y-36250000D03*
X62925000Y-43300000D03*
%TO.N,+24V*%
X80550000Y-29200000D03*
%TO.N,AnalogSIG*%
X72075000Y-36800000D03*
X58192576Y-43550000D03*
%TO.N,EN*%
X62475000Y-44400000D03*
X67075000Y-44425000D03*
D13*
%TO.N,IO6*%
X59125000Y-32225000D03*
X57150000Y-29500000D03*
D14*
%TO.N,IO5*%
X51550000Y-42650000D03*
D13*
%TO.N,IO8*%
X60900000Y-37250000D03*
X57825000Y-37500000D03*
D14*
%TO.N,IO2*%
X45500000Y-31975000D03*
X44500000Y-34325000D03*
%TD*%
D15*
%TO.N,Keypad1*%
X49120000Y-26050000D02*
X49120000Y-29445000D01*
X49120000Y-29445000D02*
X49275000Y-29600000D01*
D16*
%TO.N,Keypad3*%
X58225000Y-25975000D02*
X54250000Y-25975000D01*
X60975000Y-28725000D02*
X58225000Y-25975000D01*
X60975000Y-29350000D02*
X60975000Y-28725000D01*
D15*
X54200000Y-26050000D02*
X54200000Y-29425000D01*
X54200000Y-29425000D02*
X54100000Y-29525000D01*
%TO.N,+3.3V*%
X82875000Y-41050000D02*
X87575000Y-36350000D01*
X71500000Y-45125000D02*
X71500000Y-41600000D01*
X69850000Y-46775000D02*
X71500000Y-45125000D01*
D16*
X58200000Y-42275000D02*
X54925000Y-45550000D01*
D15*
X72050000Y-41050000D02*
X82875000Y-41050000D01*
D16*
X54925000Y-45550000D02*
X54925000Y-46775000D01*
D15*
X71500000Y-41600000D02*
X72050000Y-41050000D01*
X58075000Y-46775000D02*
X69850000Y-46775000D01*
D16*
%TO.N,IO9*%
X55050000Y-36250000D02*
X55050000Y-36532786D01*
X62874000Y-43351000D02*
X62925000Y-43300000D01*
X61867214Y-43350000D02*
X61900000Y-43350000D01*
X55050000Y-36532786D02*
X61867214Y-43350000D01*
X61868214Y-43351000D02*
X62874000Y-43351000D01*
D15*
%TO.N,+24V*%
X73025000Y-29200000D02*
X80550000Y-29200000D01*
X63725000Y-36675000D02*
X65550000Y-36675000D01*
X65550000Y-36675000D02*
X73025000Y-29200000D01*
D17*
%TO.N,AnalogSIG*%
X59918576Y-45276000D02*
X68999000Y-45276000D01*
X70125000Y-44150000D02*
X70125000Y-42625000D01*
X70125000Y-41450000D02*
X72075000Y-39500000D01*
X58192576Y-43550000D02*
X59918576Y-45276000D01*
X68999000Y-45276000D02*
X70125000Y-44150000D01*
X72075000Y-39500000D02*
X72075000Y-36800000D01*
X70125000Y-42625000D02*
X70125000Y-41450000D01*
D15*
%TO.N,Keypad2*%
X51660000Y-29435000D02*
X51700000Y-29475000D01*
X51660000Y-26050000D02*
X51660000Y-29435000D01*
D17*
%TO.N,EN*%
X62475000Y-44400000D02*
X67050000Y-44400000D01*
X67050000Y-44400000D02*
X67075000Y-44425000D01*
D16*
%TO.N,IO6*%
X57150000Y-30250000D02*
X59125000Y-32225000D01*
X57150000Y-29500000D02*
X57150000Y-30250000D01*
D17*
%TO.N,IO5*%
X35625000Y-29835000D02*
X48440000Y-42650000D01*
X48440000Y-42650000D02*
X51550000Y-42650000D01*
D16*
%TO.N,IO8*%
X57825000Y-37500000D02*
X60650000Y-37500000D01*
X60650000Y-37500000D02*
X60900000Y-37250000D01*
D17*
%TO.N,IO2*%
X44500000Y-32975000D02*
X44500000Y-33100000D01*
X44500000Y-34325000D02*
X44500000Y-33075000D01*
X45500000Y-31975000D02*
X44500000Y-32975000D01*
%TD*%
%TA.AperFunction,Conductor*%
%TO.N,GND*%
G36*
X46668039Y-24744685D02*
G01*
X46713794Y-24797489D01*
X46725000Y-24849000D01*
X46725000Y-31900000D01*
X56475000Y-31800000D01*
X56475000Y-30876333D01*
X56494685Y-30809294D01*
X56547489Y-30763539D01*
X56616647Y-30753595D01*
X56680203Y-30782620D01*
X56686681Y-30788652D01*
X58673354Y-32775325D01*
X58673358Y-32775328D01*
X58789399Y-32852865D01*
X58789400Y-32852865D01*
X58789401Y-32852866D01*
X58789403Y-32852867D01*
X58854947Y-32880016D01*
X58880572Y-32890630D01*
X58918338Y-32906273D01*
X58918340Y-32906273D01*
X58918345Y-32906275D01*
X59055214Y-32933499D01*
X59055218Y-32933500D01*
X59055219Y-32933500D01*
X59194782Y-32933500D01*
X59263221Y-32919886D01*
X59331662Y-32906273D01*
X59369427Y-32890630D01*
X59460601Y-32852865D01*
X59576643Y-32775328D01*
X59675328Y-32676643D01*
X59752865Y-32560601D01*
X59806273Y-32431661D01*
X59807272Y-32426642D01*
X59811511Y-32405332D01*
X59823382Y-32345652D01*
X59823382Y-32345649D01*
X59833500Y-32294782D01*
X59833500Y-32155219D01*
X59825795Y-32116483D01*
X59806275Y-32018346D01*
X59806272Y-32018337D01*
X59752867Y-31889403D01*
X59752866Y-31889401D01*
X59750273Y-31885521D01*
X59675328Y-31773358D01*
X59675325Y-31773354D01*
X59390055Y-31488084D01*
X62366500Y-31488084D01*
X62366500Y-31701916D01*
X62374968Y-31755378D01*
X62399951Y-31913117D01*
X62466026Y-32116480D01*
X62466027Y-32116483D01*
X62556876Y-32294782D01*
X62563106Y-32307009D01*
X62688794Y-32480004D01*
X62839996Y-32631206D01*
X63008666Y-32753752D01*
X63012991Y-32756894D01*
X63016873Y-32759273D01*
X63063748Y-32811086D01*
X63075169Y-32880016D01*
X63047512Y-32944178D01*
X63016873Y-32970727D01*
X63012991Y-32973105D01*
X62839993Y-33098796D01*
X62688796Y-33249993D01*
X62563106Y-33422990D01*
X62466027Y-33613516D01*
X62466026Y-33613519D01*
X62399951Y-33816882D01*
X62366500Y-34028084D01*
X62366500Y-34241915D01*
X62399951Y-34453117D01*
X62466026Y-34656480D01*
X62466027Y-34656483D01*
X62563106Y-34847009D01*
X62688794Y-35020004D01*
X62688796Y-35020006D01*
X62793971Y-35125181D01*
X62827456Y-35186504D01*
X62822472Y-35256196D01*
X62780600Y-35312129D01*
X62749625Y-35329043D01*
X62628795Y-35374111D01*
X62511739Y-35461739D01*
X62424111Y-35578795D01*
X62373011Y-35715795D01*
X62373011Y-35715797D01*
X62366500Y-35776345D01*
X62366500Y-37573654D01*
X62373011Y-37634202D01*
X62373011Y-37634204D01*
X62398168Y-37701650D01*
X62424111Y-37771204D01*
X62511739Y-37888261D01*
X62628796Y-37975889D01*
X62765799Y-38026989D01*
X62793050Y-38029918D01*
X62826345Y-38033499D01*
X62826362Y-38033500D01*
X64623638Y-38033500D01*
X64623654Y-38033499D01*
X64650692Y-38030591D01*
X64684201Y-38026989D01*
X64821204Y-37975889D01*
X64938261Y-37888261D01*
X65025889Y-37771204D01*
X65051835Y-37701642D01*
X65075138Y-37639166D01*
X65117009Y-37583232D01*
X65182474Y-37558816D01*
X65191319Y-37558500D01*
X65637018Y-37558500D01*
X65637019Y-37558499D01*
X65807708Y-37524548D01*
X65968495Y-37457948D01*
X66113199Y-37361259D01*
X73354639Y-30119819D01*
X73415962Y-30086334D01*
X73442320Y-30083500D01*
X80322625Y-30083500D01*
X80346816Y-30085883D01*
X80372126Y-30090917D01*
X80460518Y-30108499D01*
X80460520Y-30108500D01*
X80460521Y-30108500D01*
X80639480Y-30108500D01*
X80639481Y-30108499D01*
X80815000Y-30073587D01*
X80980336Y-30005102D01*
X81129135Y-29905678D01*
X81255678Y-29779135D01*
X81355102Y-29630336D01*
X81423587Y-29465000D01*
X81458500Y-29289479D01*
X81458500Y-29110521D01*
X81423587Y-28935000D01*
X81355102Y-28769664D01*
X81355100Y-28769661D01*
X81355098Y-28769657D01*
X81255678Y-28620865D01*
X81255675Y-28620861D01*
X81129138Y-28494324D01*
X81129134Y-28494321D01*
X80980342Y-28394901D01*
X80980332Y-28394896D01*
X80815000Y-28326413D01*
X80814992Y-28326411D01*
X80639483Y-28291500D01*
X80639479Y-28291500D01*
X80460521Y-28291500D01*
X80460517Y-28291500D01*
X80346816Y-28314117D01*
X80322625Y-28316500D01*
X72937983Y-28316500D01*
X72801244Y-28343698D01*
X72801243Y-28343698D01*
X72767299Y-28350449D01*
X72767297Y-28350450D01*
X72700692Y-28378037D01*
X72700692Y-28378038D01*
X72659982Y-28394901D01*
X72606503Y-28417053D01*
X72596351Y-28423837D01*
X72596349Y-28423838D01*
X72461801Y-28513740D01*
X72461797Y-28513743D01*
X65263070Y-35712471D01*
X65201747Y-35745956D01*
X65132055Y-35740972D01*
X65076122Y-35699100D01*
X65059208Y-35668125D01*
X65042062Y-35622159D01*
X65025889Y-35578796D01*
X64938261Y-35461739D01*
X64821204Y-35374111D01*
X64821202Y-35374110D01*
X64821204Y-35374110D01*
X64700375Y-35329043D01*
X64644441Y-35287172D01*
X64620025Y-35221707D01*
X64634877Y-35153434D01*
X64656022Y-35125187D01*
X64761206Y-35020004D01*
X64886894Y-34847009D01*
X64983972Y-34656483D01*
X65050049Y-34453116D01*
X65083500Y-34241916D01*
X65083500Y-34028084D01*
X65050049Y-33816884D01*
X64999080Y-33660016D01*
X64983973Y-33613519D01*
X64983972Y-33613516D01*
X64886893Y-33422990D01*
X64761206Y-33249996D01*
X64610004Y-33098794D01*
X64437009Y-32973106D01*
X64437005Y-32973103D01*
X64433132Y-32970730D01*
X64386254Y-32918920D01*
X64374829Y-32849991D01*
X64402483Y-32785827D01*
X64433132Y-32759270D01*
X64437005Y-32756896D01*
X64437004Y-32756896D01*
X64437009Y-32756894D01*
X64610004Y-32631206D01*
X64761206Y-32480004D01*
X64886894Y-32307009D01*
X64983972Y-32116483D01*
X65050049Y-31913116D01*
X65083500Y-31701916D01*
X65083500Y-31488084D01*
X65050049Y-31276884D01*
X64999080Y-31120016D01*
X64983973Y-31073519D01*
X64983972Y-31073516D01*
X64886893Y-30882990D01*
X64761206Y-30709996D01*
X64610004Y-30558794D01*
X64469431Y-30456662D01*
X64437008Y-30433105D01*
X64432311Y-30430712D01*
X64381517Y-30382735D01*
X64364724Y-30314914D01*
X64387264Y-30248780D01*
X64428790Y-30212801D01*
X64428402Y-30212168D01*
X64432229Y-30209822D01*
X64432327Y-30209738D01*
X64432560Y-30209619D01*
X64604459Y-30084727D01*
X64604464Y-30084723D01*
X64754723Y-29934464D01*
X64754727Y-29934459D01*
X64879620Y-29762557D01*
X64976095Y-29573217D01*
X65041757Y-29371129D01*
X65041757Y-29371126D01*
X65052231Y-29305000D01*
X64158012Y-29305000D01*
X64190925Y-29247993D01*
X64225000Y-29120826D01*
X64225000Y-28989174D01*
X64190925Y-28862007D01*
X64158012Y-28805000D01*
X65052231Y-28805000D01*
X65041757Y-28738873D01*
X65041757Y-28738870D01*
X64976095Y-28536782D01*
X64879620Y-28347442D01*
X64754727Y-28175540D01*
X64754723Y-28175535D01*
X64604464Y-28025276D01*
X64604459Y-28025272D01*
X64432557Y-27900379D01*
X64243215Y-27803903D01*
X64041124Y-27738241D01*
X63975000Y-27727768D01*
X63975000Y-28621988D01*
X63917993Y-28589075D01*
X63790826Y-28555000D01*
X63659174Y-28555000D01*
X63532007Y-28589075D01*
X63475000Y-28621988D01*
X63475000Y-27727768D01*
X63474999Y-27727768D01*
X63408875Y-27738241D01*
X63206784Y-27803903D01*
X63017442Y-27900379D01*
X62845540Y-28025272D01*
X62845535Y-28025276D01*
X62695276Y-28175535D01*
X62695272Y-28175540D01*
X62570379Y-28347442D01*
X62473904Y-28536782D01*
X62408242Y-28738870D01*
X62408242Y-28738873D01*
X62397769Y-28805000D01*
X63291988Y-28805000D01*
X63259075Y-28862007D01*
X63225000Y-28989174D01*
X63225000Y-29120826D01*
X63259075Y-29247993D01*
X63291988Y-29305000D01*
X62397769Y-29305000D01*
X62408242Y-29371126D01*
X62408242Y-29371129D01*
X62473904Y-29573217D01*
X62570379Y-29762557D01*
X62695272Y-29934459D01*
X62695276Y-29934464D01*
X62845535Y-30084723D01*
X62845540Y-30084727D01*
X63017441Y-30209620D01*
X63017682Y-30209743D01*
X63017758Y-30209815D01*
X63021598Y-30212168D01*
X63021103Y-30212974D01*
X63068479Y-30257716D01*
X63085275Y-30325537D01*
X63062739Y-30391672D01*
X63017693Y-30430709D01*
X63012994Y-30433103D01*
X62839993Y-30558796D01*
X62688796Y-30709993D01*
X62563106Y-30882990D01*
X62466027Y-31073516D01*
X62466026Y-31073519D01*
X62399951Y-31276882D01*
X62399951Y-31276884D01*
X62366500Y-31488084D01*
X59390055Y-31488084D01*
X57894819Y-29992848D01*
X57861334Y-29931525D01*
X57858500Y-29905167D01*
X57858500Y-29430218D01*
X57858499Y-29430214D01*
X57835287Y-29313519D01*
X57831273Y-29293338D01*
X57777864Y-29164399D01*
X57777862Y-29164396D01*
X57777860Y-29164392D01*
X57700328Y-29048358D01*
X57700325Y-29048354D01*
X57601645Y-28949674D01*
X57601641Y-28949671D01*
X57485607Y-28872139D01*
X57485597Y-28872134D01*
X57356662Y-28818727D01*
X57356654Y-28818725D01*
X57219785Y-28791500D01*
X57219781Y-28791500D01*
X57080219Y-28791500D01*
X57080214Y-28791500D01*
X56943345Y-28818725D01*
X56943337Y-28818727D01*
X56814402Y-28872134D01*
X56814392Y-28872139D01*
X56698358Y-28949671D01*
X56698354Y-28949674D01*
X56686681Y-28961348D01*
X56625358Y-28994833D01*
X56555666Y-28989849D01*
X56499733Y-28947977D01*
X56475316Y-28882513D01*
X56475000Y-28873667D01*
X56475000Y-26807500D01*
X56494685Y-26740461D01*
X56547489Y-26694706D01*
X56599000Y-26683500D01*
X57880167Y-26683500D01*
X57947206Y-26703185D01*
X57967848Y-26719819D01*
X60230181Y-28982152D01*
X60263666Y-29043475D01*
X60266500Y-29069833D01*
X60266500Y-29419785D01*
X60293725Y-29556654D01*
X60293727Y-29556662D01*
X60347134Y-29685597D01*
X60347139Y-29685607D01*
X60424671Y-29801641D01*
X60424674Y-29801645D01*
X60523354Y-29900325D01*
X60523358Y-29900328D01*
X60639392Y-29977860D01*
X60639396Y-29977862D01*
X60639399Y-29977864D01*
X60768338Y-30031273D01*
X60905214Y-30058499D01*
X60905218Y-30058500D01*
X60905219Y-30058500D01*
X61044782Y-30058500D01*
X61044783Y-30058499D01*
X61181662Y-30031273D01*
X61310601Y-29977864D01*
X61426642Y-29900328D01*
X61525328Y-29801642D01*
X61602864Y-29685601D01*
X61656273Y-29556662D01*
X61683500Y-29419781D01*
X61683500Y-28655219D01*
X61656273Y-28518338D01*
X61614319Y-28417053D01*
X61602865Y-28389399D01*
X61572329Y-28343699D01*
X61525328Y-28273356D01*
X58676646Y-25424674D01*
X58676638Y-25424668D01*
X58560603Y-25347136D01*
X58560599Y-25347134D01*
X58533896Y-25336073D01*
X58469427Y-25309369D01*
X58469426Y-25309368D01*
X58431664Y-25293727D01*
X58431658Y-25293725D01*
X58363221Y-25280113D01*
X58294785Y-25266500D01*
X58294782Y-25266500D01*
X58294781Y-25266500D01*
X56599000Y-25266500D01*
X56590314Y-25263949D01*
X56581353Y-25265238D01*
X56557312Y-25254259D01*
X56531961Y-25246815D01*
X56526033Y-25239974D01*
X56517797Y-25236213D01*
X56503507Y-25213978D01*
X56486206Y-25194011D01*
X56483918Y-25183496D01*
X56480023Y-25177435D01*
X56475000Y-25142500D01*
X56475000Y-24898942D01*
X56494685Y-24831903D01*
X56547489Y-24786148D01*
X56598941Y-24774942D01*
X109850945Y-24750057D01*
X109917991Y-24769710D01*
X109963770Y-24822493D01*
X109975000Y-24874057D01*
X109975000Y-41801082D01*
X109955315Y-41868121D01*
X109902511Y-41913876D01*
X109851083Y-41925082D01*
X83531227Y-41942676D01*
X83464174Y-41923036D01*
X83418384Y-41870263D01*
X83408394Y-41801111D01*
X83437377Y-41737536D01*
X83443463Y-41730995D01*
X84207977Y-40966481D01*
X88038950Y-37135505D01*
X88057731Y-37120092D01*
X88154135Y-37055678D01*
X88280678Y-36929135D01*
X88380102Y-36780336D01*
X88448587Y-36615000D01*
X88483500Y-36439479D01*
X88483500Y-36260521D01*
X88448587Y-36085000D01*
X88380102Y-35919664D01*
X88380100Y-35919661D01*
X88380098Y-35919657D01*
X88280678Y-35770865D01*
X88280675Y-35770861D01*
X88154138Y-35644324D01*
X88154134Y-35644321D01*
X88005342Y-35544901D01*
X88005332Y-35544896D01*
X87840000Y-35476413D01*
X87839992Y-35476411D01*
X87664483Y-35441500D01*
X87664479Y-35441500D01*
X87485521Y-35441500D01*
X87485516Y-35441500D01*
X87310007Y-35476411D01*
X87309999Y-35476413D01*
X87144667Y-35544896D01*
X87144657Y-35544901D01*
X86995865Y-35644321D01*
X86995861Y-35644324D01*
X86869324Y-35770861D01*
X86869321Y-35770865D01*
X86804911Y-35867261D01*
X86789490Y-35886051D01*
X82545361Y-40130181D01*
X82484038Y-40163666D01*
X82457680Y-40166500D01*
X72773887Y-40166500D01*
X72764137Y-40163637D01*
X72754054Y-40164904D01*
X72731175Y-40153958D01*
X72706848Y-40146815D01*
X72700194Y-40139136D01*
X72691026Y-40134750D01*
X72677697Y-40113173D01*
X72661093Y-40094011D01*
X72659646Y-40083952D01*
X72654306Y-40075307D01*
X72654758Y-40049954D01*
X72651149Y-40024853D01*
X72655403Y-40013748D01*
X72655552Y-40005449D01*
X72670784Y-39973611D01*
X72727930Y-39888084D01*
X72747173Y-39859285D01*
X72747174Y-39859284D01*
X72804351Y-39721246D01*
X72833500Y-39574706D01*
X72833500Y-37337696D01*
X72853185Y-37270657D01*
X72854370Y-37268846D01*
X72880102Y-37230336D01*
X72948587Y-37065000D01*
X72983500Y-36889479D01*
X72983500Y-36710521D01*
X72948587Y-36535000D01*
X72880102Y-36369664D01*
X72880100Y-36369661D01*
X72880098Y-36369657D01*
X72780678Y-36220865D01*
X72780675Y-36220861D01*
X72654138Y-36094324D01*
X72654134Y-36094321D01*
X72505342Y-35994901D01*
X72505332Y-35994896D01*
X72340000Y-35926413D01*
X72339992Y-35926411D01*
X72164483Y-35891500D01*
X72164479Y-35891500D01*
X71985521Y-35891500D01*
X71985516Y-35891500D01*
X71810007Y-35926411D01*
X71809999Y-35926413D01*
X71644667Y-35994896D01*
X71644657Y-35994901D01*
X71495865Y-36094321D01*
X71495861Y-36094324D01*
X71369324Y-36220861D01*
X71369321Y-36220865D01*
X71269901Y-36369657D01*
X71269896Y-36369667D01*
X71201413Y-36534999D01*
X71201411Y-36535007D01*
X71166500Y-36710516D01*
X71166500Y-36889483D01*
X71201411Y-37064992D01*
X71201413Y-37065000D01*
X71249138Y-37180219D01*
X71269898Y-37230336D01*
X71295602Y-37268805D01*
X71316480Y-37335482D01*
X71316500Y-37337696D01*
X71316500Y-39134456D01*
X71296815Y-39201495D01*
X71280181Y-39222137D01*
X69535836Y-40966481D01*
X69535835Y-40966482D01*
X69452828Y-41090712D01*
X69452824Y-41090719D01*
X69415220Y-41181506D01*
X69395649Y-41228753D01*
X69395647Y-41228759D01*
X69366500Y-41375291D01*
X69366500Y-43784457D01*
X69346815Y-43851496D01*
X69330181Y-43872138D01*
X68721138Y-44481181D01*
X68659815Y-44514666D01*
X68633457Y-44517500D01*
X68107500Y-44517500D01*
X68040461Y-44497815D01*
X67994706Y-44445011D01*
X67983500Y-44393500D01*
X67983500Y-44335520D01*
X67983499Y-44335516D01*
X67967618Y-44255675D01*
X67948587Y-44160000D01*
X67880102Y-43994664D01*
X67880100Y-43994661D01*
X67880098Y-43994657D01*
X67780678Y-43845865D01*
X67780675Y-43845861D01*
X67654138Y-43719324D01*
X67654134Y-43719321D01*
X67505342Y-43619901D01*
X67505332Y-43619896D01*
X67340000Y-43551413D01*
X67339992Y-43551411D01*
X67164483Y-43516500D01*
X67164479Y-43516500D01*
X66985521Y-43516500D01*
X66985516Y-43516500D01*
X66810007Y-43551411D01*
X66809999Y-43551413D01*
X66644663Y-43619897D01*
X66643607Y-43620604D01*
X66642968Y-43620803D01*
X66639294Y-43622768D01*
X66638921Y-43622070D01*
X66576929Y-43641480D01*
X66574719Y-43641500D01*
X63934465Y-43641500D01*
X63867426Y-43621815D01*
X63821671Y-43569011D01*
X63811727Y-43499853D01*
X63812848Y-43493309D01*
X63833499Y-43389483D01*
X63833500Y-43389478D01*
X63833500Y-43210520D01*
X63833499Y-43210516D01*
X63815428Y-43119667D01*
X63798587Y-43035000D01*
X63730102Y-42869664D01*
X63730100Y-42869661D01*
X63730098Y-42869657D01*
X63630678Y-42720865D01*
X63630675Y-42720861D01*
X63504138Y-42594324D01*
X63504134Y-42594321D01*
X63355342Y-42494901D01*
X63355332Y-42494896D01*
X63190000Y-42426413D01*
X63189992Y-42426411D01*
X63014483Y-42391500D01*
X63014479Y-42391500D01*
X62835521Y-42391500D01*
X62835516Y-42391500D01*
X62660007Y-42426411D01*
X62659999Y-42426413D01*
X62494667Y-42494896D01*
X62494657Y-42494901D01*
X62345865Y-42594321D01*
X62345861Y-42594324D01*
X62334005Y-42606181D01*
X62307077Y-42620884D01*
X62281259Y-42637477D01*
X62275058Y-42638368D01*
X62272682Y-42639666D01*
X62246324Y-42642500D01*
X62213046Y-42642500D01*
X62146007Y-42622815D01*
X62125365Y-42606181D01*
X57939365Y-38420181D01*
X57905880Y-38358858D01*
X57910864Y-38289166D01*
X57952736Y-38233233D01*
X58018200Y-38208816D01*
X58027046Y-38208500D01*
X60719782Y-38208500D01*
X60788221Y-38194886D01*
X60856662Y-38181273D01*
X60894427Y-38165630D01*
X60985601Y-38127865D01*
X61101643Y-38050328D01*
X61450327Y-37701643D01*
X61527865Y-37585601D01*
X61541695Y-37552210D01*
X61553153Y-37524550D01*
X61553153Y-37524549D01*
X61580739Y-37457950D01*
X61581273Y-37456662D01*
X61608500Y-37319781D01*
X61608500Y-37180219D01*
X61581273Y-37043338D01*
X61533968Y-36929135D01*
X61527865Y-36914400D01*
X61497120Y-36868387D01*
X61470893Y-36829135D01*
X61450328Y-36798357D01*
X61351645Y-36699674D01*
X61351637Y-36699668D01*
X61311135Y-36672605D01*
X61311124Y-36672599D01*
X61235601Y-36622136D01*
X61235602Y-36622136D01*
X61235600Y-36622135D01*
X61188358Y-36602567D01*
X61181512Y-36599731D01*
X61181508Y-36599729D01*
X61106662Y-36568727D01*
X61106654Y-36568725D01*
X60969785Y-36541500D01*
X60969781Y-36541500D01*
X60830218Y-36541500D01*
X60830214Y-36541500D01*
X60810737Y-36545374D01*
X60693343Y-36568725D01*
X60693333Y-36568728D01*
X60633923Y-36593336D01*
X60633924Y-36593337D01*
X60564402Y-36622133D01*
X60564399Y-36622134D01*
X60564399Y-36622135D01*
X60448359Y-36699672D01*
X60448353Y-36699676D01*
X60420601Y-36727428D01*
X60392847Y-36755182D01*
X60331527Y-36788666D01*
X60305168Y-36791500D01*
X57755214Y-36791500D01*
X57618345Y-36818725D01*
X57618337Y-36818727D01*
X57489402Y-36872134D01*
X57489392Y-36872139D01*
X57373358Y-36949671D01*
X57373354Y-36949674D01*
X57274674Y-37048354D01*
X57274671Y-37048358D01*
X57197139Y-37164392D01*
X57197134Y-37164402D01*
X57143727Y-37293337D01*
X57143725Y-37293342D01*
X57134034Y-37342063D01*
X57101648Y-37403974D01*
X57040932Y-37438547D01*
X56971162Y-37434806D01*
X56924736Y-37405551D01*
X55988802Y-36469617D01*
X55955317Y-36408294D01*
X55954867Y-36357742D01*
X55958500Y-36339479D01*
X55958500Y-36160521D01*
X55923587Y-35985000D01*
X55855102Y-35819664D01*
X55855100Y-35819661D01*
X55855098Y-35819657D01*
X55755678Y-35670865D01*
X55755675Y-35670861D01*
X55629138Y-35544324D01*
X55629134Y-35544321D01*
X55480342Y-35444901D01*
X55480332Y-35444896D01*
X55315000Y-35376413D01*
X55314992Y-35376411D01*
X55139483Y-35341500D01*
X55139479Y-35341500D01*
X54960521Y-35341500D01*
X54960516Y-35341500D01*
X54785007Y-35376411D01*
X54784999Y-35376413D01*
X54619667Y-35444896D01*
X54619657Y-35444901D01*
X54470865Y-35544321D01*
X54470861Y-35544324D01*
X54344324Y-35670861D01*
X54344321Y-35670865D01*
X54244901Y-35819657D01*
X54244896Y-35819667D01*
X54176413Y-35984999D01*
X54176411Y-35985007D01*
X54141500Y-36160516D01*
X54141500Y-36339483D01*
X54176411Y-36514992D01*
X54176413Y-36515000D01*
X54244896Y-36680332D01*
X54244901Y-36680342D01*
X54344320Y-36829133D01*
X54344321Y-36829134D01*
X54344322Y-36829135D01*
X54470865Y-36955678D01*
X54470868Y-36955680D01*
X54470869Y-36955681D01*
X54475576Y-36959544D01*
X54474720Y-36960586D01*
X54494730Y-36980593D01*
X54495802Y-36979714D01*
X54499671Y-36984428D01*
X58809359Y-41294116D01*
X58842844Y-41355439D01*
X58837860Y-41425131D01*
X58795988Y-41481064D01*
X58730524Y-41505481D01*
X58662251Y-41490629D01*
X58652792Y-41484903D01*
X58630336Y-41469898D01*
X58630332Y-41469896D01*
X58465000Y-41401413D01*
X58464992Y-41401411D01*
X58289483Y-41366500D01*
X58289479Y-41366500D01*
X58110521Y-41366500D01*
X58110516Y-41366500D01*
X57935007Y-41401411D01*
X57934999Y-41401413D01*
X57769667Y-41469896D01*
X57769657Y-41469901D01*
X57620865Y-41569321D01*
X57620861Y-41569324D01*
X57494324Y-41695861D01*
X57494321Y-41695865D01*
X57394901Y-41844657D01*
X57394896Y-41844667D01*
X57326413Y-42009999D01*
X57326411Y-42010005D01*
X57299828Y-42143646D01*
X57267443Y-42205557D01*
X57265892Y-42207135D01*
X54374674Y-45098353D01*
X54374671Y-45098357D01*
X54297136Y-45214395D01*
X54297135Y-45214398D01*
X54272619Y-45273586D01*
X54272619Y-45273587D01*
X54243727Y-45343337D01*
X54243725Y-45343345D01*
X54216500Y-45480214D01*
X54216500Y-46162474D01*
X54196815Y-46229513D01*
X54195602Y-46231365D01*
X54119897Y-46344664D01*
X54051413Y-46509999D01*
X54051411Y-46510007D01*
X54016500Y-46685516D01*
X54016500Y-46864483D01*
X54051411Y-47039992D01*
X54051413Y-47040000D01*
X54119896Y-47205332D01*
X54119901Y-47205342D01*
X54219321Y-47354134D01*
X54219324Y-47354138D01*
X54345861Y-47480675D01*
X54345865Y-47480678D01*
X54409051Y-47522898D01*
X54453856Y-47576510D01*
X54462563Y-47645835D01*
X54432409Y-47708863D01*
X54372965Y-47745582D01*
X54340160Y-47750000D01*
X33799000Y-47750000D01*
X33731961Y-47730315D01*
X33686206Y-47677511D01*
X33675000Y-47626000D01*
X33675000Y-27188084D01*
X34266500Y-27188084D01*
X34266500Y-27401915D01*
X34299951Y-27613117D01*
X34366026Y-27816480D01*
X34366027Y-27816483D01*
X34408775Y-27900379D01*
X34463106Y-28007009D01*
X34588794Y-28180004D01*
X34739996Y-28331206D01*
X34912991Y-28456894D01*
X34916873Y-28459273D01*
X34963748Y-28511086D01*
X34975169Y-28580016D01*
X34947512Y-28644178D01*
X34916873Y-28670727D01*
X34912991Y-28673105D01*
X34739993Y-28798796D01*
X34588796Y-28949993D01*
X34463106Y-29122990D01*
X34366027Y-29313516D01*
X34366026Y-29313519D01*
X34299951Y-29516882D01*
X34289651Y-29581916D01*
X34266500Y-29728084D01*
X34266500Y-29941916D01*
X34269767Y-29962541D01*
X34299951Y-30153117D01*
X34366026Y-30356480D01*
X34366027Y-30356483D01*
X34430746Y-30483500D01*
X34463106Y-30547009D01*
X34588794Y-30720004D01*
X34739996Y-30871206D01*
X34912991Y-30996894D01*
X34916873Y-30999273D01*
X34963748Y-31051086D01*
X34975169Y-31120016D01*
X34947512Y-31184178D01*
X34916873Y-31210727D01*
X34912991Y-31213105D01*
X34739993Y-31338796D01*
X34588796Y-31489993D01*
X34463106Y-31662990D01*
X34366027Y-31853516D01*
X34366026Y-31853519D01*
X34299951Y-32056882D01*
X34266500Y-32268084D01*
X34266500Y-32481915D01*
X34299951Y-32693117D01*
X34366026Y-32896480D01*
X34366027Y-32896483D01*
X34405069Y-32973106D01*
X34463106Y-33087009D01*
X34588794Y-33260004D01*
X34739996Y-33411206D01*
X34912991Y-33536894D01*
X34916873Y-33539273D01*
X34963748Y-33591086D01*
X34975169Y-33660016D01*
X34947512Y-33724178D01*
X34916873Y-33750727D01*
X34912991Y-33753105D01*
X34739993Y-33878796D01*
X34588796Y-34029993D01*
X34463106Y-34202990D01*
X34366027Y-34393516D01*
X34366026Y-34393519D01*
X34299951Y-34596882D01*
X34266500Y-34808084D01*
X34266500Y-35021915D01*
X34299951Y-35233117D01*
X34366026Y-35436480D01*
X34366027Y-35436483D01*
X34438540Y-35578796D01*
X34463106Y-35627009D01*
X34588794Y-35800004D01*
X34739996Y-35951206D01*
X34912991Y-36076894D01*
X34916873Y-36079273D01*
X34963748Y-36131086D01*
X34975169Y-36200016D01*
X34947512Y-36264178D01*
X34916873Y-36290727D01*
X34912991Y-36293105D01*
X34739993Y-36418796D01*
X34588796Y-36569993D01*
X34463106Y-36742990D01*
X34366027Y-36933516D01*
X34366026Y-36933519D01*
X34299951Y-37136882D01*
X34279057Y-37268804D01*
X34266500Y-37348084D01*
X34266500Y-37561916D01*
X34277949Y-37634201D01*
X34299951Y-37773117D01*
X34366026Y-37976480D01*
X34366027Y-37976483D01*
X34443161Y-38127865D01*
X34463106Y-38167009D01*
X34588794Y-38340004D01*
X34739996Y-38491206D01*
X34912991Y-38616894D01*
X34916873Y-38619273D01*
X34963748Y-38671086D01*
X34975169Y-38740016D01*
X34947512Y-38804178D01*
X34916873Y-38830727D01*
X34912991Y-38833105D01*
X34739993Y-38958796D01*
X34588796Y-39109993D01*
X34463106Y-39282990D01*
X34366027Y-39473516D01*
X34366026Y-39473519D01*
X34299951Y-39676882D01*
X34271061Y-39859285D01*
X34266500Y-39888084D01*
X34266500Y-40101916D01*
X34272395Y-40139136D01*
X34299951Y-40313117D01*
X34366026Y-40516480D01*
X34366027Y-40516483D01*
X34463106Y-40707009D01*
X34588794Y-40880004D01*
X34739996Y-41031206D01*
X34821905Y-41090716D01*
X34912991Y-41156894D01*
X34916873Y-41159273D01*
X34963748Y-41211086D01*
X34975169Y-41280016D01*
X34947512Y-41344178D01*
X34916873Y-41370727D01*
X34912991Y-41373105D01*
X34739993Y-41498796D01*
X34588796Y-41649993D01*
X34463106Y-41822990D01*
X34366027Y-42013516D01*
X34366026Y-42013519D01*
X34299951Y-42216882D01*
X34299510Y-42219667D01*
X34266500Y-42428084D01*
X34266500Y-42641916D01*
X34276544Y-42705332D01*
X34299951Y-42853117D01*
X34366026Y-43056480D01*
X34366027Y-43056483D01*
X34444512Y-43210516D01*
X34463106Y-43247009D01*
X34588794Y-43420004D01*
X34588796Y-43420006D01*
X34700578Y-43531788D01*
X34734063Y-43593111D01*
X34729079Y-43662803D01*
X34687207Y-43718736D01*
X34656230Y-43735651D01*
X34532913Y-43781645D01*
X34532906Y-43781649D01*
X34417812Y-43867809D01*
X34417809Y-43867812D01*
X34331649Y-43982906D01*
X34331645Y-43982913D01*
X34281403Y-44117620D01*
X34281401Y-44117627D01*
X34275000Y-44177155D01*
X34275000Y-44825000D01*
X35191988Y-44825000D01*
X35159075Y-44882007D01*
X35125000Y-45009174D01*
X35125000Y-45140826D01*
X35159075Y-45267993D01*
X35191988Y-45325000D01*
X34275000Y-45325000D01*
X34275000Y-45972844D01*
X34281401Y-46032372D01*
X34281403Y-46032379D01*
X34331645Y-46167086D01*
X34331649Y-46167093D01*
X34417809Y-46282187D01*
X34417812Y-46282190D01*
X34532906Y-46368350D01*
X34532913Y-46368354D01*
X34667620Y-46418596D01*
X34667627Y-46418598D01*
X34727155Y-46424999D01*
X34727172Y-46425000D01*
X35375000Y-46425000D01*
X35375000Y-45508012D01*
X35432007Y-45540925D01*
X35559174Y-45575000D01*
X35690826Y-45575000D01*
X35817993Y-45540925D01*
X35875000Y-45508012D01*
X35875000Y-46425000D01*
X36522828Y-46425000D01*
X36522844Y-46424999D01*
X36582372Y-46418598D01*
X36582379Y-46418596D01*
X36717086Y-46368354D01*
X36717093Y-46368350D01*
X36832187Y-46282190D01*
X36832190Y-46282187D01*
X36918350Y-46167093D01*
X36918354Y-46167086D01*
X36968596Y-46032379D01*
X36968598Y-46032372D01*
X36974999Y-45972844D01*
X36975000Y-45972827D01*
X36975000Y-45325000D01*
X36058012Y-45325000D01*
X36090925Y-45267993D01*
X36125000Y-45140826D01*
X36125000Y-45009174D01*
X36090925Y-44882007D01*
X36058012Y-44825000D01*
X36975000Y-44825000D01*
X36975000Y-44177172D01*
X36974999Y-44177155D01*
X36968598Y-44117627D01*
X36968596Y-44117620D01*
X36918354Y-43982913D01*
X36918350Y-43982906D01*
X36832190Y-43867812D01*
X36832187Y-43867809D01*
X36717093Y-43781649D01*
X36717086Y-43781645D01*
X36593769Y-43735651D01*
X36537835Y-43693780D01*
X36513418Y-43628315D01*
X36528270Y-43560042D01*
X36549415Y-43531794D01*
X36661206Y-43420004D01*
X36786894Y-43247009D01*
X36883972Y-43056483D01*
X36950049Y-42853116D01*
X36983500Y-42641916D01*
X36983500Y-42428084D01*
X36950049Y-42216884D01*
X36883972Y-42013517D01*
X36883972Y-42013516D01*
X36809889Y-41868121D01*
X36786894Y-41822991D01*
X36661206Y-41649996D01*
X36510004Y-41498794D01*
X36340021Y-41375294D01*
X36337005Y-41373103D01*
X36333132Y-41370730D01*
X36286254Y-41318920D01*
X36274829Y-41249991D01*
X36302483Y-41185827D01*
X36333132Y-41159270D01*
X36337005Y-41156896D01*
X36337004Y-41156896D01*
X36337009Y-41156894D01*
X36510004Y-41031206D01*
X36661206Y-40880004D01*
X36786894Y-40707009D01*
X36883972Y-40516483D01*
X36950049Y-40313116D01*
X36983500Y-40101916D01*
X36983500Y-39888084D01*
X36950049Y-39676884D01*
X36883972Y-39473517D01*
X36883972Y-39473516D01*
X36786893Y-39282990D01*
X36742681Y-39222137D01*
X36661206Y-39109996D01*
X36510004Y-38958794D01*
X36337009Y-38833106D01*
X36337005Y-38833103D01*
X36333132Y-38830730D01*
X36286254Y-38778920D01*
X36274829Y-38709991D01*
X36302483Y-38645827D01*
X36333132Y-38619270D01*
X36337005Y-38616896D01*
X36337004Y-38616896D01*
X36337009Y-38616894D01*
X36510004Y-38491206D01*
X36661206Y-38340004D01*
X36786894Y-38167009D01*
X36883972Y-37976483D01*
X36950049Y-37773116D01*
X36983500Y-37561916D01*
X36983500Y-37348084D01*
X36950049Y-37136884D01*
X36892429Y-36959544D01*
X36883973Y-36933519D01*
X36883972Y-36933516D01*
X36815104Y-36798357D01*
X36786894Y-36742991D01*
X36661206Y-36569996D01*
X36510004Y-36418794D01*
X36337009Y-36293106D01*
X36337005Y-36293103D01*
X36333132Y-36290730D01*
X36286254Y-36238920D01*
X36274829Y-36169991D01*
X36302483Y-36105827D01*
X36333132Y-36079270D01*
X36337005Y-36076896D01*
X36337004Y-36076896D01*
X36337009Y-36076894D01*
X36510004Y-35951206D01*
X36661206Y-35800004D01*
X36786894Y-35627009D01*
X36883972Y-35436483D01*
X36950049Y-35233116D01*
X36983500Y-35021916D01*
X36983500Y-34808084D01*
X36950049Y-34596884D01*
X36883972Y-34393517D01*
X36883972Y-34393516D01*
X36786893Y-34202990D01*
X36683010Y-34060007D01*
X36661206Y-34029996D01*
X36510004Y-33878794D01*
X36337009Y-33753106D01*
X36337005Y-33753103D01*
X36333132Y-33750730D01*
X36286254Y-33698920D01*
X36274829Y-33629991D01*
X36302483Y-33565827D01*
X36333132Y-33539270D01*
X36337005Y-33536896D01*
X36337004Y-33536896D01*
X36337009Y-33536894D01*
X36510004Y-33411206D01*
X36661206Y-33260004D01*
X36786894Y-33087009D01*
X36883972Y-32896483D01*
X36898144Y-32852867D01*
X36950049Y-32693116D01*
X36952658Y-32676642D01*
X36974927Y-32536042D01*
X37004855Y-32472910D01*
X37064166Y-32435978D01*
X37134029Y-32436976D01*
X37185080Y-32467761D01*
X47956481Y-43239163D01*
X47956482Y-43239164D01*
X47956485Y-43239166D01*
X48080716Y-43322174D01*
X48218753Y-43379351D01*
X48269670Y-43389479D01*
X48291735Y-43393868D01*
X48365292Y-43408500D01*
X48365294Y-43408500D01*
X48365295Y-43408500D01*
X48514705Y-43408500D01*
X51012304Y-43408500D01*
X51079343Y-43428185D01*
X51081153Y-43429370D01*
X51119664Y-43455102D01*
X51285000Y-43523587D01*
X51424882Y-43551411D01*
X51460516Y-43558499D01*
X51460520Y-43558500D01*
X51460521Y-43558500D01*
X51639480Y-43558500D01*
X51639481Y-43558499D01*
X51815000Y-43523587D01*
X51980336Y-43455102D01*
X52129135Y-43355678D01*
X52255678Y-43229135D01*
X52355102Y-43080336D01*
X52423587Y-42915000D01*
X52458500Y-42739479D01*
X52458500Y-42560521D01*
X52423587Y-42385000D01*
X52355102Y-42219664D01*
X52355100Y-42219661D01*
X52355098Y-42219657D01*
X52255678Y-42070865D01*
X52255675Y-42070861D01*
X52129138Y-41944324D01*
X52129134Y-41944321D01*
X51980342Y-41844901D01*
X51980332Y-41844896D01*
X51815000Y-41776413D01*
X51814992Y-41776411D01*
X51639483Y-41741500D01*
X51639479Y-41741500D01*
X51460521Y-41741500D01*
X51460516Y-41741500D01*
X51285007Y-41776411D01*
X51284999Y-41776413D01*
X51119667Y-41844896D01*
X51119663Y-41844898D01*
X51104274Y-41855181D01*
X51081194Y-41870602D01*
X51014518Y-41891480D01*
X51012304Y-41891500D01*
X48805543Y-41891500D01*
X48738504Y-41871815D01*
X48717862Y-41855181D01*
X41098197Y-34235516D01*
X43591500Y-34235516D01*
X43591500Y-34414483D01*
X43626411Y-34589992D01*
X43626413Y-34590000D01*
X43694896Y-34755332D01*
X43694901Y-34755342D01*
X43794321Y-34904134D01*
X43794324Y-34904138D01*
X43920861Y-35030675D01*
X43920865Y-35030678D01*
X44069657Y-35130098D01*
X44069661Y-35130100D01*
X44069664Y-35130102D01*
X44235000Y-35198587D01*
X44408596Y-35233117D01*
X44410516Y-35233499D01*
X44410520Y-35233500D01*
X44410521Y-35233500D01*
X44589480Y-35233500D01*
X44589481Y-35233499D01*
X44765000Y-35198587D01*
X44930336Y-35130102D01*
X45079135Y-35030678D01*
X45205678Y-34904135D01*
X45305102Y-34755336D01*
X45373587Y-34590000D01*
X45408500Y-34414479D01*
X45408500Y-34235521D01*
X45373587Y-34060000D01*
X45305102Y-33894664D01*
X45294498Y-33878794D01*
X45279397Y-33856192D01*
X45258520Y-33789515D01*
X45258500Y-33787303D01*
X45258500Y-33340542D01*
X45278185Y-33273503D01*
X45294815Y-33252865D01*
X45656132Y-32891547D01*
X45717453Y-32858064D01*
X45719532Y-32857630D01*
X45765000Y-32848587D01*
X45930336Y-32780102D01*
X46079135Y-32680678D01*
X46205678Y-32554135D01*
X46305102Y-32405336D01*
X46373587Y-32240000D01*
X46408500Y-32064479D01*
X46408500Y-31885521D01*
X46373587Y-31710000D01*
X46305102Y-31544664D01*
X46305100Y-31544661D01*
X46305098Y-31544657D01*
X46205678Y-31395865D01*
X46205675Y-31395861D01*
X46079138Y-31269324D01*
X46079134Y-31269321D01*
X45930342Y-31169901D01*
X45930332Y-31169896D01*
X45765000Y-31101413D01*
X45764992Y-31101411D01*
X45589483Y-31066500D01*
X45589479Y-31066500D01*
X45410521Y-31066500D01*
X45410516Y-31066500D01*
X45235007Y-31101411D01*
X45234999Y-31101413D01*
X45069667Y-31169896D01*
X45069657Y-31169901D01*
X44920865Y-31269321D01*
X44920861Y-31269324D01*
X44794324Y-31395861D01*
X44794321Y-31395865D01*
X44694901Y-31544657D01*
X44694896Y-31544667D01*
X44626413Y-31709999D01*
X44626411Y-31710005D01*
X44617386Y-31755378D01*
X44585001Y-31817289D01*
X44583450Y-31818867D01*
X43910835Y-32491482D01*
X43827825Y-32615717D01*
X43795765Y-32693117D01*
X43770649Y-32753753D01*
X43766124Y-32776499D01*
X43741500Y-32900290D01*
X43741500Y-33787303D01*
X43721815Y-33854342D01*
X43720603Y-33856192D01*
X43694898Y-33894663D01*
X43626413Y-34059999D01*
X43626411Y-34060007D01*
X43591500Y-34235516D01*
X41098197Y-34235516D01*
X37003714Y-30141033D01*
X36970229Y-30079710D01*
X36968922Y-30033954D01*
X36983500Y-29941916D01*
X36983500Y-29728084D01*
X36950049Y-29516884D01*
X36883972Y-29313517D01*
X36883972Y-29313516D01*
X36786893Y-29122990D01*
X36777830Y-29110516D01*
X36661206Y-28949996D01*
X36510004Y-28798794D01*
X36337009Y-28673106D01*
X36337005Y-28673103D01*
X36333132Y-28670730D01*
X36286254Y-28618920D01*
X36274829Y-28549991D01*
X36302483Y-28485827D01*
X36333132Y-28459270D01*
X36337005Y-28456896D01*
X36337004Y-28456896D01*
X36337009Y-28456894D01*
X36510004Y-28331206D01*
X36661206Y-28180004D01*
X36786894Y-28007009D01*
X36883972Y-27816483D01*
X36950049Y-27613116D01*
X36983500Y-27401916D01*
X36983500Y-27188084D01*
X36950049Y-26976884D01*
X36883972Y-26773517D01*
X36883972Y-26773516D01*
X36786893Y-26582990D01*
X36778533Y-26571483D01*
X36661206Y-26409996D01*
X36510004Y-26258794D01*
X36337009Y-26133106D01*
X36146483Y-26036027D01*
X36146480Y-26036026D01*
X35943117Y-25969951D01*
X35837516Y-25953225D01*
X35731916Y-25936500D01*
X35518084Y-25936500D01*
X35447684Y-25947650D01*
X35306882Y-25969951D01*
X35103519Y-26036026D01*
X35103516Y-26036027D01*
X34912990Y-26133106D01*
X34739993Y-26258796D01*
X34588796Y-26409993D01*
X34463106Y-26582990D01*
X34366027Y-26773516D01*
X34366026Y-26773519D01*
X34299951Y-26976882D01*
X34266500Y-27188084D01*
X33675000Y-27188084D01*
X33675000Y-24849000D01*
X33694685Y-24781961D01*
X33747489Y-24736206D01*
X33799000Y-24725000D01*
X46601000Y-24725000D01*
X46668039Y-24744685D01*
G37*
%TD.AperFunction*%
%TD*%
M02*
