  0
SECTION
  2
HEADER
  9
$ANGBASE
  50
0.0
  9
$ANGDIR
  70
1
  9
$MEASUREMENT
  70
0
  0
ENDSEC
  0
SECTION
  2
TABLES
  0
TABLE
  2
LTYPE
  70
4
  0
LTYPE
  5
40F
  2
CONTINUOUS
  70
0
  3
Solid line
  72
65
  73
0
  40
0.0
  0
LTYPE
  5
410
  2
DASHDOT
 70
0
  3
Dash Dot ____ _ ____ _
 72
65
 73
4
 40
2.0
 49
1.25
 49
-0.25
 49
0.25
 49
-0.25
  0
LTYPE
  5
411
  2
DASHED
 70
0
  3
Dashed __ __ __ __ __
 72
65
 73
2
 40
0.75
 49
0.5
 49
-0.25
  0
LTYPE
  5
43B
  2
DOTTED
 70
0
  3
Dotted .  .  .  .
 72
65
 73
2
 40
0.2
 49
0.0
 49
-0.2
  0
ENDTAB
  0
TABLE
  2
STYLE
  70
4
  0
STYLE
  2
KICAD
  70
0
  40
0
  41
1
  42
1
  50
0
  71
0
  3
isocp.shx
  0
STYLE
  2
KICADB
  70
0
  40
0
  41
1
  42
1
  50
0
  71
0
  3
isocp.shx
  0
STYLE
  2
KICADI
  70
0
  40
0
  41
1
  42
1
  50
15
  71
0
  3
isocp.shx
  0
STYLE
  2
KICADBI
  70
0
  40
0
  41
1
  42
1
  50
15
  71
0
  3
isocp.shx
  0
ENDTAB
  0
TABLE
  2
LAYER
  70
1
  0
LAYER
  2
BLACK
  70
0
  62
7
  6
CONTINUOUS
  0
ENDTAB
  0
ENDSEC
  0
SECTION
  2
ENTITIES
0
LINE
8
BLACK
6
CONTINUOUS
10
4.22047
20
-3.92028
11
3.51181
21
-3.92028
0
LINE
8
BLACK
6
CONTINUOUS
10
4.32677
20
-2.00787
11
5.50787
21
-2.00787
0
LINE
8
BLACK
6
CONTINUOUS
10
5.50787
20
-3.87894
11
4.6811
21
-3.87894
0
LINE
8
BLACK
6
CONTINUOUS
10
4.6811
20
-3.55118
11
4.6811
21
-2.67717
0
LINE
8
BLACK
6
CONTINUOUS
10
4.22047
20
-2.00787
11
4.22047
21
-2.22835
0
LINE
8
BLACK
6
CONTINUOUS
10
4.6811
20
-3.87894
11
4.6811
21
-3.75197
0
LINE
8
BLACK
6
CONTINUOUS
10
3.51181
20
-2.00787
11
4.22047
21
-2.00787
0
LINE
8
BLACK
6
CONTINUOUS
10
4.32677
20
-2.22835
11
4.32677
21
-2.00787
0
LINE
8
BLACK
6
CONTINUOUS
10
4.32677
20
-2.67717
11
4.32677
21
-2.44094
0
LINE
8
BLACK
6
CONTINUOUS
10
4.22047
20
-3.92028
11
4.22047
21
-3.75197
0
LINE
8
BLACK
6
CONTINUOUS
10
4.22047
20
-2.22835
11
4.32677
21
-2.22835
0
LINE
8
BLACK
6
CONTINUOUS
10
5.50787
20
-2.00787
11
5.50787
21
-3.87894
0
LINE
8
BLACK
6
CONTINUOUS
10
4.22047
20
-3.75197
11
4.6811
21
-3.75197
0
LINE
8
BLACK
6
CONTINUOUS
10
4.22047
20
-2.44094
11
4.22047
21
-3.55118
0
LINE
8
BLACK
6
CONTINUOUS
10
3.51181
20
-3.92028
11
3.51181
21
-2.00787
0
LINE
8
BLACK
6
CONTINUOUS
10
4.32677
20
-2.44094
11
4.22047
21
-2.44094
0
LINE
8
BLACK
6
CONTINUOUS
10
4.6811
20
-2.67717
11
4.32677
21
-2.67717
0
LINE
8
BLACK
6
CONTINUOUS
10
4.22047
20
-3.55118
11
4.6811
21
-3.55118
0
LINE
8
BLACK
6
CONTINUOUS
10
4.21654
20
-2.23819
11
4.23622
21
-2.25787
0
LINE
8
BLACK
6
CONTINUOUS
10
4.23622
20
-2.23819
11
4.21654
21
-2.25787
0
LINE
8
BLACK
6
CONTINUOUS
10
4.21654
20
-2.25984
11
4.23622
21
-2.27953
0
LINE
8
BLACK
6
CONTINUOUS
10
4.23622
20
-2.25984
11
4.21654
21
-2.27953
0
LINE
8
BLACK
6
CONTINUOUS
10
4.21654
20
-2.2815
11
4.23622
21
-2.30118
0
LINE
8
BLACK
6
CONTINUOUS
10
4.23622
20
-2.2815
11
4.21654
21
-2.30118
0
LINE
8
BLACK
6
CONTINUOUS
10
4.21654
20
-2.30315
11
4.23622
21
-2.32283
0
LINE
8
BLACK
6
CONTINUOUS
10
4.23622
20
-2.30315
11
4.21654
21
-2.32283
0
LINE
8
BLACK
6
CONTINUOUS
10
4.21654
20
-2.3248
11
4.23622
21
-2.34449
0
LINE
8
BLACK
6
CONTINUOUS
10
4.23622
20
-2.3248
11
4.21654
21
-2.34449
0
LINE
8
BLACK
6
CONTINUOUS
10
4.21654
20
-2.34646
11
4.23622
21
-2.36614
0
LINE
8
BLACK
6
CONTINUOUS
10
4.23622
20
-2.34646
11
4.21654
21
-2.36614
0
LINE
8
BLACK
6
CONTINUOUS
10
4.21654
20
-2.36811
11
4.23622
21
-2.3878
0
LINE
8
BLACK
6
CONTINUOUS
10
4.23622
20
-2.36811
11
4.21654
21
-2.3878
0
LINE
8
BLACK
6
CONTINUOUS
10
4.21654
20
-2.38976
11
4.23622
21
-2.40945
0
LINE
8
BLACK
6
CONTINUOUS
10
4.23622
20
-2.38976
11
4.21654
21
-2.40945
0
LINE
8
BLACK
6
CONTINUOUS
10
4.21654
20
-2.41142
11
4.23622
21
-2.4311
0
LINE
8
BLACK
6
CONTINUOUS
10
4.23622
20
-2.41142
11
4.21654
21
-2.4311
0
LINE
8
BLACK
6
CONTINUOUS
10
4.2185
20
-3.55512
11
4.23819
21
-3.5748
0
LINE
8
BLACK
6
CONTINUOUS
10
4.23819
20
-3.55512
11
4.2185
21
-3.5748
0
LINE
8
BLACK
6
CONTINUOUS
10
4.2185
20
-3.57677
11
4.23819
21
-3.59646
0
LINE
8
BLACK
6
CONTINUOUS
10
4.23819
20
-3.57677
11
4.2185
21
-3.59646
0
LINE
8
BLACK
6
CONTINUOUS
10
4.2185
20
-3.59843
11
4.23819
21
-3.61811
0
LINE
8
BLACK
6
CONTINUOUS
10
4.23819
20
-3.59843
11
4.2185
21
-3.61811
0
LINE
8
BLACK
6
CONTINUOUS
10
4.2185
20
-3.62008
11
4.23819
21
-3.63976
0
LINE
8
BLACK
6
CONTINUOUS
10
4.23819
20
-3.62008
11
4.2185
21
-3.63976
0
LINE
8
BLACK
6
CONTINUOUS
10
4.2185
20
-3.64173
11
4.23819
21
-3.66142
0
LINE
8
BLACK
6
CONTINUOUS
10
4.23819
20
-3.64173
11
4.2185
21
-3.66142
0
LINE
8
BLACK
6
CONTINUOUS
10
4.2185
20
-3.66339
11
4.23819
21
-3.68307
0
LINE
8
BLACK
6
CONTINUOUS
10
4.23819
20
-3.66339
11
4.2185
21
-3.68307
0
LINE
8
BLACK
6
CONTINUOUS
10
4.2185
20
-3.68504
11
4.23819
21
-3.70472
0
LINE
8
BLACK
6
CONTINUOUS
10
4.23819
20
-3.68504
11
4.2185
21
-3.70472
0
LINE
8
BLACK
6
CONTINUOUS
10
4.2185
20
-3.70669
11
4.23819
21
-3.72638
0
LINE
8
BLACK
6
CONTINUOUS
10
4.23819
20
-3.70669
11
4.2185
21
-3.72638
0
LINE
8
BLACK
6
CONTINUOUS
10
4.2185
20
-3.72835
11
4.23819
21
-3.74803
0
LINE
8
BLACK
6
CONTINUOUS
10
4.23819
20
-3.72835
11
4.2185
21
-3.74803
0
LINE
8
BLACK
6
CONTINUOUS
10
4.31299
20
-2.23819
11
4.33268
21
-2.25787
0
LINE
8
BLACK
6
CONTINUOUS
10
4.33268
20
-2.23819
11
4.31299
21
-2.25787
0
LINE
8
BLACK
6
CONTINUOUS
10
4.31299
20
-2.25984
11
4.33268
21
-2.27953
0
LINE
8
BLACK
6
CONTINUOUS
10
4.33268
20
-2.25984
11
4.31299
21
-2.27953
0
LINE
8
BLACK
6
CONTINUOUS
10
4.31299
20
-2.2815
11
4.33268
21
-2.30118
0
LINE
8
BLACK
6
CONTINUOUS
10
4.33268
20
-2.2815
11
4.31299
21
-2.30118
0
LINE
8
BLACK
6
CONTINUOUS
10
4.31299
20
-2.30315
11
4.33268
21
-2.32283
0
LINE
8
BLACK
6
CONTINUOUS
10
4.33268
20
-2.30315
11
4.31299
21
-2.32283
0
LINE
8
BLACK
6
CONTINUOUS
10
4.31299
20
-2.3248
11
4.33268
21
-2.34449
0
LINE
8
BLACK
6
CONTINUOUS
10
4.33268
20
-2.3248
11
4.31299
21
-2.34449
0
LINE
8
BLACK
6
CONTINUOUS
10
4.31299
20
-2.34646
11
4.33268
21
-2.36614
0
LINE
8
BLACK
6
CONTINUOUS
10
4.33268
20
-2.34646
11
4.31299
21
-2.36614
0
LINE
8
BLACK
6
CONTINUOUS
10
4.31299
20
-2.36811
11
4.33268
21
-2.3878
0
LINE
8
BLACK
6
CONTINUOUS
10
4.33268
20
-2.36811
11
4.31299
21
-2.3878
0
LINE
8
BLACK
6
CONTINUOUS
10
4.31299
20
-2.38976
11
4.33268
21
-2.40945
0
LINE
8
BLACK
6
CONTINUOUS
10
4.33268
20
-2.38976
11
4.31299
21
-2.40945
0
LINE
8
BLACK
6
CONTINUOUS
10
4.31299
20
-2.41142
11
4.33268
21
-2.4311
0
LINE
8
BLACK
6
CONTINUOUS
10
4.33268
20
-2.41142
11
4.31299
21
-2.4311
0
LINE
8
BLACK
6
CONTINUOUS
10
4.66339
20
-3.55512
11
4.68307
21
-3.5748
0
LINE
8
BLACK
6
CONTINUOUS
10
4.68307
20
-3.55512
11
4.66339
21
-3.5748
0
LINE
8
BLACK
6
CONTINUOUS
10
4.66339
20
-3.57677
11
4.68307
21
-3.59646
0
LINE
8
BLACK
6
CONTINUOUS
10
4.68307
20
-3.57677
11
4.66339
21
-3.59646
0
LINE
8
BLACK
6
CONTINUOUS
10
4.66339
20
-3.59843
11
4.68307
21
-3.61811
0
LINE
8
BLACK
6
CONTINUOUS
10
4.68307
20
-3.59843
11
4.66339
21
-3.61811
0
LINE
8
BLACK
6
CONTINUOUS
10
4.66339
20
-3.62008
11
4.68307
21
-3.63976
0
LINE
8
BLACK
6
CONTINUOUS
10
4.68307
20
-3.62008
11
4.66339
21
-3.63976
0
LINE
8
BLACK
6
CONTINUOUS
10
4.66339
20
-3.64173
11
4.68307
21
-3.66142
0
LINE
8
BLACK
6
CONTINUOUS
10
4.68307
20
-3.64173
11
4.66339
21
-3.66142
0
LINE
8
BLACK
6
CONTINUOUS
10
4.66339
20
-3.66339
11
4.68307
21
-3.68307
0
LINE
8
BLACK
6
CONTINUOUS
10
4.68307
20
-3.66339
11
4.66339
21
-3.68307
0
LINE
8
BLACK
6
CONTINUOUS
10
4.66339
20
-3.68504
11
4.68307
21
-3.70472
0
LINE
8
BLACK
6
CONTINUOUS
10
4.68307
20
-3.68504
11
4.66339
21
-3.70472
0
LINE
8
BLACK
6
CONTINUOUS
10
4.66339
20
-3.70669
11
4.68307
21
-3.72638
0
LINE
8
BLACK
6
CONTINUOUS
10
4.68307
20
-3.70669
11
4.66339
21
-3.72638
0
LINE
8
BLACK
6
CONTINUOUS
10
4.66339
20
-3.72835
11
4.68307
21
-3.74803
0
LINE
8
BLACK
6
CONTINUOUS
10
4.68307
20
-3.72835
11
4.66339
21
-3.74803
0
LINE
8
BLACK
6
CONTINUOUS
10
3.60733
20
-4.04528
11
3.60733
21
-3.96654
0
LINE
8
BLACK
6
CONTINUOUS
10
3.60733
20
-3.96654
11
3.62608
21
-3.96654
0
LINE
8
BLACK
6
CONTINUOUS
10
3.62608
20
-3.96654
11
3.63733
21
-3.97029
0
LINE
8
BLACK
6
CONTINUOUS
10
3.63733
20
-3.97029
11
3.64483
21
-3.97779
0
LINE
8
BLACK
6
CONTINUOUS
10
3.64483
20
-3.97779
11
3.64858
21
-3.98529
0
LINE
8
BLACK
6
CONTINUOUS
10
3.64858
20
-3.98529
11
3.65232
21
-4.00029
0
LINE
8
BLACK
6
CONTINUOUS
10
3.65232
20
-4.00029
11
3.65232
21
-4.01154
0
LINE
8
BLACK
6
CONTINUOUS
10
3.65232
20
-4.01154
11
3.64858
21
-4.02654
0
LINE
8
BLACK
6
CONTINUOUS
10
3.64858
20
-4.02654
11
3.64483
21
-4.03404
0
LINE
8
BLACK
6
CONTINUOUS
10
3.64483
20
-4.03404
11
3.63733
21
-4.04154
0
LINE
8
BLACK
6
CONTINUOUS
10
3.63733
20
-4.04154
11
3.62608
21
-4.04528
0
LINE
8
BLACK
6
CONTINUOUS
10
3.62608
20
-4.04528
11
3.60733
21
-4.04528
0
LINE
8
BLACK
6
CONTINUOUS
10
3.68607
20
-4.04528
11
3.68607
21
-3.99279
0
LINE
8
BLACK
6
CONTINUOUS
10
3.68607
20
-4.00779
11
3.68982
21
-4.00029
0
LINE
8
BLACK
6
CONTINUOUS
10
3.68982
20
-4.00029
11
3.69357
21
-3.99654
0
LINE
8
BLACK
6
CONTINUOUS
10
3.69357
20
-3.99654
11
3.70107
21
-3.99279
0
LINE
8
BLACK
6
CONTINUOUS
10
3.70107
20
-3.99279
11
3.70857
21
-3.99279
0
LINE
8
BLACK
6
CONTINUOUS
10
3.73481
20
-4.04528
11
3.73481
21
-3.99279
0
LINE
8
BLACK
6
CONTINUOUS
10
3.73481
20
-3.96654
11
3.73106
21
-3.97029
0
LINE
8
BLACK
6
CONTINUOUS
10
3.73106
20
-3.97029
11
3.73481
21
-3.97404
0
LINE
8
BLACK
6
CONTINUOUS
10
3.73481
20
-3.97404
11
3.73856
21
-3.97029
0
LINE
8
BLACK
6
CONTINUOUS
10
3.73856
20
-3.97029
11
3.73481
21
-3.96654
0
LINE
8
BLACK
6
CONTINUOUS
10
3.73481
20
-3.96654
11
3.73481
21
-3.97404
0
LINE
8
BLACK
6
CONTINUOUS
10
3.78356
20
-4.04528
11
3.77606
21
-4.04154
0
LINE
8
BLACK
6
CONTINUOUS
10
3.77606
20
-4.04154
11
3.77231
21
-4.03404
0
LINE
8
BLACK
6
CONTINUOUS
10
3.77231
20
-4.03404
11
3.77231
21
-3.96654
0
LINE
8
BLACK
6
CONTINUOUS
10
3.8248
20
-4.04528
11
3.8173
21
-4.04154
0
LINE
8
BLACK
6
CONTINUOUS
10
3.8173
20
-4.04154
11
3.81355
21
-4.03404
0
LINE
8
BLACK
6
CONTINUOUS
10
3.81355
20
-4.03404
11
3.81355
21
-3.96654
0
LINE
8
BLACK
6
CONTINUOUS
10
3.91479
20
-4.04528
11
3.91479
21
-3.96654
0
LINE
8
BLACK
6
CONTINUOUS
10
3.91479
20
-3.96654
11
3.94104
21
-4.02279
0
LINE
8
BLACK
6
CONTINUOUS
10
3.94104
20
-4.02279
11
3.96729
21
-3.96654
0
LINE
8
BLACK
6
CONTINUOUS
10
3.96729
20
-3.96654
11
3.96729
21
-4.04528
0
LINE
8
BLACK
6
CONTINUOUS
10
4.03853
20
-4.04528
11
4.03853
21
-4.00404
0
LINE
8
BLACK
6
CONTINUOUS
10
4.03853
20
-4.00404
11
4.03478
21
-3.99654
0
LINE
8
BLACK
6
CONTINUOUS
10
4.03478
20
-3.99654
11
4.02728
21
-3.99279
0
LINE
8
BLACK
6
CONTINUOUS
10
4.02728
20
-3.99279
11
4.01228
21
-3.99279
0
LINE
8
BLACK
6
CONTINUOUS
10
4.01228
20
-3.99279
11
4.00478
21
-3.99654
0
LINE
8
BLACK
6
CONTINUOUS
10
4.03853
20
-4.04154
11
4.03103
21
-4.04528
0
LINE
8
BLACK
6
CONTINUOUS
10
4.03103
20
-4.04528
11
4.01228
21
-4.04528
0
LINE
8
BLACK
6
CONTINUOUS
10
4.01228
20
-4.04528
11
4.00478
21
-4.04154
0
LINE
8
BLACK
6
CONTINUOUS
10
4.00478
20
-4.04154
11
4.00103
21
-4.03404
0
LINE
8
BLACK
6
CONTINUOUS
10
4.00103
20
-4.03404
11
4.00103
21
-4.02654
0
LINE
8
BLACK
6
CONTINUOUS
10
4.00103
20
-4.02654
11
4.00478
21
-4.01904
0
LINE
8
BLACK
6
CONTINUOUS
10
4.00478
20
-4.01904
11
4.01228
21
-4.01529
0
LINE
8
BLACK
6
CONTINUOUS
10
4.01228
20
-4.01529
11
4.03103
21
-4.01529
0
LINE
8
BLACK
6
CONTINUOUS
10
4.03103
20
-4.01529
11
4.03853
21
-4.01154
0
LINE
8
BLACK
6
CONTINUOUS
10
4.07602
20
-3.99279
11
4.07602
21
-4.07153
0
LINE
8
BLACK
6
CONTINUOUS
10
4.07602
20
-3.99654
11
4.08352
21
-3.99279
0
LINE
8
BLACK
6
CONTINUOUS
10
4.08352
20
-3.99279
11
4.09852
21
-3.99279
0
LINE
8
BLACK
6
CONTINUOUS
10
4.09852
20
-3.99279
11
4.10602
21
-3.99654
0
LINE
8
BLACK
6
CONTINUOUS
10
4.10602
20
-3.99654
11
4.10977
21
-4.00029
0
LINE
8
BLACK
6
CONTINUOUS
10
4.10977
20
-4.00029
11
4.11352
21
-4.00779
0
LINE
8
BLACK
6
CONTINUOUS
10
4.11352
20
-4.00779
11
4.11352
21
-4.03029
0
LINE
8
BLACK
6
CONTINUOUS
10
4.11352
20
-4.03029
11
4.10977
21
-4.03779
0
LINE
8
BLACK
6
CONTINUOUS
10
4.10977
20
-4.03779
11
4.10602
21
-4.04154
0
LINE
8
BLACK
6
CONTINUOUS
10
4.10602
20
-4.04154
11
4.09852
21
-4.04528
0
LINE
8
BLACK
6
CONTINUOUS
10
4.09852
20
-4.04528
11
4.08352
21
-4.04528
0
LINE
8
BLACK
6
CONTINUOUS
10
4.08352
20
-4.04528
11
4.07602
21
-4.04154
0
LINE
8
BLACK
6
CONTINUOUS
10
4.14726
20
-4.03779
11
4.15101
21
-4.04154
0
LINE
8
BLACK
6
CONTINUOUS
10
4.15101
20
-4.04154
11
4.14726
21
-4.04528
0
LINE
8
BLACK
6
CONTINUOUS
10
4.14726
20
-4.04528
11
4.14351
21
-4.04154
0
LINE
8
BLACK
6
CONTINUOUS
10
4.14351
20
-4.04154
11
4.14726
21
-4.03779
0
LINE
8
BLACK
6
CONTINUOUS
10
4.14726
20
-4.03779
11
4.14726
21
-4.04528
0
LINE
8
BLACK
6
CONTINUOUS
10
4.14726
20
-3.99654
11
4.15101
21
-4.00029
0
LINE
8
BLACK
6
CONTINUOUS
10
4.15101
20
-4.00029
11
4.14726
21
-4.00404
0
LINE
8
BLACK
6
CONTINUOUS
10
4.14726
20
-4.00404
11
4.14351
21
-4.00029
0
LINE
8
BLACK
6
CONTINUOUS
10
4.14351
20
-4.00029
11
4.14726
21
-3.99654
0
LINE
8
BLACK
6
CONTINUOUS
10
4.14726
20
-3.99654
11
4.14726
21
-4.00404
0
LINE
8
BLACK
6
CONTINUOUS
10
3.49016
20
-4.16437
11
3.50984
21
-4.18406
0
LINE
8
BLACK
6
CONTINUOUS
10
3.50984
20
-4.16437
11
3.49016
21
-4.18406
0
LINE
8
BLACK
6
CONTINUOUS
10
3.62233
20
-4.1319
11
3.62983
21
-4.1319
0
LINE
8
BLACK
6
CONTINUOUS
10
3.62983
20
-4.1319
11
3.63733
21
-4.13565
0
LINE
8
BLACK
6
CONTINUOUS
10
3.63733
20
-4.13565
11
3.64108
21
-4.1394
0
LINE
8
BLACK
6
CONTINUOUS
10
3.64108
20
-4.1394
11
3.64483
21
-4.1469
0
LINE
8
BLACK
6
CONTINUOUS
10
3.64483
20
-4.1469
11
3.64858
21
-4.1619
0
LINE
8
BLACK
6
CONTINUOUS
10
3.64858
20
-4.1619
11
3.64858
21
-4.18064
0
LINE
8
BLACK
6
CONTINUOUS
10
3.64858
20
-4.18064
11
3.64483
21
-4.19564
0
LINE
8
BLACK
6
CONTINUOUS
10
3.64483
20
-4.19564
11
3.64108
21
-4.20314
0
LINE
8
BLACK
6
CONTINUOUS
10
3.64108
20
-4.20314
11
3.63733
21
-4.20689
0
LINE
8
BLACK
6
CONTINUOUS
10
3.63733
20
-4.20689
11
3.62983
21
-4.21064
0
LINE
8
BLACK
6
CONTINUOUS
10
3.62983
20
-4.21064
11
3.62233
21
-4.21064
0
LINE
8
BLACK
6
CONTINUOUS
10
3.62233
20
-4.21064
11
3.61483
21
-4.20689
0
LINE
8
BLACK
6
CONTINUOUS
10
3.61483
20
-4.20689
11
3.61108
21
-4.20314
0
LINE
8
BLACK
6
CONTINUOUS
10
3.61108
20
-4.20314
11
3.60733
21
-4.19564
0
LINE
8
BLACK
6
CONTINUOUS
10
3.60733
20
-4.19564
11
3.60358
21
-4.18064
0
LINE
8
BLACK
6
CONTINUOUS
10
3.60358
20
-4.18064
11
3.60358
21
-4.1619
0
LINE
8
BLACK
6
CONTINUOUS
10
3.60358
20
-4.1619
11
3.60733
21
-4.1469
0
LINE
8
BLACK
6
CONTINUOUS
10
3.60733
20
-4.1469
11
3.61108
21
-4.1394
0
LINE
8
BLACK
6
CONTINUOUS
10
3.61108
20
-4.1394
11
3.61483
21
-4.13565
0
LINE
8
BLACK
6
CONTINUOUS
10
3.61483
20
-4.13565
11
3.62233
21
-4.1319
0
LINE
8
BLACK
6
CONTINUOUS
10
3.68232
20
-4.20314
11
3.68607
21
-4.20689
0
LINE
8
BLACK
6
CONTINUOUS
10
3.68607
20
-4.20689
11
3.68232
21
-4.21064
0
LINE
8
BLACK
6
CONTINUOUS
10
3.68232
20
-4.21064
11
3.67857
21
-4.20689
0
LINE
8
BLACK
6
CONTINUOUS
10
3.67857
20
-4.20689
11
3.68232
21
-4.20314
0
LINE
8
BLACK
6
CONTINUOUS
10
3.68232
20
-4.20314
11
3.68232
21
-4.21064
0
LINE
8
BLACK
6
CONTINUOUS
10
3.75731
20
-4.1319
11
3.71982
21
-4.1319
0
LINE
8
BLACK
6
CONTINUOUS
10
3.71982
20
-4.1319
11
3.71607
21
-4.16939
0
LINE
8
BLACK
6
CONTINUOUS
10
3.71607
20
-4.16939
11
3.71982
21
-4.16564
0
LINE
8
BLACK
6
CONTINUOUS
10
3.71982
20
-4.16564
11
3.72732
21
-4.1619
0
LINE
8
BLACK
6
CONTINUOUS
10
3.72732
20
-4.1619
11
3.74606
21
-4.1619
0
LINE
8
BLACK
6
CONTINUOUS
10
3.74606
20
-4.1619
11
3.75356
21
-4.16564
0
LINE
8
BLACK
6
CONTINUOUS
10
3.75356
20
-4.16564
11
3.75731
21
-4.16939
0
LINE
8
BLACK
6
CONTINUOUS
10
3.75731
20
-4.16939
11
3.76106
21
-4.17689
0
LINE
8
BLACK
6
CONTINUOUS
10
3.76106
20
-4.17689
11
3.76106
21
-4.19564
0
LINE
8
BLACK
6
CONTINUOUS
10
3.76106
20
-4.19564
11
3.75731
21
-4.20314
0
LINE
8
BLACK
6
CONTINUOUS
10
3.75731
20
-4.20314
11
3.75356
21
-4.20689
0
LINE
8
BLACK
6
CONTINUOUS
10
3.75356
20
-4.20689
11
3.74606
21
-4.21064
0
LINE
8
BLACK
6
CONTINUOUS
10
3.74606
20
-4.21064
11
3.72732
21
-4.21064
0
LINE
8
BLACK
6
CONTINUOUS
10
3.72732
20
-4.21064
11
3.71982
21
-4.20689
0
LINE
8
BLACK
6
CONTINUOUS
10
3.71982
20
-4.20689
11
3.71607
21
-4.20314
0
LINE
8
BLACK
6
CONTINUOUS
10
3.8098
20
-4.1319
11
3.8173
21
-4.1319
0
LINE
8
BLACK
6
CONTINUOUS
10
3.8173
20
-4.1319
11
3.8248
21
-4.13565
0
LINE
8
BLACK
6
CONTINUOUS
10
3.8248
20
-4.13565
11
3.82855
21
-4.1394
0
LINE
8
BLACK
6
CONTINUOUS
10
3.82855
20
-4.1394
11
3.8323
21
-4.1469
0
LINE
8
BLACK
6
CONTINUOUS
10
3.8323
20
-4.1469
11
3.83605
21
-4.1619
0
LINE
8
BLACK
6
CONTINUOUS
10
3.83605
20
-4.1619
11
3.83605
21
-4.18064
0
LINE
8
BLACK
6
CONTINUOUS
10
3.83605
20
-4.18064
11
3.8323
21
-4.19564
0
LINE
8
BLACK
6
CONTINUOUS
10
3.8323
20
-4.19564
11
3.82855
21
-4.20314
0
LINE
8
BLACK
6
CONTINUOUS
10
3.82855
20
-4.20314
11
3.8248
21
-4.20689
0
LINE
8
BLACK
6
CONTINUOUS
10
3.8248
20
-4.20689
11
3.8173
21
-4.21064
0
LINE
8
BLACK
6
CONTINUOUS
10
3.8173
20
-4.21064
11
3.8098
21
-4.21064
0
LINE
8
BLACK
6
CONTINUOUS
10
3.8098
20
-4.21064
11
3.80231
21
-4.20689
0
LINE
8
BLACK
6
CONTINUOUS
10
3.80231
20
-4.20689
11
3.79856
21
-4.20314
0
LINE
8
BLACK
6
CONTINUOUS
10
3.79856
20
-4.20314
11
3.79481
21
-4.19564
0
LINE
8
BLACK
6
CONTINUOUS
10
3.79481
20
-4.19564
11
3.79106
21
-4.18064
0
LINE
8
BLACK
6
CONTINUOUS
10
3.79106
20
-4.18064
11
3.79106
21
-4.1619
0
LINE
8
BLACK
6
CONTINUOUS
10
3.79106
20
-4.1619
11
3.79481
21
-4.1469
0
LINE
8
BLACK
6
CONTINUOUS
10
3.79481
20
-4.1469
11
3.79856
21
-4.1394
0
LINE
8
BLACK
6
CONTINUOUS
10
3.79856
20
-4.1394
11
3.80231
21
-4.13565
0
LINE
8
BLACK
6
CONTINUOUS
10
3.80231
20
-4.13565
11
3.8098
21
-4.1319
0
LINE
8
BLACK
6
CONTINUOUS
10
3.8848
20
-4.1319
11
3.89229
21
-4.1319
0
LINE
8
BLACK
6
CONTINUOUS
10
3.89229
20
-4.1319
11
3.89979
21
-4.13565
0
LINE
8
BLACK
6
CONTINUOUS
10
3.89979
20
-4.13565
11
3.90354
21
-4.1394
0
LINE
8
BLACK
6
CONTINUOUS
10
3.90354
20
-4.1394
11
3.90729
21
-4.1469
0
LINE
8
BLACK
6
CONTINUOUS
10
3.90729
20
-4.1469
11
3.91104
21
-4.1619
0
LINE
8
BLACK
6
CONTINUOUS
10
3.91104
20
-4.1619
11
3.91104
21
-4.18064
0
LINE
8
BLACK
6
CONTINUOUS
10
3.91104
20
-4.18064
11
3.90729
21
-4.19564
0
LINE
8
BLACK
6
CONTINUOUS
10
3.90729
20
-4.19564
11
3.90354
21
-4.20314
0
LINE
8
BLACK
6
CONTINUOUS
10
3.90354
20
-4.20314
11
3.89979
21
-4.20689
0
LINE
8
BLACK
6
CONTINUOUS
10
3.89979
20
-4.20689
11
3.89229
21
-4.21064
0
LINE
8
BLACK
6
CONTINUOUS
10
3.89229
20
-4.21064
11
3.8848
21
-4.21064
0
LINE
8
BLACK
6
CONTINUOUS
10
3.8848
20
-4.21064
11
3.8773
21
-4.20689
0
LINE
8
BLACK
6
CONTINUOUS
10
3.8773
20
-4.20689
11
3.87355
21
-4.20314
0
LINE
8
BLACK
6
CONTINUOUS
10
3.87355
20
-4.20314
11
3.8698
21
-4.19564
0
LINE
8
BLACK
6
CONTINUOUS
10
3.8698
20
-4.19564
11
3.86605
21
-4.18064
0
LINE
8
BLACK
6
CONTINUOUS
10
3.86605
20
-4.18064
11
3.86605
21
-4.1619
0
LINE
8
BLACK
6
CONTINUOUS
10
3.86605
20
-4.1619
11
3.8698
21
-4.1469
0
LINE
8
BLACK
6
CONTINUOUS
10
3.8698
20
-4.1469
11
3.87355
21
-4.1394
0
LINE
8
BLACK
6
CONTINUOUS
10
3.87355
20
-4.1394
11
3.8773
21
-4.13565
0
LINE
8
BLACK
6
CONTINUOUS
10
3.8773
20
-4.13565
11
3.8848
21
-4.1319
0
LINE
8
BLACK
6
CONTINUOUS
10
3.94479
20
-4.21064
11
3.94479
21
-4.15815
0
LINE
8
BLACK
6
CONTINUOUS
10
3.94479
20
-4.16564
11
3.94854
21
-4.1619
0
LINE
8
BLACK
6
CONTINUOUS
10
3.94854
20
-4.1619
11
3.95604
21
-4.15815
0
LINE
8
BLACK
6
CONTINUOUS
10
3.95604
20
-4.15815
11
3.96729
21
-4.15815
0
LINE
8
BLACK
6
CONTINUOUS
10
3.96729
20
-4.15815
11
3.97478
21
-4.1619
0
LINE
8
BLACK
6
CONTINUOUS
10
3.97478
20
-4.1619
11
3.97853
21
-4.16939
0
LINE
8
BLACK
6
CONTINUOUS
10
3.97853
20
-4.16939
11
3.97853
21
-4.21064
0
LINE
8
BLACK
6
CONTINUOUS
10
3.97853
20
-4.16939
11
3.98228
21
-4.1619
0
LINE
8
BLACK
6
CONTINUOUS
10
3.98228
20
-4.1619
11
3.98978
21
-4.15815
0
LINE
8
BLACK
6
CONTINUOUS
10
3.98978
20
-4.15815
11
4.00103
21
-4.15815
0
LINE
8
BLACK
6
CONTINUOUS
10
4.00103
20
-4.15815
11
4.00853
21
-4.1619
0
LINE
8
BLACK
6
CONTINUOUS
10
4.00853
20
-4.1619
11
4.01228
21
-4.16939
0
LINE
8
BLACK
6
CONTINUOUS
10
4.01228
20
-4.16939
11
4.01228
21
-4.21064
0
LINE
8
BLACK
6
CONTINUOUS
10
4.04978
20
-4.21064
11
4.04978
21
-4.15815
0
LINE
8
BLACK
6
CONTINUOUS
10
4.04978
20
-4.16564
11
4.05352
21
-4.1619
0
LINE
8
BLACK
6
CONTINUOUS
10
4.05352
20
-4.1619
11
4.06102
21
-4.15815
0
LINE
8
BLACK
6
CONTINUOUS
10
4.06102
20
-4.15815
11
4.07227
21
-4.15815
0
LINE
8
BLACK
6
CONTINUOUS
10
4.07227
20
-4.15815
11
4.07977
21
-4.1619
0
LINE
8
BLACK
6
CONTINUOUS
10
4.07977
20
-4.1619
11
4.08352
21
-4.16939
0
LINE
8
BLACK
6
CONTINUOUS
10
4.08352
20
-4.16939
11
4.08352
21
-4.21064
0
LINE
8
BLACK
6
CONTINUOUS
10
4.08352
20
-4.16939
11
4.08727
21
-4.1619
0
LINE
8
BLACK
6
CONTINUOUS
10
4.08727
20
-4.1619
11
4.09477
21
-4.15815
0
LINE
8
BLACK
6
CONTINUOUS
10
4.09477
20
-4.15815
11
4.10602
21
-4.15815
0
LINE
8
BLACK
6
CONTINUOUS
10
4.10602
20
-4.15815
11
4.11352
21
-4.1619
0
LINE
8
BLACK
6
CONTINUOUS
10
4.11352
20
-4.1619
11
4.11727
21
-4.16939
0
LINE
8
BLACK
6
CONTINUOUS
10
4.11727
20
-4.16939
11
4.11727
21
-4.21064
0
LINE
8
BLACK
6
CONTINUOUS
10
4.271
20
-4.12815
11
4.20351
21
-4.22939
0
LINE
8
BLACK
6
CONTINUOUS
10
4.37223
20
-4.1319
11
4.37973
21
-4.1319
0
LINE
8
BLACK
6
CONTINUOUS
10
4.37973
20
-4.1319
11
4.38723
21
-4.13565
0
LINE
8
BLACK
6
CONTINUOUS
10
4.38723
20
-4.13565
11
4.39098
21
-4.1394
0
LINE
8
BLACK
6
CONTINUOUS
10
4.39098
20
-4.1394
11
4.39473
21
-4.1469
0
LINE
8
BLACK
6
CONTINUOUS
10
4.39473
20
-4.1469
11
4.39848
21
-4.1619
0
LINE
8
BLACK
6
CONTINUOUS
10
4.39848
20
-4.1619
11
4.39848
21
-4.18064
0
LINE
8
BLACK
6
CONTINUOUS
10
4.39848
20
-4.18064
11
4.39473
21
-4.19564
0
LINE
8
BLACK
6
CONTINUOUS
10
4.39473
20
-4.19564
11
4.39098
21
-4.20314
0
LINE
8
BLACK
6
CONTINUOUS
10
4.39098
20
-4.20314
11
4.38723
21
-4.20689
0
LINE
8
BLACK
6
CONTINUOUS
10
4.38723
20
-4.20689
11
4.37973
21
-4.21064
0
LINE
8
BLACK
6
CONTINUOUS
10
4.37973
20
-4.21064
11
4.37223
21
-4.21064
0
LINE
8
BLACK
6
CONTINUOUS
10
4.37223
20
-4.21064
11
4.36474
21
-4.20689
0
LINE
8
BLACK
6
CONTINUOUS
10
4.36474
20
-4.20689
11
4.36099
21
-4.20314
0
LINE
8
BLACK
6
CONTINUOUS
10
4.36099
20
-4.20314
11
4.35724
21
-4.19564
0
LINE
8
BLACK
6
CONTINUOUS
10
4.35724
20
-4.19564
11
4.35349
21
-4.18064
0
LINE
8
BLACK
6
CONTINUOUS
10
4.35349
20
-4.18064
11
4.35349
21
-4.1619
0
LINE
8
BLACK
6
CONTINUOUS
10
4.35349
20
-4.1619
11
4.35724
21
-4.1469
0
LINE
8
BLACK
6
CONTINUOUS
10
4.35724
20
-4.1469
11
4.36099
21
-4.1394
0
LINE
8
BLACK
6
CONTINUOUS
10
4.36099
20
-4.1394
11
4.36474
21
-4.13565
0
LINE
8
BLACK
6
CONTINUOUS
10
4.36474
20
-4.13565
11
4.37223
21
-4.1319
0
LINE
8
BLACK
6
CONTINUOUS
10
4.43223
20
-4.20314
11
4.43598
21
-4.20689
0
LINE
8
BLACK
6
CONTINUOUS
10
4.43598
20
-4.20689
11
4.43223
21
-4.21064
0
LINE
8
BLACK
6
CONTINUOUS
10
4.43223
20
-4.21064
11
4.42848
21
-4.20689
0
LINE
8
BLACK
6
CONTINUOUS
10
4.42848
20
-4.20689
11
4.43223
21
-4.20314
0
LINE
8
BLACK
6
CONTINUOUS
10
4.43223
20
-4.20314
11
4.43223
21
-4.21064
0
LINE
8
BLACK
6
CONTINUOUS
10
4.48472
20
-4.1319
11
4.49222
21
-4.1319
0
LINE
8
BLACK
6
CONTINUOUS
10
4.49222
20
-4.1319
11
4.49972
21
-4.13565
0
LINE
8
BLACK
6
CONTINUOUS
10
4.49972
20
-4.13565
11
4.50347
21
-4.1394
0
LINE
8
BLACK
6
CONTINUOUS
10
4.50347
20
-4.1394
11
4.50722
21
-4.1469
0
LINE
8
BLACK
6
CONTINUOUS
10
4.50722
20
-4.1469
11
4.51097
21
-4.1619
0
LINE
8
BLACK
6
CONTINUOUS
10
4.51097
20
-4.1619
11
4.51097
21
-4.18064
0
LINE
8
BLACK
6
CONTINUOUS
10
4.51097
20
-4.18064
11
4.50722
21
-4.19564
0
LINE
8
BLACK
6
CONTINUOUS
10
4.50722
20
-4.19564
11
4.50347
21
-4.20314
0
LINE
8
BLACK
6
CONTINUOUS
10
4.50347
20
-4.20314
11
4.49972
21
-4.20689
0
LINE
8
BLACK
6
CONTINUOUS
10
4.49972
20
-4.20689
11
4.49222
21
-4.21064
0
LINE
8
BLACK
6
CONTINUOUS
10
4.49222
20
-4.21064
11
4.48472
21
-4.21064
0
LINE
8
BLACK
6
CONTINUOUS
10
4.48472
20
-4.21064
11
4.47722
21
-4.20689
0
LINE
8
BLACK
6
CONTINUOUS
10
4.47722
20
-4.20689
11
4.47347
21
-4.20314
0
LINE
8
BLACK
6
CONTINUOUS
10
4.47347
20
-4.20314
11
4.46972
21
-4.19564
0
LINE
8
BLACK
6
CONTINUOUS
10
4.46972
20
-4.19564
11
4.46597
21
-4.18064
0
LINE
8
BLACK
6
CONTINUOUS
10
4.46597
20
-4.18064
11
4.46597
21
-4.1619
0
LINE
8
BLACK
6
CONTINUOUS
10
4.46597
20
-4.1619
11
4.46972
21
-4.1469
0
LINE
8
BLACK
6
CONTINUOUS
10
4.46972
20
-4.1469
11
4.47347
21
-4.1394
0
LINE
8
BLACK
6
CONTINUOUS
10
4.47347
20
-4.1394
11
4.47722
21
-4.13565
0
LINE
8
BLACK
6
CONTINUOUS
10
4.47722
20
-4.13565
11
4.48472
21
-4.1319
0
LINE
8
BLACK
6
CONTINUOUS
10
4.58596
20
-4.21064
11
4.54096
21
-4.21064
0
LINE
8
BLACK
6
CONTINUOUS
10
4.56346
20
-4.21064
11
4.56346
21
-4.1319
0
LINE
8
BLACK
6
CONTINUOUS
10
4.56346
20
-4.1319
11
4.55596
21
-4.14315
0
LINE
8
BLACK
6
CONTINUOUS
10
4.55596
20
-4.14315
11
4.54846
21
-4.15065
0
LINE
8
BLACK
6
CONTINUOUS
10
4.54846
20
-4.15065
11
4.54096
21
-4.1544
0
LINE
8
BLACK
6
CONTINUOUS
10
4.62345
20
-4.21064
11
4.63845
21
-4.21064
0
LINE
8
BLACK
6
CONTINUOUS
10
4.63845
20
-4.21064
11
4.64595
21
-4.20689
0
LINE
8
BLACK
6
CONTINUOUS
10
4.64595
20
-4.20689
11
4.6497
21
-4.20314
0
LINE
8
BLACK
6
CONTINUOUS
10
4.6497
20
-4.20314
11
4.6572
21
-4.19189
0
LINE
8
BLACK
6
CONTINUOUS
10
4.6572
20
-4.19189
11
4.66095
21
-4.17689
0
LINE
8
BLACK
6
CONTINUOUS
10
4.66095
20
-4.17689
11
4.66095
21
-4.1469
0
LINE
8
BLACK
6
CONTINUOUS
10
4.66095
20
-4.1469
11
4.6572
21
-4.1394
0
LINE
8
BLACK
6
CONTINUOUS
10
4.6572
20
-4.1394
11
4.65345
21
-4.13565
0
LINE
8
BLACK
6
CONTINUOUS
10
4.65345
20
-4.13565
11
4.64595
21
-4.1319
0
LINE
8
BLACK
6
CONTINUOUS
10
4.64595
20
-4.1319
11
4.63095
21
-4.1319
0
LINE
8
BLACK
6
CONTINUOUS
10
4.63095
20
-4.1319
11
4.62345
21
-4.13565
0
LINE
8
BLACK
6
CONTINUOUS
10
4.62345
20
-4.13565
11
4.6197
21
-4.1394
0
LINE
8
BLACK
6
CONTINUOUS
10
4.6197
20
-4.1394
11
4.61595
21
-4.1469
0
LINE
8
BLACK
6
CONTINUOUS
10
4.61595
20
-4.1469
11
4.61595
21
-4.16564
0
LINE
8
BLACK
6
CONTINUOUS
10
4.61595
20
-4.16564
11
4.6197
21
-4.17314
0
LINE
8
BLACK
6
CONTINUOUS
10
4.6197
20
-4.17314
11
4.62345
21
-4.17689
0
LINE
8
BLACK
6
CONTINUOUS
10
4.62345
20
-4.17689
11
4.63095
21
-4.18064
0
LINE
8
BLACK
6
CONTINUOUS
10
4.63095
20
-4.18064
11
4.64595
21
-4.18064
0
LINE
8
BLACK
6
CONTINUOUS
10
4.64595
20
-4.18064
11
4.65345
21
-4.17689
0
LINE
8
BLACK
6
CONTINUOUS
10
4.65345
20
-4.17689
11
4.6572
21
-4.17314
0
LINE
8
BLACK
6
CONTINUOUS
10
4.6572
20
-4.17314
11
4.66095
21
-4.16564
0
LINE
8
BLACK
6
CONTINUOUS
10
4.6872
20
-4.1319
11
4.73969
21
-4.1319
0
LINE
8
BLACK
6
CONTINUOUS
10
4.73969
20
-4.1319
11
4.70594
21
-4.21064
0
LINE
8
BLACK
6
CONTINUOUS
10
4.76594
20
-4.1319
11
4.76594
21
-4.1469
0
LINE
8
BLACK
6
CONTINUOUS
10
4.79593
20
-4.1319
11
4.79593
21
-4.1469
0
LINE
8
BLACK
6
CONTINUOUS
10
4.91217
20
-4.24064
11
4.90842
21
-4.23689
0
LINE
8
BLACK
6
CONTINUOUS
10
4.90842
20
-4.23689
11
4.90092
21
-4.22564
0
LINE
8
BLACK
6
CONTINUOUS
10
4.90092
20
-4.22564
11
4.89717
21
-4.21814
0
LINE
8
BLACK
6
CONTINUOUS
10
4.89717
20
-4.21814
11
4.89342
21
-4.20689
0
LINE
8
BLACK
6
CONTINUOUS
10
4.89342
20
-4.20689
11
4.88967
21
-4.18814
0
LINE
8
BLACK
6
CONTINUOUS
10
4.88967
20
-4.18814
11
4.88967
21
-4.17314
0
LINE
8
BLACK
6
CONTINUOUS
10
4.88967
20
-4.17314
11
4.89342
21
-4.1544
0
LINE
8
BLACK
6
CONTINUOUS
10
4.89342
20
-4.1544
11
4.89717
21
-4.14315
0
LINE
8
BLACK
6
CONTINUOUS
10
4.89717
20
-4.14315
11
4.90092
21
-4.13565
0
LINE
8
BLACK
6
CONTINUOUS
10
4.90092
20
-4.13565
11
4.90842
21
-4.1244
0
LINE
8
BLACK
6
CONTINUOUS
10
4.90842
20
-4.1244
11
4.91217
21
-4.12065
0
LINE
8
BLACK
6
CONTINUOUS
10
4.93466
20
-4.1319
11
4.98341
21
-4.1319
0
LINE
8
BLACK
6
CONTINUOUS
10
4.98341
20
-4.1319
11
4.95716
21
-4.1619
0
LINE
8
BLACK
6
CONTINUOUS
10
4.95716
20
-4.1619
11
4.96841
21
-4.1619
0
LINE
8
BLACK
6
CONTINUOUS
10
4.96841
20
-4.1619
11
4.97591
21
-4.16564
0
LINE
8
BLACK
6
CONTINUOUS
10
4.97591
20
-4.16564
11
4.97966
21
-4.16939
0
LINE
8
BLACK
6
CONTINUOUS
10
4.97966
20
-4.16939
11
4.98341
21
-4.17689
0
LINE
8
BLACK
6
CONTINUOUS
10
4.98341
20
-4.17689
11
4.98341
21
-4.19564
0
LINE
8
BLACK
6
CONTINUOUS
10
4.98341
20
-4.19564
11
4.97966
21
-4.20314
0
LINE
8
BLACK
6
CONTINUOUS
10
4.97966
20
-4.20314
11
4.97591
21
-4.20689
0
LINE
8
BLACK
6
CONTINUOUS
10
4.97591
20
-4.20689
11
4.96841
21
-4.21064
0
LINE
8
BLACK
6
CONTINUOUS
10
4.96841
20
-4.21064
11
4.94591
21
-4.21064
0
LINE
8
BLACK
6
CONTINUOUS
10
4.94591
20
-4.21064
11
4.93841
21
-4.20689
0
LINE
8
BLACK
6
CONTINUOUS
10
4.93841
20
-4.20689
11
4.93466
21
-4.20314
0
LINE
8
BLACK
6
CONTINUOUS
10
5.0509
20
-4.1319
11
5.0359
21
-4.1319
0
LINE
8
BLACK
6
CONTINUOUS
10
5.0359
20
-4.1319
11
5.0284
21
-4.13565
0
LINE
8
BLACK
6
CONTINUOUS
10
5.0284
20
-4.13565
11
5.02465
21
-4.1394
0
LINE
8
BLACK
6
CONTINUOUS
10
5.02465
20
-4.1394
11
5.01715
21
-4.15065
0
LINE
8
BLACK
6
CONTINUOUS
10
5.01715
20
-4.15065
11
5.0134
21
-4.16564
0
LINE
8
BLACK
6
CONTINUOUS
10
5.0134
20
-4.16564
11
5.0134
21
-4.19564
0
LINE
8
BLACK
6
CONTINUOUS
10
5.0134
20
-4.19564
11
5.01715
21
-4.20314
0
LINE
8
BLACK
6
CONTINUOUS
10
5.01715
20
-4.20314
11
5.0209
21
-4.20689
0
LINE
8
BLACK
6
CONTINUOUS
10
5.0209
20
-4.20689
11
5.0284
21
-4.21064
0
LINE
8
BLACK
6
CONTINUOUS
10
5.0284
20
-4.21064
11
5.0434
21
-4.21064
0
LINE
8
BLACK
6
CONTINUOUS
10
5.0434
20
-4.21064
11
5.0509
21
-4.20689
0
LINE
8
BLACK
6
CONTINUOUS
10
5.0509
20
-4.20689
11
5.05465
21
-4.20314
0
LINE
8
BLACK
6
CONTINUOUS
10
5.05465
20
-4.20314
11
5.0584
21
-4.19564
0
LINE
8
BLACK
6
CONTINUOUS
10
5.0584
20
-4.19564
11
5.0584
21
-4.17689
0
LINE
8
BLACK
6
CONTINUOUS
10
5.0584
20
-4.17689
11
5.05465
21
-4.16939
0
LINE
8
BLACK
6
CONTINUOUS
10
5.05465
20
-4.16939
11
5.0509
21
-4.16564
0
LINE
8
BLACK
6
CONTINUOUS
10
5.0509
20
-4.16564
11
5.0434
21
-4.1619
0
LINE
8
BLACK
6
CONTINUOUS
10
5.0434
20
-4.1619
11
5.0284
21
-4.1619
0
LINE
8
BLACK
6
CONTINUOUS
10
5.0284
20
-4.1619
11
5.0209
21
-4.16564
0
LINE
8
BLACK
6
CONTINUOUS
10
5.0209
20
-4.16564
11
5.01715
21
-4.16939
0
LINE
8
BLACK
6
CONTINUOUS
10
5.01715
20
-4.16939
11
5.0134
21
-4.17689
0
LINE
8
BLACK
6
CONTINUOUS
10
5.15214
20
-4.21064
11
5.15214
21
-4.1319
0
LINE
8
BLACK
6
CONTINUOUS
10
5.18588
20
-4.21064
11
5.18588
21
-4.16939
0
LINE
8
BLACK
6
CONTINUOUS
10
5.18588
20
-4.16939
11
5.18213
21
-4.1619
0
LINE
8
BLACK
6
CONTINUOUS
10
5.18213
20
-4.1619
11
5.17463
21
-4.15815
0
LINE
8
BLACK
6
CONTINUOUS
10
5.17463
20
-4.15815
11
5.16339
21
-4.15815
0
LINE
8
BLACK
6
CONTINUOUS
10
5.16339
20
-4.15815
11
5.15589
21
-4.1619
0
LINE
8
BLACK
6
CONTINUOUS
10
5.15589
20
-4.1619
11
5.15214
21
-4.16564
0
LINE
8
BLACK
6
CONTINUOUS
10
5.23463
20
-4.21064
11
5.22713
21
-4.20689
0
LINE
8
BLACK
6
CONTINUOUS
10
5.22713
20
-4.20689
11
5.22338
21
-4.20314
0
LINE
8
BLACK
6
CONTINUOUS
10
5.22338
20
-4.20314
11
5.21963
21
-4.19564
0
LINE
8
BLACK
6
CONTINUOUS
10
5.21963
20
-4.19564
11
5.21963
21
-4.17314
0
LINE
8
BLACK
6
CONTINUOUS
10
5.21963
20
-4.17314
11
5.22338
21
-4.16564
0
LINE
8
BLACK
6
CONTINUOUS
10
5.22338
20
-4.16564
11
5.22713
21
-4.1619
0
LINE
8
BLACK
6
CONTINUOUS
10
5.22713
20
-4.1619
11
5.23463
21
-4.15815
0
LINE
8
BLACK
6
CONTINUOUS
10
5.23463
20
-4.15815
11
5.24588
21
-4.15815
0
LINE
8
BLACK
6
CONTINUOUS
10
5.24588
20
-4.15815
11
5.25337
21
-4.1619
0
LINE
8
BLACK
6
CONTINUOUS
10
5.25337
20
-4.1619
11
5.25712
21
-4.16564
0
LINE
8
BLACK
6
CONTINUOUS
10
5.25712
20
-4.16564
11
5.26087
21
-4.17314
0
LINE
8
BLACK
6
CONTINUOUS
10
5.26087
20
-4.17314
11
5.26087
21
-4.19564
0
LINE
8
BLACK
6
CONTINUOUS
10
5.26087
20
-4.19564
11
5.25712
21
-4.20314
0
LINE
8
BLACK
6
CONTINUOUS
10
5.25712
20
-4.20314
11
5.25337
21
-4.20689
0
LINE
8
BLACK
6
CONTINUOUS
10
5.25337
20
-4.20689
11
5.24588
21
-4.21064
0
LINE
8
BLACK
6
CONTINUOUS
10
5.24588
20
-4.21064
11
5.23463
21
-4.21064
0
LINE
8
BLACK
6
CONTINUOUS
10
5.30587
20
-4.21064
11
5.29837
21
-4.20689
0
LINE
8
BLACK
6
CONTINUOUS
10
5.29837
20
-4.20689
11
5.29462
21
-4.19939
0
LINE
8
BLACK
6
CONTINUOUS
10
5.29462
20
-4.19939
11
5.29462
21
-4.1319
0
LINE
8
BLACK
6
CONTINUOUS
10
5.36586
20
-4.20689
11
5.35836
21
-4.21064
0
LINE
8
BLACK
6
CONTINUOUS
10
5.35836
20
-4.21064
11
5.34336
21
-4.21064
0
LINE
8
BLACK
6
CONTINUOUS
10
5.34336
20
-4.21064
11
5.33586
21
-4.20689
0
LINE
8
BLACK
6
CONTINUOUS
10
5.33586
20
-4.20689
11
5.33211
21
-4.19939
0
LINE
8
BLACK
6
CONTINUOUS
10
5.33211
20
-4.19939
11
5.33211
21
-4.16939
0
LINE
8
BLACK
6
CONTINUOUS
10
5.33211
20
-4.16939
11
5.33586
21
-4.1619
0
LINE
8
BLACK
6
CONTINUOUS
10
5.33586
20
-4.1619
11
5.34336
21
-4.15815
0
LINE
8
BLACK
6
CONTINUOUS
10
5.34336
20
-4.15815
11
5.35836
21
-4.15815
0
LINE
8
BLACK
6
CONTINUOUS
10
5.35836
20
-4.15815
11
5.36586
21
-4.1619
0
LINE
8
BLACK
6
CONTINUOUS
10
5.36586
20
-4.1619
11
5.36961
21
-4.16939
0
LINE
8
BLACK
6
CONTINUOUS
10
5.36961
20
-4.16939
11
5.36961
21
-4.17689
0
LINE
8
BLACK
6
CONTINUOUS
10
5.36961
20
-4.17689
11
5.33211
21
-4.18439
0
LINE
8
BLACK
6
CONTINUOUS
10
5.39961
20
-4.20689
11
5.40711
21
-4.21064
0
LINE
8
BLACK
6
CONTINUOUS
10
5.40711
20
-4.21064
11
5.4221
21
-4.21064
0
LINE
8
BLACK
6
CONTINUOUS
10
5.4221
20
-4.21064
11
5.4296
21
-4.20689
0
LINE
8
BLACK
6
CONTINUOUS
10
5.4296
20
-4.20689
11
5.43335
21
-4.19939
0
LINE
8
BLACK
6
CONTINUOUS
10
5.43335
20
-4.19939
11
5.43335
21
-4.19564
0
LINE
8
BLACK
6
CONTINUOUS
10
5.43335
20
-4.19564
11
5.4296
21
-4.18814
0
LINE
8
BLACK
6
CONTINUOUS
10
5.4296
20
-4.18814
11
5.4221
21
-4.18439
0
LINE
8
BLACK
6
CONTINUOUS
10
5.4221
20
-4.18439
11
5.41086
21
-4.18439
0
LINE
8
BLACK
6
CONTINUOUS
10
5.41086
20
-4.18439
11
5.40336
21
-4.18064
0
LINE
8
BLACK
6
CONTINUOUS
10
5.40336
20
-4.18064
11
5.39961
21
-4.17314
0
LINE
8
BLACK
6
CONTINUOUS
10
5.39961
20
-4.17314
11
5.39961
21
-4.16939
0
LINE
8
BLACK
6
CONTINUOUS
10
5.39961
20
-4.16939
11
5.40336
21
-4.1619
0
LINE
8
BLACK
6
CONTINUOUS
10
5.40336
20
-4.1619
11
5.41086
21
-4.15815
0
LINE
8
BLACK
6
CONTINUOUS
10
5.41086
20
-4.15815
11
5.4221
21
-4.15815
0
LINE
8
BLACK
6
CONTINUOUS
10
5.4221
20
-4.15815
11
5.4296
21
-4.1619
0
LINE
8
BLACK
6
CONTINUOUS
10
5.4596
20
-4.24064
11
5.46335
21
-4.23689
0
LINE
8
BLACK
6
CONTINUOUS
10
5.46335
20
-4.23689
11
5.47085
21
-4.22564
0
LINE
8
BLACK
6
CONTINUOUS
10
5.47085
20
-4.22564
11
5.4746
21
-4.21814
0
LINE
8
BLACK
6
CONTINUOUS
10
5.4746
20
-4.21814
11
5.47835
21
-4.20689
0
LINE
8
BLACK
6
CONTINUOUS
10
5.47835
20
-4.20689
11
5.4821
21
-4.18814
0
LINE
8
BLACK
6
CONTINUOUS
10
5.4821
20
-4.18814
11
5.4821
21
-4.17314
0
LINE
8
BLACK
6
CONTINUOUS
10
5.4821
20
-4.17314
11
5.47835
21
-4.1544
0
LINE
8
BLACK
6
CONTINUOUS
10
5.47835
20
-4.1544
11
5.4746
21
-4.14315
0
LINE
8
BLACK
6
CONTINUOUS
10
5.4746
20
-4.14315
11
5.47085
21
-4.13565
0
LINE
8
BLACK
6
CONTINUOUS
10
5.47085
20
-4.13565
11
5.46335
21
-4.1244
0
LINE
8
BLACK
6
CONTINUOUS
10
5.46335
20
-4.1244
11
5.4596
21
-4.12065
0
LINE
8
BLACK
6
CONTINUOUS
10
5.60208
20
-4.24064
11
5.59833
21
-4.23689
0
LINE
8
BLACK
6
CONTINUOUS
10
5.59833
20
-4.23689
11
5.59083
21
-4.22564
0
LINE
8
BLACK
6
CONTINUOUS
10
5.59083
20
-4.22564
11
5.58708
21
-4.21814
0
LINE
8
BLACK
6
CONTINUOUS
10
5.58708
20
-4.21814
11
5.58333
21
-4.20689
0
LINE
8
BLACK
6
CONTINUOUS
10
5.58333
20
-4.20689
11
5.57958
21
-4.18814
0
LINE
8
BLACK
6
CONTINUOUS
10
5.57958
20
-4.18814
11
5.57958
21
-4.17314
0
LINE
8
BLACK
6
CONTINUOUS
10
5.57958
20
-4.17314
11
5.58333
21
-4.1544
0
LINE
8
BLACK
6
CONTINUOUS
10
5.58333
20
-4.1544
11
5.58708
21
-4.14315
0
LINE
8
BLACK
6
CONTINUOUS
10
5.58708
20
-4.14315
11
5.59083
21
-4.13565
0
LINE
8
BLACK
6
CONTINUOUS
10
5.59083
20
-4.13565
11
5.59833
21
-4.1244
0
LINE
8
BLACK
6
CONTINUOUS
10
5.59833
20
-4.1244
11
5.60208
21
-4.12065
0
LINE
8
BLACK
6
CONTINUOUS
10
5.63208
20
-4.15815
11
5.63208
21
-4.21064
0
LINE
8
BLACK
6
CONTINUOUS
10
5.63208
20
-4.16564
11
5.63583
21
-4.1619
0
LINE
8
BLACK
6
CONTINUOUS
10
5.63583
20
-4.1619
11
5.64333
21
-4.15815
0
LINE
8
BLACK
6
CONTINUOUS
10
5.64333
20
-4.15815
11
5.65457
21
-4.15815
0
LINE
8
BLACK
6
CONTINUOUS
10
5.65457
20
-4.15815
11
5.66207
21
-4.1619
0
LINE
8
BLACK
6
CONTINUOUS
10
5.66207
20
-4.1619
11
5.66582
21
-4.16939
0
LINE
8
BLACK
6
CONTINUOUS
10
5.66582
20
-4.16939
11
5.66582
21
-4.21064
0
LINE
8
BLACK
6
CONTINUOUS
10
5.71457
20
-4.21064
11
5.70707
21
-4.20689
0
LINE
8
BLACK
6
CONTINUOUS
10
5.70707
20
-4.20689
11
5.70332
21
-4.20314
0
LINE
8
BLACK
6
CONTINUOUS
10
5.70332
20
-4.20314
11
5.69957
21
-4.19564
0
LINE
8
BLACK
6
CONTINUOUS
10
5.69957
20
-4.19564
11
5.69957
21
-4.17314
0
LINE
8
BLACK
6
CONTINUOUS
10
5.69957
20
-4.17314
11
5.70332
21
-4.16564
0
LINE
8
BLACK
6
CONTINUOUS
10
5.70332
20
-4.16564
11
5.70707
21
-4.1619
0
LINE
8
BLACK
6
CONTINUOUS
10
5.70707
20
-4.1619
11
5.71457
21
-4.15815
0
LINE
8
BLACK
6
CONTINUOUS
10
5.71457
20
-4.15815
11
5.72582
21
-4.15815
0
LINE
8
BLACK
6
CONTINUOUS
10
5.72582
20
-4.15815
11
5.73331
21
-4.1619
0
LINE
8
BLACK
6
CONTINUOUS
10
5.73331
20
-4.1619
11
5.73706
21
-4.16564
0
LINE
8
BLACK
6
CONTINUOUS
10
5.73706
20
-4.16564
11
5.74081
21
-4.17314
0
LINE
8
BLACK
6
CONTINUOUS
10
5.74081
20
-4.17314
11
5.74081
21
-4.19564
0
LINE
8
BLACK
6
CONTINUOUS
10
5.74081
20
-4.19564
11
5.73706
21
-4.20314
0
LINE
8
BLACK
6
CONTINUOUS
10
5.73706
20
-4.20314
11
5.73331
21
-4.20689
0
LINE
8
BLACK
6
CONTINUOUS
10
5.73331
20
-4.20689
11
5.72582
21
-4.21064
0
LINE
8
BLACK
6
CONTINUOUS
10
5.72582
20
-4.21064
11
5.71457
21
-4.21064
0
LINE
8
BLACK
6
CONTINUOUS
10
5.76331
20
-4.15815
11
5.79331
21
-4.15815
0
LINE
8
BLACK
6
CONTINUOUS
10
5.77456
20
-4.1319
11
5.77456
21
-4.19939
0
LINE
8
BLACK
6
CONTINUOUS
10
5.77456
20
-4.19939
11
5.77831
21
-4.20689
0
LINE
8
BLACK
6
CONTINUOUS
10
5.77831
20
-4.20689
11
5.78581
21
-4.21064
0
LINE
8
BLACK
6
CONTINUOUS
10
5.78581
20
-4.21064
11
5.79331
21
-4.21064
0
LINE
8
BLACK
6
CONTINUOUS
10
5.87955
20
-4.15815
11
5.87955
21
-4.23689
0
LINE
8
BLACK
6
CONTINUOUS
10
5.87955
20
-4.1619
11
5.88705
21
-4.15815
0
LINE
8
BLACK
6
CONTINUOUS
10
5.88705
20
-4.15815
11
5.90204
21
-4.15815
0
LINE
8
BLACK
6
CONTINUOUS
10
5.90204
20
-4.15815
11
5.90954
21
-4.1619
0
LINE
8
BLACK
6
CONTINUOUS
10
5.90954
20
-4.1619
11
5.91329
21
-4.16564
0
LINE
8
BLACK
6
CONTINUOUS
10
5.91329
20
-4.16564
11
5.91704
21
-4.17314
0
LINE
8
BLACK
6
CONTINUOUS
10
5.91704
20
-4.17314
11
5.91704
21
-4.19564
0
LINE
8
BLACK
6
CONTINUOUS
10
5.91704
20
-4.19564
11
5.91329
21
-4.20314
0
LINE
8
BLACK
6
CONTINUOUS
10
5.91329
20
-4.20314
11
5.90954
21
-4.20689
0
LINE
8
BLACK
6
CONTINUOUS
10
5.90954
20
-4.20689
11
5.90204
21
-4.21064
0
LINE
8
BLACK
6
CONTINUOUS
10
5.90204
20
-4.21064
11
5.88705
21
-4.21064
0
LINE
8
BLACK
6
CONTINUOUS
10
5.88705
20
-4.21064
11
5.87955
21
-4.20689
0
LINE
8
BLACK
6
CONTINUOUS
10
5.96204
20
-4.21064
11
5.95454
21
-4.20689
0
LINE
8
BLACK
6
CONTINUOUS
10
5.95454
20
-4.20689
11
5.95079
21
-4.19939
0
LINE
8
BLACK
6
CONTINUOUS
10
5.95079
20
-4.19939
11
5.95079
21
-4.1319
0
LINE
8
BLACK
6
CONTINUOUS
10
6.02578
20
-4.21064
11
6.02578
21
-4.16939
0
LINE
8
BLACK
6
CONTINUOUS
10
6.02578
20
-4.16939
11
6.02203
21
-4.1619
0
LINE
8
BLACK
6
CONTINUOUS
10
6.02203
20
-4.1619
11
6.01453
21
-4.15815
0
LINE
8
BLACK
6
CONTINUOUS
10
6.01453
20
-4.15815
11
5.99953
21
-4.15815
0
LINE
8
BLACK
6
CONTINUOUS
10
5.99953
20
-4.15815
11
5.99203
21
-4.1619
0
LINE
8
BLACK
6
CONTINUOUS
10
6.02578
20
-4.20689
11
6.01828
21
-4.21064
0
LINE
8
BLACK
6
CONTINUOUS
10
6.01828
20
-4.21064
11
5.99953
21
-4.21064
0
LINE
8
BLACK
6
CONTINUOUS
10
5.99953
20
-4.21064
11
5.99203
21
-4.20689
0
LINE
8
BLACK
6
CONTINUOUS
10
5.99203
20
-4.20689
11
5.98828
21
-4.19939
0
LINE
8
BLACK
6
CONTINUOUS
10
5.98828
20
-4.19939
11
5.98828
21
-4.19189
0
LINE
8
BLACK
6
CONTINUOUS
10
5.98828
20
-4.19189
11
5.99203
21
-4.18439
0
LINE
8
BLACK
6
CONTINUOUS
10
5.99203
20
-4.18439
11
5.99953
21
-4.18064
0
LINE
8
BLACK
6
CONTINUOUS
10
5.99953
20
-4.18064
11
6.01828
21
-4.18064
0
LINE
8
BLACK
6
CONTINUOUS
10
6.01828
20
-4.18064
11
6.02578
21
-4.17689
0
LINE
8
BLACK
6
CONTINUOUS
10
6.05202
20
-4.15815
11
6.08202
21
-4.15815
0
LINE
8
BLACK
6
CONTINUOUS
10
6.06327
20
-4.1319
11
6.06327
21
-4.19939
0
LINE
8
BLACK
6
CONTINUOUS
10
6.06327
20
-4.19939
11
6.06702
21
-4.20689
0
LINE
8
BLACK
6
CONTINUOUS
10
6.06702
20
-4.20689
11
6.07452
21
-4.21064
0
LINE
8
BLACK
6
CONTINUOUS
10
6.07452
20
-4.21064
11
6.08202
21
-4.21064
0
LINE
8
BLACK
6
CONTINUOUS
10
6.13826
20
-4.20689
11
6.13077
21
-4.21064
0
LINE
8
BLACK
6
CONTINUOUS
10
6.13077
20
-4.21064
11
6.11577
21
-4.21064
0
LINE
8
BLACK
6
CONTINUOUS
10
6.11577
20
-4.21064
11
6.10827
21
-4.20689
0
LINE
8
BLACK
6
CONTINUOUS
10
6.10827
20
-4.20689
11
6.10452
21
-4.19939
0
LINE
8
BLACK
6
CONTINUOUS
10
6.10452
20
-4.19939
11
6.10452
21
-4.16939
0
LINE
8
BLACK
6
CONTINUOUS
10
6.10452
20
-4.16939
11
6.10827
21
-4.1619
0
LINE
8
BLACK
6
CONTINUOUS
10
6.10827
20
-4.1619
11
6.11577
21
-4.15815
0
LINE
8
BLACK
6
CONTINUOUS
10
6.11577
20
-4.15815
11
6.13077
21
-4.15815
0
LINE
8
BLACK
6
CONTINUOUS
10
6.13077
20
-4.15815
11
6.13826
21
-4.1619
0
LINE
8
BLACK
6
CONTINUOUS
10
6.13826
20
-4.1619
11
6.14201
21
-4.16939
0
LINE
8
BLACK
6
CONTINUOUS
10
6.14201
20
-4.16939
11
6.14201
21
-4.17689
0
LINE
8
BLACK
6
CONTINUOUS
10
6.14201
20
-4.17689
11
6.10452
21
-4.18439
0
LINE
8
BLACK
6
CONTINUOUS
10
6.20951
20
-4.21064
11
6.20951
21
-4.1319
0
LINE
8
BLACK
6
CONTINUOUS
10
6.20951
20
-4.20689
11
6.20201
21
-4.21064
0
LINE
8
BLACK
6
CONTINUOUS
10
6.20201
20
-4.21064
11
6.18701
21
-4.21064
0
LINE
8
BLACK
6
CONTINUOUS
10
6.18701
20
-4.21064
11
6.17951
21
-4.20689
0
LINE
8
BLACK
6
CONTINUOUS
10
6.17951
20
-4.20689
11
6.17576
21
-4.20314
0
LINE
8
BLACK
6
CONTINUOUS
10
6.17576
20
-4.20314
11
6.17201
21
-4.19564
0
LINE
8
BLACK
6
CONTINUOUS
10
6.17201
20
-4.19564
11
6.17201
21
-4.17314
0
LINE
8
BLACK
6
CONTINUOUS
10
6.17201
20
-4.17314
11
6.17576
21
-4.16564
0
LINE
8
BLACK
6
CONTINUOUS
10
6.17576
20
-4.16564
11
6.17951
21
-4.1619
0
LINE
8
BLACK
6
CONTINUOUS
10
6.17951
20
-4.1619
11
6.18701
21
-4.15815
0
LINE
8
BLACK
6
CONTINUOUS
10
6.18701
20
-4.15815
11
6.20201
21
-4.15815
0
LINE
8
BLACK
6
CONTINUOUS
10
6.20201
20
-4.15815
11
6.20951
21
-4.1619
0
LINE
8
BLACK
6
CONTINUOUS
10
6.2395
20
-4.24064
11
6.24325
21
-4.23689
0
LINE
8
BLACK
6
CONTINUOUS
10
6.24325
20
-4.23689
11
6.25075
21
-4.22564
0
LINE
8
BLACK
6
CONTINUOUS
10
6.25075
20
-4.22564
11
6.2545
21
-4.21814
0
LINE
8
BLACK
6
CONTINUOUS
10
6.2545
20
-4.21814
11
6.25825
21
-4.20689
0
LINE
8
BLACK
6
CONTINUOUS
10
6.25825
20
-4.20689
11
6.262
21
-4.18814
0
LINE
8
BLACK
6
CONTINUOUS
10
6.262
20
-4.18814
11
6.262
21
-4.17314
0
LINE
8
BLACK
6
CONTINUOUS
10
6.262
20
-4.17314
11
6.25825
21
-4.1544
0
LINE
8
BLACK
6
CONTINUOUS
10
6.25825
20
-4.1544
11
6.2545
21
-4.14315
0
LINE
8
BLACK
6
CONTINUOUS
10
6.2545
20
-4.14315
11
6.25075
21
-4.13565
0
LINE
8
BLACK
6
CONTINUOUS
10
6.25075
20
-4.13565
11
6.24325
21
-4.1244
0
LINE
8
BLACK
6
CONTINUOUS
10
6.24325
20
-4.1244
11
6.2395
21
-4.12065
  0
ENDSEC
  0
EOF
