%TF.GenerationSoftware,KiCad,Pcbnew,7.0.2*%
%TF.CreationDate,2023-10-09T18:23:24+02:00*%
%TF.ProjectId,SommerESP,536f6d6d-6572-4455-9350-2e6b69636164,rev?*%
%TF.SameCoordinates,Original*%
%TF.FileFunction,Legend,Top*%
%TF.FilePolarity,Positive*%
%FSLAX46Y46*%
G04 Gerber Fmt 4.6, Leading zero omitted, Abs format (unit mm)*
G04 Created by KiCad (PCBNEW 7.0.2) date 2023-10-09 18:23:24*
%MOMM*%
%LPD*%
G01*
G04 APERTURE LIST*
%ADD10C,0.150000*%
%ADD11C,0.120000*%
G04 APERTURE END LIST*
D10*
X93425000Y-61925000D02*
X93425000Y-62050000D01*
X90125000Y-61850000D02*
X93425000Y-61850000D01*
X105800000Y-82875000D02*
X100350000Y-82875000D01*
X93425000Y-62075000D02*
X90125000Y-62075000D01*
X105800000Y-83100000D02*
X100350000Y-83100000D01*
X102171428Y-64053809D02*
X102314285Y-64101428D01*
X102314285Y-64101428D02*
X102361904Y-64149047D01*
X102361904Y-64149047D02*
X102409523Y-64244285D01*
X102409523Y-64244285D02*
X102409523Y-64387142D01*
X102409523Y-64387142D02*
X102361904Y-64482380D01*
X102361904Y-64482380D02*
X102314285Y-64530000D01*
X102314285Y-64530000D02*
X102219047Y-64577619D01*
X102219047Y-64577619D02*
X101838095Y-64577619D01*
X101838095Y-64577619D02*
X101838095Y-63577619D01*
X101838095Y-63577619D02*
X102171428Y-63577619D01*
X102171428Y-63577619D02*
X102266666Y-63625238D01*
X102266666Y-63625238D02*
X102314285Y-63672857D01*
X102314285Y-63672857D02*
X102361904Y-63768095D01*
X102361904Y-63768095D02*
X102361904Y-63863333D01*
X102361904Y-63863333D02*
X102314285Y-63958571D01*
X102314285Y-63958571D02*
X102266666Y-64006190D01*
X102266666Y-64006190D02*
X102171428Y-64053809D01*
X102171428Y-64053809D02*
X101838095Y-64053809D01*
X103409523Y-64577619D02*
X103076190Y-64101428D01*
X102838095Y-64577619D02*
X102838095Y-63577619D01*
X102838095Y-63577619D02*
X103219047Y-63577619D01*
X103219047Y-63577619D02*
X103314285Y-63625238D01*
X103314285Y-63625238D02*
X103361904Y-63672857D01*
X103361904Y-63672857D02*
X103409523Y-63768095D01*
X103409523Y-63768095D02*
X103409523Y-63910952D01*
X103409523Y-63910952D02*
X103361904Y-64006190D01*
X103361904Y-64006190D02*
X103314285Y-64053809D01*
X103314285Y-64053809D02*
X103219047Y-64101428D01*
X103219047Y-64101428D02*
X102838095Y-64101428D01*
X103838095Y-64577619D02*
X103838095Y-63577619D01*
X104314285Y-64577619D02*
X104314285Y-63577619D01*
X104314285Y-63577619D02*
X104552380Y-63577619D01*
X104552380Y-63577619D02*
X104695237Y-63625238D01*
X104695237Y-63625238D02*
X104790475Y-63720476D01*
X104790475Y-63720476D02*
X104838094Y-63815714D01*
X104838094Y-63815714D02*
X104885713Y-64006190D01*
X104885713Y-64006190D02*
X104885713Y-64149047D01*
X104885713Y-64149047D02*
X104838094Y-64339523D01*
X104838094Y-64339523D02*
X104790475Y-64434761D01*
X104790475Y-64434761D02*
X104695237Y-64530000D01*
X104695237Y-64530000D02*
X104552380Y-64577619D01*
X104552380Y-64577619D02*
X104314285Y-64577619D01*
X105838094Y-63625238D02*
X105742856Y-63577619D01*
X105742856Y-63577619D02*
X105599999Y-63577619D01*
X105599999Y-63577619D02*
X105457142Y-63625238D01*
X105457142Y-63625238D02*
X105361904Y-63720476D01*
X105361904Y-63720476D02*
X105314285Y-63815714D01*
X105314285Y-63815714D02*
X105266666Y-64006190D01*
X105266666Y-64006190D02*
X105266666Y-64149047D01*
X105266666Y-64149047D02*
X105314285Y-64339523D01*
X105314285Y-64339523D02*
X105361904Y-64434761D01*
X105361904Y-64434761D02*
X105457142Y-64530000D01*
X105457142Y-64530000D02*
X105599999Y-64577619D01*
X105599999Y-64577619D02*
X105695237Y-64577619D01*
X105695237Y-64577619D02*
X105838094Y-64530000D01*
X105838094Y-64530000D02*
X105885713Y-64482380D01*
X105885713Y-64482380D02*
X105885713Y-64149047D01*
X105885713Y-64149047D02*
X105695237Y-64149047D01*
X106314285Y-64053809D02*
X106647618Y-64053809D01*
X106790475Y-64577619D02*
X106314285Y-64577619D01*
X106314285Y-64577619D02*
X106314285Y-63577619D01*
X106314285Y-63577619D02*
X106790475Y-63577619D01*
X118809523Y-67577619D02*
X118476190Y-67101428D01*
X118238095Y-67577619D02*
X118238095Y-66577619D01*
X118238095Y-66577619D02*
X118619047Y-66577619D01*
X118619047Y-66577619D02*
X118714285Y-66625238D01*
X118714285Y-66625238D02*
X118761904Y-66672857D01*
X118761904Y-66672857D02*
X118809523Y-66768095D01*
X118809523Y-66768095D02*
X118809523Y-66910952D01*
X118809523Y-66910952D02*
X118761904Y-67006190D01*
X118761904Y-67006190D02*
X118714285Y-67053809D01*
X118714285Y-67053809D02*
X118619047Y-67101428D01*
X118619047Y-67101428D02*
X118238095Y-67101428D01*
X119190476Y-67530000D02*
X119333333Y-67577619D01*
X119333333Y-67577619D02*
X119571428Y-67577619D01*
X119571428Y-67577619D02*
X119666666Y-67530000D01*
X119666666Y-67530000D02*
X119714285Y-67482380D01*
X119714285Y-67482380D02*
X119761904Y-67387142D01*
X119761904Y-67387142D02*
X119761904Y-67291904D01*
X119761904Y-67291904D02*
X119714285Y-67196666D01*
X119714285Y-67196666D02*
X119666666Y-67149047D01*
X119666666Y-67149047D02*
X119571428Y-67101428D01*
X119571428Y-67101428D02*
X119380952Y-67053809D01*
X119380952Y-67053809D02*
X119285714Y-67006190D01*
X119285714Y-67006190D02*
X119238095Y-66958571D01*
X119238095Y-66958571D02*
X119190476Y-66863333D01*
X119190476Y-66863333D02*
X119190476Y-66768095D01*
X119190476Y-66768095D02*
X119238095Y-66672857D01*
X119238095Y-66672857D02*
X119285714Y-66625238D01*
X119285714Y-66625238D02*
X119380952Y-66577619D01*
X119380952Y-66577619D02*
X119619047Y-66577619D01*
X119619047Y-66577619D02*
X119761904Y-66625238D01*
X120047619Y-66577619D02*
X120619047Y-66577619D01*
X120333333Y-67577619D02*
X120333333Y-66577619D01*
X121438095Y-53777619D02*
X121438095Y-52777619D01*
X122009523Y-53777619D02*
X121580952Y-53206190D01*
X122009523Y-52777619D02*
X121438095Y-53349047D01*
X122438095Y-53253809D02*
X122771428Y-53253809D01*
X122914285Y-53777619D02*
X122438095Y-53777619D01*
X122438095Y-53777619D02*
X122438095Y-52777619D01*
X122438095Y-52777619D02*
X122914285Y-52777619D01*
X123533333Y-53301428D02*
X123533333Y-53777619D01*
X123200000Y-52777619D02*
X123533333Y-53301428D01*
X123533333Y-53301428D02*
X123866666Y-52777619D01*
X124200000Y-53777619D02*
X124200000Y-52777619D01*
X124200000Y-52777619D02*
X124580952Y-52777619D01*
X124580952Y-52777619D02*
X124676190Y-52825238D01*
X124676190Y-52825238D02*
X124723809Y-52872857D01*
X124723809Y-52872857D02*
X124771428Y-52968095D01*
X124771428Y-52968095D02*
X124771428Y-53110952D01*
X124771428Y-53110952D02*
X124723809Y-53206190D01*
X124723809Y-53206190D02*
X124676190Y-53253809D01*
X124676190Y-53253809D02*
X124580952Y-53301428D01*
X124580952Y-53301428D02*
X124200000Y-53301428D01*
X125152381Y-53491904D02*
X125628571Y-53491904D01*
X125057143Y-53777619D02*
X125390476Y-52777619D01*
X125390476Y-52777619D02*
X125723809Y-53777619D01*
X126057143Y-53777619D02*
X126057143Y-52777619D01*
X126057143Y-52777619D02*
X126295238Y-52777619D01*
X126295238Y-52777619D02*
X126438095Y-52825238D01*
X126438095Y-52825238D02*
X126533333Y-52920476D01*
X126533333Y-52920476D02*
X126580952Y-53015714D01*
X126580952Y-53015714D02*
X126628571Y-53206190D01*
X126628571Y-53206190D02*
X126628571Y-53349047D01*
X126628571Y-53349047D02*
X126580952Y-53539523D01*
X126580952Y-53539523D02*
X126533333Y-53634761D01*
X126533333Y-53634761D02*
X126438095Y-53730000D01*
X126438095Y-53730000D02*
X126295238Y-53777619D01*
X126295238Y-53777619D02*
X126057143Y-53777619D01*
X96221428Y-94953809D02*
X96364285Y-95001428D01*
X96364285Y-95001428D02*
X96411904Y-95049047D01*
X96411904Y-95049047D02*
X96459523Y-95144285D01*
X96459523Y-95144285D02*
X96459523Y-95287142D01*
X96459523Y-95287142D02*
X96411904Y-95382380D01*
X96411904Y-95382380D02*
X96364285Y-95430000D01*
X96364285Y-95430000D02*
X96269047Y-95477619D01*
X96269047Y-95477619D02*
X95888095Y-95477619D01*
X95888095Y-95477619D02*
X95888095Y-94477619D01*
X95888095Y-94477619D02*
X96221428Y-94477619D01*
X96221428Y-94477619D02*
X96316666Y-94525238D01*
X96316666Y-94525238D02*
X96364285Y-94572857D01*
X96364285Y-94572857D02*
X96411904Y-94668095D01*
X96411904Y-94668095D02*
X96411904Y-94763333D01*
X96411904Y-94763333D02*
X96364285Y-94858571D01*
X96364285Y-94858571D02*
X96316666Y-94906190D01*
X96316666Y-94906190D02*
X96221428Y-94953809D01*
X96221428Y-94953809D02*
X95888095Y-94953809D01*
X97078571Y-94477619D02*
X97269047Y-94477619D01*
X97269047Y-94477619D02*
X97364285Y-94525238D01*
X97364285Y-94525238D02*
X97459523Y-94620476D01*
X97459523Y-94620476D02*
X97507142Y-94810952D01*
X97507142Y-94810952D02*
X97507142Y-95144285D01*
X97507142Y-95144285D02*
X97459523Y-95334761D01*
X97459523Y-95334761D02*
X97364285Y-95430000D01*
X97364285Y-95430000D02*
X97269047Y-95477619D01*
X97269047Y-95477619D02*
X97078571Y-95477619D01*
X97078571Y-95477619D02*
X96983333Y-95430000D01*
X96983333Y-95430000D02*
X96888095Y-95334761D01*
X96888095Y-95334761D02*
X96840476Y-95144285D01*
X96840476Y-95144285D02*
X96840476Y-94810952D01*
X96840476Y-94810952D02*
X96888095Y-94620476D01*
X96888095Y-94620476D02*
X96983333Y-94525238D01*
X96983333Y-94525238D02*
X97078571Y-94477619D01*
X97888095Y-95191904D02*
X98364285Y-95191904D01*
X97792857Y-95477619D02*
X98126190Y-94477619D01*
X98126190Y-94477619D02*
X98459523Y-95477619D01*
X99364285Y-95477619D02*
X99030952Y-95001428D01*
X98792857Y-95477619D02*
X98792857Y-94477619D01*
X98792857Y-94477619D02*
X99173809Y-94477619D01*
X99173809Y-94477619D02*
X99269047Y-94525238D01*
X99269047Y-94525238D02*
X99316666Y-94572857D01*
X99316666Y-94572857D02*
X99364285Y-94668095D01*
X99364285Y-94668095D02*
X99364285Y-94810952D01*
X99364285Y-94810952D02*
X99316666Y-94906190D01*
X99316666Y-94906190D02*
X99269047Y-94953809D01*
X99269047Y-94953809D02*
X99173809Y-95001428D01*
X99173809Y-95001428D02*
X98792857Y-95001428D01*
X99792857Y-95477619D02*
X99792857Y-94477619D01*
X99792857Y-94477619D02*
X100030952Y-94477619D01*
X100030952Y-94477619D02*
X100173809Y-94525238D01*
X100173809Y-94525238D02*
X100269047Y-94620476D01*
X100269047Y-94620476D02*
X100316666Y-94715714D01*
X100316666Y-94715714D02*
X100364285Y-94906190D01*
X100364285Y-94906190D02*
X100364285Y-95049047D01*
X100364285Y-95049047D02*
X100316666Y-95239523D01*
X100316666Y-95239523D02*
X100269047Y-95334761D01*
X100269047Y-95334761D02*
X100173809Y-95430000D01*
X100173809Y-95430000D02*
X100030952Y-95477619D01*
X100030952Y-95477619D02*
X99792857Y-95477619D01*
X111971428Y-67053809D02*
X112114285Y-67101428D01*
X112114285Y-67101428D02*
X112161904Y-67149047D01*
X112161904Y-67149047D02*
X112209523Y-67244285D01*
X112209523Y-67244285D02*
X112209523Y-67387142D01*
X112209523Y-67387142D02*
X112161904Y-67482380D01*
X112161904Y-67482380D02*
X112114285Y-67530000D01*
X112114285Y-67530000D02*
X112019047Y-67577619D01*
X112019047Y-67577619D02*
X111638095Y-67577619D01*
X111638095Y-67577619D02*
X111638095Y-66577619D01*
X111638095Y-66577619D02*
X111971428Y-66577619D01*
X111971428Y-66577619D02*
X112066666Y-66625238D01*
X112066666Y-66625238D02*
X112114285Y-66672857D01*
X112114285Y-66672857D02*
X112161904Y-66768095D01*
X112161904Y-66768095D02*
X112161904Y-66863333D01*
X112161904Y-66863333D02*
X112114285Y-66958571D01*
X112114285Y-66958571D02*
X112066666Y-67006190D01*
X112066666Y-67006190D02*
X111971428Y-67053809D01*
X111971428Y-67053809D02*
X111638095Y-67053809D01*
X112828571Y-66577619D02*
X113019047Y-66577619D01*
X113019047Y-66577619D02*
X113114285Y-66625238D01*
X113114285Y-66625238D02*
X113209523Y-66720476D01*
X113209523Y-66720476D02*
X113257142Y-66910952D01*
X113257142Y-66910952D02*
X113257142Y-67244285D01*
X113257142Y-67244285D02*
X113209523Y-67434761D01*
X113209523Y-67434761D02*
X113114285Y-67530000D01*
X113114285Y-67530000D02*
X113019047Y-67577619D01*
X113019047Y-67577619D02*
X112828571Y-67577619D01*
X112828571Y-67577619D02*
X112733333Y-67530000D01*
X112733333Y-67530000D02*
X112638095Y-67434761D01*
X112638095Y-67434761D02*
X112590476Y-67244285D01*
X112590476Y-67244285D02*
X112590476Y-66910952D01*
X112590476Y-66910952D02*
X112638095Y-66720476D01*
X112638095Y-66720476D02*
X112733333Y-66625238D01*
X112733333Y-66625238D02*
X112828571Y-66577619D01*
X113876190Y-66577619D02*
X114066666Y-66577619D01*
X114066666Y-66577619D02*
X114161904Y-66625238D01*
X114161904Y-66625238D02*
X114257142Y-66720476D01*
X114257142Y-66720476D02*
X114304761Y-66910952D01*
X114304761Y-66910952D02*
X114304761Y-67244285D01*
X114304761Y-67244285D02*
X114257142Y-67434761D01*
X114257142Y-67434761D02*
X114161904Y-67530000D01*
X114161904Y-67530000D02*
X114066666Y-67577619D01*
X114066666Y-67577619D02*
X113876190Y-67577619D01*
X113876190Y-67577619D02*
X113780952Y-67530000D01*
X113780952Y-67530000D02*
X113685714Y-67434761D01*
X113685714Y-67434761D02*
X113638095Y-67244285D01*
X113638095Y-67244285D02*
X113638095Y-66910952D01*
X113638095Y-66910952D02*
X113685714Y-66720476D01*
X113685714Y-66720476D02*
X113780952Y-66625238D01*
X113780952Y-66625238D02*
X113876190Y-66577619D01*
X114590476Y-66577619D02*
X115161904Y-66577619D01*
X114876190Y-67577619D02*
X114876190Y-66577619D01*
X128071428Y-53253809D02*
X128214285Y-53301428D01*
X128214285Y-53301428D02*
X128261904Y-53349047D01*
X128261904Y-53349047D02*
X128309523Y-53444285D01*
X128309523Y-53444285D02*
X128309523Y-53587142D01*
X128309523Y-53587142D02*
X128261904Y-53682380D01*
X128261904Y-53682380D02*
X128214285Y-53730000D01*
X128214285Y-53730000D02*
X128119047Y-53777619D01*
X128119047Y-53777619D02*
X127738095Y-53777619D01*
X127738095Y-53777619D02*
X127738095Y-52777619D01*
X127738095Y-52777619D02*
X128071428Y-52777619D01*
X128071428Y-52777619D02*
X128166666Y-52825238D01*
X128166666Y-52825238D02*
X128214285Y-52872857D01*
X128214285Y-52872857D02*
X128261904Y-52968095D01*
X128261904Y-52968095D02*
X128261904Y-53063333D01*
X128261904Y-53063333D02*
X128214285Y-53158571D01*
X128214285Y-53158571D02*
X128166666Y-53206190D01*
X128166666Y-53206190D02*
X128071428Y-53253809D01*
X128071428Y-53253809D02*
X127738095Y-53253809D01*
X128928571Y-52777619D02*
X129119047Y-52777619D01*
X129119047Y-52777619D02*
X129214285Y-52825238D01*
X129214285Y-52825238D02*
X129309523Y-52920476D01*
X129309523Y-52920476D02*
X129357142Y-53110952D01*
X129357142Y-53110952D02*
X129357142Y-53444285D01*
X129357142Y-53444285D02*
X129309523Y-53634761D01*
X129309523Y-53634761D02*
X129214285Y-53730000D01*
X129214285Y-53730000D02*
X129119047Y-53777619D01*
X129119047Y-53777619D02*
X128928571Y-53777619D01*
X128928571Y-53777619D02*
X128833333Y-53730000D01*
X128833333Y-53730000D02*
X128738095Y-53634761D01*
X128738095Y-53634761D02*
X128690476Y-53444285D01*
X128690476Y-53444285D02*
X128690476Y-53110952D01*
X128690476Y-53110952D02*
X128738095Y-52920476D01*
X128738095Y-52920476D02*
X128833333Y-52825238D01*
X128833333Y-52825238D02*
X128928571Y-52777619D01*
X129738095Y-53491904D02*
X130214285Y-53491904D01*
X129642857Y-53777619D02*
X129976190Y-52777619D01*
X129976190Y-52777619D02*
X130309523Y-53777619D01*
X131214285Y-53777619D02*
X130880952Y-53301428D01*
X130642857Y-53777619D02*
X130642857Y-52777619D01*
X130642857Y-52777619D02*
X131023809Y-52777619D01*
X131023809Y-52777619D02*
X131119047Y-52825238D01*
X131119047Y-52825238D02*
X131166666Y-52872857D01*
X131166666Y-52872857D02*
X131214285Y-52968095D01*
X131214285Y-52968095D02*
X131214285Y-53110952D01*
X131214285Y-53110952D02*
X131166666Y-53206190D01*
X131166666Y-53206190D02*
X131119047Y-53253809D01*
X131119047Y-53253809D02*
X131023809Y-53301428D01*
X131023809Y-53301428D02*
X130642857Y-53301428D01*
X131642857Y-53777619D02*
X131642857Y-52777619D01*
X131642857Y-52777619D02*
X131880952Y-52777619D01*
X131880952Y-52777619D02*
X132023809Y-52825238D01*
X132023809Y-52825238D02*
X132119047Y-52920476D01*
X132119047Y-52920476D02*
X132166666Y-53015714D01*
X132166666Y-53015714D02*
X132214285Y-53206190D01*
X132214285Y-53206190D02*
X132214285Y-53349047D01*
X132214285Y-53349047D02*
X132166666Y-53539523D01*
X132166666Y-53539523D02*
X132119047Y-53634761D01*
X132119047Y-53634761D02*
X132023809Y-53730000D01*
X132023809Y-53730000D02*
X131880952Y-53777619D01*
X131880952Y-53777619D02*
X131642857Y-53777619D01*
%TO.C,R8*%
X128533333Y-79803833D02*
X128300000Y-79470500D01*
X128133333Y-79803833D02*
X128133333Y-79103833D01*
X128133333Y-79103833D02*
X128400000Y-79103833D01*
X128400000Y-79103833D02*
X128466667Y-79137166D01*
X128466667Y-79137166D02*
X128500000Y-79170500D01*
X128500000Y-79170500D02*
X128533333Y-79237166D01*
X128533333Y-79237166D02*
X128533333Y-79337166D01*
X128533333Y-79337166D02*
X128500000Y-79403833D01*
X128500000Y-79403833D02*
X128466667Y-79437166D01*
X128466667Y-79437166D02*
X128400000Y-79470500D01*
X128400000Y-79470500D02*
X128133333Y-79470500D01*
X128933333Y-79403833D02*
X128866667Y-79370500D01*
X128866667Y-79370500D02*
X128833333Y-79337166D01*
X128833333Y-79337166D02*
X128800000Y-79270500D01*
X128800000Y-79270500D02*
X128800000Y-79237166D01*
X128800000Y-79237166D02*
X128833333Y-79170500D01*
X128833333Y-79170500D02*
X128866667Y-79137166D01*
X128866667Y-79137166D02*
X128933333Y-79103833D01*
X128933333Y-79103833D02*
X129066667Y-79103833D01*
X129066667Y-79103833D02*
X129133333Y-79137166D01*
X129133333Y-79137166D02*
X129166667Y-79170500D01*
X129166667Y-79170500D02*
X129200000Y-79237166D01*
X129200000Y-79237166D02*
X129200000Y-79270500D01*
X129200000Y-79270500D02*
X129166667Y-79337166D01*
X129166667Y-79337166D02*
X129133333Y-79370500D01*
X129133333Y-79370500D02*
X129066667Y-79403833D01*
X129066667Y-79403833D02*
X128933333Y-79403833D01*
X128933333Y-79403833D02*
X128866667Y-79437166D01*
X128866667Y-79437166D02*
X128833333Y-79470500D01*
X128833333Y-79470500D02*
X128800000Y-79537166D01*
X128800000Y-79537166D02*
X128800000Y-79670500D01*
X128800000Y-79670500D02*
X128833333Y-79737166D01*
X128833333Y-79737166D02*
X128866667Y-79770500D01*
X128866667Y-79770500D02*
X128933333Y-79803833D01*
X128933333Y-79803833D02*
X129066667Y-79803833D01*
X129066667Y-79803833D02*
X129133333Y-79770500D01*
X129133333Y-79770500D02*
X129166667Y-79737166D01*
X129166667Y-79737166D02*
X129200000Y-79670500D01*
X129200000Y-79670500D02*
X129200000Y-79537166D01*
X129200000Y-79537166D02*
X129166667Y-79470500D01*
X129166667Y-79470500D02*
X129133333Y-79437166D01*
X129133333Y-79437166D02*
X129066667Y-79403833D01*
%TO.C,R2*%
X124162619Y-60566666D02*
X123686428Y-60899999D01*
X124162619Y-61138094D02*
X123162619Y-61138094D01*
X123162619Y-61138094D02*
X123162619Y-60757142D01*
X123162619Y-60757142D02*
X123210238Y-60661904D01*
X123210238Y-60661904D02*
X123257857Y-60614285D01*
X123257857Y-60614285D02*
X123353095Y-60566666D01*
X123353095Y-60566666D02*
X123495952Y-60566666D01*
X123495952Y-60566666D02*
X123591190Y-60614285D01*
X123591190Y-60614285D02*
X123638809Y-60661904D01*
X123638809Y-60661904D02*
X123686428Y-60757142D01*
X123686428Y-60757142D02*
X123686428Y-61138094D01*
X123257857Y-60185713D02*
X123210238Y-60138094D01*
X123210238Y-60138094D02*
X123162619Y-60042856D01*
X123162619Y-60042856D02*
X123162619Y-59804761D01*
X123162619Y-59804761D02*
X123210238Y-59709523D01*
X123210238Y-59709523D02*
X123257857Y-59661904D01*
X123257857Y-59661904D02*
X123353095Y-59614285D01*
X123353095Y-59614285D02*
X123448333Y-59614285D01*
X123448333Y-59614285D02*
X123591190Y-59661904D01*
X123591190Y-59661904D02*
X124162619Y-60233332D01*
X124162619Y-60233332D02*
X124162619Y-59614285D01*
%TO.C,R3*%
X128892619Y-64066666D02*
X128416428Y-64399999D01*
X128892619Y-64638094D02*
X127892619Y-64638094D01*
X127892619Y-64638094D02*
X127892619Y-64257142D01*
X127892619Y-64257142D02*
X127940238Y-64161904D01*
X127940238Y-64161904D02*
X127987857Y-64114285D01*
X127987857Y-64114285D02*
X128083095Y-64066666D01*
X128083095Y-64066666D02*
X128225952Y-64066666D01*
X128225952Y-64066666D02*
X128321190Y-64114285D01*
X128321190Y-64114285D02*
X128368809Y-64161904D01*
X128368809Y-64161904D02*
X128416428Y-64257142D01*
X128416428Y-64257142D02*
X128416428Y-64638094D01*
X127892619Y-63733332D02*
X127892619Y-63114285D01*
X127892619Y-63114285D02*
X128273571Y-63447618D01*
X128273571Y-63447618D02*
X128273571Y-63304761D01*
X128273571Y-63304761D02*
X128321190Y-63209523D01*
X128321190Y-63209523D02*
X128368809Y-63161904D01*
X128368809Y-63161904D02*
X128464047Y-63114285D01*
X128464047Y-63114285D02*
X128702142Y-63114285D01*
X128702142Y-63114285D02*
X128797380Y-63161904D01*
X128797380Y-63161904D02*
X128845000Y-63209523D01*
X128845000Y-63209523D02*
X128892619Y-63304761D01*
X128892619Y-63304761D02*
X128892619Y-63590475D01*
X128892619Y-63590475D02*
X128845000Y-63685713D01*
X128845000Y-63685713D02*
X128797380Y-63733332D01*
%TO.C,C3*%
X98558333Y-67217380D02*
X98510714Y-67265000D01*
X98510714Y-67265000D02*
X98367857Y-67312619D01*
X98367857Y-67312619D02*
X98272619Y-67312619D01*
X98272619Y-67312619D02*
X98129762Y-67265000D01*
X98129762Y-67265000D02*
X98034524Y-67169761D01*
X98034524Y-67169761D02*
X97986905Y-67074523D01*
X97986905Y-67074523D02*
X97939286Y-66884047D01*
X97939286Y-66884047D02*
X97939286Y-66741190D01*
X97939286Y-66741190D02*
X97986905Y-66550714D01*
X97986905Y-66550714D02*
X98034524Y-66455476D01*
X98034524Y-66455476D02*
X98129762Y-66360238D01*
X98129762Y-66360238D02*
X98272619Y-66312619D01*
X98272619Y-66312619D02*
X98367857Y-66312619D01*
X98367857Y-66312619D02*
X98510714Y-66360238D01*
X98510714Y-66360238D02*
X98558333Y-66407857D01*
X98891667Y-66312619D02*
X99510714Y-66312619D01*
X99510714Y-66312619D02*
X99177381Y-66693571D01*
X99177381Y-66693571D02*
X99320238Y-66693571D01*
X99320238Y-66693571D02*
X99415476Y-66741190D01*
X99415476Y-66741190D02*
X99463095Y-66788809D01*
X99463095Y-66788809D02*
X99510714Y-66884047D01*
X99510714Y-66884047D02*
X99510714Y-67122142D01*
X99510714Y-67122142D02*
X99463095Y-67217380D01*
X99463095Y-67217380D02*
X99415476Y-67265000D01*
X99415476Y-67265000D02*
X99320238Y-67312619D01*
X99320238Y-67312619D02*
X99034524Y-67312619D01*
X99034524Y-67312619D02*
X98939286Y-67265000D01*
X98939286Y-67265000D02*
X98891667Y-67217380D01*
%TO.C,U2*%
X138162619Y-65761904D02*
X138972142Y-65761904D01*
X138972142Y-65761904D02*
X139067380Y-65714285D01*
X139067380Y-65714285D02*
X139115000Y-65666666D01*
X139115000Y-65666666D02*
X139162619Y-65571428D01*
X139162619Y-65571428D02*
X139162619Y-65380952D01*
X139162619Y-65380952D02*
X139115000Y-65285714D01*
X139115000Y-65285714D02*
X139067380Y-65238095D01*
X139067380Y-65238095D02*
X138972142Y-65190476D01*
X138972142Y-65190476D02*
X138162619Y-65190476D01*
X138257857Y-64761904D02*
X138210238Y-64714285D01*
X138210238Y-64714285D02*
X138162619Y-64619047D01*
X138162619Y-64619047D02*
X138162619Y-64380952D01*
X138162619Y-64380952D02*
X138210238Y-64285714D01*
X138210238Y-64285714D02*
X138257857Y-64238095D01*
X138257857Y-64238095D02*
X138353095Y-64190476D01*
X138353095Y-64190476D02*
X138448333Y-64190476D01*
X138448333Y-64190476D02*
X138591190Y-64238095D01*
X138591190Y-64238095D02*
X139162619Y-64809523D01*
X139162619Y-64809523D02*
X139162619Y-64190476D01*
%TO.C,R7*%
X128533333Y-77273833D02*
X128300000Y-76940500D01*
X128133333Y-77273833D02*
X128133333Y-76573833D01*
X128133333Y-76573833D02*
X128400000Y-76573833D01*
X128400000Y-76573833D02*
X128466667Y-76607166D01*
X128466667Y-76607166D02*
X128500000Y-76640500D01*
X128500000Y-76640500D02*
X128533333Y-76707166D01*
X128533333Y-76707166D02*
X128533333Y-76807166D01*
X128533333Y-76807166D02*
X128500000Y-76873833D01*
X128500000Y-76873833D02*
X128466667Y-76907166D01*
X128466667Y-76907166D02*
X128400000Y-76940500D01*
X128400000Y-76940500D02*
X128133333Y-76940500D01*
X128766667Y-76573833D02*
X129233333Y-76573833D01*
X129233333Y-76573833D02*
X128933333Y-77273833D01*
%TO.C,J1*%
X122237619Y-68908333D02*
X122951904Y-68908333D01*
X122951904Y-68908333D02*
X123094761Y-68955952D01*
X123094761Y-68955952D02*
X123190000Y-69051190D01*
X123190000Y-69051190D02*
X123237619Y-69194047D01*
X123237619Y-69194047D02*
X123237619Y-69289285D01*
X123237619Y-67908333D02*
X123237619Y-68479761D01*
X123237619Y-68194047D02*
X122237619Y-68194047D01*
X122237619Y-68194047D02*
X122380476Y-68289285D01*
X122380476Y-68289285D02*
X122475714Y-68384523D01*
X122475714Y-68384523D02*
X122523333Y-68479761D01*
%TO.C,D5*%
X94787619Y-63138094D02*
X93787619Y-63138094D01*
X93787619Y-63138094D02*
X93787619Y-62899999D01*
X93787619Y-62899999D02*
X93835238Y-62757142D01*
X93835238Y-62757142D02*
X93930476Y-62661904D01*
X93930476Y-62661904D02*
X94025714Y-62614285D01*
X94025714Y-62614285D02*
X94216190Y-62566666D01*
X94216190Y-62566666D02*
X94359047Y-62566666D01*
X94359047Y-62566666D02*
X94549523Y-62614285D01*
X94549523Y-62614285D02*
X94644761Y-62661904D01*
X94644761Y-62661904D02*
X94740000Y-62757142D01*
X94740000Y-62757142D02*
X94787619Y-62899999D01*
X94787619Y-62899999D02*
X94787619Y-63138094D01*
X93787619Y-61661904D02*
X93787619Y-62138094D01*
X93787619Y-62138094D02*
X94263809Y-62185713D01*
X94263809Y-62185713D02*
X94216190Y-62138094D01*
X94216190Y-62138094D02*
X94168571Y-62042856D01*
X94168571Y-62042856D02*
X94168571Y-61804761D01*
X94168571Y-61804761D02*
X94216190Y-61709523D01*
X94216190Y-61709523D02*
X94263809Y-61661904D01*
X94263809Y-61661904D02*
X94359047Y-61614285D01*
X94359047Y-61614285D02*
X94597142Y-61614285D01*
X94597142Y-61614285D02*
X94692380Y-61661904D01*
X94692380Y-61661904D02*
X94740000Y-61709523D01*
X94740000Y-61709523D02*
X94787619Y-61804761D01*
X94787619Y-61804761D02*
X94787619Y-62042856D01*
X94787619Y-62042856D02*
X94740000Y-62138094D01*
X94740000Y-62138094D02*
X94692380Y-62185713D01*
%TO.C,R6*%
X129043833Y-74536666D02*
X128710500Y-74769999D01*
X129043833Y-74936666D02*
X128343833Y-74936666D01*
X128343833Y-74936666D02*
X128343833Y-74669999D01*
X128343833Y-74669999D02*
X128377166Y-74603333D01*
X128377166Y-74603333D02*
X128410500Y-74569999D01*
X128410500Y-74569999D02*
X128477166Y-74536666D01*
X128477166Y-74536666D02*
X128577166Y-74536666D01*
X128577166Y-74536666D02*
X128643833Y-74569999D01*
X128643833Y-74569999D02*
X128677166Y-74603333D01*
X128677166Y-74603333D02*
X128710500Y-74669999D01*
X128710500Y-74669999D02*
X128710500Y-74936666D01*
X128343833Y-73936666D02*
X128343833Y-74069999D01*
X128343833Y-74069999D02*
X128377166Y-74136666D01*
X128377166Y-74136666D02*
X128410500Y-74169999D01*
X128410500Y-74169999D02*
X128510500Y-74236666D01*
X128510500Y-74236666D02*
X128643833Y-74269999D01*
X128643833Y-74269999D02*
X128910500Y-74269999D01*
X128910500Y-74269999D02*
X128977166Y-74236666D01*
X128977166Y-74236666D02*
X129010500Y-74203333D01*
X129010500Y-74203333D02*
X129043833Y-74136666D01*
X129043833Y-74136666D02*
X129043833Y-74003333D01*
X129043833Y-74003333D02*
X129010500Y-73936666D01*
X129010500Y-73936666D02*
X128977166Y-73903333D01*
X128977166Y-73903333D02*
X128910500Y-73869999D01*
X128910500Y-73869999D02*
X128743833Y-73869999D01*
X128743833Y-73869999D02*
X128677166Y-73903333D01*
X128677166Y-73903333D02*
X128643833Y-73936666D01*
X128643833Y-73936666D02*
X128610500Y-74003333D01*
X128610500Y-74003333D02*
X128610500Y-74136666D01*
X128610500Y-74136666D02*
X128643833Y-74203333D01*
X128643833Y-74203333D02*
X128677166Y-74236666D01*
X128677166Y-74236666D02*
X128743833Y-74269999D01*
%TO.C,R5*%
X133383833Y-74576666D02*
X133050500Y-74809999D01*
X133383833Y-74976666D02*
X132683833Y-74976666D01*
X132683833Y-74976666D02*
X132683833Y-74709999D01*
X132683833Y-74709999D02*
X132717166Y-74643333D01*
X132717166Y-74643333D02*
X132750500Y-74609999D01*
X132750500Y-74609999D02*
X132817166Y-74576666D01*
X132817166Y-74576666D02*
X132917166Y-74576666D01*
X132917166Y-74576666D02*
X132983833Y-74609999D01*
X132983833Y-74609999D02*
X133017166Y-74643333D01*
X133017166Y-74643333D02*
X133050500Y-74709999D01*
X133050500Y-74709999D02*
X133050500Y-74976666D01*
X132683833Y-73943333D02*
X132683833Y-74276666D01*
X132683833Y-74276666D02*
X133017166Y-74309999D01*
X133017166Y-74309999D02*
X132983833Y-74276666D01*
X132983833Y-74276666D02*
X132950500Y-74209999D01*
X132950500Y-74209999D02*
X132950500Y-74043333D01*
X132950500Y-74043333D02*
X132983833Y-73976666D01*
X132983833Y-73976666D02*
X133017166Y-73943333D01*
X133017166Y-73943333D02*
X133083833Y-73909999D01*
X133083833Y-73909999D02*
X133250500Y-73909999D01*
X133250500Y-73909999D02*
X133317166Y-73943333D01*
X133317166Y-73943333D02*
X133350500Y-73976666D01*
X133350500Y-73976666D02*
X133383833Y-74043333D01*
X133383833Y-74043333D02*
X133383833Y-74209999D01*
X133383833Y-74209999D02*
X133350500Y-74276666D01*
X133350500Y-74276666D02*
X133317166Y-74309999D01*
%TO.C,R10*%
X135062619Y-60142857D02*
X134586428Y-60476190D01*
X135062619Y-60714285D02*
X134062619Y-60714285D01*
X134062619Y-60714285D02*
X134062619Y-60333333D01*
X134062619Y-60333333D02*
X134110238Y-60238095D01*
X134110238Y-60238095D02*
X134157857Y-60190476D01*
X134157857Y-60190476D02*
X134253095Y-60142857D01*
X134253095Y-60142857D02*
X134395952Y-60142857D01*
X134395952Y-60142857D02*
X134491190Y-60190476D01*
X134491190Y-60190476D02*
X134538809Y-60238095D01*
X134538809Y-60238095D02*
X134586428Y-60333333D01*
X134586428Y-60333333D02*
X134586428Y-60714285D01*
X135062619Y-59190476D02*
X135062619Y-59761904D01*
X135062619Y-59476190D02*
X134062619Y-59476190D01*
X134062619Y-59476190D02*
X134205476Y-59571428D01*
X134205476Y-59571428D02*
X134300714Y-59666666D01*
X134300714Y-59666666D02*
X134348333Y-59761904D01*
X134062619Y-58571428D02*
X134062619Y-58476190D01*
X134062619Y-58476190D02*
X134110238Y-58380952D01*
X134110238Y-58380952D02*
X134157857Y-58333333D01*
X134157857Y-58333333D02*
X134253095Y-58285714D01*
X134253095Y-58285714D02*
X134443571Y-58238095D01*
X134443571Y-58238095D02*
X134681666Y-58238095D01*
X134681666Y-58238095D02*
X134872142Y-58285714D01*
X134872142Y-58285714D02*
X134967380Y-58333333D01*
X134967380Y-58333333D02*
X135015000Y-58380952D01*
X135015000Y-58380952D02*
X135062619Y-58476190D01*
X135062619Y-58476190D02*
X135062619Y-58571428D01*
X135062619Y-58571428D02*
X135015000Y-58666666D01*
X135015000Y-58666666D02*
X134967380Y-58714285D01*
X134967380Y-58714285D02*
X134872142Y-58761904D01*
X134872142Y-58761904D02*
X134681666Y-58809523D01*
X134681666Y-58809523D02*
X134443571Y-58809523D01*
X134443571Y-58809523D02*
X134253095Y-58761904D01*
X134253095Y-58761904D02*
X134157857Y-58714285D01*
X134157857Y-58714285D02*
X134110238Y-58666666D01*
X134110238Y-58666666D02*
X134062619Y-58571428D01*
%TO.C,S2*%
X117865000Y-63711904D02*
X117912619Y-63569047D01*
X117912619Y-63569047D02*
X117912619Y-63330952D01*
X117912619Y-63330952D02*
X117865000Y-63235714D01*
X117865000Y-63235714D02*
X117817380Y-63188095D01*
X117817380Y-63188095D02*
X117722142Y-63140476D01*
X117722142Y-63140476D02*
X117626904Y-63140476D01*
X117626904Y-63140476D02*
X117531666Y-63188095D01*
X117531666Y-63188095D02*
X117484047Y-63235714D01*
X117484047Y-63235714D02*
X117436428Y-63330952D01*
X117436428Y-63330952D02*
X117388809Y-63521428D01*
X117388809Y-63521428D02*
X117341190Y-63616666D01*
X117341190Y-63616666D02*
X117293571Y-63664285D01*
X117293571Y-63664285D02*
X117198333Y-63711904D01*
X117198333Y-63711904D02*
X117103095Y-63711904D01*
X117103095Y-63711904D02*
X117007857Y-63664285D01*
X117007857Y-63664285D02*
X116960238Y-63616666D01*
X116960238Y-63616666D02*
X116912619Y-63521428D01*
X116912619Y-63521428D02*
X116912619Y-63283333D01*
X116912619Y-63283333D02*
X116960238Y-63140476D01*
X117007857Y-62759523D02*
X116960238Y-62711904D01*
X116960238Y-62711904D02*
X116912619Y-62616666D01*
X116912619Y-62616666D02*
X116912619Y-62378571D01*
X116912619Y-62378571D02*
X116960238Y-62283333D01*
X116960238Y-62283333D02*
X117007857Y-62235714D01*
X117007857Y-62235714D02*
X117103095Y-62188095D01*
X117103095Y-62188095D02*
X117198333Y-62188095D01*
X117198333Y-62188095D02*
X117341190Y-62235714D01*
X117341190Y-62235714D02*
X117912619Y-62807142D01*
X117912619Y-62807142D02*
X117912619Y-62188095D01*
%TO.C,R9*%
X138862619Y-57066666D02*
X138386428Y-57399999D01*
X138862619Y-57638094D02*
X137862619Y-57638094D01*
X137862619Y-57638094D02*
X137862619Y-57257142D01*
X137862619Y-57257142D02*
X137910238Y-57161904D01*
X137910238Y-57161904D02*
X137957857Y-57114285D01*
X137957857Y-57114285D02*
X138053095Y-57066666D01*
X138053095Y-57066666D02*
X138195952Y-57066666D01*
X138195952Y-57066666D02*
X138291190Y-57114285D01*
X138291190Y-57114285D02*
X138338809Y-57161904D01*
X138338809Y-57161904D02*
X138386428Y-57257142D01*
X138386428Y-57257142D02*
X138386428Y-57638094D01*
X138862619Y-56590475D02*
X138862619Y-56399999D01*
X138862619Y-56399999D02*
X138815000Y-56304761D01*
X138815000Y-56304761D02*
X138767380Y-56257142D01*
X138767380Y-56257142D02*
X138624523Y-56161904D01*
X138624523Y-56161904D02*
X138434047Y-56114285D01*
X138434047Y-56114285D02*
X138053095Y-56114285D01*
X138053095Y-56114285D02*
X137957857Y-56161904D01*
X137957857Y-56161904D02*
X137910238Y-56209523D01*
X137910238Y-56209523D02*
X137862619Y-56304761D01*
X137862619Y-56304761D02*
X137862619Y-56495237D01*
X137862619Y-56495237D02*
X137910238Y-56590475D01*
X137910238Y-56590475D02*
X137957857Y-56638094D01*
X137957857Y-56638094D02*
X138053095Y-56685713D01*
X138053095Y-56685713D02*
X138291190Y-56685713D01*
X138291190Y-56685713D02*
X138386428Y-56638094D01*
X138386428Y-56638094D02*
X138434047Y-56590475D01*
X138434047Y-56590475D02*
X138481666Y-56495237D01*
X138481666Y-56495237D02*
X138481666Y-56304761D01*
X138481666Y-56304761D02*
X138434047Y-56209523D01*
X138434047Y-56209523D02*
X138386428Y-56161904D01*
X138386428Y-56161904D02*
X138291190Y-56114285D01*
%TO.C,D2*%
X122783333Y-76953833D02*
X122783333Y-76253833D01*
X122783333Y-76253833D02*
X122950000Y-76253833D01*
X122950000Y-76253833D02*
X123050000Y-76287166D01*
X123050000Y-76287166D02*
X123116667Y-76353833D01*
X123116667Y-76353833D02*
X123150000Y-76420500D01*
X123150000Y-76420500D02*
X123183333Y-76553833D01*
X123183333Y-76553833D02*
X123183333Y-76653833D01*
X123183333Y-76653833D02*
X123150000Y-76787166D01*
X123150000Y-76787166D02*
X123116667Y-76853833D01*
X123116667Y-76853833D02*
X123050000Y-76920500D01*
X123050000Y-76920500D02*
X122950000Y-76953833D01*
X122950000Y-76953833D02*
X122783333Y-76953833D01*
X123450000Y-76320500D02*
X123483333Y-76287166D01*
X123483333Y-76287166D02*
X123550000Y-76253833D01*
X123550000Y-76253833D02*
X123716667Y-76253833D01*
X123716667Y-76253833D02*
X123783333Y-76287166D01*
X123783333Y-76287166D02*
X123816667Y-76320500D01*
X123816667Y-76320500D02*
X123850000Y-76387166D01*
X123850000Y-76387166D02*
X123850000Y-76453833D01*
X123850000Y-76453833D02*
X123816667Y-76553833D01*
X123816667Y-76553833D02*
X123416667Y-76953833D01*
X123416667Y-76953833D02*
X123850000Y-76953833D01*
%TO.C,S1*%
X111865000Y-63711904D02*
X111912619Y-63569047D01*
X111912619Y-63569047D02*
X111912619Y-63330952D01*
X111912619Y-63330952D02*
X111865000Y-63235714D01*
X111865000Y-63235714D02*
X111817380Y-63188095D01*
X111817380Y-63188095D02*
X111722142Y-63140476D01*
X111722142Y-63140476D02*
X111626904Y-63140476D01*
X111626904Y-63140476D02*
X111531666Y-63188095D01*
X111531666Y-63188095D02*
X111484047Y-63235714D01*
X111484047Y-63235714D02*
X111436428Y-63330952D01*
X111436428Y-63330952D02*
X111388809Y-63521428D01*
X111388809Y-63521428D02*
X111341190Y-63616666D01*
X111341190Y-63616666D02*
X111293571Y-63664285D01*
X111293571Y-63664285D02*
X111198333Y-63711904D01*
X111198333Y-63711904D02*
X111103095Y-63711904D01*
X111103095Y-63711904D02*
X111007857Y-63664285D01*
X111007857Y-63664285D02*
X110960238Y-63616666D01*
X110960238Y-63616666D02*
X110912619Y-63521428D01*
X110912619Y-63521428D02*
X110912619Y-63283333D01*
X110912619Y-63283333D02*
X110960238Y-63140476D01*
X111912619Y-62188095D02*
X111912619Y-62759523D01*
X111912619Y-62473809D02*
X110912619Y-62473809D01*
X110912619Y-62473809D02*
X111055476Y-62569047D01*
X111055476Y-62569047D02*
X111150714Y-62664285D01*
X111150714Y-62664285D02*
X111198333Y-62759523D01*
%TO.C,R11*%
X90932619Y-93742857D02*
X90456428Y-94076190D01*
X90932619Y-94314285D02*
X89932619Y-94314285D01*
X89932619Y-94314285D02*
X89932619Y-93933333D01*
X89932619Y-93933333D02*
X89980238Y-93838095D01*
X89980238Y-93838095D02*
X90027857Y-93790476D01*
X90027857Y-93790476D02*
X90123095Y-93742857D01*
X90123095Y-93742857D02*
X90265952Y-93742857D01*
X90265952Y-93742857D02*
X90361190Y-93790476D01*
X90361190Y-93790476D02*
X90408809Y-93838095D01*
X90408809Y-93838095D02*
X90456428Y-93933333D01*
X90456428Y-93933333D02*
X90456428Y-94314285D01*
X90932619Y-92790476D02*
X90932619Y-93361904D01*
X90932619Y-93076190D02*
X89932619Y-93076190D01*
X89932619Y-93076190D02*
X90075476Y-93171428D01*
X90075476Y-93171428D02*
X90170714Y-93266666D01*
X90170714Y-93266666D02*
X90218333Y-93361904D01*
X90932619Y-91838095D02*
X90932619Y-92409523D01*
X90932619Y-92123809D02*
X89932619Y-92123809D01*
X89932619Y-92123809D02*
X90075476Y-92219047D01*
X90075476Y-92219047D02*
X90170714Y-92314285D01*
X90170714Y-92314285D02*
X90218333Y-92409523D01*
%TO.C,J2*%
X132973833Y-77093333D02*
X133473833Y-77093333D01*
X133473833Y-77093333D02*
X133573833Y-77126666D01*
X133573833Y-77126666D02*
X133640500Y-77193333D01*
X133640500Y-77193333D02*
X133673833Y-77293333D01*
X133673833Y-77293333D02*
X133673833Y-77360000D01*
X133040500Y-76793333D02*
X133007166Y-76760000D01*
X133007166Y-76760000D02*
X132973833Y-76693333D01*
X132973833Y-76693333D02*
X132973833Y-76526667D01*
X132973833Y-76526667D02*
X133007166Y-76460000D01*
X133007166Y-76460000D02*
X133040500Y-76426667D01*
X133040500Y-76426667D02*
X133107166Y-76393333D01*
X133107166Y-76393333D02*
X133173833Y-76393333D01*
X133173833Y-76393333D02*
X133273833Y-76426667D01*
X133273833Y-76426667D02*
X133673833Y-76826667D01*
X133673833Y-76826667D02*
X133673833Y-76393333D01*
%TO.C,U5*%
X128738095Y-105712619D02*
X128738095Y-106522142D01*
X128738095Y-106522142D02*
X128785714Y-106617380D01*
X128785714Y-106617380D02*
X128833333Y-106665000D01*
X128833333Y-106665000D02*
X128928571Y-106712619D01*
X128928571Y-106712619D02*
X129119047Y-106712619D01*
X129119047Y-106712619D02*
X129214285Y-106665000D01*
X129214285Y-106665000D02*
X129261904Y-106617380D01*
X129261904Y-106617380D02*
X129309523Y-106522142D01*
X129309523Y-106522142D02*
X129309523Y-105712619D01*
X130261904Y-105712619D02*
X129785714Y-105712619D01*
X129785714Y-105712619D02*
X129738095Y-106188809D01*
X129738095Y-106188809D02*
X129785714Y-106141190D01*
X129785714Y-106141190D02*
X129880952Y-106093571D01*
X129880952Y-106093571D02*
X130119047Y-106093571D01*
X130119047Y-106093571D02*
X130214285Y-106141190D01*
X130214285Y-106141190D02*
X130261904Y-106188809D01*
X130261904Y-106188809D02*
X130309523Y-106284047D01*
X130309523Y-106284047D02*
X130309523Y-106522142D01*
X130309523Y-106522142D02*
X130261904Y-106617380D01*
X130261904Y-106617380D02*
X130214285Y-106665000D01*
X130214285Y-106665000D02*
X130119047Y-106712619D01*
X130119047Y-106712619D02*
X129880952Y-106712619D01*
X129880952Y-106712619D02*
X129785714Y-106665000D01*
X129785714Y-106665000D02*
X129738095Y-106617380D01*
X124738094Y-102076904D02*
X125214284Y-102076904D01*
X124642856Y-102362619D02*
X124976189Y-101362619D01*
X124976189Y-101362619D02*
X125309522Y-102362619D01*
X125642856Y-101695952D02*
X125642856Y-102362619D01*
X125642856Y-101791190D02*
X125690475Y-101743571D01*
X125690475Y-101743571D02*
X125785713Y-101695952D01*
X125785713Y-101695952D02*
X125928570Y-101695952D01*
X125928570Y-101695952D02*
X126023808Y-101743571D01*
X126023808Y-101743571D02*
X126071427Y-101838809D01*
X126071427Y-101838809D02*
X126071427Y-102362619D01*
X126404761Y-101695952D02*
X126785713Y-101695952D01*
X126547618Y-101362619D02*
X126547618Y-102219761D01*
X126547618Y-102219761D02*
X126595237Y-102315000D01*
X126595237Y-102315000D02*
X126690475Y-102362619D01*
X126690475Y-102362619D02*
X126785713Y-102362619D01*
X127499999Y-102315000D02*
X127404761Y-102362619D01*
X127404761Y-102362619D02*
X127214285Y-102362619D01*
X127214285Y-102362619D02*
X127119047Y-102315000D01*
X127119047Y-102315000D02*
X127071428Y-102219761D01*
X127071428Y-102219761D02*
X127071428Y-101838809D01*
X127071428Y-101838809D02*
X127119047Y-101743571D01*
X127119047Y-101743571D02*
X127214285Y-101695952D01*
X127214285Y-101695952D02*
X127404761Y-101695952D01*
X127404761Y-101695952D02*
X127499999Y-101743571D01*
X127499999Y-101743571D02*
X127547618Y-101838809D01*
X127547618Y-101838809D02*
X127547618Y-101934047D01*
X127547618Y-101934047D02*
X127071428Y-102029285D01*
X127976190Y-101695952D02*
X127976190Y-102362619D01*
X127976190Y-101791190D02*
X128023809Y-101743571D01*
X128023809Y-101743571D02*
X128119047Y-101695952D01*
X128119047Y-101695952D02*
X128261904Y-101695952D01*
X128261904Y-101695952D02*
X128357142Y-101743571D01*
X128357142Y-101743571D02*
X128404761Y-101838809D01*
X128404761Y-101838809D02*
X128404761Y-102362619D01*
X128880952Y-101695952D02*
X128880952Y-102362619D01*
X128880952Y-101791190D02*
X128928571Y-101743571D01*
X128928571Y-101743571D02*
X129023809Y-101695952D01*
X129023809Y-101695952D02*
X129166666Y-101695952D01*
X129166666Y-101695952D02*
X129261904Y-101743571D01*
X129261904Y-101743571D02*
X129309523Y-101838809D01*
X129309523Y-101838809D02*
X129309523Y-102362619D01*
X130214285Y-102362619D02*
X130214285Y-101838809D01*
X130214285Y-101838809D02*
X130166666Y-101743571D01*
X130166666Y-101743571D02*
X130071428Y-101695952D01*
X130071428Y-101695952D02*
X129880952Y-101695952D01*
X129880952Y-101695952D02*
X129785714Y-101743571D01*
X130214285Y-102315000D02*
X130119047Y-102362619D01*
X130119047Y-102362619D02*
X129880952Y-102362619D01*
X129880952Y-102362619D02*
X129785714Y-102315000D01*
X129785714Y-102315000D02*
X129738095Y-102219761D01*
X129738095Y-102219761D02*
X129738095Y-102124523D01*
X129738095Y-102124523D02*
X129785714Y-102029285D01*
X129785714Y-102029285D02*
X129880952Y-101981666D01*
X129880952Y-101981666D02*
X130119047Y-101981666D01*
X130119047Y-101981666D02*
X130214285Y-101934047D01*
X131404762Y-102076904D02*
X131880952Y-102076904D01*
X131309524Y-102362619D02*
X131642857Y-101362619D01*
X131642857Y-101362619D02*
X131976190Y-102362619D01*
X132309524Y-102362619D02*
X132309524Y-101695952D01*
X132309524Y-101886428D02*
X132357143Y-101791190D01*
X132357143Y-101791190D02*
X132404762Y-101743571D01*
X132404762Y-101743571D02*
X132500000Y-101695952D01*
X132500000Y-101695952D02*
X132595238Y-101695952D01*
X133309524Y-102315000D02*
X133214286Y-102362619D01*
X133214286Y-102362619D02*
X133023810Y-102362619D01*
X133023810Y-102362619D02*
X132928572Y-102315000D01*
X132928572Y-102315000D02*
X132880953Y-102219761D01*
X132880953Y-102219761D02*
X132880953Y-101838809D01*
X132880953Y-101838809D02*
X132928572Y-101743571D01*
X132928572Y-101743571D02*
X133023810Y-101695952D01*
X133023810Y-101695952D02*
X133214286Y-101695952D01*
X133214286Y-101695952D02*
X133309524Y-101743571D01*
X133309524Y-101743571D02*
X133357143Y-101838809D01*
X133357143Y-101838809D02*
X133357143Y-101934047D01*
X133357143Y-101934047D02*
X132880953Y-102029285D01*
X134214286Y-102362619D02*
X134214286Y-101838809D01*
X134214286Y-101838809D02*
X134166667Y-101743571D01*
X134166667Y-101743571D02*
X134071429Y-101695952D01*
X134071429Y-101695952D02*
X133880953Y-101695952D01*
X133880953Y-101695952D02*
X133785715Y-101743571D01*
X134214286Y-102315000D02*
X134119048Y-102362619D01*
X134119048Y-102362619D02*
X133880953Y-102362619D01*
X133880953Y-102362619D02*
X133785715Y-102315000D01*
X133785715Y-102315000D02*
X133738096Y-102219761D01*
X133738096Y-102219761D02*
X133738096Y-102124523D01*
X133738096Y-102124523D02*
X133785715Y-102029285D01*
X133785715Y-102029285D02*
X133880953Y-101981666D01*
X133880953Y-101981666D02*
X134119048Y-101981666D01*
X134119048Y-101981666D02*
X134214286Y-101934047D01*
%TO.C,L1*%
X97462619Y-60766666D02*
X97462619Y-61242856D01*
X97462619Y-61242856D02*
X96462619Y-61242856D01*
X97462619Y-59909523D02*
X97462619Y-60480951D01*
X97462619Y-60195237D02*
X96462619Y-60195237D01*
X96462619Y-60195237D02*
X96605476Y-60290475D01*
X96605476Y-60290475D02*
X96700714Y-60385713D01*
X96700714Y-60385713D02*
X96748333Y-60480951D01*
%TO.C,R4*%
X124187619Y-64091666D02*
X123711428Y-64424999D01*
X124187619Y-64663094D02*
X123187619Y-64663094D01*
X123187619Y-64663094D02*
X123187619Y-64282142D01*
X123187619Y-64282142D02*
X123235238Y-64186904D01*
X123235238Y-64186904D02*
X123282857Y-64139285D01*
X123282857Y-64139285D02*
X123378095Y-64091666D01*
X123378095Y-64091666D02*
X123520952Y-64091666D01*
X123520952Y-64091666D02*
X123616190Y-64139285D01*
X123616190Y-64139285D02*
X123663809Y-64186904D01*
X123663809Y-64186904D02*
X123711428Y-64282142D01*
X123711428Y-64282142D02*
X123711428Y-64663094D01*
X123520952Y-63234523D02*
X124187619Y-63234523D01*
X123140000Y-63472618D02*
X123854285Y-63710713D01*
X123854285Y-63710713D02*
X123854285Y-63091666D01*
%TO.C,U4*%
X97513095Y-79987619D02*
X97513095Y-80797142D01*
X97513095Y-80797142D02*
X97560714Y-80892380D01*
X97560714Y-80892380D02*
X97608333Y-80940000D01*
X97608333Y-80940000D02*
X97703571Y-80987619D01*
X97703571Y-80987619D02*
X97894047Y-80987619D01*
X97894047Y-80987619D02*
X97989285Y-80940000D01*
X97989285Y-80940000D02*
X98036904Y-80892380D01*
X98036904Y-80892380D02*
X98084523Y-80797142D01*
X98084523Y-80797142D02*
X98084523Y-79987619D01*
X98989285Y-80320952D02*
X98989285Y-80987619D01*
X98751190Y-79940000D02*
X98513095Y-80654285D01*
X98513095Y-80654285D02*
X99132142Y-80654285D01*
%TO.C,R1*%
X128862619Y-60466666D02*
X128386428Y-60799999D01*
X128862619Y-61038094D02*
X127862619Y-61038094D01*
X127862619Y-61038094D02*
X127862619Y-60657142D01*
X127862619Y-60657142D02*
X127910238Y-60561904D01*
X127910238Y-60561904D02*
X127957857Y-60514285D01*
X127957857Y-60514285D02*
X128053095Y-60466666D01*
X128053095Y-60466666D02*
X128195952Y-60466666D01*
X128195952Y-60466666D02*
X128291190Y-60514285D01*
X128291190Y-60514285D02*
X128338809Y-60561904D01*
X128338809Y-60561904D02*
X128386428Y-60657142D01*
X128386428Y-60657142D02*
X128386428Y-61038094D01*
X128862619Y-59514285D02*
X128862619Y-60085713D01*
X128862619Y-59799999D02*
X127862619Y-59799999D01*
X127862619Y-59799999D02*
X128005476Y-59895237D01*
X128005476Y-59895237D02*
X128100714Y-59990475D01*
X128100714Y-59990475D02*
X128148333Y-60085713D01*
%TO.C,Q1*%
X90779761Y-82032857D02*
X90684523Y-81985238D01*
X90684523Y-81985238D02*
X90589285Y-81890000D01*
X90589285Y-81890000D02*
X90446428Y-81747142D01*
X90446428Y-81747142D02*
X90351190Y-81699523D01*
X90351190Y-81699523D02*
X90255952Y-81699523D01*
X90303571Y-81937619D02*
X90208333Y-81890000D01*
X90208333Y-81890000D02*
X90113095Y-81794761D01*
X90113095Y-81794761D02*
X90065476Y-81604285D01*
X90065476Y-81604285D02*
X90065476Y-81270952D01*
X90065476Y-81270952D02*
X90113095Y-81080476D01*
X90113095Y-81080476D02*
X90208333Y-80985238D01*
X90208333Y-80985238D02*
X90303571Y-80937619D01*
X90303571Y-80937619D02*
X90494047Y-80937619D01*
X90494047Y-80937619D02*
X90589285Y-80985238D01*
X90589285Y-80985238D02*
X90684523Y-81080476D01*
X90684523Y-81080476D02*
X90732142Y-81270952D01*
X90732142Y-81270952D02*
X90732142Y-81604285D01*
X90732142Y-81604285D02*
X90684523Y-81794761D01*
X90684523Y-81794761D02*
X90589285Y-81890000D01*
X90589285Y-81890000D02*
X90494047Y-81937619D01*
X90494047Y-81937619D02*
X90303571Y-81937619D01*
X91684523Y-81937619D02*
X91113095Y-81937619D01*
X91398809Y-81937619D02*
X91398809Y-80937619D01*
X91398809Y-80937619D02*
X91303571Y-81080476D01*
X91303571Y-81080476D02*
X91208333Y-81175714D01*
X91208333Y-81175714D02*
X91113095Y-81223333D01*
%TO.C,J4*%
X118466666Y-52862619D02*
X118466666Y-53576904D01*
X118466666Y-53576904D02*
X118419047Y-53719761D01*
X118419047Y-53719761D02*
X118323809Y-53815000D01*
X118323809Y-53815000D02*
X118180952Y-53862619D01*
X118180952Y-53862619D02*
X118085714Y-53862619D01*
X119371428Y-53195952D02*
X119371428Y-53862619D01*
X119133333Y-52815000D02*
X118895238Y-53529285D01*
X118895238Y-53529285D02*
X119514285Y-53529285D01*
%TO.C,C2*%
X129033333Y-58667380D02*
X128985714Y-58715000D01*
X128985714Y-58715000D02*
X128842857Y-58762619D01*
X128842857Y-58762619D02*
X128747619Y-58762619D01*
X128747619Y-58762619D02*
X128604762Y-58715000D01*
X128604762Y-58715000D02*
X128509524Y-58619761D01*
X128509524Y-58619761D02*
X128461905Y-58524523D01*
X128461905Y-58524523D02*
X128414286Y-58334047D01*
X128414286Y-58334047D02*
X128414286Y-58191190D01*
X128414286Y-58191190D02*
X128461905Y-58000714D01*
X128461905Y-58000714D02*
X128509524Y-57905476D01*
X128509524Y-57905476D02*
X128604762Y-57810238D01*
X128604762Y-57810238D02*
X128747619Y-57762619D01*
X128747619Y-57762619D02*
X128842857Y-57762619D01*
X128842857Y-57762619D02*
X128985714Y-57810238D01*
X128985714Y-57810238D02*
X129033333Y-57857857D01*
X129414286Y-57857857D02*
X129461905Y-57810238D01*
X129461905Y-57810238D02*
X129557143Y-57762619D01*
X129557143Y-57762619D02*
X129795238Y-57762619D01*
X129795238Y-57762619D02*
X129890476Y-57810238D01*
X129890476Y-57810238D02*
X129938095Y-57857857D01*
X129938095Y-57857857D02*
X129985714Y-57953095D01*
X129985714Y-57953095D02*
X129985714Y-58048333D01*
X129985714Y-58048333D02*
X129938095Y-58191190D01*
X129938095Y-58191190D02*
X129366667Y-58762619D01*
X129366667Y-58762619D02*
X129985714Y-58762619D01*
%TO.C,D4*%
X98421905Y-90887619D02*
X98421905Y-89887619D01*
X98421905Y-89887619D02*
X98660000Y-89887619D01*
X98660000Y-89887619D02*
X98802857Y-89935238D01*
X98802857Y-89935238D02*
X98898095Y-90030476D01*
X98898095Y-90030476D02*
X98945714Y-90125714D01*
X98945714Y-90125714D02*
X98993333Y-90316190D01*
X98993333Y-90316190D02*
X98993333Y-90459047D01*
X98993333Y-90459047D02*
X98945714Y-90649523D01*
X98945714Y-90649523D02*
X98898095Y-90744761D01*
X98898095Y-90744761D02*
X98802857Y-90840000D01*
X98802857Y-90840000D02*
X98660000Y-90887619D01*
X98660000Y-90887619D02*
X98421905Y-90887619D01*
X99850476Y-90220952D02*
X99850476Y-90887619D01*
X99612381Y-89840000D02*
X99374286Y-90554285D01*
X99374286Y-90554285D02*
X99993333Y-90554285D01*
%TO.C,C1*%
X136967380Y-56866666D02*
X137015000Y-56914285D01*
X137015000Y-56914285D02*
X137062619Y-57057142D01*
X137062619Y-57057142D02*
X137062619Y-57152380D01*
X137062619Y-57152380D02*
X137015000Y-57295237D01*
X137015000Y-57295237D02*
X136919761Y-57390475D01*
X136919761Y-57390475D02*
X136824523Y-57438094D01*
X136824523Y-57438094D02*
X136634047Y-57485713D01*
X136634047Y-57485713D02*
X136491190Y-57485713D01*
X136491190Y-57485713D02*
X136300714Y-57438094D01*
X136300714Y-57438094D02*
X136205476Y-57390475D01*
X136205476Y-57390475D02*
X136110238Y-57295237D01*
X136110238Y-57295237D02*
X136062619Y-57152380D01*
X136062619Y-57152380D02*
X136062619Y-57057142D01*
X136062619Y-57057142D02*
X136110238Y-56914285D01*
X136110238Y-56914285D02*
X136157857Y-56866666D01*
X137062619Y-55914285D02*
X137062619Y-56485713D01*
X137062619Y-56199999D02*
X136062619Y-56199999D01*
X136062619Y-56199999D02*
X136205476Y-56295237D01*
X136205476Y-56295237D02*
X136300714Y-56390475D01*
X136300714Y-56390475D02*
X136348333Y-56485713D01*
%TO.C,D3*%
X100012619Y-85938094D02*
X99012619Y-85938094D01*
X99012619Y-85938094D02*
X99012619Y-85699999D01*
X99012619Y-85699999D02*
X99060238Y-85557142D01*
X99060238Y-85557142D02*
X99155476Y-85461904D01*
X99155476Y-85461904D02*
X99250714Y-85414285D01*
X99250714Y-85414285D02*
X99441190Y-85366666D01*
X99441190Y-85366666D02*
X99584047Y-85366666D01*
X99584047Y-85366666D02*
X99774523Y-85414285D01*
X99774523Y-85414285D02*
X99869761Y-85461904D01*
X99869761Y-85461904D02*
X99965000Y-85557142D01*
X99965000Y-85557142D02*
X100012619Y-85699999D01*
X100012619Y-85699999D02*
X100012619Y-85938094D01*
X99012619Y-85033332D02*
X99012619Y-84414285D01*
X99012619Y-84414285D02*
X99393571Y-84747618D01*
X99393571Y-84747618D02*
X99393571Y-84604761D01*
X99393571Y-84604761D02*
X99441190Y-84509523D01*
X99441190Y-84509523D02*
X99488809Y-84461904D01*
X99488809Y-84461904D02*
X99584047Y-84414285D01*
X99584047Y-84414285D02*
X99822142Y-84414285D01*
X99822142Y-84414285D02*
X99917380Y-84461904D01*
X99917380Y-84461904D02*
X99965000Y-84509523D01*
X99965000Y-84509523D02*
X100012619Y-84604761D01*
X100012619Y-84604761D02*
X100012619Y-84890475D01*
X100012619Y-84890475D02*
X99965000Y-84985713D01*
X99965000Y-84985713D02*
X99917380Y-85033332D01*
%TO.C,R13*%
X131563833Y-79720000D02*
X131230500Y-79953333D01*
X131563833Y-80120000D02*
X130863833Y-80120000D01*
X130863833Y-80120000D02*
X130863833Y-79853333D01*
X130863833Y-79853333D02*
X130897166Y-79786667D01*
X130897166Y-79786667D02*
X130930500Y-79753333D01*
X130930500Y-79753333D02*
X130997166Y-79720000D01*
X130997166Y-79720000D02*
X131097166Y-79720000D01*
X131097166Y-79720000D02*
X131163833Y-79753333D01*
X131163833Y-79753333D02*
X131197166Y-79786667D01*
X131197166Y-79786667D02*
X131230500Y-79853333D01*
X131230500Y-79853333D02*
X131230500Y-80120000D01*
X131563833Y-79053333D02*
X131563833Y-79453333D01*
X131563833Y-79253333D02*
X130863833Y-79253333D01*
X130863833Y-79253333D02*
X130963833Y-79320000D01*
X130963833Y-79320000D02*
X131030500Y-79386667D01*
X131030500Y-79386667D02*
X131063833Y-79453333D01*
X130863833Y-78820000D02*
X130863833Y-78386666D01*
X130863833Y-78386666D02*
X131130500Y-78620000D01*
X131130500Y-78620000D02*
X131130500Y-78520000D01*
X131130500Y-78520000D02*
X131163833Y-78453333D01*
X131163833Y-78453333D02*
X131197166Y-78420000D01*
X131197166Y-78420000D02*
X131263833Y-78386666D01*
X131263833Y-78386666D02*
X131430500Y-78386666D01*
X131430500Y-78386666D02*
X131497166Y-78420000D01*
X131497166Y-78420000D02*
X131530500Y-78453333D01*
X131530500Y-78453333D02*
X131563833Y-78520000D01*
X131563833Y-78520000D02*
X131563833Y-78720000D01*
X131563833Y-78720000D02*
X131530500Y-78786666D01*
X131530500Y-78786666D02*
X131497166Y-78820000D01*
%TO.C,R12*%
X124949999Y-82503833D02*
X124716666Y-82170500D01*
X124549999Y-82503833D02*
X124549999Y-81803833D01*
X124549999Y-81803833D02*
X124816666Y-81803833D01*
X124816666Y-81803833D02*
X124883333Y-81837166D01*
X124883333Y-81837166D02*
X124916666Y-81870500D01*
X124916666Y-81870500D02*
X124949999Y-81937166D01*
X124949999Y-81937166D02*
X124949999Y-82037166D01*
X124949999Y-82037166D02*
X124916666Y-82103833D01*
X124916666Y-82103833D02*
X124883333Y-82137166D01*
X124883333Y-82137166D02*
X124816666Y-82170500D01*
X124816666Y-82170500D02*
X124549999Y-82170500D01*
X125616666Y-82503833D02*
X125216666Y-82503833D01*
X125416666Y-82503833D02*
X125416666Y-81803833D01*
X125416666Y-81803833D02*
X125349999Y-81903833D01*
X125349999Y-81903833D02*
X125283333Y-81970500D01*
X125283333Y-81970500D02*
X125216666Y-82003833D01*
X125883333Y-81870500D02*
X125916666Y-81837166D01*
X125916666Y-81837166D02*
X125983333Y-81803833D01*
X125983333Y-81803833D02*
X126150000Y-81803833D01*
X126150000Y-81803833D02*
X126216666Y-81837166D01*
X126216666Y-81837166D02*
X126250000Y-81870500D01*
X126250000Y-81870500D02*
X126283333Y-81937166D01*
X126283333Y-81937166D02*
X126283333Y-82003833D01*
X126283333Y-82003833D02*
X126250000Y-82103833D01*
X126250000Y-82103833D02*
X125850000Y-82503833D01*
X125850000Y-82503833D02*
X126283333Y-82503833D01*
%TO.C,C4*%
X130793333Y-81417166D02*
X130760000Y-81450500D01*
X130760000Y-81450500D02*
X130660000Y-81483833D01*
X130660000Y-81483833D02*
X130593333Y-81483833D01*
X130593333Y-81483833D02*
X130493333Y-81450500D01*
X130493333Y-81450500D02*
X130426667Y-81383833D01*
X130426667Y-81383833D02*
X130393333Y-81317166D01*
X130393333Y-81317166D02*
X130360000Y-81183833D01*
X130360000Y-81183833D02*
X130360000Y-81083833D01*
X130360000Y-81083833D02*
X130393333Y-80950500D01*
X130393333Y-80950500D02*
X130426667Y-80883833D01*
X130426667Y-80883833D02*
X130493333Y-80817166D01*
X130493333Y-80817166D02*
X130593333Y-80783833D01*
X130593333Y-80783833D02*
X130660000Y-80783833D01*
X130660000Y-80783833D02*
X130760000Y-80817166D01*
X130760000Y-80817166D02*
X130793333Y-80850500D01*
X131393333Y-81017166D02*
X131393333Y-81483833D01*
X131226667Y-80750500D02*
X131060000Y-81250500D01*
X131060000Y-81250500D02*
X131493333Y-81250500D01*
%TO.C,U3*%
X132962619Y-65761904D02*
X133772142Y-65761904D01*
X133772142Y-65761904D02*
X133867380Y-65714285D01*
X133867380Y-65714285D02*
X133915000Y-65666666D01*
X133915000Y-65666666D02*
X133962619Y-65571428D01*
X133962619Y-65571428D02*
X133962619Y-65380952D01*
X133962619Y-65380952D02*
X133915000Y-65285714D01*
X133915000Y-65285714D02*
X133867380Y-65238095D01*
X133867380Y-65238095D02*
X133772142Y-65190476D01*
X133772142Y-65190476D02*
X132962619Y-65190476D01*
X132962619Y-64809523D02*
X132962619Y-64190476D01*
X132962619Y-64190476D02*
X133343571Y-64523809D01*
X133343571Y-64523809D02*
X133343571Y-64380952D01*
X133343571Y-64380952D02*
X133391190Y-64285714D01*
X133391190Y-64285714D02*
X133438809Y-64238095D01*
X133438809Y-64238095D02*
X133534047Y-64190476D01*
X133534047Y-64190476D02*
X133772142Y-64190476D01*
X133772142Y-64190476D02*
X133867380Y-64238095D01*
X133867380Y-64238095D02*
X133915000Y-64285714D01*
X133915000Y-64285714D02*
X133962619Y-64380952D01*
X133962619Y-64380952D02*
X133962619Y-64666666D01*
X133962619Y-64666666D02*
X133915000Y-64761904D01*
X133915000Y-64761904D02*
X133867380Y-64809523D01*
%TO.C,D1*%
X122883333Y-82343833D02*
X122883333Y-81643833D01*
X122883333Y-81643833D02*
X123050000Y-81643833D01*
X123050000Y-81643833D02*
X123150000Y-81677166D01*
X123150000Y-81677166D02*
X123216667Y-81743833D01*
X123216667Y-81743833D02*
X123250000Y-81810500D01*
X123250000Y-81810500D02*
X123283333Y-81943833D01*
X123283333Y-81943833D02*
X123283333Y-82043833D01*
X123283333Y-82043833D02*
X123250000Y-82177166D01*
X123250000Y-82177166D02*
X123216667Y-82243833D01*
X123216667Y-82243833D02*
X123150000Y-82310500D01*
X123150000Y-82310500D02*
X123050000Y-82343833D01*
X123050000Y-82343833D02*
X122883333Y-82343833D01*
X123950000Y-82343833D02*
X123550000Y-82343833D01*
X123750000Y-82343833D02*
X123750000Y-81643833D01*
X123750000Y-81643833D02*
X123683333Y-81743833D01*
X123683333Y-81743833D02*
X123616667Y-81810500D01*
X123616667Y-81810500D02*
X123550000Y-81843833D01*
%TO.C,J5*%
X96362619Y-61908333D02*
X97076904Y-61908333D01*
X97076904Y-61908333D02*
X97219761Y-61955952D01*
X97219761Y-61955952D02*
X97315000Y-62051190D01*
X97315000Y-62051190D02*
X97362619Y-62194047D01*
X97362619Y-62194047D02*
X97362619Y-62289285D01*
X96362619Y-60955952D02*
X96362619Y-61432142D01*
X96362619Y-61432142D02*
X96838809Y-61479761D01*
X96838809Y-61479761D02*
X96791190Y-61432142D01*
X96791190Y-61432142D02*
X96743571Y-61336904D01*
X96743571Y-61336904D02*
X96743571Y-61098809D01*
X96743571Y-61098809D02*
X96791190Y-61003571D01*
X96791190Y-61003571D02*
X96838809Y-60955952D01*
X96838809Y-60955952D02*
X96934047Y-60908333D01*
X96934047Y-60908333D02*
X97172142Y-60908333D01*
X97172142Y-60908333D02*
X97267380Y-60955952D01*
X97267380Y-60955952D02*
X97315000Y-61003571D01*
X97315000Y-61003571D02*
X97362619Y-61098809D01*
X97362619Y-61098809D02*
X97362619Y-61336904D01*
X97362619Y-61336904D02*
X97315000Y-61432142D01*
X97315000Y-61432142D02*
X97267380Y-61479761D01*
D11*
%TO.C,R8*%
X128847224Y-81112500D02*
X128337776Y-81112500D01*
X128847224Y-80067500D02*
X128337776Y-80067500D01*
%TO.C,R2*%
X125622500Y-60145276D02*
X125622500Y-60654724D01*
X124577500Y-60145276D02*
X124577500Y-60654724D01*
%TO.C,R3*%
X127522500Y-63645276D02*
X127522500Y-64154724D01*
X126477500Y-63645276D02*
X126477500Y-64154724D01*
%TO.C,C3*%
X99436252Y-65910000D02*
X98013748Y-65910000D01*
X99436252Y-64090000D02*
X98013748Y-64090000D01*
%TO.C,U2*%
X134400000Y-63950000D02*
X139400000Y-63950000D01*
X139400000Y-63950000D02*
X139400000Y-69950000D01*
X139400000Y-69950000D02*
X134400000Y-69950000D01*
X134400000Y-69950000D02*
X134400000Y-63950000D01*
X136000000Y-69050000D02*
G75*
G03*
X136000000Y-69050000I-500000J0D01*
G01*
%TO.C,R7*%
X128837224Y-78592500D02*
X128327776Y-78592500D01*
X128837224Y-77547500D02*
X128327776Y-77547500D01*
%TO.C,J1*%
X121905000Y-83405000D02*
X120575000Y-83405000D01*
X121905000Y-82075000D02*
X121905000Y-83405000D01*
X121905000Y-80805000D02*
X121905000Y-68045000D01*
X121905000Y-80805000D02*
X119245000Y-80805000D01*
X121905000Y-68045000D02*
X119245000Y-68045000D01*
X119245000Y-80805000D02*
X119245000Y-68045000D01*
%TO.C,D5*%
X93425000Y-60790000D02*
X90125000Y-60790000D01*
X93425000Y-60790000D02*
X93425000Y-66300000D01*
X90125000Y-60790000D02*
X90125000Y-66300000D01*
%TO.C,R6*%
X129377500Y-74704724D02*
X129377500Y-74195276D01*
X130422500Y-74704724D02*
X130422500Y-74195276D01*
%TO.C,R5*%
X131327500Y-74679724D02*
X131327500Y-74170276D01*
X132372500Y-74679724D02*
X132372500Y-74170276D01*
%TO.C,R10*%
X132777500Y-59754724D02*
X132777500Y-59245276D01*
X133822500Y-59754724D02*
X133822500Y-59245276D01*
%TO.C,S2*%
X118250000Y-64850000D02*
X120750000Y-64850000D01*
X120750000Y-64850000D02*
X120750000Y-60750000D01*
X120750000Y-60750000D02*
X118250000Y-60750000D01*
X118250000Y-60750000D02*
X118250000Y-64850000D01*
%TO.C,R9*%
X137877500Y-59754724D02*
X137877500Y-59245276D01*
X138922500Y-59754724D02*
X138922500Y-59245276D01*
%TO.C,D2*%
X122780000Y-79630000D02*
X122780000Y-81550000D01*
X122780000Y-81550000D02*
X125640000Y-81550000D01*
X125640000Y-79630000D02*
X122780000Y-79630000D01*
%TO.C,S1*%
X112250000Y-64850000D02*
X114750000Y-64850000D01*
X114750000Y-64850000D02*
X114750000Y-60750000D01*
X114750000Y-60750000D02*
X112250000Y-60750000D01*
X112250000Y-60750000D02*
X112250000Y-64850000D01*
%TO.C,R11*%
X91377500Y-93354724D02*
X91377500Y-92845276D01*
X92422500Y-93354724D02*
X92422500Y-92845276D01*
%TO.C,J2*%
X140175000Y-73075000D02*
X138925000Y-73075000D01*
X139885000Y-73365000D02*
X133915000Y-73365000D01*
X133915000Y-73365000D02*
X133915000Y-83485000D01*
X139875000Y-73375000D02*
X139125000Y-73375000D01*
X139125000Y-73375000D02*
X139125000Y-75175000D01*
X137625000Y-73375000D02*
X137625000Y-74125000D01*
X137625000Y-74125000D02*
X134675000Y-74125000D01*
X134675000Y-74125000D02*
X134675000Y-78425000D01*
X140175000Y-74325000D02*
X140175000Y-73075000D01*
X139875000Y-75175000D02*
X139875000Y-73375000D01*
X139125000Y-75175000D02*
X139875000Y-75175000D01*
X139875000Y-76675000D02*
X139125000Y-76675000D01*
X139125000Y-76675000D02*
X139125000Y-80175000D01*
X139875000Y-80175000D02*
X139875000Y-76675000D01*
X139125000Y-80175000D02*
X139875000Y-80175000D01*
X139875000Y-81675000D02*
X139125000Y-81675000D01*
X139125000Y-81675000D02*
X139125000Y-83475000D01*
X137625000Y-82725000D02*
X134675000Y-82725000D01*
X134675000Y-82725000D02*
X134675000Y-78425000D01*
X139875000Y-83475000D02*
X139875000Y-81675000D01*
X139125000Y-83475000D02*
X139875000Y-83475000D01*
X137625000Y-83475000D02*
X137625000Y-82725000D01*
X139885000Y-83485000D02*
X139885000Y-73365000D01*
X133915000Y-83485000D02*
X139885000Y-83485000D01*
%TO.C,U5*%
X138500000Y-104500000D02*
X138500000Y-98000000D01*
X138500000Y-104500000D02*
X120500000Y-104500000D01*
X138500000Y-84500000D02*
X138500000Y-84750000D01*
X120500000Y-104500000D02*
X120500000Y-98000000D01*
X120500000Y-98500000D02*
X138450000Y-98500000D01*
X120500000Y-84750000D02*
X120500000Y-84500000D01*
X120500000Y-84500000D02*
X138500000Y-84500000D01*
%TO.C,L1*%
X90725000Y-59700000D02*
X92225000Y-59700000D01*
X97525000Y-59700000D02*
X96025000Y-59700000D01*
X97525000Y-59700000D02*
X97525000Y-52300000D01*
X90725000Y-52300000D02*
X90725000Y-59700000D01*
X90725000Y-52300000D02*
X92225000Y-52300000D01*
X97525000Y-52300000D02*
X96025000Y-52300000D01*
%TO.C,R4*%
X125622500Y-63645276D02*
X125622500Y-64154724D01*
X124577500Y-63645276D02*
X124577500Y-64154724D01*
%TO.C,U4*%
X100750000Y-79625000D02*
X100750000Y-78675000D01*
X100750000Y-78675000D02*
X105875000Y-78675000D01*
X100750000Y-70175000D02*
X101850000Y-70175000D01*
X100750000Y-69225000D02*
X100750000Y-70175000D01*
X99250000Y-79625000D02*
X100750000Y-79625000D01*
X99250000Y-69225000D02*
X100750000Y-69225000D01*
%TO.C,R1*%
X127522500Y-60145276D02*
X127522500Y-60654724D01*
X126477500Y-60145276D02*
X126477500Y-60654724D01*
%TO.C,Q1*%
X90850000Y-82200000D02*
X90850000Y-88500000D01*
X92350000Y-82200000D02*
X90850000Y-82200000D01*
X98150000Y-82200000D02*
X96650000Y-82200000D01*
X98150000Y-82200000D02*
X98150000Y-88500000D01*
%TO.C,J4*%
X118490000Y-57330000D02*
X118490000Y-56000000D01*
X119820000Y-57330000D02*
X118490000Y-57330000D01*
X121090000Y-57330000D02*
X126230000Y-57330000D01*
X121090000Y-57330000D02*
X121090000Y-54670000D01*
X126230000Y-57330000D02*
X126230000Y-54670000D01*
X121090000Y-54670000D02*
X126230000Y-54670000D01*
%TO.C,C2*%
X131735000Y-59201248D02*
X131735000Y-59723752D01*
X130265000Y-59201248D02*
X130265000Y-59723752D01*
%TO.C,D4*%
X102045000Y-92300000D02*
X101395000Y-92300000D01*
X101395000Y-93420000D02*
X101395000Y-91180000D01*
X101395000Y-91180000D02*
X97155000Y-91180000D01*
X100795000Y-93420000D02*
X100795000Y-91180000D01*
X100675000Y-93420000D02*
X100675000Y-91180000D01*
X100555000Y-93420000D02*
X100555000Y-91180000D01*
X97155000Y-93420000D02*
X101395000Y-93420000D01*
X97155000Y-91180000D02*
X97155000Y-93420000D01*
X96505000Y-92300000D02*
X97155000Y-92300000D01*
%TO.C,C1*%
X136835000Y-59238748D02*
X136835000Y-59761252D01*
X135365000Y-59238748D02*
X135365000Y-59761252D01*
%TO.C,D3*%
X105825000Y-88375000D02*
X104825000Y-88375000D01*
X100325000Y-88325000D02*
X100325000Y-81325000D01*
X101325000Y-88325000D02*
X100325000Y-88325000D01*
X104825000Y-81375000D02*
X105825000Y-81375000D01*
X105825000Y-81375000D02*
X105825000Y-88375000D01*
X100325000Y-81325000D02*
X101325000Y-81325000D01*
%TO.C,R13*%
X131897500Y-79504724D02*
X131897500Y-78995276D01*
X132942500Y-79504724D02*
X132942500Y-78995276D01*
%TO.C,R12*%
X124335276Y-82817500D02*
X124844724Y-82817500D01*
X124335276Y-83862500D02*
X124844724Y-83862500D01*
%TO.C,C4*%
X131511252Y-83620000D02*
X130088748Y-83620000D01*
X131511252Y-81800000D02*
X130088748Y-81800000D01*
%TO.C,U3*%
X129200000Y-63950000D02*
X134200000Y-63950000D01*
X134200000Y-63950000D02*
X134200000Y-69950000D01*
X134200000Y-69950000D02*
X129200000Y-69950000D01*
X129200000Y-69950000D02*
X129200000Y-63950000D01*
X130800000Y-69050000D02*
G75*
G03*
X130800000Y-69050000I-500000J0D01*
G01*
%TO.C,D1*%
X122762500Y-77120000D02*
X122762500Y-79040000D01*
X122762500Y-79040000D02*
X125622500Y-79040000D01*
X125622500Y-77120000D02*
X122762500Y-77120000D01*
%TO.C,J5*%
X104400000Y-52050000D02*
X103150000Y-52050000D01*
X104110000Y-52340000D02*
X98140000Y-52340000D01*
X98140000Y-52340000D02*
X98140000Y-62460000D01*
X104100000Y-52350000D02*
X103350000Y-52350000D01*
X103350000Y-52350000D02*
X103350000Y-54150000D01*
X101850000Y-52350000D02*
X101850000Y-53100000D01*
X101850000Y-53100000D02*
X98900000Y-53100000D01*
X98900000Y-53100000D02*
X98900000Y-57400000D01*
X104400000Y-53300000D02*
X104400000Y-52050000D01*
X104100000Y-54150000D02*
X104100000Y-52350000D01*
X103350000Y-54150000D02*
X104100000Y-54150000D01*
X104100000Y-55650000D02*
X103350000Y-55650000D01*
X103350000Y-55650000D02*
X103350000Y-59150000D01*
X104100000Y-59150000D02*
X104100000Y-55650000D01*
X103350000Y-59150000D02*
X104100000Y-59150000D01*
X104100000Y-60650000D02*
X103350000Y-60650000D01*
X103350000Y-60650000D02*
X103350000Y-62450000D01*
X101850000Y-61700000D02*
X98900000Y-61700000D01*
X98900000Y-61700000D02*
X98900000Y-57400000D01*
X104100000Y-62450000D02*
X104100000Y-60650000D01*
X103350000Y-62450000D02*
X104100000Y-62450000D01*
X101850000Y-62450000D02*
X101850000Y-61700000D01*
X104110000Y-62460000D02*
X104110000Y-52340000D01*
X98140000Y-62460000D02*
X104110000Y-62460000D01*
%TD*%
M02*
