M48
; DRILL file {KiCad 7.0.2} date Tue Oct  3 11:26:11 2023
; FORMAT={-:-/ absolute / inch / decimal}
; #@! TF.CreationDate,2023-10-03T11:26:11+02:00
; #@! TF.GenerationSoftware,Kicad,Pcbnew,7.0.2
; #@! TF.FileFunction,Plated,1,2,PTH
FMAT,2
INCH
; #@! TA.AperFunction,Plated,PTH,ViaDrill
T1C0.0157
; #@! TA.AperFunction,Plated,PTH,ComponentDrill
T2C0.0315
; #@! TA.AperFunction,Plated,PTH,ComponentDrill
T3C0.0374
; #@! TA.AperFunction,Plated,PTH,ComponentDrill
T4C0.0394
%
G90
G05
T1
X3.626Y-2.7756
X3.626Y-2.8622
X3.626Y-2.9921
X3.626Y-3.0748
X3.7205Y-3.3661
X3.8189Y-3.4055
X3.8484Y-2.4518
X4.0787Y-2.7362
X4.4675Y-2.5827
X4.7047Y-2.5817
X4.8189Y-3.3461
X4.8533Y-3.3878
X4.8701Y-2.6417
X4.8848Y-3.4498
X4.9598Y-3.3921
X5.062Y-3.4429
X5.063Y-3.7205
X5.0906Y-2.3386
X5.1014Y-3.4961
X5.1339Y-2.5433
X5.1506Y-2.8602
X5.2272Y-3.1972
X5.2431Y-3.7835
X5.2701Y-3.2947
X5.2701Y-3.6567
X5.3091Y-3.2179
X5.3396Y-2.8642
X5.3681Y-3.377
X5.3811Y-3.6571
X5.3815Y-3.5949
X5.3827Y-3.5339
X5.3848Y-3.7835
X5.4419Y-3.3071
T2
X3.7585Y-3.6339
X4.0585Y-3.6339
T3
X4.002Y-2.1614
X4.002Y-2.2598
X4.002Y-2.3583
X5.4104Y-2.9892
X5.4104Y-3.0876
X5.4104Y-3.186
T4
X3.7283Y-3.8386
X3.8283Y-3.8386
X3.9283Y-3.8386
X4.0283Y-3.8386
X4.7173Y-2.2047
X4.747Y-2.7313
X4.747Y-2.8313
X4.747Y-2.9313
X4.747Y-3.0313
X4.747Y-3.1313
X4.747Y-3.2313
X4.8173Y-2.2047
X4.9173Y-2.2047
X5.0913Y-2.2047
X5.1913Y-2.2047
X5.2913Y-2.2047
T0
M30
