%TF.GenerationSoftware,KiCad,Pcbnew,9.0.1*%
%TF.CreationDate,2025-09-06T18:12:35+02:00*%
%TF.ProjectId,SommerESP,536f6d6d-6572-4455-9350-2e6b69636164,2.0*%
%TF.SameCoordinates,Original*%
%TF.FileFunction,Paste,Top*%
%TF.FilePolarity,Positive*%
%FSLAX46Y46*%
G04 Gerber Fmt 4.6, Leading zero omitted, Abs format (unit mm)*
G04 Created by KiCad (PCBNEW 9.0.1) date 2025-09-06 18:12:35*
%MOMM*%
%LPD*%
G01*
G04 APERTURE LIST*
G04 Aperture macros list*
%AMRoundRect*
0 Rectangle with rounded corners*
0 $1 Rounding radius*
0 $2 $3 $4 $5 $6 $7 $8 $9 X,Y pos of 4 corners*
0 Add a 4 corners polygon primitive as box body*
4,1,4,$2,$3,$4,$5,$6,$7,$8,$9,$2,$3,0*
0 Add four circle primitives for the rounded corners*
1,1,$1+$1,$2,$3*
1,1,$1+$1,$4,$5*
1,1,$1+$1,$6,$7*
1,1,$1+$1,$8,$9*
0 Add four rect primitives between the rounded corners*
20,1,$1+$1,$2,$3,$4,$5,0*
20,1,$1+$1,$4,$5,$6,$7,0*
20,1,$1+$1,$6,$7,$8,$9,0*
20,1,$1+$1,$8,$9,$2,$3,0*%
G04 Aperture macros list end*
%ADD10RoundRect,0.237500X0.250000X0.237500X-0.250000X0.237500X-0.250000X-0.237500X0.250000X-0.237500X0*%
%ADD11RoundRect,0.237500X-0.237500X0.250000X-0.237500X-0.250000X0.237500X-0.250000X0.237500X0.250000X0*%
%ADD12RoundRect,0.250000X0.412500X0.650000X-0.412500X0.650000X-0.412500X-0.650000X0.412500X-0.650000X0*%
%ADD13RoundRect,0.250000X-0.650000X1.000000X-0.650000X-1.000000X0.650000X-1.000000X0.650000X1.000000X0*%
%ADD14RoundRect,0.250000X0.250000X-0.650000X0.250000X0.650000X-0.250000X0.650000X-0.250000X-0.650000X0*%
%ADD15RoundRect,0.250000X-0.325000X-0.450000X0.325000X-0.450000X0.325000X0.450000X-0.325000X0.450000X0*%
%ADD16RoundRect,0.237500X0.237500X-0.250000X0.237500X0.250000X-0.237500X0.250000X-0.237500X-0.250000X0*%
%ADD17R,1.500000X0.900000*%
%ADD18R,0.700000X0.700000*%
%ADD19RoundRect,0.235000X1.465000X-0.940000X1.465000X0.940000X-1.465000X0.940000X-1.465000X-0.940000X0*%
%ADD20R,4.550000X5.250000*%
%ADD21R,4.600000X1.100000*%
%ADD22R,1.400000X1.700000*%
%ADD23R,4.000000X1.800000*%
%ADD24RoundRect,0.100000X0.225000X0.100000X-0.225000X0.100000X-0.225000X-0.100000X0.225000X-0.100000X0*%
%ADD25RoundRect,0.225000X0.225000X0.375000X-0.225000X0.375000X-0.225000X-0.375000X0.225000X-0.375000X0*%
%ADD26RoundRect,0.700000X0.950000X-0.700000X0.950000X0.700000X-0.950000X0.700000X-0.950000X-0.700000X0*%
%ADD27RoundRect,0.250000X-0.475000X0.337500X-0.475000X-0.337500X0.475000X-0.337500X0.475000X0.337500X0*%
G04 APERTURE END LIST*
D10*
%TO.C,R8*%
X122662500Y-73100000D03*
X120837500Y-73100000D03*
%TD*%
D11*
%TO.C,R2*%
X119350000Y-62875000D03*
X119350000Y-64700000D03*
%TD*%
%TO.C,R3*%
X121250000Y-66375000D03*
X121250000Y-68200000D03*
%TD*%
D12*
%TO.C,C3*%
X100287500Y-65000000D03*
X97162500Y-65000000D03*
%TD*%
D10*
%TO.C,R7*%
X122662500Y-71375000D03*
X120837500Y-71375000D03*
%TD*%
D13*
%TO.C,D5*%
X91775000Y-62300000D03*
X91775000Y-66300000D03*
%TD*%
D14*
%TO.C,S2*%
X115900000Y-59400000D03*
X112600000Y-59400000D03*
%TD*%
D15*
%TO.C,D2*%
X117025000Y-73300000D03*
X119075000Y-73300000D03*
%TD*%
D14*
%TO.C,S1*%
X115900000Y-54800000D03*
X112600000Y-54800000D03*
%TD*%
D16*
%TO.C,R11*%
X91900000Y-94012500D03*
X91900000Y-92187500D03*
%TD*%
D17*
%TO.C,U5*%
X129250000Y-92250000D03*
X129250000Y-90750000D03*
X129250000Y-89250000D03*
X129250000Y-87750000D03*
X129250000Y-86250000D03*
X129250000Y-84750000D03*
X129250000Y-83250000D03*
X129250000Y-81750000D03*
X129250000Y-80250000D03*
X111750000Y-80250000D03*
X111750000Y-81750000D03*
X111750000Y-83250000D03*
X111750000Y-84750000D03*
X111750000Y-86250000D03*
X111750000Y-87750000D03*
X111750000Y-89250000D03*
X111750000Y-90750000D03*
X111750000Y-92250000D03*
D18*
X120640000Y-87150000D03*
X120640000Y-86050000D03*
X120640000Y-84950000D03*
X119590000Y-87150000D03*
X119590000Y-86050000D03*
X119590000Y-84950000D03*
X118440000Y-87150000D03*
X118440000Y-86050000D03*
X118440000Y-84950000D03*
%TD*%
D19*
%TO.C,L1*%
X94125000Y-59025000D03*
X94125000Y-52975000D03*
%TD*%
D11*
%TO.C,R4*%
X119350000Y-66375000D03*
X119350000Y-68200000D03*
%TD*%
D20*
%TO.C,U4*%
X96850000Y-77200000D03*
X96850000Y-71650000D03*
X92000000Y-77200000D03*
X92000000Y-71650000D03*
D21*
X103575000Y-77825000D03*
X103575000Y-76125000D03*
X103575000Y-74425000D03*
X103575000Y-72725000D03*
X103575000Y-71025000D03*
%TD*%
D11*
%TO.C,R1*%
X121250000Y-62875000D03*
X121250000Y-64700000D03*
%TD*%
D22*
%TO.C,Q1*%
X92000000Y-88600000D03*
X94500000Y-88600000D03*
X97000000Y-88600000D03*
D23*
X94500000Y-82200000D03*
%TD*%
D24*
%TO.C,Q2*%
X127450000Y-64300000D03*
X127450000Y-63650000D03*
X127450000Y-63000000D03*
X125550000Y-63000000D03*
X125550000Y-63650000D03*
X125550000Y-64300000D03*
%TD*%
D25*
%TO.C,D4*%
X101850000Y-92400000D03*
X98550000Y-92400000D03*
%TD*%
D26*
%TO.C,D3*%
X103075000Y-88325000D03*
X103125000Y-81325000D03*
%TD*%
D10*
%TO.C,R13*%
X125912500Y-66950000D03*
X124087500Y-66950000D03*
%TD*%
D16*
%TO.C,R12*%
X117700000Y-77737500D03*
X117700000Y-75912500D03*
%TD*%
D27*
%TO.C,C1*%
X123000000Y-75787500D03*
X123000000Y-77862500D03*
%TD*%
%TO.C,C2*%
X120200000Y-75800000D03*
X120200000Y-77875000D03*
%TD*%
D15*
%TO.C,D1*%
X117025000Y-71150000D03*
X119075000Y-71150000D03*
%TD*%
M02*
