M48
; DRILL file {KiCad 9.0.1} date 2025-09-06T18:12:43+0200
; FORMAT={-:-/ absolute / inch / decimal}
; #@! TF.CreationDate,2025-09-06T18:12:43+02:00
; #@! TF.GenerationSoftware,Kicad,Pcbnew,9.0.1
; #@! TF.FileFunction,Plated,1,2,PTH
FMAT,2
INCH
; #@! TA.AperFunction,Plated,PTH,ViaDrill
T1C0.0157
; #@! TA.AperFunction,Plated,PTH,ComponentDrill
T2C0.0374
; #@! TA.AperFunction,Plated,PTH,ComponentDrill
T3C0.0394
%
G90
G05
T1
X3.626Y-2.7756
X3.626Y-2.8622
X3.626Y-2.9921
X3.626Y-3.0748
X3.7205Y-3.3661
X3.8189Y-3.4055
X3.8484Y-2.4518
X4.0787Y-2.7362
X4.4331Y-2.2244
X4.4331Y-2.4094
X4.4646Y-3.1433
X4.499Y-3.185
X4.5157Y-2.5748
X4.5305Y-3.247
X4.6055Y-3.1894
X4.7077Y-3.2402
X4.7087Y-3.5177
X4.747Y-3.2933
X4.874Y-2.4921
X4.8888Y-3.5807
X4.9157Y-3.4539
X4.9419Y-2.8691
X4.9419Y-3.1388
X4.9744Y-2.8474
X5.0138Y-3.1742
X5.0268Y-3.4543
X5.0276Y-3.3957
X5.0305Y-3.5807
X5.0315Y-3.3366
X5.0669Y-2.5059
X5.0876Y-3.1043
T2
X4.002Y-2.1614
X4.002Y-2.2598
X4.002Y-2.3583
X5.0561Y-2.7864
X5.0561Y-2.8848
X5.0561Y-2.9833
T3
X3.7283Y-3.8386
X3.8283Y-3.8386
X3.9283Y-3.8386
X4.0283Y-3.8386
X4.3927Y-2.5285
X4.3927Y-2.6285
X4.3927Y-2.7285
X4.3927Y-2.8285
X4.3927Y-2.9285
X4.3927Y-3.0285
X4.737Y-2.2047
X4.7372Y-2.3465
X4.837Y-2.2047
X4.8372Y-2.3465
X4.937Y-2.2047
X4.9372Y-2.3465
M30
