%TF.GenerationSoftware,KiCad,Pcbnew,7.0.2*%
%TF.CreationDate,2023-10-03T11:26:09+02:00*%
%TF.ProjectId,SommerESP,536f6d6d-6572-4455-9350-2e6b69636164,rev?*%
%TF.SameCoordinates,Original*%
%TF.FileFunction,Copper,L1,Top*%
%TF.FilePolarity,Positive*%
%FSLAX46Y46*%
G04 Gerber Fmt 4.6, Leading zero omitted, Abs format (unit mm)*
G04 Created by KiCad (PCBNEW 7.0.2) date 2023-10-03 11:26:09*
%MOMM*%
%LPD*%
G01*
G04 APERTURE LIST*
G04 Aperture macros list*
%AMRoundRect*
0 Rectangle with rounded corners*
0 $1 Rounding radius*
0 $2 $3 $4 $5 $6 $7 $8 $9 X,Y pos of 4 corners*
0 Add a 4 corners polygon primitive as box body*
4,1,4,$2,$3,$4,$5,$6,$7,$8,$9,$2,$3,0*
0 Add four circle primitives for the rounded corners*
1,1,$1+$1,$2,$3*
1,1,$1+$1,$4,$5*
1,1,$1+$1,$6,$7*
1,1,$1+$1,$8,$9*
0 Add four rect primitives between the rounded corners*
20,1,$1+$1,$2,$3,$4,$5,0*
20,1,$1+$1,$4,$5,$6,$7,0*
20,1,$1+$1,$6,$7,$8,$9,0*
20,1,$1+$1,$8,$9,$2,$3,0*%
G04 Aperture macros list end*
%TA.AperFunction,SMDPad,CuDef*%
%ADD10RoundRect,0.237500X0.250000X0.237500X-0.250000X0.237500X-0.250000X-0.237500X0.250000X-0.237500X0*%
%TD*%
%TA.AperFunction,SMDPad,CuDef*%
%ADD11RoundRect,0.237500X-0.237500X0.250000X-0.237500X-0.250000X0.237500X-0.250000X0.237500X0.250000X0*%
%TD*%
%TA.AperFunction,SMDPad,CuDef*%
%ADD12RoundRect,0.250000X0.412500X0.650000X-0.412500X0.650000X-0.412500X-0.650000X0.412500X-0.650000X0*%
%TD*%
%TA.AperFunction,SMDPad,CuDef*%
%ADD13R,1.500000X1.900000*%
%TD*%
%TA.AperFunction,ComponentPad*%
%ADD14R,1.700000X1.700000*%
%TD*%
%TA.AperFunction,ComponentPad*%
%ADD15O,1.700000X1.700000*%
%TD*%
%TA.AperFunction,SMDPad,CuDef*%
%ADD16RoundRect,0.250000X-0.650000X1.000000X-0.650000X-1.000000X0.650000X-1.000000X0.650000X1.000000X0*%
%TD*%
%TA.AperFunction,SMDPad,CuDef*%
%ADD17RoundRect,0.237500X0.237500X-0.250000X0.237500X0.250000X-0.237500X0.250000X-0.237500X-0.250000X0*%
%TD*%
%TA.AperFunction,SMDPad,CuDef*%
%ADD18RoundRect,0.250000X0.650000X0.250000X-0.650000X0.250000X-0.650000X-0.250000X0.650000X-0.250000X0*%
%TD*%
%TA.AperFunction,SMDPad,CuDef*%
%ADD19RoundRect,0.250000X-0.325000X-0.450000X0.325000X-0.450000X0.325000X0.450000X-0.325000X0.450000X0*%
%TD*%
%TA.AperFunction,ComponentPad*%
%ADD20RoundRect,0.250000X-0.725000X0.600000X-0.725000X-0.600000X0.725000X-0.600000X0.725000X0.600000X0*%
%TD*%
%TA.AperFunction,ComponentPad*%
%ADD21O,1.950000X1.700000*%
%TD*%
%TA.AperFunction,SMDPad,CuDef*%
%ADD22R,1.500000X0.900000*%
%TD*%
%TA.AperFunction,SMDPad,CuDef*%
%ADD23R,0.700000X0.700000*%
%TD*%
%TA.AperFunction,SMDPad,CuDef*%
%ADD24RoundRect,0.235000X1.465000X-0.940000X1.465000X0.940000X-1.465000X0.940000X-1.465000X-0.940000X0*%
%TD*%
%TA.AperFunction,SMDPad,CuDef*%
%ADD25R,4.600000X1.100000*%
%TD*%
%TA.AperFunction,SMDPad,CuDef*%
%ADD26R,9.400000X10.800000*%
%TD*%
%TA.AperFunction,SMDPad,CuDef*%
%ADD27R,1.400000X1.700000*%
%TD*%
%TA.AperFunction,SMDPad,CuDef*%
%ADD28R,4.000000X1.800000*%
%TD*%
%TA.AperFunction,SMDPad,CuDef*%
%ADD29RoundRect,0.250000X-0.475000X0.337500X-0.475000X-0.337500X0.475000X-0.337500X0.475000X0.337500X0*%
%TD*%
%TA.AperFunction,ComponentPad*%
%ADD30R,1.600000X1.600000*%
%TD*%
%TA.AperFunction,ComponentPad*%
%ADD31O,1.600000X1.600000*%
%TD*%
%TA.AperFunction,SMDPad,CuDef*%
%ADD32RoundRect,0.700000X0.950000X-0.700000X0.950000X0.700000X-0.950000X0.700000X-0.950000X-0.700000X0*%
%TD*%
%TA.AperFunction,SMDPad,CuDef*%
%ADD33RoundRect,0.237500X-0.250000X-0.237500X0.250000X-0.237500X0.250000X0.237500X-0.250000X0.237500X0*%
%TD*%
%TA.AperFunction,ViaPad*%
%ADD34C,0.800000*%
%TD*%
%TA.AperFunction,Conductor*%
%ADD35C,0.500000*%
%TD*%
%TA.AperFunction,Conductor*%
%ADD36C,0.750000*%
%TD*%
%TA.AperFunction,Conductor*%
%ADD37C,2.000000*%
%TD*%
G04 APERTURE END LIST*
D10*
%TO.P,R8,1*%
%TO.N,+3.3VA*%
X129505000Y-80590000D03*
%TO.P,R8,2*%
%TO.N,Net-(D2-A)*%
X127680000Y-80590000D03*
%TD*%
D11*
%TO.P,R2,1*%
%TO.N,Net-(R2-Pad1)*%
X125100000Y-59487500D03*
%TO.P,R2,2*%
%TO.N,EN*%
X125100000Y-61312500D03*
%TD*%
%TO.P,R3,1*%
%TO.N,IO9*%
X127000000Y-62987500D03*
%TO.P,R3,2*%
%TO.N,+3.3VA*%
X127000000Y-64812500D03*
%TD*%
D12*
%TO.P,C3,1*%
%TO.N,+3.3V*%
X100287500Y-65000000D03*
%TO.P,C3,2*%
%TO.N,GND*%
X97162500Y-65000000D03*
%TD*%
D13*
%TO.P,U2,1,A*%
%TO.N,IO7*%
X135630000Y-71200000D03*
%TO.P,U2,2,K*%
%TO.N,Net-(U2-K)*%
X138170000Y-71200000D03*
%TO.P,U2,3,R*%
%TO.N,Net-(R9-Pad1)*%
X138170000Y-62700000D03*
%TO.P,U2,4,R*%
%TO.N,Keypad2*%
X135630000Y-62700000D03*
%TD*%
D10*
%TO.P,R7,1*%
%TO.N,+3.3VA*%
X129495000Y-78070000D03*
%TO.P,R7,2*%
%TO.N,Net-(D1-A)*%
X127670000Y-78070000D03*
%TD*%
D14*
%TO.P,J1,1,Pin_1*%
%TO.N,GND2*%
X120575000Y-82075000D03*
D15*
%TO.P,J1,2,Pin_2*%
%TO.N,RX*%
X120575000Y-79535000D03*
%TO.P,J1,3,Pin_3*%
%TO.N,TX*%
X120575000Y-76995000D03*
%TO.P,J1,4,Pin_4*%
%TO.N,+3.3VA*%
X120575000Y-74455000D03*
%TO.P,J1,5,Pin_5*%
%TO.N,IO3*%
X120575000Y-71915000D03*
%TO.P,J1,6,Pin_6*%
%TO.N,IO5*%
X120575000Y-69375000D03*
%TD*%
D16*
%TO.P,D5,1,K*%
%TO.N,Net-(D5-K)*%
X91775000Y-62300000D03*
%TO.P,D5,2,A*%
%TO.N,GND*%
X91775000Y-66300000D03*
%TD*%
D17*
%TO.P,R6,1*%
%TO.N,GND2*%
X129900000Y-75362500D03*
%TO.P,R6,2*%
%TO.N,Net-(U3-K)*%
X129900000Y-73537500D03*
%TD*%
%TO.P,R5,1*%
%TO.N,GND2*%
X131850000Y-75337500D03*
%TO.P,R5,2*%
%TO.N,Net-(U2-K)*%
X131850000Y-73512500D03*
%TD*%
%TO.P,R10,1*%
%TO.N,Net-(R10-Pad1)*%
X133300000Y-60412500D03*
%TO.P,R10,2*%
%TO.N,Keypad3*%
X133300000Y-58587500D03*
%TD*%
D18*
%TO.P,S2,1,1*%
%TO.N,Net-(R2-Pad1)*%
X119500000Y-61150000D03*
%TO.P,S2,2,2*%
%TO.N,GND2*%
X119500000Y-64450000D03*
%TD*%
D17*
%TO.P,R9,1*%
%TO.N,Net-(R9-Pad1)*%
X138400000Y-60412500D03*
%TO.P,R9,2*%
%TO.N,Keypad1*%
X138400000Y-58587500D03*
%TD*%
D19*
%TO.P,D2,1,K*%
%TO.N,IO10*%
X123615000Y-80590000D03*
%TO.P,D2,2,A*%
%TO.N,Net-(D2-A)*%
X125665000Y-80590000D03*
%TD*%
D18*
%TO.P,S1,1,1*%
%TO.N,Net-(R1-Pad1)*%
X113500000Y-61150000D03*
%TO.P,S1,2,2*%
%TO.N,GND2*%
X113500000Y-64450000D03*
%TD*%
D17*
%TO.P,R11,1*%
%TO.N,SommerSIG*%
X91900000Y-94012500D03*
%TO.P,R11,2*%
%TO.N,Net-(Q1-G)*%
X91900000Y-92187500D03*
%TD*%
D20*
%TO.P,J2,1,Pin_1*%
%TO.N,GND2*%
X137425000Y-75925000D03*
D21*
%TO.P,J2,2,Pin_2*%
%TO.N,ANALOGSIG2*%
X137425000Y-78425000D03*
%TO.P,J2,3,Pin_3*%
%TO.N,+3.3VA*%
X137425000Y-80925000D03*
%TD*%
D22*
%TO.P,U5,1,3V3*%
%TO.N,+3.3VA*%
X138250000Y-97400000D03*
%TO.P,U5,2,EN/CHIP_PU*%
%TO.N,EN*%
X138250000Y-95900000D03*
%TO.P,U5,3,GPIO4/ADC1_CH4*%
%TO.N,ANALOGSIG2*%
X138250000Y-94400000D03*
%TO.P,U5,4,GPIO5/ADC2_CH0*%
%TO.N,IO5*%
X138250000Y-92900000D03*
%TO.P,U5,5,GPIO6*%
%TO.N,IO6*%
X138250000Y-91400000D03*
%TO.P,U5,6,GPIO7*%
%TO.N,IO7*%
X138250000Y-89900000D03*
%TO.P,U5,7,GPIO8*%
%TO.N,IO8*%
X138250000Y-88400000D03*
%TO.P,U5,8,GPIO9*%
%TO.N,IO9*%
X138250000Y-86900000D03*
%TO.P,U5,9,GND*%
%TO.N,GND2*%
X138250000Y-85400000D03*
%TO.P,U5,10,GPIO10*%
%TO.N,IO10*%
X120750000Y-85400000D03*
%TO.P,U5,11,GPIO20/U0RXD*%
%TO.N,RX*%
X120750000Y-86900000D03*
%TO.P,U5,12,GPIO21/U0TXD*%
%TO.N,TX*%
X120750000Y-88400000D03*
%TO.P,U5,13,GPIO18/USB_D-*%
%TO.N,unconnected-(U5-GPIO18{slash}USB_D--Pad13)*%
X120750000Y-89900000D03*
%TO.P,U5,14,GPIO19/USB_D+*%
%TO.N,unconnected-(U5-GPIO19{slash}USB_D+-Pad14)*%
X120750000Y-91400000D03*
%TO.P,U5,15,GPIO3/ADC1_CH3*%
%TO.N,IO3*%
X120750000Y-92900000D03*
%TO.P,U5,16,GPIO2/ADC1_CH2*%
%TO.N,IO2*%
X120750000Y-94400000D03*
%TO.P,U5,17,GPIO1/ADC1_CH1/XTAL_32K_N*%
%TO.N,unconnected-(U5-GPIO1{slash}ADC1_CH1{slash}XTAL_32K_N-Pad17)*%
X120750000Y-95900000D03*
%TO.P,U5,18,GPIO0/ADC1_CH0/XTAL_32K_P*%
%TO.N,IO0*%
X120750000Y-97400000D03*
D23*
%TO.P,U5,19,GND*%
%TO.N,GND2*%
X129640000Y-92300000D03*
X129640000Y-91200000D03*
X129640000Y-90100000D03*
X128590000Y-92300000D03*
X128590000Y-91200000D03*
X128590000Y-90100000D03*
X127440000Y-92300000D03*
X127440000Y-91200000D03*
X127440000Y-90100000D03*
%TD*%
D24*
%TO.P,L1,1,1*%
%TO.N,Net-(D5-K)*%
X94125000Y-59025000D03*
%TO.P,L1,2,2*%
%TO.N,+3.3V*%
X94125000Y-52975000D03*
%TD*%
D11*
%TO.P,R4,1*%
%TO.N,EN*%
X125100000Y-62987500D03*
%TO.P,R4,2*%
%TO.N,+3.3VA*%
X125100000Y-64812500D03*
%TD*%
D25*
%TO.P,U4,1,VIN*%
%TO.N,Net-(D3-A)*%
X103575000Y-77825000D03*
%TO.P,U4,2,OUTPUT*%
%TO.N,Net-(D5-K)*%
X103575000Y-76125000D03*
%TO.P,U4,3,GND*%
%TO.N,GND*%
X103575000Y-74425000D03*
D26*
X94425000Y-74425000D03*
D25*
%TO.P,U4,4,Feedback*%
%TO.N,+3.3V*%
X103575000Y-72725000D03*
%TO.P,U4,5,ON/OFF*%
%TO.N,GND*%
X103575000Y-71025000D03*
%TD*%
D11*
%TO.P,R1,1*%
%TO.N,Net-(R1-Pad1)*%
X127000000Y-59487500D03*
%TO.P,R1,2*%
%TO.N,IO9*%
X127000000Y-61312500D03*
%TD*%
D27*
%TO.P,Q1,1,G*%
%TO.N,Net-(Q1-G)*%
X92000000Y-88600000D03*
%TO.P,Q1,2,D*%
%TO.N,AnalogSIG*%
X94500000Y-88600000D03*
%TO.P,Q1,3,S*%
%TO.N,GND*%
X97000000Y-88600000D03*
D28*
%TO.P,Q1,4,D_TAB*%
%TO.N,AnalogSIG*%
X94500000Y-82200000D03*
%TD*%
D14*
%TO.P,J4,1,Pin_1*%
%TO.N,Keypad1*%
X119820000Y-56000000D03*
D15*
%TO.P,J4,2,Pin_2*%
%TO.N,Keypad2*%
X122360000Y-56000000D03*
%TO.P,J4,3,Pin_3*%
%TO.N,Keypad3*%
X124900000Y-56000000D03*
%TD*%
D29*
%TO.P,C2,1*%
%TO.N,Keypad3*%
X131000000Y-58425000D03*
%TO.P,C2,2*%
%TO.N,Keypad2*%
X131000000Y-60500000D03*
%TD*%
D30*
%TO.P,D4,1,K*%
%TO.N,+24V*%
X103085000Y-92300000D03*
D31*
%TO.P,D4,2,A*%
%TO.N,AnalogSIG*%
X95465000Y-92300000D03*
%TD*%
D29*
%TO.P,C1,1*%
%TO.N,Keypad1*%
X136100000Y-58462500D03*
%TO.P,C1,2*%
%TO.N,Keypad2*%
X136100000Y-60537500D03*
%TD*%
D32*
%TO.P,D3,1,K*%
%TO.N,+24V*%
X103075000Y-88325000D03*
%TO.P,D3,2,A*%
%TO.N,Net-(D3-A)*%
X103125000Y-81325000D03*
%TD*%
D17*
%TO.P,R13,1*%
%TO.N,IO8*%
X132420000Y-80162500D03*
%TO.P,R13,2*%
%TO.N,+3.3VA*%
X132420000Y-78337500D03*
%TD*%
D33*
%TO.P,R12,1*%
%TO.N,IO2*%
X123677500Y-83340000D03*
%TO.P,R12,2*%
%TO.N,+3.3VA*%
X125502500Y-83340000D03*
%TD*%
D12*
%TO.P,C4,1*%
%TO.N,+3.3VA*%
X132362500Y-82710000D03*
%TO.P,C4,2*%
%TO.N,GND2*%
X129237500Y-82710000D03*
%TD*%
D13*
%TO.P,U3,1,A*%
%TO.N,IO6*%
X130430000Y-71200000D03*
%TO.P,U3,2,K*%
%TO.N,Net-(U3-K)*%
X132970000Y-71200000D03*
%TO.P,U3,3,R*%
%TO.N,Net-(R10-Pad1)*%
X132970000Y-62700000D03*
%TO.P,U3,4,R*%
%TO.N,Keypad2*%
X130430000Y-62700000D03*
%TD*%
D19*
%TO.P,D1,1,K*%
%TO.N,GND2*%
X123597500Y-78080000D03*
%TO.P,D1,2,A*%
%TO.N,Net-(D1-A)*%
X125647500Y-78080000D03*
%TD*%
D20*
%TO.P,J5,1,Pin_1*%
%TO.N,+3.3V*%
X101650000Y-54900000D03*
D21*
%TO.P,J5,2,Pin_2*%
%TO.N,AnalogSIG*%
X101650000Y-57400000D03*
%TO.P,J5,3,Pin_3*%
%TO.N,GND*%
X101650000Y-59900000D03*
%TD*%
D14*
%TO.P,J6,1,Pin_1*%
%TO.N,+24V*%
X102320000Y-97500000D03*
D15*
%TO.P,J6,2,Pin_2*%
%TO.N,unconnected-(J6-Pin_2-Pad2)*%
X99780000Y-97500000D03*
%TO.P,J6,3,Pin_3*%
%TO.N,SommerSIG*%
X97240000Y-97500000D03*
%TO.P,J6,4,Pin_4*%
%TO.N,GND*%
X94700000Y-97500000D03*
%TD*%
D14*
%TO.P,J3,1,Pin_1*%
%TO.N,Keypad1*%
X129320000Y-56000000D03*
D15*
%TO.P,J3,2,Pin_2*%
%TO.N,Keypad2*%
X131860000Y-56000000D03*
%TO.P,J3,3,Pin_3*%
%TO.N,Keypad3*%
X134400000Y-56000000D03*
%TD*%
D34*
%TO.N,IO9*%
X134850000Y-81735500D03*
%TO.N,IO5*%
X129574500Y-88800000D03*
X133860000Y-92880000D03*
X136680000Y-92890000D03*
%TO.N,EN*%
X125980000Y-86160000D03*
%TO.N,RX*%
X122400000Y-84990000D03*
%TO.N,IO8*%
X133860000Y-83684500D03*
X132770000Y-81210000D03*
%TO.N,IO6*%
X136690000Y-91310000D03*
%TO.N,IO7*%
X136720000Y-89760000D03*
%TO.N,Keypad3*%
X129300000Y-59400000D03*
%TO.N,GND*%
X103600000Y-69500000D03*
X97750000Y-62275000D03*
X92100000Y-72700000D03*
X92100000Y-70500000D03*
X92100000Y-78100000D03*
X92100000Y-76000000D03*
X97000000Y-86500000D03*
%TO.N,GND2*%
X119500000Y-65575000D03*
X128575000Y-87450000D03*
X128600000Y-94500000D03*
X113475000Y-65600000D03*
X138225000Y-84000000D03*
%TO.N,IO9*%
X136350000Y-85775000D03*
%TO.N,IO6*%
X130825000Y-72650000D03*
%TO.N,AnalogSIG*%
X94500000Y-85500000D03*
%TO.N,TX*%
X123275000Y-86050000D03*
%TO.N,Keypad2*%
X130400000Y-64600000D03*
%TO.N,EN*%
X133175000Y-96100000D03*
X136775000Y-96100000D03*
X123700000Y-67100000D03*
%TO.N,IO7*%
X135625000Y-72750000D03*
%TO.N,IO3*%
X124075000Y-87625000D03*
%TD*%
D35*
%TO.N,IO2*%
X123650000Y-83360000D02*
X123630000Y-83340000D01*
X123650000Y-84570000D02*
X123650000Y-83360000D01*
%TO.N,+3.3VA*%
X126575051Y-83320000D02*
X125480000Y-83320000D01*
X129305051Y-80590000D02*
X126575051Y-83320000D01*
X129505000Y-80590000D02*
X129305051Y-80590000D01*
%TO.N,GND2*%
X137410000Y-76060000D02*
X137420000Y-76070000D01*
X134510000Y-76060000D02*
X137410000Y-76060000D01*
X133787500Y-75337500D02*
X134510000Y-76060000D01*
X131850000Y-75337500D02*
X133787500Y-75337500D01*
%TO.N,IO9*%
X133520000Y-80405500D02*
X134850000Y-81735500D01*
X133520000Y-77977728D02*
X133520000Y-80405500D01*
X132462272Y-76920000D02*
X133520000Y-77977728D01*
X129520000Y-76920000D02*
X132462272Y-76920000D01*
X127925000Y-75325000D02*
X129520000Y-76920000D01*
X127925000Y-72850000D02*
X127925000Y-75325000D01*
%TO.N,GND2*%
X131847500Y-75362500D02*
X131860000Y-75350000D01*
X129900000Y-75362500D02*
X131847500Y-75362500D01*
%TO.N,IO2*%
X125020000Y-85940000D02*
X123650000Y-84570000D01*
X125020000Y-91380000D02*
X125020000Y-85940000D01*
X122000000Y-94400000D02*
X125020000Y-91380000D01*
X120750000Y-94400000D02*
X122000000Y-94400000D01*
%TO.N,IO5*%
X133860000Y-92880000D02*
X129780000Y-88800000D01*
X129780000Y-88800000D02*
X129574500Y-88800000D01*
X136690000Y-92900000D02*
X136680000Y-92890000D01*
X138250000Y-92900000D02*
X136690000Y-92900000D01*
D36*
%TO.N,+3.3VA*%
X132350000Y-86060000D02*
X132350000Y-82940000D01*
X135220000Y-88930000D02*
X132350000Y-86060000D01*
X135220000Y-96520000D02*
X135220000Y-88930000D01*
X136175000Y-97475000D02*
X135220000Y-96520000D01*
D35*
%TO.N,EN*%
X125975000Y-86165000D02*
X125980000Y-86160000D01*
X125975000Y-88550000D02*
X125975000Y-86165000D01*
%TO.N,IO10*%
X122720000Y-83300000D02*
X120740000Y-85280000D01*
X122720000Y-81485000D02*
X122720000Y-83300000D01*
X123615000Y-80590000D02*
X122720000Y-81485000D01*
%TO.N,Net-(D1-A)*%
X125790000Y-78070000D02*
X125740000Y-78020000D01*
X127670000Y-78070000D02*
X125790000Y-78070000D01*
%TO.N,Net-(D2-A)*%
X125700000Y-80590000D02*
X125690000Y-80580000D01*
X127680000Y-80590000D02*
X125700000Y-80590000D01*
%TO.N,RX*%
X122400000Y-85850000D02*
X122400000Y-84990000D01*
%TO.N,GND2*%
X120620000Y-82030000D02*
X120610000Y-82030000D01*
X122590000Y-79087500D02*
X122590000Y-80060000D01*
X122590000Y-80060000D02*
X120620000Y-82030000D01*
X123597500Y-78080000D02*
X122590000Y-79087500D01*
D36*
%TO.N,+3.3VA*%
X129667500Y-78337500D02*
X129550000Y-78220000D01*
X132420000Y-78337500D02*
X129667500Y-78337500D01*
X129510000Y-78273451D02*
X129510000Y-80570000D01*
X127686549Y-76450000D02*
X129510000Y-78273451D01*
X129510000Y-80570000D02*
X131780000Y-82840000D01*
X125150000Y-76450000D02*
X127686549Y-76450000D01*
X131780000Y-82840000D02*
X132250000Y-82840000D01*
D35*
%TO.N,IO8*%
X132530000Y-80260000D02*
X132500000Y-80230000D01*
X132540000Y-80260000D02*
X132530000Y-80260000D01*
X132770000Y-80490000D02*
X132540000Y-80260000D01*
X132770000Y-81210000D02*
X132770000Y-80490000D01*
X133860000Y-85260000D02*
X133860000Y-83684500D01*
X137000000Y-88400000D02*
X133860000Y-85260000D01*
X138250000Y-88400000D02*
X137000000Y-88400000D01*
D36*
%TO.N,GND2*%
X129237500Y-82710000D02*
X129237500Y-84462500D01*
X129237500Y-84462500D02*
X128570000Y-85130000D01*
X128575000Y-87450000D02*
X128575000Y-85125000D01*
%TO.N,+3.3VA*%
X135600000Y-82710000D02*
X137390000Y-80920000D01*
X132362500Y-82710000D02*
X135600000Y-82710000D01*
X138125000Y-97475000D02*
X136175000Y-97475000D01*
D35*
%TO.N,IO6*%
X136690000Y-91310000D02*
X137870000Y-91310000D01*
X137870000Y-91310000D02*
X137930000Y-91370000D01*
%TO.N,IO7*%
X136720000Y-89760000D02*
X137800000Y-89760000D01*
%TO.N,Keypad1*%
X129200000Y-55900000D02*
X129200000Y-56000000D01*
X119820000Y-56000000D02*
X121120000Y-54700000D01*
X136100000Y-55861522D02*
X136100000Y-58400000D01*
X129320000Y-56000000D02*
X130620000Y-54700000D01*
X138400000Y-58587500D02*
X136387500Y-58587500D01*
X136387500Y-58587500D02*
X136300000Y-58500000D01*
X134938478Y-54700000D02*
X136100000Y-55861522D01*
X130620000Y-54700000D02*
X134938478Y-54700000D01*
X121120000Y-54700000D02*
X128000000Y-54700000D01*
X128000000Y-54700000D02*
X129200000Y-55900000D01*
%TO.N,Keypad3*%
X131187500Y-58587500D02*
X131100000Y-58500000D01*
X130500000Y-59400000D02*
X131200000Y-58700000D01*
X133300000Y-57000000D02*
X134400000Y-55900000D01*
X129300000Y-59400000D02*
X130500000Y-59400000D01*
X133300000Y-58587500D02*
X131187500Y-58587500D01*
X133300000Y-58587500D02*
X133300000Y-57000000D01*
D36*
%TO.N,+3.3V*%
X99175000Y-63775000D02*
X100200000Y-64800000D01*
X101550000Y-65000000D02*
X100325000Y-65000000D01*
X103575000Y-72725000D02*
X105875000Y-72725000D01*
X106450000Y-72150000D02*
X106450000Y-69900000D01*
X101500000Y-54900000D02*
X95675000Y-54900000D01*
X95675000Y-54900000D02*
X94075000Y-53300000D01*
X105875000Y-72725000D02*
X106450000Y-72150000D01*
X103575000Y-72725000D02*
X103550000Y-72700000D01*
X106450000Y-69900000D02*
X101550000Y-65000000D01*
X99175000Y-57225000D02*
X99175000Y-63775000D01*
X101500000Y-54900000D02*
X99175000Y-57225000D01*
%TO.N,GND*%
X101400000Y-71000000D02*
X103600000Y-71000000D01*
X98000000Y-71000000D02*
X97700000Y-71300000D01*
X103575000Y-74425000D02*
X101275000Y-74425000D01*
X97162500Y-62862500D02*
X97750000Y-62275000D01*
X91800000Y-66425000D02*
X91800000Y-70000000D01*
X98600000Y-74400000D02*
X98500000Y-74500000D01*
X100700000Y-71700000D02*
X101400000Y-71000000D01*
X101275000Y-74425000D02*
X100700000Y-73850000D01*
X100700000Y-73850000D02*
X100700000Y-71700000D01*
X103575000Y-71025000D02*
X103575000Y-69525000D01*
X103575000Y-69525000D02*
X103600000Y-69500000D01*
X97162500Y-65000000D02*
X97162500Y-62862500D01*
X97000000Y-88800000D02*
X97000000Y-86500000D01*
%TO.N,GND2*%
X138250000Y-84025000D02*
X138225000Y-84000000D01*
X128600000Y-94500000D02*
X128600000Y-87425000D01*
X138250000Y-85400000D02*
X138250000Y-84025000D01*
D35*
X113500000Y-64450000D02*
X113500000Y-65575000D01*
X137012500Y-75412500D02*
X137400000Y-75800000D01*
X113500000Y-65575000D02*
X113475000Y-65600000D01*
X119500000Y-64450000D02*
X119500000Y-65575000D01*
%TO.N,IO9*%
X136350000Y-85775000D02*
X137475000Y-86900000D01*
X127925000Y-63925000D02*
X127025000Y-63025000D01*
X127000000Y-61312500D02*
X127000000Y-62900000D01*
X127925000Y-72850000D02*
X127925000Y-63925000D01*
X137475000Y-86900000D02*
X138150000Y-86900000D01*
%TO.N,IO6*%
X130825000Y-72650000D02*
X130825000Y-71825000D01*
X130825000Y-71825000D02*
X130725000Y-71725000D01*
D37*
%TO.N,+24V*%
X103125000Y-95375000D02*
X103125000Y-92300000D01*
X103100000Y-92162500D02*
X103100000Y-88437500D01*
X102320000Y-96180000D02*
X103125000Y-95375000D01*
X102320000Y-97500000D02*
X102320000Y-96180000D01*
D36*
%TO.N,AnalogSIG*%
X94500000Y-91350000D02*
X95525000Y-92375000D01*
X94500000Y-88600000D02*
X94500000Y-91350000D01*
X94500000Y-88600000D02*
X94500000Y-82200000D01*
%TO.N,Net-(D5-K)*%
X96925000Y-67450000D02*
X98700000Y-67450000D01*
X99725000Y-68475000D02*
X99725000Y-74575000D01*
X94225000Y-59850000D02*
X94225000Y-59825000D01*
X101300000Y-76150000D02*
X102250000Y-76150000D01*
X91775000Y-62300000D02*
X94225000Y-59850000D01*
X98700000Y-67450000D02*
X99725000Y-68475000D01*
X99725000Y-74575000D02*
X101300000Y-76150000D01*
X91775000Y-62300000D02*
X96925000Y-67450000D01*
D35*
%TO.N,RX*%
X121350000Y-86900000D02*
X122400000Y-85850000D01*
X120750000Y-86900000D02*
X121350000Y-86900000D01*
%TO.N,TX*%
X120750000Y-88400000D02*
X122000000Y-88400000D01*
X122000000Y-88400000D02*
X123275000Y-87125000D01*
X123275000Y-87125000D02*
X123275000Y-86050000D01*
%TO.N,+3.3VA*%
X125212500Y-64812500D02*
X125200000Y-64800000D01*
X124250000Y-72450000D02*
X122625000Y-72450000D01*
X137425000Y-80925000D02*
X137450000Y-80900000D01*
D36*
X120575000Y-74455000D02*
X123180000Y-74455000D01*
D35*
X122625000Y-72450000D02*
X120750000Y-74325000D01*
X127000000Y-69700000D02*
X124250000Y-72450000D01*
X127000000Y-64812500D02*
X125212500Y-64812500D01*
D36*
X125150000Y-76450000D02*
X123175000Y-74475000D01*
D35*
X127000000Y-64812500D02*
X127000000Y-69700000D01*
%TO.N,ANALOGSIG2*%
X139450000Y-93800000D02*
X138875000Y-94375000D01*
X137600000Y-78400000D02*
X137600000Y-78550000D01*
X138875000Y-94375000D02*
X138200000Y-94375000D01*
X137425000Y-78425000D02*
X139450000Y-80450000D01*
X139450000Y-80450000D02*
X139450000Y-93800000D01*
%TO.N,Keypad2*%
X130400000Y-61300000D02*
X131100000Y-60600000D01*
X122360000Y-56000000D02*
X123660000Y-57300000D01*
X130700000Y-57300000D02*
X131800000Y-56200000D01*
X123660000Y-57300000D02*
X130700000Y-57300000D01*
X134600000Y-64600000D02*
X135700000Y-63500000D01*
X136100000Y-60537500D02*
X136100000Y-61500000D01*
X130400000Y-64600000D02*
X130400000Y-61300000D01*
X136100000Y-61500000D02*
X135700000Y-61900000D01*
X130400000Y-64600000D02*
X134600000Y-64600000D01*
D36*
%TO.N,SommerSIG*%
X93740000Y-94000000D02*
X91900000Y-94000000D01*
X97240000Y-97500000D02*
X93740000Y-94000000D01*
D35*
%TO.N,IO0*%
X121375000Y-97375000D02*
X120950000Y-97375000D01*
%TO.N,EN*%
X128997918Y-96100000D02*
X133175000Y-96100000D01*
X125975000Y-88550000D02*
X125975000Y-93077082D01*
X137825000Y-96100000D02*
X137950000Y-95975000D01*
X124300000Y-63000000D02*
X125000000Y-63000000D01*
X123700000Y-63600000D02*
X124300000Y-63000000D01*
X136775000Y-96100000D02*
X137825000Y-96100000D01*
X123700000Y-67100000D02*
X123700000Y-63600000D01*
X125975000Y-93077082D02*
X128997918Y-96100000D01*
X125100000Y-61312500D02*
X125100000Y-62900000D01*
%TO.N,Net-(U2-K)*%
X133487500Y-73512500D02*
X134275000Y-72725000D01*
X134275000Y-72725000D02*
X134275000Y-69955000D01*
X131850000Y-73512500D02*
X133487500Y-73512500D01*
X134275000Y-69955000D02*
X134905000Y-69325000D01*
X137150000Y-69325000D02*
X138300000Y-70475000D01*
X134905000Y-69325000D02*
X137150000Y-69325000D01*
%TO.N,Net-(U3-K)*%
X129905000Y-69125000D02*
X131250000Y-69125000D01*
X129900000Y-73475000D02*
X128775000Y-72350000D01*
X128775000Y-72350000D02*
X128775000Y-70255000D01*
X128775000Y-70255000D02*
X129905000Y-69125000D01*
X129900000Y-73537500D02*
X129900000Y-73475000D01*
X131250000Y-69125000D02*
X132800000Y-70675000D01*
%TO.N,Net-(R9-Pad1)*%
X138400000Y-60412500D02*
X138400000Y-62800000D01*
%TO.N,Net-(R10-Pad1)*%
X133300000Y-60412500D02*
X133300000Y-61700000D01*
X133300000Y-61700000D02*
X132800000Y-62200000D01*
%TO.N,IO7*%
X135630000Y-71200000D02*
X135630000Y-72745000D01*
X135630000Y-72745000D02*
X135625000Y-72750000D01*
%TO.N,IO3*%
X124075000Y-90825000D02*
X124075000Y-87625000D01*
X120750000Y-92900000D02*
X122000000Y-92900000D01*
X122000000Y-92900000D02*
X124075000Y-90825000D01*
D36*
%TO.N,Net-(Q1-G)*%
X91900000Y-92187500D02*
X91900000Y-88600000D01*
D35*
%TO.N,Net-(R1-Pad1)*%
X127000000Y-58300000D02*
X127000000Y-59300000D01*
X127000000Y-58300000D02*
X116000000Y-58300000D01*
X116000000Y-58300000D02*
X113475000Y-60825000D01*
%TO.N,Net-(R2-Pad1)*%
X121037500Y-59487500D02*
X119650000Y-60875000D01*
X125100000Y-59487500D02*
X121037500Y-59487500D01*
D36*
%TO.N,Net-(D3-A)*%
X104850000Y-77850000D02*
X104800000Y-77800000D01*
X103575000Y-77825000D02*
X103575000Y-81050000D01*
X103125000Y-77975000D02*
X103075000Y-77925000D01*
X103125000Y-81325000D02*
X103125000Y-77975000D01*
X103575000Y-81050000D02*
X103525000Y-81100000D01*
X104450000Y-77950000D02*
X104400000Y-77900000D01*
X103125000Y-77925000D02*
X103075000Y-77875000D01*
%TD*%
%TA.AperFunction,Conductor*%
%TO.N,GND2*%
G36*
X128881557Y-89394685D02*
G01*
X128906665Y-89416026D01*
X128963247Y-89478866D01*
X129117747Y-89591117D01*
X129117748Y-89591118D01*
X129292214Y-89668795D01*
X129479011Y-89708500D01*
X129479013Y-89708500D01*
X129564457Y-89708500D01*
X129631496Y-89728185D01*
X129652138Y-89744819D01*
X130288681Y-90381362D01*
X130322166Y-90442685D01*
X130325000Y-90469043D01*
X130325000Y-92851000D01*
X130305315Y-92918039D01*
X130252511Y-92963794D01*
X130201000Y-92975000D01*
X126996961Y-92975000D01*
X126929922Y-92955315D01*
X126909284Y-92938685D01*
X126769818Y-92799219D01*
X126736334Y-92737896D01*
X126733500Y-92711538D01*
X126733500Y-89499000D01*
X126753185Y-89431961D01*
X126805989Y-89386206D01*
X126857500Y-89375000D01*
X128814518Y-89375000D01*
X128881557Y-89394685D01*
G37*
%TD.AperFunction*%
%TD*%
M02*
