%TF.GenerationSoftware,KiCad,Pcbnew,7.0.2*%
%TF.CreationDate,2023-10-09T18:23:24+02:00*%
%TF.ProjectId,SommerESP,536f6d6d-6572-4455-9350-2e6b69636164,rev?*%
%TF.SameCoordinates,Original*%
%TF.FileFunction,Soldermask,Bot*%
%TF.FilePolarity,Negative*%
%FSLAX46Y46*%
G04 Gerber Fmt 4.6, Leading zero omitted, Abs format (unit mm)*
G04 Created by KiCad (PCBNEW 7.0.2) date 2023-10-09 18:23:24*
%MOMM*%
%LPD*%
G01*
G04 APERTURE LIST*
G04 Aperture macros list*
%AMRoundRect*
0 Rectangle with rounded corners*
0 $1 Rounding radius*
0 $2 $3 $4 $5 $6 $7 $8 $9 X,Y pos of 4 corners*
0 Add a 4 corners polygon primitive as box body*
4,1,4,$2,$3,$4,$5,$6,$7,$8,$9,$2,$3,0*
0 Add four circle primitives for the rounded corners*
1,1,$1+$1,$2,$3*
1,1,$1+$1,$4,$5*
1,1,$1+$1,$6,$7*
1,1,$1+$1,$8,$9*
0 Add four rect primitives between the rounded corners*
20,1,$1+$1,$2,$3,$4,$5,0*
20,1,$1+$1,$4,$5,$6,$7,0*
20,1,$1+$1,$6,$7,$8,$9,0*
20,1,$1+$1,$8,$9,$2,$3,0*%
G04 Aperture macros list end*
%ADD10R,1.700000X1.700000*%
%ADD11O,1.700000X1.700000*%
%ADD12C,0.500000*%
%ADD13RoundRect,0.250000X-0.725000X0.600000X-0.725000X-0.600000X0.725000X-0.600000X0.725000X0.600000X0*%
%ADD14O,1.950000X1.700000*%
%ADD15R,1.600000X1.600000*%
%ADD16O,1.600000X1.600000*%
G04 APERTURE END LIST*
D10*
%TO.C,J1*%
X120575000Y-82075000D03*
D11*
X120575000Y-79535000D03*
X120575000Y-76995000D03*
X120575000Y-74455000D03*
X120575000Y-71915000D03*
X120575000Y-69375000D03*
%TD*%
D12*
%TO.C,REF\u002A\u002A*%
X107350000Y-61500000D03*
X107350000Y-60950000D03*
X107350000Y-60400000D03*
X107350000Y-59850000D03*
X107350000Y-59300000D03*
X107350000Y-58750000D03*
X107350000Y-58200000D03*
X107350000Y-57650000D03*
X107350000Y-57100000D03*
%TD*%
%TO.C,REF\u002A\u002A*%
X109800000Y-61500000D03*
X109800000Y-60950000D03*
X109800000Y-60400000D03*
X109800000Y-59850000D03*
X109800000Y-59300000D03*
X109800000Y-58750000D03*
X109800000Y-58200000D03*
X109800000Y-57650000D03*
X109800000Y-57100000D03*
%TD*%
D13*
%TO.C,J2*%
X137425000Y-75925000D03*
D14*
X137425000Y-78425000D03*
X137425000Y-80925000D03*
%TD*%
D12*
%TO.C,REF\u002A\u002A*%
X107400000Y-94950000D03*
X107400000Y-94400000D03*
X107400000Y-93850000D03*
X107400000Y-93300000D03*
X107400000Y-92750000D03*
X107400000Y-92200000D03*
X107400000Y-91650000D03*
X107400000Y-91100000D03*
X107400000Y-90550000D03*
%TD*%
D10*
%TO.C,J4*%
X119820000Y-56000000D03*
D11*
X122360000Y-56000000D03*
X124900000Y-56000000D03*
%TD*%
D15*
%TO.C,D4*%
X103085000Y-92300000D03*
D16*
X95465000Y-92300000D03*
%TD*%
D12*
%TO.C,REF\u002A\u002A*%
X118700000Y-94950000D03*
X118700000Y-94400000D03*
X118700000Y-93850000D03*
X118700000Y-93300000D03*
X118700000Y-92750000D03*
X118700000Y-92200000D03*
X118700000Y-91650000D03*
X118700000Y-91100000D03*
X118700000Y-90550000D03*
%TD*%
D13*
%TO.C,J5*%
X101650000Y-54900000D03*
D14*
X101650000Y-57400000D03*
X101650000Y-59900000D03*
%TD*%
D10*
%TO.C,J6*%
X102320000Y-97500000D03*
D11*
X99780000Y-97500000D03*
X97240000Y-97500000D03*
X94700000Y-97500000D03*
%TD*%
D10*
%TO.C,J3*%
X129320000Y-56000000D03*
D11*
X131860000Y-56000000D03*
X134400000Y-56000000D03*
%TD*%
M02*
