M48
; DRILL file {KiCad 9.0.1} date 2025-09-06T18:12:43+0200
; FORMAT={-:-/ absolute / inch / decimal}
; #@! TF.CreationDate,2025-09-06T18:12:43+02:00
; #@! TF.GenerationSoftware,Kicad,Pcbnew,9.0.1
; #@! TF.FileFunction,NonPlated,1,2,NPTH
FMAT,2
INCH
; #@! TA.AperFunction,NonPlated,NPTH,ComponentDrill
T1C0.0197
%
G90
G05
T1
X4.2264Y-2.2539
X4.2264Y-2.2756
X4.2264Y-2.2972
X4.2264Y-2.3189
X4.2264Y-2.3406
X4.2264Y-2.3622
X4.2264Y-2.3839
X4.2264Y-2.4055
X4.2264Y-2.4272
X4.2283Y-3.3071
X4.2283Y-3.3287
X4.2283Y-3.3504
X4.2283Y-3.372
X4.2283Y-3.3937
X4.2283Y-3.4154
X4.2283Y-3.437
X4.2283Y-3.4587
X4.2283Y-3.4803
X4.3189Y-3.3071
X4.3189Y-3.3287
X4.3189Y-3.3504
X4.3189Y-3.372
X4.3189Y-3.3937
X4.3189Y-3.4154
X4.3189Y-3.437
X4.3189Y-3.4587
X4.3189Y-3.4803
X4.3213Y-2.2539
X4.3213Y-2.2756
X4.3213Y-2.2972
X4.3213Y-2.3189
X4.3213Y-2.3406
X4.3213Y-2.3622
X4.3213Y-2.3839
X4.3213Y-2.4055
X4.3213Y-2.4272
M30
