  0
SECTION
  2
HEADER
  9
$ANGBASE
  50
0.0
  9
$ANGDIR
  70
1
  9
$MEASUREMENT
  70
0
  0
ENDSEC
  0
SECTION
  2
TABLES
  0
TABLE
  2
LTYPE
  70
4
  0
LTYPE
  5
40F
  2
CONTINUOUS
  70
0
  3
Solid line
  72
65
  73
0
  40
0.0
  0
LTYPE
  5
410
  2
DASHDOT
 70
0
  3
Dash Dot ____ _ ____ _
 72
65
 73
4
 40
2.0
 49
1.25
 49
-0.25
 49
0.25
 49
-0.25
  0
LTYPE
  5
411
  2
DASHED
 70
0
  3
Dashed __ __ __ __ __
 72
65
 73
2
 40
0.75
 49
0.5
 49
-0.25
  0
LTYPE
  5
43B
  2
DOTTED
 70
0
  3
Dotted .  .  .  .
 72
65
 73
2
 40
0.2
 49
0.0
 49
-0.2
  0
ENDTAB
  0
TABLE
  2
STYLE
  70
4
  0
STYLE
  2
KICAD
  70
0
  40
0
  41
1
  42
1
  50
0
  71
0
  3
isocp.shx
  0
STYLE
  2
KICADB
  70
0
  40
0
  41
1
  42
1
  50
0
  71
0
  3
isocp.shx
  0
STYLE
  2
KICADI
  70
0
  40
0
  41
1
  42
1
  50
15
  71
0
  3
isocp.shx
  0
STYLE
  2
KICADBI
  70
0
  40
0
  41
1
  42
1
  50
15
  71
0
  3
isocp.shx
  0
ENDTAB
  0
TABLE
  2
LAYER
  70
1
  0
LAYER
  2
BLACK
  70
0
  62
7
  6
CONTINUOUS
  0
ENDTAB
  0
ENDSEC
  0
SECTION
  2
ENTITIES
0
LINE
8
BLACK
6
CONTINUOUS
10
4.22047
20
-3.92028
11
3.51181
21
-3.92028
0
LINE
8
BLACK
6
CONTINUOUS
10
4.32677
20
-2.00787
11
5.50787
21
-2.00787
0
LINE
8
BLACK
6
CONTINUOUS
10
5.50787
20
-3.87894
11
4.6811
21
-3.87894
0
LINE
8
BLACK
6
CONTINUOUS
10
4.6811
20
-3.55118
11
4.6811
21
-2.67717
0
LINE
8
BLACK
6
CONTINUOUS
10
4.22047
20
-2.00787
11
4.22047
21
-2.22835
0
LINE
8
BLACK
6
CONTINUOUS
10
4.6811
20
-3.87894
11
4.6811
21
-3.75197
0
LINE
8
BLACK
6
CONTINUOUS
10
3.51181
20
-2.00787
11
4.22047
21
-2.00787
0
LINE
8
BLACK
6
CONTINUOUS
10
4.32677
20
-2.22835
11
4.32677
21
-2.00787
0
LINE
8
BLACK
6
CONTINUOUS
10
4.32677
20
-2.67717
11
4.32677
21
-2.44094
0
LINE
8
BLACK
6
CONTINUOUS
10
4.22047
20
-3.92028
11
4.22047
21
-3.75197
0
LINE
8
BLACK
6
CONTINUOUS
10
4.22047
20
-2.22835
11
4.32677
21
-2.22835
0
LINE
8
BLACK
6
CONTINUOUS
10
5.50787
20
-2.00787
11
5.50787
21
-3.87894
0
LINE
8
BLACK
6
CONTINUOUS
10
4.22047
20
-3.75197
11
4.6811
21
-3.75197
0
LINE
8
BLACK
6
CONTINUOUS
10
4.22047
20
-2.44094
11
4.22047
21
-3.55118
0
LINE
8
BLACK
6
CONTINUOUS
10
3.51181
20
-3.92028
11
3.51181
21
-2.00787
0
LINE
8
BLACK
6
CONTINUOUS
10
4.32677
20
-2.44094
11
4.22047
21
-2.44094
0
LINE
8
BLACK
6
CONTINUOUS
10
4.6811
20
-2.67717
11
4.32677
21
-2.67717
0
LINE
8
BLACK
6
CONTINUOUS
10
4.22047
20
-3.55118
11
4.6811
21
-3.55118
0
LINE
8
BLACK
6
CONTINUOUS
10
3.61811
20
-2.76772
11
3.63386
21
-2.78346
0
LINE
8
BLACK
6
CONTINUOUS
10
3.63386
20
-2.76772
11
3.61811
21
-2.78346
0
LINE
8
BLACK
6
CONTINUOUS
10
3.61811
20
-2.85433
11
3.63386
21
-2.87008
0
LINE
8
BLACK
6
CONTINUOUS
10
3.63386
20
-2.85433
11
3.61811
21
-2.87008
0
LINE
8
BLACK
6
CONTINUOUS
10
3.61811
20
-2.98425
11
3.63386
21
-3
0
LINE
8
BLACK
6
CONTINUOUS
10
3.63386
20
-2.98425
11
3.61811
21
-3
0
LINE
8
BLACK
6
CONTINUOUS
10
3.61811
20
-3.06693
11
3.63386
21
-3.08268
0
LINE
8
BLACK
6
CONTINUOUS
10
3.63386
20
-3.06693
11
3.61811
21
-3.08268
0
LINE
8
BLACK
6
CONTINUOUS
10
3.7126
20
-3.35827
11
3.72835
21
-3.37402
0
LINE
8
BLACK
6
CONTINUOUS
10
3.72835
20
-3.35827
11
3.7126
21
-3.37402
0
LINE
8
BLACK
6
CONTINUOUS
10
3.81102
20
-3.39764
11
3.82677
21
-3.41339
0
LINE
8
BLACK
6
CONTINUOUS
10
3.82677
20
-3.39764
11
3.81102
21
-3.41339
0
LINE
8
BLACK
6
CONTINUOUS
10
3.84055
20
-2.4439
11
3.8563
21
-2.45965
0
LINE
8
BLACK
6
CONTINUOUS
10
3.8563
20
-2.4439
11
3.84055
21
-2.45965
0
LINE
8
BLACK
6
CONTINUOUS
10
4.07087
20
-2.72835
11
4.08661
21
-2.74409
0
LINE
8
BLACK
6
CONTINUOUS
10
4.08661
20
-2.72835
11
4.07087
21
-2.74409
0
LINE
8
BLACK
6
CONTINUOUS
10
4.45965
20
-2.5748
11
4.47539
21
-2.59055
0
LINE
8
BLACK
6
CONTINUOUS
10
4.47539
20
-2.5748
11
4.45965
21
-2.59055
0
LINE
8
BLACK
6
CONTINUOUS
10
4.69685
20
-2.57382
11
4.7126
21
-2.58957
0
LINE
8
BLACK
6
CONTINUOUS
10
4.7126
20
-2.57382
11
4.69685
21
-2.58957
0
LINE
8
BLACK
6
CONTINUOUS
10
4.81102
20
-3.33819
11
4.82677
21
-3.35394
0
LINE
8
BLACK
6
CONTINUOUS
10
4.82677
20
-3.33819
11
4.81102
21
-3.35394
0
LINE
8
BLACK
6
CONTINUOUS
10
4.84547
20
-3.37992
11
4.86122
21
-3.39567
0
LINE
8
BLACK
6
CONTINUOUS
10
4.86122
20
-3.37992
11
4.84547
21
-3.39567
0
LINE
8
BLACK
6
CONTINUOUS
10
4.8622
20
-2.63386
11
4.87795
21
-2.64961
0
LINE
8
BLACK
6
CONTINUOUS
10
4.87795
20
-2.63386
11
4.8622
21
-2.64961
0
LINE
8
BLACK
6
CONTINUOUS
10
4.87697
20
-3.44193
11
4.89272
21
-3.45768
0
LINE
8
BLACK
6
CONTINUOUS
10
4.89272
20
-3.44193
11
4.87697
21
-3.45768
0
LINE
8
BLACK
6
CONTINUOUS
10
4.95197
20
-3.38425
11
4.96772
21
-3.4
0
LINE
8
BLACK
6
CONTINUOUS
10
4.96772
20
-3.38425
11
4.95197
21
-3.4
0
LINE
8
BLACK
6
CONTINUOUS
10
5.05413
20
-3.43504
11
5.06988
21
-3.45079
0
LINE
8
BLACK
6
CONTINUOUS
10
5.06988
20
-3.43504
11
5.05413
21
-3.45079
0
LINE
8
BLACK
6
CONTINUOUS
10
5.05512
20
-3.7126
11
5.07087
21
-3.72835
0
LINE
8
BLACK
6
CONTINUOUS
10
5.07087
20
-3.7126
11
5.05512
21
-3.72835
0
LINE
8
BLACK
6
CONTINUOUS
10
5.08268
20
-2.33071
11
5.09843
21
-2.34646
0
LINE
8
BLACK
6
CONTINUOUS
10
5.09843
20
-2.33071
11
5.08268
21
-2.34646
0
LINE
8
BLACK
6
CONTINUOUS
10
5.09348
20
-3.48819
11
5.10923
21
-3.50394
0
LINE
8
BLACK
6
CONTINUOUS
10
5.10923
20
-3.48819
11
5.09348
21
-3.50394
0
LINE
8
BLACK
6
CONTINUOUS
10
5.12598
20
-2.53543
11
5.14173
21
-2.55118
0
LINE
8
BLACK
6
CONTINUOUS
10
5.14173
20
-2.53543
11
5.12598
21
-2.55118
0
LINE
8
BLACK
6
CONTINUOUS
10
5.14272
20
-2.85236
11
5.15846
21
-2.86811
0
LINE
8
BLACK
6
CONTINUOUS
10
5.15846
20
-2.85236
11
5.14272
21
-2.86811
0
LINE
8
BLACK
6
CONTINUOUS
10
5.21929
20
-3.18937
11
5.23504
21
-3.20512
0
LINE
8
BLACK
6
CONTINUOUS
10
5.23504
20
-3.18937
11
5.21929
21
-3.20512
0
LINE
8
BLACK
6
CONTINUOUS
10
5.23524
20
-3.77559
11
5.25098
21
-3.79134
0
LINE
8
BLACK
6
CONTINUOUS
10
5.25098
20
-3.77559
11
5.23524
21
-3.79134
0
LINE
8
BLACK
6
CONTINUOUS
10
5.2622
20
-3.28679
11
5.27795
21
-3.30254
0
LINE
8
BLACK
6
CONTINUOUS
10
5.27795
20
-3.28679
11
5.2622
21
-3.30254
0
LINE
8
BLACK
6
CONTINUOUS
10
5.2622
20
-3.64882
11
5.27795
21
-3.66457
0
LINE
8
BLACK
6
CONTINUOUS
10
5.27795
20
-3.64882
11
5.2622
21
-3.66457
0
LINE
8
BLACK
6
CONTINUOUS
10
5.30118
20
-3.21006
11
5.31693
21
-3.22581
0
LINE
8
BLACK
6
CONTINUOUS
10
5.31693
20
-3.21006
11
5.30118
21
-3.22581
0
LINE
8
BLACK
6
CONTINUOUS
10
5.33169
20
-2.8563
11
5.34744
21
-2.87205
0
LINE
8
BLACK
6
CONTINUOUS
10
5.34744
20
-2.8563
11
5.33169
21
-2.87205
0
LINE
8
BLACK
6
CONTINUOUS
10
5.36024
20
-3.36909
11
5.37598
21
-3.38484
0
LINE
8
BLACK
6
CONTINUOUS
10
5.37598
20
-3.36909
11
5.36024
21
-3.38484
0
LINE
8
BLACK
6
CONTINUOUS
10
5.37323
20
-3.64921
11
5.38898
21
-3.66496
0
LINE
8
BLACK
6
CONTINUOUS
10
5.38898
20
-3.64921
11
5.37323
21
-3.66496
0
LINE
8
BLACK
6
CONTINUOUS
10
5.37362
20
-3.58701
11
5.38937
21
-3.60276
0
LINE
8
BLACK
6
CONTINUOUS
10
5.38937
20
-3.58701
11
5.37362
21
-3.60276
0
LINE
8
BLACK
6
CONTINUOUS
10
5.3748
20
-3.52598
11
5.39055
21
-3.54173
0
LINE
8
BLACK
6
CONTINUOUS
10
5.39055
20
-3.52598
11
5.3748
21
-3.54173
0
LINE
8
BLACK
6
CONTINUOUS
10
5.37697
20
-3.77559
11
5.39272
21
-3.79134
0
LINE
8
BLACK
6
CONTINUOUS
10
5.39272
20
-3.77559
11
5.37697
21
-3.79134
0
LINE
8
BLACK
6
CONTINUOUS
10
5.43406
20
-3.29921
11
5.4498
21
-3.31496
0
LINE
8
BLACK
6
CONTINUOUS
10
5.4498
20
-3.29921
11
5.43406
21
-3.31496
0
CIRCLE
8
BLACK
10
3.75846
20
-3.63386
40
0.015748
0
CIRCLE
8
BLACK
10
4.05846
20
-3.63386
40
0.015748
0
LINE
8
BLACK
6
CONTINUOUS
10
4.00197
20
-2.14272
11
4.00197
21
-2.18012
0
LINE
8
BLACK
6
CONTINUOUS
10
3.98327
20
-2.16142
11
4.02067
21
-2.16142
0
LINE
8
BLACK
6
CONTINUOUS
10
4.00197
20
-2.24114
11
4.00197
21
-2.27854
0
LINE
8
BLACK
6
CONTINUOUS
10
3.98327
20
-2.25984
11
4.02067
21
-2.25984
0
LINE
8
BLACK
6
CONTINUOUS
10
4.00197
20
-2.33957
11
4.00197
21
-2.37697
0
LINE
8
BLACK
6
CONTINUOUS
10
3.98327
20
-2.35827
11
4.02067
21
-2.35827
0
LINE
8
BLACK
6
CONTINUOUS
10
5.41043
20
-2.97047
11
5.41043
21
-3.00787
0
LINE
8
BLACK
6
CONTINUOUS
10
5.39173
20
-2.98917
11
5.42913
21
-2.98917
0
LINE
8
BLACK
6
CONTINUOUS
10
5.41043
20
-3.0689
11
5.41043
21
-3.1063
0
LINE
8
BLACK
6
CONTINUOUS
10
5.39173
20
-3.0876
11
5.42913
21
-3.0876
0
LINE
8
BLACK
6
CONTINUOUS
10
5.41043
20
-3.16732
11
5.41043
21
-3.20472
0
LINE
8
BLACK
6
CONTINUOUS
10
5.39173
20
-3.18602
11
5.42913
21
-3.18602
0
LINE
8
BLACK
6
CONTINUOUS
10
3.74227
20
-3.8525
11
3.74227
21
-3.82466
0
LINE
8
BLACK
6
CONTINUOUS
10
3.74227
20
-3.82466
11
3.71443
21
-3.82466
0
LINE
8
BLACK
6
CONTINUOUS
10
3.71443
20
-3.82466
11
3.71443
21
-3.8525
0
LINE
8
BLACK
6
CONTINUOUS
10
3.71443
20
-3.8525
11
3.74227
21
-3.8525
0
LINE
8
BLACK
6
CONTINUOUS
10
3.84227
20
-3.8525
11
3.84227
21
-3.82466
0
LINE
8
BLACK
6
CONTINUOUS
10
3.84227
20
-3.82466
11
3.81443
21
-3.82466
0
LINE
8
BLACK
6
CONTINUOUS
10
3.81443
20
-3.82466
11
3.81443
21
-3.8525
0
LINE
8
BLACK
6
CONTINUOUS
10
3.81443
20
-3.8525
11
3.84227
21
-3.8525
0
LINE
8
BLACK
6
CONTINUOUS
10
3.94227
20
-3.8525
11
3.94227
21
-3.82466
0
LINE
8
BLACK
6
CONTINUOUS
10
3.94227
20
-3.82466
11
3.91443
21
-3.82466
0
LINE
8
BLACK
6
CONTINUOUS
10
3.91443
20
-3.82466
11
3.91443
21
-3.8525
0
LINE
8
BLACK
6
CONTINUOUS
10
3.91443
20
-3.8525
11
3.94227
21
-3.8525
0
LINE
8
BLACK
6
CONTINUOUS
10
4.04227
20
-3.8525
11
4.04227
21
-3.82466
0
LINE
8
BLACK
6
CONTINUOUS
10
4.04227
20
-3.82466
11
4.01443
21
-3.82466
0
LINE
8
BLACK
6
CONTINUOUS
10
4.01443
20
-3.82466
11
4.01443
21
-3.8525
0
LINE
8
BLACK
6
CONTINUOUS
10
4.01443
20
-3.8525
11
4.04227
21
-3.8525
0
LINE
8
BLACK
6
CONTINUOUS
10
4.73124
20
-2.21864
11
4.73124
21
-2.1908
0
LINE
8
BLACK
6
CONTINUOUS
10
4.73124
20
-2.1908
11
4.7034
21
-2.1908
0
LINE
8
BLACK
6
CONTINUOUS
10
4.7034
20
-2.1908
11
4.7034
21
-2.21864
0
LINE
8
BLACK
6
CONTINUOUS
10
4.7034
20
-2.21864
11
4.73124
21
-2.21864
0
LINE
8
BLACK
6
CONTINUOUS
10
4.76097
20
-2.74522
11
4.76097
21
-2.71738
0
LINE
8
BLACK
6
CONTINUOUS
10
4.76097
20
-2.71738
11
4.73313
21
-2.71738
0
LINE
8
BLACK
6
CONTINUOUS
10
4.73313
20
-2.71738
11
4.73313
21
-2.74522
0
LINE
8
BLACK
6
CONTINUOUS
10
4.73313
20
-2.74522
11
4.76097
21
-2.74522
0
LINE
8
BLACK
6
CONTINUOUS
10
4.76097
20
-2.84522
11
4.76097
21
-2.81738
0
LINE
8
BLACK
6
CONTINUOUS
10
4.76097
20
-2.81738
11
4.73313
21
-2.81738
0
LINE
8
BLACK
6
CONTINUOUS
10
4.73313
20
-2.81738
11
4.73313
21
-2.84522
0
LINE
8
BLACK
6
CONTINUOUS
10
4.73313
20
-2.84522
11
4.76097
21
-2.84522
0
LINE
8
BLACK
6
CONTINUOUS
10
4.76097
20
-2.94522
11
4.76097
21
-2.91738
0
LINE
8
BLACK
6
CONTINUOUS
10
4.76097
20
-2.91738
11
4.73313
21
-2.91738
0
LINE
8
BLACK
6
CONTINUOUS
10
4.73313
20
-2.91738
11
4.73313
21
-2.94522
0
LINE
8
BLACK
6
CONTINUOUS
10
4.73313
20
-2.94522
11
4.76097
21
-2.94522
0
LINE
8
BLACK
6
CONTINUOUS
10
4.76097
20
-3.04522
11
4.76097
21
-3.01738
0
LINE
8
BLACK
6
CONTINUOUS
10
4.76097
20
-3.01738
11
4.73313
21
-3.01738
0
LINE
8
BLACK
6
CONTINUOUS
10
4.73313
20
-3.01738
11
4.73313
21
-3.04522
0
LINE
8
BLACK
6
CONTINUOUS
10
4.73313
20
-3.04522
11
4.76097
21
-3.04522
0
LINE
8
BLACK
6
CONTINUOUS
10
4.76097
20
-3.14522
11
4.76097
21
-3.11738
0
LINE
8
BLACK
6
CONTINUOUS
10
4.76097
20
-3.11738
11
4.73313
21
-3.11738
0
LINE
8
BLACK
6
CONTINUOUS
10
4.73313
20
-3.11738
11
4.73313
21
-3.14522
0
LINE
8
BLACK
6
CONTINUOUS
10
4.73313
20
-3.14522
11
4.76097
21
-3.14522
0
LINE
8
BLACK
6
CONTINUOUS
10
4.76097
20
-3.24522
11
4.76097
21
-3.21738
0
LINE
8
BLACK
6
CONTINUOUS
10
4.76097
20
-3.21738
11
4.73313
21
-3.21738
0
LINE
8
BLACK
6
CONTINUOUS
10
4.73313
20
-3.21738
11
4.73313
21
-3.24522
0
LINE
8
BLACK
6
CONTINUOUS
10
4.73313
20
-3.24522
11
4.76097
21
-3.24522
0
LINE
8
BLACK
6
CONTINUOUS
10
4.83124
20
-2.21864
11
4.83124
21
-2.1908
0
LINE
8
BLACK
6
CONTINUOUS
10
4.83124
20
-2.1908
11
4.8034
21
-2.1908
0
LINE
8
BLACK
6
CONTINUOUS
10
4.8034
20
-2.1908
11
4.8034
21
-2.21864
0
LINE
8
BLACK
6
CONTINUOUS
10
4.8034
20
-2.21864
11
4.83124
21
-2.21864
0
LINE
8
BLACK
6
CONTINUOUS
10
4.93124
20
-2.21864
11
4.93124
21
-2.1908
0
LINE
8
BLACK
6
CONTINUOUS
10
4.93124
20
-2.1908
11
4.9034
21
-2.1908
0
LINE
8
BLACK
6
CONTINUOUS
10
4.9034
20
-2.1908
11
4.9034
21
-2.21864
0
LINE
8
BLACK
6
CONTINUOUS
10
4.9034
20
-2.21864
11
4.93124
21
-2.21864
0
LINE
8
BLACK
6
CONTINUOUS
10
5.10526
20
-2.21864
11
5.10526
21
-2.1908
0
LINE
8
BLACK
6
CONTINUOUS
10
5.10526
20
-2.1908
11
5.07742
21
-2.1908
0
LINE
8
BLACK
6
CONTINUOUS
10
5.07742
20
-2.1908
11
5.07742
21
-2.21864
0
LINE
8
BLACK
6
CONTINUOUS
10
5.07742
20
-2.21864
11
5.10526
21
-2.21864
0
LINE
8
BLACK
6
CONTINUOUS
10
5.20526
20
-2.21864
11
5.20526
21
-2.1908
0
LINE
8
BLACK
6
CONTINUOUS
10
5.20526
20
-2.1908
11
5.17742
21
-2.1908
0
LINE
8
BLACK
6
CONTINUOUS
10
5.17742
20
-2.1908
11
5.17742
21
-2.21864
0
LINE
8
BLACK
6
CONTINUOUS
10
5.17742
20
-2.21864
11
5.20526
21
-2.21864
0
LINE
8
BLACK
6
CONTINUOUS
10
5.30526
20
-2.21864
11
5.30526
21
-2.1908
0
LINE
8
BLACK
6
CONTINUOUS
10
5.30526
20
-2.1908
11
5.27742
21
-2.1908
0
LINE
8
BLACK
6
CONTINUOUS
10
5.27742
20
-2.1908
11
5.27742
21
-2.21864
0
LINE
8
BLACK
6
CONTINUOUS
10
5.27742
20
-2.21864
11
5.30526
21
-2.21864
0
LINE
8
BLACK
6
CONTINUOUS
10
3.60733
20
-4.04528
11
3.60733
21
-3.96654
0
LINE
8
BLACK
6
CONTINUOUS
10
3.60733
20
-3.96654
11
3.62608
21
-3.96654
0
LINE
8
BLACK
6
CONTINUOUS
10
3.62608
20
-3.96654
11
3.63733
21
-3.97029
0
LINE
8
BLACK
6
CONTINUOUS
10
3.63733
20
-3.97029
11
3.64483
21
-3.97779
0
LINE
8
BLACK
6
CONTINUOUS
10
3.64483
20
-3.97779
11
3.64858
21
-3.98529
0
LINE
8
BLACK
6
CONTINUOUS
10
3.64858
20
-3.98529
11
3.65232
21
-4.00029
0
LINE
8
BLACK
6
CONTINUOUS
10
3.65232
20
-4.00029
11
3.65232
21
-4.01154
0
LINE
8
BLACK
6
CONTINUOUS
10
3.65232
20
-4.01154
11
3.64858
21
-4.02654
0
LINE
8
BLACK
6
CONTINUOUS
10
3.64858
20
-4.02654
11
3.64483
21
-4.03404
0
LINE
8
BLACK
6
CONTINUOUS
10
3.64483
20
-4.03404
11
3.63733
21
-4.04154
0
LINE
8
BLACK
6
CONTINUOUS
10
3.63733
20
-4.04154
11
3.62608
21
-4.04528
0
LINE
8
BLACK
6
CONTINUOUS
10
3.62608
20
-4.04528
11
3.60733
21
-4.04528
0
LINE
8
BLACK
6
CONTINUOUS
10
3.68607
20
-4.04528
11
3.68607
21
-3.99279
0
LINE
8
BLACK
6
CONTINUOUS
10
3.68607
20
-4.00779
11
3.68982
21
-4.00029
0
LINE
8
BLACK
6
CONTINUOUS
10
3.68982
20
-4.00029
11
3.69357
21
-3.99654
0
LINE
8
BLACK
6
CONTINUOUS
10
3.69357
20
-3.99654
11
3.70107
21
-3.99279
0
LINE
8
BLACK
6
CONTINUOUS
10
3.70107
20
-3.99279
11
3.70857
21
-3.99279
0
LINE
8
BLACK
6
CONTINUOUS
10
3.73481
20
-4.04528
11
3.73481
21
-3.99279
0
LINE
8
BLACK
6
CONTINUOUS
10
3.73481
20
-3.96654
11
3.73106
21
-3.97029
0
LINE
8
BLACK
6
CONTINUOUS
10
3.73106
20
-3.97029
11
3.73481
21
-3.97404
0
LINE
8
BLACK
6
CONTINUOUS
10
3.73481
20
-3.97404
11
3.73856
21
-3.97029
0
LINE
8
BLACK
6
CONTINUOUS
10
3.73856
20
-3.97029
11
3.73481
21
-3.96654
0
LINE
8
BLACK
6
CONTINUOUS
10
3.73481
20
-3.96654
11
3.73481
21
-3.97404
0
LINE
8
BLACK
6
CONTINUOUS
10
3.78356
20
-4.04528
11
3.77606
21
-4.04154
0
LINE
8
BLACK
6
CONTINUOUS
10
3.77606
20
-4.04154
11
3.77231
21
-4.03404
0
LINE
8
BLACK
6
CONTINUOUS
10
3.77231
20
-4.03404
11
3.77231
21
-3.96654
0
LINE
8
BLACK
6
CONTINUOUS
10
3.8248
20
-4.04528
11
3.8173
21
-4.04154
0
LINE
8
BLACK
6
CONTINUOUS
10
3.8173
20
-4.04154
11
3.81355
21
-4.03404
0
LINE
8
BLACK
6
CONTINUOUS
10
3.81355
20
-4.03404
11
3.81355
21
-3.96654
0
LINE
8
BLACK
6
CONTINUOUS
10
3.91479
20
-4.04528
11
3.91479
21
-3.96654
0
LINE
8
BLACK
6
CONTINUOUS
10
3.91479
20
-3.96654
11
3.94104
21
-4.02279
0
LINE
8
BLACK
6
CONTINUOUS
10
3.94104
20
-4.02279
11
3.96729
21
-3.96654
0
LINE
8
BLACK
6
CONTINUOUS
10
3.96729
20
-3.96654
11
3.96729
21
-4.04528
0
LINE
8
BLACK
6
CONTINUOUS
10
4.03853
20
-4.04528
11
4.03853
21
-4.00404
0
LINE
8
BLACK
6
CONTINUOUS
10
4.03853
20
-4.00404
11
4.03478
21
-3.99654
0
LINE
8
BLACK
6
CONTINUOUS
10
4.03478
20
-3.99654
11
4.02728
21
-3.99279
0
LINE
8
BLACK
6
CONTINUOUS
10
4.02728
20
-3.99279
11
4.01228
21
-3.99279
0
LINE
8
BLACK
6
CONTINUOUS
10
4.01228
20
-3.99279
11
4.00478
21
-3.99654
0
LINE
8
BLACK
6
CONTINUOUS
10
4.03853
20
-4.04154
11
4.03103
21
-4.04528
0
LINE
8
BLACK
6
CONTINUOUS
10
4.03103
20
-4.04528
11
4.01228
21
-4.04528
0
LINE
8
BLACK
6
CONTINUOUS
10
4.01228
20
-4.04528
11
4.00478
21
-4.04154
0
LINE
8
BLACK
6
CONTINUOUS
10
4.00478
20
-4.04154
11
4.00103
21
-4.03404
0
LINE
8
BLACK
6
CONTINUOUS
10
4.00103
20
-4.03404
11
4.00103
21
-4.02654
0
LINE
8
BLACK
6
CONTINUOUS
10
4.00103
20
-4.02654
11
4.00478
21
-4.01904
0
LINE
8
BLACK
6
CONTINUOUS
10
4.00478
20
-4.01904
11
4.01228
21
-4.01529
0
LINE
8
BLACK
6
CONTINUOUS
10
4.01228
20
-4.01529
11
4.03103
21
-4.01529
0
LINE
8
BLACK
6
CONTINUOUS
10
4.03103
20
-4.01529
11
4.03853
21
-4.01154
0
LINE
8
BLACK
6
CONTINUOUS
10
4.07602
20
-3.99279
11
4.07602
21
-4.07153
0
LINE
8
BLACK
6
CONTINUOUS
10
4.07602
20
-3.99654
11
4.08352
21
-3.99279
0
LINE
8
BLACK
6
CONTINUOUS
10
4.08352
20
-3.99279
11
4.09852
21
-3.99279
0
LINE
8
BLACK
6
CONTINUOUS
10
4.09852
20
-3.99279
11
4.10602
21
-3.99654
0
LINE
8
BLACK
6
CONTINUOUS
10
4.10602
20
-3.99654
11
4.10977
21
-4.00029
0
LINE
8
BLACK
6
CONTINUOUS
10
4.10977
20
-4.00029
11
4.11352
21
-4.00779
0
LINE
8
BLACK
6
CONTINUOUS
10
4.11352
20
-4.00779
11
4.11352
21
-4.03029
0
LINE
8
BLACK
6
CONTINUOUS
10
4.11352
20
-4.03029
11
4.10977
21
-4.03779
0
LINE
8
BLACK
6
CONTINUOUS
10
4.10977
20
-4.03779
11
4.10602
21
-4.04154
0
LINE
8
BLACK
6
CONTINUOUS
10
4.10602
20
-4.04154
11
4.09852
21
-4.04528
0
LINE
8
BLACK
6
CONTINUOUS
10
4.09852
20
-4.04528
11
4.08352
21
-4.04528
0
LINE
8
BLACK
6
CONTINUOUS
10
4.08352
20
-4.04528
11
4.07602
21
-4.04154
0
LINE
8
BLACK
6
CONTINUOUS
10
4.14726
20
-4.03779
11
4.15101
21
-4.04154
0
LINE
8
BLACK
6
CONTINUOUS
10
4.15101
20
-4.04154
11
4.14726
21
-4.04528
0
LINE
8
BLACK
6
CONTINUOUS
10
4.14726
20
-4.04528
11
4.14351
21
-4.04154
0
LINE
8
BLACK
6
CONTINUOUS
10
4.14351
20
-4.04154
11
4.14726
21
-4.03779
0
LINE
8
BLACK
6
CONTINUOUS
10
4.14726
20
-4.03779
11
4.14726
21
-4.04528
0
LINE
8
BLACK
6
CONTINUOUS
10
4.14726
20
-3.99654
11
4.15101
21
-4.00029
0
LINE
8
BLACK
6
CONTINUOUS
10
4.15101
20
-4.00029
11
4.14726
21
-4.00404
0
LINE
8
BLACK
6
CONTINUOUS
10
4.14726
20
-4.00404
11
4.14351
21
-4.00029
0
LINE
8
BLACK
6
CONTINUOUS
10
4.14351
20
-4.00029
11
4.14726
21
-3.99654
0
LINE
8
BLACK
6
CONTINUOUS
10
4.14726
20
-3.99654
11
4.14726
21
-4.00404
0
LINE
8
BLACK
6
CONTINUOUS
10
3.49409
20
-4.16634
11
3.50984
21
-4.18209
0
LINE
8
BLACK
6
CONTINUOUS
10
3.50984
20
-4.16634
11
3.49409
21
-4.18209
0
LINE
8
BLACK
6
CONTINUOUS
10
3.62233
20
-4.1319
11
3.62983
21
-4.1319
0
LINE
8
BLACK
6
CONTINUOUS
10
3.62983
20
-4.1319
11
3.63733
21
-4.13565
0
LINE
8
BLACK
6
CONTINUOUS
10
3.63733
20
-4.13565
11
3.64108
21
-4.1394
0
LINE
8
BLACK
6
CONTINUOUS
10
3.64108
20
-4.1394
11
3.64483
21
-4.1469
0
LINE
8
BLACK
6
CONTINUOUS
10
3.64483
20
-4.1469
11
3.64858
21
-4.1619
0
LINE
8
BLACK
6
CONTINUOUS
10
3.64858
20
-4.1619
11
3.64858
21
-4.18064
0
LINE
8
BLACK
6
CONTINUOUS
10
3.64858
20
-4.18064
11
3.64483
21
-4.19564
0
LINE
8
BLACK
6
CONTINUOUS
10
3.64483
20
-4.19564
11
3.64108
21
-4.20314
0
LINE
8
BLACK
6
CONTINUOUS
10
3.64108
20
-4.20314
11
3.63733
21
-4.20689
0
LINE
8
BLACK
6
CONTINUOUS
10
3.63733
20
-4.20689
11
3.62983
21
-4.21064
0
LINE
8
BLACK
6
CONTINUOUS
10
3.62983
20
-4.21064
11
3.62233
21
-4.21064
0
LINE
8
BLACK
6
CONTINUOUS
10
3.62233
20
-4.21064
11
3.61483
21
-4.20689
0
LINE
8
BLACK
6
CONTINUOUS
10
3.61483
20
-4.20689
11
3.61108
21
-4.20314
0
LINE
8
BLACK
6
CONTINUOUS
10
3.61108
20
-4.20314
11
3.60733
21
-4.19564
0
LINE
8
BLACK
6
CONTINUOUS
10
3.60733
20
-4.19564
11
3.60358
21
-4.18064
0
LINE
8
BLACK
6
CONTINUOUS
10
3.60358
20
-4.18064
11
3.60358
21
-4.1619
0
LINE
8
BLACK
6
CONTINUOUS
10
3.60358
20
-4.1619
11
3.60733
21
-4.1469
0
LINE
8
BLACK
6
CONTINUOUS
10
3.60733
20
-4.1469
11
3.61108
21
-4.1394
0
LINE
8
BLACK
6
CONTINUOUS
10
3.61108
20
-4.1394
11
3.61483
21
-4.13565
0
LINE
8
BLACK
6
CONTINUOUS
10
3.61483
20
-4.13565
11
3.62233
21
-4.1319
0
LINE
8
BLACK
6
CONTINUOUS
10
3.68232
20
-4.20314
11
3.68607
21
-4.20689
0
LINE
8
BLACK
6
CONTINUOUS
10
3.68607
20
-4.20689
11
3.68232
21
-4.21064
0
LINE
8
BLACK
6
CONTINUOUS
10
3.68232
20
-4.21064
11
3.67857
21
-4.20689
0
LINE
8
BLACK
6
CONTINUOUS
10
3.67857
20
-4.20689
11
3.68232
21
-4.20314
0
LINE
8
BLACK
6
CONTINUOUS
10
3.68232
20
-4.20314
11
3.68232
21
-4.21064
0
LINE
8
BLACK
6
CONTINUOUS
10
3.75356
20
-4.15815
11
3.75356
21
-4.21064
0
LINE
8
BLACK
6
CONTINUOUS
10
3.73481
20
-4.12815
11
3.71607
21
-4.18439
0
LINE
8
BLACK
6
CONTINUOUS
10
3.71607
20
-4.18439
11
3.76481
21
-4.18439
0
LINE
8
BLACK
6
CONTINUOUS
10
3.8098
20
-4.1319
11
3.8173
21
-4.1319
0
LINE
8
BLACK
6
CONTINUOUS
10
3.8173
20
-4.1319
11
3.8248
21
-4.13565
0
LINE
8
BLACK
6
CONTINUOUS
10
3.8248
20
-4.13565
11
3.82855
21
-4.1394
0
LINE
8
BLACK
6
CONTINUOUS
10
3.82855
20
-4.1394
11
3.8323
21
-4.1469
0
LINE
8
BLACK
6
CONTINUOUS
10
3.8323
20
-4.1469
11
3.83605
21
-4.1619
0
LINE
8
BLACK
6
CONTINUOUS
10
3.83605
20
-4.1619
11
3.83605
21
-4.18064
0
LINE
8
BLACK
6
CONTINUOUS
10
3.83605
20
-4.18064
11
3.8323
21
-4.19564
0
LINE
8
BLACK
6
CONTINUOUS
10
3.8323
20
-4.19564
11
3.82855
21
-4.20314
0
LINE
8
BLACK
6
CONTINUOUS
10
3.82855
20
-4.20314
11
3.8248
21
-4.20689
0
LINE
8
BLACK
6
CONTINUOUS
10
3.8248
20
-4.20689
11
3.8173
21
-4.21064
0
LINE
8
BLACK
6
CONTINUOUS
10
3.8173
20
-4.21064
11
3.8098
21
-4.21064
0
LINE
8
BLACK
6
CONTINUOUS
10
3.8098
20
-4.21064
11
3.80231
21
-4.20689
0
LINE
8
BLACK
6
CONTINUOUS
10
3.80231
20
-4.20689
11
3.79856
21
-4.20314
0
LINE
8
BLACK
6
CONTINUOUS
10
3.79856
20
-4.20314
11
3.79481
21
-4.19564
0
LINE
8
BLACK
6
CONTINUOUS
10
3.79481
20
-4.19564
11
3.79106
21
-4.18064
0
LINE
8
BLACK
6
CONTINUOUS
10
3.79106
20
-4.18064
11
3.79106
21
-4.1619
0
LINE
8
BLACK
6
CONTINUOUS
10
3.79106
20
-4.1619
11
3.79481
21
-4.1469
0
LINE
8
BLACK
6
CONTINUOUS
10
3.79481
20
-4.1469
11
3.79856
21
-4.1394
0
LINE
8
BLACK
6
CONTINUOUS
10
3.79856
20
-4.1394
11
3.80231
21
-4.13565
0
LINE
8
BLACK
6
CONTINUOUS
10
3.80231
20
-4.13565
11
3.8098
21
-4.1319
0
LINE
8
BLACK
6
CONTINUOUS
10
3.8848
20
-4.1319
11
3.89229
21
-4.1319
0
LINE
8
BLACK
6
CONTINUOUS
10
3.89229
20
-4.1319
11
3.89979
21
-4.13565
0
LINE
8
BLACK
6
CONTINUOUS
10
3.89979
20
-4.13565
11
3.90354
21
-4.1394
0
LINE
8
BLACK
6
CONTINUOUS
10
3.90354
20
-4.1394
11
3.90729
21
-4.1469
0
LINE
8
BLACK
6
CONTINUOUS
10
3.90729
20
-4.1469
11
3.91104
21
-4.1619
0
LINE
8
BLACK
6
CONTINUOUS
10
3.91104
20
-4.1619
11
3.91104
21
-4.18064
0
LINE
8
BLACK
6
CONTINUOUS
10
3.91104
20
-4.18064
11
3.90729
21
-4.19564
0
LINE
8
BLACK
6
CONTINUOUS
10
3.90729
20
-4.19564
11
3.90354
21
-4.20314
0
LINE
8
BLACK
6
CONTINUOUS
10
3.90354
20
-4.20314
11
3.89979
21
-4.20689
0
LINE
8
BLACK
6
CONTINUOUS
10
3.89979
20
-4.20689
11
3.89229
21
-4.21064
0
LINE
8
BLACK
6
CONTINUOUS
10
3.89229
20
-4.21064
11
3.8848
21
-4.21064
0
LINE
8
BLACK
6
CONTINUOUS
10
3.8848
20
-4.21064
11
3.8773
21
-4.20689
0
LINE
8
BLACK
6
CONTINUOUS
10
3.8773
20
-4.20689
11
3.87355
21
-4.20314
0
LINE
8
BLACK
6
CONTINUOUS
10
3.87355
20
-4.20314
11
3.8698
21
-4.19564
0
LINE
8
BLACK
6
CONTINUOUS
10
3.8698
20
-4.19564
11
3.86605
21
-4.18064
0
LINE
8
BLACK
6
CONTINUOUS
10
3.86605
20
-4.18064
11
3.86605
21
-4.1619
0
LINE
8
BLACK
6
CONTINUOUS
10
3.86605
20
-4.1619
11
3.8698
21
-4.1469
0
LINE
8
BLACK
6
CONTINUOUS
10
3.8698
20
-4.1469
11
3.87355
21
-4.1394
0
LINE
8
BLACK
6
CONTINUOUS
10
3.87355
20
-4.1394
11
3.8773
21
-4.13565
0
LINE
8
BLACK
6
CONTINUOUS
10
3.8773
20
-4.13565
11
3.8848
21
-4.1319
0
LINE
8
BLACK
6
CONTINUOUS
10
3.94479
20
-4.21064
11
3.94479
21
-4.15815
0
LINE
8
BLACK
6
CONTINUOUS
10
3.94479
20
-4.16564
11
3.94854
21
-4.1619
0
LINE
8
BLACK
6
CONTINUOUS
10
3.94854
20
-4.1619
11
3.95604
21
-4.15815
0
LINE
8
BLACK
6
CONTINUOUS
10
3.95604
20
-4.15815
11
3.96729
21
-4.15815
0
LINE
8
BLACK
6
CONTINUOUS
10
3.96729
20
-4.15815
11
3.97478
21
-4.1619
0
LINE
8
BLACK
6
CONTINUOUS
10
3.97478
20
-4.1619
11
3.97853
21
-4.16939
0
LINE
8
BLACK
6
CONTINUOUS
10
3.97853
20
-4.16939
11
3.97853
21
-4.21064
0
LINE
8
BLACK
6
CONTINUOUS
10
3.97853
20
-4.16939
11
3.98228
21
-4.1619
0
LINE
8
BLACK
6
CONTINUOUS
10
3.98228
20
-4.1619
11
3.98978
21
-4.15815
0
LINE
8
BLACK
6
CONTINUOUS
10
3.98978
20
-4.15815
11
4.00103
21
-4.15815
0
LINE
8
BLACK
6
CONTINUOUS
10
4.00103
20
-4.15815
11
4.00853
21
-4.1619
0
LINE
8
BLACK
6
CONTINUOUS
10
4.00853
20
-4.1619
11
4.01228
21
-4.16939
0
LINE
8
BLACK
6
CONTINUOUS
10
4.01228
20
-4.16939
11
4.01228
21
-4.21064
0
LINE
8
BLACK
6
CONTINUOUS
10
4.04978
20
-4.21064
11
4.04978
21
-4.15815
0
LINE
8
BLACK
6
CONTINUOUS
10
4.04978
20
-4.16564
11
4.05352
21
-4.1619
0
LINE
8
BLACK
6
CONTINUOUS
10
4.05352
20
-4.1619
11
4.06102
21
-4.15815
0
LINE
8
BLACK
6
CONTINUOUS
10
4.06102
20
-4.15815
11
4.07227
21
-4.15815
0
LINE
8
BLACK
6
CONTINUOUS
10
4.07227
20
-4.15815
11
4.07977
21
-4.1619
0
LINE
8
BLACK
6
CONTINUOUS
10
4.07977
20
-4.1619
11
4.08352
21
-4.16939
0
LINE
8
BLACK
6
CONTINUOUS
10
4.08352
20
-4.16939
11
4.08352
21
-4.21064
0
LINE
8
BLACK
6
CONTINUOUS
10
4.08352
20
-4.16939
11
4.08727
21
-4.1619
0
LINE
8
BLACK
6
CONTINUOUS
10
4.08727
20
-4.1619
11
4.09477
21
-4.15815
0
LINE
8
BLACK
6
CONTINUOUS
10
4.09477
20
-4.15815
11
4.10602
21
-4.15815
0
LINE
8
BLACK
6
CONTINUOUS
10
4.10602
20
-4.15815
11
4.11352
21
-4.1619
0
LINE
8
BLACK
6
CONTINUOUS
10
4.11352
20
-4.1619
11
4.11727
21
-4.16939
0
LINE
8
BLACK
6
CONTINUOUS
10
4.11727
20
-4.16939
11
4.11727
21
-4.21064
0
LINE
8
BLACK
6
CONTINUOUS
10
4.271
20
-4.12815
11
4.20351
21
-4.22939
0
LINE
8
BLACK
6
CONTINUOUS
10
4.37223
20
-4.1319
11
4.37973
21
-4.1319
0
LINE
8
BLACK
6
CONTINUOUS
10
4.37973
20
-4.1319
11
4.38723
21
-4.13565
0
LINE
8
BLACK
6
CONTINUOUS
10
4.38723
20
-4.13565
11
4.39098
21
-4.1394
0
LINE
8
BLACK
6
CONTINUOUS
10
4.39098
20
-4.1394
11
4.39473
21
-4.1469
0
LINE
8
BLACK
6
CONTINUOUS
10
4.39473
20
-4.1469
11
4.39848
21
-4.1619
0
LINE
8
BLACK
6
CONTINUOUS
10
4.39848
20
-4.1619
11
4.39848
21
-4.18064
0
LINE
8
BLACK
6
CONTINUOUS
10
4.39848
20
-4.18064
11
4.39473
21
-4.19564
0
LINE
8
BLACK
6
CONTINUOUS
10
4.39473
20
-4.19564
11
4.39098
21
-4.20314
0
LINE
8
BLACK
6
CONTINUOUS
10
4.39098
20
-4.20314
11
4.38723
21
-4.20689
0
LINE
8
BLACK
6
CONTINUOUS
10
4.38723
20
-4.20689
11
4.37973
21
-4.21064
0
LINE
8
BLACK
6
CONTINUOUS
10
4.37973
20
-4.21064
11
4.37223
21
-4.21064
0
LINE
8
BLACK
6
CONTINUOUS
10
4.37223
20
-4.21064
11
4.36474
21
-4.20689
0
LINE
8
BLACK
6
CONTINUOUS
10
4.36474
20
-4.20689
11
4.36099
21
-4.20314
0
LINE
8
BLACK
6
CONTINUOUS
10
4.36099
20
-4.20314
11
4.35724
21
-4.19564
0
LINE
8
BLACK
6
CONTINUOUS
10
4.35724
20
-4.19564
11
4.35349
21
-4.18064
0
LINE
8
BLACK
6
CONTINUOUS
10
4.35349
20
-4.18064
11
4.35349
21
-4.1619
0
LINE
8
BLACK
6
CONTINUOUS
10
4.35349
20
-4.1619
11
4.35724
21
-4.1469
0
LINE
8
BLACK
6
CONTINUOUS
10
4.35724
20
-4.1469
11
4.36099
21
-4.1394
0
LINE
8
BLACK
6
CONTINUOUS
10
4.36099
20
-4.1394
11
4.36474
21
-4.13565
0
LINE
8
BLACK
6
CONTINUOUS
10
4.36474
20
-4.13565
11
4.37223
21
-4.1319
0
LINE
8
BLACK
6
CONTINUOUS
10
4.43223
20
-4.20314
11
4.43598
21
-4.20689
0
LINE
8
BLACK
6
CONTINUOUS
10
4.43598
20
-4.20689
11
4.43223
21
-4.21064
0
LINE
8
BLACK
6
CONTINUOUS
10
4.43223
20
-4.21064
11
4.42848
21
-4.20689
0
LINE
8
BLACK
6
CONTINUOUS
10
4.42848
20
-4.20689
11
4.43223
21
-4.20314
0
LINE
8
BLACK
6
CONTINUOUS
10
4.43223
20
-4.20314
11
4.43223
21
-4.21064
0
LINE
8
BLACK
6
CONTINUOUS
10
4.48472
20
-4.1319
11
4.49222
21
-4.1319
0
LINE
8
BLACK
6
CONTINUOUS
10
4.49222
20
-4.1319
11
4.49972
21
-4.13565
0
LINE
8
BLACK
6
CONTINUOUS
10
4.49972
20
-4.13565
11
4.50347
21
-4.1394
0
LINE
8
BLACK
6
CONTINUOUS
10
4.50347
20
-4.1394
11
4.50722
21
-4.1469
0
LINE
8
BLACK
6
CONTINUOUS
10
4.50722
20
-4.1469
11
4.51097
21
-4.1619
0
LINE
8
BLACK
6
CONTINUOUS
10
4.51097
20
-4.1619
11
4.51097
21
-4.18064
0
LINE
8
BLACK
6
CONTINUOUS
10
4.51097
20
-4.18064
11
4.50722
21
-4.19564
0
LINE
8
BLACK
6
CONTINUOUS
10
4.50722
20
-4.19564
11
4.50347
21
-4.20314
0
LINE
8
BLACK
6
CONTINUOUS
10
4.50347
20
-4.20314
11
4.49972
21
-4.20689
0
LINE
8
BLACK
6
CONTINUOUS
10
4.49972
20
-4.20689
11
4.49222
21
-4.21064
0
LINE
8
BLACK
6
CONTINUOUS
10
4.49222
20
-4.21064
11
4.48472
21
-4.21064
0
LINE
8
BLACK
6
CONTINUOUS
10
4.48472
20
-4.21064
11
4.47722
21
-4.20689
0
LINE
8
BLACK
6
CONTINUOUS
10
4.47722
20
-4.20689
11
4.47347
21
-4.20314
0
LINE
8
BLACK
6
CONTINUOUS
10
4.47347
20
-4.20314
11
4.46972
21
-4.19564
0
LINE
8
BLACK
6
CONTINUOUS
10
4.46972
20
-4.19564
11
4.46597
21
-4.18064
0
LINE
8
BLACK
6
CONTINUOUS
10
4.46597
20
-4.18064
11
4.46597
21
-4.1619
0
LINE
8
BLACK
6
CONTINUOUS
10
4.46597
20
-4.1619
11
4.46972
21
-4.1469
0
LINE
8
BLACK
6
CONTINUOUS
10
4.46972
20
-4.1469
11
4.47347
21
-4.1394
0
LINE
8
BLACK
6
CONTINUOUS
10
4.47347
20
-4.1394
11
4.47722
21
-4.13565
0
LINE
8
BLACK
6
CONTINUOUS
10
4.47722
20
-4.13565
11
4.48472
21
-4.1319
0
LINE
8
BLACK
6
CONTINUOUS
10
4.58596
20
-4.21064
11
4.54096
21
-4.21064
0
LINE
8
BLACK
6
CONTINUOUS
10
4.56346
20
-4.21064
11
4.56346
21
-4.1319
0
LINE
8
BLACK
6
CONTINUOUS
10
4.56346
20
-4.1319
11
4.55596
21
-4.14315
0
LINE
8
BLACK
6
CONTINUOUS
10
4.55596
20
-4.14315
11
4.54846
21
-4.15065
0
LINE
8
BLACK
6
CONTINUOUS
10
4.54846
20
-4.15065
11
4.54096
21
-4.1544
0
LINE
8
BLACK
6
CONTINUOUS
10
4.6572
20
-4.1319
11
4.6197
21
-4.1319
0
LINE
8
BLACK
6
CONTINUOUS
10
4.6197
20
-4.1319
11
4.61595
21
-4.16939
0
LINE
8
BLACK
6
CONTINUOUS
10
4.61595
20
-4.16939
11
4.6197
21
-4.16564
0
LINE
8
BLACK
6
CONTINUOUS
10
4.6197
20
-4.16564
11
4.6272
21
-4.1619
0
LINE
8
BLACK
6
CONTINUOUS
10
4.6272
20
-4.1619
11
4.64595
21
-4.1619
0
LINE
8
BLACK
6
CONTINUOUS
10
4.64595
20
-4.1619
11
4.65345
21
-4.16564
0
LINE
8
BLACK
6
CONTINUOUS
10
4.65345
20
-4.16564
11
4.6572
21
-4.16939
0
LINE
8
BLACK
6
CONTINUOUS
10
4.6572
20
-4.16939
11
4.66095
21
-4.17689
0
LINE
8
BLACK
6
CONTINUOUS
10
4.66095
20
-4.17689
11
4.66095
21
-4.19564
0
LINE
8
BLACK
6
CONTINUOUS
10
4.66095
20
-4.19564
11
4.6572
21
-4.20314
0
LINE
8
BLACK
6
CONTINUOUS
10
4.6572
20
-4.20314
11
4.65345
21
-4.20689
0
LINE
8
BLACK
6
CONTINUOUS
10
4.65345
20
-4.20689
11
4.64595
21
-4.21064
0
LINE
8
BLACK
6
CONTINUOUS
10
4.64595
20
-4.21064
11
4.6272
21
-4.21064
0
LINE
8
BLACK
6
CONTINUOUS
10
4.6272
20
-4.21064
11
4.6197
21
-4.20689
0
LINE
8
BLACK
6
CONTINUOUS
10
4.6197
20
-4.20689
11
4.61595
21
-4.20314
0
LINE
8
BLACK
6
CONTINUOUS
10
4.6872
20
-4.1319
11
4.73969
21
-4.1319
0
LINE
8
BLACK
6
CONTINUOUS
10
4.73969
20
-4.1319
11
4.70594
21
-4.21064
0
LINE
8
BLACK
6
CONTINUOUS
10
4.76594
20
-4.1319
11
4.76594
21
-4.1469
0
LINE
8
BLACK
6
CONTINUOUS
10
4.79593
20
-4.1319
11
4.79593
21
-4.1469
0
LINE
8
BLACK
6
CONTINUOUS
10
4.91217
20
-4.24064
11
4.90842
21
-4.23689
0
LINE
8
BLACK
6
CONTINUOUS
10
4.90842
20
-4.23689
11
4.90092
21
-4.22564
0
LINE
8
BLACK
6
CONTINUOUS
10
4.90092
20
-4.22564
11
4.89717
21
-4.21814
0
LINE
8
BLACK
6
CONTINUOUS
10
4.89717
20
-4.21814
11
4.89342
21
-4.20689
0
LINE
8
BLACK
6
CONTINUOUS
10
4.89342
20
-4.20689
11
4.88967
21
-4.18814
0
LINE
8
BLACK
6
CONTINUOUS
10
4.88967
20
-4.18814
11
4.88967
21
-4.17314
0
LINE
8
BLACK
6
CONTINUOUS
10
4.88967
20
-4.17314
11
4.89342
21
-4.1544
0
LINE
8
BLACK
6
CONTINUOUS
10
4.89342
20
-4.1544
11
4.89717
21
-4.14315
0
LINE
8
BLACK
6
CONTINUOUS
10
4.89717
20
-4.14315
11
4.90092
21
-4.13565
0
LINE
8
BLACK
6
CONTINUOUS
10
4.90092
20
-4.13565
11
4.90842
21
-4.1244
0
LINE
8
BLACK
6
CONTINUOUS
10
4.90842
20
-4.1244
11
4.91217
21
-4.12065
0
LINE
8
BLACK
6
CONTINUOUS
10
4.93466
20
-4.1319
11
4.98341
21
-4.1319
0
LINE
8
BLACK
6
CONTINUOUS
10
4.98341
20
-4.1319
11
4.95716
21
-4.1619
0
LINE
8
BLACK
6
CONTINUOUS
10
4.95716
20
-4.1619
11
4.96841
21
-4.1619
0
LINE
8
BLACK
6
CONTINUOUS
10
4.96841
20
-4.1619
11
4.97591
21
-4.16564
0
LINE
8
BLACK
6
CONTINUOUS
10
4.97591
20
-4.16564
11
4.97966
21
-4.16939
0
LINE
8
BLACK
6
CONTINUOUS
10
4.97966
20
-4.16939
11
4.98341
21
-4.17689
0
LINE
8
BLACK
6
CONTINUOUS
10
4.98341
20
-4.17689
11
4.98341
21
-4.19564
0
LINE
8
BLACK
6
CONTINUOUS
10
4.98341
20
-4.19564
11
4.97966
21
-4.20314
0
LINE
8
BLACK
6
CONTINUOUS
10
4.97966
20
-4.20314
11
4.97591
21
-4.20689
0
LINE
8
BLACK
6
CONTINUOUS
10
4.97591
20
-4.20689
11
4.96841
21
-4.21064
0
LINE
8
BLACK
6
CONTINUOUS
10
4.96841
20
-4.21064
11
4.94591
21
-4.21064
0
LINE
8
BLACK
6
CONTINUOUS
10
4.94591
20
-4.21064
11
4.93841
21
-4.20689
0
LINE
8
BLACK
6
CONTINUOUS
10
4.93841
20
-4.20689
11
4.93466
21
-4.20314
0
LINE
8
BLACK
6
CONTINUOUS
10
5.00966
20
-4.1319
11
5.0584
21
-4.1319
0
LINE
8
BLACK
6
CONTINUOUS
10
5.0584
20
-4.1319
11
5.03215
21
-4.1619
0
LINE
8
BLACK
6
CONTINUOUS
10
5.03215
20
-4.1619
11
5.0434
21
-4.1619
0
LINE
8
BLACK
6
CONTINUOUS
10
5.0434
20
-4.1619
11
5.0509
21
-4.16564
0
LINE
8
BLACK
6
CONTINUOUS
10
5.0509
20
-4.16564
11
5.05465
21
-4.16939
0
LINE
8
BLACK
6
CONTINUOUS
10
5.05465
20
-4.16939
11
5.0584
21
-4.17689
0
LINE
8
BLACK
6
CONTINUOUS
10
5.0584
20
-4.17689
11
5.0584
21
-4.19564
0
LINE
8
BLACK
6
CONTINUOUS
10
5.0584
20
-4.19564
11
5.05465
21
-4.20314
0
LINE
8
BLACK
6
CONTINUOUS
10
5.05465
20
-4.20314
11
5.0509
21
-4.20689
0
LINE
8
BLACK
6
CONTINUOUS
10
5.0509
20
-4.20689
11
5.0434
21
-4.21064
0
LINE
8
BLACK
6
CONTINUOUS
10
5.0434
20
-4.21064
11
5.0209
21
-4.21064
0
LINE
8
BLACK
6
CONTINUOUS
10
5.0209
20
-4.21064
11
5.0134
21
-4.20689
0
LINE
8
BLACK
6
CONTINUOUS
10
5.0134
20
-4.20689
11
5.00966
21
-4.20314
0
LINE
8
BLACK
6
CONTINUOUS
10
5.15214
20
-4.21064
11
5.15214
21
-4.1319
0
LINE
8
BLACK
6
CONTINUOUS
10
5.18588
20
-4.21064
11
5.18588
21
-4.16939
0
LINE
8
BLACK
6
CONTINUOUS
10
5.18588
20
-4.16939
11
5.18213
21
-4.1619
0
LINE
8
BLACK
6
CONTINUOUS
10
5.18213
20
-4.1619
11
5.17463
21
-4.15815
0
LINE
8
BLACK
6
CONTINUOUS
10
5.17463
20
-4.15815
11
5.16339
21
-4.15815
0
LINE
8
BLACK
6
CONTINUOUS
10
5.16339
20
-4.15815
11
5.15589
21
-4.1619
0
LINE
8
BLACK
6
CONTINUOUS
10
5.15589
20
-4.1619
11
5.15214
21
-4.16564
0
LINE
8
BLACK
6
CONTINUOUS
10
5.23463
20
-4.21064
11
5.22713
21
-4.20689
0
LINE
8
BLACK
6
CONTINUOUS
10
5.22713
20
-4.20689
11
5.22338
21
-4.20314
0
LINE
8
BLACK
6
CONTINUOUS
10
5.22338
20
-4.20314
11
5.21963
21
-4.19564
0
LINE
8
BLACK
6
CONTINUOUS
10
5.21963
20
-4.19564
11
5.21963
21
-4.17314
0
LINE
8
BLACK
6
CONTINUOUS
10
5.21963
20
-4.17314
11
5.22338
21
-4.16564
0
LINE
8
BLACK
6
CONTINUOUS
10
5.22338
20
-4.16564
11
5.22713
21
-4.1619
0
LINE
8
BLACK
6
CONTINUOUS
10
5.22713
20
-4.1619
11
5.23463
21
-4.15815
0
LINE
8
BLACK
6
CONTINUOUS
10
5.23463
20
-4.15815
11
5.24588
21
-4.15815
0
LINE
8
BLACK
6
CONTINUOUS
10
5.24588
20
-4.15815
11
5.25337
21
-4.1619
0
LINE
8
BLACK
6
CONTINUOUS
10
5.25337
20
-4.1619
11
5.25712
21
-4.16564
0
LINE
8
BLACK
6
CONTINUOUS
10
5.25712
20
-4.16564
11
5.26087
21
-4.17314
0
LINE
8
BLACK
6
CONTINUOUS
10
5.26087
20
-4.17314
11
5.26087
21
-4.19564
0
LINE
8
BLACK
6
CONTINUOUS
10
5.26087
20
-4.19564
11
5.25712
21
-4.20314
0
LINE
8
BLACK
6
CONTINUOUS
10
5.25712
20
-4.20314
11
5.25337
21
-4.20689
0
LINE
8
BLACK
6
CONTINUOUS
10
5.25337
20
-4.20689
11
5.24588
21
-4.21064
0
LINE
8
BLACK
6
CONTINUOUS
10
5.24588
20
-4.21064
11
5.23463
21
-4.21064
0
LINE
8
BLACK
6
CONTINUOUS
10
5.30587
20
-4.21064
11
5.29837
21
-4.20689
0
LINE
8
BLACK
6
CONTINUOUS
10
5.29837
20
-4.20689
11
5.29462
21
-4.19939
0
LINE
8
BLACK
6
CONTINUOUS
10
5.29462
20
-4.19939
11
5.29462
21
-4.1319
0
LINE
8
BLACK
6
CONTINUOUS
10
5.36586
20
-4.20689
11
5.35836
21
-4.21064
0
LINE
8
BLACK
6
CONTINUOUS
10
5.35836
20
-4.21064
11
5.34336
21
-4.21064
0
LINE
8
BLACK
6
CONTINUOUS
10
5.34336
20
-4.21064
11
5.33586
21
-4.20689
0
LINE
8
BLACK
6
CONTINUOUS
10
5.33586
20
-4.20689
11
5.33211
21
-4.19939
0
LINE
8
BLACK
6
CONTINUOUS
10
5.33211
20
-4.19939
11
5.33211
21
-4.16939
0
LINE
8
BLACK
6
CONTINUOUS
10
5.33211
20
-4.16939
11
5.33586
21
-4.1619
0
LINE
8
BLACK
6
CONTINUOUS
10
5.33586
20
-4.1619
11
5.34336
21
-4.15815
0
LINE
8
BLACK
6
CONTINUOUS
10
5.34336
20
-4.15815
11
5.35836
21
-4.15815
0
LINE
8
BLACK
6
CONTINUOUS
10
5.35836
20
-4.15815
11
5.36586
21
-4.1619
0
LINE
8
BLACK
6
CONTINUOUS
10
5.36586
20
-4.1619
11
5.36961
21
-4.16939
0
LINE
8
BLACK
6
CONTINUOUS
10
5.36961
20
-4.16939
11
5.36961
21
-4.17689
0
LINE
8
BLACK
6
CONTINUOUS
10
5.36961
20
-4.17689
11
5.33211
21
-4.18439
0
LINE
8
BLACK
6
CONTINUOUS
10
5.39961
20
-4.20689
11
5.40711
21
-4.21064
0
LINE
8
BLACK
6
CONTINUOUS
10
5.40711
20
-4.21064
11
5.4221
21
-4.21064
0
LINE
8
BLACK
6
CONTINUOUS
10
5.4221
20
-4.21064
11
5.4296
21
-4.20689
0
LINE
8
BLACK
6
CONTINUOUS
10
5.4296
20
-4.20689
11
5.43335
21
-4.19939
0
LINE
8
BLACK
6
CONTINUOUS
10
5.43335
20
-4.19939
11
5.43335
21
-4.19564
0
LINE
8
BLACK
6
CONTINUOUS
10
5.43335
20
-4.19564
11
5.4296
21
-4.18814
0
LINE
8
BLACK
6
CONTINUOUS
10
5.4296
20
-4.18814
11
5.4221
21
-4.18439
0
LINE
8
BLACK
6
CONTINUOUS
10
5.4221
20
-4.18439
11
5.41086
21
-4.18439
0
LINE
8
BLACK
6
CONTINUOUS
10
5.41086
20
-4.18439
11
5.40336
21
-4.18064
0
LINE
8
BLACK
6
CONTINUOUS
10
5.40336
20
-4.18064
11
5.39961
21
-4.17314
0
LINE
8
BLACK
6
CONTINUOUS
10
5.39961
20
-4.17314
11
5.39961
21
-4.16939
0
LINE
8
BLACK
6
CONTINUOUS
10
5.39961
20
-4.16939
11
5.40336
21
-4.1619
0
LINE
8
BLACK
6
CONTINUOUS
10
5.40336
20
-4.1619
11
5.41086
21
-4.15815
0
LINE
8
BLACK
6
CONTINUOUS
10
5.41086
20
-4.15815
11
5.4221
21
-4.15815
0
LINE
8
BLACK
6
CONTINUOUS
10
5.4221
20
-4.15815
11
5.4296
21
-4.1619
0
LINE
8
BLACK
6
CONTINUOUS
10
5.4596
20
-4.24064
11
5.46335
21
-4.23689
0
LINE
8
BLACK
6
CONTINUOUS
10
5.46335
20
-4.23689
11
5.47085
21
-4.22564
0
LINE
8
BLACK
6
CONTINUOUS
10
5.47085
20
-4.22564
11
5.4746
21
-4.21814
0
LINE
8
BLACK
6
CONTINUOUS
10
5.4746
20
-4.21814
11
5.47835
21
-4.20689
0
LINE
8
BLACK
6
CONTINUOUS
10
5.47835
20
-4.20689
11
5.4821
21
-4.18814
0
LINE
8
BLACK
6
CONTINUOUS
10
5.4821
20
-4.18814
11
5.4821
21
-4.17314
0
LINE
8
BLACK
6
CONTINUOUS
10
5.4821
20
-4.17314
11
5.47835
21
-4.1544
0
LINE
8
BLACK
6
CONTINUOUS
10
5.47835
20
-4.1544
11
5.4746
21
-4.14315
0
LINE
8
BLACK
6
CONTINUOUS
10
5.4746
20
-4.14315
11
5.47085
21
-4.13565
0
LINE
8
BLACK
6
CONTINUOUS
10
5.47085
20
-4.13565
11
5.46335
21
-4.1244
0
LINE
8
BLACK
6
CONTINUOUS
10
5.46335
20
-4.1244
11
5.4596
21
-4.12065
0
CIRCLE
8
BLACK
10
3.49409
20
-4.27815
40
0.015748
0
LINE
8
BLACK
6
CONTINUOUS
10
3.62233
20
-4.23584
11
3.62983
21
-4.23584
0
LINE
8
BLACK
6
CONTINUOUS
10
3.62983
20
-4.23584
11
3.63733
21
-4.23959
0
LINE
8
BLACK
6
CONTINUOUS
10
3.63733
20
-4.23959
11
3.64108
21
-4.24334
0
LINE
8
BLACK
6
CONTINUOUS
10
3.64108
20
-4.24334
11
3.64483
21
-4.25083
0
LINE
8
BLACK
6
CONTINUOUS
10
3.64483
20
-4.25083
11
3.64858
21
-4.26583
0
LINE
8
BLACK
6
CONTINUOUS
10
3.64858
20
-4.26583
11
3.64858
21
-4.28458
0
LINE
8
BLACK
6
CONTINUOUS
10
3.64858
20
-4.28458
11
3.64483
21
-4.29958
0
LINE
8
BLACK
6
CONTINUOUS
10
3.64483
20
-4.29958
11
3.64108
21
-4.30708
0
LINE
8
BLACK
6
CONTINUOUS
10
3.64108
20
-4.30708
11
3.63733
21
-4.31083
0
LINE
8
BLACK
6
CONTINUOUS
10
3.63733
20
-4.31083
11
3.62983
21
-4.31458
0
LINE
8
BLACK
6
CONTINUOUS
10
3.62983
20
-4.31458
11
3.62233
21
-4.31458
0
LINE
8
BLACK
6
CONTINUOUS
10
3.62233
20
-4.31458
11
3.61483
21
-4.31083
0
LINE
8
BLACK
6
CONTINUOUS
10
3.61483
20
-4.31083
11
3.61108
21
-4.30708
0
LINE
8
BLACK
6
CONTINUOUS
10
3.61108
20
-4.30708
11
3.60733
21
-4.29958
0
LINE
8
BLACK
6
CONTINUOUS
10
3.60733
20
-4.29958
11
3.60358
21
-4.28458
0
LINE
8
BLACK
6
CONTINUOUS
10
3.60358
20
-4.28458
11
3.60358
21
-4.26583
0
LINE
8
BLACK
6
CONTINUOUS
10
3.60358
20
-4.26583
11
3.60733
21
-4.25083
0
LINE
8
BLACK
6
CONTINUOUS
10
3.60733
20
-4.25083
11
3.61108
21
-4.24334
0
LINE
8
BLACK
6
CONTINUOUS
10
3.61108
20
-4.24334
11
3.61483
21
-4.23959
0
LINE
8
BLACK
6
CONTINUOUS
10
3.61483
20
-4.23959
11
3.62233
21
-4.23584
0
LINE
8
BLACK
6
CONTINUOUS
10
3.68232
20
-4.30708
11
3.68607
21
-4.31083
0
LINE
8
BLACK
6
CONTINUOUS
10
3.68607
20
-4.31083
11
3.68232
21
-4.31458
0
LINE
8
BLACK
6
CONTINUOUS
10
3.68232
20
-4.31458
11
3.67857
21
-4.31083
0
LINE
8
BLACK
6
CONTINUOUS
10
3.67857
20
-4.31083
11
3.68232
21
-4.30708
0
LINE
8
BLACK
6
CONTINUOUS
10
3.68232
20
-4.30708
11
3.68232
21
-4.31458
0
LINE
8
BLACK
6
CONTINUOUS
10
3.73106
20
-4.26958
11
3.72357
21
-4.26583
0
LINE
8
BLACK
6
CONTINUOUS
10
3.72357
20
-4.26583
11
3.71982
21
-4.26208
0
LINE
8
BLACK
6
CONTINUOUS
10
3.71982
20
-4.26208
11
3.71607
21
-4.25458
0
LINE
8
BLACK
6
CONTINUOUS
10
3.71607
20
-4.25458
11
3.71607
21
-4.25083
0
LINE
8
BLACK
6
CONTINUOUS
10
3.71607
20
-4.25083
11
3.71982
21
-4.24334
0
LINE
8
BLACK
6
CONTINUOUS
10
3.71982
20
-4.24334
11
3.72357
21
-4.23959
0
LINE
8
BLACK
6
CONTINUOUS
10
3.72357
20
-4.23959
11
3.73106
21
-4.23584
0
LINE
8
BLACK
6
CONTINUOUS
10
3.73106
20
-4.23584
11
3.74606
21
-4.23584
0
LINE
8
BLACK
6
CONTINUOUS
10
3.74606
20
-4.23584
11
3.75356
21
-4.23959
0
LINE
8
BLACK
6
CONTINUOUS
10
3.75356
20
-4.23959
11
3.75731
21
-4.24334
0
LINE
8
BLACK
6
CONTINUOUS
10
3.75731
20
-4.24334
11
3.76106
21
-4.25083
0
LINE
8
BLACK
6
CONTINUOUS
10
3.76106
20
-4.25083
11
3.76106
21
-4.25458
0
LINE
8
BLACK
6
CONTINUOUS
10
3.76106
20
-4.25458
11
3.75731
21
-4.26208
0
LINE
8
BLACK
6
CONTINUOUS
10
3.75731
20
-4.26208
11
3.75356
21
-4.26583
0
LINE
8
BLACK
6
CONTINUOUS
10
3.75356
20
-4.26583
11
3.74606
21
-4.26958
0
LINE
8
BLACK
6
CONTINUOUS
10
3.74606
20
-4.26958
11
3.73106
21
-4.26958
0
LINE
8
BLACK
6
CONTINUOUS
10
3.73106
20
-4.26958
11
3.72357
21
-4.27333
0
LINE
8
BLACK
6
CONTINUOUS
10
3.72357
20
-4.27333
11
3.71982
21
-4.27708
0
LINE
8
BLACK
6
CONTINUOUS
10
3.71982
20
-4.27708
11
3.71607
21
-4.28458
0
LINE
8
BLACK
6
CONTINUOUS
10
3.71607
20
-4.28458
11
3.71607
21
-4.29958
0
LINE
8
BLACK
6
CONTINUOUS
10
3.71607
20
-4.29958
11
3.71982
21
-4.30708
0
LINE
8
BLACK
6
CONTINUOUS
10
3.71982
20
-4.30708
11
3.72357
21
-4.31083
0
LINE
8
BLACK
6
CONTINUOUS
10
3.72357
20
-4.31083
11
3.73106
21
-4.31458
0
LINE
8
BLACK
6
CONTINUOUS
10
3.73106
20
-4.31458
11
3.74606
21
-4.31458
0
LINE
8
BLACK
6
CONTINUOUS
10
3.74606
20
-4.31458
11
3.75356
21
-4.31083
0
LINE
8
BLACK
6
CONTINUOUS
10
3.75356
20
-4.31083
11
3.75731
21
-4.30708
0
LINE
8
BLACK
6
CONTINUOUS
10
3.75731
20
-4.30708
11
3.76106
21
-4.29958
0
LINE
8
BLACK
6
CONTINUOUS
10
3.76106
20
-4.29958
11
3.76106
21
-4.28458
0
LINE
8
BLACK
6
CONTINUOUS
10
3.76106
20
-4.28458
11
3.75731
21
-4.27708
0
LINE
8
BLACK
6
CONTINUOUS
10
3.75731
20
-4.27708
11
3.75356
21
-4.27333
0
LINE
8
BLACK
6
CONTINUOUS
10
3.75356
20
-4.27333
11
3.74606
21
-4.26958
0
LINE
8
BLACK
6
CONTINUOUS
10
3.8098
20
-4.23584
11
3.8173
21
-4.23584
0
LINE
8
BLACK
6
CONTINUOUS
10
3.8173
20
-4.23584
11
3.8248
21
-4.23959
0
LINE
8
BLACK
6
CONTINUOUS
10
3.8248
20
-4.23959
11
3.82855
21
-4.24334
0
LINE
8
BLACK
6
CONTINUOUS
10
3.82855
20
-4.24334
11
3.8323
21
-4.25083
0
LINE
8
BLACK
6
CONTINUOUS
10
3.8323
20
-4.25083
11
3.83605
21
-4.26583
0
LINE
8
BLACK
6
CONTINUOUS
10
3.83605
20
-4.26583
11
3.83605
21
-4.28458
0
LINE
8
BLACK
6
CONTINUOUS
10
3.83605
20
-4.28458
11
3.8323
21
-4.29958
0
LINE
8
BLACK
6
CONTINUOUS
10
3.8323
20
-4.29958
11
3.82855
21
-4.30708
0
LINE
8
BLACK
6
CONTINUOUS
10
3.82855
20
-4.30708
11
3.8248
21
-4.31083
0
LINE
8
BLACK
6
CONTINUOUS
10
3.8248
20
-4.31083
11
3.8173
21
-4.31458
0
LINE
8
BLACK
6
CONTINUOUS
10
3.8173
20
-4.31458
11
3.8098
21
-4.31458
0
LINE
8
BLACK
6
CONTINUOUS
10
3.8098
20
-4.31458
11
3.80231
21
-4.31083
0
LINE
8
BLACK
6
CONTINUOUS
10
3.80231
20
-4.31083
11
3.79856
21
-4.30708
0
LINE
8
BLACK
6
CONTINUOUS
10
3.79856
20
-4.30708
11
3.79481
21
-4.29958
0
LINE
8
BLACK
6
CONTINUOUS
10
3.79481
20
-4.29958
11
3.79106
21
-4.28458
0
LINE
8
BLACK
6
CONTINUOUS
10
3.79106
20
-4.28458
11
3.79106
21
-4.26583
0
LINE
8
BLACK
6
CONTINUOUS
10
3.79106
20
-4.26583
11
3.79481
21
-4.25083
0
LINE
8
BLACK
6
CONTINUOUS
10
3.79481
20
-4.25083
11
3.79856
21
-4.24334
0
LINE
8
BLACK
6
CONTINUOUS
10
3.79856
20
-4.24334
11
3.80231
21
-4.23959
0
LINE
8
BLACK
6
CONTINUOUS
10
3.80231
20
-4.23959
11
3.8098
21
-4.23584
0
LINE
8
BLACK
6
CONTINUOUS
10
3.8848
20
-4.23584
11
3.89229
21
-4.23584
0
LINE
8
BLACK
6
CONTINUOUS
10
3.89229
20
-4.23584
11
3.89979
21
-4.23959
0
LINE
8
BLACK
6
CONTINUOUS
10
3.89979
20
-4.23959
11
3.90354
21
-4.24334
0
LINE
8
BLACK
6
CONTINUOUS
10
3.90354
20
-4.24334
11
3.90729
21
-4.25083
0
LINE
8
BLACK
6
CONTINUOUS
10
3.90729
20
-4.25083
11
3.91104
21
-4.26583
0
LINE
8
BLACK
6
CONTINUOUS
10
3.91104
20
-4.26583
11
3.91104
21
-4.28458
0
LINE
8
BLACK
6
CONTINUOUS
10
3.91104
20
-4.28458
11
3.90729
21
-4.29958
0
LINE
8
BLACK
6
CONTINUOUS
10
3.90729
20
-4.29958
11
3.90354
21
-4.30708
0
LINE
8
BLACK
6
CONTINUOUS
10
3.90354
20
-4.30708
11
3.89979
21
-4.31083
0
LINE
8
BLACK
6
CONTINUOUS
10
3.89979
20
-4.31083
11
3.89229
21
-4.31458
0
LINE
8
BLACK
6
CONTINUOUS
10
3.89229
20
-4.31458
11
3.8848
21
-4.31458
0
LINE
8
BLACK
6
CONTINUOUS
10
3.8848
20
-4.31458
11
3.8773
21
-4.31083
0
LINE
8
BLACK
6
CONTINUOUS
10
3.8773
20
-4.31083
11
3.87355
21
-4.30708
0
LINE
8
BLACK
6
CONTINUOUS
10
3.87355
20
-4.30708
11
3.8698
21
-4.29958
0
LINE
8
BLACK
6
CONTINUOUS
10
3.8698
20
-4.29958
11
3.86605
21
-4.28458
0
LINE
8
BLACK
6
CONTINUOUS
10
3.86605
20
-4.28458
11
3.86605
21
-4.26583
0
LINE
8
BLACK
6
CONTINUOUS
10
3.86605
20
-4.26583
11
3.8698
21
-4.25083
0
LINE
8
BLACK
6
CONTINUOUS
10
3.8698
20
-4.25083
11
3.87355
21
-4.24334
0
LINE
8
BLACK
6
CONTINUOUS
10
3.87355
20
-4.24334
11
3.8773
21
-4.23959
0
LINE
8
BLACK
6
CONTINUOUS
10
3.8773
20
-4.23959
11
3.8848
21
-4.23584
0
LINE
8
BLACK
6
CONTINUOUS
10
3.94479
20
-4.31458
11
3.94479
21
-4.26208
0
LINE
8
BLACK
6
CONTINUOUS
10
3.94479
20
-4.26958
11
3.94854
21
-4.26583
0
LINE
8
BLACK
6
CONTINUOUS
10
3.94854
20
-4.26583
11
3.95604
21
-4.26208
0
LINE
8
BLACK
6
CONTINUOUS
10
3.95604
20
-4.26208
11
3.96729
21
-4.26208
0
LINE
8
BLACK
6
CONTINUOUS
10
3.96729
20
-4.26208
11
3.97478
21
-4.26583
0
LINE
8
BLACK
6
CONTINUOUS
10
3.97478
20
-4.26583
11
3.97853
21
-4.27333
0
LINE
8
BLACK
6
CONTINUOUS
10
3.97853
20
-4.27333
11
3.97853
21
-4.31458
0
LINE
8
BLACK
6
CONTINUOUS
10
3.97853
20
-4.27333
11
3.98228
21
-4.26583
0
LINE
8
BLACK
6
CONTINUOUS
10
3.98228
20
-4.26583
11
3.98978
21
-4.26208
0
LINE
8
BLACK
6
CONTINUOUS
10
3.98978
20
-4.26208
11
4.00103
21
-4.26208
0
LINE
8
BLACK
6
CONTINUOUS
10
4.00103
20
-4.26208
11
4.00853
21
-4.26583
0
LINE
8
BLACK
6
CONTINUOUS
10
4.00853
20
-4.26583
11
4.01228
21
-4.27333
0
LINE
8
BLACK
6
CONTINUOUS
10
4.01228
20
-4.27333
11
4.01228
21
-4.31458
0
LINE
8
BLACK
6
CONTINUOUS
10
4.04978
20
-4.31458
11
4.04978
21
-4.26208
0
LINE
8
BLACK
6
CONTINUOUS
10
4.04978
20
-4.26958
11
4.05352
21
-4.26583
0
LINE
8
BLACK
6
CONTINUOUS
10
4.05352
20
-4.26583
11
4.06102
21
-4.26208
0
LINE
8
BLACK
6
CONTINUOUS
10
4.06102
20
-4.26208
11
4.07227
21
-4.26208
0
LINE
8
BLACK
6
CONTINUOUS
10
4.07227
20
-4.26208
11
4.07977
21
-4.26583
0
LINE
8
BLACK
6
CONTINUOUS
10
4.07977
20
-4.26583
11
4.08352
21
-4.27333
0
LINE
8
BLACK
6
CONTINUOUS
10
4.08352
20
-4.27333
11
4.08352
21
-4.31458
0
LINE
8
BLACK
6
CONTINUOUS
10
4.08352
20
-4.27333
11
4.08727
21
-4.26583
0
LINE
8
BLACK
6
CONTINUOUS
10
4.08727
20
-4.26583
11
4.09477
21
-4.26208
0
LINE
8
BLACK
6
CONTINUOUS
10
4.09477
20
-4.26208
11
4.10602
21
-4.26208
0
LINE
8
BLACK
6
CONTINUOUS
10
4.10602
20
-4.26208
11
4.11352
21
-4.26583
0
LINE
8
BLACK
6
CONTINUOUS
10
4.11352
20
-4.26583
11
4.11727
21
-4.27333
0
LINE
8
BLACK
6
CONTINUOUS
10
4.11727
20
-4.27333
11
4.11727
21
-4.31458
0
LINE
8
BLACK
6
CONTINUOUS
10
4.271
20
-4.23209
11
4.20351
21
-4.33332
0
LINE
8
BLACK
6
CONTINUOUS
10
4.37223
20
-4.23584
11
4.37973
21
-4.23584
0
LINE
8
BLACK
6
CONTINUOUS
10
4.37973
20
-4.23584
11
4.38723
21
-4.23959
0
LINE
8
BLACK
6
CONTINUOUS
10
4.38723
20
-4.23959
11
4.39098
21
-4.24334
0
LINE
8
BLACK
6
CONTINUOUS
10
4.39098
20
-4.24334
11
4.39473
21
-4.25083
0
LINE
8
BLACK
6
CONTINUOUS
10
4.39473
20
-4.25083
11
4.39848
21
-4.26583
0
LINE
8
BLACK
6
CONTINUOUS
10
4.39848
20
-4.26583
11
4.39848
21
-4.28458
0
LINE
8
BLACK
6
CONTINUOUS
10
4.39848
20
-4.28458
11
4.39473
21
-4.29958
0
LINE
8
BLACK
6
CONTINUOUS
10
4.39473
20
-4.29958
11
4.39098
21
-4.30708
0
LINE
8
BLACK
6
CONTINUOUS
10
4.39098
20
-4.30708
11
4.38723
21
-4.31083
0
LINE
8
BLACK
6
CONTINUOUS
10
4.38723
20
-4.31083
11
4.37973
21
-4.31458
0
LINE
8
BLACK
6
CONTINUOUS
10
4.37973
20
-4.31458
11
4.37223
21
-4.31458
0
LINE
8
BLACK
6
CONTINUOUS
10
4.37223
20
-4.31458
11
4.36474
21
-4.31083
0
LINE
8
BLACK
6
CONTINUOUS
10
4.36474
20
-4.31083
11
4.36099
21
-4.30708
0
LINE
8
BLACK
6
CONTINUOUS
10
4.36099
20
-4.30708
11
4.35724
21
-4.29958
0
LINE
8
BLACK
6
CONTINUOUS
10
4.35724
20
-4.29958
11
4.35349
21
-4.28458
0
LINE
8
BLACK
6
CONTINUOUS
10
4.35349
20
-4.28458
11
4.35349
21
-4.26583
0
LINE
8
BLACK
6
CONTINUOUS
10
4.35349
20
-4.26583
11
4.35724
21
-4.25083
0
LINE
8
BLACK
6
CONTINUOUS
10
4.35724
20
-4.25083
11
4.36099
21
-4.24334
0
LINE
8
BLACK
6
CONTINUOUS
10
4.36099
20
-4.24334
11
4.36474
21
-4.23959
0
LINE
8
BLACK
6
CONTINUOUS
10
4.36474
20
-4.23959
11
4.37223
21
-4.23584
0
LINE
8
BLACK
6
CONTINUOUS
10
4.43223
20
-4.30708
11
4.43598
21
-4.31083
0
LINE
8
BLACK
6
CONTINUOUS
10
4.43598
20
-4.31083
11
4.43223
21
-4.31458
0
LINE
8
BLACK
6
CONTINUOUS
10
4.43223
20
-4.31458
11
4.42848
21
-4.31083
0
LINE
8
BLACK
6
CONTINUOUS
10
4.42848
20
-4.31083
11
4.43223
21
-4.30708
0
LINE
8
BLACK
6
CONTINUOUS
10
4.43223
20
-4.30708
11
4.43223
21
-4.31458
0
LINE
8
BLACK
6
CONTINUOUS
10
4.48472
20
-4.23584
11
4.49222
21
-4.23584
0
LINE
8
BLACK
6
CONTINUOUS
10
4.49222
20
-4.23584
11
4.49972
21
-4.23959
0
LINE
8
BLACK
6
CONTINUOUS
10
4.49972
20
-4.23959
11
4.50347
21
-4.24334
0
LINE
8
BLACK
6
CONTINUOUS
10
4.50347
20
-4.24334
11
4.50722
21
-4.25083
0
LINE
8
BLACK
6
CONTINUOUS
10
4.50722
20
-4.25083
11
4.51097
21
-4.26583
0
LINE
8
BLACK
6
CONTINUOUS
10
4.51097
20
-4.26583
11
4.51097
21
-4.28458
0
LINE
8
BLACK
6
CONTINUOUS
10
4.51097
20
-4.28458
11
4.50722
21
-4.29958
0
LINE
8
BLACK
6
CONTINUOUS
10
4.50722
20
-4.29958
11
4.50347
21
-4.30708
0
LINE
8
BLACK
6
CONTINUOUS
10
4.50347
20
-4.30708
11
4.49972
21
-4.31083
0
LINE
8
BLACK
6
CONTINUOUS
10
4.49972
20
-4.31083
11
4.49222
21
-4.31458
0
LINE
8
BLACK
6
CONTINUOUS
10
4.49222
20
-4.31458
11
4.48472
21
-4.31458
0
LINE
8
BLACK
6
CONTINUOUS
10
4.48472
20
-4.31458
11
4.47722
21
-4.31083
0
LINE
8
BLACK
6
CONTINUOUS
10
4.47722
20
-4.31083
11
4.47347
21
-4.30708
0
LINE
8
BLACK
6
CONTINUOUS
10
4.47347
20
-4.30708
11
4.46972
21
-4.29958
0
LINE
8
BLACK
6
CONTINUOUS
10
4.46972
20
-4.29958
11
4.46597
21
-4.28458
0
LINE
8
BLACK
6
CONTINUOUS
10
4.46597
20
-4.28458
11
4.46597
21
-4.26583
0
LINE
8
BLACK
6
CONTINUOUS
10
4.46597
20
-4.26583
11
4.46972
21
-4.25083
0
LINE
8
BLACK
6
CONTINUOUS
10
4.46972
20
-4.25083
11
4.47347
21
-4.24334
0
LINE
8
BLACK
6
CONTINUOUS
10
4.47347
20
-4.24334
11
4.47722
21
-4.23959
0
LINE
8
BLACK
6
CONTINUOUS
10
4.47722
20
-4.23959
11
4.48472
21
-4.23584
0
LINE
8
BLACK
6
CONTINUOUS
10
4.53721
20
-4.23584
11
4.58596
21
-4.23584
0
LINE
8
BLACK
6
CONTINUOUS
10
4.58596
20
-4.23584
11
4.55971
21
-4.26583
0
LINE
8
BLACK
6
CONTINUOUS
10
4.55971
20
-4.26583
11
4.57096
21
-4.26583
0
LINE
8
BLACK
6
CONTINUOUS
10
4.57096
20
-4.26583
11
4.57846
21
-4.26958
0
LINE
8
BLACK
6
CONTINUOUS
10
4.57846
20
-4.26958
11
4.58221
21
-4.27333
0
LINE
8
BLACK
6
CONTINUOUS
10
4.58221
20
-4.27333
11
4.58596
21
-4.28083
0
LINE
8
BLACK
6
CONTINUOUS
10
4.58596
20
-4.28083
11
4.58596
21
-4.29958
0
LINE
8
BLACK
6
CONTINUOUS
10
4.58596
20
-4.29958
11
4.58221
21
-4.30708
0
LINE
8
BLACK
6
CONTINUOUS
10
4.58221
20
-4.30708
11
4.57846
21
-4.31083
0
LINE
8
BLACK
6
CONTINUOUS
10
4.57846
20
-4.31083
11
4.57096
21
-4.31458
0
LINE
8
BLACK
6
CONTINUOUS
10
4.57096
20
-4.31458
11
4.54846
21
-4.31458
0
LINE
8
BLACK
6
CONTINUOUS
10
4.54846
20
-4.31458
11
4.54096
21
-4.31083
0
LINE
8
BLACK
6
CONTINUOUS
10
4.54096
20
-4.31083
11
4.53721
21
-4.30708
0
LINE
8
BLACK
6
CONTINUOUS
10
4.66095
20
-4.31458
11
4.61595
21
-4.31458
0
LINE
8
BLACK
6
CONTINUOUS
10
4.63845
20
-4.31458
11
4.63845
21
-4.23584
0
LINE
8
BLACK
6
CONTINUOUS
10
4.63845
20
-4.23584
11
4.63095
21
-4.24708
0
LINE
8
BLACK
6
CONTINUOUS
10
4.63095
20
-4.24708
11
4.62345
21
-4.25458
0
LINE
8
BLACK
6
CONTINUOUS
10
4.62345
20
-4.25458
11
4.61595
21
-4.25833
0
LINE
8
BLACK
6
CONTINUOUS
10
4.73219
20
-4.23584
11
4.69469
21
-4.23584
0
LINE
8
BLACK
6
CONTINUOUS
10
4.69469
20
-4.23584
11
4.69094
21
-4.27333
0
LINE
8
BLACK
6
CONTINUOUS
10
4.69094
20
-4.27333
11
4.69469
21
-4.26958
0
LINE
8
BLACK
6
CONTINUOUS
10
4.69469
20
-4.26958
11
4.70219
21
-4.26583
0
LINE
8
BLACK
6
CONTINUOUS
10
4.70219
20
-4.26583
11
4.72094
21
-4.26583
0
LINE
8
BLACK
6
CONTINUOUS
10
4.72094
20
-4.26583
11
4.72844
21
-4.26958
0
LINE
8
BLACK
6
CONTINUOUS
10
4.72844
20
-4.26958
11
4.73219
21
-4.27333
0
LINE
8
BLACK
6
CONTINUOUS
10
4.73219
20
-4.27333
11
4.73594
21
-4.28083
0
LINE
8
BLACK
6
CONTINUOUS
10
4.73594
20
-4.28083
11
4.73594
21
-4.29958
0
LINE
8
BLACK
6
CONTINUOUS
10
4.73594
20
-4.29958
11
4.73219
21
-4.30708
0
LINE
8
BLACK
6
CONTINUOUS
10
4.73219
20
-4.30708
11
4.72844
21
-4.31083
0
LINE
8
BLACK
6
CONTINUOUS
10
4.72844
20
-4.31083
11
4.72094
21
-4.31458
0
LINE
8
BLACK
6
CONTINUOUS
10
4.72094
20
-4.31458
11
4.70219
21
-4.31458
0
LINE
8
BLACK
6
CONTINUOUS
10
4.70219
20
-4.31458
11
4.69469
21
-4.31083
0
LINE
8
BLACK
6
CONTINUOUS
10
4.69469
20
-4.31083
11
4.69094
21
-4.30708
0
LINE
8
BLACK
6
CONTINUOUS
10
4.76594
20
-4.23584
11
4.76594
21
-4.25083
0
LINE
8
BLACK
6
CONTINUOUS
10
4.79593
20
-4.23584
11
4.79593
21
-4.25083
0
LINE
8
BLACK
6
CONTINUOUS
10
4.91217
20
-4.34457
11
4.90842
21
-4.34082
0
LINE
8
BLACK
6
CONTINUOUS
10
4.90842
20
-4.34082
11
4.90092
21
-4.32957
0
LINE
8
BLACK
6
CONTINUOUS
10
4.90092
20
-4.32957
11
4.89717
21
-4.32208
0
LINE
8
BLACK
6
CONTINUOUS
10
4.89717
20
-4.32208
11
4.89342
21
-4.31083
0
LINE
8
BLACK
6
CONTINUOUS
10
4.89342
20
-4.31083
11
4.88967
21
-4.29208
0
LINE
8
BLACK
6
CONTINUOUS
10
4.88967
20
-4.29208
11
4.88967
21
-4.27708
0
LINE
8
BLACK
6
CONTINUOUS
10
4.88967
20
-4.27708
11
4.89342
21
-4.25833
0
LINE
8
BLACK
6
CONTINUOUS
10
4.89342
20
-4.25833
11
4.89717
21
-4.24708
0
LINE
8
BLACK
6
CONTINUOUS
10
4.89717
20
-4.24708
11
4.90092
21
-4.23959
0
LINE
8
BLACK
6
CONTINUOUS
10
4.90092
20
-4.23959
11
4.90842
21
-4.22834
0
LINE
8
BLACK
6
CONTINUOUS
10
4.90842
20
-4.22834
11
4.91217
21
-4.22459
0
LINE
8
BLACK
6
CONTINUOUS
10
4.93841
20
-4.24334
11
4.94216
21
-4.23959
0
LINE
8
BLACK
6
CONTINUOUS
10
4.94216
20
-4.23959
11
4.94966
21
-4.23584
0
LINE
8
BLACK
6
CONTINUOUS
10
4.94966
20
-4.23584
11
4.96841
21
-4.23584
0
LINE
8
BLACK
6
CONTINUOUS
10
4.96841
20
-4.23584
11
4.97591
21
-4.23959
0
LINE
8
BLACK
6
CONTINUOUS
10
4.97591
20
-4.23959
11
4.97966
21
-4.24334
0
LINE
8
BLACK
6
CONTINUOUS
10
4.97966
20
-4.24334
11
4.98341
21
-4.25083
0
LINE
8
BLACK
6
CONTINUOUS
10
4.98341
20
-4.25083
11
4.98341
21
-4.25833
0
LINE
8
BLACK
6
CONTINUOUS
10
4.98341
20
-4.25833
11
4.97966
21
-4.26958
0
LINE
8
BLACK
6
CONTINUOUS
10
4.97966
20
-4.26958
11
4.93466
21
-4.31458
0
LINE
8
BLACK
6
CONTINUOUS
10
4.93466
20
-4.31458
11
4.98341
21
-4.31458
0
LINE
8
BLACK
6
CONTINUOUS
10
5.07715
20
-4.31458
11
5.07715
21
-4.23584
0
LINE
8
BLACK
6
CONTINUOUS
10
5.11089
20
-4.31458
11
5.11089
21
-4.27333
0
LINE
8
BLACK
6
CONTINUOUS
10
5.11089
20
-4.27333
11
5.10714
21
-4.26583
0
LINE
8
BLACK
6
CONTINUOUS
10
5.10714
20
-4.26583
11
5.09964
21
-4.26208
0
LINE
8
BLACK
6
CONTINUOUS
10
5.09964
20
-4.26208
11
5.0884
21
-4.26208
0
LINE
8
BLACK
6
CONTINUOUS
10
5.0884
20
-4.26208
11
5.0809
21
-4.26583
0
LINE
8
BLACK
6
CONTINUOUS
10
5.0809
20
-4.26583
11
5.07715
21
-4.26958
0
LINE
8
BLACK
6
CONTINUOUS
10
5.15964
20
-4.31458
11
5.15214
21
-4.31083
0
LINE
8
BLACK
6
CONTINUOUS
10
5.15214
20
-4.31083
11
5.14839
21
-4.30708
0
LINE
8
BLACK
6
CONTINUOUS
10
5.14839
20
-4.30708
11
5.14464
21
-4.29958
0
LINE
8
BLACK
6
CONTINUOUS
10
5.14464
20
-4.29958
11
5.14464
21
-4.27708
0
LINE
8
BLACK
6
CONTINUOUS
10
5.14464
20
-4.27708
11
5.14839
21
-4.26958
0
LINE
8
BLACK
6
CONTINUOUS
10
5.14839
20
-4.26958
11
5.15214
21
-4.26583
0
LINE
8
BLACK
6
CONTINUOUS
10
5.15214
20
-4.26583
11
5.15964
21
-4.26208
0
LINE
8
BLACK
6
CONTINUOUS
10
5.15964
20
-4.26208
11
5.17089
21
-4.26208
0
LINE
8
BLACK
6
CONTINUOUS
10
5.17089
20
-4.26208
11
5.17838
21
-4.26583
0
LINE
8
BLACK
6
CONTINUOUS
10
5.17838
20
-4.26583
11
5.18213
21
-4.26958
0
LINE
8
BLACK
6
CONTINUOUS
10
5.18213
20
-4.26958
11
5.18588
21
-4.27708
0
LINE
8
BLACK
6
CONTINUOUS
10
5.18588
20
-4.27708
11
5.18588
21
-4.29958
0
LINE
8
BLACK
6
CONTINUOUS
10
5.18588
20
-4.29958
11
5.18213
21
-4.30708
0
LINE
8
BLACK
6
CONTINUOUS
10
5.18213
20
-4.30708
11
5.17838
21
-4.31083
0
LINE
8
BLACK
6
CONTINUOUS
10
5.17838
20
-4.31083
11
5.17089
21
-4.31458
0
LINE
8
BLACK
6
CONTINUOUS
10
5.17089
20
-4.31458
11
5.15964
21
-4.31458
0
LINE
8
BLACK
6
CONTINUOUS
10
5.23088
20
-4.31458
11
5.22338
21
-4.31083
0
LINE
8
BLACK
6
CONTINUOUS
10
5.22338
20
-4.31083
11
5.21963
21
-4.30333
0
LINE
8
BLACK
6
CONTINUOUS
10
5.21963
20
-4.30333
11
5.21963
21
-4.23584
0
LINE
8
BLACK
6
CONTINUOUS
10
5.29087
20
-4.31083
11
5.28337
21
-4.31458
0
LINE
8
BLACK
6
CONTINUOUS
10
5.28337
20
-4.31458
11
5.26837
21
-4.31458
0
LINE
8
BLACK
6
CONTINUOUS
10
5.26837
20
-4.31458
11
5.26087
21
-4.31083
0
LINE
8
BLACK
6
CONTINUOUS
10
5.26087
20
-4.31083
11
5.25712
21
-4.30333
0
LINE
8
BLACK
6
CONTINUOUS
10
5.25712
20
-4.30333
11
5.25712
21
-4.27333
0
LINE
8
BLACK
6
CONTINUOUS
10
5.25712
20
-4.27333
11
5.26087
21
-4.26583
0
LINE
8
BLACK
6
CONTINUOUS
10
5.26087
20
-4.26583
11
5.26837
21
-4.26208
0
LINE
8
BLACK
6
CONTINUOUS
10
5.26837
20
-4.26208
11
5.28337
21
-4.26208
0
LINE
8
BLACK
6
CONTINUOUS
10
5.28337
20
-4.26208
11
5.29087
21
-4.26583
0
LINE
8
BLACK
6
CONTINUOUS
10
5.29087
20
-4.26583
11
5.29462
21
-4.27333
0
LINE
8
BLACK
6
CONTINUOUS
10
5.29462
20
-4.27333
11
5.29462
21
-4.28083
0
LINE
8
BLACK
6
CONTINUOUS
10
5.29462
20
-4.28083
11
5.25712
21
-4.28833
0
LINE
8
BLACK
6
CONTINUOUS
10
5.32462
20
-4.31083
11
5.33211
21
-4.31458
0
LINE
8
BLACK
6
CONTINUOUS
10
5.33211
20
-4.31458
11
5.34711
21
-4.31458
0
LINE
8
BLACK
6
CONTINUOUS
10
5.34711
20
-4.31458
11
5.35461
21
-4.31083
0
LINE
8
BLACK
6
CONTINUOUS
10
5.35461
20
-4.31083
11
5.35836
21
-4.30333
0
LINE
8
BLACK
6
CONTINUOUS
10
5.35836
20
-4.30333
11
5.35836
21
-4.29958
0
LINE
8
BLACK
6
CONTINUOUS
10
5.35836
20
-4.29958
11
5.35461
21
-4.29208
0
LINE
8
BLACK
6
CONTINUOUS
10
5.35461
20
-4.29208
11
5.34711
21
-4.28833
0
LINE
8
BLACK
6
CONTINUOUS
10
5.34711
20
-4.28833
11
5.33586
21
-4.28833
0
LINE
8
BLACK
6
CONTINUOUS
10
5.33586
20
-4.28833
11
5.32837
21
-4.28458
0
LINE
8
BLACK
6
CONTINUOUS
10
5.32837
20
-4.28458
11
5.32462
21
-4.27708
0
LINE
8
BLACK
6
CONTINUOUS
10
5.32462
20
-4.27708
11
5.32462
21
-4.27333
0
LINE
8
BLACK
6
CONTINUOUS
10
5.32462
20
-4.27333
11
5.32837
21
-4.26583
0
LINE
8
BLACK
6
CONTINUOUS
10
5.32837
20
-4.26583
11
5.33586
21
-4.26208
0
LINE
8
BLACK
6
CONTINUOUS
10
5.33586
20
-4.26208
11
5.34711
21
-4.26208
0
LINE
8
BLACK
6
CONTINUOUS
10
5.34711
20
-4.26208
11
5.35461
21
-4.26583
0
LINE
8
BLACK
6
CONTINUOUS
10
5.38461
20
-4.34457
11
5.38836
21
-4.34082
0
LINE
8
BLACK
6
CONTINUOUS
10
5.38836
20
-4.34082
11
5.39586
21
-4.32957
0
LINE
8
BLACK
6
CONTINUOUS
10
5.39586
20
-4.32957
11
5.39961
21
-4.32208
0
LINE
8
BLACK
6
CONTINUOUS
10
5.39961
20
-4.32208
11
5.40336
21
-4.31083
0
LINE
8
BLACK
6
CONTINUOUS
10
5.40336
20
-4.31083
11
5.40711
21
-4.29208
0
LINE
8
BLACK
6
CONTINUOUS
10
5.40711
20
-4.29208
11
5.40711
21
-4.27708
0
LINE
8
BLACK
6
CONTINUOUS
10
5.40711
20
-4.27708
11
5.40336
21
-4.25833
0
LINE
8
BLACK
6
CONTINUOUS
10
5.40336
20
-4.25833
11
5.39961
21
-4.24708
0
LINE
8
BLACK
6
CONTINUOUS
10
5.39961
20
-4.24708
11
5.39586
21
-4.23959
0
LINE
8
BLACK
6
CONTINUOUS
10
5.39586
20
-4.23959
11
5.38836
21
-4.22834
0
LINE
8
BLACK
6
CONTINUOUS
10
5.38836
20
-4.22834
11
5.38461
21
-4.22459
0
LINE
8
BLACK
6
CONTINUOUS
10
3.49114
20
-4.36339
11
3.49114
21
-4.40079
0
LINE
8
BLACK
6
CONTINUOUS
10
3.47244
20
-4.38209
11
3.50984
21
-4.38209
0
LINE
8
BLACK
6
CONTINUOUS
10
3.62233
20
-4.33977
11
3.62983
21
-4.33977
0
LINE
8
BLACK
6
CONTINUOUS
10
3.62983
20
-4.33977
11
3.63733
21
-4.34352
0
LINE
8
BLACK
6
CONTINUOUS
10
3.63733
20
-4.34352
11
3.64108
21
-4.34727
0
LINE
8
BLACK
6
CONTINUOUS
10
3.64108
20
-4.34727
11
3.64483
21
-4.35477
0
LINE
8
BLACK
6
CONTINUOUS
10
3.64483
20
-4.35477
11
3.64858
21
-4.36977
0
LINE
8
BLACK
6
CONTINUOUS
10
3.64858
20
-4.36977
11
3.64858
21
-4.38852
0
LINE
8
BLACK
6
CONTINUOUS
10
3.64858
20
-4.38852
11
3.64483
21
-4.40352
0
LINE
8
BLACK
6
CONTINUOUS
10
3.64483
20
-4.40352
11
3.64108
21
-4.41101
0
LINE
8
BLACK
6
CONTINUOUS
10
3.64108
20
-4.41101
11
3.63733
21
-4.41476
0
LINE
8
BLACK
6
CONTINUOUS
10
3.63733
20
-4.41476
11
3.62983
21
-4.41851
0
LINE
8
BLACK
6
CONTINUOUS
10
3.62983
20
-4.41851
11
3.62233
21
-4.41851
0
LINE
8
BLACK
6
CONTINUOUS
10
3.62233
20
-4.41851
11
3.61483
21
-4.41476
0
LINE
8
BLACK
6
CONTINUOUS
10
3.61483
20
-4.41476
11
3.61108
21
-4.41101
0
LINE
8
BLACK
6
CONTINUOUS
10
3.61108
20
-4.41101
11
3.60733
21
-4.40352
0
LINE
8
BLACK
6
CONTINUOUS
10
3.60733
20
-4.40352
11
3.60358
21
-4.38852
0
LINE
8
BLACK
6
CONTINUOUS
10
3.60358
20
-4.38852
11
3.60358
21
-4.36977
0
LINE
8
BLACK
6
CONTINUOUS
10
3.60358
20
-4.36977
11
3.60733
21
-4.35477
0
LINE
8
BLACK
6
CONTINUOUS
10
3.60733
20
-4.35477
11
3.61108
21
-4.34727
0
LINE
8
BLACK
6
CONTINUOUS
10
3.61108
20
-4.34727
11
3.61483
21
-4.34352
0
LINE
8
BLACK
6
CONTINUOUS
10
3.61483
20
-4.34352
11
3.62233
21
-4.33977
0
LINE
8
BLACK
6
CONTINUOUS
10
3.68232
20
-4.41101
11
3.68607
21
-4.41476
0
LINE
8
BLACK
6
CONTINUOUS
10
3.68607
20
-4.41476
11
3.68232
21
-4.41851
0
LINE
8
BLACK
6
CONTINUOUS
10
3.68232
20
-4.41851
11
3.67857
21
-4.41476
0
LINE
8
BLACK
6
CONTINUOUS
10
3.67857
20
-4.41476
11
3.68232
21
-4.41101
0
LINE
8
BLACK
6
CONTINUOUS
10
3.68232
20
-4.41101
11
3.68232
21
-4.41851
0
LINE
8
BLACK
6
CONTINUOUS
10
3.72357
20
-4.41851
11
3.73856
21
-4.41851
0
LINE
8
BLACK
6
CONTINUOUS
10
3.73856
20
-4.41851
11
3.74606
21
-4.41476
0
LINE
8
BLACK
6
CONTINUOUS
10
3.74606
20
-4.41476
11
3.74981
21
-4.41101
0
LINE
8
BLACK
6
CONTINUOUS
10
3.74981
20
-4.41101
11
3.75731
21
-4.39977
0
LINE
8
BLACK
6
CONTINUOUS
10
3.75731
20
-4.39977
11
3.76106
21
-4.38477
0
LINE
8
BLACK
6
CONTINUOUS
10
3.76106
20
-4.38477
11
3.76106
21
-4.35477
0
LINE
8
BLACK
6
CONTINUOUS
10
3.76106
20
-4.35477
11
3.75731
21
-4.34727
0
LINE
8
BLACK
6
CONTINUOUS
10
3.75731
20
-4.34727
11
3.75356
21
-4.34352
0
LINE
8
BLACK
6
CONTINUOUS
10
3.75356
20
-4.34352
11
3.74606
21
-4.33977
0
LINE
8
BLACK
6
CONTINUOUS
10
3.74606
20
-4.33977
11
3.73106
21
-4.33977
0
LINE
8
BLACK
6
CONTINUOUS
10
3.73106
20
-4.33977
11
3.72357
21
-4.34352
0
LINE
8
BLACK
6
CONTINUOUS
10
3.72357
20
-4.34352
11
3.71982
21
-4.34727
0
LINE
8
BLACK
6
CONTINUOUS
10
3.71982
20
-4.34727
11
3.71607
21
-4.35477
0
LINE
8
BLACK
6
CONTINUOUS
10
3.71607
20
-4.35477
11
3.71607
21
-4.37352
0
LINE
8
BLACK
6
CONTINUOUS
10
3.71607
20
-4.37352
11
3.71982
21
-4.38102
0
LINE
8
BLACK
6
CONTINUOUS
10
3.71982
20
-4.38102
11
3.72357
21
-4.38477
0
LINE
8
BLACK
6
CONTINUOUS
10
3.72357
20
-4.38477
11
3.73106
21
-4.38852
0
LINE
8
BLACK
6
CONTINUOUS
10
3.73106
20
-4.38852
11
3.74606
21
-4.38852
0
LINE
8
BLACK
6
CONTINUOUS
10
3.74606
20
-4.38852
11
3.75356
21
-4.38477
0
LINE
8
BLACK
6
CONTINUOUS
10
3.75356
20
-4.38477
11
3.75731
21
-4.38102
0
LINE
8
BLACK
6
CONTINUOUS
10
3.75731
20
-4.38102
11
3.76106
21
-4.37352
0
LINE
8
BLACK
6
CONTINUOUS
10
3.8323
20
-4.33977
11
3.79481
21
-4.33977
0
LINE
8
BLACK
6
CONTINUOUS
10
3.79481
20
-4.33977
11
3.79106
21
-4.37727
0
LINE
8
BLACK
6
CONTINUOUS
10
3.79106
20
-4.37727
11
3.79481
21
-4.37352
0
LINE
8
BLACK
6
CONTINUOUS
10
3.79481
20
-4.37352
11
3.80231
21
-4.36977
0
LINE
8
BLACK
6
CONTINUOUS
10
3.80231
20
-4.36977
11
3.82105
21
-4.36977
0
LINE
8
BLACK
6
CONTINUOUS
10
3.82105
20
-4.36977
11
3.82855
21
-4.37352
0
LINE
8
BLACK
6
CONTINUOUS
10
3.82855
20
-4.37352
11
3.8323
21
-4.37727
0
LINE
8
BLACK
6
CONTINUOUS
10
3.8323
20
-4.37727
11
3.83605
21
-4.38477
0
LINE
8
BLACK
6
CONTINUOUS
10
3.83605
20
-4.38477
11
3.83605
21
-4.40352
0
LINE
8
BLACK
6
CONTINUOUS
10
3.83605
20
-4.40352
11
3.8323
21
-4.41101
0
LINE
8
BLACK
6
CONTINUOUS
10
3.8323
20
-4.41101
11
3.82855
21
-4.41476
0
LINE
8
BLACK
6
CONTINUOUS
10
3.82855
20
-4.41476
11
3.82105
21
-4.41851
0
LINE
8
BLACK
6
CONTINUOUS
10
3.82105
20
-4.41851
11
3.80231
21
-4.41851
0
LINE
8
BLACK
6
CONTINUOUS
10
3.80231
20
-4.41851
11
3.79481
21
-4.41476
0
LINE
8
BLACK
6
CONTINUOUS
10
3.79481
20
-4.41476
11
3.79106
21
-4.41101
0
LINE
8
BLACK
6
CONTINUOUS
10
3.8848
20
-4.33977
11
3.89229
21
-4.33977
0
LINE
8
BLACK
6
CONTINUOUS
10
3.89229
20
-4.33977
11
3.89979
21
-4.34352
0
LINE
8
BLACK
6
CONTINUOUS
10
3.89979
20
-4.34352
11
3.90354
21
-4.34727
0
LINE
8
BLACK
6
CONTINUOUS
10
3.90354
20
-4.34727
11
3.90729
21
-4.35477
0
LINE
8
BLACK
6
CONTINUOUS
10
3.90729
20
-4.35477
11
3.91104
21
-4.36977
0
LINE
8
BLACK
6
CONTINUOUS
10
3.91104
20
-4.36977
11
3.91104
21
-4.38852
0
LINE
8
BLACK
6
CONTINUOUS
10
3.91104
20
-4.38852
11
3.90729
21
-4.40352
0
LINE
8
BLACK
6
CONTINUOUS
10
3.90729
20
-4.40352
11
3.90354
21
-4.41101
0
LINE
8
BLACK
6
CONTINUOUS
10
3.90354
20
-4.41101
11
3.89979
21
-4.41476
0
LINE
8
BLACK
6
CONTINUOUS
10
3.89979
20
-4.41476
11
3.89229
21
-4.41851
0
LINE
8
BLACK
6
CONTINUOUS
10
3.89229
20
-4.41851
11
3.8848
21
-4.41851
0
LINE
8
BLACK
6
CONTINUOUS
10
3.8848
20
-4.41851
11
3.8773
21
-4.41476
0
LINE
8
BLACK
6
CONTINUOUS
10
3.8773
20
-4.41476
11
3.87355
21
-4.41101
0
LINE
8
BLACK
6
CONTINUOUS
10
3.87355
20
-4.41101
11
3.8698
21
-4.40352
0
LINE
8
BLACK
6
CONTINUOUS
10
3.8698
20
-4.40352
11
3.86605
21
-4.38852
0
LINE
8
BLACK
6
CONTINUOUS
10
3.86605
20
-4.38852
11
3.86605
21
-4.36977
0
LINE
8
BLACK
6
CONTINUOUS
10
3.86605
20
-4.36977
11
3.8698
21
-4.35477
0
LINE
8
BLACK
6
CONTINUOUS
10
3.8698
20
-4.35477
11
3.87355
21
-4.34727
0
LINE
8
BLACK
6
CONTINUOUS
10
3.87355
20
-4.34727
11
3.8773
21
-4.34352
0
LINE
8
BLACK
6
CONTINUOUS
10
3.8773
20
-4.34352
11
3.8848
21
-4.33977
0
LINE
8
BLACK
6
CONTINUOUS
10
3.94479
20
-4.41851
11
3.94479
21
-4.36602
0
LINE
8
BLACK
6
CONTINUOUS
10
3.94479
20
-4.37352
11
3.94854
21
-4.36977
0
LINE
8
BLACK
6
CONTINUOUS
10
3.94854
20
-4.36977
11
3.95604
21
-4.36602
0
LINE
8
BLACK
6
CONTINUOUS
10
3.95604
20
-4.36602
11
3.96729
21
-4.36602
0
LINE
8
BLACK
6
CONTINUOUS
10
3.96729
20
-4.36602
11
3.97478
21
-4.36977
0
LINE
8
BLACK
6
CONTINUOUS
10
3.97478
20
-4.36977
11
3.97853
21
-4.37727
0
LINE
8
BLACK
6
CONTINUOUS
10
3.97853
20
-4.37727
11
3.97853
21
-4.41851
0
LINE
8
BLACK
6
CONTINUOUS
10
3.97853
20
-4.37727
11
3.98228
21
-4.36977
0
LINE
8
BLACK
6
CONTINUOUS
10
3.98228
20
-4.36977
11
3.98978
21
-4.36602
0
LINE
8
BLACK
6
CONTINUOUS
10
3.98978
20
-4.36602
11
4.00103
21
-4.36602
0
LINE
8
BLACK
6
CONTINUOUS
10
4.00103
20
-4.36602
11
4.00853
21
-4.36977
0
LINE
8
BLACK
6
CONTINUOUS
10
4.00853
20
-4.36977
11
4.01228
21
-4.37727
0
LINE
8
BLACK
6
CONTINUOUS
10
4.01228
20
-4.37727
11
4.01228
21
-4.41851
0
LINE
8
BLACK
6
CONTINUOUS
10
4.04978
20
-4.41851
11
4.04978
21
-4.36602
0
LINE
8
BLACK
6
CONTINUOUS
10
4.04978
20
-4.37352
11
4.05352
21
-4.36977
0
LINE
8
BLACK
6
CONTINUOUS
10
4.05352
20
-4.36977
11
4.06102
21
-4.36602
0
LINE
8
BLACK
6
CONTINUOUS
10
4.06102
20
-4.36602
11
4.07227
21
-4.36602
0
LINE
8
BLACK
6
CONTINUOUS
10
4.07227
20
-4.36602
11
4.07977
21
-4.36977
0
LINE
8
BLACK
6
CONTINUOUS
10
4.07977
20
-4.36977
11
4.08352
21
-4.37727
0
LINE
8
BLACK
6
CONTINUOUS
10
4.08352
20
-4.37727
11
4.08352
21
-4.41851
0
LINE
8
BLACK
6
CONTINUOUS
10
4.08352
20
-4.37727
11
4.08727
21
-4.36977
0
LINE
8
BLACK
6
CONTINUOUS
10
4.08727
20
-4.36977
11
4.09477
21
-4.36602
0
LINE
8
BLACK
6
CONTINUOUS
10
4.09477
20
-4.36602
11
4.10602
21
-4.36602
0
LINE
8
BLACK
6
CONTINUOUS
10
4.10602
20
-4.36602
11
4.11352
21
-4.36977
0
LINE
8
BLACK
6
CONTINUOUS
10
4.11352
20
-4.36977
11
4.11727
21
-4.37727
0
LINE
8
BLACK
6
CONTINUOUS
10
4.11727
20
-4.37727
11
4.11727
21
-4.41851
0
LINE
8
BLACK
6
CONTINUOUS
10
4.271
20
-4.33602
11
4.20351
21
-4.43726
0
LINE
8
BLACK
6
CONTINUOUS
10
4.37223
20
-4.33977
11
4.37973
21
-4.33977
0
LINE
8
BLACK
6
CONTINUOUS
10
4.37973
20
-4.33977
11
4.38723
21
-4.34352
0
LINE
8
BLACK
6
CONTINUOUS
10
4.38723
20
-4.34352
11
4.39098
21
-4.34727
0
LINE
8
BLACK
6
CONTINUOUS
10
4.39098
20
-4.34727
11
4.39473
21
-4.35477
0
LINE
8
BLACK
6
CONTINUOUS
10
4.39473
20
-4.35477
11
4.39848
21
-4.36977
0
LINE
8
BLACK
6
CONTINUOUS
10
4.39848
20
-4.36977
11
4.39848
21
-4.38852
0
LINE
8
BLACK
6
CONTINUOUS
10
4.39848
20
-4.38852
11
4.39473
21
-4.40352
0
LINE
8
BLACK
6
CONTINUOUS
10
4.39473
20
-4.40352
11
4.39098
21
-4.41101
0
LINE
8
BLACK
6
CONTINUOUS
10
4.39098
20
-4.41101
11
4.38723
21
-4.41476
0
LINE
8
BLACK
6
CONTINUOUS
10
4.38723
20
-4.41476
11
4.37973
21
-4.41851
0
LINE
8
BLACK
6
CONTINUOUS
10
4.37973
20
-4.41851
11
4.37223
21
-4.41851
0
LINE
8
BLACK
6
CONTINUOUS
10
4.37223
20
-4.41851
11
4.36474
21
-4.41476
0
LINE
8
BLACK
6
CONTINUOUS
10
4.36474
20
-4.41476
11
4.36099
21
-4.41101
0
LINE
8
BLACK
6
CONTINUOUS
10
4.36099
20
-4.41101
11
4.35724
21
-4.40352
0
LINE
8
BLACK
6
CONTINUOUS
10
4.35724
20
-4.40352
11
4.35349
21
-4.38852
0
LINE
8
BLACK
6
CONTINUOUS
10
4.35349
20
-4.38852
11
4.35349
21
-4.36977
0
LINE
8
BLACK
6
CONTINUOUS
10
4.35349
20
-4.36977
11
4.35724
21
-4.35477
0
LINE
8
BLACK
6
CONTINUOUS
10
4.35724
20
-4.35477
11
4.36099
21
-4.34727
0
LINE
8
BLACK
6
CONTINUOUS
10
4.36099
20
-4.34727
11
4.36474
21
-4.34352
0
LINE
8
BLACK
6
CONTINUOUS
10
4.36474
20
-4.34352
11
4.37223
21
-4.33977
0
LINE
8
BLACK
6
CONTINUOUS
10
4.43223
20
-4.41101
11
4.43598
21
-4.41476
0
LINE
8
BLACK
6
CONTINUOUS
10
4.43598
20
-4.41476
11
4.43223
21
-4.41851
0
LINE
8
BLACK
6
CONTINUOUS
10
4.43223
20
-4.41851
11
4.42848
21
-4.41476
0
LINE
8
BLACK
6
CONTINUOUS
10
4.42848
20
-4.41476
11
4.43223
21
-4.41101
0
LINE
8
BLACK
6
CONTINUOUS
10
4.43223
20
-4.41101
11
4.43223
21
-4.41851
0
LINE
8
BLACK
6
CONTINUOUS
10
4.48472
20
-4.33977
11
4.49222
21
-4.33977
0
LINE
8
BLACK
6
CONTINUOUS
10
4.49222
20
-4.33977
11
4.49972
21
-4.34352
0
LINE
8
BLACK
6
CONTINUOUS
10
4.49972
20
-4.34352
11
4.50347
21
-4.34727
0
LINE
8
BLACK
6
CONTINUOUS
10
4.50347
20
-4.34727
11
4.50722
21
-4.35477
0
LINE
8
BLACK
6
CONTINUOUS
10
4.50722
20
-4.35477
11
4.51097
21
-4.36977
0
LINE
8
BLACK
6
CONTINUOUS
10
4.51097
20
-4.36977
11
4.51097
21
-4.38852
0
LINE
8
BLACK
6
CONTINUOUS
10
4.51097
20
-4.38852
11
4.50722
21
-4.40352
0
LINE
8
BLACK
6
CONTINUOUS
10
4.50722
20
-4.40352
11
4.50347
21
-4.41101
0
LINE
8
BLACK
6
CONTINUOUS
10
4.50347
20
-4.41101
11
4.49972
21
-4.41476
0
LINE
8
BLACK
6
CONTINUOUS
10
4.49972
20
-4.41476
11
4.49222
21
-4.41851
0
LINE
8
BLACK
6
CONTINUOUS
10
4.49222
20
-4.41851
11
4.48472
21
-4.41851
0
LINE
8
BLACK
6
CONTINUOUS
10
4.48472
20
-4.41851
11
4.47722
21
-4.41476
0
LINE
8
BLACK
6
CONTINUOUS
10
4.47722
20
-4.41476
11
4.47347
21
-4.41101
0
LINE
8
BLACK
6
CONTINUOUS
10
4.47347
20
-4.41101
11
4.46972
21
-4.40352
0
LINE
8
BLACK
6
CONTINUOUS
10
4.46972
20
-4.40352
11
4.46597
21
-4.38852
0
LINE
8
BLACK
6
CONTINUOUS
10
4.46597
20
-4.38852
11
4.46597
21
-4.36977
0
LINE
8
BLACK
6
CONTINUOUS
10
4.46597
20
-4.36977
11
4.46972
21
-4.35477
0
LINE
8
BLACK
6
CONTINUOUS
10
4.46972
20
-4.35477
11
4.47347
21
-4.34727
0
LINE
8
BLACK
6
CONTINUOUS
10
4.47347
20
-4.34727
11
4.47722
21
-4.34352
0
LINE
8
BLACK
6
CONTINUOUS
10
4.47722
20
-4.34352
11
4.48472
21
-4.33977
0
LINE
8
BLACK
6
CONTINUOUS
10
4.53721
20
-4.33977
11
4.58596
21
-4.33977
0
LINE
8
BLACK
6
CONTINUOUS
10
4.58596
20
-4.33977
11
4.55971
21
-4.36977
0
LINE
8
BLACK
6
CONTINUOUS
10
4.55971
20
-4.36977
11
4.57096
21
-4.36977
0
LINE
8
BLACK
6
CONTINUOUS
10
4.57096
20
-4.36977
11
4.57846
21
-4.37352
0
LINE
8
BLACK
6
CONTINUOUS
10
4.57846
20
-4.37352
11
4.58221
21
-4.37727
0
LINE
8
BLACK
6
CONTINUOUS
10
4.58221
20
-4.37727
11
4.58596
21
-4.38477
0
LINE
8
BLACK
6
CONTINUOUS
10
4.58596
20
-4.38477
11
4.58596
21
-4.40352
0
LINE
8
BLACK
6
CONTINUOUS
10
4.58596
20
-4.40352
11
4.58221
21
-4.41101
0
LINE
8
BLACK
6
CONTINUOUS
10
4.58221
20
-4.41101
11
4.57846
21
-4.41476
0
LINE
8
BLACK
6
CONTINUOUS
10
4.57846
20
-4.41476
11
4.57096
21
-4.41851
0
LINE
8
BLACK
6
CONTINUOUS
10
4.57096
20
-4.41851
11
4.54846
21
-4.41851
0
LINE
8
BLACK
6
CONTINUOUS
10
4.54846
20
-4.41851
11
4.54096
21
-4.41476
0
LINE
8
BLACK
6
CONTINUOUS
10
4.54096
20
-4.41476
11
4.53721
21
-4.41101
0
LINE
8
BLACK
6
CONTINUOUS
10
4.6122
20
-4.33977
11
4.6647
21
-4.33977
0
LINE
8
BLACK
6
CONTINUOUS
10
4.6647
20
-4.33977
11
4.63095
21
-4.41851
0
LINE
8
BLACK
6
CONTINUOUS
10
4.72844
20
-4.36602
11
4.72844
21
-4.41851
0
LINE
8
BLACK
6
CONTINUOUS
10
4.70969
20
-4.33602
11
4.69094
21
-4.39227
0
LINE
8
BLACK
6
CONTINUOUS
10
4.69094
20
-4.39227
11
4.73969
21
-4.39227
0
LINE
8
BLACK
6
CONTINUOUS
10
4.76594
20
-4.33977
11
4.76594
21
-4.35477
0
LINE
8
BLACK
6
CONTINUOUS
10
4.79593
20
-4.33977
11
4.79593
21
-4.35477
0
LINE
8
BLACK
6
CONTINUOUS
10
4.91217
20
-4.44851
11
4.90842
21
-4.44476
0
LINE
8
BLACK
6
CONTINUOUS
10
4.90842
20
-4.44476
11
4.90092
21
-4.43351
0
LINE
8
BLACK
6
CONTINUOUS
10
4.90092
20
-4.43351
11
4.89717
21
-4.42601
0
LINE
8
BLACK
6
CONTINUOUS
10
4.89717
20
-4.42601
11
4.89342
21
-4.41476
0
LINE
8
BLACK
6
CONTINUOUS
10
4.89342
20
-4.41476
11
4.88967
21
-4.39602
0
LINE
8
BLACK
6
CONTINUOUS
10
4.88967
20
-4.39602
11
4.88967
21
-4.38102
0
LINE
8
BLACK
6
CONTINUOUS
10
4.88967
20
-4.38102
11
4.89342
21
-4.36227
0
LINE
8
BLACK
6
CONTINUOUS
10
4.89342
20
-4.36227
11
4.89717
21
-4.35102
0
LINE
8
BLACK
6
CONTINUOUS
10
4.89717
20
-4.35102
11
4.90092
21
-4.34352
0
LINE
8
BLACK
6
CONTINUOUS
10
4.90092
20
-4.34352
11
4.90842
21
-4.33227
0
LINE
8
BLACK
6
CONTINUOUS
10
4.90842
20
-4.33227
11
4.91217
21
-4.32852
0
LINE
8
BLACK
6
CONTINUOUS
10
4.97591
20
-4.33977
11
4.96091
21
-4.33977
0
LINE
8
BLACK
6
CONTINUOUS
10
4.96091
20
-4.33977
11
4.95341
21
-4.34352
0
LINE
8
BLACK
6
CONTINUOUS
10
4.95341
20
-4.34352
11
4.94966
21
-4.34727
0
LINE
8
BLACK
6
CONTINUOUS
10
4.94966
20
-4.34727
11
4.94216
21
-4.35852
0
LINE
8
BLACK
6
CONTINUOUS
10
4.94216
20
-4.35852
11
4.93841
21
-4.37352
0
LINE
8
BLACK
6
CONTINUOUS
10
4.93841
20
-4.37352
11
4.93841
21
-4.40352
0
LINE
8
BLACK
6
CONTINUOUS
10
4.93841
20
-4.40352
11
4.94216
21
-4.41101
0
LINE
8
BLACK
6
CONTINUOUS
10
4.94216
20
-4.41101
11
4.94591
21
-4.41476
0
LINE
8
BLACK
6
CONTINUOUS
10
4.94591
20
-4.41476
11
4.95341
21
-4.41851
0
LINE
8
BLACK
6
CONTINUOUS
10
4.95341
20
-4.41851
11
4.96841
21
-4.41851
0
LINE
8
BLACK
6
CONTINUOUS
10
4.96841
20
-4.41851
11
4.97591
21
-4.41476
0
LINE
8
BLACK
6
CONTINUOUS
10
4.97591
20
-4.41476
11
4.97966
21
-4.41101
0
LINE
8
BLACK
6
CONTINUOUS
10
4.97966
20
-4.41101
11
4.98341
21
-4.40352
0
LINE
8
BLACK
6
CONTINUOUS
10
4.98341
20
-4.40352
11
4.98341
21
-4.38477
0
LINE
8
BLACK
6
CONTINUOUS
10
4.98341
20
-4.38477
11
4.97966
21
-4.37727
0
LINE
8
BLACK
6
CONTINUOUS
10
4.97966
20
-4.37727
11
4.97591
21
-4.37352
0
LINE
8
BLACK
6
CONTINUOUS
10
4.97591
20
-4.37352
11
4.96841
21
-4.36977
0
LINE
8
BLACK
6
CONTINUOUS
10
4.96841
20
-4.36977
11
4.95341
21
-4.36977
0
LINE
8
BLACK
6
CONTINUOUS
10
4.95341
20
-4.36977
11
4.94591
21
-4.37352
0
LINE
8
BLACK
6
CONTINUOUS
10
4.94591
20
-4.37352
11
4.94216
21
-4.37727
0
LINE
8
BLACK
6
CONTINUOUS
10
4.94216
20
-4.37727
11
4.93841
21
-4.38477
0
LINE
8
BLACK
6
CONTINUOUS
10
5.07715
20
-4.41851
11
5.07715
21
-4.33977
0
LINE
8
BLACK
6
CONTINUOUS
10
5.11089
20
-4.41851
11
5.11089
21
-4.37727
0
LINE
8
BLACK
6
CONTINUOUS
10
5.11089
20
-4.37727
11
5.10714
21
-4.36977
0
LINE
8
BLACK
6
CONTINUOUS
10
5.10714
20
-4.36977
11
5.09964
21
-4.36602
0
LINE
8
BLACK
6
CONTINUOUS
10
5.09964
20
-4.36602
11
5.0884
21
-4.36602
0
LINE
8
BLACK
6
CONTINUOUS
10
5.0884
20
-4.36602
11
5.0809
21
-4.36977
0
LINE
8
BLACK
6
CONTINUOUS
10
5.0809
20
-4.36977
11
5.07715
21
-4.37352
0
LINE
8
BLACK
6
CONTINUOUS
10
5.15964
20
-4.41851
11
5.15214
21
-4.41476
0
LINE
8
BLACK
6
CONTINUOUS
10
5.15214
20
-4.41476
11
5.14839
21
-4.41101
0
LINE
8
BLACK
6
CONTINUOUS
10
5.14839
20
-4.41101
11
5.14464
21
-4.40352
0
LINE
8
BLACK
6
CONTINUOUS
10
5.14464
20
-4.40352
11
5.14464
21
-4.38102
0
LINE
8
BLACK
6
CONTINUOUS
10
5.14464
20
-4.38102
11
5.14839
21
-4.37352
0
LINE
8
BLACK
6
CONTINUOUS
10
5.14839
20
-4.37352
11
5.15214
21
-4.36977
0
LINE
8
BLACK
6
CONTINUOUS
10
5.15214
20
-4.36977
11
5.15964
21
-4.36602
0
LINE
8
BLACK
6
CONTINUOUS
10
5.15964
20
-4.36602
11
5.17089
21
-4.36602
0
LINE
8
BLACK
6
CONTINUOUS
10
5.17089
20
-4.36602
11
5.17838
21
-4.36977
0
LINE
8
BLACK
6
CONTINUOUS
10
5.17838
20
-4.36977
11
5.18213
21
-4.37352
0
LINE
8
BLACK
6
CONTINUOUS
10
5.18213
20
-4.37352
11
5.18588
21
-4.38102
0
LINE
8
BLACK
6
CONTINUOUS
10
5.18588
20
-4.38102
11
5.18588
21
-4.40352
0
LINE
8
BLACK
6
CONTINUOUS
10
5.18588
20
-4.40352
11
5.18213
21
-4.41101
0
LINE
8
BLACK
6
CONTINUOUS
10
5.18213
20
-4.41101
11
5.17838
21
-4.41476
0
LINE
8
BLACK
6
CONTINUOUS
10
5.17838
20
-4.41476
11
5.17089
21
-4.41851
0
LINE
8
BLACK
6
CONTINUOUS
10
5.17089
20
-4.41851
11
5.15964
21
-4.41851
0
LINE
8
BLACK
6
CONTINUOUS
10
5.23088
20
-4.41851
11
5.22338
21
-4.41476
0
LINE
8
BLACK
6
CONTINUOUS
10
5.22338
20
-4.41476
11
5.21963
21
-4.40726
0
LINE
8
BLACK
6
CONTINUOUS
10
5.21963
20
-4.40726
11
5.21963
21
-4.33977
0
LINE
8
BLACK
6
CONTINUOUS
10
5.29087
20
-4.41476
11
5.28337
21
-4.41851
0
LINE
8
BLACK
6
CONTINUOUS
10
5.28337
20
-4.41851
11
5.26837
21
-4.41851
0
LINE
8
BLACK
6
CONTINUOUS
10
5.26837
20
-4.41851
11
5.26087
21
-4.41476
0
LINE
8
BLACK
6
CONTINUOUS
10
5.26087
20
-4.41476
11
5.25712
21
-4.40726
0
LINE
8
BLACK
6
CONTINUOUS
10
5.25712
20
-4.40726
11
5.25712
21
-4.37727
0
LINE
8
BLACK
6
CONTINUOUS
10
5.25712
20
-4.37727
11
5.26087
21
-4.36977
0
LINE
8
BLACK
6
CONTINUOUS
10
5.26087
20
-4.36977
11
5.26837
21
-4.36602
0
LINE
8
BLACK
6
CONTINUOUS
10
5.26837
20
-4.36602
11
5.28337
21
-4.36602
0
LINE
8
BLACK
6
CONTINUOUS
10
5.28337
20
-4.36602
11
5.29087
21
-4.36977
0
LINE
8
BLACK
6
CONTINUOUS
10
5.29087
20
-4.36977
11
5.29462
21
-4.37727
0
LINE
8
BLACK
6
CONTINUOUS
10
5.29462
20
-4.37727
11
5.29462
21
-4.38477
0
LINE
8
BLACK
6
CONTINUOUS
10
5.29462
20
-4.38477
11
5.25712
21
-4.39227
0
LINE
8
BLACK
6
CONTINUOUS
10
5.32462
20
-4.41476
11
5.33211
21
-4.41851
0
LINE
8
BLACK
6
CONTINUOUS
10
5.33211
20
-4.41851
11
5.34711
21
-4.41851
0
LINE
8
BLACK
6
CONTINUOUS
10
5.34711
20
-4.41851
11
5.35461
21
-4.41476
0
LINE
8
BLACK
6
CONTINUOUS
10
5.35461
20
-4.41476
11
5.35836
21
-4.40726
0
LINE
8
BLACK
6
CONTINUOUS
10
5.35836
20
-4.40726
11
5.35836
21
-4.40352
0
LINE
8
BLACK
6
CONTINUOUS
10
5.35836
20
-4.40352
11
5.35461
21
-4.39602
0
LINE
8
BLACK
6
CONTINUOUS
10
5.35461
20
-4.39602
11
5.34711
21
-4.39227
0
LINE
8
BLACK
6
CONTINUOUS
10
5.34711
20
-4.39227
11
5.33586
21
-4.39227
0
LINE
8
BLACK
6
CONTINUOUS
10
5.33586
20
-4.39227
11
5.32837
21
-4.38852
0
LINE
8
BLACK
6
CONTINUOUS
10
5.32837
20
-4.38852
11
5.32462
21
-4.38102
0
LINE
8
BLACK
6
CONTINUOUS
10
5.32462
20
-4.38102
11
5.32462
21
-4.37727
0
LINE
8
BLACK
6
CONTINUOUS
10
5.32462
20
-4.37727
11
5.32837
21
-4.36977
0
LINE
8
BLACK
6
CONTINUOUS
10
5.32837
20
-4.36977
11
5.33586
21
-4.36602
0
LINE
8
BLACK
6
CONTINUOUS
10
5.33586
20
-4.36602
11
5.34711
21
-4.36602
0
LINE
8
BLACK
6
CONTINUOUS
10
5.34711
20
-4.36602
11
5.35461
21
-4.36977
0
LINE
8
BLACK
6
CONTINUOUS
10
5.38461
20
-4.44851
11
5.38836
21
-4.44476
0
LINE
8
BLACK
6
CONTINUOUS
10
5.38836
20
-4.44476
11
5.39586
21
-4.43351
0
LINE
8
BLACK
6
CONTINUOUS
10
5.39586
20
-4.43351
11
5.39961
21
-4.42601
0
LINE
8
BLACK
6
CONTINUOUS
10
5.39961
20
-4.42601
11
5.40336
21
-4.41476
0
LINE
8
BLACK
6
CONTINUOUS
10
5.40336
20
-4.41476
11
5.40711
21
-4.39602
0
LINE
8
BLACK
6
CONTINUOUS
10
5.40711
20
-4.39602
11
5.40711
21
-4.38102
0
LINE
8
BLACK
6
CONTINUOUS
10
5.40711
20
-4.38102
11
5.40336
21
-4.36227
0
LINE
8
BLACK
6
CONTINUOUS
10
5.40336
20
-4.36227
11
5.39961
21
-4.35102
0
LINE
8
BLACK
6
CONTINUOUS
10
5.39961
20
-4.35102
11
5.39586
21
-4.34352
0
LINE
8
BLACK
6
CONTINUOUS
10
5.39586
20
-4.34352
11
5.38836
21
-4.33227
0
LINE
8
BLACK
6
CONTINUOUS
10
5.38836
20
-4.33227
11
5.38461
21
-4.32852
0
LINE
8
BLACK
6
CONTINUOUS
10
3.50408
20
-4.49994
11
3.50408
21
-4.4721
0
LINE
8
BLACK
6
CONTINUOUS
10
3.50408
20
-4.4721
11
3.47624
21
-4.4721
0
LINE
8
BLACK
6
CONTINUOUS
10
3.47624
20
-4.4721
11
3.47624
21
-4.49994
0
LINE
8
BLACK
6
CONTINUOUS
10
3.47624
20
-4.49994
11
3.50408
21
-4.49994
0
LINE
8
BLACK
6
CONTINUOUS
10
3.64858
20
-4.52245
11
3.60358
21
-4.52245
0
LINE
8
BLACK
6
CONTINUOUS
10
3.62608
20
-4.52245
11
3.62608
21
-4.44371
0
LINE
8
BLACK
6
CONTINUOUS
10
3.62608
20
-4.44371
11
3.61858
21
-4.45496
0
LINE
8
BLACK
6
CONTINUOUS
10
3.61858
20
-4.45496
11
3.61108
21
-4.46246
0
LINE
8
BLACK
6
CONTINUOUS
10
3.61108
20
-4.46246
11
3.60358
21
-4.46621
0
LINE
8
BLACK
6
CONTINUOUS
10
3.68232
20
-4.51495
11
3.68607
21
-4.5187
0
LINE
8
BLACK
6
CONTINUOUS
10
3.68607
20
-4.5187
11
3.68232
21
-4.52245
0
LINE
8
BLACK
6
CONTINUOUS
10
3.68232
20
-4.52245
11
3.67857
21
-4.5187
0
LINE
8
BLACK
6
CONTINUOUS
10
3.67857
20
-4.5187
11
3.68232
21
-4.51495
0
LINE
8
BLACK
6
CONTINUOUS
10
3.68232
20
-4.51495
11
3.68232
21
-4.52245
0
LINE
8
BLACK
6
CONTINUOUS
10
3.73481
20
-4.44371
11
3.74231
21
-4.44371
0
LINE
8
BLACK
6
CONTINUOUS
10
3.74231
20
-4.44371
11
3.74981
21
-4.44746
0
LINE
8
BLACK
6
CONTINUOUS
10
3.74981
20
-4.44746
11
3.75356
21
-4.45121
0
LINE
8
BLACK
6
CONTINUOUS
10
3.75356
20
-4.45121
11
3.75731
21
-4.45871
0
LINE
8
BLACK
6
CONTINUOUS
10
3.75731
20
-4.45871
11
3.76106
21
-4.47371
0
LINE
8
BLACK
6
CONTINUOUS
10
3.76106
20
-4.47371
11
3.76106
21
-4.49245
0
LINE
8
BLACK
6
CONTINUOUS
10
3.76106
20
-4.49245
11
3.75731
21
-4.50745
0
LINE
8
BLACK
6
CONTINUOUS
10
3.75731
20
-4.50745
11
3.75356
21
-4.51495
0
LINE
8
BLACK
6
CONTINUOUS
10
3.75356
20
-4.51495
11
3.74981
21
-4.5187
0
LINE
8
BLACK
6
CONTINUOUS
10
3.74981
20
-4.5187
11
3.74231
21
-4.52245
0
LINE
8
BLACK
6
CONTINUOUS
10
3.74231
20
-4.52245
11
3.73481
21
-4.52245
0
LINE
8
BLACK
6
CONTINUOUS
10
3.73481
20
-4.52245
11
3.72732
21
-4.5187
0
LINE
8
BLACK
6
CONTINUOUS
10
3.72732
20
-4.5187
11
3.72357
21
-4.51495
0
LINE
8
BLACK
6
CONTINUOUS
10
3.72357
20
-4.51495
11
3.71982
21
-4.50745
0
LINE
8
BLACK
6
CONTINUOUS
10
3.71982
20
-4.50745
11
3.71607
21
-4.49245
0
LINE
8
BLACK
6
CONTINUOUS
10
3.71607
20
-4.49245
11
3.71607
21
-4.47371
0
LINE
8
BLACK
6
CONTINUOUS
10
3.71607
20
-4.47371
11
3.71982
21
-4.45871
0
LINE
8
BLACK
6
CONTINUOUS
10
3.71982
20
-4.45871
11
3.72357
21
-4.45121
0
LINE
8
BLACK
6
CONTINUOUS
10
3.72357
20
-4.45121
11
3.72732
21
-4.44746
0
LINE
8
BLACK
6
CONTINUOUS
10
3.72732
20
-4.44746
11
3.73481
21
-4.44371
0
LINE
8
BLACK
6
CONTINUOUS
10
3.8098
20
-4.44371
11
3.8173
21
-4.44371
0
LINE
8
BLACK
6
CONTINUOUS
10
3.8173
20
-4.44371
11
3.8248
21
-4.44746
0
LINE
8
BLACK
6
CONTINUOUS
10
3.8248
20
-4.44746
11
3.82855
21
-4.45121
0
LINE
8
BLACK
6
CONTINUOUS
10
3.82855
20
-4.45121
11
3.8323
21
-4.45871
0
LINE
8
BLACK
6
CONTINUOUS
10
3.8323
20
-4.45871
11
3.83605
21
-4.47371
0
LINE
8
BLACK
6
CONTINUOUS
10
3.83605
20
-4.47371
11
3.83605
21
-4.49245
0
LINE
8
BLACK
6
CONTINUOUS
10
3.83605
20
-4.49245
11
3.8323
21
-4.50745
0
LINE
8
BLACK
6
CONTINUOUS
10
3.8323
20
-4.50745
11
3.82855
21
-4.51495
0
LINE
8
BLACK
6
CONTINUOUS
10
3.82855
20
-4.51495
11
3.8248
21
-4.5187
0
LINE
8
BLACK
6
CONTINUOUS
10
3.8248
20
-4.5187
11
3.8173
21
-4.52245
0
LINE
8
BLACK
6
CONTINUOUS
10
3.8173
20
-4.52245
11
3.8098
21
-4.52245
0
LINE
8
BLACK
6
CONTINUOUS
10
3.8098
20
-4.52245
11
3.80231
21
-4.5187
0
LINE
8
BLACK
6
CONTINUOUS
10
3.80231
20
-4.5187
11
3.79856
21
-4.51495
0
LINE
8
BLACK
6
CONTINUOUS
10
3.79856
20
-4.51495
11
3.79481
21
-4.50745
0
LINE
8
BLACK
6
CONTINUOUS
10
3.79481
20
-4.50745
11
3.79106
21
-4.49245
0
LINE
8
BLACK
6
CONTINUOUS
10
3.79106
20
-4.49245
11
3.79106
21
-4.47371
0
LINE
8
BLACK
6
CONTINUOUS
10
3.79106
20
-4.47371
11
3.79481
21
-4.45871
0
LINE
8
BLACK
6
CONTINUOUS
10
3.79481
20
-4.45871
11
3.79856
21
-4.45121
0
LINE
8
BLACK
6
CONTINUOUS
10
3.79856
20
-4.45121
11
3.80231
21
-4.44746
0
LINE
8
BLACK
6
CONTINUOUS
10
3.80231
20
-4.44746
11
3.8098
21
-4.44371
0
LINE
8
BLACK
6
CONTINUOUS
10
3.8848
20
-4.44371
11
3.89229
21
-4.44371
0
LINE
8
BLACK
6
CONTINUOUS
10
3.89229
20
-4.44371
11
3.89979
21
-4.44746
0
LINE
8
BLACK
6
CONTINUOUS
10
3.89979
20
-4.44746
11
3.90354
21
-4.45121
0
LINE
8
BLACK
6
CONTINUOUS
10
3.90354
20
-4.45121
11
3.90729
21
-4.45871
0
LINE
8
BLACK
6
CONTINUOUS
10
3.90729
20
-4.45871
11
3.91104
21
-4.47371
0
LINE
8
BLACK
6
CONTINUOUS
10
3.91104
20
-4.47371
11
3.91104
21
-4.49245
0
LINE
8
BLACK
6
CONTINUOUS
10
3.91104
20
-4.49245
11
3.90729
21
-4.50745
0
LINE
8
BLACK
6
CONTINUOUS
10
3.90729
20
-4.50745
11
3.90354
21
-4.51495
0
LINE
8
BLACK
6
CONTINUOUS
10
3.90354
20
-4.51495
11
3.89979
21
-4.5187
0
LINE
8
BLACK
6
CONTINUOUS
10
3.89979
20
-4.5187
11
3.89229
21
-4.52245
0
LINE
8
BLACK
6
CONTINUOUS
10
3.89229
20
-4.52245
11
3.8848
21
-4.52245
0
LINE
8
BLACK
6
CONTINUOUS
10
3.8848
20
-4.52245
11
3.8773
21
-4.5187
0
LINE
8
BLACK
6
CONTINUOUS
10
3.8773
20
-4.5187
11
3.87355
21
-4.51495
0
LINE
8
BLACK
6
CONTINUOUS
10
3.87355
20
-4.51495
11
3.8698
21
-4.50745
0
LINE
8
BLACK
6
CONTINUOUS
10
3.8698
20
-4.50745
11
3.86605
21
-4.49245
0
LINE
8
BLACK
6
CONTINUOUS
10
3.86605
20
-4.49245
11
3.86605
21
-4.47371
0
LINE
8
BLACK
6
CONTINUOUS
10
3.86605
20
-4.47371
11
3.8698
21
-4.45871
0
LINE
8
BLACK
6
CONTINUOUS
10
3.8698
20
-4.45871
11
3.87355
21
-4.45121
0
LINE
8
BLACK
6
CONTINUOUS
10
3.87355
20
-4.45121
11
3.8773
21
-4.44746
0
LINE
8
BLACK
6
CONTINUOUS
10
3.8773
20
-4.44746
11
3.8848
21
-4.44371
0
LINE
8
BLACK
6
CONTINUOUS
10
3.94479
20
-4.52245
11
3.94479
21
-4.46996
0
LINE
8
BLACK
6
CONTINUOUS
10
3.94479
20
-4.47746
11
3.94854
21
-4.47371
0
LINE
8
BLACK
6
CONTINUOUS
10
3.94854
20
-4.47371
11
3.95604
21
-4.46996
0
LINE
8
BLACK
6
CONTINUOUS
10
3.95604
20
-4.46996
11
3.96729
21
-4.46996
0
LINE
8
BLACK
6
CONTINUOUS
10
3.96729
20
-4.46996
11
3.97478
21
-4.47371
0
LINE
8
BLACK
6
CONTINUOUS
10
3.97478
20
-4.47371
11
3.97853
21
-4.48121
0
LINE
8
BLACK
6
CONTINUOUS
10
3.97853
20
-4.48121
11
3.97853
21
-4.52245
0
LINE
8
BLACK
6
CONTINUOUS
10
3.97853
20
-4.48121
11
3.98228
21
-4.47371
0
LINE
8
BLACK
6
CONTINUOUS
10
3.98228
20
-4.47371
11
3.98978
21
-4.46996
0
LINE
8
BLACK
6
CONTINUOUS
10
3.98978
20
-4.46996
11
4.00103
21
-4.46996
0
LINE
8
BLACK
6
CONTINUOUS
10
4.00103
20
-4.46996
11
4.00853
21
-4.47371
0
LINE
8
BLACK
6
CONTINUOUS
10
4.00853
20
-4.47371
11
4.01228
21
-4.48121
0
LINE
8
BLACK
6
CONTINUOUS
10
4.01228
20
-4.48121
11
4.01228
21
-4.52245
0
LINE
8
BLACK
6
CONTINUOUS
10
4.04978
20
-4.52245
11
4.04978
21
-4.46996
0
LINE
8
BLACK
6
CONTINUOUS
10
4.04978
20
-4.47746
11
4.05352
21
-4.47371
0
LINE
8
BLACK
6
CONTINUOUS
10
4.05352
20
-4.47371
11
4.06102
21
-4.46996
0
LINE
8
BLACK
6
CONTINUOUS
10
4.06102
20
-4.46996
11
4.07227
21
-4.46996
0
LINE
8
BLACK
6
CONTINUOUS
10
4.07227
20
-4.46996
11
4.07977
21
-4.47371
0
LINE
8
BLACK
6
CONTINUOUS
10
4.07977
20
-4.47371
11
4.08352
21
-4.48121
0
LINE
8
BLACK
6
CONTINUOUS
10
4.08352
20
-4.48121
11
4.08352
21
-4.52245
0
LINE
8
BLACK
6
CONTINUOUS
10
4.08352
20
-4.48121
11
4.08727
21
-4.47371
0
LINE
8
BLACK
6
CONTINUOUS
10
4.08727
20
-4.47371
11
4.09477
21
-4.46996
0
LINE
8
BLACK
6
CONTINUOUS
10
4.09477
20
-4.46996
11
4.10602
21
-4.46996
0
LINE
8
BLACK
6
CONTINUOUS
10
4.10602
20
-4.46996
11
4.11352
21
-4.47371
0
LINE
8
BLACK
6
CONTINUOUS
10
4.11352
20
-4.47371
11
4.11727
21
-4.48121
0
LINE
8
BLACK
6
CONTINUOUS
10
4.11727
20
-4.48121
11
4.11727
21
-4.52245
0
LINE
8
BLACK
6
CONTINUOUS
10
4.271
20
-4.43996
11
4.20351
21
-4.5412
0
LINE
8
BLACK
6
CONTINUOUS
10
4.37223
20
-4.44371
11
4.37973
21
-4.44371
0
LINE
8
BLACK
6
CONTINUOUS
10
4.37973
20
-4.44371
11
4.38723
21
-4.44746
0
LINE
8
BLACK
6
CONTINUOUS
10
4.38723
20
-4.44746
11
4.39098
21
-4.45121
0
LINE
8
BLACK
6
CONTINUOUS
10
4.39098
20
-4.45121
11
4.39473
21
-4.45871
0
LINE
8
BLACK
6
CONTINUOUS
10
4.39473
20
-4.45871
11
4.39848
21
-4.47371
0
LINE
8
BLACK
6
CONTINUOUS
10
4.39848
20
-4.47371
11
4.39848
21
-4.49245
0
LINE
8
BLACK
6
CONTINUOUS
10
4.39848
20
-4.49245
11
4.39473
21
-4.50745
0
LINE
8
BLACK
6
CONTINUOUS
10
4.39473
20
-4.50745
11
4.39098
21
-4.51495
0
LINE
8
BLACK
6
CONTINUOUS
10
4.39098
20
-4.51495
11
4.38723
21
-4.5187
0
LINE
8
BLACK
6
CONTINUOUS
10
4.38723
20
-4.5187
11
4.37973
21
-4.52245
0
LINE
8
BLACK
6
CONTINUOUS
10
4.37973
20
-4.52245
11
4.37223
21
-4.52245
0
LINE
8
BLACK
6
CONTINUOUS
10
4.37223
20
-4.52245
11
4.36474
21
-4.5187
0
LINE
8
BLACK
6
CONTINUOUS
10
4.36474
20
-4.5187
11
4.36099
21
-4.51495
0
LINE
8
BLACK
6
CONTINUOUS
10
4.36099
20
-4.51495
11
4.35724
21
-4.50745
0
LINE
8
BLACK
6
CONTINUOUS
10
4.35724
20
-4.50745
11
4.35349
21
-4.49245
0
LINE
8
BLACK
6
CONTINUOUS
10
4.35349
20
-4.49245
11
4.35349
21
-4.47371
0
LINE
8
BLACK
6
CONTINUOUS
10
4.35349
20
-4.47371
11
4.35724
21
-4.45871
0
LINE
8
BLACK
6
CONTINUOUS
10
4.35724
20
-4.45871
11
4.36099
21
-4.45121
0
LINE
8
BLACK
6
CONTINUOUS
10
4.36099
20
-4.45121
11
4.36474
21
-4.44746
0
LINE
8
BLACK
6
CONTINUOUS
10
4.36474
20
-4.44746
11
4.37223
21
-4.44371
0
LINE
8
BLACK
6
CONTINUOUS
10
4.43223
20
-4.51495
11
4.43598
21
-4.5187
0
LINE
8
BLACK
6
CONTINUOUS
10
4.43598
20
-4.5187
11
4.43223
21
-4.52245
0
LINE
8
BLACK
6
CONTINUOUS
10
4.43223
20
-4.52245
11
4.42848
21
-4.5187
0
LINE
8
BLACK
6
CONTINUOUS
10
4.42848
20
-4.5187
11
4.43223
21
-4.51495
0
LINE
8
BLACK
6
CONTINUOUS
10
4.43223
20
-4.51495
11
4.43223
21
-4.52245
0
LINE
8
BLACK
6
CONTINUOUS
10
4.48472
20
-4.44371
11
4.49222
21
-4.44371
0
LINE
8
BLACK
6
CONTINUOUS
10
4.49222
20
-4.44371
11
4.49972
21
-4.44746
0
LINE
8
BLACK
6
CONTINUOUS
10
4.49972
20
-4.44746
11
4.50347
21
-4.45121
0
LINE
8
BLACK
6
CONTINUOUS
10
4.50347
20
-4.45121
11
4.50722
21
-4.45871
0
LINE
8
BLACK
6
CONTINUOUS
10
4.50722
20
-4.45871
11
4.51097
21
-4.47371
0
LINE
8
BLACK
6
CONTINUOUS
10
4.51097
20
-4.47371
11
4.51097
21
-4.49245
0
LINE
8
BLACK
6
CONTINUOUS
10
4.51097
20
-4.49245
11
4.50722
21
-4.50745
0
LINE
8
BLACK
6
CONTINUOUS
10
4.50722
20
-4.50745
11
4.50347
21
-4.51495
0
LINE
8
BLACK
6
CONTINUOUS
10
4.50347
20
-4.51495
11
4.49972
21
-4.5187
0
LINE
8
BLACK
6
CONTINUOUS
10
4.49972
20
-4.5187
11
4.49222
21
-4.52245
0
LINE
8
BLACK
6
CONTINUOUS
10
4.49222
20
-4.52245
11
4.48472
21
-4.52245
0
LINE
8
BLACK
6
CONTINUOUS
10
4.48472
20
-4.52245
11
4.47722
21
-4.5187
0
LINE
8
BLACK
6
CONTINUOUS
10
4.47722
20
-4.5187
11
4.47347
21
-4.51495
0
LINE
8
BLACK
6
CONTINUOUS
10
4.47347
20
-4.51495
11
4.46972
21
-4.50745
0
LINE
8
BLACK
6
CONTINUOUS
10
4.46972
20
-4.50745
11
4.46597
21
-4.49245
0
LINE
8
BLACK
6
CONTINUOUS
10
4.46597
20
-4.49245
11
4.46597
21
-4.47371
0
LINE
8
BLACK
6
CONTINUOUS
10
4.46597
20
-4.47371
11
4.46972
21
-4.45871
0
LINE
8
BLACK
6
CONTINUOUS
10
4.46972
20
-4.45871
11
4.47347
21
-4.45121
0
LINE
8
BLACK
6
CONTINUOUS
10
4.47347
20
-4.45121
11
4.47722
21
-4.44746
0
LINE
8
BLACK
6
CONTINUOUS
10
4.47722
20
-4.44746
11
4.48472
21
-4.44371
0
LINE
8
BLACK
6
CONTINUOUS
10
4.53721
20
-4.44371
11
4.58596
21
-4.44371
0
LINE
8
BLACK
6
CONTINUOUS
10
4.58596
20
-4.44371
11
4.55971
21
-4.47371
0
LINE
8
BLACK
6
CONTINUOUS
10
4.55971
20
-4.47371
11
4.57096
21
-4.47371
0
LINE
8
BLACK
6
CONTINUOUS
10
4.57096
20
-4.47371
11
4.57846
21
-4.47746
0
LINE
8
BLACK
6
CONTINUOUS
10
4.57846
20
-4.47746
11
4.58221
21
-4.48121
0
LINE
8
BLACK
6
CONTINUOUS
10
4.58221
20
-4.48121
11
4.58596
21
-4.4887
0
LINE
8
BLACK
6
CONTINUOUS
10
4.58596
20
-4.4887
11
4.58596
21
-4.50745
0
LINE
8
BLACK
6
CONTINUOUS
10
4.58596
20
-4.50745
11
4.58221
21
-4.51495
0
LINE
8
BLACK
6
CONTINUOUS
10
4.58221
20
-4.51495
11
4.57846
21
-4.5187
0
LINE
8
BLACK
6
CONTINUOUS
10
4.57846
20
-4.5187
11
4.57096
21
-4.52245
0
LINE
8
BLACK
6
CONTINUOUS
10
4.57096
20
-4.52245
11
4.54846
21
-4.52245
0
LINE
8
BLACK
6
CONTINUOUS
10
4.54846
20
-4.52245
11
4.54096
21
-4.5187
0
LINE
8
BLACK
6
CONTINUOUS
10
4.54096
20
-4.5187
11
4.53721
21
-4.51495
0
LINE
8
BLACK
6
CONTINUOUS
10
4.62345
20
-4.52245
11
4.63845
21
-4.52245
0
LINE
8
BLACK
6
CONTINUOUS
10
4.63845
20
-4.52245
11
4.64595
21
-4.5187
0
LINE
8
BLACK
6
CONTINUOUS
10
4.64595
20
-4.5187
11
4.6497
21
-4.51495
0
LINE
8
BLACK
6
CONTINUOUS
10
4.6497
20
-4.51495
11
4.6572
21
-4.5037
0
LINE
8
BLACK
6
CONTINUOUS
10
4.6572
20
-4.5037
11
4.66095
21
-4.4887
0
LINE
8
BLACK
6
CONTINUOUS
10
4.66095
20
-4.4887
11
4.66095
21
-4.45871
0
LINE
8
BLACK
6
CONTINUOUS
10
4.66095
20
-4.45871
11
4.6572
21
-4.45121
0
LINE
8
BLACK
6
CONTINUOUS
10
4.6572
20
-4.45121
11
4.65345
21
-4.44746
0
LINE
8
BLACK
6
CONTINUOUS
10
4.65345
20
-4.44746
11
4.64595
21
-4.44371
0
LINE
8
BLACK
6
CONTINUOUS
10
4.64595
20
-4.44371
11
4.63095
21
-4.44371
0
LINE
8
BLACK
6
CONTINUOUS
10
4.63095
20
-4.44371
11
4.62345
21
-4.44746
0
LINE
8
BLACK
6
CONTINUOUS
10
4.62345
20
-4.44746
11
4.6197
21
-4.45121
0
LINE
8
BLACK
6
CONTINUOUS
10
4.6197
20
-4.45121
11
4.61595
21
-4.45871
0
LINE
8
BLACK
6
CONTINUOUS
10
4.61595
20
-4.45871
11
4.61595
21
-4.47746
0
LINE
8
BLACK
6
CONTINUOUS
10
4.61595
20
-4.47746
11
4.6197
21
-4.48496
0
LINE
8
BLACK
6
CONTINUOUS
10
4.6197
20
-4.48496
11
4.62345
21
-4.4887
0
LINE
8
BLACK
6
CONTINUOUS
10
4.62345
20
-4.4887
11
4.63095
21
-4.49245
0
LINE
8
BLACK
6
CONTINUOUS
10
4.63095
20
-4.49245
11
4.64595
21
-4.49245
0
LINE
8
BLACK
6
CONTINUOUS
10
4.64595
20
-4.49245
11
4.65345
21
-4.4887
0
LINE
8
BLACK
6
CONTINUOUS
10
4.65345
20
-4.4887
11
4.6572
21
-4.48496
0
LINE
8
BLACK
6
CONTINUOUS
10
4.6572
20
-4.48496
11
4.66095
21
-4.47746
0
LINE
8
BLACK
6
CONTINUOUS
10
4.72844
20
-4.46996
11
4.72844
21
-4.52245
0
LINE
8
BLACK
6
CONTINUOUS
10
4.70969
20
-4.43996
11
4.69094
21
-4.4962
0
LINE
8
BLACK
6
CONTINUOUS
10
4.69094
20
-4.4962
11
4.73969
21
-4.4962
0
LINE
8
BLACK
6
CONTINUOUS
10
4.76594
20
-4.44371
11
4.76594
21
-4.45871
0
LINE
8
BLACK
6
CONTINUOUS
10
4.79593
20
-4.44371
11
4.79593
21
-4.45871
0
LINE
8
BLACK
6
CONTINUOUS
10
4.91217
20
-4.55245
11
4.90842
21
-4.5487
0
LINE
8
BLACK
6
CONTINUOUS
10
4.90842
20
-4.5487
11
4.90092
21
-4.53745
0
LINE
8
BLACK
6
CONTINUOUS
10
4.90092
20
-4.53745
11
4.89717
21
-4.52995
0
LINE
8
BLACK
6
CONTINUOUS
10
4.89717
20
-4.52995
11
4.89342
21
-4.5187
0
LINE
8
BLACK
6
CONTINUOUS
10
4.89342
20
-4.5187
11
4.88967
21
-4.49995
0
LINE
8
BLACK
6
CONTINUOUS
10
4.88967
20
-4.49995
11
4.88967
21
-4.48496
0
LINE
8
BLACK
6
CONTINUOUS
10
4.88967
20
-4.48496
11
4.89342
21
-4.46621
0
LINE
8
BLACK
6
CONTINUOUS
10
4.89342
20
-4.46621
11
4.89717
21
-4.45496
0
LINE
8
BLACK
6
CONTINUOUS
10
4.89717
20
-4.45496
11
4.90092
21
-4.44746
0
LINE
8
BLACK
6
CONTINUOUS
10
4.90092
20
-4.44746
11
4.90842
21
-4.43621
0
LINE
8
BLACK
6
CONTINUOUS
10
4.90842
20
-4.43621
11
4.91217
21
-4.43246
0
LINE
8
BLACK
6
CONTINUOUS
10
4.98341
20
-4.52245
11
4.93841
21
-4.52245
0
LINE
8
BLACK
6
CONTINUOUS
10
4.96091
20
-4.52245
11
4.96091
21
-4.44371
0
LINE
8
BLACK
6
CONTINUOUS
10
4.96091
20
-4.44371
11
4.95341
21
-4.45496
0
LINE
8
BLACK
6
CONTINUOUS
10
4.95341
20
-4.45496
11
4.94591
21
-4.46246
0
LINE
8
BLACK
6
CONTINUOUS
10
4.94591
20
-4.46246
11
4.93841
21
-4.46621
0
LINE
8
BLACK
6
CONTINUOUS
10
5.0509
20
-4.44371
11
5.0359
21
-4.44371
0
LINE
8
BLACK
6
CONTINUOUS
10
5.0359
20
-4.44371
11
5.0284
21
-4.44746
0
LINE
8
BLACK
6
CONTINUOUS
10
5.0284
20
-4.44746
11
5.02465
21
-4.45121
0
LINE
8
BLACK
6
CONTINUOUS
10
5.02465
20
-4.45121
11
5.01715
21
-4.46246
0
LINE
8
BLACK
6
CONTINUOUS
10
5.01715
20
-4.46246
11
5.0134
21
-4.47746
0
LINE
8
BLACK
6
CONTINUOUS
10
5.0134
20
-4.47746
11
5.0134
21
-4.50745
0
LINE
8
BLACK
6
CONTINUOUS
10
5.0134
20
-4.50745
11
5.01715
21
-4.51495
0
LINE
8
BLACK
6
CONTINUOUS
10
5.01715
20
-4.51495
11
5.0209
21
-4.5187
0
LINE
8
BLACK
6
CONTINUOUS
10
5.0209
20
-4.5187
11
5.0284
21
-4.52245
0
LINE
8
BLACK
6
CONTINUOUS
10
5.0284
20
-4.52245
11
5.0434
21
-4.52245
0
LINE
8
BLACK
6
CONTINUOUS
10
5.0434
20
-4.52245
11
5.0509
21
-4.5187
0
LINE
8
BLACK
6
CONTINUOUS
10
5.0509
20
-4.5187
11
5.05465
21
-4.51495
0
LINE
8
BLACK
6
CONTINUOUS
10
5.05465
20
-4.51495
11
5.0584
21
-4.50745
0
LINE
8
BLACK
6
CONTINUOUS
10
5.0584
20
-4.50745
11
5.0584
21
-4.4887
0
LINE
8
BLACK
6
CONTINUOUS
10
5.0584
20
-4.4887
11
5.05465
21
-4.48121
0
LINE
8
BLACK
6
CONTINUOUS
10
5.05465
20
-4.48121
11
5.0509
21
-4.47746
0
LINE
8
BLACK
6
CONTINUOUS
10
5.0509
20
-4.47746
11
5.0434
21
-4.47371
0
LINE
8
BLACK
6
CONTINUOUS
10
5.0434
20
-4.47371
11
5.0284
21
-4.47371
0
LINE
8
BLACK
6
CONTINUOUS
10
5.0284
20
-4.47371
11
5.0209
21
-4.47746
0
LINE
8
BLACK
6
CONTINUOUS
10
5.0209
20
-4.47746
11
5.01715
21
-4.48121
0
LINE
8
BLACK
6
CONTINUOUS
10
5.01715
20
-4.48121
11
5.0134
21
-4.4887
0
LINE
8
BLACK
6
CONTINUOUS
10
5.15214
20
-4.52245
11
5.15214
21
-4.44371
0
LINE
8
BLACK
6
CONTINUOUS
10
5.18588
20
-4.52245
11
5.18588
21
-4.48121
0
LINE
8
BLACK
6
CONTINUOUS
10
5.18588
20
-4.48121
11
5.18213
21
-4.47371
0
LINE
8
BLACK
6
CONTINUOUS
10
5.18213
20
-4.47371
11
5.17463
21
-4.46996
0
LINE
8
BLACK
6
CONTINUOUS
10
5.17463
20
-4.46996
11
5.16339
21
-4.46996
0
LINE
8
BLACK
6
CONTINUOUS
10
5.16339
20
-4.46996
11
5.15589
21
-4.47371
0
LINE
8
BLACK
6
CONTINUOUS
10
5.15589
20
-4.47371
11
5.15214
21
-4.47746
0
LINE
8
BLACK
6
CONTINUOUS
10
5.23463
20
-4.52245
11
5.22713
21
-4.5187
0
LINE
8
BLACK
6
CONTINUOUS
10
5.22713
20
-4.5187
11
5.22338
21
-4.51495
0
LINE
8
BLACK
6
CONTINUOUS
10
5.22338
20
-4.51495
11
5.21963
21
-4.50745
0
LINE
8
BLACK
6
CONTINUOUS
10
5.21963
20
-4.50745
11
5.21963
21
-4.48496
0
LINE
8
BLACK
6
CONTINUOUS
10
5.21963
20
-4.48496
11
5.22338
21
-4.47746
0
LINE
8
BLACK
6
CONTINUOUS
10
5.22338
20
-4.47746
11
5.22713
21
-4.47371
0
LINE
8
BLACK
6
CONTINUOUS
10
5.22713
20
-4.47371
11
5.23463
21
-4.46996
0
LINE
8
BLACK
6
CONTINUOUS
10
5.23463
20
-4.46996
11
5.24588
21
-4.46996
0
LINE
8
BLACK
6
CONTINUOUS
10
5.24588
20
-4.46996
11
5.25337
21
-4.47371
0
LINE
8
BLACK
6
CONTINUOUS
10
5.25337
20
-4.47371
11
5.25712
21
-4.47746
0
LINE
8
BLACK
6
CONTINUOUS
10
5.25712
20
-4.47746
11
5.26087
21
-4.48496
0
LINE
8
BLACK
6
CONTINUOUS
10
5.26087
20
-4.48496
11
5.26087
21
-4.50745
0
LINE
8
BLACK
6
CONTINUOUS
10
5.26087
20
-4.50745
11
5.25712
21
-4.51495
0
LINE
8
BLACK
6
CONTINUOUS
10
5.25712
20
-4.51495
11
5.25337
21
-4.5187
0
LINE
8
BLACK
6
CONTINUOUS
10
5.25337
20
-4.5187
11
5.24588
21
-4.52245
0
LINE
8
BLACK
6
CONTINUOUS
10
5.24588
20
-4.52245
11
5.23463
21
-4.52245
0
LINE
8
BLACK
6
CONTINUOUS
10
5.30587
20
-4.52245
11
5.29837
21
-4.5187
0
LINE
8
BLACK
6
CONTINUOUS
10
5.29837
20
-4.5187
11
5.29462
21
-4.5112
0
LINE
8
BLACK
6
CONTINUOUS
10
5.29462
20
-4.5112
11
5.29462
21
-4.44371
0
LINE
8
BLACK
6
CONTINUOUS
10
5.36586
20
-4.5187
11
5.35836
21
-4.52245
0
LINE
8
BLACK
6
CONTINUOUS
10
5.35836
20
-4.52245
11
5.34336
21
-4.52245
0
LINE
8
BLACK
6
CONTINUOUS
10
5.34336
20
-4.52245
11
5.33586
21
-4.5187
0
LINE
8
BLACK
6
CONTINUOUS
10
5.33586
20
-4.5187
11
5.33211
21
-4.5112
0
LINE
8
BLACK
6
CONTINUOUS
10
5.33211
20
-4.5112
11
5.33211
21
-4.48121
0
LINE
8
BLACK
6
CONTINUOUS
10
5.33211
20
-4.48121
11
5.33586
21
-4.47371
0
LINE
8
BLACK
6
CONTINUOUS
10
5.33586
20
-4.47371
11
5.34336
21
-4.46996
0
LINE
8
BLACK
6
CONTINUOUS
10
5.34336
20
-4.46996
11
5.35836
21
-4.46996
0
LINE
8
BLACK
6
CONTINUOUS
10
5.35836
20
-4.46996
11
5.36586
21
-4.47371
0
LINE
8
BLACK
6
CONTINUOUS
10
5.36586
20
-4.47371
11
5.36961
21
-4.48121
0
LINE
8
BLACK
6
CONTINUOUS
10
5.36961
20
-4.48121
11
5.36961
21
-4.4887
0
LINE
8
BLACK
6
CONTINUOUS
10
5.36961
20
-4.4887
11
5.33211
21
-4.4962
0
LINE
8
BLACK
6
CONTINUOUS
10
5.39961
20
-4.5187
11
5.40711
21
-4.52245
0
LINE
8
BLACK
6
CONTINUOUS
10
5.40711
20
-4.52245
11
5.4221
21
-4.52245
0
LINE
8
BLACK
6
CONTINUOUS
10
5.4221
20
-4.52245
11
5.4296
21
-4.5187
0
LINE
8
BLACK
6
CONTINUOUS
10
5.4296
20
-4.5187
11
5.43335
21
-4.5112
0
LINE
8
BLACK
6
CONTINUOUS
10
5.43335
20
-4.5112
11
5.43335
21
-4.50745
0
LINE
8
BLACK
6
CONTINUOUS
10
5.43335
20
-4.50745
11
5.4296
21
-4.49995
0
LINE
8
BLACK
6
CONTINUOUS
10
5.4296
20
-4.49995
11
5.4221
21
-4.4962
0
LINE
8
BLACK
6
CONTINUOUS
10
5.4221
20
-4.4962
11
5.41086
21
-4.4962
0
LINE
8
BLACK
6
CONTINUOUS
10
5.41086
20
-4.4962
11
5.40336
21
-4.49245
0
LINE
8
BLACK
6
CONTINUOUS
10
5.40336
20
-4.49245
11
5.39961
21
-4.48496
0
LINE
8
BLACK
6
CONTINUOUS
10
5.39961
20
-4.48496
11
5.39961
21
-4.48121
0
LINE
8
BLACK
6
CONTINUOUS
10
5.39961
20
-4.48121
11
5.40336
21
-4.47371
0
LINE
8
BLACK
6
CONTINUOUS
10
5.40336
20
-4.47371
11
5.41086
21
-4.46996
0
LINE
8
BLACK
6
CONTINUOUS
10
5.41086
20
-4.46996
11
5.4221
21
-4.46996
0
LINE
8
BLACK
6
CONTINUOUS
10
5.4221
20
-4.46996
11
5.4296
21
-4.47371
0
LINE
8
BLACK
6
CONTINUOUS
10
5.4596
20
-4.55245
11
5.46335
21
-4.5487
0
LINE
8
BLACK
6
CONTINUOUS
10
5.46335
20
-4.5487
11
5.47085
21
-4.53745
0
LINE
8
BLACK
6
CONTINUOUS
10
5.47085
20
-4.53745
11
5.4746
21
-4.52995
0
LINE
8
BLACK
6
CONTINUOUS
10
5.4746
20
-4.52995
11
5.47835
21
-4.5187
0
LINE
8
BLACK
6
CONTINUOUS
10
5.47835
20
-4.5187
11
5.4821
21
-4.49995
0
LINE
8
BLACK
6
CONTINUOUS
10
5.4821
20
-4.49995
11
5.4821
21
-4.48496
0
LINE
8
BLACK
6
CONTINUOUS
10
5.4821
20
-4.48496
11
5.47835
21
-4.46621
0
LINE
8
BLACK
6
CONTINUOUS
10
5.47835
20
-4.46621
11
5.4746
21
-4.45496
0
LINE
8
BLACK
6
CONTINUOUS
10
5.4746
20
-4.45496
11
5.47085
21
-4.44746
0
LINE
8
BLACK
6
CONTINUOUS
10
5.47085
20
-4.44746
11
5.46335
21
-4.43621
0
LINE
8
BLACK
6
CONTINUOUS
10
5.46335
20
-4.43621
11
5.4596
21
-4.43246
  0
ENDSEC
  0
EOF
