M48
; DRILL file {KiCad 7.0.2} date Mon Oct  9 18:23:25 2023
; FORMAT={-:-/ absolute / inch / decimal}
; #@! TF.CreationDate,2023-10-09T18:23:25+02:00
; #@! TF.GenerationSoftware,Kicad,Pcbnew,7.0.2
; #@! TF.FileFunction,NonPlated,1,2,NPTH
FMAT,2
INCH
; #@! TA.AperFunction,NonPlated,NPTH,ComponentDrill
T1C0.0197
%
G90
G05
T1
X4.2264Y-2.248
X4.2264Y-2.2697
X4.2264Y-2.2913
X4.2264Y-2.313
X4.2264Y-2.3346
X4.2264Y-2.3563
X4.2264Y-2.378
X4.2264Y-2.3996
X4.2264Y-2.4213
X4.2283Y-3.565
X4.2283Y-3.5866
X4.2283Y-3.6083
X4.2283Y-3.6299
X4.2283Y-3.6516
X4.2283Y-3.6732
X4.2283Y-3.6949
X4.2283Y-3.7165
X4.2283Y-3.7382
X4.3228Y-2.248
X4.3228Y-2.2697
X4.3228Y-2.2913
X4.3228Y-2.313
X4.3228Y-2.3346
X4.3228Y-2.3563
X4.3228Y-2.378
X4.3228Y-2.3996
X4.3228Y-2.4213
X4.6732Y-3.565
X4.6732Y-3.5866
X4.6732Y-3.6083
X4.6732Y-3.6299
X4.6732Y-3.6516
X4.6732Y-3.6732
X4.6732Y-3.6949
X4.6732Y-3.7165
X4.6732Y-3.7382
T0
M30
