  0
SECTION
  2
HEADER
  9
$ANGBASE
  50
0.0
  9
$ANGDIR
  70
1
  9
$MEASUREMENT
  70
0
  0
ENDSEC
  0
SECTION
  2
TABLES
  0
TABLE
  2
LTYPE
  70
4
  0
LTYPE
  5
40F
  2
CONTINUOUS
  70
0
  3
Solid line
  72
65
  73
0
  40
0.0
  0
LTYPE
  5
410
  2
DASHDOT
 70
0
  3
Dash Dot ____ _ ____ _
 72
65
 73
4
 40
2.0
 49
1.25
 49
-0.25
 49
0.25
 49
-0.25
  0
LTYPE
  5
411
  2
DASHED
 70
0
  3
Dashed __ __ __ __ __
 72
65
 73
2
 40
0.75
 49
0.5
 49
-0.25
  0
LTYPE
  5
43B
  2
DOTTED
 70
0
  3
Dotted .  .  .  .
 72
65
 73
2
 40
0.2
 49
0.0
 49
-0.2
  0
ENDTAB
  0
TABLE
  2
STYLE
  70
4
  0
STYLE
  2
KICAD
  70
0
  40
0
  41
1
  42
1
  50
0
  71
0
  3
isocp.shx
  0
STYLE
  2
KICADB
  70
0
  40
0
  41
1
  42
1
  50
0
  71
0
  3
isocp.shx
  0
STYLE
  2
KICADI
  70
0
  40
0
  41
1
  42
1
  50
15
  71
0
  3
isocp.shx
  0
STYLE
  2
KICADBI
  70
0
  40
0
  41
1
  42
1
  50
15
  71
0
  3
isocp.shx
  0
ENDTAB
  0
TABLE
  2
LAYER
  70
1
  0
LAYER
  2
BLACK
  70
0
  62
7
  6
CONTINUOUS
  0
ENDTAB
  0
ENDSEC
  0
SECTION
  2
ENTITIES
0
LINE
8
BLACK
6
CONTINUOUS
10
4.2204724409448815
20
-3.920275590551181
11
3.5118110236220472
21
-3.920275590551181
0
LINE
8
BLACK
6
CONTINUOUS
10
4.3267716535433074
20
-2.0078740157480315
11
5.5078740157480315
21
-2.0078740157480315
0
LINE
8
BLACK
6
CONTINUOUS
10
5.5078740157480315
20
-3.8789370078740157
11
4.6811023622047241
21
-3.8789370078740157
0
LINE
8
BLACK
6
CONTINUOUS
10
4.6811023622047241
20
-3.5511811023622046
11
4.6811023622047241
21
-2.6771653543307088
0
LINE
8
BLACK
6
CONTINUOUS
10
4.2204724409448815
20
-2.0078740157480315
11
4.2204724409448815
21
-2.2401574803149606
0
LINE
8
BLACK
6
CONTINUOUS
10
4.6811023622047241
20
-3.8789370078740157
11
4.6811023622047241
21
-3.7519685039370079
0
LINE
8
BLACK
6
CONTINUOUS
10
3.5118110236220472
20
-2.0078740157480315
11
4.2204724409448815
21
-2.0078740157480315
0
LINE
8
BLACK
6
CONTINUOUS
10
4.3267716535433074
20
-2.2401574803149606
11
4.3267716535433074
21
-2.0078740157480315
0
LINE
8
BLACK
6
CONTINUOUS
10
4.3267716535433074
20
-2.6771653543307088
11
4.3267716535433074
21
-2.4409448818897639
0
LINE
8
BLACK
6
CONTINUOUS
10
4.2204724409448815
20
-3.920275590551181
11
4.2204724409448815
21
-3.7519685039370079
0
LINE
8
BLACK
6
CONTINUOUS
10
4.2204724409448815
20
-2.2401574803149606
11
4.3267716535433074
21
-2.2401574803149606
0
LINE
8
BLACK
6
CONTINUOUS
10
5.5078740157480315
20
-2.0078740157480315
11
5.5078740157480315
21
-3.8789370078740157
0
LINE
8
BLACK
6
CONTINUOUS
10
4.2204724409448815
20
-3.7519685039370079
11
4.6811023622047241
21
-3.7519685039370079
0
LINE
8
BLACK
6
CONTINUOUS
10
4.2204724409448815
20
-2.4409448818897639
11
4.2204724409448815
21
-3.5511811023622046
0
LINE
8
BLACK
6
CONTINUOUS
10
3.5118110236220472
20
-3.920275590551181
11
3.5118110236220472
21
-2.0078740157480315
0
LINE
8
BLACK
6
CONTINUOUS
10
4.3267716535433074
20
-2.4409448818897639
11
4.2204724409448815
21
-2.4409448818897639
0
LINE
8
BLACK
6
CONTINUOUS
10
4.6811023622047241
20
-2.6771653543307088
11
4.3267716535433074
21
-2.6771653543307088
0
LINE
8
BLACK
6
CONTINUOUS
10
4.2204724409448815
20
-3.5511811023622046
11
4.6811023622047241
21
-3.5511811023622046
0
LINE
8
BLACK
6
CONTINUOUS
10
4.2165354330708658
20
-2.2440944881889764
11
4.2362204724409445
21
-2.2637795275590551
0
LINE
8
BLACK
6
CONTINUOUS
10
4.2362204724409445
20
-2.2440944881889764
11
4.2165354330708658
21
-2.2637795275590551
0
LINE
8
BLACK
6
CONTINUOUS
10
4.2165354330708658
20
-2.265748031496063
11
4.2362204724409445
21
-2.2854330708661417
0
LINE
8
BLACK
6
CONTINUOUS
10
4.2362204724409445
20
-2.265748031496063
11
4.2165354330708658
21
-2.2854330708661417
0
LINE
8
BLACK
6
CONTINUOUS
10
4.2165354330708658
20
-2.2874015748031495
11
4.2362204724409445
21
-2.3070866141732282
0
LINE
8
BLACK
6
CONTINUOUS
10
4.2362204724409445
20
-2.2874015748031495
11
4.2165354330708658
21
-2.3070866141732282
0
LINE
8
BLACK
6
CONTINUOUS
10
4.2165354330708658
20
-2.3090551181102361
11
4.2362204724409445
21
-2.3287401574803148
0
LINE
8
BLACK
6
CONTINUOUS
10
4.2362204724409445
20
-2.3090551181102361
11
4.2165354330708658
21
-2.3287401574803148
0
LINE
8
BLACK
6
CONTINUOUS
10
4.2165354330708658
20
-2.3307086614173227
11
4.2362204724409445
21
-2.3503937007874014
0
LINE
8
BLACK
6
CONTINUOUS
10
4.2362204724409445
20
-2.3307086614173227
11
4.2165354330708658
21
-2.3503937007874014
0
LINE
8
BLACK
6
CONTINUOUS
10
4.2165354330708658
20
-2.3523622047244093
11
4.2362204724409445
21
-2.372047244094488
0
LINE
8
BLACK
6
CONTINUOUS
10
4.2362204724409445
20
-2.3523622047244093
11
4.2165354330708658
21
-2.372047244094488
0
LINE
8
BLACK
6
CONTINUOUS
10
4.2165354330708658
20
-2.3740157480314958
11
4.2362204724409445
21
-2.3937007874015745
0
LINE
8
BLACK
6
CONTINUOUS
10
4.2362204724409445
20
-2.3740157480314958
11
4.2165354330708658
21
-2.3937007874015745
0
LINE
8
BLACK
6
CONTINUOUS
10
4.2165354330708658
20
-2.3956692913385824
11
4.2362204724409445
21
-2.4153543307086616
0
LINE
8
BLACK
6
CONTINUOUS
10
4.2362204724409445
20
-2.3956692913385824
11
4.2165354330708658
21
-2.4153543307086616
0
LINE
8
BLACK
6
CONTINUOUS
10
4.2165354330708658
20
-2.4173228346456694
11
4.2362204724409445
21
-2.4370078740157481
0
LINE
8
BLACK
6
CONTINUOUS
10
4.2362204724409445
20
-2.4173228346456694
11
4.2165354330708658
21
-2.4370078740157481
0
LINE
8
BLACK
6
CONTINUOUS
10
4.2185039370078741
20
-3.5551181102362204
11
4.2381889763779528
21
-3.5748031496062991
0
LINE
8
BLACK
6
CONTINUOUS
10
4.2381889763779528
20
-3.5551181102362204
11
4.2185039370078741
21
-3.5748031496062991
0
LINE
8
BLACK
6
CONTINUOUS
10
4.2185039370078741
20
-3.576771653543307
11
4.2381889763779528
21
-3.5964566929133857
0
LINE
8
BLACK
6
CONTINUOUS
10
4.2381889763779528
20
-3.576771653543307
11
4.2185039370078741
21
-3.5964566929133857
0
LINE
8
BLACK
6
CONTINUOUS
10
4.2185039370078741
20
-3.5984251968503935
11
4.2381889763779528
21
-3.6181102362204722
0
LINE
8
BLACK
6
CONTINUOUS
10
4.2381889763779528
20
-3.5984251968503935
11
4.2185039370078741
21
-3.6181102362204722
0
LINE
8
BLACK
6
CONTINUOUS
10
4.2185039370078741
20
-3.6200787401574801
11
4.2381889763779528
21
-3.6397637795275588
0
LINE
8
BLACK
6
CONTINUOUS
10
4.2381889763779528
20
-3.6200787401574801
11
4.2185039370078741
21
-3.6397637795275588
0
LINE
8
BLACK
6
CONTINUOUS
10
4.2185039370078741
20
-3.6417322834645667
11
4.2381889763779528
21
-3.6614173228346454
0
LINE
8
BLACK
6
CONTINUOUS
10
4.2381889763779528
20
-3.6417322834645667
11
4.2185039370078741
21
-3.6614173228346454
0
LINE
8
BLACK
6
CONTINUOUS
10
4.2185039370078741
20
-3.6633858267716533
11
4.2381889763779528
21
-3.6830708661417324
0
LINE
8
BLACK
6
CONTINUOUS
10
4.2381889763779528
20
-3.6633858267716533
11
4.2185039370078741
21
-3.6830708661417324
0
LINE
8
BLACK
6
CONTINUOUS
10
4.2185039370078741
20
-3.6850393700787403
11
4.2381889763779528
21
-3.704724409448819
0
LINE
8
BLACK
6
CONTINUOUS
10
4.2381889763779528
20
-3.6850393700787403
11
4.2185039370078741
21
-3.704724409448819
0
LINE
8
BLACK
6
CONTINUOUS
10
4.2185039370078741
20
-3.7066929133858268
11
4.2381889763779528
21
-3.7263779527559056
0
LINE
8
BLACK
6
CONTINUOUS
10
4.2381889763779528
20
-3.7066929133858268
11
4.2185039370078741
21
-3.7263779527559056
0
LINE
8
BLACK
6
CONTINUOUS
10
4.2185039370078741
20
-3.7283464566929134
11
4.2381889763779528
21
-3.7480314960629921
0
LINE
8
BLACK
6
CONTINUOUS
10
4.2381889763779528
20
-3.7283464566929134
11
4.2185039370078741
21
-3.7480314960629921
0
LINE
8
BLACK
6
CONTINUOUS
10
4.3114173228346457
20
-2.2440944881889764
11
4.3311023622047244
21
-2.2637795275590551
0
LINE
8
BLACK
6
CONTINUOUS
10
4.3311023622047244
20
-2.2440944881889764
11
4.3114173228346457
21
-2.2637795275590551
0
LINE
8
BLACK
6
CONTINUOUS
10
4.3114173228346457
20
-2.265748031496063
11
4.3311023622047244
21
-2.2854330708661417
0
LINE
8
BLACK
6
CONTINUOUS
10
4.3311023622047244
20
-2.265748031496063
11
4.3114173228346457
21
-2.2854330708661417
0
LINE
8
BLACK
6
CONTINUOUS
10
4.3114173228346457
20
-2.2874015748031495
11
4.3311023622047244
21
-2.3070866141732282
0
LINE
8
BLACK
6
CONTINUOUS
10
4.3311023622047244
20
-2.2874015748031495
11
4.3114173228346457
21
-2.3070866141732282
0
LINE
8
BLACK
6
CONTINUOUS
10
4.3114173228346457
20
-2.3090551181102361
11
4.3311023622047244
21
-2.3287401574803148
0
LINE
8
BLACK
6
CONTINUOUS
10
4.3311023622047244
20
-2.3090551181102361
11
4.3114173228346457
21
-2.3287401574803148
0
LINE
8
BLACK
6
CONTINUOUS
10
4.3114173228346457
20
-2.3307086614173227
11
4.3311023622047244
21
-2.3503937007874014
0
LINE
8
BLACK
6
CONTINUOUS
10
4.3311023622047244
20
-2.3307086614173227
11
4.3114173228346457
21
-2.3503937007874014
0
LINE
8
BLACK
6
CONTINUOUS
10
4.3114173228346457
20
-2.3523622047244093
11
4.3311023622047244
21
-2.372047244094488
0
LINE
8
BLACK
6
CONTINUOUS
10
4.3311023622047244
20
-2.3523622047244093
11
4.3114173228346457
21
-2.372047244094488
0
LINE
8
BLACK
6
CONTINUOUS
10
4.3114173228346457
20
-2.3740157480314958
11
4.3311023622047244
21
-2.3937007874015745
0
LINE
8
BLACK
6
CONTINUOUS
10
4.3311023622047244
20
-2.3740157480314958
11
4.3114173228346457
21
-2.3937007874015745
0
LINE
8
BLACK
6
CONTINUOUS
10
4.3114173228346457
20
-2.3956692913385824
11
4.3311023622047244
21
-2.4153543307086616
0
LINE
8
BLACK
6
CONTINUOUS
10
4.3311023622047244
20
-2.3956692913385824
11
4.3114173228346457
21
-2.4153543307086616
0
LINE
8
BLACK
6
CONTINUOUS
10
4.3114173228346457
20
-2.4173228346456694
11
4.3311023622047244
21
-2.4370078740157481
0
LINE
8
BLACK
6
CONTINUOUS
10
4.3311023622047244
20
-2.4173228346456694
11
4.3114173228346457
21
-2.4370078740157481
0
LINE
8
BLACK
6
CONTINUOUS
10
4.6633858267716537
20
-3.5551181102362204
11
4.6830708661417324
21
-3.5748031496062991
0
LINE
8
BLACK
6
CONTINUOUS
10
4.6830708661417324
20
-3.5551181102362204
11
4.6633858267716537
21
-3.5748031496062991
0
LINE
8
BLACK
6
CONTINUOUS
10
4.6633858267716537
20
-3.576771653543307
11
4.6830708661417324
21
-3.5964566929133857
0
LINE
8
BLACK
6
CONTINUOUS
10
4.6830708661417324
20
-3.576771653543307
11
4.6633858267716537
21
-3.5964566929133857
0
LINE
8
BLACK
6
CONTINUOUS
10
4.6633858267716537
20
-3.5984251968503935
11
4.6830708661417324
21
-3.6181102362204722
0
LINE
8
BLACK
6
CONTINUOUS
10
4.6830708661417324
20
-3.5984251968503935
11
4.6633858267716537
21
-3.6181102362204722
0
LINE
8
BLACK
6
CONTINUOUS
10
4.6633858267716537
20
-3.6200787401574801
11
4.6830708661417324
21
-3.6397637795275588
0
LINE
8
BLACK
6
CONTINUOUS
10
4.6830708661417324
20
-3.6200787401574801
11
4.6633858267716537
21
-3.6397637795275588
0
LINE
8
BLACK
6
CONTINUOUS
10
4.6633858267716537
20
-3.6417322834645667
11
4.6830708661417324
21
-3.6614173228346454
0
LINE
8
BLACK
6
CONTINUOUS
10
4.6830708661417324
20
-3.6417322834645667
11
4.6633858267716537
21
-3.6614173228346454
0
LINE
8
BLACK
6
CONTINUOUS
10
4.6633858267716537
20
-3.6633858267716533
11
4.6830708661417324
21
-3.6830708661417324
0
LINE
8
BLACK
6
CONTINUOUS
10
4.6830708661417324
20
-3.6633858267716533
11
4.6633858267716537
21
-3.6830708661417324
0
LINE
8
BLACK
6
CONTINUOUS
10
4.6633858267716537
20
-3.6850393700787403
11
4.6830708661417324
21
-3.704724409448819
0
LINE
8
BLACK
6
CONTINUOUS
10
4.6830708661417324
20
-3.6850393700787403
11
4.6633858267716537
21
-3.704724409448819
0
LINE
8
BLACK
6
CONTINUOUS
10
4.6633858267716537
20
-3.7066929133858268
11
4.6830708661417324
21
-3.7263779527559056
0
LINE
8
BLACK
6
CONTINUOUS
10
4.6830708661417324
20
-3.7066929133858268
11
4.6633858267716537
21
-3.7263779527559056
0
LINE
8
BLACK
6
CONTINUOUS
10
4.6633858267716537
20
-3.7283464566929134
11
4.6830708661417324
21
-3.7480314960629921
0
LINE
8
BLACK
6
CONTINUOUS
10
4.6830708661417324
20
-3.7283464566929134
11
4.6633858267716537
21
-3.7480314960629921
0
LINE
8
BLACK
6
CONTINUOUS
10
3.6125105511811024
20
-4.0448755118110231
11
3.6125105511811024
21
-3.9661353543307087
0
LINE
8
BLACK
6
CONTINUOUS
10
3.6125105511811024
20
-3.9661353543307087
11
3.631258188976378
21
-3.9661353543307087
0
LINE
8
BLACK
6
CONTINUOUS
10
3.631258188976378
20
-3.9661353543307087
11
3.6425068110236221
21
-3.9698848818897639
0
LINE
8
BLACK
6
CONTINUOUS
10
3.6425068110236221
20
-3.9698848818897639
11
3.6500058661417323
21
-3.9773839370078741
0
LINE
8
BLACK
6
CONTINUOUS
10
3.6500058661417323
20
-3.9773839370078741
11
3.6537553937007874
21
-3.9848829921259843
0
LINE
8
BLACK
6
CONTINUOUS
10
3.6537553937007874
20
-3.9848829921259843
11
3.6575049212598425
21
-3.9998811023622047
0
LINE
8
BLACK
6
CONTINUOUS
10
3.6575049212598425
20
-3.9998811023622047
11
3.6575049212598425
21
-4.0111297244094484
0
LINE
8
BLACK
6
CONTINUOUS
10
3.6575049212598425
20
-4.0111297244094484
11
3.6537553937007874
21
-4.0261278346456688
0
LINE
8
BLACK
6
CONTINUOUS
10
3.6537553937007874
20
-4.0261278346456688
11
3.6500058661417323
21
-4.033626889763779
0
LINE
8
BLACK
6
CONTINUOUS
10
3.6500058661417323
20
-4.033626889763779
11
3.6425068110236221
21
-4.041125984251968
0
LINE
8
BLACK
6
CONTINUOUS
10
3.6425068110236221
20
-4.041125984251968
11
3.631258188976378
21
-4.0448755118110231
0
LINE
8
BLACK
6
CONTINUOUS
10
3.631258188976378
20
-4.0448755118110231
11
3.6125105511811024
21
-4.0448755118110231
0
LINE
8
BLACK
6
CONTINUOUS
10
3.6912507086614172
20
-4.0448755118110231
11
3.6912507086614172
21
-3.9923820472440945
0
LINE
8
BLACK
6
CONTINUOUS
10
3.6912507086614172
20
-4.0073801968503933
11
3.6950002362204724
21
-3.9998811023622047
0
LINE
8
BLACK
6
CONTINUOUS
10
3.6950002362204724
20
-3.9998811023622047
11
3.6987497637795275
21
-3.9961315748031496
0
LINE
8
BLACK
6
CONTINUOUS
10
3.6987497637795275
20
-3.9961315748031496
11
3.7062488188976377
21
-3.9923820472440945
0
LINE
8
BLACK
6
CONTINUOUS
10
3.7062488188976377
20
-3.9923820472440945
11
3.7137479133858267
21
-3.9923820472440945
0
LINE
8
BLACK
6
CONTINUOUS
10
3.7399946062992124
20
-4.0448755118110231
11
3.7399946062992124
21
-3.9923820472440945
0
LINE
8
BLACK
6
CONTINUOUS
10
3.7399946062992124
20
-3.9661353543307087
11
3.7362450787401573
21
-3.9698848818897639
0
LINE
8
BLACK
6
CONTINUOUS
10
3.7362450787401573
20
-3.9698848818897639
11
3.7399946062992124
21
-3.973634409448819
0
LINE
8
BLACK
6
CONTINUOUS
10
3.7399946062992124
20
-3.973634409448819
11
3.7437441338582675
21
-3.9698848818897639
0
LINE
8
BLACK
6
CONTINUOUS
10
3.7437441338582675
20
-3.9698848818897639
11
3.7399946062992124
21
-3.9661353543307087
0
LINE
8
BLACK
6
CONTINUOUS
10
3.7399946062992124
20
-3.9661353543307087
11
3.7399946062992124
21
-3.973634409448819
0
LINE
8
BLACK
6
CONTINUOUS
10
3.7887385039370076
20
-4.0448755118110231
11
3.7812394488188974
21
-4.041125984251968
0
LINE
8
BLACK
6
CONTINUOUS
10
3.7812394488188974
20
-4.041125984251968
11
3.7774899212598423
21
-4.033626889763779
0
LINE
8
BLACK
6
CONTINUOUS
10
3.7774899212598423
20
-4.033626889763779
11
3.7774899212598423
21
-3.9661353543307087
0
LINE
8
BLACK
6
CONTINUOUS
10
3.829983346456693
20
-4.0448755118110231
11
3.8224842913385828
21
-4.041125984251968
0
LINE
8
BLACK
6
CONTINUOUS
10
3.8224842913385828
20
-4.041125984251968
11
3.8187347637795273
21
-4.033626889763779
0
LINE
8
BLACK
6
CONTINUOUS
10
3.8187347637795273
20
-4.033626889763779
11
3.8187347637795273
21
-3.9661353543307087
0
LINE
8
BLACK
6
CONTINUOUS
10
3.9199721259842519
20
-4.0448755118110231
11
3.9199721259842519
21
-3.9661353543307087
0
LINE
8
BLACK
6
CONTINUOUS
10
3.9199721259842519
20
-3.9661353543307087
11
3.9462188582677165
21
-4.0223783070866137
0
LINE
8
BLACK
6
CONTINUOUS
10
3.9462188582677165
20
-4.0223783070866137
11
3.9724655511811022
21
-3.9661353543307087
0
LINE
8
BLACK
6
CONTINUOUS
10
3.9724655511811022
20
-3.9661353543307087
11
3.9724655511811022
21
-4.0448755118110231
0
LINE
8
BLACK
6
CONTINUOUS
10
4.0437066535433068
20
-4.0448755118110231
11
4.0437066535433068
21
-4.0036306692913382
0
LINE
8
BLACK
6
CONTINUOUS
10
4.0437066535433068
20
-4.0036306692913382
11
4.0399571259842517
21
-3.9961315748031496
0
LINE
8
BLACK
6
CONTINUOUS
10
4.0399571259842517
20
-3.9961315748031496
11
4.0324580708661415
21
-3.9923820472440945
0
LINE
8
BLACK
6
CONTINUOUS
10
4.0324580708661415
20
-3.9923820472440945
11
4.0174599212598423
21
-3.9923820472440945
0
LINE
8
BLACK
6
CONTINUOUS
10
4.0174599212598423
20
-3.9923820472440945
11
4.0099608661417321
21
-3.9961315748031496
0
LINE
8
BLACK
6
CONTINUOUS
10
4.0437066535433068
20
-4.041125984251968
11
4.0362075984251966
21
-4.0448755118110231
0
LINE
8
BLACK
6
CONTINUOUS
10
4.0362075984251966
20
-4.0448755118110231
11
4.0174599212598423
21
-4.0448755118110231
0
LINE
8
BLACK
6
CONTINUOUS
10
4.0174599212598423
20
-4.0448755118110231
11
4.0099608661417321
21
-4.041125984251968
0
LINE
8
BLACK
6
CONTINUOUS
10
4.0099608661417321
20
-4.041125984251968
11
4.006211338582677
21
-4.033626889763779
0
LINE
8
BLACK
6
CONTINUOUS
10
4.006211338582677
20
-4.033626889763779
11
4.006211338582677
21
-4.0261278346456688
0
LINE
8
BLACK
6
CONTINUOUS
10
4.006211338582677
20
-4.0261278346456688
11
4.0099608661417321
21
-4.0186287795275586
0
LINE
8
BLACK
6
CONTINUOUS
10
4.0099608661417321
20
-4.0186287795275586
11
4.0174599212598423
21
-4.0148792519685035
0
LINE
8
BLACK
6
CONTINUOUS
10
4.0174599212598423
20
-4.0148792519685035
11
4.0362075984251966
21
-4.0148792519685035
0
LINE
8
BLACK
6
CONTINUOUS
10
4.0362075984251966
20
-4.0148792519685035
11
4.0437066535433068
21
-4.0111297244094484
0
LINE
8
BLACK
6
CONTINUOUS
10
4.0812019685039367
20
-3.9923820472440945
11
4.0812019685039367
21
-4.0711222047244098
0
LINE
8
BLACK
6
CONTINUOUS
10
4.0812019685039367
20
-3.9961315748031496
11
4.0887010236220469
21
-3.9923820472440945
0
LINE
8
BLACK
6
CONTINUOUS
10
4.0887010236220469
20
-3.9923820472440945
11
4.1036991732283461
21
-3.9923820472440945
0
LINE
8
BLACK
6
CONTINUOUS
10
4.1036991732283461
20
-3.9923820472440945
11
4.1111982283464563
21
-3.9961315748031496
0
LINE
8
BLACK
6
CONTINUOUS
10
4.1111982283464563
20
-3.9961315748031496
11
4.1149477559055114
21
-3.9998811023622047
0
LINE
8
BLACK
6
CONTINUOUS
10
4.1149477559055114
20
-3.9998811023622047
11
4.1186972834645665
21
-4.0073801968503933
0
LINE
8
BLACK
6
CONTINUOUS
10
4.1186972834645665
20
-4.0073801968503933
11
4.1186972834645665
21
-4.0298773622047239
0
LINE
8
BLACK
6
CONTINUOUS
10
4.1186972834645665
20
-4.0298773622047239
11
4.1149477559055114
21
-4.0373764173228341
0
LINE
8
BLACK
6
CONTINUOUS
10
4.1149477559055114
20
-4.0373764173228341
11
4.1111982283464563
21
-4.041125984251968
0
LINE
8
BLACK
6
CONTINUOUS
10
4.1111982283464563
20
-4.041125984251968
11
4.1036991732283461
21
-4.0448755118110231
0
LINE
8
BLACK
6
CONTINUOUS
10
4.1036991732283461
20
-4.0448755118110231
11
4.0887010236220469
21
-4.0448755118110231
0
LINE
8
BLACK
6
CONTINUOUS
10
4.0887010236220469
20
-4.0448755118110231
11
4.0812019685039367
21
-4.041125984251968
0
LINE
8
BLACK
6
CONTINUOUS
10
4.1524430708661413
20
-4.0373764173228341
11
4.1561925984251964
21
-4.041125984251968
0
LINE
8
BLACK
6
CONTINUOUS
10
4.1561925984251964
20
-4.041125984251968
11
4.1524430708661413
21
-4.0448755118110231
0
LINE
8
BLACK
6
CONTINUOUS
10
4.1524430708661413
20
-4.0448755118110231
11
4.1486935433070862
21
-4.041125984251968
0
LINE
8
BLACK
6
CONTINUOUS
10
4.1486935433070862
20
-4.041125984251968
11
4.1524430708661413
21
-4.0373764173228341
0
LINE
8
BLACK
6
CONTINUOUS
10
4.1524430708661413
20
-4.0373764173228341
11
4.1524430708661413
21
-4.0448755118110231
0
LINE
8
BLACK
6
CONTINUOUS
10
4.1524430708661413
20
-3.9961315748031496
11
4.1561925984251964
21
-3.9998811023622047
0
LINE
8
BLACK
6
CONTINUOUS
10
4.1561925984251964
20
-3.9998811023622047
11
4.1524430708661413
21
-4.0036306692913382
0
LINE
8
BLACK
6
CONTINUOUS
10
4.1524430708661413
20
-4.0036306692913382
11
4.1486935433070862
21
-3.9998811023622047
0
LINE
8
BLACK
6
CONTINUOUS
10
4.1486935433070862
20
-3.9998811023622047
11
4.1524430708661413
21
-3.9961315748031496
0
LINE
8
BLACK
6
CONTINUOUS
10
4.1524430708661413
20
-3.9961315748031496
11
4.1524430708661413
21
-4.0036306692913382
0
LINE
8
BLACK
6
CONTINUOUS
10
3.4901574803149606
20
-4.1643700787401574
11
3.5098425196850394
21
-4.1840551181102361
0
LINE
8
BLACK
6
CONTINUOUS
10
3.5098425196850394
20
-4.1643700787401574
11
3.4901574803149606
21
-4.1840551181102361
0
LINE
8
BLACK
6
CONTINUOUS
10
3.6275086614173229
20
-4.1314896850393703
11
3.6350077559055118
21
-4.1314896850393703
0
LINE
8
BLACK
6
CONTINUOUS
10
3.6350077559055118
20
-4.1314896850393703
11
3.6425068110236221
21
-4.1352392125984254
0
LINE
8
BLACK
6
CONTINUOUS
10
3.6425068110236221
20
-4.1352392125984254
11
3.6462563385826772
21
-4.1389887401574805
0
LINE
8
BLACK
6
CONTINUOUS
10
3.6462563385826772
20
-4.1389887401574805
11
3.6500058661417323
21
-4.1464877952755907
0
LINE
8
BLACK
6
CONTINUOUS
10
3.6500058661417323
20
-4.1464877952755907
11
3.6537553937007874
21
-4.1614859055118112
0
LINE
8
BLACK
6
CONTINUOUS
10
3.6537553937007874
20
-4.1614859055118112
11
3.6537553937007874
21
-4.1802335826771655
0
LINE
8
BLACK
6
CONTINUOUS
10
3.6537553937007874
20
-4.1802335826771655
11
3.6500058661417323
21
-4.1952316929133859
0
LINE
8
BLACK
6
CONTINUOUS
10
3.6500058661417323
20
-4.1952316929133859
11
3.6462563385826772
21
-4.2027307480314962
0
LINE
8
BLACK
6
CONTINUOUS
10
3.6462563385826772
20
-4.2027307480314962
11
3.6425068110236221
21
-4.20648031496063
0
LINE
8
BLACK
6
CONTINUOUS
10
3.6425068110236221
20
-4.20648031496063
11
3.6350077559055118
21
-4.2102298425196851
0
LINE
8
BLACK
6
CONTINUOUS
10
3.6350077559055118
20
-4.2102298425196851
11
3.6275086614173229
21
-4.2102298425196851
0
LINE
8
BLACK
6
CONTINUOUS
10
3.6275086614173229
20
-4.2102298425196851
11
3.6200096062992126
21
-4.20648031496063
0
LINE
8
BLACK
6
CONTINUOUS
10
3.6200096062992126
20
-4.20648031496063
11
3.6162600787401575
21
-4.2027307480314962
0
LINE
8
BLACK
6
CONTINUOUS
10
3.6162600787401575
20
-4.2027307480314962
11
3.6125105511811024
21
-4.1952316929133859
0
LINE
8
BLACK
6
CONTINUOUS
10
3.6125105511811024
20
-4.1952316929133859
11
3.6087610236220473
21
-4.1802335826771655
0
LINE
8
BLACK
6
CONTINUOUS
10
3.6087610236220473
20
-4.1802335826771655
11
3.6087610236220473
21
-4.1614859055118112
0
LINE
8
BLACK
6
CONTINUOUS
10
3.6087610236220473
20
-4.1614859055118112
11
3.6125105511811024
21
-4.1464877952755907
0
LINE
8
BLACK
6
CONTINUOUS
10
3.6125105511811024
20
-4.1464877952755907
11
3.6162600787401575
21
-4.1389887401574805
0
LINE
8
BLACK
6
CONTINUOUS
10
3.6162600787401575
20
-4.1389887401574805
11
3.6200096062992126
21
-4.1352392125984254
0
LINE
8
BLACK
6
CONTINUOUS
10
3.6200096062992126
20
-4.1352392125984254
11
3.6275086614173229
21
-4.1314896850393703
0
LINE
8
BLACK
6
CONTINUOUS
10
3.6875011811023621
20
-4.2027307480314962
11
3.6912507086614172
21
-4.20648031496063
0
LINE
8
BLACK
6
CONTINUOUS
10
3.6912507086614172
20
-4.20648031496063
11
3.6875011811023621
21
-4.2102298425196851
0
LINE
8
BLACK
6
CONTINUOUS
10
3.6875011811023621
20
-4.2102298425196851
11
3.683751653543307
21
-4.20648031496063
0
LINE
8
BLACK
6
CONTINUOUS
10
3.683751653543307
20
-4.20648031496063
11
3.6875011811023621
21
-4.2027307480314962
0
LINE
8
BLACK
6
CONTINUOUS
10
3.6875011811023621
20
-4.2027307480314962
11
3.6875011811023621
21
-4.2102298425196851
0
LINE
8
BLACK
6
CONTINUOUS
10
3.7624918110236218
20
-4.1314896850393703
11
3.724996496062992
21
-4.1314896850393703
0
LINE
8
BLACK
6
CONTINUOUS
10
3.724996496062992
20
-4.1314896850393703
11
3.7212469685039369
21
-4.1689850000000002
0
LINE
8
BLACK
6
CONTINUOUS
10
3.7212469685039369
20
-4.1689850000000002
11
3.724996496062992
21
-4.1652354330708663
0
LINE
8
BLACK
6
CONTINUOUS
10
3.724996496062992
20
-4.1652354330708663
11
3.7324955511811022
21
-4.1614859055118112
0
LINE
8
BLACK
6
CONTINUOUS
10
3.7324955511811022
20
-4.1614859055118112
11
3.7512432283464565
21
-4.1614859055118112
0
LINE
8
BLACK
6
CONTINUOUS
10
3.7512432283464565
20
-4.1614859055118112
11
3.7587422834645667
21
-4.1652354330708663
0
LINE
8
BLACK
6
CONTINUOUS
10
3.7587422834645667
20
-4.1652354330708663
11
3.7624918110236218
21
-4.1689850000000002
0
LINE
8
BLACK
6
CONTINUOUS
10
3.7624918110236218
20
-4.1689850000000002
11
3.766241338582677
21
-4.1764840551181104
0
LINE
8
BLACK
6
CONTINUOUS
10
3.766241338582677
20
-4.1764840551181104
11
3.766241338582677
21
-4.1952316929133859
0
LINE
8
BLACK
6
CONTINUOUS
10
3.766241338582677
20
-4.1952316929133859
11
3.7624918110236218
21
-4.2027307480314962
0
LINE
8
BLACK
6
CONTINUOUS
10
3.7624918110236218
20
-4.2027307480314962
11
3.7587422834645667
21
-4.20648031496063
0
LINE
8
BLACK
6
CONTINUOUS
10
3.7587422834645667
20
-4.20648031496063
11
3.7512432283464565
21
-4.2102298425196851
0
LINE
8
BLACK
6
CONTINUOUS
10
3.7512432283464565
20
-4.2102298425196851
11
3.7324955511811022
21
-4.2102298425196851
0
LINE
8
BLACK
6
CONTINUOUS
10
3.7324955511811022
20
-4.2102298425196851
11
3.724996496062992
21
-4.20648031496063
0
LINE
8
BLACK
6
CONTINUOUS
10
3.724996496062992
20
-4.20648031496063
11
3.7212469685039369
21
-4.2027307480314962
0
LINE
8
BLACK
6
CONTINUOUS
10
3.8149852362204721
20
-4.1314896850393703
11
3.8224843307086611
21
-4.1314896850393703
0
LINE
8
BLACK
6
CONTINUOUS
10
3.8224843307086611
20
-4.1314896850393703
11
3.8299833858267718
21
-4.1352392125984254
0
LINE
8
BLACK
6
CONTINUOUS
10
3.8299833858267718
20
-4.1352392125984254
11
3.8337329133858269
21
-4.1389887401574805
0
LINE
8
BLACK
6
CONTINUOUS
10
3.8337329133858269
20
-4.1389887401574805
11
3.837482440944882
21
-4.1464877952755907
0
LINE
8
BLACK
6
CONTINUOUS
10
3.837482440944882
20
-4.1464877952755907
11
3.8412319685039371
21
-4.1614859055118112
0
LINE
8
BLACK
6
CONTINUOUS
10
3.8412319685039371
20
-4.1614859055118112
11
3.8412319685039371
21
-4.1802335826771655
0
LINE
8
BLACK
6
CONTINUOUS
10
3.8412319685039371
20
-4.1802335826771655
11
3.837482440944882
21
-4.1952316929133859
0
LINE
8
BLACK
6
CONTINUOUS
10
3.837482440944882
20
-4.1952316929133859
11
3.8337329133858269
21
-4.2027307480314962
0
LINE
8
BLACK
6
CONTINUOUS
10
3.8337329133858269
20
-4.2027307480314962
11
3.8299833858267718
21
-4.20648031496063
0
LINE
8
BLACK
6
CONTINUOUS
10
3.8299833858267718
20
-4.20648031496063
11
3.8224843307086611
21
-4.2102298425196851
0
LINE
8
BLACK
6
CONTINUOUS
10
3.8224843307086611
20
-4.2102298425196851
11
3.8149852362204721
21
-4.2102298425196851
0
LINE
8
BLACK
6
CONTINUOUS
10
3.8149852362204721
20
-4.2102298425196851
11
3.8074861811023619
21
-4.20648031496063
0
LINE
8
BLACK
6
CONTINUOUS
10
3.8074861811023619
20
-4.20648031496063
11
3.8037366535433068
21
-4.2027307480314962
0
LINE
8
BLACK
6
CONTINUOUS
10
3.8037366535433068
20
-4.2027307480314962
11
3.7999871259842517
21
-4.1952316929133859
0
LINE
8
BLACK
6
CONTINUOUS
10
3.7999871259842517
20
-4.1952316929133859
11
3.7962375984251966
21
-4.1802335826771655
0
LINE
8
BLACK
6
CONTINUOUS
10
3.7962375984251966
20
-4.1802335826771655
11
3.7962375984251966
21
-4.1614859055118112
0
LINE
8
BLACK
6
CONTINUOUS
10
3.7962375984251966
20
-4.1614859055118112
11
3.7999871259842517
21
-4.1464877952755907
0
LINE
8
BLACK
6
CONTINUOUS
10
3.7999871259842517
20
-4.1464877952755907
11
3.8037366535433068
21
-4.1389887401574805
0
LINE
8
BLACK
6
CONTINUOUS
10
3.8037366535433068
20
-4.1389887401574805
11
3.8074861811023619
21
-4.1352392125984254
0
LINE
8
BLACK
6
CONTINUOUS
10
3.8074861811023619
20
-4.1352392125984254
11
3.8149852362204721
21
-4.1314896850393703
0
LINE
8
BLACK
6
CONTINUOUS
10
3.8899758661417323
20
-4.1314896850393703
11
3.8974749606299213
21
-4.1314896850393703
0
LINE
8
BLACK
6
CONTINUOUS
10
3.8974749606299213
20
-4.1314896850393703
11
3.9049740157480315
21
-4.1352392125984254
0
LINE
8
BLACK
6
CONTINUOUS
10
3.9049740157480315
20
-4.1352392125984254
11
3.9087235433070866
21
-4.1389887401574805
0
LINE
8
BLACK
6
CONTINUOUS
10
3.9087235433070866
20
-4.1389887401574805
11
3.9124730708661417
21
-4.1464877952755907
0
LINE
8
BLACK
6
CONTINUOUS
10
3.9124730708661417
20
-4.1464877952755907
11
3.9162225984251968
21
-4.1614859055118112
0
LINE
8
BLACK
6
CONTINUOUS
10
3.9162225984251968
20
-4.1614859055118112
11
3.9162225984251968
21
-4.1802335826771655
0
LINE
8
BLACK
6
CONTINUOUS
10
3.9162225984251968
20
-4.1802335826771655
11
3.9124730708661417
21
-4.1952316929133859
0
LINE
8
BLACK
6
CONTINUOUS
10
3.9124730708661417
20
-4.1952316929133859
11
3.9087235433070866
21
-4.2027307480314962
0
LINE
8
BLACK
6
CONTINUOUS
10
3.9087235433070866
20
-4.2027307480314962
11
3.9049740157480315
21
-4.20648031496063
0
LINE
8
BLACK
6
CONTINUOUS
10
3.9049740157480315
20
-4.20648031496063
11
3.8974749606299213
21
-4.2102298425196851
0
LINE
8
BLACK
6
CONTINUOUS
10
3.8974749606299213
20
-4.2102298425196851
11
3.8899758661417323
21
-4.2102298425196851
0
LINE
8
BLACK
6
CONTINUOUS
10
3.8899758661417323
20
-4.2102298425196851
11
3.8824768110236221
21
-4.20648031496063
0
LINE
8
BLACK
6
CONTINUOUS
10
3.8824768110236221
20
-4.20648031496063
11
3.878727283464567
21
-4.2027307480314962
0
LINE
8
BLACK
6
CONTINUOUS
10
3.878727283464567
20
-4.2027307480314962
11
3.8749777559055119
21
-4.1952316929133859
0
LINE
8
BLACK
6
CONTINUOUS
10
3.8749777559055119
20
-4.1952316929133859
11
3.8712282283464567
21
-4.1802335826771655
0
LINE
8
BLACK
6
CONTINUOUS
10
3.8712282283464567
20
-4.1802335826771655
11
3.8712282283464567
21
-4.1614859055118112
0
LINE
8
BLACK
6
CONTINUOUS
10
3.8712282283464567
20
-4.1614859055118112
11
3.8749777559055119
21
-4.1464877952755907
0
LINE
8
BLACK
6
CONTINUOUS
10
3.8749777559055119
20
-4.1464877952755907
11
3.878727283464567
21
-4.1389887401574805
0
LINE
8
BLACK
6
CONTINUOUS
10
3.878727283464567
20
-4.1389887401574805
11
3.8824768110236221
21
-4.1352392125984254
0
LINE
8
BLACK
6
CONTINUOUS
10
3.8824768110236221
20
-4.1352392125984254
11
3.8899758661417323
21
-4.1314896850393703
0
LINE
8
BLACK
6
CONTINUOUS
10
3.9499683858267716
20
-4.2102298425196851
11
3.9499683858267716
21
-4.1577363779527561
0
LINE
8
BLACK
6
CONTINUOUS
10
3.9499683858267716
20
-4.1652354330708663
11
3.9537179133858267
21
-4.1614859055118112
0
LINE
8
BLACK
6
CONTINUOUS
10
3.9537179133858267
20
-4.1614859055118112
11
3.9612169685039369
21
-4.1577363779527561
0
LINE
8
BLACK
6
CONTINUOUS
10
3.9612169685039369
20
-4.1577363779527561
11
3.972465590551181
21
-4.1577363779527561
0
LINE
8
BLACK
6
CONTINUOUS
10
3.972465590551181
20
-4.1577363779527561
11
3.9799646456692912
21
-4.1614859055118112
0
LINE
8
BLACK
6
CONTINUOUS
10
3.9799646456692912
20
-4.1614859055118112
11
3.9837141732283463
21
-4.1689850000000002
0
LINE
8
BLACK
6
CONTINUOUS
10
3.9837141732283463
20
-4.1689850000000002
11
3.9837141732283463
21
-4.2102298425196851
0
LINE
8
BLACK
6
CONTINUOUS
10
3.9837141732283463
20
-4.1689850000000002
11
3.9874637007874014
21
-4.1614859055118112
0
LINE
8
BLACK
6
CONTINUOUS
10
3.9874637007874014
20
-4.1614859055118112
11
3.9949627559055116
21
-4.1577363779527561
0
LINE
8
BLACK
6
CONTINUOUS
10
3.9949627559055116
20
-4.1577363779527561
11
4.006211338582677
21
-4.1577363779527561
0
LINE
8
BLACK
6
CONTINUOUS
10
4.006211338582677
20
-4.1577363779527561
11
4.0137104330708659
21
-4.1614859055118112
0
LINE
8
BLACK
6
CONTINUOUS
10
4.0137104330708659
20
-4.1614859055118112
11
4.0174599606299211
21
-4.1689850000000002
0
LINE
8
BLACK
6
CONTINUOUS
10
4.0174599606299211
20
-4.1689850000000002
11
4.0174599606299211
21
-4.2102298425196851
0
LINE
8
BLACK
6
CONTINUOUS
10
4.0549552755905509
20
-4.2102298425196851
11
4.0549552755905509
21
-4.1577363779527561
0
LINE
8
BLACK
6
CONTINUOUS
10
4.0549552755905509
20
-4.1652354330708663
11
4.058704803149606
21
-4.1614859055118112
0
LINE
8
BLACK
6
CONTINUOUS
10
4.058704803149606
20
-4.1614859055118112
11
4.0662038582677162
21
-4.1577363779527561
0
LINE
8
BLACK
6
CONTINUOUS
10
4.0662038582677162
20
-4.1577363779527561
11
4.0774524803149603
21
-4.1577363779527561
0
LINE
8
BLACK
6
CONTINUOUS
10
4.0774524803149603
20
-4.1577363779527561
11
4.0849515354330705
21
-4.1614859055118112
0
LINE
8
BLACK
6
CONTINUOUS
10
4.0849515354330705
20
-4.1614859055118112
11
4.0887010629921257
21
-4.1689850000000002
0
LINE
8
BLACK
6
CONTINUOUS
10
4.0887010629921257
20
-4.1689850000000002
11
4.0887010629921257
21
-4.2102298425196851
0
LINE
8
BLACK
6
CONTINUOUS
10
4.0887010629921257
20
-4.1689850000000002
11
4.0924505905511808
21
-4.1614859055118112
0
LINE
8
BLACK
6
CONTINUOUS
10
4.0924505905511808
20
-4.1614859055118112
11
4.099949645669291
21
-4.1577363779527561
0
LINE
8
BLACK
6
CONTINUOUS
10
4.099949645669291
20
-4.1577363779527561
11
4.1111982283464563
21
-4.1577363779527561
0
LINE
8
BLACK
6
CONTINUOUS
10
4.1111982283464563
20
-4.1577363779527561
11
4.1186973228346453
21
-4.1614859055118112
0
LINE
8
BLACK
6
CONTINUOUS
10
4.1186973228346453
20
-4.1614859055118112
11
4.1224468503937004
21
-4.1689850000000002
0
LINE
8
BLACK
6
CONTINUOUS
10
4.1224468503937004
20
-4.1689850000000002
11
4.1224468503937004
21
-4.2102298425196851
0
LINE
8
BLACK
6
CONTINUOUS
10
4.2761776377952758
20
-4.1277401574803152
11
4.2086861023622042
21
-4.2289774803149607
0
LINE
8
BLACK
6
CONTINUOUS
10
4.3774150000000001
20
-4.1314896850393703
11
4.384914094488189
21
-4.1314896850393703
0
LINE
8
BLACK
6
CONTINUOUS
10
4.384914094488189
20
-4.1314896850393703
11
4.3924131496062992
21
-4.1352392125984254
0
LINE
8
BLACK
6
CONTINUOUS
10
4.3924131496062992
20
-4.1352392125984254
11
4.3961626771653544
21
-4.1389887401574805
0
LINE
8
BLACK
6
CONTINUOUS
10
4.3961626771653544
20
-4.1389887401574805
11
4.3999122047244095
21
-4.1464877952755907
0
LINE
8
BLACK
6
CONTINUOUS
10
4.3999122047244095
20
-4.1464877952755907
11
4.4036617322834646
21
-4.1614859055118112
0
LINE
8
BLACK
6
CONTINUOUS
10
4.4036617322834646
20
-4.1614859055118112
11
4.4036617322834646
21
-4.1802335826771655
0
LINE
8
BLACK
6
CONTINUOUS
10
4.4036617322834646
20
-4.1802335826771655
11
4.3999122047244095
21
-4.1952316929133859
0
LINE
8
BLACK
6
CONTINUOUS
10
4.3999122047244095
20
-4.1952316929133859
11
4.3961626771653544
21
-4.2027307480314962
0
LINE
8
BLACK
6
CONTINUOUS
10
4.3961626771653544
20
-4.2027307480314962
11
4.3924131496062992
21
-4.20648031496063
0
LINE
8
BLACK
6
CONTINUOUS
10
4.3924131496062992
20
-4.20648031496063
11
4.384914094488189
21
-4.2102298425196851
0
LINE
8
BLACK
6
CONTINUOUS
10
4.384914094488189
20
-4.2102298425196851
11
4.3774150000000001
21
-4.2102298425196851
0
LINE
8
BLACK
6
CONTINUOUS
10
4.3774150000000001
20
-4.2102298425196851
11
4.3699159448818898
21
-4.20648031496063
0
LINE
8
BLACK
6
CONTINUOUS
10
4.3699159448818898
20
-4.20648031496063
11
4.3661664173228347
21
-4.2027307480314962
0
LINE
8
BLACK
6
CONTINUOUS
10
4.3661664173228347
20
-4.2027307480314962
11
4.3624168897637796
21
-4.1952316929133859
0
LINE
8
BLACK
6
CONTINUOUS
10
4.3624168897637796
20
-4.1952316929133859
11
4.3586673622047245
21
-4.1802335826771655
0
LINE
8
BLACK
6
CONTINUOUS
10
4.3586673622047245
20
-4.1802335826771655
11
4.3586673622047245
21
-4.1614859055118112
0
LINE
8
BLACK
6
CONTINUOUS
10
4.3586673622047245
20
-4.1614859055118112
11
4.3624168897637796
21
-4.1464877952755907
0
LINE
8
BLACK
6
CONTINUOUS
10
4.3624168897637796
20
-4.1464877952755907
11
4.3661664173228347
21
-4.1389887401574805
0
LINE
8
BLACK
6
CONTINUOUS
10
4.3661664173228347
20
-4.1389887401574805
11
4.3699159448818898
21
-4.1352392125984254
0
LINE
8
BLACK
6
CONTINUOUS
10
4.3699159448818898
20
-4.1352392125984254
11
4.3774150000000001
21
-4.1314896850393703
0
LINE
8
BLACK
6
CONTINUOUS
10
4.4374075196850393
20
-4.2027307480314962
11
4.4411570472440944
21
-4.20648031496063
0
LINE
8
BLACK
6
CONTINUOUS
10
4.4411570472440944
20
-4.20648031496063
11
4.4374075196850393
21
-4.2102298425196851
0
LINE
8
BLACK
6
CONTINUOUS
10
4.4374075196850393
20
-4.2102298425196851
11
4.4336579921259842
21
-4.20648031496063
0
LINE
8
BLACK
6
CONTINUOUS
10
4.4336579921259842
20
-4.20648031496063
11
4.4374075196850393
21
-4.2027307480314962
0
LINE
8
BLACK
6
CONTINUOUS
10
4.4374075196850393
20
-4.2027307480314962
11
4.4374075196850393
21
-4.2102298425196851
0
LINE
8
BLACK
6
CONTINUOUS
10
4.4899009448818896
20
-4.1314896850393703
11
4.4974000393700786
21
-4.1314896850393703
0
LINE
8
BLACK
6
CONTINUOUS
10
4.4974000393700786
20
-4.1314896850393703
11
4.5048990944881888
21
-4.1352392125984254
0
LINE
8
BLACK
6
CONTINUOUS
10
4.5048990944881888
20
-4.1352392125984254
11
4.5086486220472439
21
-4.1389887401574805
0
LINE
8
BLACK
6
CONTINUOUS
10
4.5086486220472439
20
-4.1389887401574805
11
4.512398149606299
21
-4.1464877952755907
0
LINE
8
BLACK
6
CONTINUOUS
10
4.512398149606299
20
-4.1464877952755907
11
4.5161476771653541
21
-4.1614859055118112
0
LINE
8
BLACK
6
CONTINUOUS
10
4.5161476771653541
20
-4.1614859055118112
11
4.5161476771653541
21
-4.1802335826771655
0
LINE
8
BLACK
6
CONTINUOUS
10
4.5161476771653541
20
-4.1802335826771655
11
4.512398149606299
21
-4.1952316929133859
0
LINE
8
BLACK
6
CONTINUOUS
10
4.512398149606299
20
-4.1952316929133859
11
4.5086486220472439
21
-4.2027307480314962
0
LINE
8
BLACK
6
CONTINUOUS
10
4.5086486220472439
20
-4.2027307480314962
11
4.5048990944881888
21
-4.20648031496063
0
LINE
8
BLACK
6
CONTINUOUS
10
4.5048990944881888
20
-4.20648031496063
11
4.4974000393700786
21
-4.2102298425196851
0
LINE
8
BLACK
6
CONTINUOUS
10
4.4974000393700786
20
-4.2102298425196851
11
4.4899009448818896
21
-4.2102298425196851
0
LINE
8
BLACK
6
CONTINUOUS
10
4.4899009448818896
20
-4.2102298425196851
11
4.4824018897637794
21
-4.20648031496063
0
LINE
8
BLACK
6
CONTINUOUS
10
4.4824018897637794
20
-4.20648031496063
11
4.4786523622047243
21
-4.2027307480314962
0
LINE
8
BLACK
6
CONTINUOUS
10
4.4786523622047243
20
-4.2027307480314962
11
4.4749028346456692
21
-4.1952316929133859
0
LINE
8
BLACK
6
CONTINUOUS
10
4.4749028346456692
20
-4.1952316929133859
11
4.4711533070866141
21
-4.1802335826771655
0
LINE
8
BLACK
6
CONTINUOUS
10
4.4711533070866141
20
-4.1802335826771655
11
4.4711533070866141
21
-4.1614859055118112
0
LINE
8
BLACK
6
CONTINUOUS
10
4.4711533070866141
20
-4.1614859055118112
11
4.4749028346456692
21
-4.1464877952755907
0
LINE
8
BLACK
6
CONTINUOUS
10
4.4749028346456692
20
-4.1464877952755907
11
4.4786523622047243
21
-4.1389887401574805
0
LINE
8
BLACK
6
CONTINUOUS
10
4.4786523622047243
20
-4.1389887401574805
11
4.4824018897637794
21
-4.1352392125984254
0
LINE
8
BLACK
6
CONTINUOUS
10
4.4824018897637794
20
-4.1352392125984254
11
4.4899009448818896
21
-4.1314896850393703
0
LINE
8
BLACK
6
CONTINUOUS
10
4.5911383070866139
20
-4.2102298425196851
11
4.5461439370078738
21
-4.2102298425196851
0
LINE
8
BLACK
6
CONTINUOUS
10
4.5686411023622044
20
-4.2102298425196851
11
4.5686411023622044
21
-4.1314896850393703
0
LINE
8
BLACK
6
CONTINUOUS
10
4.5686411023622044
20
-4.1314896850393703
11
4.5611420472440942
21
-4.1427382677165356
0
LINE
8
BLACK
6
CONTINUOUS
10
4.5611420472440942
20
-4.1427382677165356
11
4.553642992125984
21
-4.1502373228346459
0
LINE
8
BLACK
6
CONTINUOUS
10
4.553642992125984
20
-4.1502373228346459
11
4.5461439370078738
21
-4.153986850393701
0
LINE
8
BLACK
6
CONTINUOUS
10
4.6286336220472437
20
-4.2102298425196851
11
4.6436317322834642
21
-4.2102298425196851
0
LINE
8
BLACK
6
CONTINUOUS
10
4.6436317322834642
20
-4.2102298425196851
11
4.6511308267716531
21
-4.20648031496063
0
LINE
8
BLACK
6
CONTINUOUS
10
4.6511308267716531
20
-4.20648031496063
11
4.6548803543307082
21
-4.2027307480314962
0
LINE
8
BLACK
6
CONTINUOUS
10
4.6548803543307082
20
-4.2027307480314962
11
4.6623794094488185
21
-4.1914821653543308
0
LINE
8
BLACK
6
CONTINUOUS
10
4.6623794094488185
20
-4.1914821653543308
11
4.6661289370078736
21
-4.1764840551181104
0
LINE
8
BLACK
6
CONTINUOUS
10
4.6661289370078736
20
-4.1764840551181104
11
4.6661289370078736
21
-4.1464877952755907
0
LINE
8
BLACK
6
CONTINUOUS
10
4.6661289370078736
20
-4.1464877952755907
11
4.6623794094488185
21
-4.1389887401574805
0
LINE
8
BLACK
6
CONTINUOUS
10
4.6623794094488185
20
-4.1389887401574805
11
4.6586298818897633
21
-4.1352392125984254
0
LINE
8
BLACK
6
CONTINUOUS
10
4.6586298818897633
20
-4.1352392125984254
11
4.6511308267716531
21
-4.1314896850393703
0
LINE
8
BLACK
6
CONTINUOUS
10
4.6511308267716531
20
-4.1314896850393703
11
4.6361326771653539
21
-4.1314896850393703
0
LINE
8
BLACK
6
CONTINUOUS
10
4.6361326771653539
20
-4.1314896850393703
11
4.6286336220472437
21
-4.1352392125984254
0
LINE
8
BLACK
6
CONTINUOUS
10
4.6286336220472437
20
-4.1352392125984254
11
4.6248840944881886
21
-4.1389887401574805
0
LINE
8
BLACK
6
CONTINUOUS
10
4.6248840944881886
20
-4.1389887401574805
11
4.6211345669291335
21
-4.1464877952755907
0
LINE
8
BLACK
6
CONTINUOUS
10
4.6211345669291335
20
-4.1464877952755907
11
4.6211345669291335
21
-4.1652354330708663
0
LINE
8
BLACK
6
CONTINUOUS
10
4.6211345669291335
20
-4.1652354330708663
11
4.6248840944881886
21
-4.1727345275590553
0
LINE
8
BLACK
6
CONTINUOUS
10
4.6248840944881886
20
-4.1727345275590553
11
4.6286336220472437
21
-4.1764840551181104
0
LINE
8
BLACK
6
CONTINUOUS
10
4.6286336220472437
20
-4.1764840551181104
11
4.6361326771653539
21
-4.1802335826771655
0
LINE
8
BLACK
6
CONTINUOUS
10
4.6361326771653539
20
-4.1802335826771655
11
4.6511308267716531
21
-4.1802335826771655
0
LINE
8
BLACK
6
CONTINUOUS
10
4.6511308267716531
20
-4.1802335826771655
11
4.6586298818897633
21
-4.1764840551181104
0
LINE
8
BLACK
6
CONTINUOUS
10
4.6586298818897633
20
-4.1764840551181104
11
4.6623794094488185
21
-4.1727345275590553
0
LINE
8
BLACK
6
CONTINUOUS
10
4.6623794094488185
20
-4.1727345275590553
11
4.6661289370078736
21
-4.1652354330708663
0
LINE
8
BLACK
6
CONTINUOUS
10
4.6923756692913381
20
-4.1314896850393703
11
4.7448690944881893
21
-4.1314896850393703
0
LINE
8
BLACK
6
CONTINUOUS
10
4.7448690944881893
20
-4.1314896850393703
11
4.7111233070866136
21
-4.2102298425196851
0
LINE
8
BLACK
6
CONTINUOUS
10
4.7711158267716538
20
-4.1314896850393703
11
4.7711158267716538
21
-4.1464877952755907
0
LINE
8
BLACK
6
CONTINUOUS
10
4.8011120866141734
20
-4.1314896850393703
11
4.8011120866141734
21
-4.1464877952755907
0
LINE
8
BLACK
6
CONTINUOUS
10
4.9173475984251969
20
-4.240226062992126
11
4.913598031496063
21
-4.2364765354330709
0
LINE
8
BLACK
6
CONTINUOUS
10
4.913598031496063
20
-4.2364765354330709
11
4.9060989763779528
21
-4.2252279527559056
0
LINE
8
BLACK
6
CONTINUOUS
10
4.9060989763779528
20
-4.2252279527559056
11
4.9023494488188977
21
-4.2177288976377953
0
LINE
8
BLACK
6
CONTINUOUS
10
4.9023494488188977
20
-4.2177288976377953
11
4.8985999212598426
21
-4.20648031496063
0
LINE
8
BLACK
6
CONTINUOUS
10
4.8985999212598426
20
-4.20648031496063
11
4.8948503937007874
21
-4.1877326377952757
0
LINE
8
BLACK
6
CONTINUOUS
10
4.8948503937007874
20
-4.1877326377952757
11
4.8948503937007874
21
-4.1727345275590553
0
LINE
8
BLACK
6
CONTINUOUS
10
4.8948503937007874
20
-4.1727345275590553
11
4.8985999212598426
21
-4.153986850393701
0
LINE
8
BLACK
6
CONTINUOUS
10
4.8985999212598426
20
-4.153986850393701
11
4.9023494488188977
21
-4.1427382677165356
0
LINE
8
BLACK
6
CONTINUOUS
10
4.9023494488188977
20
-4.1427382677165356
11
4.9060989763779528
21
-4.1352392125984254
0
LINE
8
BLACK
6
CONTINUOUS
10
4.9060989763779528
20
-4.1352392125984254
11
4.913598031496063
21
-4.1239905905511813
0
LINE
8
BLACK
6
CONTINUOUS
10
4.913598031496063
20
-4.1239905905511813
11
4.9173475984251969
21
-4.1202410629921262
0
LINE
8
BLACK
6
CONTINUOUS
10
4.9398447637795275
20
-4.1314896850393703
11
4.9885886614173227
21
-4.1314896850393703
0
LINE
8
BLACK
6
CONTINUOUS
10
4.9885886614173227
20
-4.1314896850393703
11
4.9623419291338582
21
-4.1614859055118112
0
LINE
8
BLACK
6
CONTINUOUS
10
4.9623419291338582
20
-4.1614859055118112
11
4.9735905511811023
21
-4.1614859055118112
0
LINE
8
BLACK
6
CONTINUOUS
10
4.9735905511811023
20
-4.1614859055118112
11
4.9810896062992125
21
-4.1652354330708663
0
LINE
8
BLACK
6
CONTINUOUS
10
4.9810896062992125
20
-4.1652354330708663
11
4.9848391338582676
21
-4.1689850000000002
0
LINE
8
BLACK
6
CONTINUOUS
10
4.9848391338582676
20
-4.1689850000000002
11
4.9885886614173227
21
-4.1764840551181104
0
LINE
8
BLACK
6
CONTINUOUS
10
4.9885886614173227
20
-4.1764840551181104
11
4.9885886614173227
21
-4.1952316929133859
0
LINE
8
BLACK
6
CONTINUOUS
10
4.9885886614173227
20
-4.1952316929133859
11
4.9848391338582676
21
-4.2027307480314962
0
LINE
8
BLACK
6
CONTINUOUS
10
4.9848391338582676
20
-4.2027307480314962
11
4.9810896062992125
21
-4.20648031496063
0
LINE
8
BLACK
6
CONTINUOUS
10
4.9810896062992125
20
-4.20648031496063
11
4.9735905511811023
21
-4.2102298425196851
0
LINE
8
BLACK
6
CONTINUOUS
10
4.9735905511811023
20
-4.2102298425196851
11
4.9510933464566929
21
-4.2102298425196851
0
LINE
8
BLACK
6
CONTINUOUS
10
4.9510933464566929
20
-4.2102298425196851
11
4.9435942913385826
21
-4.20648031496063
0
LINE
8
BLACK
6
CONTINUOUS
10
4.9435942913385826
20
-4.20648031496063
11
4.9398447637795275
21
-4.2027307480314962
0
LINE
8
BLACK
6
CONTINUOUS
10
5.0560802362204722
20
-4.1314896850393703
11
5.041082086614173
21
-4.1314896850393703
0
LINE
8
BLACK
6
CONTINUOUS
10
5.041082086614173
20
-4.1314896850393703
11
5.0335830314960628
21
-4.1352392125984254
0
LINE
8
BLACK
6
CONTINUOUS
10
5.0335830314960628
20
-4.1352392125984254
11
5.0298335039370077
21
-4.1389887401574805
0
LINE
8
BLACK
6
CONTINUOUS
10
5.0298335039370077
20
-4.1389887401574805
11
5.0223344488188975
21
-4.1502373228346459
0
LINE
8
BLACK
6
CONTINUOUS
10
5.0223344488188975
20
-4.1502373228346459
11
5.0185849212598423
21
-4.1652354330708663
0
LINE
8
BLACK
6
CONTINUOUS
10
5.0185849212598423
20
-4.1652354330708663
11
5.0185849212598423
21
-4.1952316929133859
0
LINE
8
BLACK
6
CONTINUOUS
10
5.0185849212598423
20
-4.1952316929133859
11
5.0223344488188975
21
-4.2027307480314962
0
LINE
8
BLACK
6
CONTINUOUS
10
5.0223344488188975
20
-4.2027307480314962
11
5.0260839763779526
21
-4.20648031496063
0
LINE
8
BLACK
6
CONTINUOUS
10
5.0260839763779526
20
-4.20648031496063
11
5.0335830314960628
21
-4.2102298425196851
0
LINE
8
BLACK
6
CONTINUOUS
10
5.0335830314960628
20
-4.2102298425196851
11
5.048581181102362
21
-4.2102298425196851
0
LINE
8
BLACK
6
CONTINUOUS
10
5.048581181102362
20
-4.2102298425196851
11
5.0560802362204722
21
-4.20648031496063
0
LINE
8
BLACK
6
CONTINUOUS
10
5.0560802362204722
20
-4.20648031496063
11
5.0598297637795273
21
-4.2027307480314962
0
LINE
8
BLACK
6
CONTINUOUS
10
5.0598297637795273
20
-4.2027307480314962
11
5.0635792913385824
21
-4.1952316929133859
0
LINE
8
BLACK
6
CONTINUOUS
10
5.0635792913385824
20
-4.1952316929133859
11
5.0635792913385824
21
-4.1764840551181104
0
LINE
8
BLACK
6
CONTINUOUS
10
5.0635792913385824
20
-4.1764840551181104
11
5.0598297637795273
21
-4.1689850000000002
0
LINE
8
BLACK
6
CONTINUOUS
10
5.0598297637795273
20
-4.1689850000000002
11
5.0560802362204722
21
-4.1652354330708663
0
LINE
8
BLACK
6
CONTINUOUS
10
5.0560802362204722
20
-4.1652354330708663
11
5.048581181102362
21
-4.1614859055118112
0
LINE
8
BLACK
6
CONTINUOUS
10
5.048581181102362
20
-4.1614859055118112
11
5.0335830314960628
21
-4.1614859055118112
0
LINE
8
BLACK
6
CONTINUOUS
10
5.0335830314960628
20
-4.1614859055118112
11
5.0260839763779526
21
-4.1652354330708663
0
LINE
8
BLACK
6
CONTINUOUS
10
5.0260839763779526
20
-4.1652354330708663
11
5.0223344488188975
21
-4.1689850000000002
0
LINE
8
BLACK
6
CONTINUOUS
10
5.0223344488188975
20
-4.1689850000000002
11
5.0185849212598423
21
-4.1764840551181104
0
LINE
8
BLACK
6
CONTINUOUS
10
5.1573175984251964
20
-4.2102298425196851
11
5.1573175984251964
21
-4.1314896850393703
0
LINE
8
BLACK
6
CONTINUOUS
10
5.1910633858267712
20
-4.2102298425196851
11
5.1910633858267712
21
-4.1689850000000002
0
LINE
8
BLACK
6
CONTINUOUS
10
5.1910633858267712
20
-4.1689850000000002
11
5.1873138582677161
21
-4.1614859055118112
0
LINE
8
BLACK
6
CONTINUOUS
10
5.1873138582677161
20
-4.1614859055118112
11
5.1798148031496059
21
-4.1577363779527561
0
LINE
8
BLACK
6
CONTINUOUS
10
5.1798148031496059
20
-4.1577363779527561
11
5.1685661811023618
21
-4.1577363779527561
0
LINE
8
BLACK
6
CONTINUOUS
10
5.1685661811023618
20
-4.1577363779527561
11
5.1610671259842515
21
-4.1614859055118112
0
LINE
8
BLACK
6
CONTINUOUS
10
5.1610671259842515
20
-4.1614859055118112
11
5.1573175984251964
21
-4.1652354330708663
0
LINE
8
BLACK
6
CONTINUOUS
10
5.2398072834645664
20
-4.2102298425196851
11
5.2323082283464561
21
-4.20648031496063
0
LINE
8
BLACK
6
CONTINUOUS
10
5.2323082283464561
20
-4.20648031496063
11
5.228558700787401
21
-4.2027307480314962
0
LINE
8
BLACK
6
CONTINUOUS
10
5.228558700787401
20
-4.2027307480314962
11
5.2248091732283459
21
-4.1952316929133859
0
LINE
8
BLACK
6
CONTINUOUS
10
5.2248091732283459
20
-4.1952316929133859
11
5.2248091732283459
21
-4.1727345275590553
0
LINE
8
BLACK
6
CONTINUOUS
10
5.2248091732283459
20
-4.1727345275590553
11
5.228558700787401
21
-4.1652354330708663
0
LINE
8
BLACK
6
CONTINUOUS
10
5.228558700787401
20
-4.1652354330708663
11
5.2323082283464561
21
-4.1614859055118112
0
LINE
8
BLACK
6
CONTINUOUS
10
5.2323082283464561
20
-4.1614859055118112
11
5.2398072834645664
21
-4.1577363779527561
0
LINE
8
BLACK
6
CONTINUOUS
10
5.2398072834645664
20
-4.1577363779527561
11
5.2510559055118113
21
-4.1577363779527561
0
LINE
8
BLACK
6
CONTINUOUS
10
5.2510559055118113
20
-4.1577363779527561
11
5.2585549606299216
21
-4.1614859055118112
0
LINE
8
BLACK
6
CONTINUOUS
10
5.2585549606299216
20
-4.1614859055118112
11
5.2623044881889767
21
-4.1652354330708663
0
LINE
8
BLACK
6
CONTINUOUS
10
5.2623044881889767
20
-4.1652354330708663
11
5.2660540157480318
21
-4.1727345275590553
0
LINE
8
BLACK
6
CONTINUOUS
10
5.2660540157480318
20
-4.1727345275590553
11
5.2660540157480318
21
-4.1952316929133859
0
LINE
8
BLACK
6
CONTINUOUS
10
5.2660540157480318
20
-4.1952316929133859
11
5.2623044881889767
21
-4.2027307480314962
0
LINE
8
BLACK
6
CONTINUOUS
10
5.2623044881889767
20
-4.2027307480314962
11
5.2585549606299216
21
-4.20648031496063
0
LINE
8
BLACK
6
CONTINUOUS
10
5.2585549606299216
20
-4.20648031496063
11
5.2510559055118113
21
-4.2102298425196851
0
LINE
8
BLACK
6
CONTINUOUS
10
5.2510559055118113
20
-4.2102298425196851
11
5.2398072834645664
21
-4.2102298425196851
0
LINE
8
BLACK
6
CONTINUOUS
10
5.3110483858267719
20
-4.2102298425196851
11
5.3035493307086616
21
-4.20648031496063
0
LINE
8
BLACK
6
CONTINUOUS
10
5.3035493307086616
20
-4.20648031496063
11
5.2997998031496065
21
-4.198981220472441
0
LINE
8
BLACK
6
CONTINUOUS
10
5.2997998031496065
20
-4.198981220472441
11
5.2997998031496065
21
-4.1314896850393703
0
LINE
8
BLACK
6
CONTINUOUS
10
5.3710409055118111
20
-4.20648031496063
11
5.3635418503937009
21
-4.2102298425196851
0
LINE
8
BLACK
6
CONTINUOUS
10
5.3635418503937009
20
-4.2102298425196851
11
5.3485437007874017
21
-4.2102298425196851
0
LINE
8
BLACK
6
CONTINUOUS
10
5.3485437007874017
20
-4.2102298425196851
11
5.3410446456692915
21
-4.20648031496063
0
LINE
8
BLACK
6
CONTINUOUS
10
5.3410446456692915
20
-4.20648031496063
11
5.3372951181102364
21
-4.198981220472441
0
LINE
8
BLACK
6
CONTINUOUS
10
5.3372951181102364
20
-4.198981220472441
11
5.3372951181102364
21
-4.1689850000000002
0
LINE
8
BLACK
6
CONTINUOUS
10
5.3372951181102364
20
-4.1689850000000002
11
5.3410446456692915
21
-4.1614859055118112
0
LINE
8
BLACK
6
CONTINUOUS
10
5.3410446456692915
20
-4.1614859055118112
11
5.3485437007874017
21
-4.1577363779527561
0
LINE
8
BLACK
6
CONTINUOUS
10
5.3485437007874017
20
-4.1577363779527561
11
5.3635418503937009
21
-4.1577363779527561
0
LINE
8
BLACK
6
CONTINUOUS
10
5.3635418503937009
20
-4.1577363779527561
11
5.3710409055118111
21
-4.1614859055118112
0
LINE
8
BLACK
6
CONTINUOUS
10
5.3710409055118111
20
-4.1614859055118112
11
5.3747904330708662
21
-4.1689850000000002
0
LINE
8
BLACK
6
CONTINUOUS
10
5.3747904330708662
20
-4.1689850000000002
11
5.3747904330708662
21
-4.1764840551181104
0
LINE
8
BLACK
6
CONTINUOUS
10
5.3747904330708662
20
-4.1764840551181104
11
5.3372951181102364
21
-4.1839831102362206
0
LINE
8
BLACK
6
CONTINUOUS
10
5.4047866929133859
20
-4.20648031496063
11
5.4122857480314961
21
-4.2102298425196851
0
LINE
8
BLACK
6
CONTINUOUS
10
5.4122857480314961
20
-4.2102298425196851
11
5.4272838582677165
21
-4.2102298425196851
0
LINE
8
BLACK
6
CONTINUOUS
10
5.4272838582677165
20
-4.2102298425196851
11
5.4347829527559055
21
-4.20648031496063
0
LINE
8
BLACK
6
CONTINUOUS
10
5.4347829527559055
20
-4.20648031496063
11
5.4385324803149606
21
-4.198981220472441
0
LINE
8
BLACK
6
CONTINUOUS
10
5.4385324803149606
20
-4.198981220472441
11
5.4385324803149606
21
-4.1952316929133859
0
LINE
8
BLACK
6
CONTINUOUS
10
5.4385324803149606
20
-4.1952316929133859
11
5.4347829527559055
21
-4.1877326377952757
0
LINE
8
BLACK
6
CONTINUOUS
10
5.4347829527559055
20
-4.1877326377952757
11
5.4272838582677165
21
-4.1839831102362206
0
LINE
8
BLACK
6
CONTINUOUS
10
5.4272838582677165
20
-4.1839831102362206
11
5.4160352755905512
21
-4.1839831102362206
0
LINE
8
BLACK
6
CONTINUOUS
10
5.4160352755905512
20
-4.1839831102362206
11
5.408536220472441
21
-4.1802335826771655
0
LINE
8
BLACK
6
CONTINUOUS
10
5.408536220472441
20
-4.1802335826771655
11
5.4047866929133859
21
-4.1727345275590553
0
LINE
8
BLACK
6
CONTINUOUS
10
5.4047866929133859
20
-4.1727345275590553
11
5.4047866929133859
21
-4.1689850000000002
0
LINE
8
BLACK
6
CONTINUOUS
10
5.4047866929133859
20
-4.1689850000000002
11
5.408536220472441
21
-4.1614859055118112
0
LINE
8
BLACK
6
CONTINUOUS
10
5.408536220472441
20
-4.1614859055118112
11
5.4160352755905512
21
-4.1577363779527561
0
LINE
8
BLACK
6
CONTINUOUS
10
5.4160352755905512
20
-4.1577363779527561
11
5.4272838582677165
21
-4.1577363779527561
0
LINE
8
BLACK
6
CONTINUOUS
10
5.4272838582677165
20
-4.1577363779527561
11
5.4347829527559055
21
-4.1614859055118112
0
LINE
8
BLACK
6
CONTINUOUS
10
5.4647792125984251
20
-4.240226062992126
11
5.4685287401574803
21
-4.2364765354330709
0
LINE
8
BLACK
6
CONTINUOUS
10
5.4685287401574803
20
-4.2364765354330709
11
5.4760277952755905
21
-4.2252279527559056
0
LINE
8
BLACK
6
CONTINUOUS
10
5.4760277952755905
20
-4.2252279527559056
11
5.4797773228346456
21
-4.2177288976377953
0
LINE
8
BLACK
6
CONTINUOUS
10
5.4797773228346456
20
-4.2177288976377953
11
5.4835268503937007
21
-4.20648031496063
0
LINE
8
BLACK
6
CONTINUOUS
10
5.4835268503937007
20
-4.20648031496063
11
5.4872763779527558
21
-4.1877326377952757
0
LINE
8
BLACK
6
CONTINUOUS
10
5.4872763779527558
20
-4.1877326377952757
11
5.4872763779527558
21
-4.1727345275590553
0
LINE
8
BLACK
6
CONTINUOUS
10
5.4872763779527558
20
-4.1727345275590553
11
5.4835268503937007
21
-4.153986850393701
0
LINE
8
BLACK
6
CONTINUOUS
10
5.4835268503937007
20
-4.153986850393701
11
5.4797773228346456
21
-4.1427382677165356
0
LINE
8
BLACK
6
CONTINUOUS
10
5.4797773228346456
20
-4.1427382677165356
11
5.4760277952755905
21
-4.1352392125984254
0
LINE
8
BLACK
6
CONTINUOUS
10
5.4760277952755905
20
-4.1352392125984254
11
5.4685287401574803
21
-4.1239905905511813
0
LINE
8
BLACK
6
CONTINUOUS
10
5.4685287401574803
20
-4.1239905905511813
11
5.4647792125984251
21
-4.1202410629921262
0
LINE
8
BLACK
6
CONTINUOUS
10
5.6072614173228343
20
-4.240226062992126
11
5.6035118503937005
21
-4.2364765354330709
0
LINE
8
BLACK
6
CONTINUOUS
10
5.6035118503937005
20
-4.2364765354330709
11
5.5960127952755903
21
-4.2252279527559056
0
LINE
8
BLACK
6
CONTINUOUS
10
5.5960127952755903
20
-4.2252279527559056
11
5.5922632677165351
21
-4.2177288976377953
0
LINE
8
BLACK
6
CONTINUOUS
10
5.5922632677165351
20
-4.2177288976377953
11
5.58851374015748
21
-4.20648031496063
0
LINE
8
BLACK
6
CONTINUOUS
10
5.58851374015748
20
-4.20648031496063
11
5.5847642125984249
21
-4.1877326377952757
0
LINE
8
BLACK
6
CONTINUOUS
10
5.5847642125984249
20
-4.1877326377952757
11
5.5847642125984249
21
-4.1727345275590553
0
LINE
8
BLACK
6
CONTINUOUS
10
5.5847642125984249
20
-4.1727345275590553
11
5.58851374015748
21
-4.153986850393701
0
LINE
8
BLACK
6
CONTINUOUS
10
5.58851374015748
20
-4.153986850393701
11
5.5922632677165351
21
-4.1427382677165356
0
LINE
8
BLACK
6
CONTINUOUS
10
5.5922632677165351
20
-4.1427382677165356
11
5.5960127952755903
21
-4.1352392125984254
0
LINE
8
BLACK
6
CONTINUOUS
10
5.5960127952755903
20
-4.1352392125984254
11
5.6035118503937005
21
-4.1239905905511813
0
LINE
8
BLACK
6
CONTINUOUS
10
5.6035118503937005
20
-4.1239905905511813
11
5.6072614173228343
21
-4.1202410629921262
0
LINE
8
BLACK
6
CONTINUOUS
10
5.6372576377952752
20
-4.1577363779527561
11
5.6372576377952752
21
-4.2102298425196851
0
LINE
8
BLACK
6
CONTINUOUS
10
5.6372576377952752
20
-4.1652354330708663
11
5.6410071653543303
21
-4.1614859055118112
0
LINE
8
BLACK
6
CONTINUOUS
10
5.6410071653543303
20
-4.1614859055118112
11
5.6485062204724406
21
-4.1577363779527561
0
LINE
8
BLACK
6
CONTINUOUS
10
5.6485062204724406
20
-4.1577363779527561
11
5.6597548425196846
21
-4.1577363779527561
0
LINE
8
BLACK
6
CONTINUOUS
10
5.6597548425196846
20
-4.1577363779527561
11
5.6672538976377949
21
-4.1614859055118112
0
LINE
8
BLACK
6
CONTINUOUS
10
5.6672538976377949
20
-4.1614859055118112
11
5.67100342519685
21
-4.1689850000000002
0
LINE
8
BLACK
6
CONTINUOUS
10
5.67100342519685
20
-4.1689850000000002
11
5.67100342519685
21
-4.2102298425196851
0
LINE
8
BLACK
6
CONTINUOUS
10
5.7197473228346452
20
-4.2102298425196851
11
5.7122482677165349
21
-4.20648031496063
0
LINE
8
BLACK
6
CONTINUOUS
10
5.7122482677165349
20
-4.20648031496063
11
5.7084987401574798
21
-4.2027307480314962
0
LINE
8
BLACK
6
CONTINUOUS
10
5.7084987401574798
20
-4.2027307480314962
11
5.7047492125984247
21
-4.1952316929133859
0
LINE
8
BLACK
6
CONTINUOUS
10
5.7047492125984247
20
-4.1952316929133859
11
5.7047492125984247
21
-4.1727345275590553
0
LINE
8
BLACK
6
CONTINUOUS
10
5.7047492125984247
20
-4.1727345275590553
11
5.7084987401574798
21
-4.1652354330708663
0
LINE
8
BLACK
6
CONTINUOUS
10
5.7084987401574798
20
-4.1652354330708663
11
5.7122482677165349
21
-4.1614859055118112
0
LINE
8
BLACK
6
CONTINUOUS
10
5.7122482677165349
20
-4.1614859055118112
11
5.7197473228346452
21
-4.1577363779527561
0
LINE
8
BLACK
6
CONTINUOUS
10
5.7197473228346452
20
-4.1577363779527561
11
5.7309959448818892
21
-4.1577363779527561
0
LINE
8
BLACK
6
CONTINUOUS
10
5.7309959448818892
20
-4.1577363779527561
11
5.7384949999999995
21
-4.1614859055118112
0
LINE
8
BLACK
6
CONTINUOUS
10
5.7384949999999995
20
-4.1614859055118112
11
5.7422445275590546
21
-4.1652354330708663
0
LINE
8
BLACK
6
CONTINUOUS
10
5.7422445275590546
20
-4.1652354330708663
11
5.7459940551181097
21
-4.1727345275590553
0
LINE
8
BLACK
6
CONTINUOUS
10
5.7459940551181097
20
-4.1727345275590553
11
5.7459940551181097
21
-4.1952316929133859
0
LINE
8
BLACK
6
CONTINUOUS
10
5.7459940551181097
20
-4.1952316929133859
11
5.7422445275590546
21
-4.2027307480314962
0
LINE
8
BLACK
6
CONTINUOUS
10
5.7422445275590546
20
-4.2027307480314962
11
5.7384949999999995
21
-4.20648031496063
0
LINE
8
BLACK
6
CONTINUOUS
10
5.7384949999999995
20
-4.20648031496063
11
5.7309959448818892
21
-4.2102298425196851
0
LINE
8
BLACK
6
CONTINUOUS
10
5.7309959448818892
20
-4.2102298425196851
11
5.7197473228346452
21
-4.2102298425196851
0
LINE
8
BLACK
6
CONTINUOUS
10
5.76849125984252
20
-4.1577363779527561
11
5.7984874803149609
21
-4.1577363779527561
0
LINE
8
BLACK
6
CONTINUOUS
10
5.7797398425196853
20
-4.1314896850393703
11
5.7797398425196853
21
-4.198981220472441
0
LINE
8
BLACK
6
CONTINUOUS
10
5.7797398425196853
20
-4.198981220472441
11
5.7834893700787404
21
-4.20648031496063
0
LINE
8
BLACK
6
CONTINUOUS
10
5.7834893700787404
20
-4.20648031496063
11
5.7909884251968506
21
-4.2102298425196851
0
LINE
8
BLACK
6
CONTINUOUS
10
5.7909884251968506
20
-4.2102298425196851
11
5.7984874803149609
21
-4.2102298425196851
0
LINE
8
BLACK
6
CONTINUOUS
10
5.8847267322834647
20
-4.1577363779527561
11
5.8847267322834647
21
-4.2364765354330709
0
LINE
8
BLACK
6
CONTINUOUS
10
5.8847267322834647
20
-4.1614859055118112
11
5.8922257874015749
21
-4.1577363779527561
0
LINE
8
BLACK
6
CONTINUOUS
10
5.8922257874015749
20
-4.1577363779527561
11
5.9072239370078741
21
-4.1577363779527561
0
LINE
8
BLACK
6
CONTINUOUS
10
5.9072239370078741
20
-4.1577363779527561
11
5.9147229921259843
21
-4.1614859055118112
0
LINE
8
BLACK
6
CONTINUOUS
10
5.9147229921259843
20
-4.1614859055118112
11
5.9184725196850394
21
-4.1652354330708663
0
LINE
8
BLACK
6
CONTINUOUS
10
5.9184725196850394
20
-4.1652354330708663
11
5.9222220472440945
21
-4.1727345275590553
0
LINE
8
BLACK
6
CONTINUOUS
10
5.9222220472440945
20
-4.1727345275590553
11
5.9222220472440945
21
-4.1952316929133859
0
LINE
8
BLACK
6
CONTINUOUS
10
5.9222220472440945
20
-4.1952316929133859
11
5.9184725196850394
21
-4.2027307480314962
0
LINE
8
BLACK
6
CONTINUOUS
10
5.9184725196850394
20
-4.2027307480314962
11
5.9147229921259843
21
-4.20648031496063
0
LINE
8
BLACK
6
CONTINUOUS
10
5.9147229921259843
20
-4.20648031496063
11
5.9072239370078741
21
-4.2102298425196851
0
LINE
8
BLACK
6
CONTINUOUS
10
5.9072239370078741
20
-4.2102298425196851
11
5.8922257874015749
21
-4.2102298425196851
0
LINE
8
BLACK
6
CONTINUOUS
10
5.8922257874015749
20
-4.2102298425196851
11
5.8847267322834647
21
-4.20648031496063
0
LINE
8
BLACK
6
CONTINUOUS
10
5.9672164173228346
20
-4.2102298425196851
11
5.9597173622047244
21
-4.20648031496063
0
LINE
8
BLACK
6
CONTINUOUS
10
5.9597173622047244
20
-4.20648031496063
11
5.9559678346456693
21
-4.198981220472441
0
LINE
8
BLACK
6
CONTINUOUS
10
5.9559678346456693
20
-4.198981220472441
11
5.9559678346456693
21
-4.1314896850393703
0
LINE
8
BLACK
6
CONTINUOUS
10
6.030958464566929
20
-4.2102298425196851
11
6.030958464566929
21
-4.1689850000000002
0
LINE
8
BLACK
6
CONTINUOUS
10
6.030958464566929
20
-4.1689850000000002
11
6.0272089370078739
21
-4.1614859055118112
0
LINE
8
BLACK
6
CONTINUOUS
10
6.0272089370078739
20
-4.1614859055118112
11
6.0197098818897636
21
-4.1577363779527561
0
LINE
8
BLACK
6
CONTINUOUS
10
6.0197098818897636
20
-4.1577363779527561
11
6.0047117322834644
21
-4.1577363779527561
0
LINE
8
BLACK
6
CONTINUOUS
10
6.0047117322834644
20
-4.1577363779527561
11
5.9972126771653542
21
-4.1614859055118112
0
LINE
8
BLACK
6
CONTINUOUS
10
6.030958464566929
20
-4.20648031496063
11
6.0234594094488187
21
-4.2102298425196851
0
LINE
8
BLACK
6
CONTINUOUS
10
6.0234594094488187
20
-4.2102298425196851
11
6.0047117322834644
21
-4.2102298425196851
0
LINE
8
BLACK
6
CONTINUOUS
10
6.0047117322834644
20
-4.2102298425196851
11
5.9972126771653542
21
-4.20648031496063
0
LINE
8
BLACK
6
CONTINUOUS
10
5.9972126771653542
20
-4.20648031496063
11
5.9934631496062991
21
-4.198981220472441
0
LINE
8
BLACK
6
CONTINUOUS
10
5.9934631496062991
20
-4.198981220472441
11
5.9934631496062991
21
-4.1914821653543308
0
LINE
8
BLACK
6
CONTINUOUS
10
5.9934631496062991
20
-4.1914821653543308
11
5.9972126771653542
21
-4.1839831102362206
0
LINE
8
BLACK
6
CONTINUOUS
10
5.9972126771653542
20
-4.1839831102362206
11
6.0047117322834644
21
-4.1802335826771655
0
LINE
8
BLACK
6
CONTINUOUS
10
6.0047117322834644
20
-4.1802335826771655
11
6.0234594094488187
21
-4.1802335826771655
0
LINE
8
BLACK
6
CONTINUOUS
10
6.0234594094488187
20
-4.1802335826771655
11
6.030958464566929
21
-4.1764840551181104
0
LINE
8
BLACK
6
CONTINUOUS
10
6.0572051968503935
20
-4.1577363779527561
11
6.0872014173228344
21
-4.1577363779527561
0
LINE
8
BLACK
6
CONTINUOUS
10
6.0684537795275588
20
-4.1314896850393703
11
6.0684537795275588
21
-4.198981220472441
0
LINE
8
BLACK
6
CONTINUOUS
10
6.0684537795275588
20
-4.198981220472441
11
6.0722033070866139
21
-4.20648031496063
0
LINE
8
BLACK
6
CONTINUOUS
10
6.0722033070866139
20
-4.20648031496063
11
6.0797023622047242
21
-4.2102298425196851
0
LINE
8
BLACK
6
CONTINUOUS
10
6.0797023622047242
20
-4.2102298425196851
11
6.0872014173228344
21
-4.2102298425196851
0
LINE
8
BLACK
6
CONTINUOUS
10
6.1434444094488185
20
-4.20648031496063
11
6.1359453543307083
21
-4.2102298425196851
0
LINE
8
BLACK
6
CONTINUOUS
10
6.1359453543307083
20
-4.2102298425196851
11
6.1209472047244091
21
-4.2102298425196851
0
LINE
8
BLACK
6
CONTINUOUS
10
6.1209472047244091
20
-4.2102298425196851
11
6.1134481496062989
21
-4.20648031496063
0
LINE
8
BLACK
6
CONTINUOUS
10
6.1134481496062989
20
-4.20648031496063
11
6.1096986220472438
21
-4.198981220472441
0
LINE
8
BLACK
6
CONTINUOUS
10
6.1096986220472438
20
-4.198981220472441
11
6.1096986220472438
21
-4.1689850000000002
0
LINE
8
BLACK
6
CONTINUOUS
10
6.1096986220472438
20
-4.1689850000000002
11
6.1134481496062989
21
-4.1614859055118112
0
LINE
8
BLACK
6
CONTINUOUS
10
6.1134481496062989
20
-4.1614859055118112
11
6.1209472047244091
21
-4.1577363779527561
0
LINE
8
BLACK
6
CONTINUOUS
10
6.1209472047244091
20
-4.1577363779527561
11
6.1359453543307083
21
-4.1577363779527561
0
LINE
8
BLACK
6
CONTINUOUS
10
6.1359453543307083
20
-4.1577363779527561
11
6.1434444094488185
21
-4.1614859055118112
0
LINE
8
BLACK
6
CONTINUOUS
10
6.1434444094488185
20
-4.1614859055118112
11
6.1471939370078736
21
-4.1689850000000002
0
LINE
8
BLACK
6
CONTINUOUS
10
6.1471939370078736
20
-4.1689850000000002
11
6.1471939370078736
21
-4.1764840551181104
0
LINE
8
BLACK
6
CONTINUOUS
10
6.1471939370078736
20
-4.1764840551181104
11
6.1096986220472438
21
-4.1839831102362206
0
LINE
8
BLACK
6
CONTINUOUS
10
6.2146855118110231
20
-4.2102298425196851
11
6.2146855118110231
21
-4.1314896850393703
0
LINE
8
BLACK
6
CONTINUOUS
10
6.2146855118110231
20
-4.20648031496063
11
6.2071864566929129
21
-4.2102298425196851
0
LINE
8
BLACK
6
CONTINUOUS
10
6.2071864566929129
20
-4.2102298425196851
11
6.1921883070866137
21
-4.2102298425196851
0
LINE
8
BLACK
6
CONTINUOUS
10
6.1921883070866137
20
-4.2102298425196851
11
6.1846892519685035
21
-4.20648031496063
0
LINE
8
BLACK
6
CONTINUOUS
10
6.1846892519685035
20
-4.20648031496063
11
6.1809397244094484
21
-4.2027307480314962
0
LINE
8
BLACK
6
CONTINUOUS
10
6.1809397244094484
20
-4.2027307480314962
11
6.1771901968503933
21
-4.1952316929133859
0
LINE
8
BLACK
6
CONTINUOUS
10
6.1771901968503933
20
-4.1952316929133859
11
6.1771901968503933
21
-4.1727345275590553
0
LINE
8
BLACK
6
CONTINUOUS
10
6.1771901968503933
20
-4.1727345275590553
11
6.1809397244094484
21
-4.1652354330708663
0
LINE
8
BLACK
6
CONTINUOUS
10
6.1809397244094484
20
-4.1652354330708663
11
6.1846892519685035
21
-4.1614859055118112
0
LINE
8
BLACK
6
CONTINUOUS
10
6.1846892519685035
20
-4.1614859055118112
11
6.1921883070866137
21
-4.1577363779527561
0
LINE
8
BLACK
6
CONTINUOUS
10
6.1921883070866137
20
-4.1577363779527561
11
6.2071864566929129
21
-4.1577363779527561
0
LINE
8
BLACK
6
CONTINUOUS
10
6.2071864566929129
20
-4.1577363779527561
11
6.2146855118110231
21
-4.1614859055118112
0
LINE
8
BLACK
6
CONTINUOUS
10
6.2446817716535428
20
-4.240226062992126
11
6.2484312992125979
21
-4.2364765354330709
0
LINE
8
BLACK
6
CONTINUOUS
10
6.2484312992125979
20
-4.2364765354330709
11
6.2559303543307081
21
-4.2252279527559056
0
LINE
8
BLACK
6
CONTINUOUS
10
6.2559303543307081
20
-4.2252279527559056
11
6.2596798818897632
21
-4.2177288976377953
0
LINE
8
BLACK
6
CONTINUOUS
10
6.2596798818897632
20
-4.2177288976377953
11
6.2634294094488183
21
-4.20648031496063
0
LINE
8
BLACK
6
CONTINUOUS
10
6.2634294094488183
20
-4.20648031496063
11
6.2671789370078734
21
-4.1877326377952757
0
LINE
8
BLACK
6
CONTINUOUS
10
6.2671789370078734
20
-4.1877326377952757
11
6.2671789370078734
21
-4.1727345275590553
0
LINE
8
BLACK
6
CONTINUOUS
10
6.2671789370078734
20
-4.1727345275590553
11
6.2634294094488183
21
-4.153986850393701
0
LINE
8
BLACK
6
CONTINUOUS
10
6.2634294094488183
20
-4.153986850393701
11
6.2596798818897632
21
-4.1427382677165356
0
LINE
8
BLACK
6
CONTINUOUS
10
6.2596798818897632
20
-4.1427382677165356
11
6.2559303543307081
21
-4.1352392125984254
0
LINE
8
BLACK
6
CONTINUOUS
10
6.2559303543307081
20
-4.1352392125984254
11
6.2484312992125979
21
-4.1239905905511813
0
LINE
8
BLACK
6
CONTINUOUS
10
6.2484312992125979
20
-4.1239905905511813
11
6.2446817716535428
21
-4.1202410629921262
  0
ENDSEC
  0
EOF
