%TF.GenerationSoftware,KiCad,Pcbnew,9.0.3+dfsg-1*%
%TF.CreationDate,2025-10-23T15:20:38+02:00*%
%TF.ProjectId,SommerESP,536f6d6d-6572-4455-9350-2e6b69636164,3.0*%
%TF.SameCoordinates,Original*%
%TF.FileFunction,Legend,Top*%
%TF.FilePolarity,Positive*%
%FSLAX46Y46*%
G04 Gerber Fmt 4.6, Leading zero omitted, Abs format (unit mm)*
G04 Created by KiCad (PCBNEW 9.0.3+dfsg-1) date 2025-10-23 15:20:38*
%MOMM*%
%LPD*%
G01*
G04 APERTURE LIST*
%ADD10C,0.150000*%
%ADD11C,0.125000*%
%ADD12C,0.120000*%
G04 APERTURE END LIST*
D10*
X104850000Y-41375000D02*
X104850000Y-38075000D01*
X88525000Y-26025000D02*
X88525000Y-31475000D01*
X88300000Y-26025000D02*
X88300000Y-31475000D01*
X105075000Y-38075000D02*
X105075000Y-41375000D01*
X78286779Y-32953152D02*
X79048684Y-33238866D01*
X79048684Y-33238866D02*
X78286779Y-33524580D01*
X76411779Y-31994819D02*
X76411779Y-30994819D01*
X76411779Y-30994819D02*
X76792731Y-30994819D01*
X76792731Y-30994819D02*
X76887969Y-31042438D01*
X76887969Y-31042438D02*
X76935588Y-31090057D01*
X76935588Y-31090057D02*
X76983207Y-31185295D01*
X76983207Y-31185295D02*
X76983207Y-31328152D01*
X76983207Y-31328152D02*
X76935588Y-31423390D01*
X76935588Y-31423390D02*
X76887969Y-31471009D01*
X76887969Y-31471009D02*
X76792731Y-31518628D01*
X76792731Y-31518628D02*
X76411779Y-31518628D01*
X77602255Y-30994819D02*
X77792731Y-30994819D01*
X77792731Y-30994819D02*
X77887969Y-31042438D01*
X77887969Y-31042438D02*
X77983207Y-31137676D01*
X77983207Y-31137676D02*
X78030826Y-31328152D01*
X78030826Y-31328152D02*
X78030826Y-31661485D01*
X78030826Y-31661485D02*
X77983207Y-31851961D01*
X77983207Y-31851961D02*
X77887969Y-31947200D01*
X77887969Y-31947200D02*
X77792731Y-31994819D01*
X77792731Y-31994819D02*
X77602255Y-31994819D01*
X77602255Y-31994819D02*
X77507017Y-31947200D01*
X77507017Y-31947200D02*
X77411779Y-31851961D01*
X77411779Y-31851961D02*
X77364160Y-31661485D01*
X77364160Y-31661485D02*
X77364160Y-31328152D01*
X77364160Y-31328152D02*
X77411779Y-31137676D01*
X77411779Y-31137676D02*
X77507017Y-31042438D01*
X77507017Y-31042438D02*
X77602255Y-30994819D01*
X78364160Y-30994819D02*
X78602255Y-31994819D01*
X78602255Y-31994819D02*
X78792731Y-31280533D01*
X78792731Y-31280533D02*
X78983207Y-31994819D01*
X78983207Y-31994819D02*
X79221303Y-30994819D01*
X79602255Y-31471009D02*
X79935588Y-31471009D01*
X80078445Y-31994819D02*
X79602255Y-31994819D01*
X79602255Y-31994819D02*
X79602255Y-30994819D01*
X79602255Y-30994819D02*
X80078445Y-30994819D01*
X81078445Y-31994819D02*
X80745112Y-31518628D01*
X80507017Y-31994819D02*
X80507017Y-30994819D01*
X80507017Y-30994819D02*
X80887969Y-30994819D01*
X80887969Y-30994819D02*
X80983207Y-31042438D01*
X80983207Y-31042438D02*
X81030826Y-31090057D01*
X81030826Y-31090057D02*
X81078445Y-31185295D01*
X81078445Y-31185295D02*
X81078445Y-31328152D01*
X81078445Y-31328152D02*
X81030826Y-31423390D01*
X81030826Y-31423390D02*
X80983207Y-31471009D01*
X80983207Y-31471009D02*
X80887969Y-31518628D01*
X80887969Y-31518628D02*
X80507017Y-31518628D01*
X69133207Y-47619819D02*
X68799874Y-47143628D01*
X68561779Y-47619819D02*
X68561779Y-46619819D01*
X68561779Y-46619819D02*
X68942731Y-46619819D01*
X68942731Y-46619819D02*
X69037969Y-46667438D01*
X69037969Y-46667438D02*
X69085588Y-46715057D01*
X69085588Y-46715057D02*
X69133207Y-46810295D01*
X69133207Y-46810295D02*
X69133207Y-46953152D01*
X69133207Y-46953152D02*
X69085588Y-47048390D01*
X69085588Y-47048390D02*
X69037969Y-47096009D01*
X69037969Y-47096009D02*
X68942731Y-47143628D01*
X68942731Y-47143628D02*
X68561779Y-47143628D01*
X69514160Y-47572200D02*
X69657017Y-47619819D01*
X69657017Y-47619819D02*
X69895112Y-47619819D01*
X69895112Y-47619819D02*
X69990350Y-47572200D01*
X69990350Y-47572200D02*
X70037969Y-47524580D01*
X70037969Y-47524580D02*
X70085588Y-47429342D01*
X70085588Y-47429342D02*
X70085588Y-47334104D01*
X70085588Y-47334104D02*
X70037969Y-47238866D01*
X70037969Y-47238866D02*
X69990350Y-47191247D01*
X69990350Y-47191247D02*
X69895112Y-47143628D01*
X69895112Y-47143628D02*
X69704636Y-47096009D01*
X69704636Y-47096009D02*
X69609398Y-47048390D01*
X69609398Y-47048390D02*
X69561779Y-47000771D01*
X69561779Y-47000771D02*
X69514160Y-46905533D01*
X69514160Y-46905533D02*
X69514160Y-46810295D01*
X69514160Y-46810295D02*
X69561779Y-46715057D01*
X69561779Y-46715057D02*
X69609398Y-46667438D01*
X69609398Y-46667438D02*
X69704636Y-46619819D01*
X69704636Y-46619819D02*
X69942731Y-46619819D01*
X69942731Y-46619819D02*
X70085588Y-46667438D01*
X70371303Y-46619819D02*
X70942731Y-46619819D01*
X70657017Y-47619819D02*
X70657017Y-46619819D01*
X43517858Y-45357057D02*
X43517858Y-45999914D01*
X43517858Y-45999914D02*
X43475001Y-46128485D01*
X43475001Y-46128485D02*
X43389287Y-46214200D01*
X43389287Y-46214200D02*
X43260715Y-46257057D01*
X43260715Y-46257057D02*
X43175001Y-46257057D01*
X44375001Y-46257057D02*
X43946429Y-46257057D01*
X43946429Y-46257057D02*
X43946429Y-45357057D01*
X45189286Y-46171342D02*
X45146429Y-46214200D01*
X45146429Y-46214200D02*
X45017857Y-46257057D01*
X45017857Y-46257057D02*
X44932143Y-46257057D01*
X44932143Y-46257057D02*
X44803572Y-46214200D01*
X44803572Y-46214200D02*
X44717857Y-46128485D01*
X44717857Y-46128485D02*
X44675000Y-46042771D01*
X44675000Y-46042771D02*
X44632143Y-45871342D01*
X44632143Y-45871342D02*
X44632143Y-45742771D01*
X44632143Y-45742771D02*
X44675000Y-45571342D01*
X44675000Y-45571342D02*
X44717857Y-45485628D01*
X44717857Y-45485628D02*
X44803572Y-45399914D01*
X44803572Y-45399914D02*
X44932143Y-45357057D01*
X44932143Y-45357057D02*
X45017857Y-45357057D01*
X45017857Y-45357057D02*
X45146429Y-45399914D01*
X45146429Y-45399914D02*
X45189286Y-45442771D01*
X45832143Y-45357057D02*
X45832143Y-45999914D01*
X45832143Y-45999914D02*
X45789286Y-46128485D01*
X45789286Y-46128485D02*
X45703572Y-46214200D01*
X45703572Y-46214200D02*
X45575000Y-46257057D01*
X45575000Y-46257057D02*
X45489286Y-46257057D01*
X46689286Y-46257057D02*
X46260714Y-46257057D01*
X46260714Y-46257057D02*
X46260714Y-45357057D01*
X47503571Y-46171342D02*
X47460714Y-46214200D01*
X47460714Y-46214200D02*
X47332142Y-46257057D01*
X47332142Y-46257057D02*
X47246428Y-46257057D01*
X47246428Y-46257057D02*
X47117857Y-46214200D01*
X47117857Y-46214200D02*
X47032142Y-46128485D01*
X47032142Y-46128485D02*
X46989285Y-46042771D01*
X46989285Y-46042771D02*
X46946428Y-45871342D01*
X46946428Y-45871342D02*
X46946428Y-45742771D01*
X46946428Y-45742771D02*
X46989285Y-45571342D01*
X46989285Y-45571342D02*
X47032142Y-45485628D01*
X47032142Y-45485628D02*
X47117857Y-45399914D01*
X47117857Y-45399914D02*
X47246428Y-45357057D01*
X47246428Y-45357057D02*
X47332142Y-45357057D01*
X47332142Y-45357057D02*
X47460714Y-45399914D01*
X47460714Y-45399914D02*
X47503571Y-45442771D01*
X48146428Y-45357057D02*
X48146428Y-45999914D01*
X48146428Y-45999914D02*
X48103571Y-46128485D01*
X48103571Y-46128485D02*
X48017857Y-46214200D01*
X48017857Y-46214200D02*
X47889285Y-46257057D01*
X47889285Y-46257057D02*
X47803571Y-46257057D01*
X49003571Y-46257057D02*
X48574999Y-46257057D01*
X48574999Y-46257057D02*
X48574999Y-45357057D01*
X49817856Y-46171342D02*
X49774999Y-46214200D01*
X49774999Y-46214200D02*
X49646427Y-46257057D01*
X49646427Y-46257057D02*
X49560713Y-46257057D01*
X49560713Y-46257057D02*
X49432142Y-46214200D01*
X49432142Y-46214200D02*
X49346427Y-46128485D01*
X49346427Y-46128485D02*
X49303570Y-46042771D01*
X49303570Y-46042771D02*
X49260713Y-45871342D01*
X49260713Y-45871342D02*
X49260713Y-45742771D01*
X49260713Y-45742771D02*
X49303570Y-45571342D01*
X49303570Y-45571342D02*
X49346427Y-45485628D01*
X49346427Y-45485628D02*
X49432142Y-45399914D01*
X49432142Y-45399914D02*
X49560713Y-45357057D01*
X49560713Y-45357057D02*
X49646427Y-45357057D01*
X49646427Y-45357057D02*
X49774999Y-45399914D01*
X49774999Y-45399914D02*
X49817856Y-45442771D01*
X50460713Y-45357057D02*
X50460713Y-45999914D01*
X50460713Y-45999914D02*
X50417856Y-46128485D01*
X50417856Y-46128485D02*
X50332142Y-46214200D01*
X50332142Y-46214200D02*
X50203570Y-46257057D01*
X50203570Y-46257057D02*
X50117856Y-46257057D01*
X51317856Y-46257057D02*
X50889284Y-46257057D01*
X50889284Y-46257057D02*
X50889284Y-45357057D01*
X52132141Y-46171342D02*
X52089284Y-46214200D01*
X52089284Y-46214200D02*
X51960712Y-46257057D01*
X51960712Y-46257057D02*
X51874998Y-46257057D01*
X51874998Y-46257057D02*
X51746427Y-46214200D01*
X51746427Y-46214200D02*
X51660712Y-46128485D01*
X51660712Y-46128485D02*
X51617855Y-46042771D01*
X51617855Y-46042771D02*
X51574998Y-45871342D01*
X51574998Y-45871342D02*
X51574998Y-45742771D01*
X51574998Y-45742771D02*
X51617855Y-45571342D01*
X51617855Y-45571342D02*
X51660712Y-45485628D01*
X51660712Y-45485628D02*
X51746427Y-45399914D01*
X51746427Y-45399914D02*
X51874998Y-45357057D01*
X51874998Y-45357057D02*
X51960712Y-45357057D01*
X51960712Y-45357057D02*
X52089284Y-45399914D01*
X52089284Y-45399914D02*
X52132141Y-45442771D01*
X49111779Y-32644819D02*
X49111779Y-31644819D01*
X49683207Y-32644819D02*
X49254636Y-32073390D01*
X49683207Y-31644819D02*
X49111779Y-32216247D01*
X50111779Y-32121009D02*
X50445112Y-32121009D01*
X50587969Y-32644819D02*
X50111779Y-32644819D01*
X50111779Y-32644819D02*
X50111779Y-31644819D01*
X50111779Y-31644819D02*
X50587969Y-31644819D01*
X51207017Y-32168628D02*
X51207017Y-32644819D01*
X50873684Y-31644819D02*
X51207017Y-32168628D01*
X51207017Y-32168628D02*
X51540350Y-31644819D01*
X51873684Y-32644819D02*
X51873684Y-31644819D01*
X51873684Y-31644819D02*
X52254636Y-31644819D01*
X52254636Y-31644819D02*
X52349874Y-31692438D01*
X52349874Y-31692438D02*
X52397493Y-31740057D01*
X52397493Y-31740057D02*
X52445112Y-31835295D01*
X52445112Y-31835295D02*
X52445112Y-31978152D01*
X52445112Y-31978152D02*
X52397493Y-32073390D01*
X52397493Y-32073390D02*
X52349874Y-32121009D01*
X52349874Y-32121009D02*
X52254636Y-32168628D01*
X52254636Y-32168628D02*
X51873684Y-32168628D01*
X52826065Y-32359104D02*
X53302255Y-32359104D01*
X52730827Y-32644819D02*
X53064160Y-31644819D01*
X53064160Y-31644819D02*
X53397493Y-32644819D01*
X53730827Y-32644819D02*
X53730827Y-31644819D01*
X53730827Y-31644819D02*
X53968922Y-31644819D01*
X53968922Y-31644819D02*
X54111779Y-31692438D01*
X54111779Y-31692438D02*
X54207017Y-31787676D01*
X54207017Y-31787676D02*
X54254636Y-31882914D01*
X54254636Y-31882914D02*
X54302255Y-32073390D01*
X54302255Y-32073390D02*
X54302255Y-32216247D01*
X54302255Y-32216247D02*
X54254636Y-32406723D01*
X54254636Y-32406723D02*
X54207017Y-32501961D01*
X54207017Y-32501961D02*
X54111779Y-32597200D01*
X54111779Y-32597200D02*
X53968922Y-32644819D01*
X53968922Y-32644819D02*
X53730827Y-32644819D01*
X39386779Y-30953152D02*
X40148684Y-31238866D01*
X40148684Y-31238866D02*
X39386779Y-31524580D01*
X37564160Y-33397200D02*
X37707017Y-33444819D01*
X37707017Y-33444819D02*
X37945112Y-33444819D01*
X37945112Y-33444819D02*
X38040350Y-33397200D01*
X38040350Y-33397200D02*
X38087969Y-33349580D01*
X38087969Y-33349580D02*
X38135588Y-33254342D01*
X38135588Y-33254342D02*
X38135588Y-33159104D01*
X38135588Y-33159104D02*
X38087969Y-33063866D01*
X38087969Y-33063866D02*
X38040350Y-33016247D01*
X38040350Y-33016247D02*
X37945112Y-32968628D01*
X37945112Y-32968628D02*
X37754636Y-32921009D01*
X37754636Y-32921009D02*
X37659398Y-32873390D01*
X37659398Y-32873390D02*
X37611779Y-32825771D01*
X37611779Y-32825771D02*
X37564160Y-32730533D01*
X37564160Y-32730533D02*
X37564160Y-32635295D01*
X37564160Y-32635295D02*
X37611779Y-32540057D01*
X37611779Y-32540057D02*
X37659398Y-32492438D01*
X37659398Y-32492438D02*
X37754636Y-32444819D01*
X37754636Y-32444819D02*
X37992731Y-32444819D01*
X37992731Y-32444819D02*
X38135588Y-32492438D01*
X38421303Y-32444819D02*
X38992731Y-32444819D01*
X38707017Y-33444819D02*
X38707017Y-32444819D01*
X39278446Y-33159104D02*
X39754636Y-33159104D01*
X39183208Y-33444819D02*
X39516541Y-32444819D01*
X39516541Y-32444819D02*
X39849874Y-33444819D01*
X40040351Y-32444819D02*
X40611779Y-32444819D01*
X40326065Y-33444819D02*
X40326065Y-32444819D01*
X40945113Y-32444819D02*
X40945113Y-33254342D01*
X40945113Y-33254342D02*
X40992732Y-33349580D01*
X40992732Y-33349580D02*
X41040351Y-33397200D01*
X41040351Y-33397200D02*
X41135589Y-33444819D01*
X41135589Y-33444819D02*
X41326065Y-33444819D01*
X41326065Y-33444819D02*
X41421303Y-33397200D01*
X41421303Y-33397200D02*
X41468922Y-33349580D01*
X41468922Y-33349580D02*
X41516541Y-33254342D01*
X41516541Y-33254342D02*
X41516541Y-32444819D01*
X41945113Y-33397200D02*
X42087970Y-33444819D01*
X42087970Y-33444819D02*
X42326065Y-33444819D01*
X42326065Y-33444819D02*
X42421303Y-33397200D01*
X42421303Y-33397200D02*
X42468922Y-33349580D01*
X42468922Y-33349580D02*
X42516541Y-33254342D01*
X42516541Y-33254342D02*
X42516541Y-33159104D01*
X42516541Y-33159104D02*
X42468922Y-33063866D01*
X42468922Y-33063866D02*
X42421303Y-33016247D01*
X42421303Y-33016247D02*
X42326065Y-32968628D01*
X42326065Y-32968628D02*
X42135589Y-32921009D01*
X42135589Y-32921009D02*
X42040351Y-32873390D01*
X42040351Y-32873390D02*
X41992732Y-32825771D01*
X41992732Y-32825771D02*
X41945113Y-32730533D01*
X41945113Y-32730533D02*
X41945113Y-32635295D01*
X41945113Y-32635295D02*
X41992732Y-32540057D01*
X41992732Y-32540057D02*
X42040351Y-32492438D01*
X42040351Y-32492438D02*
X42135589Y-32444819D01*
X42135589Y-32444819D02*
X42373684Y-32444819D01*
X42373684Y-32444819D02*
X42516541Y-32492438D01*
X58995112Y-47071009D02*
X59137969Y-47118628D01*
X59137969Y-47118628D02*
X59185588Y-47166247D01*
X59185588Y-47166247D02*
X59233207Y-47261485D01*
X59233207Y-47261485D02*
X59233207Y-47404342D01*
X59233207Y-47404342D02*
X59185588Y-47499580D01*
X59185588Y-47499580D02*
X59137969Y-47547200D01*
X59137969Y-47547200D02*
X59042731Y-47594819D01*
X59042731Y-47594819D02*
X58661779Y-47594819D01*
X58661779Y-47594819D02*
X58661779Y-46594819D01*
X58661779Y-46594819D02*
X58995112Y-46594819D01*
X58995112Y-46594819D02*
X59090350Y-46642438D01*
X59090350Y-46642438D02*
X59137969Y-46690057D01*
X59137969Y-46690057D02*
X59185588Y-46785295D01*
X59185588Y-46785295D02*
X59185588Y-46880533D01*
X59185588Y-46880533D02*
X59137969Y-46975771D01*
X59137969Y-46975771D02*
X59090350Y-47023390D01*
X59090350Y-47023390D02*
X58995112Y-47071009D01*
X58995112Y-47071009D02*
X58661779Y-47071009D01*
X59852255Y-46594819D02*
X60042731Y-46594819D01*
X60042731Y-46594819D02*
X60137969Y-46642438D01*
X60137969Y-46642438D02*
X60233207Y-46737676D01*
X60233207Y-46737676D02*
X60280826Y-46928152D01*
X60280826Y-46928152D02*
X60280826Y-47261485D01*
X60280826Y-47261485D02*
X60233207Y-47451961D01*
X60233207Y-47451961D02*
X60137969Y-47547200D01*
X60137969Y-47547200D02*
X60042731Y-47594819D01*
X60042731Y-47594819D02*
X59852255Y-47594819D01*
X59852255Y-47594819D02*
X59757017Y-47547200D01*
X59757017Y-47547200D02*
X59661779Y-47451961D01*
X59661779Y-47451961D02*
X59614160Y-47261485D01*
X59614160Y-47261485D02*
X59614160Y-46928152D01*
X59614160Y-46928152D02*
X59661779Y-46737676D01*
X59661779Y-46737676D02*
X59757017Y-46642438D01*
X59757017Y-46642438D02*
X59852255Y-46594819D01*
X60899874Y-46594819D02*
X61090350Y-46594819D01*
X61090350Y-46594819D02*
X61185588Y-46642438D01*
X61185588Y-46642438D02*
X61280826Y-46737676D01*
X61280826Y-46737676D02*
X61328445Y-46928152D01*
X61328445Y-46928152D02*
X61328445Y-47261485D01*
X61328445Y-47261485D02*
X61280826Y-47451961D01*
X61280826Y-47451961D02*
X61185588Y-47547200D01*
X61185588Y-47547200D02*
X61090350Y-47594819D01*
X61090350Y-47594819D02*
X60899874Y-47594819D01*
X60899874Y-47594819D02*
X60804636Y-47547200D01*
X60804636Y-47547200D02*
X60709398Y-47451961D01*
X60709398Y-47451961D02*
X60661779Y-47261485D01*
X60661779Y-47261485D02*
X60661779Y-46928152D01*
X60661779Y-46928152D02*
X60709398Y-46737676D01*
X60709398Y-46737676D02*
X60804636Y-46642438D01*
X60804636Y-46642438D02*
X60899874Y-46594819D01*
X61614160Y-46594819D02*
X62185588Y-46594819D01*
X61899874Y-47594819D02*
X61899874Y-46594819D01*
X73430952Y-38762256D02*
X73573809Y-38809875D01*
X73573809Y-38809875D02*
X73811904Y-38809875D01*
X73811904Y-38809875D02*
X73907142Y-38762256D01*
X73907142Y-38762256D02*
X73954761Y-38714636D01*
X73954761Y-38714636D02*
X74002380Y-38619398D01*
X74002380Y-38619398D02*
X74002380Y-38524160D01*
X74002380Y-38524160D02*
X73954761Y-38428922D01*
X73954761Y-38428922D02*
X73907142Y-38381303D01*
X73907142Y-38381303D02*
X73811904Y-38333684D01*
X73811904Y-38333684D02*
X73621428Y-38286065D01*
X73621428Y-38286065D02*
X73526190Y-38238446D01*
X73526190Y-38238446D02*
X73478571Y-38190827D01*
X73478571Y-38190827D02*
X73430952Y-38095589D01*
X73430952Y-38095589D02*
X73430952Y-38000351D01*
X73430952Y-38000351D02*
X73478571Y-37905113D01*
X73478571Y-37905113D02*
X73526190Y-37857494D01*
X73526190Y-37857494D02*
X73621428Y-37809875D01*
X73621428Y-37809875D02*
X73859523Y-37809875D01*
X73859523Y-37809875D02*
X74002380Y-37857494D01*
X74573809Y-38809875D02*
X74478571Y-38762256D01*
X74478571Y-38762256D02*
X74430952Y-38714636D01*
X74430952Y-38714636D02*
X74383333Y-38619398D01*
X74383333Y-38619398D02*
X74383333Y-38333684D01*
X74383333Y-38333684D02*
X74430952Y-38238446D01*
X74430952Y-38238446D02*
X74478571Y-38190827D01*
X74478571Y-38190827D02*
X74573809Y-38143208D01*
X74573809Y-38143208D02*
X74716666Y-38143208D01*
X74716666Y-38143208D02*
X74811904Y-38190827D01*
X74811904Y-38190827D02*
X74859523Y-38238446D01*
X74859523Y-38238446D02*
X74907142Y-38333684D01*
X74907142Y-38333684D02*
X74907142Y-38619398D01*
X74907142Y-38619398D02*
X74859523Y-38714636D01*
X74859523Y-38714636D02*
X74811904Y-38762256D01*
X74811904Y-38762256D02*
X74716666Y-38809875D01*
X74716666Y-38809875D02*
X74573809Y-38809875D01*
X75335714Y-38809875D02*
X75335714Y-38143208D01*
X75335714Y-38238446D02*
X75383333Y-38190827D01*
X75383333Y-38190827D02*
X75478571Y-38143208D01*
X75478571Y-38143208D02*
X75621428Y-38143208D01*
X75621428Y-38143208D02*
X75716666Y-38190827D01*
X75716666Y-38190827D02*
X75764285Y-38286065D01*
X75764285Y-38286065D02*
X75764285Y-38809875D01*
X75764285Y-38286065D02*
X75811904Y-38190827D01*
X75811904Y-38190827D02*
X75907142Y-38143208D01*
X75907142Y-38143208D02*
X76049999Y-38143208D01*
X76049999Y-38143208D02*
X76145238Y-38190827D01*
X76145238Y-38190827D02*
X76192857Y-38286065D01*
X76192857Y-38286065D02*
X76192857Y-38809875D01*
X76669047Y-38809875D02*
X76669047Y-38143208D01*
X76669047Y-38238446D02*
X76716666Y-38190827D01*
X76716666Y-38190827D02*
X76811904Y-38143208D01*
X76811904Y-38143208D02*
X76954761Y-38143208D01*
X76954761Y-38143208D02*
X77049999Y-38190827D01*
X77049999Y-38190827D02*
X77097618Y-38286065D01*
X77097618Y-38286065D02*
X77097618Y-38809875D01*
X77097618Y-38286065D02*
X77145237Y-38190827D01*
X77145237Y-38190827D02*
X77240475Y-38143208D01*
X77240475Y-38143208D02*
X77383332Y-38143208D01*
X77383332Y-38143208D02*
X77478571Y-38190827D01*
X77478571Y-38190827D02*
X77526190Y-38286065D01*
X77526190Y-38286065D02*
X77526190Y-38809875D01*
X78383332Y-38762256D02*
X78288094Y-38809875D01*
X78288094Y-38809875D02*
X78097618Y-38809875D01*
X78097618Y-38809875D02*
X78002380Y-38762256D01*
X78002380Y-38762256D02*
X77954761Y-38667017D01*
X77954761Y-38667017D02*
X77954761Y-38286065D01*
X77954761Y-38286065D02*
X78002380Y-38190827D01*
X78002380Y-38190827D02*
X78097618Y-38143208D01*
X78097618Y-38143208D02*
X78288094Y-38143208D01*
X78288094Y-38143208D02*
X78383332Y-38190827D01*
X78383332Y-38190827D02*
X78430951Y-38286065D01*
X78430951Y-38286065D02*
X78430951Y-38381303D01*
X78430951Y-38381303D02*
X77954761Y-38476541D01*
X78859523Y-38809875D02*
X78859523Y-38143208D01*
X78859523Y-38333684D02*
X78907142Y-38238446D01*
X78907142Y-38238446D02*
X78954761Y-38190827D01*
X78954761Y-38190827D02*
X79049999Y-38143208D01*
X79049999Y-38143208D02*
X79145237Y-38143208D01*
X79478571Y-38286065D02*
X79811904Y-38286065D01*
X79954761Y-38809875D02*
X79478571Y-38809875D01*
X79478571Y-38809875D02*
X79478571Y-37809875D01*
X79478571Y-37809875D02*
X79954761Y-37809875D01*
X80335714Y-38762256D02*
X80478571Y-38809875D01*
X80478571Y-38809875D02*
X80716666Y-38809875D01*
X80716666Y-38809875D02*
X80811904Y-38762256D01*
X80811904Y-38762256D02*
X80859523Y-38714636D01*
X80859523Y-38714636D02*
X80907142Y-38619398D01*
X80907142Y-38619398D02*
X80907142Y-38524160D01*
X80907142Y-38524160D02*
X80859523Y-38428922D01*
X80859523Y-38428922D02*
X80811904Y-38381303D01*
X80811904Y-38381303D02*
X80716666Y-38333684D01*
X80716666Y-38333684D02*
X80526190Y-38286065D01*
X80526190Y-38286065D02*
X80430952Y-38238446D01*
X80430952Y-38238446D02*
X80383333Y-38190827D01*
X80383333Y-38190827D02*
X80335714Y-38095589D01*
X80335714Y-38095589D02*
X80335714Y-38000351D01*
X80335714Y-38000351D02*
X80383333Y-37905113D01*
X80383333Y-37905113D02*
X80430952Y-37857494D01*
X80430952Y-37857494D02*
X80526190Y-37809875D01*
X80526190Y-37809875D02*
X80764285Y-37809875D01*
X80764285Y-37809875D02*
X80907142Y-37857494D01*
X81335714Y-38809875D02*
X81335714Y-37809875D01*
X81335714Y-37809875D02*
X81716666Y-37809875D01*
X81716666Y-37809875D02*
X81811904Y-37857494D01*
X81811904Y-37857494D02*
X81859523Y-37905113D01*
X81859523Y-37905113D02*
X81907142Y-38000351D01*
X81907142Y-38000351D02*
X81907142Y-38143208D01*
X81907142Y-38143208D02*
X81859523Y-38238446D01*
X81859523Y-38238446D02*
X81811904Y-38286065D01*
X81811904Y-38286065D02*
X81716666Y-38333684D01*
X81716666Y-38333684D02*
X81335714Y-38333684D01*
X77240476Y-39419819D02*
X77573809Y-40419819D01*
X77573809Y-40419819D02*
X77907142Y-39419819D01*
X78145238Y-39419819D02*
X78764285Y-39419819D01*
X78764285Y-39419819D02*
X78430952Y-39800771D01*
X78430952Y-39800771D02*
X78573809Y-39800771D01*
X78573809Y-39800771D02*
X78669047Y-39848390D01*
X78669047Y-39848390D02*
X78716666Y-39896009D01*
X78716666Y-39896009D02*
X78764285Y-39991247D01*
X78764285Y-39991247D02*
X78764285Y-40229342D01*
X78764285Y-40229342D02*
X78716666Y-40324580D01*
X78716666Y-40324580D02*
X78669047Y-40372200D01*
X78669047Y-40372200D02*
X78573809Y-40419819D01*
X78573809Y-40419819D02*
X78288095Y-40419819D01*
X78288095Y-40419819D02*
X78192857Y-40372200D01*
X78192857Y-40372200D02*
X78145238Y-40324580D01*
D11*
X39741666Y-28174809D02*
X39575000Y-27936714D01*
X39455952Y-28174809D02*
X39455952Y-27674809D01*
X39455952Y-27674809D02*
X39646428Y-27674809D01*
X39646428Y-27674809D02*
X39694047Y-27698619D01*
X39694047Y-27698619D02*
X39717857Y-27722428D01*
X39717857Y-27722428D02*
X39741666Y-27770047D01*
X39741666Y-27770047D02*
X39741666Y-27841476D01*
X39741666Y-27841476D02*
X39717857Y-27889095D01*
X39717857Y-27889095D02*
X39694047Y-27912904D01*
X39694047Y-27912904D02*
X39646428Y-27936714D01*
X39646428Y-27936714D02*
X39455952Y-27936714D01*
X40027381Y-27889095D02*
X39979762Y-27865285D01*
X39979762Y-27865285D02*
X39955952Y-27841476D01*
X39955952Y-27841476D02*
X39932143Y-27793857D01*
X39932143Y-27793857D02*
X39932143Y-27770047D01*
X39932143Y-27770047D02*
X39955952Y-27722428D01*
X39955952Y-27722428D02*
X39979762Y-27698619D01*
X39979762Y-27698619D02*
X40027381Y-27674809D01*
X40027381Y-27674809D02*
X40122619Y-27674809D01*
X40122619Y-27674809D02*
X40170238Y-27698619D01*
X40170238Y-27698619D02*
X40194047Y-27722428D01*
X40194047Y-27722428D02*
X40217857Y-27770047D01*
X40217857Y-27770047D02*
X40217857Y-27793857D01*
X40217857Y-27793857D02*
X40194047Y-27841476D01*
X40194047Y-27841476D02*
X40170238Y-27865285D01*
X40170238Y-27865285D02*
X40122619Y-27889095D01*
X40122619Y-27889095D02*
X40027381Y-27889095D01*
X40027381Y-27889095D02*
X39979762Y-27912904D01*
X39979762Y-27912904D02*
X39955952Y-27936714D01*
X39955952Y-27936714D02*
X39932143Y-27984333D01*
X39932143Y-27984333D02*
X39932143Y-28079571D01*
X39932143Y-28079571D02*
X39955952Y-28127190D01*
X39955952Y-28127190D02*
X39979762Y-28151000D01*
X39979762Y-28151000D02*
X40027381Y-28174809D01*
X40027381Y-28174809D02*
X40122619Y-28174809D01*
X40122619Y-28174809D02*
X40170238Y-28151000D01*
X40170238Y-28151000D02*
X40194047Y-28127190D01*
X40194047Y-28127190D02*
X40217857Y-28079571D01*
X40217857Y-28079571D02*
X40217857Y-27984333D01*
X40217857Y-27984333D02*
X40194047Y-27936714D01*
X40194047Y-27936714D02*
X40170238Y-27912904D01*
X40170238Y-27912904D02*
X40122619Y-27889095D01*
X67324809Y-45470833D02*
X67086714Y-45637499D01*
X67324809Y-45756547D02*
X66824809Y-45756547D01*
X66824809Y-45756547D02*
X66824809Y-45566071D01*
X66824809Y-45566071D02*
X66848619Y-45518452D01*
X66848619Y-45518452D02*
X66872428Y-45494642D01*
X66872428Y-45494642D02*
X66920047Y-45470833D01*
X66920047Y-45470833D02*
X66991476Y-45470833D01*
X66991476Y-45470833D02*
X67039095Y-45494642D01*
X67039095Y-45494642D02*
X67062904Y-45518452D01*
X67062904Y-45518452D02*
X67086714Y-45566071D01*
X67086714Y-45566071D02*
X67086714Y-45756547D01*
X66872428Y-45280356D02*
X66848619Y-45256547D01*
X66848619Y-45256547D02*
X66824809Y-45208928D01*
X66824809Y-45208928D02*
X66824809Y-45089880D01*
X66824809Y-45089880D02*
X66848619Y-45042261D01*
X66848619Y-45042261D02*
X66872428Y-45018452D01*
X66872428Y-45018452D02*
X66920047Y-44994642D01*
X66920047Y-44994642D02*
X66967666Y-44994642D01*
X66967666Y-44994642D02*
X67039095Y-45018452D01*
X67039095Y-45018452D02*
X67324809Y-45304166D01*
X67324809Y-45304166D02*
X67324809Y-44994642D01*
X62924809Y-41958333D02*
X62686714Y-42124999D01*
X62924809Y-42244047D02*
X62424809Y-42244047D01*
X62424809Y-42244047D02*
X62424809Y-42053571D01*
X62424809Y-42053571D02*
X62448619Y-42005952D01*
X62448619Y-42005952D02*
X62472428Y-41982142D01*
X62472428Y-41982142D02*
X62520047Y-41958333D01*
X62520047Y-41958333D02*
X62591476Y-41958333D01*
X62591476Y-41958333D02*
X62639095Y-41982142D01*
X62639095Y-41982142D02*
X62662904Y-42005952D01*
X62662904Y-42005952D02*
X62686714Y-42053571D01*
X62686714Y-42053571D02*
X62686714Y-42244047D01*
X62424809Y-41791666D02*
X62424809Y-41482142D01*
X62424809Y-41482142D02*
X62615285Y-41648809D01*
X62615285Y-41648809D02*
X62615285Y-41577380D01*
X62615285Y-41577380D02*
X62639095Y-41529761D01*
X62639095Y-41529761D02*
X62662904Y-41505952D01*
X62662904Y-41505952D02*
X62710523Y-41482142D01*
X62710523Y-41482142D02*
X62829571Y-41482142D01*
X62829571Y-41482142D02*
X62877190Y-41505952D01*
X62877190Y-41505952D02*
X62901000Y-41529761D01*
X62901000Y-41529761D02*
X62924809Y-41577380D01*
X62924809Y-41577380D02*
X62924809Y-41720237D01*
X62924809Y-41720237D02*
X62901000Y-41767856D01*
X62901000Y-41767856D02*
X62877190Y-41791666D01*
X95741666Y-40302190D02*
X95717857Y-40326000D01*
X95717857Y-40326000D02*
X95646428Y-40349809D01*
X95646428Y-40349809D02*
X95598809Y-40349809D01*
X95598809Y-40349809D02*
X95527381Y-40326000D01*
X95527381Y-40326000D02*
X95479762Y-40278380D01*
X95479762Y-40278380D02*
X95455952Y-40230761D01*
X95455952Y-40230761D02*
X95432143Y-40135523D01*
X95432143Y-40135523D02*
X95432143Y-40064095D01*
X95432143Y-40064095D02*
X95455952Y-39968857D01*
X95455952Y-39968857D02*
X95479762Y-39921238D01*
X95479762Y-39921238D02*
X95527381Y-39873619D01*
X95527381Y-39873619D02*
X95598809Y-39849809D01*
X95598809Y-39849809D02*
X95646428Y-39849809D01*
X95646428Y-39849809D02*
X95717857Y-39873619D01*
X95717857Y-39873619D02*
X95741666Y-39897428D01*
X95908333Y-39849809D02*
X96217857Y-39849809D01*
X96217857Y-39849809D02*
X96051190Y-40040285D01*
X96051190Y-40040285D02*
X96122619Y-40040285D01*
X96122619Y-40040285D02*
X96170238Y-40064095D01*
X96170238Y-40064095D02*
X96194047Y-40087904D01*
X96194047Y-40087904D02*
X96217857Y-40135523D01*
X96217857Y-40135523D02*
X96217857Y-40254571D01*
X96217857Y-40254571D02*
X96194047Y-40302190D01*
X96194047Y-40302190D02*
X96170238Y-40326000D01*
X96170238Y-40326000D02*
X96122619Y-40349809D01*
X96122619Y-40349809D02*
X95979762Y-40349809D01*
X95979762Y-40349809D02*
X95932143Y-40326000D01*
X95932143Y-40326000D02*
X95908333Y-40302190D01*
X80929166Y-35499809D02*
X80762500Y-35261714D01*
X80643452Y-35499809D02*
X80643452Y-34999809D01*
X80643452Y-34999809D02*
X80833928Y-34999809D01*
X80833928Y-34999809D02*
X80881547Y-35023619D01*
X80881547Y-35023619D02*
X80905357Y-35047428D01*
X80905357Y-35047428D02*
X80929166Y-35095047D01*
X80929166Y-35095047D02*
X80929166Y-35166476D01*
X80929166Y-35166476D02*
X80905357Y-35214095D01*
X80905357Y-35214095D02*
X80881547Y-35237904D01*
X80881547Y-35237904D02*
X80833928Y-35261714D01*
X80833928Y-35261714D02*
X80643452Y-35261714D01*
X81095833Y-34999809D02*
X81429166Y-34999809D01*
X81429166Y-34999809D02*
X81214881Y-35499809D01*
X35458333Y-46974809D02*
X35458333Y-47331952D01*
X35458333Y-47331952D02*
X35434524Y-47403380D01*
X35434524Y-47403380D02*
X35386905Y-47451000D01*
X35386905Y-47451000D02*
X35315476Y-47474809D01*
X35315476Y-47474809D02*
X35267857Y-47474809D01*
X35958333Y-47474809D02*
X35672619Y-47474809D01*
X35815476Y-47474809D02*
X35815476Y-46974809D01*
X35815476Y-46974809D02*
X35767857Y-47046238D01*
X35767857Y-47046238D02*
X35720238Y-47093857D01*
X35720238Y-47093857D02*
X35672619Y-47117666D01*
X101599809Y-40019047D02*
X101099809Y-40019047D01*
X101099809Y-40019047D02*
X101099809Y-39899999D01*
X101099809Y-39899999D02*
X101123619Y-39828571D01*
X101123619Y-39828571D02*
X101171238Y-39780952D01*
X101171238Y-39780952D02*
X101218857Y-39757142D01*
X101218857Y-39757142D02*
X101314095Y-39733333D01*
X101314095Y-39733333D02*
X101385523Y-39733333D01*
X101385523Y-39733333D02*
X101480761Y-39757142D01*
X101480761Y-39757142D02*
X101528380Y-39780952D01*
X101528380Y-39780952D02*
X101576000Y-39828571D01*
X101576000Y-39828571D02*
X101599809Y-39899999D01*
X101599809Y-39899999D02*
X101599809Y-40019047D01*
X101099809Y-39280952D02*
X101099809Y-39519047D01*
X101099809Y-39519047D02*
X101337904Y-39542856D01*
X101337904Y-39542856D02*
X101314095Y-39519047D01*
X101314095Y-39519047D02*
X101290285Y-39471428D01*
X101290285Y-39471428D02*
X101290285Y-39352380D01*
X101290285Y-39352380D02*
X101314095Y-39304761D01*
X101314095Y-39304761D02*
X101337904Y-39280952D01*
X101337904Y-39280952D02*
X101385523Y-39257142D01*
X101385523Y-39257142D02*
X101504571Y-39257142D01*
X101504571Y-39257142D02*
X101552190Y-39280952D01*
X101552190Y-39280952D02*
X101576000Y-39304761D01*
X101576000Y-39304761D02*
X101599809Y-39352380D01*
X101599809Y-39352380D02*
X101599809Y-39471428D01*
X101599809Y-39471428D02*
X101576000Y-39519047D01*
X101576000Y-39519047D02*
X101552190Y-39542856D01*
X69319048Y-41876000D02*
X69390476Y-41899809D01*
X69390476Y-41899809D02*
X69509524Y-41899809D01*
X69509524Y-41899809D02*
X69557143Y-41876000D01*
X69557143Y-41876000D02*
X69580952Y-41852190D01*
X69580952Y-41852190D02*
X69604762Y-41804571D01*
X69604762Y-41804571D02*
X69604762Y-41756952D01*
X69604762Y-41756952D02*
X69580952Y-41709333D01*
X69580952Y-41709333D02*
X69557143Y-41685523D01*
X69557143Y-41685523D02*
X69509524Y-41661714D01*
X69509524Y-41661714D02*
X69414286Y-41637904D01*
X69414286Y-41637904D02*
X69366667Y-41614095D01*
X69366667Y-41614095D02*
X69342857Y-41590285D01*
X69342857Y-41590285D02*
X69319048Y-41542666D01*
X69319048Y-41542666D02*
X69319048Y-41495047D01*
X69319048Y-41495047D02*
X69342857Y-41447428D01*
X69342857Y-41447428D02*
X69366667Y-41423619D01*
X69366667Y-41423619D02*
X69414286Y-41399809D01*
X69414286Y-41399809D02*
X69533333Y-41399809D01*
X69533333Y-41399809D02*
X69604762Y-41423619D01*
X69795238Y-41447428D02*
X69819047Y-41423619D01*
X69819047Y-41423619D02*
X69866666Y-41399809D01*
X69866666Y-41399809D02*
X69985714Y-41399809D01*
X69985714Y-41399809D02*
X70033333Y-41423619D01*
X70033333Y-41423619D02*
X70057142Y-41447428D01*
X70057142Y-41447428D02*
X70080952Y-41495047D01*
X70080952Y-41495047D02*
X70080952Y-41542666D01*
X70080952Y-41542666D02*
X70057142Y-41614095D01*
X70057142Y-41614095D02*
X69771428Y-41899809D01*
X69771428Y-41899809D02*
X70080952Y-41899809D01*
X39430952Y-30124809D02*
X39430952Y-29624809D01*
X39430952Y-29624809D02*
X39550000Y-29624809D01*
X39550000Y-29624809D02*
X39621428Y-29648619D01*
X39621428Y-29648619D02*
X39669047Y-29696238D01*
X39669047Y-29696238D02*
X39692857Y-29743857D01*
X39692857Y-29743857D02*
X39716666Y-29839095D01*
X39716666Y-29839095D02*
X39716666Y-29910523D01*
X39716666Y-29910523D02*
X39692857Y-30005761D01*
X39692857Y-30005761D02*
X39669047Y-30053380D01*
X39669047Y-30053380D02*
X39621428Y-30101000D01*
X39621428Y-30101000D02*
X39550000Y-30124809D01*
X39550000Y-30124809D02*
X39430952Y-30124809D01*
X39907143Y-29672428D02*
X39930952Y-29648619D01*
X39930952Y-29648619D02*
X39978571Y-29624809D01*
X39978571Y-29624809D02*
X40097619Y-29624809D01*
X40097619Y-29624809D02*
X40145238Y-29648619D01*
X40145238Y-29648619D02*
X40169047Y-29672428D01*
X40169047Y-29672428D02*
X40192857Y-29720047D01*
X40192857Y-29720047D02*
X40192857Y-29767666D01*
X40192857Y-29767666D02*
X40169047Y-29839095D01*
X40169047Y-29839095D02*
X39883333Y-30124809D01*
X39883333Y-30124809D02*
X40192857Y-30124809D01*
X59994048Y-41876000D02*
X60065476Y-41899809D01*
X60065476Y-41899809D02*
X60184524Y-41899809D01*
X60184524Y-41899809D02*
X60232143Y-41876000D01*
X60232143Y-41876000D02*
X60255952Y-41852190D01*
X60255952Y-41852190D02*
X60279762Y-41804571D01*
X60279762Y-41804571D02*
X60279762Y-41756952D01*
X60279762Y-41756952D02*
X60255952Y-41709333D01*
X60255952Y-41709333D02*
X60232143Y-41685523D01*
X60232143Y-41685523D02*
X60184524Y-41661714D01*
X60184524Y-41661714D02*
X60089286Y-41637904D01*
X60089286Y-41637904D02*
X60041667Y-41614095D01*
X60041667Y-41614095D02*
X60017857Y-41590285D01*
X60017857Y-41590285D02*
X59994048Y-41542666D01*
X59994048Y-41542666D02*
X59994048Y-41495047D01*
X59994048Y-41495047D02*
X60017857Y-41447428D01*
X60017857Y-41447428D02*
X60041667Y-41423619D01*
X60041667Y-41423619D02*
X60089286Y-41399809D01*
X60089286Y-41399809D02*
X60208333Y-41399809D01*
X60208333Y-41399809D02*
X60279762Y-41423619D01*
X60755952Y-41899809D02*
X60470238Y-41899809D01*
X60613095Y-41899809D02*
X60613095Y-41399809D01*
X60613095Y-41399809D02*
X60565476Y-41471238D01*
X60565476Y-41471238D02*
X60517857Y-41518857D01*
X60517857Y-41518857D02*
X60470238Y-41542666D01*
X69503571Y-35899809D02*
X69336905Y-35661714D01*
X69217857Y-35899809D02*
X69217857Y-35399809D01*
X69217857Y-35399809D02*
X69408333Y-35399809D01*
X69408333Y-35399809D02*
X69455952Y-35423619D01*
X69455952Y-35423619D02*
X69479762Y-35447428D01*
X69479762Y-35447428D02*
X69503571Y-35495047D01*
X69503571Y-35495047D02*
X69503571Y-35566476D01*
X69503571Y-35566476D02*
X69479762Y-35614095D01*
X69479762Y-35614095D02*
X69455952Y-35637904D01*
X69455952Y-35637904D02*
X69408333Y-35661714D01*
X69408333Y-35661714D02*
X69217857Y-35661714D01*
X69979762Y-35899809D02*
X69694048Y-35899809D01*
X69836905Y-35899809D02*
X69836905Y-35399809D01*
X69836905Y-35399809D02*
X69789286Y-35471238D01*
X69789286Y-35471238D02*
X69741667Y-35518857D01*
X69741667Y-35518857D02*
X69694048Y-35542666D01*
X70455952Y-35899809D02*
X70170238Y-35899809D01*
X70313095Y-35899809D02*
X70313095Y-35399809D01*
X70313095Y-35399809D02*
X70265476Y-35471238D01*
X70265476Y-35471238D02*
X70217857Y-35518857D01*
X70217857Y-35518857D02*
X70170238Y-35542666D01*
X56069047Y-32974809D02*
X56069047Y-33379571D01*
X56069047Y-33379571D02*
X56092857Y-33427190D01*
X56092857Y-33427190D02*
X56116666Y-33451000D01*
X56116666Y-33451000D02*
X56164285Y-33474809D01*
X56164285Y-33474809D02*
X56259523Y-33474809D01*
X56259523Y-33474809D02*
X56307142Y-33451000D01*
X56307142Y-33451000D02*
X56330952Y-33427190D01*
X56330952Y-33427190D02*
X56354761Y-33379571D01*
X56354761Y-33379571D02*
X56354761Y-32974809D01*
X56830952Y-32974809D02*
X56592857Y-32974809D01*
X56592857Y-32974809D02*
X56569048Y-33212904D01*
X56569048Y-33212904D02*
X56592857Y-33189095D01*
X56592857Y-33189095D02*
X56640476Y-33165285D01*
X56640476Y-33165285D02*
X56759524Y-33165285D01*
X56759524Y-33165285D02*
X56807143Y-33189095D01*
X56807143Y-33189095D02*
X56830952Y-33212904D01*
X56830952Y-33212904D02*
X56854762Y-33260523D01*
X56854762Y-33260523D02*
X56854762Y-33379571D01*
X56854762Y-33379571D02*
X56830952Y-33427190D01*
X56830952Y-33427190D02*
X56807143Y-33451000D01*
X56807143Y-33451000D02*
X56759524Y-33474809D01*
X56759524Y-33474809D02*
X56640476Y-33474809D01*
X56640476Y-33474809D02*
X56592857Y-33451000D01*
X56592857Y-33451000D02*
X56569048Y-33427190D01*
D10*
X43048094Y-51444104D02*
X43524284Y-51444104D01*
X42952856Y-51729819D02*
X43286189Y-50729819D01*
X43286189Y-50729819D02*
X43619522Y-51729819D01*
X43952856Y-51063152D02*
X43952856Y-51729819D01*
X43952856Y-51158390D02*
X44000475Y-51110771D01*
X44000475Y-51110771D02*
X44095713Y-51063152D01*
X44095713Y-51063152D02*
X44238570Y-51063152D01*
X44238570Y-51063152D02*
X44333808Y-51110771D01*
X44333808Y-51110771D02*
X44381427Y-51206009D01*
X44381427Y-51206009D02*
X44381427Y-51729819D01*
X44714761Y-51063152D02*
X45095713Y-51063152D01*
X44857618Y-50729819D02*
X44857618Y-51586961D01*
X44857618Y-51586961D02*
X44905237Y-51682200D01*
X44905237Y-51682200D02*
X45000475Y-51729819D01*
X45000475Y-51729819D02*
X45095713Y-51729819D01*
X45809999Y-51682200D02*
X45714761Y-51729819D01*
X45714761Y-51729819D02*
X45524285Y-51729819D01*
X45524285Y-51729819D02*
X45429047Y-51682200D01*
X45429047Y-51682200D02*
X45381428Y-51586961D01*
X45381428Y-51586961D02*
X45381428Y-51206009D01*
X45381428Y-51206009D02*
X45429047Y-51110771D01*
X45429047Y-51110771D02*
X45524285Y-51063152D01*
X45524285Y-51063152D02*
X45714761Y-51063152D01*
X45714761Y-51063152D02*
X45809999Y-51110771D01*
X45809999Y-51110771D02*
X45857618Y-51206009D01*
X45857618Y-51206009D02*
X45857618Y-51301247D01*
X45857618Y-51301247D02*
X45381428Y-51396485D01*
X46286190Y-51063152D02*
X46286190Y-51729819D01*
X46286190Y-51158390D02*
X46333809Y-51110771D01*
X46333809Y-51110771D02*
X46429047Y-51063152D01*
X46429047Y-51063152D02*
X46571904Y-51063152D01*
X46571904Y-51063152D02*
X46667142Y-51110771D01*
X46667142Y-51110771D02*
X46714761Y-51206009D01*
X46714761Y-51206009D02*
X46714761Y-51729819D01*
X47190952Y-51063152D02*
X47190952Y-51729819D01*
X47190952Y-51158390D02*
X47238571Y-51110771D01*
X47238571Y-51110771D02*
X47333809Y-51063152D01*
X47333809Y-51063152D02*
X47476666Y-51063152D01*
X47476666Y-51063152D02*
X47571904Y-51110771D01*
X47571904Y-51110771D02*
X47619523Y-51206009D01*
X47619523Y-51206009D02*
X47619523Y-51729819D01*
X48524285Y-51729819D02*
X48524285Y-51206009D01*
X48524285Y-51206009D02*
X48476666Y-51110771D01*
X48476666Y-51110771D02*
X48381428Y-51063152D01*
X48381428Y-51063152D02*
X48190952Y-51063152D01*
X48190952Y-51063152D02*
X48095714Y-51110771D01*
X48524285Y-51682200D02*
X48429047Y-51729819D01*
X48429047Y-51729819D02*
X48190952Y-51729819D01*
X48190952Y-51729819D02*
X48095714Y-51682200D01*
X48095714Y-51682200D02*
X48048095Y-51586961D01*
X48048095Y-51586961D02*
X48048095Y-51491723D01*
X48048095Y-51491723D02*
X48095714Y-51396485D01*
X48095714Y-51396485D02*
X48190952Y-51348866D01*
X48190952Y-51348866D02*
X48429047Y-51348866D01*
X48429047Y-51348866D02*
X48524285Y-51301247D01*
X49714762Y-51444104D02*
X50190952Y-51444104D01*
X49619524Y-51729819D02*
X49952857Y-50729819D01*
X49952857Y-50729819D02*
X50286190Y-51729819D01*
X50619524Y-51729819D02*
X50619524Y-51063152D01*
X50619524Y-51253628D02*
X50667143Y-51158390D01*
X50667143Y-51158390D02*
X50714762Y-51110771D01*
X50714762Y-51110771D02*
X50810000Y-51063152D01*
X50810000Y-51063152D02*
X50905238Y-51063152D01*
X51619524Y-51682200D02*
X51524286Y-51729819D01*
X51524286Y-51729819D02*
X51333810Y-51729819D01*
X51333810Y-51729819D02*
X51238572Y-51682200D01*
X51238572Y-51682200D02*
X51190953Y-51586961D01*
X51190953Y-51586961D02*
X51190953Y-51206009D01*
X51190953Y-51206009D02*
X51238572Y-51110771D01*
X51238572Y-51110771D02*
X51333810Y-51063152D01*
X51333810Y-51063152D02*
X51524286Y-51063152D01*
X51524286Y-51063152D02*
X51619524Y-51110771D01*
X51619524Y-51110771D02*
X51667143Y-51206009D01*
X51667143Y-51206009D02*
X51667143Y-51301247D01*
X51667143Y-51301247D02*
X51190953Y-51396485D01*
X52524286Y-51729819D02*
X52524286Y-51206009D01*
X52524286Y-51206009D02*
X52476667Y-51110771D01*
X52476667Y-51110771D02*
X52381429Y-51063152D01*
X52381429Y-51063152D02*
X52190953Y-51063152D01*
X52190953Y-51063152D02*
X52095715Y-51110771D01*
X52524286Y-51682200D02*
X52429048Y-51729819D01*
X52429048Y-51729819D02*
X52190953Y-51729819D01*
X52190953Y-51729819D02*
X52095715Y-51682200D01*
X52095715Y-51682200D02*
X52048096Y-51586961D01*
X52048096Y-51586961D02*
X52048096Y-51491723D01*
X52048096Y-51491723D02*
X52095715Y-51396485D01*
X52095715Y-51396485D02*
X52190953Y-51348866D01*
X52190953Y-51348866D02*
X52429048Y-51348866D01*
X52429048Y-51348866D02*
X52524286Y-51301247D01*
D11*
X83949809Y-37483333D02*
X83949809Y-37721428D01*
X83949809Y-37721428D02*
X83449809Y-37721428D01*
X83949809Y-37054761D02*
X83949809Y-37340475D01*
X83949809Y-37197618D02*
X83449809Y-37197618D01*
X83449809Y-37197618D02*
X83521238Y-37245237D01*
X83521238Y-37245237D02*
X83568857Y-37292856D01*
X83568857Y-37292856D02*
X83592666Y-37340475D01*
X67274809Y-41945833D02*
X67036714Y-42112499D01*
X67274809Y-42231547D02*
X66774809Y-42231547D01*
X66774809Y-42231547D02*
X66774809Y-42041071D01*
X66774809Y-42041071D02*
X66798619Y-41993452D01*
X66798619Y-41993452D02*
X66822428Y-41969642D01*
X66822428Y-41969642D02*
X66870047Y-41945833D01*
X66870047Y-41945833D02*
X66941476Y-41945833D01*
X66941476Y-41945833D02*
X66989095Y-41969642D01*
X66989095Y-41969642D02*
X67012904Y-41993452D01*
X67012904Y-41993452D02*
X67036714Y-42041071D01*
X67036714Y-42041071D02*
X67036714Y-42231547D01*
X66941476Y-41517261D02*
X67274809Y-41517261D01*
X66751000Y-41636309D02*
X67108142Y-41755356D01*
X67108142Y-41755356D02*
X67108142Y-41445833D01*
X98694047Y-25374809D02*
X98694047Y-25779571D01*
X98694047Y-25779571D02*
X98717857Y-25827190D01*
X98717857Y-25827190D02*
X98741666Y-25851000D01*
X98741666Y-25851000D02*
X98789285Y-25874809D01*
X98789285Y-25874809D02*
X98884523Y-25874809D01*
X98884523Y-25874809D02*
X98932142Y-25851000D01*
X98932142Y-25851000D02*
X98955952Y-25827190D01*
X98955952Y-25827190D02*
X98979761Y-25779571D01*
X98979761Y-25779571D02*
X98979761Y-25374809D01*
X99432143Y-25541476D02*
X99432143Y-25874809D01*
X99313095Y-25351000D02*
X99194048Y-25708142D01*
X99194048Y-25708142D02*
X99503571Y-25708142D01*
X62924809Y-45508333D02*
X62686714Y-45674999D01*
X62924809Y-45794047D02*
X62424809Y-45794047D01*
X62424809Y-45794047D02*
X62424809Y-45603571D01*
X62424809Y-45603571D02*
X62448619Y-45555952D01*
X62448619Y-45555952D02*
X62472428Y-45532142D01*
X62472428Y-45532142D02*
X62520047Y-45508333D01*
X62520047Y-45508333D02*
X62591476Y-45508333D01*
X62591476Y-45508333D02*
X62639095Y-45532142D01*
X62639095Y-45532142D02*
X62662904Y-45555952D01*
X62662904Y-45555952D02*
X62686714Y-45603571D01*
X62686714Y-45603571D02*
X62686714Y-45794047D01*
X62924809Y-45032142D02*
X62924809Y-45317856D01*
X62924809Y-45174999D02*
X62424809Y-45174999D01*
X62424809Y-45174999D02*
X62496238Y-45222618D01*
X62496238Y-45222618D02*
X62543857Y-45270237D01*
X62543857Y-45270237D02*
X62567666Y-45317856D01*
X76422428Y-29272619D02*
X76398619Y-29320238D01*
X76398619Y-29320238D02*
X76351000Y-29367857D01*
X76351000Y-29367857D02*
X76279571Y-29439285D01*
X76279571Y-29439285D02*
X76255761Y-29486904D01*
X76255761Y-29486904D02*
X76255761Y-29534523D01*
X76374809Y-29510714D02*
X76351000Y-29558333D01*
X76351000Y-29558333D02*
X76303380Y-29605952D01*
X76303380Y-29605952D02*
X76208142Y-29629761D01*
X76208142Y-29629761D02*
X76041476Y-29629761D01*
X76041476Y-29629761D02*
X75946238Y-29605952D01*
X75946238Y-29605952D02*
X75898619Y-29558333D01*
X75898619Y-29558333D02*
X75874809Y-29510714D01*
X75874809Y-29510714D02*
X75874809Y-29415476D01*
X75874809Y-29415476D02*
X75898619Y-29367857D01*
X75898619Y-29367857D02*
X75946238Y-29320238D01*
X75946238Y-29320238D02*
X76041476Y-29296428D01*
X76041476Y-29296428D02*
X76208142Y-29296428D01*
X76208142Y-29296428D02*
X76303380Y-29320238D01*
X76303380Y-29320238D02*
X76351000Y-29367857D01*
X76351000Y-29367857D02*
X76374809Y-29415476D01*
X76374809Y-29415476D02*
X76374809Y-29510714D01*
X76374809Y-28820237D02*
X76374809Y-29105951D01*
X76374809Y-28963094D02*
X75874809Y-28963094D01*
X75874809Y-28963094D02*
X75946238Y-29010713D01*
X75946238Y-29010713D02*
X75993857Y-29058332D01*
X75993857Y-29058332D02*
X76017666Y-29105951D01*
X56283333Y-25699809D02*
X56283333Y-26056952D01*
X56283333Y-26056952D02*
X56259524Y-26128380D01*
X56259524Y-26128380D02*
X56211905Y-26176000D01*
X56211905Y-26176000D02*
X56140476Y-26199809D01*
X56140476Y-26199809D02*
X56092857Y-26199809D01*
X56735714Y-25866476D02*
X56735714Y-26199809D01*
X56616666Y-25676000D02*
X56497619Y-26033142D01*
X56497619Y-26033142D02*
X56807142Y-26033142D01*
X59002380Y-28447428D02*
X58954761Y-28423619D01*
X58954761Y-28423619D02*
X58907142Y-28376000D01*
X58907142Y-28376000D02*
X58835714Y-28304571D01*
X58835714Y-28304571D02*
X58788095Y-28280761D01*
X58788095Y-28280761D02*
X58740476Y-28280761D01*
X58764285Y-28399809D02*
X58716666Y-28376000D01*
X58716666Y-28376000D02*
X58669047Y-28328380D01*
X58669047Y-28328380D02*
X58645238Y-28233142D01*
X58645238Y-28233142D02*
X58645238Y-28066476D01*
X58645238Y-28066476D02*
X58669047Y-27971238D01*
X58669047Y-27971238D02*
X58716666Y-27923619D01*
X58716666Y-27923619D02*
X58764285Y-27899809D01*
X58764285Y-27899809D02*
X58859523Y-27899809D01*
X58859523Y-27899809D02*
X58907142Y-27923619D01*
X58907142Y-27923619D02*
X58954761Y-27971238D01*
X58954761Y-27971238D02*
X58978571Y-28066476D01*
X58978571Y-28066476D02*
X58978571Y-28233142D01*
X58978571Y-28233142D02*
X58954761Y-28328380D01*
X58954761Y-28328380D02*
X58907142Y-28376000D01*
X58907142Y-28376000D02*
X58859523Y-28399809D01*
X58859523Y-28399809D02*
X58764285Y-28399809D01*
X59169048Y-27947428D02*
X59192857Y-27923619D01*
X59192857Y-27923619D02*
X59240476Y-27899809D01*
X59240476Y-27899809D02*
X59359524Y-27899809D01*
X59359524Y-27899809D02*
X59407143Y-27923619D01*
X59407143Y-27923619D02*
X59430952Y-27947428D01*
X59430952Y-27947428D02*
X59454762Y-27995047D01*
X59454762Y-27995047D02*
X59454762Y-28042666D01*
X59454762Y-28042666D02*
X59430952Y-28114095D01*
X59430952Y-28114095D02*
X59145238Y-28399809D01*
X59145238Y-28399809D02*
X59454762Y-28399809D01*
X78430952Y-25849809D02*
X78430952Y-25349809D01*
X78430952Y-25349809D02*
X78550000Y-25349809D01*
X78550000Y-25349809D02*
X78621428Y-25373619D01*
X78621428Y-25373619D02*
X78669047Y-25421238D01*
X78669047Y-25421238D02*
X78692857Y-25468857D01*
X78692857Y-25468857D02*
X78716666Y-25564095D01*
X78716666Y-25564095D02*
X78716666Y-25635523D01*
X78716666Y-25635523D02*
X78692857Y-25730761D01*
X78692857Y-25730761D02*
X78669047Y-25778380D01*
X78669047Y-25778380D02*
X78621428Y-25826000D01*
X78621428Y-25826000D02*
X78550000Y-25849809D01*
X78550000Y-25849809D02*
X78430952Y-25849809D01*
X79145238Y-25516476D02*
X79145238Y-25849809D01*
X79026190Y-25326000D02*
X78907143Y-25683142D01*
X78907143Y-25683142D02*
X79216666Y-25683142D01*
X69641666Y-38977190D02*
X69617857Y-39001000D01*
X69617857Y-39001000D02*
X69546428Y-39024809D01*
X69546428Y-39024809D02*
X69498809Y-39024809D01*
X69498809Y-39024809D02*
X69427381Y-39001000D01*
X69427381Y-39001000D02*
X69379762Y-38953380D01*
X69379762Y-38953380D02*
X69355952Y-38905761D01*
X69355952Y-38905761D02*
X69332143Y-38810523D01*
X69332143Y-38810523D02*
X69332143Y-38739095D01*
X69332143Y-38739095D02*
X69355952Y-38643857D01*
X69355952Y-38643857D02*
X69379762Y-38596238D01*
X69379762Y-38596238D02*
X69427381Y-38548619D01*
X69427381Y-38548619D02*
X69498809Y-38524809D01*
X69498809Y-38524809D02*
X69546428Y-38524809D01*
X69546428Y-38524809D02*
X69617857Y-38548619D01*
X69617857Y-38548619D02*
X69641666Y-38572428D01*
X70070238Y-38691476D02*
X70070238Y-39024809D01*
X69951190Y-38501000D02*
X69832143Y-38858142D01*
X69832143Y-38858142D02*
X70141666Y-38858142D01*
X86405952Y-25699809D02*
X86405952Y-25199809D01*
X86405952Y-25199809D02*
X86525000Y-25199809D01*
X86525000Y-25199809D02*
X86596428Y-25223619D01*
X86596428Y-25223619D02*
X86644047Y-25271238D01*
X86644047Y-25271238D02*
X86667857Y-25318857D01*
X86667857Y-25318857D02*
X86691666Y-25414095D01*
X86691666Y-25414095D02*
X86691666Y-25485523D01*
X86691666Y-25485523D02*
X86667857Y-25580761D01*
X86667857Y-25580761D02*
X86644047Y-25628380D01*
X86644047Y-25628380D02*
X86596428Y-25676000D01*
X86596428Y-25676000D02*
X86525000Y-25699809D01*
X86525000Y-25699809D02*
X86405952Y-25699809D01*
X86858333Y-25199809D02*
X87167857Y-25199809D01*
X87167857Y-25199809D02*
X87001190Y-25390285D01*
X87001190Y-25390285D02*
X87072619Y-25390285D01*
X87072619Y-25390285D02*
X87120238Y-25414095D01*
X87120238Y-25414095D02*
X87144047Y-25437904D01*
X87144047Y-25437904D02*
X87167857Y-25485523D01*
X87167857Y-25485523D02*
X87167857Y-25604571D01*
X87167857Y-25604571D02*
X87144047Y-25652190D01*
X87144047Y-25652190D02*
X87120238Y-25676000D01*
X87120238Y-25676000D02*
X87072619Y-25699809D01*
X87072619Y-25699809D02*
X86929762Y-25699809D01*
X86929762Y-25699809D02*
X86882143Y-25676000D01*
X86882143Y-25676000D02*
X86858333Y-25652190D01*
X61299809Y-38483928D02*
X61061714Y-38650594D01*
X61299809Y-38769642D02*
X60799809Y-38769642D01*
X60799809Y-38769642D02*
X60799809Y-38579166D01*
X60799809Y-38579166D02*
X60823619Y-38531547D01*
X60823619Y-38531547D02*
X60847428Y-38507737D01*
X60847428Y-38507737D02*
X60895047Y-38483928D01*
X60895047Y-38483928D02*
X60966476Y-38483928D01*
X60966476Y-38483928D02*
X61014095Y-38507737D01*
X61014095Y-38507737D02*
X61037904Y-38531547D01*
X61037904Y-38531547D02*
X61061714Y-38579166D01*
X61061714Y-38579166D02*
X61061714Y-38769642D01*
X61299809Y-38007737D02*
X61299809Y-38293451D01*
X61299809Y-38150594D02*
X60799809Y-38150594D01*
X60799809Y-38150594D02*
X60871238Y-38198213D01*
X60871238Y-38198213D02*
X60918857Y-38245832D01*
X60918857Y-38245832D02*
X60942666Y-38293451D01*
X60799809Y-37841071D02*
X60799809Y-37531547D01*
X60799809Y-37531547D02*
X60990285Y-37698214D01*
X60990285Y-37698214D02*
X60990285Y-37626785D01*
X60990285Y-37626785D02*
X61014095Y-37579166D01*
X61014095Y-37579166D02*
X61037904Y-37555357D01*
X61037904Y-37555357D02*
X61085523Y-37531547D01*
X61085523Y-37531547D02*
X61204571Y-37531547D01*
X61204571Y-37531547D02*
X61252190Y-37555357D01*
X61252190Y-37555357D02*
X61276000Y-37579166D01*
X61276000Y-37579166D02*
X61299809Y-37626785D01*
X61299809Y-37626785D02*
X61299809Y-37769642D01*
X61299809Y-37769642D02*
X61276000Y-37817261D01*
X61276000Y-37817261D02*
X61252190Y-37841071D01*
X44253571Y-30099809D02*
X44086905Y-29861714D01*
X43967857Y-30099809D02*
X43967857Y-29599809D01*
X43967857Y-29599809D02*
X44158333Y-29599809D01*
X44158333Y-29599809D02*
X44205952Y-29623619D01*
X44205952Y-29623619D02*
X44229762Y-29647428D01*
X44229762Y-29647428D02*
X44253571Y-29695047D01*
X44253571Y-29695047D02*
X44253571Y-29766476D01*
X44253571Y-29766476D02*
X44229762Y-29814095D01*
X44229762Y-29814095D02*
X44205952Y-29837904D01*
X44205952Y-29837904D02*
X44158333Y-29861714D01*
X44158333Y-29861714D02*
X43967857Y-29861714D01*
X44729762Y-30099809D02*
X44444048Y-30099809D01*
X44586905Y-30099809D02*
X44586905Y-29599809D01*
X44586905Y-29599809D02*
X44539286Y-29671238D01*
X44539286Y-29671238D02*
X44491667Y-29718857D01*
X44491667Y-29718857D02*
X44444048Y-29742666D01*
X44920238Y-29647428D02*
X44944047Y-29623619D01*
X44944047Y-29623619D02*
X44991666Y-29599809D01*
X44991666Y-29599809D02*
X45110714Y-29599809D01*
X45110714Y-29599809D02*
X45158333Y-29623619D01*
X45158333Y-29623619D02*
X45182142Y-29647428D01*
X45182142Y-29647428D02*
X45205952Y-29695047D01*
X45205952Y-29695047D02*
X45205952Y-29742666D01*
X45205952Y-29742666D02*
X45182142Y-29814095D01*
X45182142Y-29814095D02*
X44896428Y-30099809D01*
X44896428Y-30099809D02*
X45205952Y-30099809D01*
X44466666Y-25177190D02*
X44442857Y-25201000D01*
X44442857Y-25201000D02*
X44371428Y-25224809D01*
X44371428Y-25224809D02*
X44323809Y-25224809D01*
X44323809Y-25224809D02*
X44252381Y-25201000D01*
X44252381Y-25201000D02*
X44204762Y-25153380D01*
X44204762Y-25153380D02*
X44180952Y-25105761D01*
X44180952Y-25105761D02*
X44157143Y-25010523D01*
X44157143Y-25010523D02*
X44157143Y-24939095D01*
X44157143Y-24939095D02*
X44180952Y-24843857D01*
X44180952Y-24843857D02*
X44204762Y-24796238D01*
X44204762Y-24796238D02*
X44252381Y-24748619D01*
X44252381Y-24748619D02*
X44323809Y-24724809D01*
X44323809Y-24724809D02*
X44371428Y-24724809D01*
X44371428Y-24724809D02*
X44442857Y-24748619D01*
X44442857Y-24748619D02*
X44466666Y-24772428D01*
X44942857Y-25224809D02*
X44657143Y-25224809D01*
X44800000Y-25224809D02*
X44800000Y-24724809D01*
X44800000Y-24724809D02*
X44752381Y-24796238D01*
X44752381Y-24796238D02*
X44704762Y-24843857D01*
X44704762Y-24843857D02*
X44657143Y-24867666D01*
X44466666Y-27677190D02*
X44442857Y-27701000D01*
X44442857Y-27701000D02*
X44371428Y-27724809D01*
X44371428Y-27724809D02*
X44323809Y-27724809D01*
X44323809Y-27724809D02*
X44252381Y-27701000D01*
X44252381Y-27701000D02*
X44204762Y-27653380D01*
X44204762Y-27653380D02*
X44180952Y-27605761D01*
X44180952Y-27605761D02*
X44157143Y-27510523D01*
X44157143Y-27510523D02*
X44157143Y-27439095D01*
X44157143Y-27439095D02*
X44180952Y-27343857D01*
X44180952Y-27343857D02*
X44204762Y-27296238D01*
X44204762Y-27296238D02*
X44252381Y-27248619D01*
X44252381Y-27248619D02*
X44323809Y-27224809D01*
X44323809Y-27224809D02*
X44371428Y-27224809D01*
X44371428Y-27224809D02*
X44442857Y-27248619D01*
X44442857Y-27248619D02*
X44466666Y-27272428D01*
X44657143Y-27272428D02*
X44680952Y-27248619D01*
X44680952Y-27248619D02*
X44728571Y-27224809D01*
X44728571Y-27224809D02*
X44847619Y-27224809D01*
X44847619Y-27224809D02*
X44895238Y-27248619D01*
X44895238Y-27248619D02*
X44919047Y-27272428D01*
X44919047Y-27272428D02*
X44942857Y-27320047D01*
X44942857Y-27320047D02*
X44942857Y-27367666D01*
X44942857Y-27367666D02*
X44919047Y-27439095D01*
X44919047Y-27439095D02*
X44633333Y-27724809D01*
X44633333Y-27724809D02*
X44942857Y-27724809D01*
X80868452Y-33549809D02*
X80868452Y-33049809D01*
X80868452Y-33049809D02*
X80987500Y-33049809D01*
X80987500Y-33049809D02*
X81058928Y-33073619D01*
X81058928Y-33073619D02*
X81106547Y-33121238D01*
X81106547Y-33121238D02*
X81130357Y-33168857D01*
X81130357Y-33168857D02*
X81154166Y-33264095D01*
X81154166Y-33264095D02*
X81154166Y-33335523D01*
X81154166Y-33335523D02*
X81130357Y-33430761D01*
X81130357Y-33430761D02*
X81106547Y-33478380D01*
X81106547Y-33478380D02*
X81058928Y-33526000D01*
X81058928Y-33526000D02*
X80987500Y-33549809D01*
X80987500Y-33549809D02*
X80868452Y-33549809D01*
X81630357Y-33549809D02*
X81344643Y-33549809D01*
X81487500Y-33549809D02*
X81487500Y-33049809D01*
X81487500Y-33049809D02*
X81439881Y-33121238D01*
X81439881Y-33121238D02*
X81392262Y-33168857D01*
X81392262Y-33168857D02*
X81344643Y-33192666D01*
D12*
%TO.C,R8*%
X40079724Y-28377500D02*
X39570276Y-28377500D01*
X40079724Y-29422500D02*
X39570276Y-29422500D01*
%TO.C,R2*%
X65327500Y-45642224D02*
X65327500Y-45132776D01*
X66372500Y-45642224D02*
X66372500Y-45132776D01*
%TO.C,R3*%
X63427500Y-42142224D02*
X63427500Y-41632776D01*
X64472500Y-42142224D02*
X64472500Y-41632776D01*
%TO.C,C3*%
X95151248Y-37790000D02*
X96573752Y-37790000D01*
X95151248Y-39610000D02*
X96573752Y-39610000D01*
%TO.C,R7*%
X78904724Y-34777500D02*
X78395276Y-34777500D01*
X78904724Y-35822500D02*
X78395276Y-35822500D01*
%TO.C,J1*%
X34245000Y-43805000D02*
X34245000Y-25915000D01*
X37005000Y-25915000D02*
X34245000Y-25915000D01*
X37005000Y-43805000D02*
X34245000Y-43805000D01*
X37005000Y-43805000D02*
X37005000Y-25915000D01*
X37005000Y-45075000D02*
X37005000Y-46455000D01*
X37005000Y-46455000D02*
X35625000Y-46455000D01*
%TO.C,D5*%
X101965000Y-38075000D02*
X101965000Y-41375000D01*
X101965000Y-38075000D02*
X107475000Y-38075000D01*
X101965000Y-41375000D02*
X107475000Y-41375000D01*
%TO.C,S2*%
X70950000Y-42150000D02*
X68450000Y-42150000D01*
X68450000Y-46250000D01*
X70950000Y-46250000D01*
X70950000Y-42150000D01*
%TO.C,D2*%
X38750000Y-32235000D02*
X41610000Y-32235000D01*
X41610000Y-30315000D02*
X38750000Y-30315000D01*
X41610000Y-32235000D02*
X41610000Y-30315000D01*
%TO.C,S1*%
X61550000Y-42150000D02*
X59050000Y-42150000D01*
X59050000Y-46250000D01*
X61550000Y-46250000D01*
X61550000Y-42150000D01*
%TO.C,R11*%
X69532776Y-36302500D02*
X70042224Y-36302500D01*
X69532776Y-37347500D02*
X70042224Y-37347500D01*
%TO.C,U5*%
X38810000Y-33875000D02*
X56810000Y-33875000D01*
X38810000Y-34125000D02*
X38810000Y-33875000D01*
X38810000Y-47875000D02*
X56760000Y-47875000D01*
X38810000Y-53875000D02*
X38810000Y-47375000D01*
X56810000Y-33875000D02*
X56810000Y-34125000D01*
X56810000Y-53875000D02*
X38810000Y-53875000D01*
X56810000Y-53875000D02*
X56810000Y-47375000D01*
%TO.C,L1*%
X84500000Y-33700000D02*
X84500000Y-41100000D01*
X84500000Y-33700000D02*
X86000000Y-33700000D01*
X84500000Y-41100000D02*
X86000000Y-41100000D01*
X91300000Y-33700000D02*
X89800000Y-33700000D01*
X91300000Y-41100000D02*
X89800000Y-41100000D01*
X91300000Y-41100000D02*
X91300000Y-33700000D01*
%TO.C,R4*%
X65327500Y-42142224D02*
X65327500Y-41632776D01*
X66372500Y-42142224D02*
X66372500Y-41632776D01*
%TO.C,U4*%
X98275000Y-26150000D02*
X98275000Y-27100000D01*
X98275000Y-27100000D02*
X93150000Y-27100000D01*
X98275000Y-35600000D02*
X97175000Y-35600000D01*
X98275000Y-36550000D02*
X98275000Y-35600000D01*
X99775000Y-26150000D02*
X98275000Y-26150000D01*
X99775000Y-36550000D02*
X98275000Y-36550000D01*
%TO.C,R1*%
X63427500Y-45642224D02*
X63427500Y-45132776D01*
X64472500Y-45642224D02*
X64472500Y-45132776D01*
%TO.C,Q1*%
X68000000Y-26175000D02*
X68000000Y-32475000D01*
X69500000Y-26175000D02*
X68000000Y-26175000D01*
X75300000Y-26175000D02*
X73800000Y-26175000D01*
X75300000Y-26175000D02*
X75300000Y-32475000D01*
%TO.C,J4*%
X47790000Y-27380000D02*
X47790000Y-26050000D01*
X49120000Y-27380000D02*
X47790000Y-27380000D01*
X50390000Y-24720000D02*
X55530000Y-24720000D01*
X50390000Y-27380000D02*
X50390000Y-24720000D01*
X50390000Y-27380000D02*
X55530000Y-27380000D01*
X55530000Y-27380000D02*
X55530000Y-24720000D01*
%TO.C,Q2*%
X59775000Y-28840000D02*
X58375000Y-28840000D01*
X59785000Y-31160000D02*
X58375000Y-31160000D01*
X60395000Y-31440000D02*
X59915000Y-31440000D01*
X60155000Y-31110000D01*
X60395000Y-31440000D01*
G36*
X60395000Y-31440000D02*
G01*
X59915000Y-31440000D01*
X60155000Y-31110000D01*
X60395000Y-31440000D01*
G37*
%TO.C,D4*%
X79650000Y-26150000D02*
X79650000Y-28150000D01*
X79750000Y-26150000D02*
X79650000Y-26150000D01*
X79750000Y-28150000D02*
X79750000Y-26150000D01*
X81010000Y-26150000D02*
X77000000Y-26150000D01*
X81010000Y-28150000D02*
X77000000Y-28150000D01*
X81010000Y-28150000D02*
X81010000Y-26150000D01*
%TO.C,C4*%
X69476248Y-39365000D02*
X69998752Y-39365000D01*
X69476248Y-40835000D02*
X69998752Y-40835000D01*
%TO.C,D3*%
X83200000Y-31500000D02*
X83200000Y-30500000D01*
X83250000Y-26000000D02*
X90250000Y-26000000D01*
X83250000Y-27000000D02*
X83250000Y-26000000D01*
X90200000Y-30500000D02*
X90200000Y-31500000D01*
X90200000Y-31500000D02*
X83200000Y-31500000D01*
X90250000Y-26000000D02*
X90250000Y-27000000D01*
%TO.C,R13*%
X59477500Y-37907776D02*
X59477500Y-38417224D01*
X60522500Y-37907776D02*
X60522500Y-38417224D01*
%TO.C,R12*%
X44854724Y-30277500D02*
X44345276Y-30277500D01*
X44854724Y-31322500D02*
X44345276Y-31322500D01*
%TO.C,C1*%
X44288748Y-25415000D02*
X44811252Y-25415000D01*
X44288748Y-26885000D02*
X44811252Y-26885000D01*
%TO.C,C2*%
X44313748Y-27915000D02*
X44836252Y-27915000D01*
X44313748Y-29385000D02*
X44836252Y-29385000D01*
%TO.C,D1*%
X77637500Y-34235000D02*
X80497500Y-34235000D01*
X80497500Y-32315000D02*
X77637500Y-32315000D01*
X80497500Y-34235000D02*
X80497500Y-32315000D01*
%TD*%
M02*
