M48
; DRILL file {KiCad 9.0.3+dfsg-1} date 2025-10-23T15:20:36+0200
; FORMAT={-:-/ absolute / metric / decimal}
; #@! TF.CreationDate,2025-10-23T15:20:36+02:00
; #@! TF.GenerationSoftware,Kicad,Pcbnew,9.0.3+dfsg-1
; #@! TF.FileFunction,Plated,1,2,PTH
FMAT,2
METRIC
; #@! TA.AperFunction,Plated,PTH,ViaDrill
T1C0.200
; #@! TA.AperFunction,Plated,PTH,ViaDrill
T2C0.400
; #@! TA.AperFunction,Plated,PTH,ComponentDrill
T3C1.000
%
G90
G05
T1
X57.15Y-29.5
X57.825Y-37.5
X59.125Y-32.225
X60.9Y-37.25
X60.975Y-29.35
T2
X44.5Y-34.325
X45.5Y-31.975
X45.525Y-38.35
X46.275Y-27.45
X46.9Y-38.375
X48.175Y-38.375
X51.55Y-42.65
X54.925Y-46.775
X54.95Y-34.75
X55.05Y-36.25
X58.075Y-46.775
X58.193Y-43.55
X58.2Y-42.275
X62.2Y-42.55
X62.475Y-44.4
X62.925Y-43.3
X67.075Y-44.425
X67.925Y-42.525
X72.075Y-36.8
X74.125Y-34.2
X80.55Y-29.2
X82.5Y-33.275
X87.575Y-36.35
X92.175Y-31.325
X92.175Y-34.725
X103.425Y-30.15
X103.5Y-32.775
X105.35Y-30.15
X105.35Y-32.75
T3
X35.625Y-27.295
X35.625Y-29.835
X35.625Y-32.375
X35.625Y-34.915
X35.625Y-37.455
X35.625Y-39.995
X35.625Y-42.535
X35.625Y-45.075
X49.12Y-26.05
X49.12Y-29.475
X51.66Y-26.05
X51.66Y-29.475
X54.2Y-26.05
X54.2Y-29.475
X63.725Y-29.055
X63.725Y-31.595
X63.725Y-34.135
X63.725Y-36.675
M30
